<?xml version="1.0" encoding="utf-8" ?>
<svg width="50" height="50" viewBox="0 0 900 900">
	<path fill="#FFBAAA" transform="scale(1.6 1.6)" d="M127.378 117.925C128.574 116.45 130.167 111.569 132.087 111.216C132.671 113.019 131.876 115.531 131.401 117.313C133.063 117.199 134.725 117.225 136.389 117.235C133.36 117.729 130.385 117.16 127.378 117.925Z"/>
	<path fill="#CE1009" transform="scale(1.6 1.6)" d="M128.264 431.957L128.528 430.642L129.05 430.343C129.895 430.897 130.314 431.782 130.825 432.626C131.547 435.229 132.365 438.021 132.534 440.722C131.347 440.532 130.99 440.843 129.967 441.348C129.278 438.22 128.682 435.137 128.264 431.957Z"/>
	<path transform="scale(1.6 1.6)" d="M143.097 116.959C150.871 116.221 158.7 116.577 166.497 116.449C185.874 116.131 203.877 111.961 222.933 109.339C237.288 107.364 402.344 85.741 408.956 89.6151C411.605 93.6615 409.935 119.328 410.708 126.196C415.408 124.877 434.366 121.624 438.304 122.464C441.796 124.971 440.942 141.879 441.496 146.429L450.625 220.602C498.906 243.553 517.618 277.266 521.589 327.78C524.376 363.222 520.679 416.013 494.455 443.637C497.405 446.796 499.835 450.56 502.372 454.055C517.257 474.561 552.221 502.065 551.504 526.31C550.909 546.387 535.221 561.332 514.979 560.702C478.507 559.569 459.362 506.433 442.54 480.094C438.677 482.371 433.719 483.855 429.461 485.307C396.593 496.517 342.862 498.495 311.282 480.16C302.658 482.387 292.715 481.651 283.847 481.656L210.78 481.653C172.879 481.628 142.241 485.855 129.967 441.348C130.99 440.843 131.347 440.532 132.534 440.722C132.365 438.021 131.547 435.229 130.825 432.626C130.314 431.782 129.895 430.897 129.05 430.343L128.528 430.642L128.264 431.957C119.545 396.323 125.099 343.127 126.282 305.856C127.191 277.231 126.145 250.498 125.059 222.172C124.802 215.488 125.14 208.784 124.945 202.101C124.629 191.251 118.75 123.237 127.378 117.925C130.385 117.16 133.36 117.729 136.389 117.235L137.776 117.244L143.097 116.959ZM170.25 121.728C175.479 121.53 180.152 120.498 185.23 119.339C180.771 118.741 173.044 119.816 168.045 119.898C164.147 119.841 145.428 119.047 142.986 117.42L143.097 116.959L137.776 117.244L136.389 117.235C133.36 117.729 130.385 117.16 127.378 117.925C118.75 123.237 124.629 191.251 124.945 202.101C125.14 208.784 124.802 215.488 125.059 222.172C126.145 250.498 127.191 277.231 126.282 305.856C125.099 343.127 119.545 396.323 128.264 431.957L128.528 430.642L129.05 430.343C129.895 430.897 130.314 431.782 130.825 432.626C132.743 427.504 130.82 413.397 131.28 405.82C131.401 406.703 131.549 407.588 131.614 408.477C132.964 407.088 132.776 406.094 132.839 404.261C132.693 345.346 138.508 286.407 135.885 227.513C135.443 217.574 134.122 207.597 133.996 197.667C133.85 196.682 133.813 195.663 133.737 194.669C133.728 191.137 133.753 187.605 133.529 184.078C132.491 165.101 131.552 145.136 134.149 126.35C136.302 126.133 138.495 125.778 140.656 126.028C133.145 136.402 150.335 140.228 157.335 139.91C157.043 140.288 156.831 140.602 156.6 141.011L157.095 141.552C164.487 144.417 185.553 138.132 194.982 137.588C209.058 132.443 266.578 129.76 286.703 127.383C300.429 125.415 371.452 114.513 377.388 116.315C378.019 112.851 377.175 103.008 380.559 101.383C328.28 105.655 274.668 111.656 222.926 119.587C212.209 121.229 179.286 127.759 170.25 121.728ZM185.23 119.339C180.152 120.498 175.479 121.53 170.25 121.728C179.286 127.759 212.209 121.229 222.926 119.587C274.668 111.656 328.28 105.655 380.559 101.383C382.87 103.843 380.47 133.483 380.496 138.775C380.538 146.991 381.394 155.22 381.292 163.435L381.665 164.516C382.644 160.237 386.114 156.901 387.109 152.519C390.573 137.251 384.595 112.472 389.375 97.1481L390.081 94.8622L320.319 101.729C287.041 105.027 253.592 108.876 220.525 113.955C208.754 115.763 197.052 117.859 185.23 119.339ZM411.009 129.403C412.203 150.773 413.431 174.162 413.461 195.315C413.468 199.955 413.851 205.003 412.905 209.57C414.673 209.746 416.447 209.89 418.199 210.192C418.942 208.028 418.998 145.065 418.424 139.826C409.205 132.154 414.709 132.219 420.084 129.223L420.032 128.666C417.048 128.881 413.963 128.945 411.009 129.403ZM488.024 448.246C475.516 460.211 462.651 467.655 447.832 476.353C448.917 477.403 450.041 478.43 451.034 479.568C452.628 477.996 454.944 477.104 456.929 476.121C469.884 469.712 479.292 462.309 491 454.124C489.981 452.217 488.777 450.269 488.024 448.246Z"/>
	<defs>
		<linearGradient id="gradient_0" gradientUnits="userSpaceOnUse" x1="229.498" y1="467.8999" x2="228.53864" y2="479.41028">
			<stop offset="0" stop-color="#FFA9BD"/>
			<stop offset="1" stop-color="#FFECEA"/>
		</linearGradient>
	</defs>
	<path fill="url(#gradient_0)" transform="scale(1.6 1.6)" d="M153.124 469.536C156.102 468.013 166.619 472.321 170.796 472.53C181.312 473.055 289.158 475.231 293.451 471.971C297.118 473.872 301.027 475.221 304.794 476.906C284.903 477.789 264.76 476.538 244.817 476.541L207.232 476.551C190.734 476.555 167.964 478.043 153.124 469.536Z"/>
	<path fill="#FEFEFE" transform="scale(1.6 1.6)" d="M239.1 366.001C231.787 297.69 276.675 228.847 345.411 214.917C388.756 206.132 436.999 215.65 473.713 239.938C468.539 239.642 459.559 233.471 454.434 231.214C430.089 220.495 404.301 215.058 377.651 215.104C314.467 215.212 279.035 244.973 253.199 298.512C245.15 315.191 240.444 334.215 239.99 352.79C239.913 355.946 241.307 363.665 239.1 366.001Z"/>
	<path fill="#FC615C" transform="scale(1.6 1.6)" d="M420.032 128.666C424.716 127.584 430.436 127.527 435.238 127.559C436.498 133.298 436.091 139.307 436.907 145.115C438.088 153.525 440.589 161.692 441.782 170.118C444.356 188.29 444.479 201.045 449.294 219.72C438.307 215.232 427.342 213.799 418.199 210.192C418.942 208.028 418.998 145.065 418.424 139.826C409.205 132.154 414.709 132.219 420.084 129.223L420.032 128.666Z"/>
	<defs>
		<linearGradient id="gradient_1" gradientUnits="userSpaceOnUse" x1="212.20421" y1="474.6868" x2="210.39413" y2="412.104">
			<stop offset="0" stop-color="#FF4D55"/>
			<stop offset="1" stop-color="#FFA9B3"/>
		</linearGradient>
	</defs>
	<path fill="url(#gradient_1)" transform="scale(1.6 1.6)" d="M132.839 404.261C133.319 407.36 133.498 410.58 133.467 413.715C135.487 431.352 136.037 445.781 150.563 457.401C154.313 460.401 162.365 459.063 166.819 459.03L259.847 458.999C264.084 458.981 268.282 458.23 272.498 458.249C279.484 462.931 286.155 467.721 293.451 471.971C289.158 475.231 181.312 473.055 170.796 472.53C166.619 472.321 156.102 468.013 153.124 469.536C144.102 466.401 134.841 449.449 132.534 440.722C132.365 438.021 131.547 435.229 130.825 432.626C132.743 427.504 130.82 413.397 131.28 405.82C131.401 406.703 131.549 407.588 131.614 408.477C132.964 407.088 132.776 406.094 132.839 404.261Z"/>
	<path fill="#FEFEFE" transform="scale(1.6 1.6)" d="M132.839 404.261C133.319 407.36 133.498 410.58 133.467 413.715L133.24 416.252C133.16 415.556 133.233 415.067 132.771 414.518L132.171 414.677L131.83 415.341C131.33 413.362 131.446 410.519 131.614 408.477C132.964 407.088 132.776 406.094 132.839 404.261Z"/>
	<path fill="#FC615C" transform="scale(1.6 1.6)" d="M390.081 94.8622C394.85 93.8859 400.135 93.9391 404.988 93.7181C405.499 105.083 405.115 116.43 405.357 127.795C405.896 153.103 406.583 183.726 409.479 208.967C400.061 208.166 390.449 207.529 380.994 207.454L381.292 163.435L381.665 164.516C382.644 160.237 386.114 156.901 387.109 152.519C390.573 137.251 384.595 112.472 389.375 97.1481L390.081 94.8622Z"/>
	<path fill="#15BBAB" transform="scale(1.6 1.6)" d="M491 454.124C503.096 472.92 532.552 498.437 539.492 512.732C548.464 531.214 536.998 550.693 516.907 551.354C520.085 542.901 532.091 538.037 528.928 531.64C527.373 528.495 523.14 530.394 520.946 531.742C514.118 535.936 511.873 543.119 508.711 549.967C489.072 543.352 462.064 500.258 451.034 479.568C452.628 477.996 454.944 477.104 456.929 476.121C469.884 469.712 479.292 462.309 491 454.124Z"/>
	<path fill="#FC615C" transform="scale(1.6 1.6)" d="M170.25 121.728C179.286 127.759 212.209 121.229 222.926 119.587C274.668 111.656 328.28 105.655 380.559 101.383C377.175 103.008 378.019 112.851 377.388 116.315C371.452 114.513 300.429 125.415 286.703 127.383C266.578 129.76 209.058 132.443 194.982 137.588C185.553 138.132 164.487 144.417 157.095 141.552L156.6 141.011C156.831 140.602 157.043 140.288 157.335 139.91C150.335 140.228 133.145 136.402 140.656 126.028C138.495 125.778 136.302 126.133 134.149 126.35C131.552 145.136 132.491 165.101 133.529 184.078C133.753 187.605 133.728 191.137 133.737 194.669C133.813 195.663 133.85 196.682 133.996 197.667C134.122 207.597 135.443 217.574 135.885 227.513C138.508 286.407 132.693 345.346 132.839 404.261C132.776 406.094 132.964 407.088 131.614 408.477C131.549 407.588 131.401 406.703 131.28 405.82C130.82 413.397 132.743 427.504 130.825 432.626C130.314 431.782 129.895 430.897 129.05 430.343L128.528 430.642L128.264 431.957C119.545 396.323 125.099 343.127 126.282 305.856C127.191 277.231 126.145 250.498 125.059 222.172C124.802 215.488 125.14 208.784 124.945 202.101C124.629 191.251 118.75 123.237 127.378 117.925C130.385 117.16 133.36 117.729 136.389 117.235L137.776 117.244L143.097 116.959L142.986 117.42C145.428 119.047 164.147 119.841 168.045 119.898C173.044 119.816 180.771 118.741 185.23 119.339C180.152 120.498 175.479 121.53 170.25 121.728ZM133.737 194.669C133.268 195.905 133.174 196.599 131.855 197.017C131.881 201.178 132.337 205.24 132.552 209.384L133.678 236.029C135.4 284.072 131.142 331.958 130.358 379.965C130.216 388.629 131.227 397.188 131.28 405.82C131.401 406.703 131.549 407.588 131.614 408.477C132.964 407.088 132.776 406.094 132.839 404.261C132.693 345.346 138.508 286.407 135.885 227.513C135.443 217.574 134.122 207.597 133.996 197.667C133.85 196.682 133.813 195.663 133.737 194.669ZM134.149 126.35C133.09 126.485 132.408 126.43 131.545 127.081C129.642 132.079 131.296 178.7 131.599 185.535L132.123 186.49L132.443 186.469C132.656 185.805 132.869 185.231 133.215 184.623L133.529 184.078C132.491 165.101 131.552 145.136 134.149 126.35Z"/>
	<path fill="#FEFEFE" transform="scale(1.6 1.6)" d="M133.529 184.078C133.753 187.605 133.728 191.137 133.737 194.669C133.268 195.905 133.174 196.599 131.855 197.017C131.611 193.185 131.599 189.372 131.599 185.535L132.123 186.49L132.443 186.469C132.656 185.805 132.869 185.231 133.215 184.623L133.529 184.078Z"/>
	<path fill="#FEFEFE" transform="scale(1.6 1.6)" d="M147.112 124.731C159.463 125.797 167.489 130.482 181.68 130.33C174.402 133.667 165.223 138.69 157.335 139.91C150.335 140.228 133.145 136.402 140.656 126.028C141.865 126.084 145.757 125.05 147.112 124.731Z"/>
	<path fill="#FED45E" transform="scale(1.6 1.6)" d="M286.703 127.383C300.429 125.415 371.452 114.513 377.388 116.315C374.674 132.04 375.824 154.655 375.933 171.271L375.972 207.431C367.392 207.555 358.993 207.872 350.493 209.19C266.713 222.178 218.918 310.302 238.684 389.073C240.113 394.767 242.209 400.735 242.95 406.553C241.11 407.04 232.881 407.836 233.83 410.591L233.537 410.443C235.086 413.689 241.597 412.107 244.301 411.526C250.62 425.054 257.375 438.051 267.167 449.458C256.608 449.794 246.006 449.619 235.44 449.619L162.078 449.601C156.797 449.603 151.435 449.471 146.18 450.055C132.566 425.825 134.46 376.789 135.203 346.96L137.525 289.54C138.478 263.314 137.886 236.738 135.654 210.605C135.423 207.89 134.039 197.979 134.489 195.99L133.819 195.501L134.195 195.42L133.996 197.667C133.85 196.682 133.813 195.663 133.737 194.669C133.728 191.137 133.753 187.605 133.529 184.078C132.491 165.101 131.552 145.136 134.149 126.35C136.302 126.133 138.495 125.778 140.656 126.028C133.145 136.402 150.335 140.228 157.335 139.91C157.043 140.288 156.831 140.602 156.6 141.011L157.095 141.552C164.487 144.417 185.553 138.132 194.982 137.588C209.058 132.443 266.578 129.76 286.703 127.383Z"/>
	<path fill="#FFEFAC" transform="scale(1.6 1.6)" d="M194.982 137.588C209.058 132.443 266.578 129.76 286.703 127.383L288.006 127.701C285.365 128.234 279.445 128.066 277.417 129.309L277.437 132.995C280.826 133.225 284.287 132.047 287.759 132.152L287.871 132.36L288.629 132.209C286.935 132.797 267.352 135.225 264.816 135.532C253.371 136.92 202.492 142.238 195.946 140.685C198.996 140.411 199.843 140.787 199.466 137.374L199.048 136.935C197.672 137.311 196.422 137.774 194.982 137.588Z"/>
	<path transform="scale(1.6 1.6)" d="M158.789 341.37C178.033 341.821 197.302 341.145 216.544 341.629C216.647 347.282 217.176 349.583 210.94 349.814C201.345 350.534 191.495 350.1 181.874 350.096C176.986 350.094 155.556 352.439 153.792 346.609C152.643 342.808 155.708 341.732 158.789 341.37Z"/>
	<path transform="scale(1.6 1.6)" d="M211.222 307.632C214.93 307.412 224.723 308.088 220.157 314.29C218.97 315.902 168.678 320.869 163.673 321.354C152.49 322.558 150.087 314.88 157.598 313.061C169.694 310.132 198.449 308.572 211.222 307.632Z"/>
	<path transform="scale(1.6 1.6)" d="M153.33 375.09C167.353 374.451 181.766 375.382 195.783 375.852C200.224 376.001 218.279 373.633 219.916 379.227C220.75 382.08 218.477 384.142 216.015 384.885C210.141 385.034 204.127 383.805 198.199 383.749L170.489 383.735C166 383.74 150.376 385.666 149.13 379.447C148.529 376.449 150.782 375.492 153.33 375.09Z"/>
	<path fill="#FFEFAC" transform="scale(1.6 1.6)" d="M244.948 233.976C249.28 236.054 252.242 240.872 255.295 244.413C247.1 262.482 246.965 270.991 234.331 290.568C233.004 292.739 231.37 294.681 229.631 296.529C230.427 280.972 237.425 266.408 239.844 251.09C240.758 245.295 239.73 237.776 244.948 233.976Z"/>
	<path transform="scale(1.6 1.6)" d="M218.652 267.636C221.099 267.492 224.879 266.67 225.46 269.969C226.733 277.183 215.682 275.992 209.689 277.063C193.25 280 177.102 282.942 160.454 284.377C153.022 284.525 145.859 275.717 165.639 274.733C183.498 273.844 200.824 268.832 218.652 267.636Z"/>
	<path fill="#15BBAB" transform="scale(1.6 1.6)" d="M156.196 208.577C173.017 209.281 199.718 199.216 220.985 198.487C228.799 198.219 236.449 198.601 244.24 197.509C261.837 195.042 282.806 187.702 299.887 187.241L302.296 191.051L301.23 191.367C287.802 191.409 265.741 197.324 251.574 199.467C240.466 201.147 229.215 201.39 218.13 203.262C205.519 205.391 165.355 218.43 156.196 208.577Z"/>
	<path transform="scale(1.6 1.6)" d="M200.335 410.152C205.978 410.399 227.017 408.644 229.402 412.377C229.821 421.997 186.625 418.854 177.907 419.018C171.886 418.878 158.425 419.67 153.354 418.698C147.851 417.642 144.76 410.998 152.226 410.45C167.194 409.351 184.782 410.518 200.335 410.152Z"/>
	<path transform="scale(1.6 1.6)" d="M238.337 223.573C248.821 223.109 259.139 219.244 258.711 229.6C254.375 234.246 248.026 232.44 242.338 232.193C221.152 231.271 195.118 239.605 173.199 242.743C171.414 242.969 145.95 247.116 154.331 237.01C156.692 234.164 163.32 234.822 166.594 234.636C190.364 233.282 213.501 224.929 238.337 223.573Z"/>
	<path transform="scale(1.6 1.6)" d="M156.196 208.577C149.121 204.678 151.471 188.409 151.372 181.826C150.895 150.094 154.236 159.693 180.393 156.08L240.076 148.239C261.019 145.34 281.71 141.678 302.831 140.145C310.021 139.624 351.915 137.824 357.325 141.545C362.409 145.042 362.103 177.115 361.381 182.567C360.025 192.813 342.992 187.468 336.242 188.967C336.454 190.266 336.918 192.108 336.158 193.269L335.586 193.068C334.436 191.831 333.876 190.479 333.216 188.955C322.39 185.637 310.999 186.286 299.887 187.241C282.806 187.702 261.837 195.042 244.24 197.509C236.449 198.601 228.799 198.219 220.985 198.487C199.718 199.216 173.017 209.281 156.196 208.577Z"/>
	<path fill="#15BBAB" transform="scale(1.6 1.6)" d="M304.855 146.392C319.58 145.967 339.74 145.767 353.961 147.282C354.79 158.317 355.194 169.567 354.289 180.607C346.264 180.805 338.254 179.624 330.274 178.959C310.523 177.314 289.942 179.181 270.569 182.99C261.57 184.759 252.652 187.242 243.546 188.398C229.829 190.138 217.315 188.492 202.142 190.873C187.7 193.741 173.499 197.327 158.894 199.336C157.902 187.878 157.477 176.362 157.59 164.863C179.976 164.143 215.45 158.981 238.515 154.989C261.352 151.036 281.371 146.839 304.855 146.392Z"/>
	<path fill="#5661EE" transform="scale(1.6 1.6)" d="M239.1 366.001C241.307 363.665 239.913 355.946 239.99 352.79C240.444 334.215 245.15 315.191 253.199 298.512C279.035 244.973 314.467 215.212 377.651 215.104C404.301 215.058 430.089 220.495 454.434 231.214C459.559 233.471 468.539 239.642 473.713 239.938C492.477 250.63 507.808 275.309 513.321 295.347C519.259 316.933 518.603 338.738 515.387 360.613C507.015 417.543 491.828 451.041 435.857 473.408C391.312 491.209 345.965 494.11 302.611 469.042C272.517 451.642 252.789 429.115 243.7 394.914C242.01 388.554 238.464 372.183 239.1 366.001Z"/>
	<path transform="scale(1.6 1.6)" d="M377.707 243.26C434.164 239.356 483.456 282.734 484.711 339.926C486.239 409.524 442.21 448.604 374.091 449.826C317.677 451.504 270.253 418.335 267.321 359.527C263.848 289.845 309.033 246.563 377.707 243.26Z"/>
	<path fill="#5661EE" transform="scale(1.6 1.6)" d="M275.554 329.735C277.986 333.308 283.98 329.888 287.864 334.982C289.924 337.684 293.243 345.127 297.063 344.925C297.342 346.255 297.628 347.455 298.203 348.691C301.657 370.427 338.658 410.394 359.597 418.37C372.226 423.181 387.073 419.676 399.736 416.876C440.995 407.755 458.895 384.345 472.673 346.747C474.456 341.881 474.378 333.177 478.504 329.769C480.778 341.271 480.166 354.422 478.461 365.974C469.374 427.522 410.027 450.251 353.874 441.761C294.962 432.853 266.735 387.041 275.554 329.735Z"/>
	<path fill="#15BBAB" transform="scale(1.6 1.6)" d="M275.554 329.735C279.718 309.626 285.259 297.147 300.338 282.553C327.084 256.667 364.393 242.758 401.598 250.49C443.524 259.203 473.034 287.176 478.504 329.769C474.378 333.177 474.456 341.881 472.673 346.747C458.895 384.345 440.995 407.755 399.736 416.876C387.073 419.676 372.226 423.181 359.597 418.37C338.658 410.394 301.657 370.427 298.203 348.691C297.628 347.455 297.342 346.255 297.063 344.925C293.243 345.127 289.924 337.684 287.864 334.982C283.98 329.888 277.986 333.308 275.554 329.735Z"/>
	<path fill="#FEFEFE" transform="scale(1.6 1.6)" d="M297.063 344.925C294.195 331.488 300.236 311.745 307.559 300.369C318.538 283.315 331.612 275.048 351.254 270.88C356.645 269.737 382.092 265.787 385.666 268.166C391.182 271.839 388.685 276.991 382.919 277.496C377.283 277.991 371.286 277.308 365.601 277.305C321.125 277.28 304.018 308.886 298.203 348.691C297.628 347.455 297.342 346.255 297.063 344.925Z"/>
</svg>
