<?xml version="1.0" encoding="utf-8" ?>
<svg width="50" height="50" viewBox="0 0 900 900">
<path fill="#5661EE" transform="scale(1.6 1.6)" d="M138.774 436.597C136.391 428.278 136.438 418.402 136.212 409.779C135.184 370.494 142.257 342.58 155.906 306.025C176.985 249.569 203.085 201.997 260.112 174.222C265.756 171.473 271.162 167.877 277.176 166.03L277.036 166.277C275.245 169.302 272.241 171.809 270.063 174.604C261.981 184.973 253.26 195.364 246.017 206.319C229.658 231.063 228.606 282.272 235.467 310.549C237.614 319.397 241.227 327.579 245.651 335.499C250.286 343.798 257.205 352.018 258.684 361.6C237.553 358.679 223.938 364.528 211.892 381.43C195.739 382.162 177.965 405.857 167.669 416.837C164.974 419.712 162.283 423.07 159.087 425.381C154.818 425.229 142.279 433.897 138.774 436.597Z"/>
	<path transform="scale(1.6 1.6)" d="M277.176 166.03C300.438 143.412 326.05 120.432 359.212 114.684C409.094 106.039 460.434 126.986 495.096 162.724C522.882 191.373 534.13 230.423 533.444 269.626C532.762 308.591 516.93 343.726 488.843 370.581C480.97 378.108 446.358 405.068 436.902 406.049C424.627 424.983 375.416 456.904 352.519 471.611C309.508 499.238 266.262 523.082 213.984 518.477C204.822 517.67 195.712 516.271 186.521 515.812C169.324 532.258 148.69 552.756 123.497 553.829C110.519 554.381 95.0721 550.818 85.3011 541.766C72.6338 530.03 84.5677 516.37 91.9705 505.894C104.72 487.853 118.996 471.281 133.398 454.563C141.888 444.707 149.862 434.59 159.087 425.381C162.283 423.07 164.974 419.712 167.669 416.837C177.965 405.857 195.739 382.162 211.892 381.43C223.938 364.528 237.553 358.679 258.684 361.6C257.205 352.018 250.286 343.798 245.651 335.499C241.227 327.579 237.614 319.397 235.467 310.549C228.606 282.272 229.658 231.063 246.017 206.319C253.26 195.364 261.981 184.973 270.063 174.604C272.241 171.809 275.245 169.302 277.036 166.277L277.176 166.03Z"/>
	<path fill="#FC615C" transform="scale(1.6 1.6)" d="M244.771 368.567C249.466 368.53 254.052 368.768 258.193 371.236C273.437 380.319 276.148 404.117 254.211 408.673L250.615 403.628C241.489 390.579 234.765 385.277 219.45 381.14C226.678 372.961 233.87 369.321 244.771 368.567Z"/>
	<path fill="#FC615C" transform="scale(1.6 1.6)" d="M206.747 391.296C222.731 389.841 240.276 410.836 243.055 424.642C245.059 434.6 236.741 443.045 231.123 450.3C224.42 458.955 217.438 467.362 210.33 475.686C189.972 499.526 164.043 533.11 131.853 539.599C118.507 541.968 99.4864 530.856 94.3896 518.883L95.4795 516.485C100.468 506.989 108.141 497.862 114.787 489.415C137.263 460.845 161.399 434.15 186.553 407.915C192.144 402.084 198.729 393.807 206.747 391.296Z"/>
	<path fill="#5661EE" transform="scale(1.6 1.6)" d="M278.108 392.249C287.852 387.047 295.365 394.093 304.351 398.013C344.652 415.59 374.204 430.366 419.876 412.672C425.547 410.475 431.087 407.857 436.902 406.049C424.627 424.983 375.416 456.904 352.519 471.611C309.508 499.238 266.262 523.082 213.984 518.477C204.822 517.67 195.712 516.271 186.521 515.812C190.334 510.693 195.366 506.043 199.653 501.257C206.971 493.089 214.028 484.718 221.161 476.389C237.33 457.511 255.711 441.501 255.284 415.33L263.483 411.886C271.519 407.257 275.738 401.065 278.108 392.249Z"/>
	<path fill="#FED45E" transform="scale(1.6 1.6)" d="M371.538 120.443C377.825 119.815 384.767 120.177 391.072 120.612C446.265 124.424 501.667 160.518 519.17 214.541C533.45 258.613 528.091 312.964 498.424 349.474C472.078 381.899 431.099 410.003 389.138 414.304C365.284 417.525 334.995 407.746 313.339 396.816C302.749 391.471 289.176 379.529 276.682 386.215C274.716 382.126 263.834 368.44 263.824 368.252L264.373 367.702C270.282 359.964 256.852 343.025 253.283 337.043C237.55 310.674 235.176 286.761 238.693 256.127C243.261 216.333 259.581 197.926 284.035 169.229C306.604 142.742 336.435 123.253 371.538 120.443Z"/>
	<path transform="scale(1.6 1.6)" d="M385.854 139.822L386.024 139.802C452.907 135.012 490.888 200.216 494.49 259.601C496.612 294.568 479.462 339.017 449.727 359.635C427.918 374.756 401.636 382.991 375.285 384.384C351.476 384.958 329.587 376.986 311.655 361.328C289.145 341.671 267.414 301.114 265.404 270.131C263.027 233.489 277.84 203.572 301.528 176.614C323.401 151.722 353.129 141.954 385.854 139.822Z"/>
	<path fill="#15BBAB" transform="scale(1.6 1.6)" d="M385.573 146.378L388.77 146.223C449.418 143.939 485.415 206.097 487.159 260.438C488.086 289.306 476.78 321.919 456.637 343.166C437.033 363.843 402.709 375.965 374.095 376.706C353.73 377.398 334.506 370.953 319.019 357.71C300.696 342.042 282.916 313.094 276.27 290.091C265.047 251.245 280.111 212.147 305.633 182.391C325.877 158.79 354.924 148.74 385.573 146.378Z"/>
	<path fill="#FEFEFE" transform="scale(1.6 1.6)" d="M342.545 179.497L344.468 180.132C346.063 181.196 348.308 183.816 348.568 185.777L348.038 186.73L343.998 185.331C341.013 183.902 340.685 182.031 342.545 179.497Z"/>
	<path fill="#FEFEFE" transform="scale(1.6 1.6)" d="M374.988 165.135C416.657 162.731 443.376 189.591 455.348 227.501C458.263 236.733 462.967 246.606 457.387 255.716L450.156 240.142C436.727 213.523 404.554 200.443 377.491 192.794C369.729 190.6 358.415 188.825 351.551 185.186L351.23 185.009L349.586 179.433C349.131 176.993 348.121 171.867 349.921 169.846C353.045 166.342 369.891 165.368 374.988 165.135Z"/>
</svg>

