<?xml version="1.0" encoding="utf-8" ?>
<svg width="50" height="50" viewBox="0 0 900 900">
	<path transform="scale(1.6 1.6)" d="M111.986 79.095C119.284 79.1078 116.039 86.6816 115.239 91.4833C135.266 88.0753 156.146 90.0145 176.404 89.5427C200.164 88.9894 223.126 88.7382 246.963 88.7377L352.063 88.5789C355.064 88.5668 359.659 88.5052 361.825 90.9008C363.729 93.0056 355.779 125.326 355.212 130.546L355.175 130.916C376.868 132.632 399.536 127.684 416.643 146.75C435.169 167.398 433.627 211.105 432.147 237.582C441.037 236.768 516.457 231.936 520.369 233.19C539.159 239.216 532.823 267.252 531.369 281.838C530.097 294.593 528.863 307.361 528.07 320.156C524.743 373.85 540.567 425.758 541.162 479.234C541.441 504.295 540.124 535.913 512.88 546.629C498.478 552.671 478.081 553.769 462.643 555.134C405.706 560.166 358.999 560.626 301.615 549.83C280.115 545.785 265.797 545.146 248.594 530.468C240.902 523.906 246.32 525.48 249.829 518.057C272.006 471.139 263.782 439.481 258.847 389.635C249.967 388.912 234.993 390.043 225.45 390.043L181.154 390.045C163.089 390.041 122.27 393.256 109.678 381.159C90.9135 363.132 94.0982 295.413 95.7318 266.625L97.0484 239.66C98.5484 208.021 103.629 87.7384 111.986 79.095ZM142.775 95.6397C135.449 100.115 127.136 101.658 118.949 107.6C116.985 115.234 116.267 123.093 115.292 130.897L111.978 155.608C111.661 157.925 104.935 199.039 104.694 199.38C101.972 217.458 103.155 244.741 102.64 263.508C102.43 271.169 100.858 278.873 101.272 286.534C101.075 289.469 100.854 292.395 100.565 295.323C103.042 292.141 104.449 287.058 106.12 283.341C115.422 262.647 127.985 252.017 142.636 236.605C143.158 216.711 145.316 197.503 149.016 177.89C149.839 173.529 150.417 168.592 152 164.455C153.528 159.024 154.473 153.358 155.787 147.859C159.32 137.195 165.838 136.206 175.931 133.302C175.532 131.925 176.737 131.349 177.824 130.847C179.909 130.953 182.443 130.262 184.527 129.942L184.097 131.607C201.472 130.378 221.632 132.988 237.633 131.321L238.64 131.287C245.245 127.71 264.634 103.354 272.601 94.6517L268.845 94.6095C263.86 93.93 258.483 94.4531 253.461 94.561C225.113 95.1704 196.732 94.4817 168.372 94.9198C160.869 95.0358 149.609 94.5124 142.775 95.6397ZM137.46 95.9413C136.094 96.9373 118.496 100.944 116.792 100.997C115.618 100.996 114.525 100.828 113.368 100.636C108.334 128.172 104.811 170.854 104.694 199.38C104.935 199.039 111.661 157.925 111.978 155.608L115.292 130.897C116.267 123.093 116.985 115.234 118.949 107.6C127.136 101.658 135.449 100.115 142.775 95.6397C141.011 95.7453 139.227 95.9069 137.46 95.9413ZM119.006 96.4623C122.224 98.9533 118.556 99.295 116.792 100.997C118.496 100.944 136.094 96.9373 137.46 95.9413C131.296 95.9405 125.153 95.9353 119.006 96.4623ZM114.173 96.366C113.883 97.7722 113.51 99.2076 113.368 100.636C114.525 100.828 115.618 100.996 116.792 100.997C118.556 99.295 122.224 98.9533 119.006 96.4623C117.389 96.4821 115.786 96.5198 114.173 96.366Z"/>
	<path fill="#FF8E8B" transform="scale(1.6 1.6)" d="M177.824 130.847C179.909 130.953 182.443 130.262 184.527 129.942L184.097 131.607C181.336 132.05 178.646 132.635 175.931 133.302C175.532 131.925 176.737 131.349 177.824 130.847Z"/>
	<path fill="#9AF7EF" transform="scale(1.6 1.6)" d="M272.274 432.8L272.783 432.893C274.118 435.618 280.354 432.294 282.739 431.172C282.915 432.604 282.645 434.069 283.125 435.432C283.301 446.285 279.041 450.269 278.769 455.91C277.114 458.631 274.4 460.816 271.89 462.739C272.95 452.986 272.602 442.605 272.274 432.8Z"/>
	<path fill="#FEFEFE" transform="scale(1.6 1.6)" d="M149.459 303.644C150.457 288.222 149.864 272.789 150.036 257.348C150.341 229.939 152.979 197.014 160.077 171.014C165.301 151.876 165.901 149.02 186.275 145.27C182.804 147.819 179.213 149.761 176.446 153.172C162.308 170.596 157.503 244.594 157.523 267.427L157.54 293.927C157.541 301.289 158.509 328.716 149.917 332.471C150.137 328.329 150.617 308.05 149.406 306.826C148.75 307.066 148.135 307.261 147.449 307.396L147.325 307.196C147.412 306.012 148.762 304.601 149.459 303.644Z"/>
	<path fill="#FC615C" transform="scale(1.6 1.6)" d="M272.601 94.6517C275.643 93.5402 291.576 93.985 295.635 93.9855L333.116 94.0029C340.452 94.0065 347.868 94.2349 355.193 93.8554L355.914 94.2878C355.986 96.9978 354.571 100.287 353.742 102.843C350.917 112.273 348.444 122.227 346.974 131.96C340.995 132.381 334.948 131.821 328.968 131.597L307.119 130.985C292.722 131.728 278.127 131.273 263.703 131.275L246.93 131.283C244.202 131.292 241.352 131.514 238.64 131.287C245.245 127.71 264.634 103.354 272.601 94.6517Z"/>
	<path fill="#FEFEFE" transform="scale(1.6 1.6)" d="M355.193 93.8554L355.914 94.2878C355.986 96.9978 354.571 100.287 353.742 102.843C351.587 103.369 349.678 103.805 347.442 103.506C340.145 108.136 333.508 113.154 326.965 118.8C317.265 127.17 320.408 128.806 307.288 130.429C320.562 117.461 336.103 99.8163 354.653 94.6766L355.193 93.8554Z"/>
	<path fill="#FF8E8B" transform="scale(1.6 1.6)" d="M355.193 93.8554L355.914 94.2878C355.986 96.9978 354.571 100.287 353.742 102.843C351.587 103.369 349.678 103.805 347.442 103.506C350.351 100.934 354.73 99.1154 354.653 94.6766L355.193 93.8554Z"/>
	<path fill="#FC615C" transform="scale(1.6 1.6)" d="M152 164.455C153.602 167.491 147.404 194.512 146.622 200.571C142.884 229.534 142.902 264.116 142.746 293.971L142.763 294.444C144.892 317.257 144.99 355.181 130.48 372.534C116.635 389.091 106.11 358.731 103.264 349.32C100.775 337.395 99.7618 325.07 100.069 312.888C99.8897 307.672 99.327 300.338 100.565 295.323C103.042 292.141 104.449 287.058 106.12 283.341C115.422 262.647 127.985 252.017 142.636 236.605C143.158 216.711 145.316 197.503 149.016 177.89C149.839 173.529 150.417 168.592 152 164.455Z"/>
	<path fill="#FEFEFE" transform="scale(1.6 1.6)" d="M103.352 343.265C106.39 340.396 111.587 336.872 115.789 336.184C115.644 338.558 106.295 348.981 103.264 349.32C103.95 347.078 103.731 345.536 103.352 343.265Z"/>
	<path fill="#FEFEFE" transform="scale(1.6 1.6)" d="M100.562 314.395C101.899 311.977 106.533 310.07 108.802 308.353C114.668 303.911 134.322 285.241 142.133 289.277C142.737 290.539 142.622 292.57 142.746 293.971L142.763 294.444C132.782 298.869 123.69 303.77 115.178 310.655C110.687 314.287 106.642 318.739 101.598 321.583C101.442 319.414 101.373 316.381 100.562 314.395Z"/>
	<path fill="#FC615C" transform="scale(1.6 1.6)" d="M142.775 95.6397C149.609 94.5124 160.869 95.0358 168.372 94.9198C196.732 94.4817 225.113 95.1704 253.461 94.561C258.483 94.4531 263.86 93.93 268.845 94.6095L272.601 94.6517C264.634 103.354 245.245 127.71 238.64 131.287L237.633 131.321C221.632 132.988 201.472 130.378 184.097 131.607L184.527 129.942C182.443 130.262 179.909 130.953 177.824 130.847C176.737 131.349 175.532 131.925 175.931 133.302C165.838 136.206 159.32 137.195 155.787 147.859C154.473 153.358 153.528 159.024 152 164.455C150.417 168.592 149.839 173.529 149.016 177.89C145.316 197.503 143.158 216.711 142.636 236.605C127.985 252.017 115.422 262.647 106.12 283.341C104.449 287.058 103.042 292.141 100.565 295.323C100.854 292.395 101.075 289.469 101.272 286.534C100.858 278.873 102.43 271.169 102.64 263.508C103.155 244.741 101.972 217.458 104.694 199.38C104.935 199.039 111.661 157.925 111.978 155.608L115.292 130.897C116.267 123.093 116.985 115.234 118.949 107.6C127.136 101.658 135.449 100.115 142.775 95.6397ZM227.188 95.021C205.225 104.365 195.209 118.339 177.824 130.847C179.909 130.953 182.443 130.262 184.527 129.942C189.392 127.597 193.664 123.799 197.981 120.57L215.38 107.786C220.489 104.106 227.66 100.563 231.861 96.1516C230.251 95.8666 228.749 95.5187 227.188 95.021Z"/>
	<path fill="#FEFEFE" transform="scale(1.6 1.6)" d="M268.845 94.6095L272.601 94.6517C264.634 103.354 245.245 127.71 238.64 131.287L237.633 131.321C236.474 131.316 235.344 131.274 234.191 131.153C235.822 126.419 260.598 94.7734 268.845 94.6095Z"/>
	<path fill="#FEFEFE" transform="scale(1.6 1.6)" d="M137.164 233.571C137.059 215.278 142.449 161.667 155.297 147.776L155.787 147.859C154.473 153.358 153.528 159.024 152 164.455C150.417 168.592 149.839 173.529 149.016 177.89C145.316 197.503 143.158 216.711 142.636 236.605C127.985 252.017 115.422 262.647 106.12 283.341C104.449 287.058 103.042 292.141 100.565 295.323C100.854 292.395 101.075 289.469 101.272 286.534C103.057 284.027 101.493 275.394 104.935 270.154C111.539 260.099 120.391 250.734 128.693 242.037C131.45 239.149 134.878 236.895 137.164 233.571Z"/>
	<path fill="#5661EE" transform="scale(1.6 1.6)" d="M398.157 525.232C414.256 514.873 440.509 492.268 454.169 479.555C468.828 465.913 512.097 422.355 527.827 415.609C528.097 417.198 528.407 418.794 528.632 420.39C532.312 445.639 536.357 485.518 531.213 510.043C525.894 535.4 512.638 542.267 487.714 545.906C457.039 550.384 402.256 552.024 372.33 546.898C359.636 547.888 305.028 539 292.427 536.431C279.39 534.605 266.024 531.746 254.636 524.877C256.892 521.542 258.655 517.912 260.471 514.328C261.892 508.232 265.469 498.856 267.384 492.078C267.927 486.909 269.236 481.605 270.183 476.478C270.935 471.94 271.341 467.308 271.89 462.739C274.4 460.816 277.114 458.631 278.769 455.91C287.741 445.189 295.671 433.622 304.68 422.992C307.461 419.712 306.337 420.905 309.582 420.926L311.372 423.092C317.524 429.532 322.362 437.201 327.946 444.13C338.197 456.852 348.878 469.076 358.439 482.355C361.54 486.663 379.462 516.525 385.321 514.258C388.909 517.422 393.082 520.344 396.344 523.8C396.035 526.205 396.334 525.607 398.157 525.232Z"/>
	<path fill="#FEFEFE" transform="scale(1.6 1.6)" d="M483.084 509.996C482.891 513.83 446.848 542.592 441.283 546.018C439.017 547.413 436.466 547.969 433.916 548.607L433.972 547.937C441.312 537.348 472.479 515.175 483.084 509.996Z"/>
	<path fill="#FEFEFE" transform="scale(1.6 1.6)" d="M278.769 455.91C287.741 445.189 295.671 433.622 304.68 422.992C307.461 419.712 306.337 420.905 309.582 420.926L311.372 423.092C312.685 429.01 303.353 437.174 299.438 441.802C291.578 451.098 276.673 467.017 270.728 477.267L270.183 476.478C270.935 471.94 271.341 467.308 271.89 462.739C274.4 460.816 277.114 458.631 278.769 455.91Z"/>
	<path fill="#FEFEFE" transform="scale(1.6 1.6)" d="M398.157 525.232C414.256 514.873 440.509 492.268 454.169 479.555C468.828 465.913 512.097 422.355 527.827 415.609C528.097 417.198 528.407 418.794 528.632 420.39C527.789 423.584 520.068 428.437 517.432 430.765L485.574 459.219C456.321 485.75 419.282 523.187 385.29 542.866C379.889 545.993 378.038 545.781 372.193 546.566C372.678 545.207 394.802 528.202 398.157 525.232Z"/>
	<path fill="#5661EE" transform="scale(1.6 1.6)" d="M290.063 139.248C293.583 138.501 296.827 138.266 300.423 138.408C313.967 138.765 327.079 142.394 340.497 142.944C345.1 143.133 349.447 141.635 353.99 141.118C428.161 132.687 422.888 179.351 422.18 237.742C409.686 239.651 390.041 240.323 377.475 240.266C373.398 240.664 369.296 241.138 365.207 241.376C360.317 242.531 354.484 242.501 349.442 242.88C329.009 244.417 309.507 244.011 289.368 244.819C283.983 245.036 278.796 246.173 273.467 246.726C274.131 245.605 275.133 244.572 274.634 243.233C256.714 253.637 253.177 273.626 252.189 293.038C251.993 296.887 253.396 299.677 248.827 299.661C236.311 300.616 223.6 300.984 211.049 301.241C202.788 301.41 192.253 298.329 188.891 305.969C192.161 313.946 202.688 310.602 209.525 310.284L231.341 309.294C238.31 308.917 245.402 308.378 252.378 308.429C252.783 318.629 253.63 328.792 253.991 338.994C243.786 339.982 225.6 341.484 215.344 340.927C209.64 340.617 200.031 335.066 195.315 340.819C194.062 342.348 194.708 344.082 196.212 345.164C204.143 350.865 244.599 347.449 255.238 347.405C256.223 358.03 257.672 369.765 257.928 380.35C218.689 379.453 177.049 381.814 138.3 379.428C144.605 368.587 147.758 356.392 148.818 343.945C149.111 340.501 148.819 335.688 149.917 332.471C158.509 328.716 157.541 301.289 157.54 293.927L157.523 267.427C157.503 244.594 162.308 170.596 176.446 153.172C179.213 149.761 182.804 147.819 186.275 145.27C190.339 143.356 275.14 137.116 290.063 139.248Z"/>
	<path fill="#FEFEFE" transform="scale(1.6 1.6)" d="M372.324 145.352C376.467 144.678 367.112 152.218 366.3 153.075C361.4 158.244 350.03 173.935 346.018 176.259C345.164 175.293 344.403 174.234 343.616 173.213C348.1 161.265 359.867 148.267 372.324 145.352Z"/>
	<path fill="#FEFEFE" transform="scale(1.6 1.6)" d="M365.207 241.376L364.81 241.157C365.297 240.189 373.511 233.158 375.046 231.637C378.353 228.362 397.036 206.43 400.261 206.527L400.47 207.074C399.607 212.277 388.335 224.28 384.692 229.967C382.616 233.208 381.605 236.555 379.796 239.857L377.475 240.266C373.398 240.664 369.296 241.138 365.207 241.376Z"/>
	<path transform="scale(1.6 1.6)" d="M190.118 269.772C191.369 266.47 192.316 265.298 195.834 265.083C203.65 264.605 249.303 263.267 250.515 263.691C250.138 266.261 249.771 268.805 249.625 271.401C240.639 271.594 195.736 275.56 191.655 273.416C190.773 272.399 190.507 271.038 190.118 269.772Z"/>
	<path fill="#FEFEFE" transform="scale(1.6 1.6)" d="M290.063 139.248C293.583 138.501 296.827 138.266 300.423 138.408C295.043 142.754 288.84 146.283 283.064 150.101L253.864 169.581C242.95 176.836 235.511 185.651 222.139 187.505C238.483 170.277 268.782 150.229 290.063 139.248Z"/>
	<path fill="#FEFEFE" transform="scale(1.6 1.6)" d="M250.515 263.691C252.896 255.982 253.45 248.703 258.786 242.066C266.389 232.61 274.777 236.047 285.073 234.598C281.755 237.682 278.081 240.305 274.634 243.233C256.714 253.637 253.177 273.626 252.189 293.038C251.993 296.887 253.396 299.677 248.827 299.661C247.997 291.039 248.63 279.999 249.625 271.401C249.771 268.805 250.138 266.261 250.515 263.691Z"/>
	<path transform="scale(1.6 1.6)" d="M328.975 223.58C331.964 223.454 337.061 222.565 339.319 225.042C338.975 231.313 297.836 232.331 288.741 232.587L242.658 233.642C227.042 234.082 211.589 234.412 196.013 235.895C193.483 236.132 191.05 236.277 188.508 236.159C186.702 235.127 185.45 234.017 185.244 231.786C184.719 226.11 194.256 227.323 197.782 227.111C213.037 226.192 229.774 225.189 245.002 224.898C273.148 224.36 300.688 224.431 328.975 223.58Z"/>
	<path transform="scale(1.6 1.6)" d="M392.124 175.661C394.433 175.995 396.065 177.744 394.502 179.835C388.4 188.001 370.994 189.846 361.505 191.405C357.236 198.837 357.641 202.7 354.033 194.316C349.605 192.439 304.187 196.162 295.312 196.518C276.606 197.267 257.874 196.601 238.872 197.316C230.501 197.631 217.938 198.139 209.689 197.196C206.811 196.906 199.517 192.736 204.384 189.918C209.531 186.938 283.173 188.006 296.491 187.649C308.128 187.337 319.994 186.248 331.61 185.43C341.837 184.71 345.55 186.777 354.18 181.16C356.268 181.694 358.104 182.616 360.029 183.559C373.382 181.398 379.52 179.348 391.732 175.773L392.124 175.661Z"/>
	<path fill="#15BBAB" transform="scale(1.6 1.6)" d="M510.97 239.104C533.851 238.084 525.003 282.882 523.981 297.369C521.777 328.648 520.995 360.106 524.478 391.327C525.38 399.41 527.159 407.539 527.827 415.609C512.097 422.355 468.828 465.913 454.169 479.555C440.509 492.268 414.256 514.873 398.157 525.232C396.334 525.607 396.035 526.205 396.344 523.8C393.082 520.344 388.909 517.422 385.321 514.258C379.462 516.525 361.54 486.663 358.439 482.355C348.878 469.076 338.197 456.852 327.946 444.13C322.362 437.201 317.524 429.532 311.372 423.092L309.582 420.926C306.337 420.905 307.461 419.712 304.68 422.992C295.671 433.622 287.741 445.189 278.769 455.91C279.041 450.269 283.301 446.285 283.125 435.432C282.645 434.069 282.915 432.604 282.739 431.172C280.354 432.294 274.118 435.618 272.783 432.893L272.274 432.8C272.201 424.129 271.362 415.212 270.487 406.58C269.593 401.253 269.52 395.554 268.955 390.149C264.108 361.209 255.066 272.925 269.453 257.476C273.116 253.543 278.65 253.832 283.599 253.821C305.647 253.772 327.456 254.079 349.444 252.032C383.702 248.843 418.27 248.291 452.405 244.069C460.639 243.051 470.007 240.412 478.144 241.74C486.979 239.77 501.661 239.393 510.97 239.104Z"/>
	<path fill="#FEFEFE" transform="scale(1.6 1.6)" d="M427.535 375.483C429.117 374.56 454.914 368.77 459.503 367.433C471.848 363.834 483.501 357.634 495.98 354.656C480.161 364.815 468.679 367.88 453.407 375.064C444.946 375.693 435.977 376.71 427.535 375.483Z"/>
	<path fill="#FEFEFE" transform="scale(1.6 1.6)" d="M478.144 241.74C486.979 239.77 501.661 239.393 510.97 239.104C507.101 241.31 490.57 244.305 485.32 245.696C468.853 250.057 453.547 257.497 439.459 267.008C437.446 268.367 431.488 273.276 429.567 273.587C430.202 269.756 445.932 256.455 449.59 253.844C457.43 248.246 468.67 243.731 478.144 241.74Z"/>
	<path transform="scale(1.6 1.6)" d="M496.617 292.937C500.813 292.294 504.615 295.791 500.018 298.855C492.305 303.998 453.589 304.383 443.689 302.396C435.121 300.022 436.012 293.37 441.797 293.118C460.064 292.325 476.093 295.213 496.617 292.937Z"/>
	<path transform="scale(1.6 1.6)" d="M331.626 369.381C332.317 362.685 332.145 355.919 332.631 349.207C336.517 295.543 360.644 269.614 415.263 275.383C431.913 277.141 423.198 281.856 420.18 298.427C417.937 310.746 409.631 372.449 427.535 375.483C435.977 376.71 444.946 375.693 453.407 375.064C456.498 375.653 461.981 374.273 464.165 377.018C468.314 382.232 454.827 400.006 452.181 404.524C439.619 425.968 426.993 447.186 413.587 468.134C407.775 477.215 401.23 485.861 395.53 494.995C391.645 501.222 388.962 507.96 385.321 514.258C379.462 516.525 361.54 486.663 358.439 482.355C348.878 469.076 338.197 456.852 327.946 444.13C322.362 437.201 317.524 429.532 311.372 423.092L309.582 420.926C306.337 420.905 307.461 419.712 304.68 422.992C295.671 433.622 287.741 445.189 278.769 455.91C279.041 450.269 283.301 446.285 283.125 435.432C282.645 434.069 282.915 432.604 282.739 431.172C280.354 432.294 274.118 435.618 272.783 432.893L272.274 432.8C272.201 424.129 271.362 415.212 270.487 406.58C269.593 401.253 269.52 395.554 268.955 390.149C269.574 389.341 270.205 388.649 270.956 387.962C280.338 371.049 313.513 367.176 331.626 369.381Z"/>
	<path fill="#FEFEFE" transform="scale(1.6 1.6)" d="M270.956 387.962C280.338 371.049 313.513 367.176 331.626 369.381C331.582 372.153 331.539 374.924 331.542 377.696C319.613 377.329 293.102 375.008 285.059 385.495C287.158 396.722 302.364 411.615 309.582 420.926C306.337 420.905 307.461 419.712 304.68 422.992C295.671 433.622 287.741 445.189 278.769 455.91C279.041 450.269 283.301 446.285 283.125 435.432C282.645 434.069 282.915 432.604 282.739 431.172C280.354 432.294 274.118 435.618 272.783 432.893L272.274 432.8C272.201 424.129 271.362 415.212 270.487 406.58C269.593 401.253 269.52 395.554 268.955 390.149C269.574 389.341 270.205 388.649 270.956 387.962Z"/>
	<path fill="#9AF7EF" transform="scale(1.6 1.6)" d="M268.955 390.149C269.574 389.341 270.205 388.649 270.956 387.962C271.246 394.45 272.044 400.239 270.487 406.58C269.593 401.253 269.52 395.554 268.955 390.149Z"/>
	<path fill="#15BBAB" transform="scale(1.6 1.6)" d="M283.125 435.432C283.611 431.259 283.171 426.854 283.02 422.663L282.16 401.392C281.877 394.887 280.819 390.844 285.059 385.495C287.158 396.722 302.364 411.615 309.582 420.926C306.337 420.905 307.461 419.712 304.68 422.992C295.671 433.622 287.741 445.189 278.769 455.91C279.041 450.269 283.301 446.285 283.125 435.432Z"/>
	<path fill="#FED45E" transform="scale(1.6 1.6)" d="M396.352 282.936C401.878 282.123 411.05 282.273 416.423 283.634C411.07 298.761 401.101 372.808 419.024 383.164C425.997 387.194 446.965 386.124 454.733 383.966C442.858 398.175 433.366 416.246 423.805 432.105C410.346 454.43 396.672 476.678 382.639 498.646C379.523 494.996 376.829 490.917 374.053 487.003C358.906 464.954 341.657 444.719 324.575 424.162C314.509 412.05 303.057 400.635 295.798 386.502C304.143 385.412 317.42 385.575 326.044 386.069C338.367 386.776 339.341 390.709 339.617 375.744C340.412 332.515 345.704 288.347 396.352 282.936Z"/>
</svg>
