<?xml version="1.0" encoding="utf-8" ?>
<svg width="100" height="100" viewBox="0 0 900 900">
	<path fill="#D45200" transform="scale(1.6 1.6)" d="M454.352 512.762C459.383 509.233 463.722 504.823 468.814 501.38L469.139 503.063C464.179 507.054 459.247 511.107 454.012 514.735C453.936 513.944 454.098 513.496 454.352 512.762Z"/>
	<path fill="#FED45E" transform="scale(1.6 1.6)" d="M554.721 338.228C558.118 332.361 556.204 330.136 558.125 325.754C558.088 327.693 558.079 329.611 558.176 331.549L558.654 331.798C558.416 341.039 554.533 370.528 550.148 379.125C547.545 378.833 549.273 373.612 549.256 371.661C549.033 372.611 549.077 372.719 548.332 373.325C550.331 361.284 553.181 351.021 554.721 338.228Z"/>
	<path fill="#FED45E" transform="scale(1.6 1.6)" d="M385.574 92.986L385.32 92.5152C382.684 91.2552 375.483 89.8128 372.454 89.227C370.609 88.8701 366.029 88.8636 370.313 87.375L370.908 87.7711L370.598 87.3031C373.457 87.9655 402.119 95.9094 402.651 95.761C419.094 99.4461 448.005 116.703 463.229 126.638C484.449 139.369 498.124 150.803 514.584 168.698C517.233 171.578 522.346 175.647 523.04 179.62C505.683 161.694 494.967 148.151 471.942 134.608C468.886 132.81 465.602 131.433 462.779 129.254C460.521 128.33 458.356 126.932 456.25 125.71C443.037 113.21 402.814 98.641 385.574 92.986Z"/>
	<path fill="#FED45E" transform="scale(1.6 1.6)" d="M101.297 223.834C103.179 224.463 102.712 225.187 102.111 226.912L102.398 227.986C92.4799 253.162 90.2845 270.552 85.9207 296.101C85.9063 298.939 85.2146 301.849 85.3988 304.661C83.8544 340.273 89.5654 373.034 98.7885 407.314C98.6777 409.198 98.7324 411.423 97.8697 413.14C79.1847 371.422 76.3096 311.345 86.5922 267.841C87.8645 262.458 88.7438 256.112 91.1063 251.132C93.5675 241.923 97.64 232.638 101.297 223.834Z"/>
	<defs>
		<linearGradient id="gradient_0" gradientUnits="userSpaceOnUse" x1="255.97208" y1="149.93411" x2="226.58212" y2="96.404198">
			<stop offset="0" stop-color="#FEEA5E"/>
			<stop offset="1" stop-color="#FFE4A8"/>
		</linearGradient>
	</defs>
	<path fill="url(#gradient_0)" transform="scale(1.6 1.6)" d="M120.597 186.426C147.146 146.426 195.24 104.881 241.241 92.6313C290.387 79.5442 326.188 74.7383 377.152 88.3894C385.679 90.6733 394.429 92.4623 402.651 95.761C402.119 95.9094 373.457 87.9655 370.598 87.3031L370.908 87.7711L370.313 87.375C366.029 88.8636 370.609 88.8701 372.454 89.227C375.483 89.8128 382.684 91.2552 385.32 92.5152L385.574 92.986C343.927 82.1186 314.518 81.3759 273.551 90.419L273.212 90.5122C269.47 91.5008 265.458 91.9157 261.635 92.5612C223.393 99.0172 183.255 123.213 156.887 150.82C141.869 163.254 136.467 173.132 124.962 185.438C123.864 186.019 123.124 186.246 121.893 186.33L120.597 186.426Z"/>
	<path transform="scale(1.6 1.6)" d="M456.25 125.71C458.356 126.932 460.521 128.33 462.779 129.254C465.602 131.433 468.886 132.81 471.942 134.608C494.967 148.151 505.683 161.694 523.04 179.62C532.779 192.112 538.353 202.428 545.029 216.431C555.25 237.869 558.984 247.666 552.311 270.311C550.233 275.905 553.556 289.635 554.432 296.177C556.133 308.893 555.645 325.411 554.721 338.228C553.181 351.021 550.331 361.284 548.332 373.325C543.517 386.093 542.066 400.972 534.534 412.558C535.183 409.515 536.874 406.313 537.967 403.374C552.448 364.463 559.602 319.936 551.37 278.973C549.094 267.648 546.457 253.713 543.911 242.887C533.807 199.926 507.94 169.782 475.402 142.107C469.16 136.799 462.11 132.05 456.536 126.024L456.25 125.71Z"/>
	<path transform="scale(1.6 1.6)" d="M85.3988 304.661C86.6083 319.06 86.0281 331.946 87.8451 347.081C110.42 535.106 301.263 598.247 450.862 509.241C459.982 504.96 478.321 491.879 484.511 484.095C487.848 480.28 491.91 476.044 495.921 472.959C493.389 476.106 488.035 480.654 486.222 483.539C480.284 489.069 474.285 496.611 468.814 501.38C463.722 504.823 459.383 509.233 454.352 512.762C454.098 513.496 453.936 513.944 454.012 514.735C441.319 522.527 429.13 529.762 415.361 535.694C412.991 536.619 410.625 537.543 408.223 538.386C405.098 539.063 401.921 540.54 398.871 541.571C371.574 550.796 351.768 555.285 323.5 556.77C252.075 560.523 180.702 534.687 133.323 480.059C115.892 463.983 106.569 435.081 97.8697 413.14C98.7324 411.423 98.6777 409.198 98.7885 407.314C89.5654 373.034 83.8544 340.273 85.3988 304.661Z"/>
	<path fill="#573F03" transform="scale(1.6 1.6)" d="M408.223 538.386C410.121 535.7 412.529 534.579 415.606 533.758L415.361 535.694C412.991 536.619 410.625 537.543 408.223 538.386Z"/>
	<path fill="#704A00" transform="scale(1.6 1.6)" d="M415.606 533.758C429.311 529.26 442.283 520.408 454.352 512.762C454.098 513.496 453.936 513.944 454.012 514.735C441.319 522.527 429.13 529.762 415.361 535.694L415.606 533.758Z"/>
	<defs>
		<linearGradient id="gradient_1" gradientUnits="userSpaceOnUse" x1="103.01152" y1="429.39447" x2="107.30098" y2="427.16803">
			<stop offset="0" stop-color="#E0A710"/>
			<stop offset="1" stop-color="#EFD355"/>
		</linearGradient>
	</defs>
	<path fill="url(#gradient_1)" transform="scale(1.6 1.6)" d="M98.7885 407.314C105.221 428.595 112.538 450.235 125.654 468.421C128.143 471.871 132.169 475.966 133.323 480.059C115.892 463.983 106.569 435.081 97.8697 413.14C98.7324 411.423 98.6777 409.198 98.7885 407.314Z"/>
	<path fill="#15BBAB" transform="scale(1.6 1.6)" d="M156.887 150.82C183.255 123.213 223.393 99.0172 261.635 92.5612C265.458 91.9157 269.47 91.5008 273.212 90.5122L273.551 90.419C274.883 99.3839 278.174 113.946 275.109 122.405C274.291 128.004 268.314 132.061 267.917 134.522C267.665 136.086 268.398 137.916 268.277 139.612C272.618 139.552 277.152 139.301 281.425 140.222L261.712 140.273C233.19 142.292 184.861 138.982 166.369 159.302C166.441 158.061 167.435 157.702 167.444 156.521C165.449 153.749 162.48 151.151 159.927 148.883C158.938 149.722 158.098 150.341 156.887 150.82Z"/>
	<path fill="#5661EE" transform="scale(1.6 1.6)" d="M273.551 90.419C314.518 81.3759 343.927 82.1186 385.574 92.986C402.814 98.641 443.037 113.21 456.25 125.71L456.536 126.024C462.11 132.05 469.16 136.799 475.402 142.107C507.94 169.782 533.807 199.926 543.911 242.887C546.457 253.713 549.094 267.648 551.37 278.973C559.602 319.936 552.448 364.463 537.967 403.374C536.874 406.313 535.183 409.515 534.534 412.558C530.645 427.806 506.575 462.819 495.921 472.959C491.91 476.044 487.848 480.28 484.511 484.095C483.208 480.614 485.094 434.865 485.357 428.91C486.731 397.854 489.161 368.892 489.167 337.652L488.437 244.739C488.083 223.744 486.235 185.604 480.013 167.855C476.353 157.413 466.313 138.983 453.143 139.93C429.389 137.732 397.015 140.559 372.88 141.332C367.124 140.941 361.24 141.164 355.468 141.164L325.28 141.166C310.637 141.158 296.064 140.3 281.425 140.222C277.152 139.301 272.618 139.552 268.277 139.612C268.398 137.916 267.665 136.086 267.917 134.522C268.314 132.061 274.291 128.004 275.109 122.405C278.174 113.946 274.883 99.3839 273.551 90.419Z"/>
	<path fill="#5661EE" transform="scale(1.6 1.6)" d="M156.887 150.82C158.098 150.341 158.938 149.722 159.927 148.883C162.48 151.151 165.449 153.749 167.444 156.521C167.435 157.702 166.441 158.061 166.369 159.302C160.402 168.831 157.802 178.476 157.327 189.68C155.53 232.112 163.568 274.626 164.973 317.011C166.406 360.263 164.997 402.286 165.001 445.434C165.003 473.401 160.052 506.85 198.789 500.036C207.425 497.879 243.066 495.703 254.214 496.039C266.933 494.746 282.576 494.152 295.544 493.836L397.495 492.265C410.473 490.962 423.287 490.711 435.912 487.032C439.654 488.988 442.688 490.556 445.886 493.377C449.063 497.08 454.943 504.456 450.862 509.241C301.263 598.247 110.42 535.106 87.8451 347.081C86.0281 331.946 86.6083 319.06 85.3988 304.661C85.2146 301.849 85.9063 298.939 85.9207 296.101C90.2845 270.552 92.4799 253.162 102.398 227.986L102.111 226.912C102.712 225.187 103.179 224.463 101.297 223.834C105.383 212.696 113.934 196.276 120.597 186.426L121.893 186.33C123.124 186.246 123.864 186.019 124.962 185.438C136.467 173.132 141.869 163.254 156.887 150.82ZM124.962 185.438C123.864 186.019 123.124 186.246 121.893 186.33L120.597 186.426C113.934 196.276 105.383 212.696 101.297 223.834C103.179 224.463 102.712 225.187 102.111 226.912L102.398 227.986C108.382 213.016 115.979 198.82 124.962 185.438Z"/>
	<path transform="scale(1.6 1.6)" d="M254.214 496.039C266.933 494.746 282.576 494.152 295.544 493.836L397.495 492.265C363.335 504.122 288.916 500.129 254.214 496.039Z"/>
	<path transform="scale(1.6 1.6)" d="M372.88 141.332C397.015 140.559 429.389 137.732 453.143 139.93C466.313 138.983 476.353 157.413 480.013 167.855C486.235 185.604 488.083 223.744 488.437 244.739L489.167 337.652C489.161 368.892 486.731 397.854 485.357 428.91C485.094 434.865 483.208 480.614 484.511 484.095C478.321 491.879 459.982 504.96 450.862 509.241C454.943 504.456 449.063 497.08 445.886 493.377C442.688 490.556 439.654 488.988 435.912 487.032C423.287 490.711 410.473 490.962 397.495 492.265L295.544 493.836C282.576 494.152 266.933 494.746 254.214 496.039C243.066 495.703 207.425 497.879 198.789 500.036C160.052 506.85 165.003 473.401 165.001 445.434C164.997 402.286 166.406 360.263 164.973 317.011C163.568 274.626 155.53 232.112 157.327 189.68C157.802 178.476 160.402 168.831 166.369 159.302C184.861 138.982 233.19 142.292 261.712 140.273L281.425 140.222C296.064 140.3 310.637 141.158 325.28 141.166L355.468 141.164C361.24 141.164 367.124 140.941 372.88 141.332Z"/>
	<path fill="#FED45E" transform="scale(1.6 1.6)" d="M195.972 150.004L196.302 150.094C196.769 150.96 195.556 162.088 195.451 164.162C194.887 175.275 195.266 186.583 195.338 197.715L197.051 354.833C197.465 384.788 196.703 415.073 199.153 444.934C191.839 444.712 184.961 444.729 179.445 439.285C175.419 433.709 177.164 420.774 177.152 414.093L177.883 333.753C178.503 300.099 178.638 266.787 174.599 233.335C172.5 215.941 166.079 180.481 173.766 165.243C178.266 156.322 187.026 152.995 195.972 150.004Z"/>
	<path fill="#FED45E" transform="scale(1.6 1.6)" d="M372.88 141.332C397.015 140.559 429.389 137.732 453.143 139.93C441.621 147.929 434.468 159.35 430.571 172.731C428.855 178.48 427.083 184.136 426.145 190.079C419.505 189.415 412.788 189.997 406.134 189.466L405.942 189.878C399.307 191.655 367.578 191.774 359.584 191.526C346.817 191.684 334.095 192.302 321.317 192.235C317.665 191.928 313.502 193.113 314.587 191.508L312.941 190.895C287.856 190.751 262.785 191.303 237.704 191.607C226.311 191.321 214.53 191.144 203.171 192.027C201.603 187.439 202.89 157.477 202.335 147.358C213.094 144.107 241.993 145.262 253.852 145.001C271.026 144.622 288.197 143.16 305.401 142.798C328.42 142.313 349.7 142.932 372.88 141.332Z"/>
	<path transform="scale(1.6 1.6)" d="M312.941 190.895C325.857 190.862 347.526 192.06 359.918 190.291L362.661 190.459L362.375 190.614L363.194 190.533L363.304 190.681C362.359 190.571 361.451 190.749 360.516 190.879C365.3 190.986 361.374 191.056 359.584 191.526C346.817 191.684 334.095 192.302 321.317 192.235C317.665 191.928 313.502 193.113 314.587 191.508L312.941 190.895Z"/>
	<path fill="#7D2038" transform="scale(1.6 1.6)" d="M359.918 190.291C367.783 188.877 398.6 188.791 406.134 189.466L405.942 189.878C399.307 191.655 367.578 191.774 359.584 191.526C361.374 191.056 365.3 190.986 360.516 190.879C361.451 190.749 362.359 190.571 363.304 190.681L363.194 190.533L362.375 190.614L362.661 190.459L359.918 190.291Z"/>
	<path fill="#FED45E" transform="scale(1.6 1.6)" d="M177.544 447.66C189.85 453.571 241.453 452.048 257.282 451.493C264.499 451.24 271.713 450.228 278.949 450.018L321.602 448.937C345.644 448.231 369.792 447.626 393.783 445.83C407.722 444.786 421.104 441.137 435.129 440.71C438.931 448.916 440.739 458.14 445.978 465.66C448.266 470.571 449.799 474.964 449.886 480.424C448.428 481.313 446.478 482.204 445.209 483.298C442.135 484.588 439.072 485.965 435.912 487.032C423.287 490.711 410.473 490.962 397.495 492.265L295.544 493.836C282.576 494.152 266.933 494.746 254.214 496.039C243.066 495.703 207.425 497.879 198.789 500.036C179.272 500.799 176.339 460.789 177.544 447.66Z"/>
	<path fill="#15BBAB" transform="scale(1.6 1.6)" d="M453.143 139.93C466.313 138.983 476.353 157.413 480.013 167.855C486.235 185.604 488.083 223.744 488.437 244.739L489.167 337.652C489.161 368.892 486.731 397.854 485.357 428.91C485.094 434.865 483.208 480.614 484.511 484.095C478.321 491.879 459.982 504.96 450.862 509.241C454.943 504.456 449.063 497.08 445.886 493.377C442.688 490.556 439.654 488.988 435.912 487.032C439.072 485.965 442.135 484.588 445.209 483.298C446.478 482.204 448.428 481.313 449.886 480.424C449.799 474.964 448.266 470.571 445.978 465.66C443.117 441.664 433.08 416.631 429.847 391.126C424.421 348.311 425.988 295.544 427.946 252.752C429.188 225.605 428.355 200.078 430.571 172.731C434.468 159.35 441.621 147.929 453.143 139.93Z"/>
	<path fill="#228BE0" transform="scale(1.6 1.6)" d="M435.912 487.032C439.072 485.965 442.135 484.588 445.209 483.298C444.275 485.279 439.238 485.002 440.517 487.563C441.74 490.012 445.201 490.499 445.886 493.377C442.688 490.556 439.654 488.988 435.912 487.032Z"/>
	<path fill="#FC615C" transform="scale(1.6 1.6)" d="M406.134 189.466C412.788 189.997 419.505 189.415 426.145 190.079C425.185 199.227 424.915 208.415 424.219 217.583C421.263 256.547 419.973 291.066 419.984 329.93C419.997 374.483 419.681 395.613 434.115 438.617C405.058 441.126 375.773 440.371 346.649 441.239L240.266 444.892C229.3 445.213 218.247 444.936 207.272 444.934C203.925 412.535 205.135 379.968 204.902 347.46L203.083 197.27C202.704 195.293 202.975 193.916 203.171 192.027C214.53 191.144 226.311 191.321 237.704 191.607C262.785 191.303 287.856 190.751 312.941 190.895L314.587 191.508C313.502 193.113 317.665 191.928 321.317 192.235C334.095 192.302 346.817 191.684 359.584 191.526C367.578 191.774 399.307 191.655 405.942 189.878L406.134 189.466Z"/>
	<path fill="#7D2038" transform="scale(1.6 1.6)" d="M203.171 192.027C214.53 191.144 226.311 191.321 237.704 191.607L237.267 191.66C235.996 191.809 234.706 191.862 233.43 191.946L232.84 191.405L233.523 191.942L232.721 192.024C235.618 193.717 264.056 191.527 266.166 192.733C245.295 192.199 223.547 193.608 203.087 192.786C203.089 194.277 203.135 195.781 203.083 197.27C202.704 195.293 202.975 193.916 203.171 192.027Z"/>
	<path fill="#4B0F2A" transform="scale(1.6 1.6)" d="M237.704 191.607C262.785 191.303 287.856 190.751 312.941 190.895L314.587 191.508C313.502 193.113 317.665 191.928 321.317 192.235C303.325 193.756 284.347 192.064 266.166 192.733C264.056 191.527 235.618 193.717 232.721 192.024L233.523 191.942L232.84 191.405L233.43 191.946C234.706 191.862 235.996 191.809 237.267 191.66L237.704 191.607Z"/>
	<path transform="scale(1.6 1.6)" d="M252.925 226.622C276.032 224.034 291.594 255.198 303.665 271.008C310.694 280.215 321.049 291.947 326.971 301.401C335.239 291.694 342.296 280.721 348.347 269.514C352.496 261.832 355.377 252.371 361.375 245.945C369.305 237.448 380.43 237.062 388.639 245.407C412.228 269.385 372.227 308.8 355.005 325.882C361.352 339.751 398.325 359.918 377.694 383.508C371.262 389.596 363.308 390.711 355.171 387.339C337.442 379.99 336.582 357.413 322.552 346.175C303.977 356.086 283.992 393.948 257.073 390.286C245.927 388.77 238.845 376.639 247.096 367.278C253.253 360.292 272.503 348.21 281.419 341.691C268.15 324.494 236.969 275.515 233.108 258.426C229.728 243.46 237.779 229.884 252.925 226.622Z"/>
	<path fill="#15BBAB" transform="scale(1.6 1.6)" d="M254.446 234.773C267.141 233.817 275.297 246.275 282.027 255.065C293.604 270.186 308.838 295.086 320.892 307.346C314.552 315.006 306.634 321.79 299.391 328.594C296.42 331.404 293.369 334.127 290.327 336.86C281.842 327.027 274.967 315.139 267.737 304.384C258.299 290.346 231.915 259.665 243.649 242.095C246.388 237.993 249.558 235.716 254.446 234.773Z"/>
	<path fill="#15BBAB" transform="scale(1.6 1.6)" d="M372.961 247.238C380.489 246.632 386.273 251.142 387.557 258.697C390.317 274.923 371.236 298.869 359.678 310.813C354.857 315.795 348.848 320.127 344.902 325.838C351.447 340.585 375.182 352.354 375.689 367.928C375.905 374.578 372.594 381.542 365.047 381.263C348.434 380.647 340.305 352.207 329.939 341.55C321.604 332.981 313.22 342.856 307.154 348.955C297.588 358.944 272.507 389.195 255.807 381.405C242.575 375.233 261.46 365.77 266.382 362.38C283.45 350.628 296.961 338.971 311.988 324.937C336.907 301.665 346.899 289.255 361.745 259.307C364.356 254.039 367.067 249.233 372.961 247.238Z"/>
</svg>
