<?xml version="1.0" encoding="utf-8" ?>
<svg width="50" height="50" viewBox="0 0 900 900">
	<path transform="scale(1.6 1.6)" d="M169.142 140.837L169.126 140.407C167.999 115.079 155.598 119.007 191.714 115.026C240.04 109.699 288.174 103.286 335.541 92.0856C359.522 86.415 351.798 85.3091 360.296 114.638C364.24 113.737 376.141 111.199 379.712 113.2C388.074 117.886 391.505 171.653 393.564 187.448C415.599 190.205 445.188 196.464 466.4 201.861C466.222 203.129 466.01 204.402 465.88 205.676C472.659 207.615 491.38 211.315 494.711 217.405C496.639 220.931 479.872 247.551 477.41 252.096C480.838 254.228 516.899 277.511 517.211 277.952C518.206 279.354 518.201 281.681 519.248 283.215C526.361 293.628 559.714 336.986 551.62 349.456C545.217 359.318 495.645 369.016 482.597 371.375C427.884 381.262 420.831 373.115 390.371 331.402C389.247 330.559 388.218 329.252 387.227 328.236C402.921 327.402 509.609 289.803 511.835 287.743C510.063 283.59 506.295 286.584 502.99 287.554L451.06 302.885C431.94 308.651 398.11 318.509 383.405 329.336L383.724 334.253L385.734 336.856C400.866 351.339 406.411 376.197 432.646 381.778C447.616 384.963 489.593 380.198 505.307 373.747C506.17 372.502 507.356 371.902 508.628 371.142C506.334 398.187 518.44 422.958 514.278 451.243C511.531 469.915 503.747 475.378 488.621 485.804C462.698 503.673 432.789 518.133 402.706 527.754C399.574 528.756 379.261 534.97 376.859 533.621C374.472 529.983 370.037 531.748 366.233 531.213C322.039 524.993 274.383 512.628 229.898 503.508L192.192 495.907C182.879 494.057 173.124 492.535 164.148 489.388C136.528 479.704 137.225 443.685 137.21 419.525C137.205 411.513 137.109 382.706 139.681 375.492C128.803 373.946 117.757 372.357 106.806 371.441C98.768 370.768 83.0905 372.805 80.0792 362.818C75.9424 349.099 103.873 312.177 112.507 302.054C115.967 297.998 131.582 285.202 127.598 282.208C127.589 278.997 128.564 277.494 130.662 275.201C134.758 271.297 160.366 254.674 166.44 253.409C166.98 257.454 167.474 261.538 167.749 265.61C169.977 265.117 172.449 265.095 174.727 265.141C175.235 267.586 175.813 270.037 176.212 272.503L177.65 271.436C172.49 237.465 166.105 203.803 155.222 171.114C153.189 165.009 148.606 155.996 148.463 149.745C148.24 139.965 162.306 141.322 169.142 140.837ZM365.084 123.644C358.499 124.969 351.79 125.721 345.139 126.644L311.975 131.029C290.827 133.63 269.639 136.535 248.419 138.45C225.348 140.532 201.621 141.881 178.817 146.088C171.752 147.391 165.351 150.481 158.374 152.078C170.783 177.998 176.089 217.882 181.311 246.153C184.079 261.141 187.664 275.996 189.232 291.19C192.698 291.736 196.165 292.231 199.645 292.682C212.71 295.829 226.601 296.689 239.859 299.703C263.177 305.002 285.991 312.611 309.854 317.804C332.382 322.707 355.408 324.875 378.232 327.842C383.142 318.296 385.797 295.028 386.041 284.029L386.074 279.944C386.075 267.123 386.301 254.24 386.012 241.425L384.914 202.949C384.315 182.973 382.235 140.939 375.045 122.142L365.084 123.644ZM373.729 348.324C363.717 368.231 344.788 408.384 316.546 405.15L316.325 404.788C297.073 403.927 290.422 403.288 270.595 398.956L232.602 390.745C204.987 384.987 184.289 379.65 155.636 376.818C154.76 376.413 153.495 376.536 152.527 376.519C155.12 402.486 151.043 445.104 157.687 466.401C164.383 487.862 188.511 487.619 206.911 491.187C223.11 494.327 282.327 503.898 295.213 511.131L294.787 511.407C298.095 512.83 305.569 513.935 309.485 514.751C330.03 519.033 355.147 524.81 376.273 524.688C375.563 509.736 376.321 494.699 376.05 479.732L374.878 413.056C374.674 392.326 374.793 368.595 373.729 348.324ZM136.412 290.913C133.169 301.279 123.823 320.753 110.377 319.622C105.817 325.383 89.4448 352.054 90.2742 358.834C91.1148 365.705 142.16 373.267 147.05 372.8C154.475 374 167.714 376.711 174.981 376.879C191.464 379.784 207.972 381.976 224.36 385.582C238.96 388.795 253.435 392.557 268.028 395.811C288.974 400.48 306.893 405.39 326.526 394.073C341.019 385.16 362.397 348.135 374.055 331.235C368.481 329.639 362.611 329.189 356.879 328.449C332.856 325.346 310.018 319.569 286.816 316.347L286.565 316.752C280.782 317.882 274.003 316.797 268.127 316.512C233.147 314.815 199.549 308.604 165.542 300.848C158.788 299.308 140.313 296.599 136.412 290.913ZM347.725 95.7388C314.442 101.987 284.451 108.95 250.014 113.417C223.245 116.89 196.308 117.761 169.478 120.431C169.929 123.506 172.177 139.33 174.999 139.884C184.567 138.128 194.349 137.17 204.005 136.009L337.812 118.288C343.059 117.646 348.342 117.211 353.565 116.399C352.899 114.214 348.674 96.2537 347.725 95.7388ZM463.155 213.534C459.458 228.618 450.639 247.009 445.166 261.96C440.528 274.628 437.427 287.944 432.11 300.319C437.991 298.646 443.789 296.615 449.598 294.707C452.153 293.784 453.148 288.556 454.054 286.246C463.011 263.399 472.49 241.528 485.486 220.54C478.217 217.523 470.72 215.625 463.155 213.534ZM141.596 375.948C140.869 396.138 141.709 442.435 146.382 460.032C154.834 491.855 201.579 493.327 229.157 498.503L294.787 511.407L295.213 511.131C282.327 503.898 223.11 494.327 206.911 491.187C188.511 487.619 164.383 487.862 157.687 466.401C151.043 445.104 155.12 402.486 152.527 376.519C148.91 376.159 145.232 375.735 141.596 375.948ZM134.88 285.8C125.528 295.845 116.969 307.585 110.377 319.622C123.823 320.753 133.169 301.279 136.412 290.913C140.313 296.599 158.788 299.308 165.542 300.848C199.549 308.604 233.147 314.815 268.127 316.512C274.003 316.797 280.782 317.882 286.565 316.752L286.816 316.347C270.967 314.074 255.388 310.132 239.625 307.298C221.435 304.028 146.724 294.293 134.88 285.8ZM316.325 404.788L316.546 405.15C344.788 408.384 363.717 368.231 373.729 348.324C374.098 345.091 373.948 341.859 374.273 338.641C360.128 360.377 342.881 401.257 316.325 404.788ZM393.768 200.793C409.026 202.682 426.518 205.769 441.625 208.579C445.762 209.349 449.891 210.752 453.998 211.409C454.523 210.415 454.986 209.381 455.472 208.368C452.032 207.566 448.438 207.124 444.951 206.53L404.542 199.361C399.044 198.41 393.485 195.186 393.768 200.793Z"/>
	<path fill="#00824B" transform="scale(1.6 1.6)" d="M130.662 275.201L131.273 275.68C132.288 275.546 133.184 275.604 134.173 275.888L133.887 275.988C134.861 276.227 135.641 276.021 136.587 276.172C133.341 277.418 128.356 278.204 127.598 282.208C127.589 278.997 128.564 277.494 130.662 275.201Z"/>
	<path fill="#A5EBFF" transform="scale(1.6 1.6)" d="M177.65 271.436L178.67 276.589C178.957 278.23 182.23 290.376 179.402 289.011C178.29 285.63 177.834 281.705 177.159 278.199C176.788 276.301 176.452 274.422 176.212 272.503L177.65 271.436Z"/>
	<path fill="#00A068" transform="scale(1.6 1.6)" d="M130.662 275.201C134.758 271.297 160.366 254.674 166.44 253.409C164.209 256.018 164.46 259.761 162.48 262.504C160.661 265.024 140.597 274.634 136.587 276.172C135.641 276.021 134.861 276.227 133.887 275.988L134.173 275.888C133.184 275.604 132.288 275.546 131.273 275.68L130.662 275.201Z"/>
	<path fill="#15BBAB" transform="scale(1.6 1.6)" d="M167.749 265.61C169.977 265.117 172.449 265.095 174.727 265.141C175.235 267.586 175.813 270.037 176.212 272.503C176.452 274.422 176.788 276.301 177.159 278.199C177.834 281.705 178.29 285.63 179.402 289.011C168.894 286.859 152.157 282.911 142.311 278.529C147.872 275.305 165.765 267.713 167.749 265.61Z"/>
	<path fill="#15BBAB" transform="scale(1.6 1.6)" d="M475.156 257.66C484.042 265.865 488.767 271.7 499.468 279.057C493.122 280.935 486.91 283.353 480.703 285.644C474.543 287.911 468.495 289.732 462.024 290.921C463.226 280.044 469.829 267.142 475.156 257.66Z"/>
	<path fill="#FC615C" transform="scale(1.6 1.6)" d="M393.768 200.793C409.026 202.682 426.518 205.769 441.625 208.579C445.762 209.349 449.891 210.752 453.998 211.409C449.232 222.676 445.274 234.276 440.924 245.708C435.285 260.529 423.651 287.474 422.06 303.08C414.106 305.291 399.66 311.706 392.405 315.4C396.568 279.622 394.861 237.009 393.768 200.793Z"/>
	<path fill="#15BBAB" transform="scale(1.6 1.6)" d="M511.835 287.743C521.114 301.101 540.665 330.039 544.011 345.332C533.294 355.379 481.794 367.026 465.897 369.484C441.235 373.296 426.64 371.084 408.491 351.662C405.474 348.433 393.042 331.906 390.371 331.402C389.247 330.559 388.218 329.252 387.227 328.236C402.921 327.402 509.609 289.803 511.835 287.743Z"/>
	<path fill="#5661EE" transform="scale(1.6 1.6)" d="M383.724 334.253L385.734 336.856C400.866 351.339 406.411 376.197 432.646 381.778C447.616 384.963 489.593 380.198 505.307 373.747C503.585 399.806 514.332 449.186 502.13 465.852C489.945 482.495 411.575 519.14 384.454 523.327C383.935 513.147 384.017 502.941 383.959 492.75L383.41 393.308C383.318 374.393 383.014 355.663 383.679 336.754L383.724 334.253Z"/>
	<path fill="#AFB3FE" transform="scale(1.6 1.6)" d="M383.724 334.253L385.734 336.856C385.267 339.654 384.139 342.644 384.337 345.493L383.958 345.629L384.005 346.088C383.362 344.808 383.741 338.506 383.679 336.754L383.724 334.253Z"/>
	<path fill="#15BBAB" transform="scale(1.6 1.6)" d="M136.412 290.913C140.313 296.599 158.788 299.308 165.542 300.848C199.549 308.604 233.147 314.815 268.127 316.512C274.003 316.797 280.782 317.882 286.565 316.752L286.816 316.347C310.018 319.569 332.856 325.346 356.879 328.449C362.611 329.189 368.481 329.639 374.055 331.235C362.397 348.135 341.019 385.16 326.526 394.073C306.893 405.39 288.974 400.48 268.028 395.811C253.435 392.557 238.96 388.795 224.36 385.582C207.972 381.976 191.464 379.784 174.981 376.879C167.714 376.711 154.475 374 147.05 372.8C142.16 373.267 91.1148 365.705 90.2742 358.834C89.4448 352.054 105.817 325.383 110.377 319.622C123.823 320.753 133.169 301.279 136.412 290.913ZM176.749 374.465C177.775 375.131 178.778 375.292 179.929 375.553C178.325 376.268 176.749 376.819 174.981 376.879C191.464 379.784 207.972 381.976 224.36 385.582C238.96 388.795 253.435 392.557 268.028 395.811C288.974 400.48 306.893 405.39 326.526 394.073C316.611 394.12 307.148 392.05 297.443 390.273C258.746 383.188 216.277 379.197 176.749 374.465Z"/>
	<path fill="#FEFEFE" transform="scale(1.6 1.6)" d="M147.05 372.8C153.216 371.564 169.873 373.593 176.749 374.465C177.775 375.131 178.778 375.292 179.929 375.553C178.325 376.268 176.749 376.819 174.981 376.879C167.714 376.711 154.475 374 147.05 372.8Z"/>
	<path fill="#5661EE" transform="scale(1.6 1.6)" d="M373.729 348.324C374.793 368.595 374.674 392.326 374.878 413.056L376.05 479.732C376.321 494.699 375.563 509.736 376.273 524.688C355.147 524.81 330.03 519.033 309.485 514.751C305.569 513.935 298.095 512.83 294.787 511.407L295.213 511.131C282.327 503.898 223.11 494.327 206.911 491.187C188.511 487.619 164.383 487.862 157.687 466.401C151.043 445.104 155.12 402.486 152.527 376.519C153.495 376.536 154.76 376.413 155.636 376.818C184.289 379.65 204.987 384.987 232.602 390.745L270.595 398.956C290.422 403.288 297.073 403.927 316.325 404.788L316.546 405.15C344.788 408.384 363.717 368.231 373.729 348.324ZM155.636 376.818C159.703 379.746 177.575 381.218 183.242 382.206L213.822 387.541C218.213 388.326 228.941 391.225 232.602 390.745C204.987 384.987 184.289 379.65 155.636 376.818Z"/>
	<path fill="#FED45E" transform="scale(1.6 1.6)" d="M365.084 123.644L375.045 122.142C382.235 140.939 384.315 182.973 384.914 202.949L386.012 241.425C386.301 254.24 386.075 267.123 386.074 279.944L386.041 284.029C385.797 295.028 383.142 318.296 378.232 327.842C355.408 324.875 332.382 322.707 309.854 317.804C285.991 312.611 263.177 305.002 239.859 299.703C226.601 296.689 212.71 295.829 199.645 292.682C196.165 292.231 192.698 291.736 189.232 291.19C187.664 275.996 184.079 261.141 181.311 246.153C176.089 217.882 170.783 177.998 158.374 152.078C165.351 150.481 171.752 147.391 178.817 146.088C201.621 141.881 225.348 140.532 248.419 138.45C269.639 136.535 290.827 133.63 311.975 131.029L345.139 126.644C351.79 125.721 358.499 124.969 365.084 123.644ZM158.374 152.078C170.783 177.998 176.089 217.882 181.311 246.153C184.079 261.141 187.664 275.996 189.232 291.19C192.698 291.736 196.165 292.231 199.645 292.682C197.504 267.796 188.335 229.852 180.997 204.623C176.732 189.957 167.014 174.033 167.235 158.644C180.445 149.884 204.305 145.59 219.541 144.489C243.84 142.733 270.156 142.03 294.619 141.231C308.319 140.02 357.011 135.306 363.026 150.558C365.059 155.714 371.456 199.336 367.19 204.813C362.651 210.64 327.997 210.247 319.342 212.075C321.25 217.766 326.059 216.278 331.058 216.218C348.495 216.008 361.457 216.033 375.894 205.79C376.266 189.228 371.982 167.278 369.576 150.63C368.362 142.229 367.862 131.521 365.084 123.644C358.499 124.969 351.79 125.721 345.139 126.644L311.975 131.029C290.827 133.63 269.639 136.535 248.419 138.45C225.348 140.532 201.621 141.881 178.817 146.088C171.752 147.391 165.351 150.481 158.374 152.078Z"/>
	<path fill="#FEFEFE" transform="scale(1.6 1.6)" d="M278.29 184.406C282.219 183.224 284.944 194.721 285.153 198.097C276.576 200.405 268.064 199.947 259.327 200.727L233.468 202.965C228.841 203.387 199.191 207.104 197.253 202.413C214.701 202.721 227.616 200.97 244.907 199.179C256.888 197.938 282.106 200.472 278.29 184.406Z"/>
	<path fill="#FEFEFE" transform="scale(1.6 1.6)" d="M372.355 275.613C373.494 275.405 376.157 277.572 377.224 278.268C380.111 279.208 383.234 278.706 386.074 279.944L386.041 284.029C361.503 283.055 348.746 287.311 326.584 289.267C317.991 290.025 248.809 293.006 244.302 290.833C244.809 290.279 245.445 289.833 246.031 289.363C253.312 290.4 273.549 287.672 281.322 286.908L326.78 282.842C338.791 281.846 360.72 282.347 370.495 278.415C371.348 277.556 371.81 276.688 372.355 275.613Z"/>
	<path transform="scale(1.6 1.6)" d="M209.012 242.258C206.168 242.422 200.177 243.359 198.825 239.843C195.59 231.431 217.699 232.454 221.364 232.206L260.856 229.796C272.408 229.057 323.153 224.444 332.505 228.978C326.123 232.537 310.117 232.565 302.737 233.343L228.903 240.597C222.337 241.223 215.606 242.099 209.012 242.258Z"/>
	<path transform="scale(1.6 1.6)" d="M244.302 290.833C239.829 292.399 234.27 290.861 231.117 287.397C230.159 283.82 242.021 284.899 244.162 284.635C247.212 284.259 250.036 282.816 253.158 282.408C276.617 279.341 300.22 277.105 323.789 275.119C332.963 274.346 365.887 269.095 372.355 275.613C371.81 276.688 371.348 277.556 370.495 278.415C360.72 282.347 338.791 281.846 326.78 282.842L281.322 286.908C273.549 287.672 253.312 290.4 246.031 289.363C245.445 289.833 244.809 290.279 244.302 290.833Z"/>
	<path fill="#FEFEFE" transform="scale(1.6 1.6)" d="M217.166 268.355L349.858 254.014C355.801 253.421 362.049 252.872 367.842 251.39L368.148 251.539C372.634 253.679 373.711 252.809 369.791 258.274C355.785 265.288 310.746 267.577 293.594 269.003L268.764 270.981C258.99 271.824 215.059 276.899 217.166 268.355Z"/>
	<path transform="scale(1.6 1.6)" d="M217.166 268.355C214.716 268.502 211.67 269 209.63 267.301C198.377 257.937 231.461 257.227 234.041 256.961L279.219 252.507C308.575 249.663 341.388 245.187 370.739 244.339C375.156 248.332 373.174 250.144 367.842 251.39C362.049 252.872 355.801 253.421 349.858 254.014L217.166 268.355Z"/>
	<path fill="#FEFEFE" transform="scale(1.6 1.6)" d="M332.505 228.978C335.445 226.561 370.617 226.473 375.236 227.986C378.119 228.93 378.943 231.65 378.218 234.458C377.97 234.744 313.884 241.172 309.163 241.729C295.706 243.315 215.808 256.093 209.32 250.47C208.185 248.14 208.857 244.791 209.012 242.258C215.606 242.099 222.337 241.223 228.903 240.597L302.737 233.343C310.117 232.565 326.123 232.537 332.505 228.978Z"/>
	<path transform="scale(1.6 1.6)" d="M197.253 202.413C191.967 200.143 191.129 181.123 192.61 176.725C197.251 162.941 252.419 165.517 262.849 169.265C270.32 171.95 274.967 177.407 278.29 184.406C282.106 200.472 256.888 197.938 244.907 199.179C227.616 200.97 214.701 202.721 197.253 202.413Z"/>
	<path fill="#FED45E" transform="scale(1.6 1.6)" d="M273.738 182.374C279.721 192.24 264.672 190.098 257.165 190.912C241.156 192.647 218.784 194.463 203.912 200.652C203.719 198.236 203.554 195.815 203.214 193.415C205.618 192.879 207.559 190.913 209.911 190.141C229.138 183.831 243.736 183.137 263.57 182.71C266.646 182.644 270.93 183.398 273.738 182.374Z"/>
	<path fill="#FEFEFE" transform="scale(1.6 1.6)" d="M201.802 179.302C212.411 171.72 263.045 166.733 273.738 182.374C270.93 183.398 266.646 182.644 263.57 182.71C243.736 183.137 229.138 183.831 209.911 190.141C207.559 190.913 205.618 192.879 203.214 193.415C202.597 188.729 202.225 184.009 201.802 179.302Z"/>
	<path transform="scale(1.6 1.6)" d="M294.619 141.231C308.319 140.02 357.011 135.306 363.026 150.558C365.059 155.714 371.456 199.336 367.19 204.813C362.651 210.64 327.997 210.247 319.342 212.075C314.183 213.15 304.499 213.376 300.613 209.717C294.905 204.344 294.832 155.667 294.619 141.231Z"/>
	<path fill="#FEFEFE" transform="scale(1.6 1.6)" d="M300.311 148.538C311.4 148.914 322.499 148.607 333.592 148.825L340.594 149.159C329.898 152.591 318.844 151.359 308.034 153.608C306.687 166.072 306.063 179.55 306.685 192.09C306.924 196.904 308.208 201.79 308.228 206.559C300.777 205.191 300.302 157.104 300.311 148.538Z"/>
	<path fill="#FED45E" transform="scale(1.6 1.6)" d="M333.592 148.825C342.046 148.825 350.565 148.382 359.006 148.534C364.053 162.902 366.754 184.729 366.576 199.888C357.609 201.054 309.438 203.982 308.57 204.365C308.433 205.099 308.309 205.816 308.228 206.559C308.208 201.79 306.924 196.904 306.685 192.09C306.063 179.55 306.687 166.072 308.034 153.608C318.844 151.359 329.898 152.591 340.594 149.159L333.592 148.825Z"/>
</svg>
