<?xml version="1.0" encoding="utf-8" ?>
<svg width="100" height="100" viewBox="0 0 900 900">
	<path transform="scale(1.6 1.6)" d="M301.995 131.579C304.383 119.489 312.91 95.8752 323.366 88.981C340.907 77.4138 379.565 101.63 394.967 109.835C441.052 134.384 486.496 154.666 534.47 175.413C554.56 184.101 565.395 188.838 559.537 214.291C552.401 245.302 535.104 282.059 522.637 311.273C503.362 356.44 485.622 401.443 463.979 445.772C461.814 450.209 459.103 454.463 457.037 458.905C455.519 462.171 455.987 467.378 455.491 470.979C452.984 489.17 443.157 505.964 427.376 515.663C402.531 530.934 371.443 528.116 343.568 529.143C327.245 529.744 310.606 530.848 294.376 531.305C250.594 532.539 205.394 531.42 161.51 531.411C137.664 531.406 92.6546 532.333 87.8397 500.239C85.6601 485.711 91.6252 464.623 94.9693 450.229C106.281 401.539 106.827 362.341 103.554 312.017C103.123 305.398 100.979 282.857 102.242 278.083C103.24 274.309 110.63 276.04 113.186 276.672C121.747 270.21 128.763 260.883 134.418 251.836C133.702 241.959 129.925 210.49 135.518 203.612C144.293 192.821 193.927 204.739 211.184 206.679C214.387 199.876 216.557 192.543 218.801 185.381C222.667 173.048 231.964 135.433 238.833 125.819C252.164 107.162 275.494 118.494 291.648 126.23L301.995 131.579Z"/>
	<path fill="#15BBAB" transform="scale(1.6 1.6)" d="M113.186 276.672C121.747 270.21 128.763 260.883 134.418 251.836L136.932 280.446L113.186 276.672Z"/>
	<path fill="#15BBAB" transform="scale(1.6 1.6)" d="M334.187 93.5472C349.403 93.5169 365.027 102.688 378.333 109.32C398.773 119.508 418.608 130.817 439.172 140.778C458.902 150.335 478.912 159.098 498.944 167.975C503.652 170.061 509.554 172.164 513.632 175.314L489.885 175.584C423.552 175.947 368.42 168.193 310.445 135.896C312.227 123.449 318.582 95.5685 334.187 93.5472Z"/>
	<path fill="#15BBAB" transform="scale(1.6 1.6)" d="M255.841 122.876C268.281 121.927 286.225 132.964 297.305 138.296C317.597 148.061 337.677 158.993 359.06 166.22C411.792 184.043 454.848 184.113 508.758 184.078C529.582 184.064 557.583 181.39 553.115 210.627C550.854 225.416 544.991 239.622 540.02 253.651C521.507 305.911 497.828 356.56 474.775 406.982L458.781 438.99C460.034 430.653 459.415 421.744 459.382 413.332C459.212 368.468 455.981 320.704 452.961 275.782C451.621 255.855 452.972 207.067 426.125 205.014C408.602 203.673 373.94 212.166 355.167 214.479C306.51 220.474 268.204 216.175 220.173 208.369C223.276 202.397 225 195.081 226.779 188.6C231.114 172.805 236.483 147.525 243.653 133.683C246.43 128.322 249.972 124.734 255.841 122.876Z"/>
	<path fill="#5661EE" transform="scale(1.6 1.6)" d="M143.999 207.303C168.768 206.08 193.719 212.181 218.008 216.392C266.663 224.827 317.129 229.097 366.091 221.257C383.638 218.447 403.307 213.577 420.837 212.607C445.58 211.238 445.493 257.914 446.681 273.892C448.736 301.542 449.652 329.129 450.918 356.805C452.366 388.447 453.679 421.657 450.637 453.162C448.943 470.704 446.447 487.548 434.073 501.118C423.655 511.837 403.272 522.387 388.757 513.484C365.132 498.992 366.771 460.845 367.941 435.533C369.599 399.656 369.363 363.563 368.72 327.657C368.607 321.356 367.957 315.058 367.79 308.75C367.545 299.424 371.174 280.86 362.585 275.966C358.339 275.788 353.971 276.635 349.769 277.2C303.985 283.355 257.291 287.404 211.076 286.167C189.068 285.578 166.981 283.698 145.058 281.732C143.713 267.224 137.386 216.345 141.231 209.209C141.871 208.022 142.743 207.621 143.999 207.303Z"/>
	<path fill="#FC615C" transform="scale(1.6 1.6)" d="M109.644 284.36C174.056 297.436 252.796 295.729 317.393 289.367C331.311 287.996 345.067 285.791 358.943 284.212C361.373 335.742 360.36 387.634 359.622 439.185C359.255 464.822 357.041 498.61 378.198 517.265L372.969 517.253C364.454 517.855 355.783 517.538 347.248 517.533C301.615 517.508 255.808 519.362 210.017 519.361C192.442 519.361 174.944 519.484 157.387 518.705C141.543 518.003 103.103 516.852 98.8222 496.935C96.8575 487.795 107.61 441.016 109.332 427.053C112.854 398.49 113.404 364.492 112.465 335.29C111.919 318.315 110.157 301.353 109.644 284.36Z"/>
	<path transform="scale(1.6 1.6)" d="M161.771 433.121C216.962 432.339 273.603 431.323 328.706 432.223L328.758 439.989C268.889 439.261 209.076 440.802 149.22 440.982C145.327 440.993 129.499 443.399 131.117 436.172L132.713 433.878C134.205 432.975 157.64 433.359 161.771 433.121Z"/>
	<path transform="scale(1.6 1.6)" d="M328.937 476.695C330.233 476.605 333.352 476.101 334.282 476.958L335.892 480.167L334.945 482.785C331.753 486.198 309.085 484.916 303.845 485.195C284.056 486.249 265.763 486.103 246.079 486.463C238.268 486.607 230.453 487.469 222.657 487.517C208.545 487.604 194.394 487.248 180.288 487.525C166.007 487.805 151.731 488.848 137.422 489.083C135.639 489.123 133.092 489.44 131.626 488.23L130.454 485.68C130.056 479.393 140.385 480.942 144.224 480.781C166.174 479.863 188.149 479.998 210.108 479.466C215.851 479.327 221.608 478.802 227.344 478.769C261.846 478.569 294.357 478.816 328.937 476.695Z"/>
	<path transform="scale(1.6 1.6)" d="M324.992 454.861L330.612 454.562C335.898 454.531 334.42 458.977 333.557 462.587C318.734 465.304 295.636 463.406 279.928 463.75C232.997 464.777 186.539 465.688 139.531 465.938C137.205 465.966 133.53 466.422 131.555 465.021L130.311 462.998C129.563 455.258 143.006 457.296 147.328 457.295C174.67 457.286 202.095 457.78 229.428 457.301C234.991 457.203 240.526 456.356 246.093 456.308C257.154 456.212 268.243 456.513 279.298 456.248C286.895 456.065 294.49 455.278 302.095 455.103C309.73 454.928 317.359 455.28 324.992 454.861Z"/>
	<path fill="#FED45E" transform="scale(1.6 1.6)" d="M333.174 355.906C335.402 357.654 335.559 362.429 335.888 365.165C337.878 381.704 337.017 397.073 333.07 413.222C331.581 419.317 328.875 425.933 328.706 432.223C273.603 431.323 216.962 432.339 161.771 433.121L158.224 429.404C153.566 423.007 143.993 399.729 145.278 394.327L146.474 393.435L146.854 393.484C151.059 393.945 155.174 393.236 159.381 393.162C187.381 392.668 215.453 393.114 243.459 393.119C263.305 393.122 283.278 392.828 303.092 394.248C308.164 394.612 318.305 397.025 322.678 393.458C331.148 386.549 331.996 366.293 333.174 355.906Z"/>
	<path transform="scale(1.6 1.6)" d="M146.474 393.435C142.868 378.534 146.816 343.95 148.003 328.438C148.347 323.933 148.121 316.738 149.41 312.642L150.045 311.594C152.257 310.736 166.593 312.301 170.157 312.424C179.528 312.745 188.961 312.352 198.342 312.556C205.874 312.72 213.411 313.41 220.945 313.654C238.552 314.223 256.293 313.6 273.918 313.705C280.191 313.743 286.42 314.562 292.704 314.575C298.278 314.587 328.57 313.621 331.909 315.313C334.026 319.54 333.429 349.066 333.174 355.906C331.996 366.293 331.148 386.549 322.678 393.458C318.305 397.025 308.164 394.612 303.092 394.248C283.278 392.828 263.305 393.122 243.459 393.119C215.453 393.114 187.381 392.668 159.381 393.162C155.174 393.236 151.059 393.945 146.854 393.484L146.474 393.435Z"/>
	<path fill="#FED45E" transform="scale(1.6 1.6)" d="M156.632 319.972C167.957 320.009 179.198 320.972 190.493 321.229C207.984 321.626 225.513 320.999 243.009 321.287C250.892 321.416 258.779 322.266 266.661 322.453C278.952 322.745 291.245 323.044 303.531 323.334C310.455 323.498 318.031 322.938 324.796 324.543C326.61 342.994 327.398 368.55 319.681 385.595L318.753 387.038C317.185 387.77 294.525 385.936 290.329 385.933C265.81 385.913 241.29 385.942 216.771 385.944C195.051 385.946 175.098 385.768 153.426 386.958C153.418 377.702 153.093 368.31 153.554 359.072C154.207 345.999 155.807 333.019 156.632 319.972Z"/>
</svg>
