<?xml version="1.0" encoding="utf-8" ?>
<svg width="100" height="100" viewBox="0 0 900 900">
	<path transform="scale(1.6 1.6)" d="M440.937 83.6593L441.603 81.119C446.079 75.7563 455.388 82.4904 458.59 85.9707C471.141 99.6135 474.482 135.113 473.652 153.194C472.992 167.599 469.995 182.377 467.595 196.598C481.188 224.266 479.549 240.521 482.649 270.354C485.824 300.915 492.769 331.584 485.498 362.083C484.375 366.79 482.781 371.565 482.083 376.346L480.686 457.028C493.681 464.01 492.153 506.622 488.891 518.551C482.164 543.156 468.186 552.479 443.568 551.58C424.231 550.874 405.433 546.269 386.4 543.259C361.76 539.361 334.375 540.776 309.087 538.536C290.717 536.909 272.425 534.145 253.97 533.702C237.251 533.301 220.828 535.741 204.175 536.37C149.478 538.433 156.581 511.276 156.615 470.628C156.667 408.156 156.708 345.757 155.292 283.289C154.515 248.989 154.677 218.728 149.533 184.228C148.217 175.398 144.404 159.416 146.781 151.249L147.969 150.149C149.787 148.641 152.386 147.552 154.407 146.274C168.805 137.171 183.814 130.84 199.764 124.826C270.894 98.0064 355.47 78.5274 432.249 85.0168L440.389 84.7254L440.937 83.6593Z"/>
	<path fill="#5661EE" transform="scale(1.6 1.6)" d="M452.036 474.846C453.363 475.08 455.472 475.199 456.664 474.488L457.449 473.311C458.445 468.969 456.771 453.571 456.464 448.263C455.336 428.785 455.574 410.365 455.011 391.095C453.906 353.288 452.242 314.299 449.42 276.664C447.135 246.188 446.979 211.831 429.423 185.504C474.809 196.852 473.356 232.206 477.902 269.783C481.339 298.195 487.411 328.214 481.222 356.688C480.424 360.357 475.774 372.002 478.121 375.285C478.802 376.239 480.999 376.235 482.083 376.346L480.686 457.028C473.809 464.042 488.946 505.51 468.966 525.832L465.285 529.143C457.403 512.188 454.875 493.139 452.036 474.846Z"/>
	<path fill="#FC615C" transform="scale(1.6 1.6)" d="M349.34 473.841C360.542 473.692 371.468 471.072 382.51 469.448C405.145 466.121 427.769 465.918 450.284 470.181L452.036 474.846C454.875 493.139 457.403 512.188 465.285 529.143C443.789 545.217 393.801 534.471 368.793 532.638C354.996 531.627 341.282 531.754 327.502 531.165C307.546 530.313 287.615 528.682 267.661 527.859C244.771 526.916 221.853 531.167 199.057 529.315C154.265 525.677 167.819 500.888 164.956 468.176C173.499 469.417 182.405 470.425 191.042 470.295C198.069 469.751 205.292 470.578 212.325 470.903C256.239 472.929 296.041 474.724 340.446 471.741C342.809 471.582 346.718 470.913 348.637 472.721L349.34 473.841Z"/>
	<path transform="scale(1.6 1.6)" d="M191.042 470.295C198.069 469.751 205.292 470.578 212.325 470.903C256.239 472.929 296.041 474.724 340.446 471.741C342.809 471.582 346.718 470.913 348.637 472.721L349.34 473.841C351.056 496.409 349.272 490.584 329.952 495.714C296.975 504.471 274.529 509.755 240.157 509.602C223.801 509.53 203.916 509.449 194.433 493.458C190.406 486.669 189.144 477.938 191.042 470.295Z"/>
	<path fill="#5661EE" transform="scale(1.6 1.6)" d="M198.857 477.301C220.58 477.611 242.24 480.234 263.993 480.28C277.721 480.309 291.605 480.722 305.313 480.241C316.828 479.837 328.818 478.499 340.311 479.255L340.856 484.747L328.603 488.134C295.983 496.842 275.17 501.302 241.031 501.282C229.093 501.275 215.478 502.02 205.957 493.466C202.151 490.047 198.562 484.137 198.383 478.907L198.857 477.301Z"/>
	<path fill="#FED45E" transform="scale(1.6 1.6)" d="M440.937 83.6593C463.374 85.6021 467.724 141.144 466.364 156.868C465.477 167.124 463.12 182.59 460.2 192.68C440.182 177.234 411.445 177.546 387.436 175.71C353.785 173.137 320.057 170.916 286.536 166.946C261.521 163.985 240.168 162.775 215.034 164.142C203.082 164.792 181.969 167.443 170.977 164.779C164.496 163.209 160.53 158.121 158.58 152.062C168.007 145.127 183.995 139.626 194.975 135.445C252.573 113.51 305.135 101.342 365.875 91.5893C383.388 88.7774 400.324 85.7947 418.133 85.2519C422.682 85.1133 427.798 85.8279 432.249 85.0168L440.389 84.7254L440.937 83.6593Z"/>
	<path transform="scale(1.6 1.6)" d="M384.604 158.576C392.125 158.306 440.819 159.207 445.783 164.069L446.063 166.873C443.928 168.29 434.166 166.88 431.328 166.598C413.802 165.813 397.683 165.265 380.157 165.233C376.451 165.226 372.165 165.586 368.536 164.826L367.625 164.237L368.902 161.557C371.906 158.252 380.438 158.78 384.604 158.576Z"/>
	<path transform="scale(1.6 1.6)" d="M409.964 97.9432C413.694 97.595 429.424 97.1099 431.345 100.961L431.027 101.736C428.684 105.271 395.039 106.125 388.69 106.888C369.04 109.249 349.388 113.17 329.901 116.641C326.412 117.278 314.356 120.55 311.815 119.251L310.979 117.135C316.489 110.907 390.379 99.4057 409.964 97.9432Z"/>
	<path transform="scale(1.6 1.6)" d="M389.862 124.517C401.327 124.708 430.311 122.872 439.366 128.023C445.307 131.404 444.659 139.682 437.242 140.642C432.52 141.253 424.787 140.096 419.863 139.779C401.595 138.607 383.383 139.432 365.104 139.234C359.667 139.175 354.238 138.612 348.797 138.68C314.813 139.105 274.429 140.19 241.635 145.964C225.15 148.459 209.154 153.064 192.516 154.877C200.733 152.083 208.508 148.148 216.819 145.508C247.184 135.867 279.349 133.961 311.001 133.779C324.356 133.703 341.62 133.308 354.476 129.539C357.774 128.572 360.736 126.737 364.133 126.036C372.411 124.325 381.419 124.623 389.862 124.517Z"/>
	<path fill="#5661EE" transform="scale(1.6 1.6)" d="M189.267 183.177C193.43 181.458 197.17 179.04 201.1 176.874C233.16 159.206 255.929 166.27 289.822 174.847C312.321 180.541 335.148 184.271 358.291 186.023C376.92 187.433 403.709 187.393 420.721 194.379C426.989 196.952 430.443 200.6 432.987 206.827C440.546 225.333 441.353 260.353 443.002 280.906C445.47 309.65 445.534 336.095 446.304 364.527C446.518 372.422 447.361 380.335 447.467 388.233C447.773 411.194 447.423 432.073 449.118 455.149C449.483 460.113 450.242 465.216 450.284 470.181C427.769 465.918 405.145 466.121 382.51 469.448C371.468 471.072 360.542 473.692 349.34 473.841L348.637 472.721C346.718 470.913 342.809 471.582 340.446 471.741C296.041 474.724 256.239 472.929 212.325 470.903C205.292 470.578 198.069 469.751 191.042 470.295C182.405 470.425 173.499 469.417 164.956 468.176C164.821 462.466 165.334 456.61 165.335 450.865C165.338 411.869 164.709 372.791 165.358 333.806C165.45 328.289 166.165 322.798 166.235 317.279C166.476 298.171 166.218 280.199 167.282 261.06L170.011 259.113L165.884 257.507C164.351 249.789 166.023 241.545 166.183 233.738C166.532 216.741 166.375 187.892 162.703 171.305C171.215 179.978 179.161 179.282 189.007 183.073L189.267 183.177Z"/>
	<path fill="#15BBAB" transform="scale(1.6 1.6)" d="M226.663 324.901C237.75 335.55 252.363 344.083 261.563 355.939C254.064 370.898 241.138 392.634 246.927 409.747C251.562 423.446 266.986 423.187 278.52 419.048L282.899 417.322L283.317 419.124C283.224 419.371 273.256 429.616 273.076 429.733C271.451 430.787 269.395 430.966 267.733 432.139L267.69 433.172C263.948 433.627 256.107 432.064 251.903 431.746C238.082 430.699 208.678 434.038 200.985 419.023C198.991 415.131 202.888 407.324 204.009 403.273C206.71 393.514 209.007 383.652 212.199 374.032C215.574 363.857 219.818 353.922 222.861 343.647C224.682 337.498 224.724 330.942 226.663 324.901Z"/>
	<path transform="scale(1.6 1.6)" d="M294.918 233.927C287.702 218.481 302.352 221.104 311.513 224.952C321.43 229.118 329.526 241.638 333.424 251.242C341.771 271.808 335.767 281.824 361.315 284.612C376.853 286.307 393.874 286.113 403.78 300.418C414.443 322.014 377.866 335.932 369.078 355.424C365.732 363.188 366.317 368.757 369.416 376.516C375.248 391.12 388.771 415.578 367.467 424.088C347.991 431.867 323.447 409.079 309.603 398.429C300.695 405.464 293.361 412.356 282.899 417.322L278.52 419.048C266.986 423.187 251.562 423.446 246.927 409.747C241.138 392.634 254.064 370.898 261.563 355.939C252.363 344.083 237.75 335.55 226.663 324.901C217.984 315.687 203.642 296.457 215.228 284.077L216.07 283.447C227.284 277.221 257.883 281.046 270.18 283.431C272.821 278.672 273.912 273.349 275.648 268.23C281.155 251.993 284.62 246.373 294.918 233.927Z"/>
	<path fill="#FED45E" transform="scale(1.6 1.6)" d="M304.567 229.974L307.085 230.754C326.704 240.182 327.216 277.553 341.505 287.286C350.289 293.269 373.692 289.632 387.764 296.736C404.072 304.968 397.27 314.803 387.185 324.4C378.685 332.489 368.496 340.588 363.029 351.116C352.257 371.862 364.62 381.044 370.302 399.629C372.619 407.208 372.574 414.536 363.799 416.92C344.077 422.278 325.126 395.836 310.517 387.728C306.236 387.877 285.432 417.802 260.279 412.086C246.085 408.86 258.037 378.922 261.782 371.287C264.441 365.864 268.225 361.374 269.816 355.469C265.675 343.292 236.825 325.983 225.816 311.422C222.895 307.558 214.104 292.356 221.634 289.123C232.79 284.334 267.287 293.221 273.404 290.462C278.851 288.005 281.947 273.568 283.838 268.473C286.835 260.398 297.6 234.633 304.567 229.974Z"/>
	<path transform="scale(1.6 1.6)" d="M320.837 358.938C325.717 359.533 339.478 374.675 343.429 378.407C347.595 382.341 360.353 390.385 354.779 396.359L354.352 396.392C349.175 396.57 318.503 368.311 318.758 362.364C318.822 360.849 319.841 359.947 320.837 358.938Z"/>
	<path fill="#15BBAB" transform="scale(1.6 1.6)" d="M189.267 183.177C193.43 181.458 197.17 179.04 201.1 176.874C233.16 159.206 255.929 166.27 289.822 174.847C312.321 180.541 335.148 184.271 358.291 186.023C376.92 187.433 403.709 187.393 420.721 194.379C426.989 196.952 430.443 200.6 432.987 206.827C440.546 225.333 441.353 260.353 443.002 280.906C433.698 288.74 424.139 298.355 411.151 298.83L411.026 299.266C417.133 304.152 423.618 306.412 428.101 314.524C423.099 329.669 412.009 343.727 397.67 350.982C391.011 354.351 377.404 358.072 370.055 355.865L369.078 355.424C377.866 335.932 414.443 322.014 403.78 300.418C393.874 286.113 376.853 286.307 361.315 284.612C335.767 281.824 341.771 271.808 333.424 251.242C329.526 241.638 321.43 229.118 311.513 224.952C302.352 221.104 287.702 218.481 294.918 233.927C284.62 246.373 281.155 251.993 275.648 268.23C273.912 273.349 272.821 278.672 270.18 283.431C257.883 281.046 227.284 277.221 216.07 283.447L215.228 284.077C213.186 276.056 213.035 263.349 212.12 254.584C209.402 244.752 205.521 233.989 201.039 224.823C195.435 213.364 187.377 202.939 185.024 190.145C186.083 187.374 187.286 185.385 189.267 183.177Z"/>
</svg>
