<?xml version="1.0" encoding="utf-8" ?>
<svg width="50" height="50" viewBox="0 0 900 900">
	<path transform="scale(1.6 1.6)" d="M421.831 80.0913L424.6 79.9132C450.158 79.2679 451.274 103.771 451.667 122.603L452.95 122.173C470.972 116.612 484.278 124.607 489.519 142.252C494.009 157.373 492.616 179.749 492.614 195.703C492.61 216.334 492.413 236.988 492.657 257.617C493.191 302.703 498.906 344.969 494.759 390.96C493.875 400.757 492.582 410.589 492.333 420.43C492.076 430.593 492.549 440.843 492.646 451.014C492.873 474.963 488.564 488.604 462.56 494.823C440.886 500.007 415.323 497.952 392.98 498.157C342.118 498.624 296.97 513.73 249.567 531.076C237.072 535.648 224.91 540.876 212.126 544.682L207.408 545.777C198.612 547.57 187.887 547.499 180.141 542.291C154.469 525.03 149.379 468.255 147.935 438.974C144.852 376.462 144.63 313.835 139.839 251.39C138.673 236.193 136.547 220.873 136.92 205.606C137.318 189.293 143.491 185.548 158.198 181.569C176.097 176.727 194.314 173.451 212.181 168.397C262.159 154.261 309.984 134.164 356.062 110.349C372.694 101.753 404.471 82.5201 421.831 80.0913Z"/>
	<defs>
		<linearGradient id="gradient_0" gradientUnits="userSpaceOnUse" x1="490.16946" y1="277.52988" x2="328.41943" y2="273.76273">
			<stop offset="0" stop-color="#00BAA6"/>
			<stop offset="1" stop-color="#4CDAC5"/>
		</linearGradient>
	</defs>
	<path fill="url(#gradient_0)" transform="scale(1.6 1.6)" d="M454.099 130.51C462.514 126.114 474.651 128.462 479.155 137.323C488.183 155.082 484.362 231.457 484.854 256.23C484.948 260.946 485.58 265.652 485.786 270.367C487.256 303.968 489.196 335.326 488.725 369.032C488.453 388.456 485.746 407.697 484.997 427.086C481.278 423.477 482.055 407.658 481.837 402.379C480.958 381.102 480.821 359.721 481.185 338.428C481.428 324.197 482.386 310.115 482.217 295.855C482.151 290.219 481.269 284.621 481.189 278.995C480.892 258.108 481.296 227.397 476.91 207.524C473.595 192.501 463.59 173.512 446.544 171.567C437.424 170.526 426.3 171.807 417.05 172.115C394.222 172.875 372.131 173.166 349.362 176.22C342.55 177.134 335.795 178.866 329.097 180.392L335.087 174.226C332.82 174.789 329.721 175.903 327.41 175.436C349.819 169.909 382.618 166.892 405.733 165.158C413.829 164.551 460.526 162.988 464.193 159.349L464.269 158.256C463.2 156.15 459.407 154.699 457.206 154.207L449.366 154.056C450.217 146.444 451.084 137.598 454.099 130.51Z"/>
	<path fill="#15BBAB" transform="scale(1.6 1.6)" d="M210.301 537.169C176.206 546.284 165.693 513.191 160.772 485.929C156.598 462.812 155.548 439.782 154.707 416.369C152.692 360.204 151.074 302.436 146.83 246.388C146.056 236.16 145.006 225.96 144.534 215.71C144.235 209.206 142.474 198.216 148.36 193.619C156.428 187.319 183.598 183.84 195 180.996C251.081 167.007 304.981 145.03 356.162 118.356C369.796 111.25 383.298 103.97 397.205 97.4068C408.689 91.9873 428.326 81.0848 438.448 94.2728C449.81 109.077 443.722 138.099 441.437 155.493C389.134 158.641 337.499 162.405 287.183 177.835C276.73 181.041 214.285 202.581 213.311 210.885C221.226 212.369 236.851 204.486 244.059 201.518C271.69 190.141 297.768 180.607 327.41 175.436C329.721 175.903 332.82 174.789 335.087 174.226L329.097 180.392C316.938 184.996 298.27 186.542 284.43 190.854C264.775 196.978 225.243 216.171 208.911 215.521L208.535 216.15L205.586 214.886C195.299 213.505 199.561 250.588 199.743 256.218C200.807 288.997 203.152 322.362 203.771 354.982C203.994 366.778 203.622 378.592 203.798 390.388C204.298 423.879 207.135 459.268 208.986 492.836C209.788 507.371 211.358 522.609 210.301 537.169Z"/>
	<path fill="#5661EE" transform="scale(1.6 1.6)" d="M329.097 180.392C335.795 178.866 342.55 177.134 349.362 176.22C372.131 173.166 394.222 172.875 417.05 172.115C426.3 171.807 437.424 170.526 446.544 171.567C463.59 173.512 473.595 192.501 476.91 207.524C481.296 227.397 480.892 258.108 481.189 278.995C481.269 284.621 482.151 290.219 482.217 295.855C482.386 310.115 481.428 324.197 481.185 338.428C480.821 359.721 480.958 381.102 481.837 402.379C482.055 407.658 481.278 423.477 484.997 427.086C484.665 441.699 489.477 462.064 481.268 474.831C470.298 491.892 435.194 490.025 417.05 490.018C392.831 490.009 368.436 490.38 344.477 494.369C312.239 499.737 272.389 513.33 241.136 525.598C234.277 528.29 225.714 532.452 218.622 533.984C218.391 530.123 218.507 526.215 218.37 522.346C216.743 476.605 212.82 430.988 211.37 385.062C210.127 345.659 209.203 306.306 207.123 266.93C206.513 255.364 204.866 237.557 206.09 226.155C206.442 222.879 207.973 219.937 208.453 216.741L208.535 216.15L208.911 215.521C225.243 216.171 264.775 196.978 284.43 190.854C298.27 186.542 316.938 184.996 329.097 180.392Z"/>
	<path fill="#383F9E" transform="scale(1.6 1.6)" d="M254.547 472.928L257.569 476.517C258.611 477.861 259.445 479.507 259.469 481.245L258.435 483.484C255.669 485.673 249.378 483.661 247.717 480.86L247.407 478.473C248.252 475.635 251.793 474.62 254.069 473.225L254.547 472.928Z"/>
	<path transform="scale(1.6 1.6)" d="M254.547 472.928C266.539 458.315 342.336 456.011 364.237 453.239C380.457 451.187 409.094 446.072 424.806 441.16C427.75 440.24 434.822 436.977 437.35 439.211C444.563 445.586 427.861 448.69 425.343 449.413C403.793 455.599 378.012 460.197 355.769 462.398C328.642 465.083 301.165 465.355 274.693 472.442C269.319 473.881 263.124 476.485 257.569 476.517L254.547 472.928Z"/>
	<path transform="scale(1.6 1.6)" d="M434.299 413.489C436.909 413.175 440.119 413.967 440.35 417.201L439.705 419.15C436.579 423.309 427.83 424.28 423.174 425.838C401.597 433.061 380.978 439.935 358.305 443.059C339.552 445.642 320.548 445.878 301.765 448.396C288.937 450.116 276.354 453.327 263.512 454.876L259.878 454.644C258.859 454.213 257.86 453.291 257.522 452.217L257.856 449.363C260.463 444.836 304.436 439.194 310.733 438.567C330.48 436.601 350.227 436.373 369.814 432.743C392.128 428.607 412.607 419.675 434.299 413.489Z"/>
	<path transform="scale(1.6 1.6)" d="M390.912 214.819L393.739 214.711C443.457 214.311 460.382 261.682 444.846 304.263C435.316 330.38 406.099 368.924 386.258 388.845C352.951 422.286 335.912 407.905 306.8 378.237C277.564 348.806 238.553 300.142 249.304 255.997C255.467 230.692 280.949 213.885 306.626 220.435C323.137 224.647 335.417 235.35 344.071 249.832C352.894 230.715 369.057 216.304 390.912 214.819Z"/>
	<path fill="#FC615C" transform="scale(1.6 1.6)" d="M345.052 260.798C352.631 257.233 354.829 231.698 381.684 224.189C405.979 217.397 433.876 230.353 440.661 255.448C430.93 248.331 422.984 245.628 410.454 247.526C382.89 251.701 372.166 279.4 357.868 299.343C343.558 319.303 319.957 337.286 294.523 337.776C291.508 337.834 285.357 336.934 282.76 337.922L276.414 329.059C263.32 309.081 250.807 285.071 256.037 260.498C260.793 238.15 281.237 222.453 304.197 227.767C318.422 231.06 328.181 239.662 335.79 251.853C338.553 255.606 340.095 259.674 345.052 260.798Z"/>
	<path fill="#FED45E" transform="scale(1.6 1.6)" d="M282.76 337.922C285.357 336.934 291.508 337.834 294.523 337.776C319.957 337.286 343.558 319.303 357.868 299.343C372.166 279.4 382.89 251.701 410.454 247.526C422.984 245.628 430.93 248.331 440.661 255.448C446.566 277.292 440.409 299.749 429.417 318.872C418.488 337.883 378.696 393.871 358.362 399.311C342.997 403.421 330.636 390.562 320.698 380.865C306.968 367.467 294.278 353.278 282.76 337.922Z"/>
</svg>
