<?xml version="1.0" encoding="utf-8" ?>
<svg width="200" height="200" viewBox="-20 70 1000 1000">
	<path d="M945.986 284.2C946.433 284.476 946.826 284.682 947.191 285.086C948.516 286.557 948.644 289.824 948.543 291.672C948.421 293.925 948.164 295.294 946.507 296.811C946.553 293.324 946.32 290.971 945.283 287.595L944.897 287.653L944.464 286.969C944.472 285.379 944.91 285.305 945.986 284.2Z"/>
	<path fill="#0747C3" d="M614.431 339.328C622.629 332.017 626.243 332.71 635.44 328.405C635.754 329.443 636.084 330.439 636.251 331.513C631.748 333.244 620.012 336.786 617.627 341.218C617.539 341.381 617.485 341.56 617.414 341.731C617.984 342.871 618.255 342.791 619.34 343.363L619.092 345.226L615.529 343.475C604.641 352.454 594.163 361.86 583.179 370.739L582.062 367.648C592.383 358.965 602.378 349.878 612.695 341.177C609.616 339.439 606.757 337.566 603.894 335.491C607.485 336.62 610.95 337.898 614.431 339.328Z"/>
	<path fill="#0747C3" d="M764.413 233.513C730.492 221.726 696.18 210.58 662.016 199.509C648.718 195.2 618.704 187.513 608.363 180.878L608.437 180.442C615.88 180.771 624.377 185.091 631.406 187.482L671.311 201.027C689.391 207.209 707.614 213.02 725.771 218.976C739.17 223.371 752.481 228.007 765.984 232.073L764.413 233.513Z"/>
	<path fill="#0747C3" d="M706.129 248.529C718.592 258.607 730.744 269.078 743.219 279.16C747.649 282.74 751.986 286.601 756.616 289.908C757.014 291.255 757.369 292.352 758.159 293.54C766.667 300.333 780.135 299.832 789.393 305.691L789.399 306.851C775.881 303.379 762.843 297.371 749.497 293.208L750.086 291.752C751.832 292.242 753.528 292.91 755.233 293.527C751.088 289.717 708.209 254.521 705.916 253.663L702.894 252.504L706.129 248.529Z"/>
	<path fill="#0747C3" d="M605.594 212.064C613.84 213.258 624.653 217.873 632.786 220.466C653.336 227.017 674.01 233.451 694.38 240.543C716.224 247.27 737.777 254.9 759.542 261.872L758.532 262.932Q726.817 253.574 695.397 243.268L646.041 227.108C632.645 222.697 618.082 218.649 605.594 212.064Z"/>
	<path fill="#0747C3" d="M606.224 244.963C618.793 246.705 631.632 252.277 643.63 256.299C658.501 261.284 673.488 265.862 688.316 270.989C693.556 265.138 698.186 258.781 702.894 252.504L705.916 253.663C708.209 254.521 751.088 289.717 755.233 293.527C753.528 292.91 751.832 292.242 750.086 291.752L749.497 293.208C730.136 286.322 709.819 281.313 690.864 273.402C683.504 280.627 677.632 289.498 670.711 297.189C681.288 302.333 699.58 307.119 711.396 310.95C715.827 312.387 721.06 313.596 725.085 315.921L724.827 316.652C718.186 314.765 711.663 312.217 705.124 309.989L669.819 298.303C665.15 304.47 655.056 314.882 652.704 321.819L651.113 323.352L650.572 323.638C646.337 327.048 641.153 329.243 636.251 331.513C636.084 330.439 635.754 329.443 635.44 328.405C639.533 326.441 643.517 324.305 647.508 322.146C643.769 319.356 628.895 315.772 623.479 313.991C617.367 311.981 611.366 309.795 605.726 306.668C619.443 309.147 635.583 315.832 648.944 320.531C654.895 312.952 660.574 305.156 666.445 297.514C657.513 294.746 648.687 291.62 639.756 288.832C628.325 285.263 616.324 282.059 605.491 276.882C612.41 277.6 618.884 280.177 625.424 282.414C638.072 286.741 655.303 293.569 667.996 296.111C673.905 288.008 680.655 280.329 686.942 272.495Q663.999 264.393 640.765 257.168C629.348 253.567 616.752 250.733 606.224 244.963ZM705.916 253.663C701.062 259.825 696.266 265.997 691.7 272.377Q720.706 282.627 750.086 291.752C751.832 292.242 753.528 292.91 755.233 293.527C751.088 289.717 708.209 254.521 705.916 253.663Z"/>
	<defs>
		<linearGradient id="gradient_0" gradientUnits="userSpaceOnUse" x1="834.34955" y1="275.24896" x2="774.31152" y2="250.75067">
			<stop offset="0" stop-color="#0B36AF"/>
			<stop offset="1" stop-color="#0550CB"/>
		</linearGradient>
	</defs>
	<path fill="url(#gradient_0)" d="M808.595 216.781C817.373 224.685 824.564 234.555 832.662 243.177L833.998 243.884C836.992 249.073 841.612 253.39 844.964 258.405C844.673 258.529 844.395 258.694 844.089 258.777C842.731 259.145 841.174 258.271 839.978 257.717C825.332 251.298 810.105 246.815 794.918 241.92L793.816 243.322C788.14 251.414 782.397 259.466 776.819 267.626C783.378 269.746 789.908 271.839 796.585 273.557C794.303 274.217 791.827 273.645 789.503 273.358C789.468 283.983 790.154 295.139 789.393 305.691C780.135 299.832 766.667 300.333 758.159 293.54C757.369 292.352 757.014 291.255 756.616 289.908C762.171 282.87 767.211 275.419 772.194 267.972C767.802 265.875 763.144 264.455 758.532 262.932L759.542 261.872Q766.511 264.038 773.38 266.502C778.091 258.098 784.332 250.239 789.998 242.457C782.187 238.523 772.751 236.239 764.413 233.513L765.984 232.073Q778.738 236.268 791.351 240.872C796.793 232.541 802.056 224.319 808.595 216.781ZM775.938 269.091Q767.406 281.575 758.159 293.54C766.667 300.333 780.135 299.832 789.393 305.691C790.154 295.139 789.468 283.983 789.503 273.358Q782.668 271.391 775.938 269.091ZM794.918 241.92C810.105 246.815 825.332 251.298 839.978 257.717C831.22 244.85 819.686 233.528 809.324 221.938C804.284 228.445 799.6 235.152 794.918 241.92Z"/>
	<path fill="#262C6A" d="M903.726 224.284C909.092 212.213 919.312 183.058 926.916 174.251L927.513 173.553C925.825 180.179 922.499 186.34 919.595 192.501C914.06 204.243 905.851 219.301 904.019 232.226C903.114 238.61 903.447 245.254 903.541 251.691C910.459 260.172 916.592 269.241 923.685 277.574C924.225 278.209 925.458 279.234 925.386 280.007C917.542 274.756 908.676 261.962 903.516 253.854C903.398 290.323 903.987 326.854 903.453 363.312C902.672 363.635 902.009 363.908 901.139 363.846C899.733 363.748 898.421 362.907 897.411 361.971C892.565 357.478 888.633 351.507 883.984 346.7L863.023 325.258C860.054 322.265 856.739 319.578 854.008 316.365C852.146 313.957 849.437 310.185 846.647 308.846C844.874 307.995 843.305 308.749 841.555 309.285C840.242 308.635 840.161 308.04 839.496 306.766C841.892 299.409 840.155 287.464 840.527 279.462L840.86 277.361L840.119 275.812C835.133 273.255 804.469 273.755 796.585 273.557C789.908 271.839 783.378 269.746 776.819 267.626C782.397 259.466 788.14 251.414 793.816 243.322L794.918 241.92C810.105 246.815 825.332 251.298 839.978 257.717C841.174 258.271 842.731 259.145 844.089 258.777C844.395 258.694 844.673 258.529 844.964 258.405C841.612 253.39 836.992 249.073 833.998 243.884L832.662 243.177C839.44 230.802 847.667 219.112 854.991 207.036C871.32 207.169 887.701 207.135 904.02 207.683Q903.705 215.981 903.726 224.284ZM793.816 243.322C788.14 251.414 782.397 259.466 776.819 267.626C783.378 269.746 789.908 271.839 796.585 273.557C804.469 273.755 835.133 273.255 840.119 275.812L840.86 277.361C844.924 279.627 849.827 280.848 854.187 282.551C854.244 277.077 854.891 270.596 853.781 265.283C844.451 262.109 835.617 257.897 826.439 254.362C815.761 250.249 804.691 246.881 793.816 243.322ZM833.998 243.884C836.992 249.073 841.612 253.39 844.964 258.405C847.655 260.837 850.948 262.153 853.842 264.258C854.787 259.303 854.163 253.137 854.157 248.063Q854.161 230.329 853.986 212.596C847.164 222.929 840.845 233.585 833.998 243.884ZM840.527 279.462C840.155 287.464 841.892 299.409 839.496 306.766C840.161 308.04 840.242 308.635 841.555 309.285C843.305 308.749 844.874 307.995 846.647 308.846C849.437 310.185 852.146 313.957 854.008 316.365C854.378 305.5 854.376 294.711 854.264 283.841C849.614 282.54 845.015 281.268 840.527 279.462Z"/>
	<path fill="#AFAEAE" d="M915.95 313.471C932.708 313.469 949.494 313.255 966.248 313.485C965.91 348.224 966.403 383 966.423 417.744C966.446 457.475 966.043 497.232 966.481 536.959C961.014 534.446 954.996 532.911 949.333 530.836L916.139 518.41L916.238 388.561C916.224 363.565 915.291 338.447 915.95 313.471Z"/>
	<path fill="#14BCAB" d="M796.585 273.557C804.469 273.755 835.133 273.255 840.119 275.812L840.86 277.361L840.527 279.462C840.155 287.464 841.892 299.409 839.496 306.766C840.161 308.04 840.242 308.635 841.555 309.285C843.305 308.749 844.874 307.995 846.647 308.846C849.437 310.185 852.146 313.957 854.008 316.365C856.739 319.578 860.054 322.265 863.023 325.258L883.984 346.7C888.633 351.507 892.565 357.478 897.411 361.971C898.421 362.907 899.733 363.748 901.139 363.846C902.009 363.908 902.672 363.635 903.453 363.312C905.706 362.218 908.164 360.873 910.739 361.676C911.994 362.068 912.538 362.823 913.185 363.883C913.014 365.015 912.967 365.512 911.935 366.233C909.71 367.79 906.421 367.254 903.917 366.969L899.826 368.108C894.027 362.771 889.355 356.523 884.181 350.611C874.864 339.964 865.046 329.492 854.156 320.431C852.513 317.891 850.086 315.84 847.93 313.732C845.093 313.033 842.215 312.499 839.642 311.07L838.925 310.744C832.68 314.872 793.211 359.365 789.294 365.813Q789.689 395.91 789.501 426.009C789.461 440.626 789.743 455.365 789.013 469.96C785.023 468.057 780.727 466.533 776.47 465.348C759.415 459.167 742.717 452.496 725.392 447.048C720.899 444.906 716.464 443.143 711.622 441.961Q711.271 417.196 711.692 392.432C713.585 392.667 715.592 392.853 717.492 392.607C718.849 392.432 719.785 391.981 720.659 390.914C720.986 389.72 721.046 388.937 720.661 387.771C720.157 386.248 719.51 385.833 718.161 385.208C716.273 385.259 714.433 385.698 713.018 387.041C712.813 387.236 712.642 387.463 712.448 387.669C712.251 387.879 712.045 388.081 711.846 388.288L711.409 388.751L710.773 388.026C711.669 382.799 711.198 376.975 711.168 371.671Q711.065 359.412 711.168 347.153C715.829 349.143 720.665 350.706 725.456 352.35L725.281 350.634C725.869 346.841 726.242 318.596 724.827 316.652L725.085 315.921C725.719 315.798 726.349 315.691 726.984 315.583C731.404 314.829 773.092 314.864 775.328 316.049C777.443 322.105 776.09 331.255 775.941 337.618C780.57 338.977 785.048 340.673 789.556 342.378C789.514 330.505 790.084 318.727 789.399 306.851L789.393 305.691C790.154 295.139 789.468 283.983 789.503 273.358C791.827 273.645 794.303 274.217 796.585 273.557ZM711.168 347.153Q711.065 359.412 711.168 371.671C711.198 376.975 711.669 382.799 710.773 388.026L711.409 388.751L711.846 388.288C712.045 388.081 712.251 387.879 712.448 387.669C712.642 387.463 712.813 387.236 713.018 387.041C714.433 385.698 716.273 385.259 718.161 385.208C719.51 385.833 720.157 386.248 720.661 387.771C721.046 388.937 720.986 389.72 720.659 390.914C719.785 391.981 718.849 392.432 717.492 392.607C715.592 392.853 713.585 392.667 711.692 392.432Q711.271 417.196 711.622 441.961C716.464 443.143 720.899 444.906 725.392 447.048C725.94 429.443 725.509 411.689 725.543 394.065C725.57 380.154 726.213 366.246 725.456 352.35C720.665 350.706 715.829 349.143 711.168 347.153ZM789.294 365.813C785.39 371.33 781.622 377.332 776.185 381.471L776.47 465.348C780.727 466.533 785.023 468.057 789.013 469.96C789.743 455.365 789.461 440.626 789.501 426.009Q789.689 395.91 789.294 365.813ZM776.031 339.146C775.948 351.13 775.626 363.166 776.093 375.143C780.787 370.052 783.603 363.746 789.087 359.326C789.564 354.362 789.416 349.307 789.438 344.323L776.031 339.146Z"/>
	<path d="M789.087 359.326C794.051 355.277 798.441 349.933 802.813 345.239Q814.608 332.662 826.124 319.829C829.837 315.637 833.787 310.007 838.13 306.59L839.496 306.766C840.161 308.04 840.242 308.635 841.555 309.285C843.305 308.749 844.874 307.995 846.647 308.846C849.437 310.185 852.146 313.957 854.008 316.365C856.739 319.578 860.054 322.265 863.023 325.258L883.984 346.7C888.633 351.507 892.565 357.478 897.411 361.971C898.421 362.907 899.733 363.748 901.139 363.846C902.009 363.908 902.672 363.635 903.453 363.312C905.706 362.218 908.164 360.873 910.739 361.676C911.994 362.068 912.538 362.823 913.185 363.883C913.014 365.015 912.967 365.512 911.935 366.233C909.71 367.79 906.421 367.254 903.917 366.969L899.826 368.108C894.027 362.771 889.355 356.523 884.181 350.611C874.864 339.964 865.046 329.492 854.156 320.431C852.513 317.891 850.086 315.84 847.93 313.732C845.093 313.033 842.215 312.499 839.642 311.07L838.925 310.744C832.68 314.872 793.211 359.365 789.294 365.813C785.39 371.33 781.622 377.332 776.185 381.471C765.544 379.749 759.348 375.567 750.595 369.596C746.753 366.975 742.783 364.496 739.447 361.231C737.359 362.033 733.85 363.655 731.603 363.206C730.07 362.899 729.755 362.32 728.883 361.154C729.285 359.407 730.431 360.454 731.526 359.297C730.64 358.655 729.861 357.996 729.072 357.238L729.111 356.186C730.644 354.399 732.977 352.313 735.468 352.181C736.781 352.111 737.833 352.5 738.798 353.41C740.045 354.584 740.012 357.412 740.172 359.046C749.853 365.015 758.995 371.194 768.126 377.976L776.093 375.143C780.787 370.052 783.603 363.746 789.087 359.326Z"/>
	<path fill="#14BCAB" d="M789.294 365.813C793.211 359.365 832.68 314.872 838.925 310.744L839.642 311.07C842.215 312.499 845.093 313.033 847.93 313.732C850.086 315.84 852.513 317.891 854.156 320.431C865.046 329.492 874.864 339.964 884.181 350.611C889.355 356.523 894.027 362.771 899.826 368.108L903.917 366.969C902.855 385.017 903.554 403.393 903.585 421.482L903.607 514.226C892.954 510.674 882.554 505.955 872.113 501.814C866.314 499.514 859.226 497.587 853.898 494.473C849.317 492.381 844.272 490.61 839.444 489.172C822.63 482.772 805.915 476.125 789.013 469.96C789.743 455.365 789.461 440.626 789.501 426.009Q789.689 395.91 789.294 365.813ZM839.642 311.07C838.635 332.102 839.418 353.198 839.408 374.254L839.444 489.172C844.272 490.61 849.317 492.381 853.898 494.473C854.511 487.346 854.193 479.982 854.188 472.824L854.197 438.364L854.156 320.431C852.513 317.891 850.086 315.84 847.93 313.732C845.093 313.033 842.215 312.499 839.642 311.07Z"/>
	<path fill="#262C6A" d="M854.156 320.431C865.046 329.492 874.864 339.964 884.181 350.611C889.355 356.523 894.027 362.771 899.826 368.108L903.917 366.969C902.855 385.017 903.554 403.393 903.585 421.482L903.607 514.226C892.954 510.674 882.554 505.955 872.113 501.814C866.314 499.514 859.226 497.587 853.898 494.473C854.511 487.346 854.193 479.982 854.188 472.824L854.197 438.364L854.156 320.431Z"/>
	<path d="M576.452 395.779C576.306 389.52 576.636 383.241 575.896 377.011C575.051 375.796 573.839 374.511 574.006 372.96C574.323 370.024 576.226 367.289 576.398 364.279C576.716 358.717 576.363 353.006 576.435 347.424Q576.662 320.679 576.523 293.933Q576.621 231.177 577.361 168.424L577.592 124.535C577.602 120.521 576.655 115.205 577.312 111.399C577.541 110.067 577.946 109.706 579.017 108.963C580.363 108.926 580.927 109.026 582.082 109.725C584.313 113.769 581.032 336.569 582.062 367.648L583.179 370.739C594.163 361.86 604.641 352.454 615.529 343.475L619.092 345.226L619.34 343.363C618.255 342.791 617.984 342.871 617.414 341.731C617.485 341.56 617.539 341.381 617.627 341.218C620.012 336.786 631.748 333.244 636.251 331.513C641.153 329.243 646.337 327.048 650.572 323.638L651.113 323.352L652.704 321.819C655.056 314.882 665.15 304.47 669.819 298.303L705.124 309.989C711.663 312.217 718.186 314.765 724.827 316.652C726.242 318.596 725.869 346.841 725.281 350.634L725.456 352.35C720.665 350.706 715.829 349.143 711.168 347.153Q711.065 359.412 711.168 371.671C711.198 376.975 711.669 382.799 710.773 388.026L711.409 388.751L711.846 388.288C712.045 388.081 712.251 387.879 712.448 387.669C712.642 387.463 712.813 387.236 713.018 387.041C714.433 385.698 716.273 385.259 718.161 385.208C719.51 385.833 720.157 386.248 720.661 387.771C721.046 388.937 720.986 389.72 720.659 390.914C719.785 391.981 718.849 392.432 717.492 392.607C715.592 392.853 713.585 392.667 711.692 392.432Q711.271 417.196 711.622 441.961C716.464 443.143 720.899 444.906 725.392 447.048C742.717 452.496 759.415 459.167 776.47 465.348C780.727 466.533 785.023 468.057 789.013 469.96C805.915 476.125 822.63 482.772 839.444 489.172C844.272 490.61 849.317 492.381 853.898 494.473C859.226 497.587 866.314 499.514 872.113 501.814C882.554 505.955 892.954 510.674 903.607 514.226C907.878 514.861 912.104 516.884 916.139 518.41L949.333 530.836C954.996 532.911 961.014 534.446 966.481 536.959C972.869 538.951 992.112 544.287 994.891 549.958C995.283 550.757 995.117 550.573 994.756 551.517C992.957 552.523 990.999 552.416 989.063 551.828C981.036 549.389 972.981 545.601 965.075 542.654L915.624 524.371C904.965 520.342 893.452 517.781 883.1 513.185C875.663 519.405 868.8 526.302 861.371 532.509C872.834 536.49 887.992 540.694 896.667 549.732C899.668 552.859 903.233 561.935 906.839 562.915C907.854 562.049 908.378 561.77 908.567 560.352C908.932 557.607 906.925 554.399 909.228 552.031C910.674 550.543 913.172 550.004 915.172 550.123C916.696 550.213 918.494 550.744 919.482 551.988C920.299 553.017 920.329 554.163 920.046 555.383C919.977 555.683 919.868 555.973 919.804 556.274C919.186 559.198 924.531 561.142 920.163 564.197C918.757 565.181 916.616 565.287 915.023 564.701C913.742 564.229 913.31 563.641 912.68 562.49L912.75 561.034L913.536 560.749C914.753 561.48 915.887 562.245 917.279 562.598C918.559 562.251 918.759 562.443 919.581 561.325C919.24 560.146 919.138 560.075 918.188 559.284C916.92 559.209 915.899 559.204 914.695 558.746C914.493 555.539 917.429 555.084 914.893 551.827C913.758 551.42 912.727 551.171 911.547 551.692C910.515 552.147 909.737 552.709 909.567 553.889C909.042 557.542 912.547 560.344 910.285 563.981C908.476 565.161 906.527 565.253 904.406 565.267Q903.753 590.038 904.37 614.809C904.424 625.568 905.809 664.458 903.422 672.291C902.511 675.282 900.193 678.096 898.005 680.288C881.551 696.768 849.241 699.244 826.976 699.091C806.611 698.951 775.463 695.265 760.549 680.477C757.625 677.578 755.904 674.664 755.189 670.612C753.34 660.137 754.549 638.389 754.579 626.613C754.63 606.686 753.943 586.644 754.382 566.738C754.548 559.221 756.68 554.23 761.597 548.655C733.023 536.066 702.767 527.325 674.222 514.689C669.839 517.891 665.799 521.373 661.941 525.19C663.071 535.107 662.298 545.329 662.266 555.289C662.248 560.993 662.975 567.046 662.397 572.706C662.166 574.974 661.752 578.326 660.28 580.177C658.631 582.247 654.676 582.173 652.192 582.329C633.529 583.501 611.894 582.453 592.941 582.191C567.451 581.84 541.929 582.022 516.436 581.992L455.106 581.969C444.544 581.982 432.895 583.393 422.57 581.257C420.94 540.254 422.884 499.185 422.409 458.18C390.864 463.954 359.528 469.786 328.195 476.68C331.937 480.369 335.335 484.443 338.922 488.286Q351.265 501.298 363.157 514.724C381.285 535.062 399.138 555.39 416.45 576.433C428.562 591.155 441.695 605.537 452.14 621.51Q455.648 620.212 459.191 619.012Q462.734 617.812 466.308 616.71Q469.883 615.608 473.486 614.606Q477.09 613.603 480.72 612.7Q484.35 611.798 488.003 610.996Q491.657 610.194 495.331 609.494Q499.005 608.793 502.698 608.194Q506.39 607.596 510.097 607.099Q513.805 606.603 517.524 606.209Q521.244 605.815 524.973 605.525Q528.702 605.234 532.438 605.047Q536.174 604.859 539.914 604.775Q543.653 604.691 547.393 604.71Q551.134 604.729 554.872 604.852Q558.611 604.975 562.344 605.201Q566.078 605.427 569.804 605.756C579.668 606.549 589.373 607.393 598.943 610.065C596.411 617.427 594.28 624.933 592.133 632.414C604.771 634.359 617.453 635.213 630.065 637.666C657.962 643.093 692.605 657.471 709.763 680.627C722.644 698.009 720.69 717.332 719.936 737.726C720.065 750.04 721.395 763.99 719.121 776.091C718.138 783.908 713.474 791.592 708.395 797.417C682.394 827.242 634.244 837.763 596.298 840.511C535.606 844.904 465.067 833.507 417.641 792.569C405.852 797.634 394.081 802.366 381.695 805.791C329.284 820.285 263.674 820.115 211.68 803.982Q211.574 789.668 211.763 775.355C186.598 773.444 154.978 768.222 133.974 753.608C126.373 748.319 120.437 741.336 118.902 731.956C117.547 723.676 118.426 714.547 118.477 706.149L118.549 663.832L118.471 611.572C118.44 602.415 117.575 592.263 118.841 583.227C119.514 578.424 121.899 573.886 124.766 570.021C139.31 550.415 172.891 541.773 196.204 538.254C182.721 526.418 167.399 516.45 152.993 505.757C144.23 499.252 135.605 491.368 126.246 485.813C118.87 481.435 104.895 479.223 101.095 470.518C99.512 466.892 99.1095 461.998 98.8036 458.088C98.1917 450.265 98.1936 442.295 97.9536 434.451Q97.037 398.342 97.4618 362.224C97.5259 335.019 96.5767 307.245 98.3867 280.109C98.6964 275.465 99.0815 270.551 100.746 266.16C102.439 261.692 105.475 259.862 109.63 257.951C117.712 254.233 126.792 252.575 135.397 250.479Q148.896 247.187 162.3 243.53L311.372 204.414C328.438 199.965 345.408 194.739 362.189 189.324C371.054 186.463 379.78 183.006 388.851 180.828C394.532 179.464 399.136 179.021 404.723 181.128C410.513 183.311 427.122 191.528 429.36 197.424C431.883 204.069 429.674 214.336 429.584 221.447C429.047 263.721 427.14 305.876 425.757 348.124C425.423 358.339 426.006 368.623 425.215 378.815C424.799 384.169 424.17 389.925 421.645 394.752C420.177 397.561 418.097 399.084 415.336 400.528C404.329 406.286 391.035 409.601 379.166 413.286C350.795 422.093 322.064 429.608 293.666 438.287C302.046 447.34 311.536 456.018 318.878 465.931C320.398 467.729 324.409 473.481 326.571 473.915L326.998 473.844C335.278 470.953 344.777 469.592 353.393 467.819C376.326 463.098 399.381 459.384 422.419 455.245C422.082 449.393 421.003 441.431 423.355 435.929C424.88 434.732 426.603 434.734 428.507 434.617C443.877 433.675 459.88 434.655 475.313 434.725L540.913 435.04C560.208 435.237 579.487 435.725 598.784 435.363C606.187 428.06 611.065 429.888 619.532 426.436C623.983 424.621 625.651 422.128 627.437 417.917C622.888 416.247 618.618 413.57 613.918 412.338C613.676 412.275 613.431 412.224 613.189 412.163C610.721 411.544 608.422 412.431 605.995 412.928C604.416 413.252 603.672 413.176 602.344 412.284C602.355 410.824 603.011 410.518 603.968 409.459C600.259 406.111 583.669 401.128 578.215 399.107C576.47 400.789 574.49 403.057 572.384 404.235C571.116 404.943 570.133 405.456 568.719 405.12L568.697 404.072C570.479 400.313 573.28 398.325 576.452 395.779ZM425.487 437.982Q425.094 508.253 425.51 578.524C442.961 579.054 460.481 578.538 477.944 578.535L580.026 578.631C591.427 578.65 652.221 580.206 657.49 578.512C659.486 576.626 659.271 572.477 659.345 569.824C659.67 558.121 659.43 546.348 659.336 534.64C659.298 529.912 658.843 524.919 659.215 520.228L661.948 520.306C661.783 516.865 661.81 513.528 662.011 510.089L661.035 510.101C658.963 506.747 661.268 500.707 659.21 497.136C659.153 484.295 661.558 449.621 656.411 439.84C653.046 438.645 649.919 438.409 646.372 438.273C638.193 437.958 629.945 438.42 621.755 438.445L567.267 438.401L478.611 438.058C460.932 437.993 443.157 437.566 425.487 437.982ZM130.826 484.327C138.011 490.709 146.066 496.281 153.789 502.007C169.591 513.722 185.621 525.04 201.13 537.156C245.631 532.512 320.182 530.37 356.838 560.004C362.945 564.942 368.044 570.85 368.849 578.945C369.62 586.683 368.555 594.56 368.476 602.32C368.3 619.557 368.141 636.906 368.519 654.139C373.867 651.867 379.174 649.571 384.839 648.192C390.479 650.375 396.333 652.385 401.819 654.922C416.485 640.83 430.575 631.511 448.973 622.947C434.321 602.477 418.034 583.678 401.923 564.387C377.083 534.643 351.661 504.695 324.447 477.081C312.825 480.578 245.174 494.538 240.766 499.721L240.677 500.465C240.382 502.779 240.341 504.075 238.371 505.518C235.567 507.572 231.475 508.723 228.035 507.951C226.358 507.575 225.083 506.734 224.091 505.331C222.998 503.784 222.947 501.521 223.395 499.753C224.002 497.355 225.706 495.202 227.919 494.092C230.071 493.012 233.07 492.819 235.293 493.807C236.152 494.189 236.918 494.761 237.701 495.27C237.939 495.425 238.182 495.572 238.421 495.725L238.85 496.003Q269.56 486.229 301.029 479.277C307.863 477.742 314.858 475.786 321.776 474.757C321.712 472.944 315.76 467.411 314.358 465.438C306.188 456.8 298.487 447.24 289.569 439.385C256.981 449.126 224.537 459.389 191.726 468.368Q173.052 473.424 154.301 478.187C146.49 480.156 138.484 481.821 130.826 484.327ZM820.653 535.704C803.998 537.504 775.972 540.401 764.638 554.128C761.052 558.471 760.311 562.853 759.842 568.253C768.507 581.352 784.026 586.148 798.727 589.183C811.982 591.918 825.13 592.713 838.645 592.386C856.422 591.443 882.088 588.356 894.743 574.228C897.106 571.588 898.573 568.437 898.291 564.842C897.914 560.027 894.752 556.08 891.137 553.14C875.455 540.379 840.859 533.31 821.136 535.62C820.974 535.639 820.814 535.676 820.653 535.704ZM669.819 298.303C665.15 304.47 655.056 314.882 652.704 321.819L651.113 323.352L650.572 323.638C646.337 327.048 641.153 329.243 636.251 331.513C631.748 333.244 620.012 336.786 617.627 341.218C617.539 341.381 617.485 341.56 617.414 341.731C617.984 342.871 618.255 342.791 619.34 343.363L619.092 345.226C632.677 350.394 647.114 355.371 661.347 358.355C661.341 369.051 660.963 379.907 661.374 390.585C666.664 388.24 671.639 385.235 676.974 382.922C685.355 385.878 692.817 391.177 700.278 395.891C702.732 394.92 705.592 394.023 707.787 392.558C709.072 391.701 709.571 390.836 709.84 389.334C709.893 389.042 709.934 388.747 709.981 388.454L710.773 388.026C711.669 382.799 711.198 376.975 711.168 371.671Q711.065 359.412 711.168 347.153C715.829 349.143 720.665 350.706 725.456 352.35L725.281 350.634C725.869 346.841 726.242 318.596 724.827 316.652C718.186 314.765 711.663 312.217 705.124 309.989L669.819 298.303ZM721.339 480.938C706.146 491.04 691.364 501.959 676.663 512.762C685.493 514.765 698.586 520.775 707.595 524.181C726.457 531.312 746.342 537.773 764.556 546.38C775.136 540.997 785.075 536.624 796.607 533.562C815.102 529.881 835.068 528.454 853.628 532.772C842.613 527.323 729.469 481.122 721.339 480.938ZM615.529 343.475C604.641 352.454 594.163 361.86 583.179 370.739C579.678 374.962 581.859 388.689 582.002 394.076Q592.354 397.928 602.621 402.002L612.795 405.834C619.58 404.51 626.444 403.234 633.109 401.39C638.603 399.87 643.942 397.854 649.394 396.198C653.359 394.251 657.312 392.326 661.374 390.585C660.963 379.907 661.341 369.051 661.347 358.355C647.114 355.371 632.677 350.394 619.092 345.226L615.529 343.475ZM746.5 461.953C739.216 467.272 732.008 472.76 724.586 477.881C761.691 490.886 797.903 505.732 834.452 520.165C842.399 523.304 849.868 527.821 857.855 530.726C865.004 524.458 872.555 518.315 879.211 511.531Q844.414 499.53 810.256 485.817C801.074 482.23 753.592 462.368 746.5 461.953ZM898.439 574.944C880.573 592.734 855.161 596.616 830.849 596.564C806.379 596.511 779.417 592.353 760.027 576.451C759.871 581.908 758.996 588.607 760.641 593.838C779.373 611.81 810.513 614.149 835.3 613.618C852.079 613.259 875.621 610.097 889.895 600.662C893.18 598.491 896.292 595.396 899.003 592.541L899.308 592.216C899.466 587.049 900.467 580.15 898.764 575.259L898.439 574.944ZM898.567 618.012C873.606 637.668 839.167 639.984 808.588 636.266C791.134 634.144 774.132 628.562 759.803 618.186C759.743 621.796 758.57 632.305 760.844 634.897C776.127 650.811 804.577 654.085 825.68 654.502C846.8 654.918 879.613 652.948 895.479 637.492C896.629 636.372 897.7 635.148 898.771 633.953C898.968 631.317 900.253 619.991 898.567 618.012ZM898.786 637.964C894.46 641.614 890.215 644.972 885.167 647.599C864.546 658.33 836.748 659.228 813.874 657.316C793.969 655.652 775.175 651.104 759.629 638.042C759.52 643.318 758.519 650.599 760.568 655.492C767.114 660.408 773.691 664.595 781.316 667.676C802.77 676.346 831.531 676.735 854.287 673.502C871.572 671.046 888.024 666.283 899.434 652.362C899.508 648.429 900.461 641.466 898.786 637.964ZM898.904 597.024C874.827 616.789 841.612 619.142 811.721 616.18C793.767 614.4 774.213 609.87 759.995 598.108C759.861 603.018 758.83 610.087 760.745 614.609C783.633 633.73 818.553 635.807 847.238 633.3C864.063 631.829 886.381 627.734 897.891 614.198Q898.473 613.512 899.022 612.799C899.038 607.54 899.093 602.28 898.904 597.024ZM899.423 658.03C893.945 662.128 888.564 665.997 882.339 668.925C859.25 679.784 829.643 680.289 804.634 676.679C788.334 674.326 772.166 670.023 759.517 658.852C759.475 664.1 759.04 669.381 760.875 674.391C775.519 690.346 802.458 694.019 823.114 694.891C844.135 695.777 877.132 693.971 893.254 679.373C897.222 675.779 899.374 671.895 899.681 666.504C899.84 663.714 899.636 660.812 899.423 658.03ZM631.479 418.479C623.757 432.095 615.56 427.732 604.506 435.429Q619.334 435.524 634.162 435.412C639.761 435.376 645.767 434.899 651.316 435.604C653.873 435.929 657.415 436.467 659.36 438.35C663.237 442.103 662.506 450.006 662.454 454.936C680.731 461.154 698.499 468.659 716.671 475.164C719.243 475.983 720.35 476.185 722.838 474.899C729.562 471.423 736.947 465.221 742.371 459.948C728.164 453.546 712.672 448.665 698.005 443.317Q664.649 431.148 631.479 418.479ZM662.492 458.125Q662.542 482.413 662.109 506.698L673.682 511.052Q685.89 502.087 698.25 493.332L717.471 479.041C699.07 472.393 680.492 465.796 662.492 458.125ZM649.051 400.325C649.09 406.491 649.05 412.668 649.289 418.83Q655.234 420.653 661.013 422.951Q661.171 408.564 661.048 394.176C657.1 395.982 652.521 397.702 649.051 400.325ZM231.27 495.872C228.732 497.582 227.022 498.654 226.092 501.636C226.261 502.823 226.24 503.317 227.314 504.065C228.857 505.141 230.801 504.68 232.534 504.456C234.092 504.025 235.155 503.766 236.334 502.572C236.792 501.316 237.142 500.617 236.626 499.266C236.071 497.811 234.486 496.538 233.004 496.161C232.438 496.018 231.849 495.935 231.27 495.872ZM904.37 614.809Q903.753 590.037 904.406 565.267L903.492 564.794C902.755 565.439 902.788 565.739 902.692 566.69C902.321 570.361 902.93 574.545 902.952 578.292C903.003 587.355 901.341 606.947 904.37 614.809ZM662.011 510.089C661.81 513.528 661.783 516.865 661.948 520.306C664.973 518.45 667.655 515.826 670.335 513.499Q666.144 511.865 662.011 510.089ZM314.358 465.438C315.76 467.411 321.712 472.944 321.776 474.757C322.358 475.431 322.867 475.939 323.604 476.442C324.855 476.091 324.965 475.868 325.836 474.875C326.805 474.625 326.365 474.899 326.998 473.844L326.571 473.915C324.409 473.481 320.398 467.729 318.878 465.931L318.311 467.272L317.544 467.351L315.65 465.423L314.358 465.438ZM719.121 776.091C721.395 763.99 720.065 750.04 719.936 737.726C718.733 742.376 717.864 772.114 719.121 776.091Z"/>
	<path fill="#E12726" d="M623.545 407.696C625.288 407.525 627.438 407.032 629.081 407.733C629.581 408.976 629.305 409.199 628.881 410.492L627.886 410.96C625.832 410.41 623.84 409.934 621.937 408.959L621.834 408.283L623.545 407.696Z"/>
	<path d="M719.121 776.091C717.864 772.114 718.733 742.376 719.936 737.726C720.065 750.04 721.395 763.99 719.121 776.091Z"/>
	<path d="M314.358 465.438L315.65 465.423L317.544 467.351L318.311 467.272L318.878 465.931C320.398 467.729 324.409 473.481 326.571 473.915L326.998 473.844C326.365 474.899 326.805 474.625 325.836 474.875C324.965 475.868 324.855 476.091 323.604 476.442C322.867 475.939 322.358 475.431 321.776 474.757C321.712 472.944 315.76 467.411 314.358 465.438Z"/>
	<path d="M904.37 614.809C901.341 606.947 903.003 587.355 902.952 578.292C902.93 574.545 902.321 570.361 902.692 566.69C902.788 565.739 902.755 565.439 903.492 564.794L904.406 565.267Q903.753 590.038 904.37 614.809Z"/>
	<path fill="#14BCAB" d="M328.293 624.928L329.442 625.066C330.977 627.245 330.051 633.68 329.945 636.46L326.198 633.477L319.599 628.504L328.293 624.928Z"/>
	<path fill="#14BCAB" d="M346.99 653.209C350.429 655.321 353.665 658.028 356.917 660.432L352.446 663.06L346.849 666.417C346.667 662.008 346.845 657.616 346.99 653.209Z"/>
	<path fill="#E12726" d="M649.051 400.325C649.09 406.491 649.05 412.668 649.289 418.83C642.958 416.143 636.473 413.943 629.973 411.708C630.711 409.876 631.689 408.113 632.575 406.348C637.917 403.964 643.672 402.648 649.051 400.325Z"/>
	<path fill="#14BCAB" d="M343.223 617.934L344.022 618.232C345.736 623.112 344.506 640.741 344.414 646.882L338.759 642.653L332.5 638.511L332.497 623.467C336.195 621.83 339.692 619.901 343.223 617.934Z"/>
	<path fill="#14BCAB" d="M332.801 642.441L344.596 651.232C344.461 656.733 344.536 662.261 344.517 667.765L339.918 670.423L332.555 674.703C332.492 664.162 331.64 652.875 332.801 642.441Z"/>
	<path fill="#14BCAB" d="M364.289 600.356C366.018 602.819 365.051 648.978 365.056 656.005L360.18 658.661C358.28 653.826 359.53 614.505 359.561 606.307C361.201 604.381 362.726 602.346 364.289 600.356Z"/>
	<path fill="#14BCAB" d="M355.817 609.367L356.281 609.813C358.265 617.168 356.911 646.535 356.732 656.107L351.272 652.081L346.947 648.999Q347.094 632.564 346.735 616.133C349.938 614.156 352.86 611.692 355.817 609.367Z"/>
	<path fill="#FED561" d="M384.062 652.01C389.525 653.26 394.333 655.555 399.338 658.029C395.731 664.167 392.619 670.187 390.181 676.907L383.775 672.889C377.254 668.977 370.885 664.753 364.46 660.681C370.838 657.397 377.41 654.672 384.062 652.01Z"/>
	<path fill="#F2A711" d="M393.107 699.737C396.343 701.968 399.048 707.023 401.584 710.182C401.315 729.192 401.87 748.206 401.547 767.205C401.197 766.902 400.979 766.739 400.687 766.404C389.998 754.104 392.753 716.366 393.107 699.737Z"/>
	<path fill="#14BCAB" d="M317.743 631.312C322.001 634.147 325.983 637.411 330.016 640.554L330.156 675.973L325.609 678.872L317.905 683.625C316.937 666.307 317.548 648.652 317.743 631.312Z"/>
	<path fill="#14BCAB" d="M313.073 630.583L314.02 630.629C315.926 633.125 315.076 678.22 315.111 685.047L304.208 691.777L303.285 692.05C301.457 689.288 302.546 640.37 302.582 633.292L313.073 630.583Z"/>
	<path fill="#14BCAB" d="M297.194 634.644C298.356 634.46 298.648 634.355 299.723 634.783C300.604 639.992 300.125 645.823 300.125 651.129C300.126 665.268 299.276 679.883 300.293 693.96C296.693 696.332 292.93 698.465 289.217 700.655C288.457 701.015 288.218 701.065 287.417 701.111C285.597 697.661 286.68 645.058 286.737 636.207C290.257 635.865 293.713 635.255 297.194 634.644Z"/>
	<path fill="#14BCAB" d="M281.799 637.234C282.459 637.077 282.796 637.191 283.449 637.329C283.927 638.186 284.028 638.708 284.083 639.696C284.514 647.499 284.033 655.503 284.005 663.333Q283.856 683.552 284.526 703.76L273.023 710.1C272.454 710.332 272.851 710.208 271.781 710.229C269.704 704.768 270.927 647.834 270.999 638.19L281.799 637.234Z"/>
	<path fill="#14BCAB" d="M265.033 638.727C266.028 638.667 266.932 638.746 267.921 638.863C269.864 642.588 268.559 703.783 268.519 712.775L257.715 719.211C256.638 719.744 256.542 719.994 255.306 719.815C253.521 712.086 255.131 700.425 255.179 692.26L254.997 639.017L265.033 638.727Z"/>
	<path fill="#14BCAB" d="M122.507 602.393C125.465 605.17 128.191 608.273 130.985 611.219Q130.503 678.766 131.504 746.304Q131.046 745.886 130.604 745.451C127.125 742.007 123.797 737.009 122.893 732.181C120.552 719.675 122.507 705.515 122.519 692.79L122.507 602.393Z"/>
	<path fill="#14BCAB" d="M239.004 639.499L251.962 639.233C253.574 666.904 252.603 694.895 252.52 722.612L247.732 725.121L239.456 729.742C237.944 719.407 238.965 708.507 238.985 698.068L239.004 639.499Z"/>
	<path fill="#14BCAB" d="M222.505 639.021C227.088 639.105 231.681 639.351 236.263 639.519L236.524 731.541L230.872 734.51C228.313 736.168 225.656 737.701 223.047 739.28L222.505 639.021Z"/>
	<path fill="#14BCAB" d="M133.71 613.813C137.39 615.836 140.935 618.225 144.508 620.437L144.257 754.371C140.648 753.517 136.769 750.08 133.755 747.893L133.71 613.813Z"/>
	<path fill="#14BCAB" d="M146.72 621.734L157.987 626.742L157.991 760.948L146.507 755.965L146.72 621.734Z"/>
	<path fill="#14BCAB" d="M206.669 637.403C211.062 638.219 215.549 638.648 219.983 639.191L220.516 740.742L211.98 745.283L211.799 763.589C211.911 765.565 212.398 768.205 211.242 769.925C210.5 771.031 209.772 771.26 208.542 771.553L207.721 770.963C205.699 760.235 206.627 741.083 206.57 729.523L206.669 637.403Z"/>
	<path fill="#14BCAB" d="M160.499 627.296C164.173 628.879 168.205 629.969 172.006 631.241L172.004 714.704C172.026 731.649 172.509 748.568 171.732 765.503Q166.049 763.442 160.27 761.667C159.846 742.314 160.235 722.986 160.344 703.634L160.499 627.296Z"/>
	<path fill="#14BCAB" d="M174.766 631.669L187.986 634.785L187.769 722.25C187.758 737.746 188.253 753.25 187.774 768.742C183.335 767.947 178.907 766.765 174.506 765.764C174.537 721.103 173.901 676.315 174.766 631.669Z"/>
	<path fill="#14BCAB" d="M190.708 635.308Q197.351 636.191 203.975 637.202C204.054 681.863 203.658 726.57 204.314 771.224C199.781 770.541 195.253 769.819 190.691 769.351L190.708 635.308Z"/>
	<path fill="#262C6A" d="M661.048 394.176C666.317 391.8 671.416 388.55 676.39 385.602C684.447 389.799 691.9 394.677 700.263 398.354C704.328 396.859 708.033 394.724 711.692 392.432Q711.271 417.196 711.622 441.961C707.074 439.741 702.095 438.086 697.374 436.253C685.33 431.575 673.155 427.358 661.013 422.951Q661.171 408.564 661.048 394.176Z"/>
	<path fill="#14BCAB" d="M405.204 718.392C409.494 722.281 412.81 727.366 417.007 731.416C429.28 743.258 444.228 751.601 459.326 759.247C458.809 777.438 459.294 795.738 459.176 813.944C459.008 813.955 458.84 813.985 458.672 813.975C455.852 813.81 451.818 811.204 449.364 809.884C432.46 800.8 417.047 788.998 405.501 773.556Q405.575 745.973 405.204 718.392Z"/>
	<path fill="#E12726" d="M615.529 343.475L619.092 345.226C632.677 350.394 647.114 355.371 661.347 358.355C661.341 369.051 660.963 379.907 661.374 390.585C657.312 392.326 653.359 394.251 649.394 396.198C643.942 397.854 638.603 399.87 633.109 401.39C626.444 403.234 619.58 404.51 612.795 405.834L602.621 402.002Q592.354 397.928 582.002 394.076C581.859 388.689 579.678 374.962 583.179 370.739C594.163 361.86 604.641 352.454 615.529 343.475ZM615.529 343.475C604.641 352.454 594.163 361.86 583.179 370.739C579.678 374.962 581.859 388.689 582.002 394.076Q592.354 397.928 602.621 402.002L602.888 358.369L649.422 358.575C649.657 371.098 649.333 383.667 649.394 396.198C653.359 394.251 657.312 392.326 661.374 390.585C660.963 379.907 661.341 369.051 661.347 358.355C647.114 355.371 632.677 350.394 619.092 345.226L615.529 343.475Z"/>
	<path fill="#14BCAB" d="M540.492 608.73C558.796 608.24 576.526 609.13 594.532 612.617C585.692 637.53 579.434 663.408 569.957 688.065Q563.861 681.842 557.567 675.82C535.757 654.905 512.984 635.093 491.259 614.076C507.611 610.664 523.829 609.426 540.492 608.73Z"/>
	<path fill="#14BCAB" d="M566.112 695.72L566.65 695.914C563.502 699.979 473.96 749.599 461.709 756.532Q452.756 752.168 444.243 747Q435.729 741.832 427.726 735.903C418.631 728.764 411.781 720.805 405.487 711.193C459.081 706.76 512.52 700.298 566.112 695.72Z"/>
	<path fill="#262C6A" d="M669.819 298.303L705.124 309.989C711.663 312.217 718.186 314.765 724.827 316.652C726.242 318.596 725.869 346.841 725.281 350.634L725.456 352.35C720.665 350.706 715.829 349.143 711.168 347.153Q711.065 359.412 711.168 371.671C711.198 376.975 711.669 382.799 710.773 388.026L709.981 388.454C709.934 388.747 709.893 389.042 709.84 389.334C709.571 390.836 709.072 391.701 707.787 392.558C705.592 394.023 702.732 394.92 700.278 395.891C692.817 391.177 685.355 385.878 676.974 382.922C671.639 385.235 666.664 388.24 661.374 390.585C660.963 379.907 661.341 369.051 661.347 358.355C647.114 355.371 632.677 350.394 619.092 345.226L619.34 343.363C618.255 342.791 617.984 342.871 617.414 341.731C617.485 341.56 617.539 341.381 617.627 341.218C620.012 336.786 631.748 333.244 636.251 331.513C641.153 329.243 646.337 327.048 650.572 323.638L651.113 323.352L652.704 321.819C655.056 314.882 665.15 304.47 669.819 298.303ZM669.819 298.303C665.15 304.47 655.056 314.882 652.704 321.819C652.844 321.848 652.985 321.875 653.124 321.906C660.458 323.536 667.31 327.595 674.608 329.541C686.344 332.671 699.241 330.344 711.243 330.512Q711.195 338.1 711.063 345.688C715.608 347.153 721.1 348.384 725.281 350.634C725.869 346.841 726.242 318.596 724.827 316.652C718.186 314.765 711.663 312.217 705.124 309.989L669.819 298.303ZM651.113 323.352L650.572 323.638C646.337 327.048 641.153 329.243 636.251 331.513C631.748 333.244 620.012 336.786 617.627 341.218C617.539 341.381 617.485 341.56 617.414 341.731C617.984 342.871 618.255 342.791 619.34 343.363C624.989 344.213 637.067 349.373 643.261 351.407C649.135 353.336 655.474 354.556 661.144 356.976L661.152 330.54L671.096 330.479C664.52 327.888 657.793 325.661 651.113 323.352Z"/>
	<path d="M774.711 547.761C776.478 547.386 778.54 547.004 780.208 547.848C780.888 548.642 781.152 549.061 781.375 550.112C781.844 552.323 782.153 553.389 783.713 555.086C783.85 555.236 783.995 555.379 784.135 555.525L773.875 555.449L771.105 555.406L771 554.945C772.706 552.806 777.774 550.725 780.227 549.188C778.874 549.121 777.547 549.051 776.214 548.786C774.952 548.535 775.443 548.846 774.711 547.761Z"/>
	<path fill="#FEFEFE" d="M397.651 185.039C403.328 185.738 409.255 190.451 413.962 193.534C395.301 198.058 376.865 203.688 358.376 208.877Q314.21 221.352 269.799 232.925C224.266 244.748 178.117 253.804 133.123 267.755C129.582 268.853 125.623 269.962 123.252 273.024C120.52 276.552 119.544 281.252 119.084 285.6C116.684 308.267 118.628 331.749 118.354 354.53L117.543 420.348C117.336 438.044 116.502 455.805 118.931 473.384C118.937 473.795 118.802 474.252 118.724 474.657C118.567 474.686 118.413 474.736 118.255 474.744C114.787 474.904 108.671 469.685 106.006 467.649C101.908 451.578 103.417 422.506 103.163 405.135Q102.554 368.693 102.843 332.247C102.866 315.186 102.481 297.896 103.918 280.884C104.376 275.458 105.06 270.316 107.426 265.368C116.64 260.111 146.377 253.763 158.425 250.548L299.57 213.967C332.623 205.388 365.036 195.113 397.651 185.039Z"/>
	<path fill="#14BCAB" d="M241.663 537.276C271.033 535.856 303.784 540.192 331.506 550.098C343.572 554.41 359.025 562.136 364.563 574.532C367.29 580.636 366.868 587.34 364.399 593.442C358.229 608.69 339.425 616.603 325.313 622.511L316.41 626.302C311.851 622.302 306.814 618.704 302.023 614.97Q284.45 601.286 266.592 587.975C245.636 572.053 225.145 555.458 203.702 540.186C216.395 539.306 228.91 537.715 241.663 537.276Z"/>
	<path fill="#5761F0" d="M599.033 636.363C604.998 637.65 611.335 638.065 617.384 639.077C636.164 642.218 654.777 646.914 671.86 655.534C689.808 664.589 708.559 677.989 714.994 698.007C719.457 711.892 715.564 721.261 709.22 733.534L697.879 730.216Q660.045 719.649 622.362 708.551C606.651 703.889 591.095 698.693 575.22 694.594C584.039 675.54 591.391 655.909 599.033 636.363Z"/>
	<path fill="#F2A711" d="M360.439 662.419C369.921 668.787 379.832 674.666 389.502 680.754L389.36 741.686C345.402 754.334 299.619 754.619 254.378 750.373C243.074 749.418 232.268 746.83 221.183 744.598C226.294 742.054 231.22 738.836 236.147 735.936L264.042 719.516L360.439 662.419Z"/>
	<path fill="#F2A711" d="M485.763 615.073L486.185 615.049C489.206 616.172 551.588 674.581 557.832 680.646C561.497 684.206 564.911 687.923 568.24 691.797C535.767 694.662 503.323 698.395 470.881 701.64C462.007 702.855 453.026 703.354 444.106 704.158Q424.182 705.942 404.304 708.184C399.783 703.626 396.309 698.352 394.753 692.064C392.255 681.968 395.097 671.639 400.41 662.942C417.019 635.749 456.213 622.372 485.763 615.073Z"/>
	<path fill="#F2A711" d="M215.314 746.459C257.86 755.743 300.379 759.229 343.746 753.924C358.891 752.072 373.85 749.13 388.817 746.221C391.776 751.172 392.623 756.98 394.803 762.263C399.063 772.591 406.844 781.468 413.956 789.937C410.909 791.607 407.84 793.011 404.631 794.342C345.432 817.681 276.001 817.434 215.027 801.807Q214.915 774.131 215.314 746.459Z"/>
	<path fill="#14BCAB" d="M198.439 541.146C199.71 541.045 200.354 541.515 201.371 542.22C213.005 550.273 223.935 559.744 235.218 568.328L312.48 627.001C287.761 633.965 262.781 635.33 237.233 635.961C205.786 635.775 170.649 631.534 143.046 615.406C134.6 610.471 125.466 603.114 123.092 593.155C121.454 586.28 123.322 578.817 127.116 572.965C140.046 553.026 176.417 545.794 198.439 541.146Z"/>
	<path fill="#E12726" d="M573.116 697.469L573.495 697.615C579.76 700.07 586.379 701.624 592.847 703.459L622.912 712.105C650.775 720.23 678.624 729.198 706.723 736.419C702.096 741.243 697.433 745.862 692.009 749.806C665.544 769.051 630.287 775.146 598.378 777.619Q594.164 777.996 589.941 778.25Q585.718 778.504 581.489 778.636Q577.26 778.768 573.03 778.777Q568.799 778.786 564.57 778.673Q560.341 778.559 556.116 778.323Q551.892 778.087 547.677 777.729Q543.461 777.371 539.258 776.891Q535.054 776.41 530.867 775.809Q526.679 775.207 522.51 774.484Q518.342 773.761 514.196 772.917Q510.05 772.074 505.931 771.111Q501.811 770.147 497.721 769.065Q493.631 767.983 489.574 766.783Q485.517 765.582 481.497 764.265Q477.476 762.948 473.496 761.514Q469.515 760.081 465.578 758.533Q519.122 727.603 573.116 697.469Z"/>
	<path fill="#FEFEFE" d="M123.63 436.006C123.413 427.775 123.797 419.518 123.919 411.284L124.474 363.5L124.489 315.65C124.446 306.258 124.064 296.769 124.499 287.391C124.629 284.592 124.903 279.423 126.56 277.159C128.096 275.059 131.336 273.824 133.72 273.04C144.167 269.603 155.722 267.592 166.434 264.954L238.435 247.287Q300.885 231.924 362.784 214.475L402.958 203.157C408.119 201.687 413.802 199.035 419.139 198.619C420.741 198.494 421.646 198.72 422.879 199.728C423.365 201.211 423.54 202.517 423.577 204.079C423.776 212.314 422.84 220.75 422.544 229.001L420.802 285.233C420.301 303.054 420.177 320.896 419.869 338.722C414.461 340.194 406.008 341.245 401.531 344.51C400.393 345.34 399.653 346.128 399.434 347.524C401.91 348.65 413.609 343.85 418.028 343.901C418.573 344.619 418.577 344.462 418.78 345.184C420.57 351.554 419.776 385.355 416.633 391.107C412.5 398.671 402.356 399.492 394.889 401.793C392.828 389.782 392.235 377.459 390.436 365.381C385.205 330.248 373.168 275.2 342.415 253.697C332.22 246.569 320.538 243.938 308.268 246.15C287.831 249.834 270.024 266.933 258.733 283.497C250.11 296.146 243.602 309.985 237.445 323.958C233.749 332.348 230.491 341.703 225.263 349.248C222.657 353.009 219.499 356.573 214.86 357.582C209.769 358.688 205.108 356.928 200.921 354.091C189.718 346.501 183.411 334.346 169.32 331.207C156.483 336.121 150.567 347.719 145.218 359.67C138.219 375.309 133.4 391.743 129.369 408.363C127.561 415.816 126.865 430.058 123.63 436.006Z"/>
	<path d="M417.553 322.148C418.414 322.664 418.701 322.951 419.131 323.859L418.634 324.848C412.806 328.759 403.079 330.263 396.279 332.319C395.178 332.038 395.357 332.044 394.692 331.25L394.878 330.399C398.696 325.754 411.632 323.323 417.553 322.148Z"/>
	<path d="M414.647 305.579C415.729 305.395 416.66 305.402 417.754 305.469C418.604 306.291 418.721 306.085 418.791 307.346C415.713 311.068 400.431 313.546 395.298 314.853C394.388 315.06 393.579 315.159 392.646 315.185L391.514 314.058L391.628 313.092C395.526 309.081 409.097 306.914 414.647 305.579Z"/>
	<path d="M415.801 288.083C416.785 288.137 417.259 288.43 418.083 288.951L418.232 289.774C413.648 294.022 397.291 296.578 390.641 298.432L389.498 298.598C388.402 298.127 388.257 298.11 387.63 297.113L388.092 296.218C394.051 291.836 408.238 289.823 415.801 288.083Z"/>
	<path d="M414.193 272.13L415.203 272.184C415.851 273.055 415.853 273.077 415.832 274.163C413.492 276.952 391.556 281.85 386.712 283.147C386.089 283.266 385.666 283.047 385.071 282.867C384.971 281.603 384.904 281.372 385.715 280.312C388.46 276.723 409.007 273.055 414.193 272.13Z"/>
	<path d="M412.738 255.592C414.006 255.523 413.944 255.646 414.977 256.235C415.212 256.952 415.505 257.16 415.07 257.872C414.348 259.054 413.121 259.542 411.878 260.006C407.966 261.466 403.605 261.958 399.525 262.844C394.676 263.897 390.006 265.258 385.301 266.81C384.235 266.947 383.38 266.863 382.309 266.785L382.003 266.149C386.446 260.135 405.054 257.367 412.738 255.592Z"/>
	<path d="M413.191 238.564L414.024 238.584C415.121 239.289 415.381 239.21 415.878 240.475C413.788 243.733 387.747 249.538 382.155 251.477C380.616 251.352 380.524 251.251 379.322 250.263L379.437 249.273C385.075 243.846 404.777 240.657 413.191 238.564Z"/>
	<path d="M413.434 221.555C413.622 221.569 413.82 221.536 413.999 221.597C415.14 221.983 415.386 222.698 415.884 223.678C415.821 223.804 415.774 223.94 415.694 224.056C413.13 227.747 385.628 233.482 379.119 235.148L378.156 235.186C377.137 234.588 377.073 234.639 376.691 233.535C377.477 232.277 378.201 231.849 379.557 231.244C384.635 228.977 390.806 228.18 396.193 226.785C402.005 225.28 407.717 223.381 413.434 221.555Z"/>
	<path d="M194.331 290.058L195.502 289.882C196.704 290.374 196.762 290.272 197.297 291.435C196.374 292.737 195.595 292.982 194.117 293.514C186.708 296.18 178.976 297.667 171.446 299.92C161.381 302.932 151.472 306.729 141.664 310.485L140.5 310.827C139.392 310.45 139.386 310.365 138.722 309.386L139.125 308.321C146.08 301.82 183.266 292.734 194.331 290.058Z"/>
	<path d="M198.669 272.112C199.033 272.192 200.039 272.772 200.388 272.947L200.479 273.632C199.453 274.767 198.425 275.288 197.02 275.882C191.132 278.374 184.658 279.883 178.569 281.874Q160.592 287.711 142.774 294.015L141.417 293.295L141.135 292.324C145.311 286.396 190.027 273.965 198.669 272.112Z"/>
	<path d="M659.21 497.136C661.268 500.707 658.963 506.747 661.035 510.101L662.011 510.089C661.81 513.528 661.783 516.865 661.948 520.306L659.215 520.228C659.535 512.569 659.246 504.806 659.21 497.136Z"/>
	<path fill="#FED561" d="M648.422 448.82C649.399 452.405 648.54 474.913 648.529 480.111L648.494 570.177Q540.177 569.637 431.861 570.475C431.116 555.131 431.821 539.509 431.89 524.139L432.014 449.55L648.422 448.82Z"/>
	<path d="M521.897 462.744C536.848 462.533 552.461 462.291 567.352 463.693C568.259 464.279 568.281 464.324 568.668 465.335L568.141 466.074C563.825 468.049 534.653 466.976 527.75 467.004Q512.954 466.942 498.161 467.21C493.451 467.272 488.159 467.813 483.535 467.279C482.322 467.139 482.065 466.836 481.163 466.065C480.896 464.686 480.888 464.761 481.628 463.567C484.47 462.154 516.526 462.783 521.897 462.744Z"/>
	<path d="M567.376 475.239C571.176 475.24 575.205 475.026 578.969 475.505C580.89 475.75 581.372 476.24 582.503 477.781L582.343 478.827C581.174 479.685 580.017 479.87 578.604 479.991C568.79 480.826 558.681 480.097 548.827 480.041L497.25 480.005C492.649 479.997 486.952 480.685 482.518 479.956C481.452 479.781 481.421 479.648 480.864 478.802C480.956 478.078 480.865 477.525 481.388 476.961C482.579 475.676 484.59 475.48 486.245 475.351C493.988 474.745 502.409 475.478 510.231 475.5C529.291 475.554 548.321 475.752 567.376 475.239Z"/>
	<path d="M482.911 552.708C490.632 552.597 498.361 552.958 506.085 552.938L554.063 552.516C567.318 552.497 580.908 551.827 594.125 552.486C596.188 552.589 599.162 552.714 600.6 554.282L600.37 555.522L598.923 556.461C593.857 556.615 588.804 556.328 583.738 556.389Q554.303 556.955 524.862 556.928C510.8 556.981 495.691 558.184 481.774 556.814C480.759 556.1 480.972 556.077 480.69 554.947C481.422 553.477 481.442 553.433 482.911 552.708Z"/>
	<path d="M552.394 527.248C561.048 527.26 618.309 526.611 621.228 529.188L620.949 529.897C619.687 530.697 618.701 531.122 617.21 531.321C609.546 532.343 601.205 531.768 593.455 531.773L550.25 531.756L503.811 531.756C496.627 531.759 488.896 532.382 481.786 531.657L481.179 530.852C481.051 529.628 480.648 528.751 481.412 527.736C489.082 526.678 497.726 527.447 505.494 527.431L552.394 527.248Z"/>
	<path d="M480.796 514.005L598.67 514.081Q609.332 514.212 619.995 514.135C626.164 514.057 633.209 513.389 639.256 514.506C640.469 514.73 640.931 515.003 641.624 515.994L641.037 517.821C636.286 518.626 631.174 518.318 626.357 518.322C616.417 518.331 606.493 518.055 596.558 517.998L517.99 518.022C506.803 518.092 495.382 518.973 484.222 518.57C483.256 518.535 482.579 518.272 481.71 517.878C480.698 516.502 480.882 515.684 480.796 514.005Z"/>
	<path d="M481.205 501.225L589.266 501.507C603.321 501.528 617.555 500.87 631.582 501.245C633.456 501.295 635.791 501.286 637.528 501.973C638.495 502.355 638.57 502.614 638.995 503.493L638.502 504.67C629.312 506.911 606.64 505.496 596.054 505.482L521.871 505.717C516.605 505.739 484.467 506.51 482.013 505.468C480.907 503.95 481.2 503.07 481.205 501.225Z"/>
	<path d="M620.98 488.713C625.418 488.532 629.958 488.298 634.398 488.44C636.451 488.506 639.688 488.741 641.191 490.315L641.085 491.213C639.057 492.745 636.583 493.147 634.09 493.307C629.981 493.571 625.642 493.048 621.508 493.015L593.499 492.99L502.25 493.45C497.564 493.384 484.969 494.546 481.783 492.786C480.981 491.499 481.037 491.203 481.037 489.664C482.038 488.912 483.33 488.912 484.54 488.867C493.377 488.535 502.455 488.996 511.326 488.992L577.464 488.996C592.003 489.02 606.441 489.389 620.98 488.713Z"/>
	<path d="M480.797 539.491L605.041 539.875C611.561 539.934 634.683 538.892 639.362 540.698C640.426 541.109 640.567 541.266 641.033 542.234L640.393 543.667C635.074 544.444 629.723 543.987 624.37 543.86Q614.677 543.647 604.983 543.758C564.679 544.349 524.291 544.194 483.988 544.216C483.079 544.217 482.512 544.038 481.7 543.667C480.569 542.195 480.838 541.314 480.797 539.491Z"/>
	<path fill="#5761F0" d="M436.473 455.998L476.787 456.214C474.964 489.806 476.981 523.684 476.255 557.307C476.19 557.705 475.918 558.041 475.719 558.392C471.201 558.814 466.415 558.521 461.865 558.522L436.489 558.519L436.473 455.998Z"/>
	<path fill="#E12726" d="M169.32 331.207C183.411 334.346 189.718 346.501 200.921 354.091C205.108 356.928 209.769 358.688 214.86 357.582C219.499 356.573 222.657 353.009 225.263 349.248C230.491 341.703 233.749 332.348 237.445 323.958C243.602 309.985 250.11 296.146 258.733 283.497C270.024 266.933 287.831 249.834 308.268 246.15C320.538 243.938 332.22 246.569 342.415 253.697C373.168 275.2 385.205 330.248 390.436 365.381C392.235 377.459 392.828 389.782 394.889 401.793C381.654 407.758 367.655 411.602 353.797 415.812L294.453 433.302C265.139 441.796 236.148 451.275 206.829 459.737C180.885 467.225 154.714 473.715 128.685 480.853C120.586 469.397 123.239 449.551 123.63 436.006C126.865 430.058 127.561 415.816 129.369 408.363C133.4 391.743 138.219 375.309 145.218 359.67C150.567 347.719 156.483 336.121 169.32 331.207Z"/>
</svg>
