<?xml version="1.0" encoding="utf-8" ?>
<svg width="200" height="200" viewBox="-20 70 1000 1000">
	<path d="M124.554 649.343C128.62 649.063 133.259 648.607 136.868 650.921L136.608 652.317L137.307 651.54C137.137 651.705 136.975 651.879 136.796 652.033C134.104 654.356 123.881 653.605 120.496 653.274C115.025 653.111 109.085 654.956 103.633 653.918C102.268 653.658 101.71 653.405 100.91 652.288L101.152 651.441C106.065 647.871 117.92 649.792 124.027 649.382L124.554 649.343Z"/>
	<path fill="#F7DDB2" d="M943.015 547.964C949.748 557.775 953.203 570.747 951.013 582.618Q950.818 583.71 950.542 584.785Q950.266 585.859 949.91 586.91Q949.554 587.961 949.121 588.982Q948.687 590.003 948.178 590.989Q947.67 591.975 947.089 592.92Q946.507 593.865 945.857 594.764Q945.207 595.663 944.491 596.511Q943.775 597.358 942.998 598.15L943.015 547.964Z"/>
	<path d="M126.032 555.702C122.563 556.997 118.702 558 114.988 557.258C112.676 556.797 110.758 555.526 109.514 553.512C107.573 550.368 107.284 545.993 108.34 542.505C109.33 539.238 111.571 536.193 114.675 534.663Q115.113 534.443 115.572 534.268Q116.031 534.094 116.505 533.968Q116.979 533.842 117.464 533.766Q117.949 533.689 118.438 533.663Q118.928 533.637 119.419 533.661Q119.909 533.686 120.393 533.761Q120.878 533.836 121.353 533.96Q121.828 534.084 122.287 534.257C125.581 535.487 129.321 538.623 130.671 541.929C132.152 545.554 130.675 548.941 129.326 552.319Q155.318 581.542 182.52 609.643C189.376 600.608 197.386 592.395 205.118 584.118L236.5 550.618C236.483 550.44 236.472 550.262 236.451 550.085C236.34 549.141 236.174 548.208 236.176 547.253C236.182 544.259 237.244 541.027 239.501 538.98C241.527 537.141 244.276 536.375 246.975 536.516C249.963 536.671 253.019 537.941 254.906 540.322C256.131 541.868 256.695 543.689 256.441 545.657C256.104 548.27 254.259 550.978 252.192 552.555C248.475 555.391 243.44 554.642 239.12 554.113C228.364 565.865 216.593 576.908 206.629 589.351C198.199 596.182 191.023 608.295 182.464 616.39Q179.839 613.797 177.241 611.177C160.677 592.206 142.963 574.337 126.032 555.702ZM118.03 538.404C115.449 539.956 113.403 541.238 112.624 544.312C112.148 546.191 112.317 547.927 113.324 549.609C114.206 551.082 116.333 552.315 118.006 552.561C119.12 552.725 120.315 552.672 121.437 552.606C123.739 551.22 125.64 549.936 126.261 547.165Q126.33 546.862 126.369 546.554Q126.408 546.245 126.416 545.935Q126.425 545.624 126.403 545.314Q126.382 545.004 126.33 544.697Q126.278 544.391 126.197 544.091Q126.116 543.791 126.005 543.5Q125.895 543.21 125.757 542.931Q125.619 542.653 125.455 542.389C123.998 540.074 121.214 538.851 118.592 538.455C118.406 538.427 118.217 538.421 118.03 538.404Z"/>
	<path d="M914.103 450.593Q928.01 450.752 941.913 451.122C942.668 452.036 942.394 452.546 942.386 453.695C942.738 474.673 942.554 495.682 942.579 516.665C942.589 524.795 943.503 538.283 942.426 545.9L943.015 547.964L942.998 598.15C939.168 600.437 933.919 599.938 929.597 600.009Q921.949 600.257 914.297 600.309C912.956 579.703 914.033 558.817 913.962 538.16Q913.625 494.376 914.103 450.593ZM942.426 545.9C943.503 538.283 942.589 524.795 942.579 516.665C942.554 495.682 942.738 474.673 942.386 453.695C940.93 459.321 940.814 543.021 942.02 545.81L942.426 545.9Z"/>
	<path d="M942.426 545.9L942.02 545.81C940.814 543.021 940.93 459.321 942.386 453.695C942.738 474.673 942.554 495.682 942.579 516.665C942.589 524.795 943.503 538.283 942.426 545.9Z"/>
	<path fill="#14BCAB" d="M917.491 536.044C925.584 535.932 932.086 536.312 939.507 540.039Q939.671 568.152 939.536 596.266C932.204 596.565 924.84 596.467 917.502 596.491L917.491 536.044Z"/>
	<path fill="#6EDEAC" d="M917.486 454.3L939.278 454.252L939.507 540.039C932.086 536.312 925.584 535.932 917.491 536.044L917.486 454.3Z"/>
	<path fill="#89CAF2" d="M656.557 880.272Q661.525 880.005 666.498 880.125C680.687 880.41 698.395 880.19 708.808 891.453C712.148 895.065 714.096 899.448 713.74 904.425C713.193 912.082 707.855 918.647 702.177 923.39C678.395 943.253 638.191 944.612 608.487 941.885C591.448 939.725 571.955 935.249 558.594 923.76C554.537 920.272 551.517 915.788 551.281 910.31C551.088 905.819 552.813 901.915 555.836 898.649C571.911 881.282 632.887 880.888 656.557 880.272Z"/>
	<path d="M878.516 488.531C887.677 488.444 896.861 487.976 906.013 487.982L906.02 537.907C908.595 538.401 911.367 538.715 913.962 538.16C914.033 558.817 912.956 579.703 914.297 600.309Q921.949 600.257 929.597 600.009C928.953 602.01 928.116 603.955 928.324 606.084L929.37 606.668C924.056 607.775 917.59 607.113 912.139 607.073Q898.705 606.917 885.271 607.052Q862.033 607.44 838.793 607.589C831.17 607.698 823.26 608.52 815.675 607.784C817.631 605.722 818.085 603.95 818.77 601.274C822.874 601.438 828.776 602.485 832.042 599.343C833.156 598.271 833.71 596.791 833.894 595.28C834.296 591.985 833.527 588.214 833.352 584.888C833.146 580.974 833.291 577.013 833.354 573.095Q833.865 572.844 834.356 572.556C838.927 569.905 840.297 562.521 841.409 557.762C842.595 539.035 842.435 520.171 842.5 501.415Q850.632 500.919 858.776 501.115C861.499 501.183 868.083 500.767 869.975 502.759L871.61 503.778C873.97 503.92 876.179 503.324 878.392 502.542L878.516 488.531Z"/>
	<path fill="#FEFEFE" d="M878.392 502.542C878.782 515.482 878.411 528.43 878.119 541.367C878.001 546.63 878.293 551.995 877.925 557.24C877.412 561.919 877.499 566.668 877.446 571.37C874.745 573.771 873.655 575.933 872.37 579.264C871.705 574.925 871.253 570.559 870.571 566.226C870.141 553.148 870.505 539.998 870.615 526.912C870.682 518.961 871.057 510.65 869.975 502.759L871.61 503.778C873.97 503.92 876.179 503.324 878.392 502.542Z"/>
	<path fill="#F67E71" d="M844.503 503.798Q856.241 503.253 867.981 503.748L867.953 550.231C860.128 550.614 852.18 550.315 844.342 550.26C844.429 544.773 844.552 539.292 844.365 533.806L844.503 503.798Z"/>
	<path fill="#E12726" d="M844.386 597.148C844.102 576.156 843.352 554.765 844.365 533.806C844.552 539.292 844.429 544.773 844.342 550.26C852.18 550.315 860.128 550.614 867.953 550.231L867.661 597.228L844.386 597.148Z"/>
	<path fill="#F7DDB2" d="M906.02 537.907C908.595 538.401 911.367 538.715 913.962 538.16C914.033 558.817 912.956 579.703 914.297 600.309Q921.949 600.257 929.597 600.009C928.953 602.01 928.116 603.955 928.324 606.084L929.37 606.668C924.056 607.775 917.59 607.113 912.139 607.073Q898.705 606.917 885.271 607.052Q862.033 607.44 838.793 607.589C831.17 607.698 823.26 608.52 815.675 607.784C817.631 605.722 818.085 603.95 818.77 601.274C822.874 601.438 828.776 602.485 832.042 599.343C833.156 598.271 833.71 596.791 833.894 595.28C834.296 591.985 833.527 588.214 833.352 584.888C833.146 580.974 833.291 577.013 833.354 573.095Q833.865 572.844 834.356 572.556C838.927 569.905 840.297 562.521 841.409 557.762C841.789 571.986 841.519 586.27 841.498 600.502Q856.001 600.742 870.503 600.498C870.588 589.138 870.084 577.551 870.571 566.226C871.253 570.559 871.705 574.925 872.37 579.264C873.655 575.933 874.745 573.771 877.446 571.37C877.499 566.668 877.412 561.919 877.925 557.24C878.541 571.581 878.045 586.124 878.292 600.501C887.255 600.666 896.238 601.046 905.17 600.103C908.081 583.526 906.359 555.339 906.02 537.907Z"/>
	<path d="M878.516 488.531C887.677 488.444 896.861 487.976 906.013 487.982L906.02 537.907C906.359 555.339 908.081 583.526 905.17 600.103C896.238 601.046 887.255 600.666 878.292 600.501C878.045 586.124 878.541 571.581 877.925 557.24C878.293 551.995 878.001 546.63 878.119 541.367C878.411 528.43 878.782 515.482 878.392 502.542L878.516 488.531Z"/>
	<path fill="#14BCAB" d="M880.499 491.006L902.51 491.013L902.762 596.741C895.436 596.487 888.059 596.659 880.727 596.664L880.499 491.006Z"/>
	<path fill="#5761F0" d="M219.493 140.194C236.323 138.564 257.005 141.51 270.468 152.576C276.745 157.735 280.478 164.674 281.264 172.743C282.334 183.742 277.663 194.018 270.776 202.342C248.053 229.805 210.067 238.066 176.292 241.449C158.622 241.73 138.617 240.87 124.052 229.561C118.317 225.108 114.258 219.061 113.412 211.722C112.238 201.55 116.689 191.961 122.882 184.159C145.197 156.045 185.14 143.999 219.493 140.194Z"/>
	<path fill="#14BCAB" d="M321.414 269.729C314.014 253.343 309.376 235.679 309.833 217.606Q309.863 216.204 309.927 214.803Q309.991 213.402 310.091 212.003Q310.19 210.604 310.324 209.208Q310.458 207.812 310.626 206.42Q310.795 205.027 310.998 203.64Q311.201 202.252 311.438 200.87Q311.676 199.487 311.947 198.112Q312.219 196.736 312.525 195.367Q312.83 193.998 313.17 192.637Q313.51 191.277 313.883 189.925Q314.256 188.573 314.663 187.231Q315.07 185.889 315.51 184.557Q315.95 183.225 316.423 181.905Q316.896 180.585 317.401 179.277Q317.907 177.968 318.445 176.673Q318.983 175.378 319.553 174.097Q320.123 172.815 320.724 171.548Q321.326 170.281 321.958 169.03Q322.591 167.778 323.255 166.543Q323.919 165.307 324.613 164.089Q325.307 162.87 326.031 161.669Q326.755 160.468 327.509 159.285Q328.263 158.103 329.046 156.939Q329.829 155.775 330.641 154.632Q331.452 153.488 332.292 152.365Q333.132 151.241 333.999 150.139Q334.866 149.037 335.761 147.957Q336.655 146.877 337.576 145.819Q338.497 144.762 339.444 143.727Q340.391 142.693 341.364 141.682Q342.336 140.671 343.333 139.685Q344.331 138.699 345.352 137.738C367.827 116.323 396.899 105.906 427.818 106.773C456.579 107.58 486.385 119.804 506.305 140.739C496.464 144.387 487.384 149.748 478.417 155.141C435.041 181.229 406.717 217.632 385.898 263.257C380.496 275.097 376.005 287.872 372.551 300.435C370.871 306.541 370.079 313.503 367.751 319.337C347.344 305.722 337.263 293.49 323.442 273.731C327.671 270.911 331.7 267.28 335.712 264.138C344.446 257.299 353.162 250.538 361.578 243.305C365.398 245.602 369.667 247.709 374.285 247.098C377.413 246.685 379.874 244.932 381.691 242.407C383.757 239.537 384.905 235.866 384.32 232.335C383.708 228.646 381.273 225.102 378.17 223.049C375.456 221.254 372.306 220.774 369.141 221.432C365.727 222.142 362.304 223.963 360.469 227.019C358.115 230.939 358.735 235.369 359.816 239.553C347.184 249.825 334.018 259.431 321.414 269.729Z"/>
	<path fill="#F7DDB2" d="M506.85 140.963C523.187 130.69 542.865 124.8 560.921 118.235C635.481 91.1249 734.287 66.1552 813.223 84.255C845.323 91.6154 875.355 107.679 893.235 136.251C906.99 158.232 913.899 191.117 912.124 216.979L912.467 217.359C917.292 222.635 922.942 227.129 927.533 232.628C948.793 258.093 961.57 291.549 960.276 324.889C958.802 362.881 943.243 398.424 915.135 424.353C898.252 439.928 878.281 448.988 856.089 454.142C851.471 468.421 846.725 483.014 840.628 496.74C839.733 496.178 839.056 495.592 838.258 494.904C837.197 489.996 849.052 461.662 851.623 454.795C844.664 455.267 837.736 456.159 830.762 456.604L830.218 456.603C790.306 456.512 753.676 440.278 725.64 412.086C702.065 388.381 688.956 359.774 686.731 326.358C686.268 319.396 686.478 312.309 686.498 305.33C671.224 326.304 662.7 365.74 662.102 391.492C657.91 393.06 655.566 395.268 653.187 399.007C635.58 398.566 617.939 396.576 600.39 395.092C567.004 392.267 533.421 389.289 499.921 388.366C526.194 375.631 553.789 366.852 581.837 359.032C584.327 363.395 587.126 365.66 591.544 367.843C594.559 367.657 596.859 367.211 599.591 365.892C602.561 364.457 604.7 362.445 605.697 359.241C606.71 355.987 606.429 352.226 604.81 349.214C603.167 346.157 600.307 344.063 597 343.111C594.036 342.259 590.764 342.296 588.049 343.884C584.252 346.105 582.313 350.4 581.284 354.476C564.915 359.541 548.463 363.675 532.385 369.712C526.46 371.937 520.522 374.184 514.769 376.824C508.967 379.486 497.853 386.313 492.187 387.237C483.679 388.623 466.56 385.946 457.294 385.197Q427.188 382.772 397.052 380.77C396.585 378.916 396.09 376.993 395.232 375.276C392.943 370.688 388.563 369.511 384.04 368.154Q383.335 368.388 382.635 368.637C376.904 370.694 374.375 373.478 371.883 378.837C368.687 378.278 365.559 377.686 362.304 377.65C362.789 369.191 362.812 360.697 363.435 352.25C364.245 341.252 365.9 330.553 367.837 319.704L367.751 319.337C370.079 313.503 370.871 306.541 372.551 300.435C376.005 287.872 380.496 275.097 385.898 263.257C406.717 217.632 435.041 181.229 478.417 155.141C487.384 149.748 496.464 144.387 506.305 140.739L506.85 140.963Z"/>
	<path d="M842.925 201.278C849.141 200.991 856.314 200.292 862.463 201.209C863.953 201.431 865.379 201.723 866.305 203.011C866.195 204.277 866.173 204.291 865.306 205.225C861.294 206.382 856.783 206.171 852.625 206.312C844.947 206.371 835.713 206.756 828.407 204.311L828.14 202.935L827.238 203.486L828.204 204.155L828.421 202.784C833.016 201.15 838.111 201.352 842.925 201.278Z"/>
	<path d="M839.632 216.023L840.323 216.116C851.192 217.517 891.015 213.45 897.42 217.842L897.578 218.495C895.582 220.54 891.933 220.813 889.206 220.831C876.358 220.914 863.295 220.732 850.445 220.467C845.705 220.081 831.463 221.773 828.262 218.703C828.365 218.589 828.455 218.463 828.569 218.361C831.369 215.851 836.125 215.991 839.632 216.023Z"/>
	<path d="M872.804 235.526C862.805 235.032 852.688 235.495 842.672 235.511C838.972 235.517 834.539 235.967 830.927 235.231C829.802 235.002 829.186 234.602 828.594 233.622C828.198 232.966 828.288 233.182 828.441 232.446C831.484 229.739 860.19 230.987 865.975 230.983C873.412 231.071 906.506 230.227 911 231.817C911.643 232.961 911.95 232.945 911.643 234.286C908.169 236.63 879.215 235.501 872.804 235.526Z"/>
	<path d="M584.614 252.506C586.335 252.536 587.854 252.747 589.477 253.361C592.766 254.606 595.377 256.744 596.796 260.007C598.147 263.115 598.218 266.806 596.862 269.924C594.918 274.396 591.56 276.325 587.218 277.954C584.761 277.826 582.431 277.448 580.181 276.398C577.332 275.068 575.155 272.773 574.082 269.808Q573.865 269.203 573.71 268.579Q573.555 267.955 573.463 267.319Q573.371 266.683 573.342 266.04Q573.314 265.398 573.35 264.756Q573.387 264.115 573.487 263.48Q573.587 262.845 573.75 262.223Q573.913 261.601 574.137 260.998Q574.362 260.396 574.645 259.819C576.866 255.401 580.191 253.951 584.614 252.506Z"/>
	<path fill="#F7DDB2" d="M582.543 257.432C583.57 257.339 584.61 257.251 585.64 257.331C588.16 257.526 590.64 258.681 592.193 260.714C593.454 262.363 593.884 264.288 593.581 266.33C593.094 269.619 590.954 271.307 588.375 273.109C587.405 273.283 586.41 273.469 585.421 273.462C583.306 273.447 581.123 272.491 579.692 270.929C578.171 269.271 577.608 267.101 577.798 264.891C578.101 261.365 579.922 259.573 582.543 257.432Z"/>
	<path d="M866.462 446.783C892.665 439.888 915.674 421.612 931.068 399.618Q932.044 398.235 932.985 396.827Q933.927 395.42 934.833 393.99Q935.738 392.56 936.608 391.107Q937.478 389.655 938.312 388.181Q939.145 386.708 939.942 385.214Q940.738 383.72 941.497 382.206Q942.256 380.693 942.977 379.161Q943.698 377.629 944.38 376.08Q945.063 374.531 945.706 372.965Q946.35 371.399 946.954 369.817Q947.559 368.236 948.123 366.64Q948.688 365.044 949.213 363.434Q949.738 361.824 950.222 360.202Q950.706 358.58 951.15 356.946Q951.594 355.312 951.997 353.668Q952.4 352.024 952.762 350.37Q953.123 348.716 953.444 347.053Q953.764 345.391 954.043 343.721Q954.322 342.051 954.559 340.375Q954.796 338.699 954.991 337.017Q955.186 335.335 955.34 333.649Q955.493 331.963 955.604 330.274Q955.715 328.584 955.784 326.893Q955.853 325.201 955.879 323.508Q955.906 321.816 955.891 320.123Q955.875 318.43 955.817 316.738Q955.76 315.046 955.66 313.356Q955.56 311.666 955.418 309.979Q955.275 308.291 955.091 306.609Q954.907 304.926 954.681 303.248Q954.455 301.57 954.187 299.898Q953.919 298.227 953.61 296.562C944.476 246.555 904.675 204.346 855.055 192.808C850.179 191.675 832.177 191.484 829.814 189.685C828.782 188.899 828.769 188.674 828.608 187.474C829.495 186.619 830.688 186.397 831.882 186.252C837.664 185.551 843.878 186.497 849.594 187.393C873.987 191.216 893.159 201.451 912.124 216.979L912.467 217.359C917.292 222.635 922.942 227.129 927.533 232.628C948.793 258.093 961.57 291.549 960.276 324.889C958.802 362.881 943.243 398.424 915.135 424.353C898.252 439.928 878.281 448.988 856.089 454.142C851.471 468.421 846.725 483.014 840.628 496.74C839.733 496.178 839.056 495.592 838.258 494.904C837.197 489.996 849.052 461.662 851.623 454.795C844.664 455.267 837.736 456.159 830.762 456.604L830.218 456.603C790.306 456.512 753.676 440.278 725.64 412.086C702.065 388.381 688.956 359.774 686.731 326.358C686.268 319.396 686.478 312.309 686.498 305.33C688.745 288.67 693.548 272.725 701.688 257.971C719.662 225.394 749.97 204.155 785.264 194.057C789.96 192.714 802.759 188.189 806.881 191.285C810.557 194.045 810.301 203.9 810.487 208.099C811.745 230.784 814.624 255.852 817.043 278.557C818.298 290.335 819.909 302.065 820.395 313.911C803.666 334.295 764.987 363.145 742.745 377.953C733.828 383.89 724.403 389.057 715.643 395.228C742.658 426.697 776.828 449.16 819.002 452.419C834.628 453.627 851.759 452.267 866.462 446.783Z"/>
	<path fill="#E12726" d="M800.813 194.628C801.737 194.521 802.677 194.575 803.607 194.584C806.691 197.839 814.566 297.641 816.635 312.436C786.461 343.899 750.141 368.351 713.504 391.57L711.044 387.723C702.273 373.588 695.714 358.165 692.487 341.805Q692.197 340.345 691.944 338.879Q691.69 337.413 691.473 335.941Q691.255 334.468 691.074 332.991Q690.893 331.514 690.749 330.033Q690.604 328.552 690.495 327.068Q690.387 325.584 690.316 324.098Q690.244 322.611 690.209 321.124Q690.174 319.636 690.175 318.148Q690.177 316.66 690.215 315.172Q690.253 313.685 690.327 312.198Q690.402 310.712 690.513 309.228Q690.624 307.744 690.772 306.264Q690.92 304.783 691.104 303.306Q691.288 301.83 691.508 300.358Q691.728 298.886 691.985 297.42Q692.241 295.955 692.534 294.496Q692.826 293.036 693.154 291.585Q693.483 290.134 693.847 288.691Q694.21 287.248 694.61 285.814Q695.009 284.381 695.443 282.957Q695.878 281.534 696.347 280.122Q696.816 278.71 697.32 277.31Q697.824 275.909 698.362 274.522Q698.9 273.135 699.472 271.761Q700.044 270.387 700.65 269.028Q701.256 267.669 701.895 266.325Q702.533 264.981 703.205 263.653Q703.877 262.325 704.581 261.014Q705.286 259.704 706.022 258.41Q706.758 257.117 707.526 255.843Q708.294 254.568 709.093 253.313Q709.892 252.057 710.722 250.822C731.8 219.444 764.332 201.737 800.813 194.628Z"/>
	<path fill="#017F66" d="M506.305 140.739L506.85 140.963C528.272 164.64 540.854 193.266 539.362 225.597C537.898 257.319 523.598 284.836 500.213 305.88C477.591 326.238 446.251 336.42 416.037 334.7C403.152 333.967 391.166 331.079 379.477 325.56C375.557 323.71 371.796 321.447 367.837 319.704L367.751 319.337C370.079 313.503 370.871 306.541 372.551 300.435C376.005 287.872 380.496 275.097 385.898 263.257C406.717 217.632 435.041 181.229 478.417 155.141C487.384 149.748 496.464 144.387 506.305 140.739Z"/>
	<path fill="#FED560" d="M810.487 208.099C819.399 209.691 832.191 210.727 839.632 216.023C836.125 215.991 831.369 215.851 828.569 218.361C828.455 218.463 828.365 218.589 828.262 218.703C831.463 221.773 845.705 220.081 850.445 220.467C854.952 224.821 861.17 227.042 865.975 230.983C860.19 230.987 831.484 229.739 828.441 232.446C828.288 233.182 828.198 232.966 828.594 233.622C829.186 234.602 829.802 235.002 830.927 235.231C834.539 235.967 838.972 235.517 842.672 235.511C852.688 235.495 862.805 235.032 872.804 235.526C876.684 239.396 881.949 242.376 884.933 247.011C890.382 247.02 911.202 246.067 914.462 246.688C915.659 246.917 916.943 247.35 917.838 248.212C918.598 248.943 918.672 249.041 918.788 250.117C916.202 252.526 906.878 251.088 903.171 251.382C898.188 251.769 893.167 251.658 888.172 251.655C891.309 255.314 894.409 259.01 897.743 262.494C904.411 262.331 921.213 260.462 926.462 263.394C926.885 264.625 926.893 264.719 926.541 265.97C923.251 267.808 906.089 266.553 901.25 266.519C901.806 270.448 902.086 274.174 901.967 278.143C907.628 278.215 931.28 276.52 934.678 279.398L934.842 280.548C933.114 282.42 930.574 282.547 928.155 282.62C923.358 282.763 918.569 282.178 913.779 282.071C910.056 281.988 906.333 282.347 902.623 281.952C902.544 285.85 902.445 289.743 902.576 293.642C909.407 293.477 933.433 291.821 939.052 294.76L939.639 295.752C939.419 296.422 939.42 297.085 938.754 297.444C937.89 297.91 906.045 297.832 902.382 297.782C901.789 301.214 901.687 306.102 902.475 309.493C909.977 309.535 917.505 309.667 925.005 309.49C929.09 309.394 933.427 308.713 937.482 308.934C938.897 309.011 940.017 309.217 941.323 309.76L941.93 310.735C941.571 312.087 941.465 312.185 940.413 313.119C937.099 313.517 933.832 312.982 930.51 312.976C921.218 312.959 911.9 313.341 902.586 313.297C902.529 317.125 902.428 320.957 902.598 324.783C911.818 324.526 921.007 325.14 930.209 324.962C931.665 324.934 939.606 323.981 940.396 324.284C940.589 324.358 941.463 325.145 941.54 325.243C941.79 325.556 942.015 326.144 942.175 326.521C941.714 327.556 941.63 327.728 940.511 328.171C933.892 330.794 911.201 328.972 902.892 329.002C902.754 332.687 902.633 336.308 902.907 339.989C908.83 339.92 937.415 338.23 940.756 341.273C940.861 341.369 940.936 341.493 941.026 341.602C940.775 342.707 940.715 342.833 939.694 343.39C934.623 346.156 910.221 343.939 903.015 344.001L903.012 355.128C908.434 355.142 933.105 354.058 936.75 355.406L937.421 356.322C936.951 357.551 936.566 358.005 935.343 358.578C930.88 360.667 908.939 359.513 902.996 359.311C902.908 362.2 902.098 366.374 903.377 368.956C905.132 370.406 906.854 370.121 909.058 370.121C914.313 370.03 926.139 368.592 930.567 371.591L930.836 372.609C929.883 374.015 928.973 374.416 927.305 374.737C919.742 376.196 910.817 374.584 903.084 374.513C902.472 378.357 902.187 382.323 902.102 386.213C908.741 385.841 915.127 385.339 921.543 387.547L922.125 388.253C921.14 389.526 919.048 390.054 917.511 390.3C912.697 391.073 906.951 390.032 901.995 390.028C900.974 393.71 899.512 397.704 898.981 401.485C902.433 401.452 906.876 400.853 909.767 403.074L909.679 403.988C906.104 406.237 901.98 405.607 897.947 405.505C896.435 408.898 893.846 413.173 893.18 416.77C894.536 417.199 895.828 417.407 896.656 418.66L896.522 419.672C894.657 421.09 893.446 421.159 891.156 421.038C886.382 426.549 881.597 432.033 876.28 437.035C874.272 438.923 867.204 443.872 866.28 445.894L866.462 446.783C851.759 452.267 834.628 453.627 819.002 452.419C776.828 449.16 742.658 426.697 715.643 395.228C724.403 389.057 733.828 383.89 742.745 377.953C764.987 363.145 803.666 334.295 820.395 313.911C819.909 302.065 818.298 290.335 817.043 278.557C814.624 255.852 811.745 230.784 810.487 208.099Z"/>
	<path d="M891.156 421.038C875.574 420.891 860.085 421.238 844.504 420.842C840.353 420.736 834.344 421.662 830.407 420.515C829.06 420.123 828.98 419.766 828.385 418.613L828.795 417.671C835.093 415.161 880.575 418.323 892.71 416.833C892.867 416.814 893.023 416.791 893.18 416.77C894.536 417.199 895.828 417.407 896.656 418.66L896.522 419.672C894.657 421.09 893.446 421.159 891.156 421.038Z"/>
	<path d="M897.947 405.505L855.761 405.507C848.837 405.527 841.558 406.089 834.676 405.482C832.178 405.261 829.548 404.934 827.429 403.516L827.883 402.311C829.638 401.604 831.326 401.201 833.221 401.081C839.384 400.692 845.8 401.448 851.994 401.479L898.981 401.485C902.433 401.452 906.876 400.853 909.767 403.074L909.679 403.988C906.104 406.237 901.98 405.607 897.947 405.505Z"/>
	<path d="M902.102 386.213C908.741 385.841 915.127 385.339 921.543 387.547L922.125 388.253C921.14 389.526 919.048 390.054 917.511 390.3C912.697 391.073 906.951 390.032 901.995 390.028C893.772 390.245 832.402 391.277 829.484 389.533C828.537 388.967 828.478 388.778 828.227 387.779C829.321 386.706 830.628 386.538 832.096 386.352C839.683 385.393 847.839 385.966 855.494 385.974L902.102 386.213Z"/>
	<path d="M903.171 251.382C896.684 250.896 890.002 251.125 883.496 251.096Q868.334 250.961 853.172 251.118C847.04 251.213 840.766 251.625 834.645 251.291C833.37 251.222 832.03 251.094 830.921 250.403C829.859 249.74 829.515 249.358 829.22 248.156L829.899 247.409C836.19 245.166 876.32 246.719 884.933 247.011C890.382 247.02 911.202 246.067 914.462 246.688C915.659 246.917 916.943 247.35 917.838 248.212C918.598 248.943 918.672 249.041 918.788 250.117C916.202 252.526 906.878 251.088 903.171 251.382Z"/>
	<path d="M897.743 262.494C904.411 262.331 921.213 260.462 926.462 263.394C926.885 264.625 926.893 264.719 926.541 265.97C923.251 267.808 906.089 266.553 901.25 266.519L856.782 266.462C850.448 266.501 844.036 267.343 837.719 266.93C834.831 266.742 831.777 266.676 829.362 264.937L829.245 264.165C830.857 262.998 832.539 262.639 834.504 262.426C840.537 261.771 847.172 262.492 853.287 262.498L897.743 262.494Z"/>
	<path d="M909.058 370.121C914.313 370.03 926.139 368.592 930.567 371.591L930.836 372.609C929.883 374.015 928.973 374.416 927.305 374.737C919.742 376.196 910.817 374.584 903.084 374.513C894.031 374.505 832.047 375.534 828.112 373.607C828.076 372.247 828.327 372.133 829.138 371.01C834.149 369.199 846.517 370.461 852.401 370.474C870.623 370.514 891.089 371.484 909.058 370.121Z"/>
	<path d="M902.623 281.952C894.624 282.181 833.362 282.755 830.283 281.663C829.25 281.297 828.845 281.027 828.42 279.993L828.909 279.176C836.907 276.322 890.787 277.857 901.967 278.143C907.628 278.215 931.28 276.52 934.678 279.398L934.842 280.548C933.114 282.42 930.574 282.547 928.155 282.62C923.358 282.763 918.569 282.178 913.779 282.071C910.056 281.988 906.333 282.347 902.623 281.952Z"/>
	<path d="M902.475 309.493C909.977 309.535 917.505 309.667 925.005 309.49C929.09 309.394 933.427 308.713 937.482 308.934C938.897 309.011 940.017 309.217 941.323 309.76L941.93 310.735C941.571 312.087 941.465 312.185 940.413 313.119C937.099 313.517 933.832 312.982 930.51 312.976C921.218 312.959 911.9 313.341 902.586 313.297C887.374 313.202 872.137 313.506 856.921 313.512C849.502 313.515 838.359 314.582 831.461 312.448C830.258 312.076 829.544 311.867 828.958 310.701C830.333 309.38 833.129 309.157 834.944 309.028C842.49 308.495 850.528 309.174 858.109 309.263Q880.291 309.551 902.475 309.493Z"/>
	<path d="M902.576 293.642C909.407 293.477 933.433 291.821 939.052 294.76L939.639 295.752C939.419 296.422 939.42 297.085 938.754 297.444C937.89 297.91 906.045 297.832 902.382 297.782Q880.534 297.661 858.686 297.786C850.771 297.876 842.593 298.474 834.702 297.865C832.682 297.71 830.908 297.579 829.548 295.97L829.727 295.051C831.699 293.794 834.127 293.601 836.418 293.448C843.666 292.963 851.136 293.607 858.416 293.658Q880.496 293.792 902.576 293.642Z"/>
	<path d="M903.012 355.128C908.434 355.142 933.105 354.058 936.75 355.406L937.421 356.322C936.951 357.551 936.566 358.005 935.343 358.578C930.88 360.667 908.939 359.513 902.996 359.311C892.679 358.885 832.986 359.985 829.377 358.293C828.463 357.864 828.769 358.128 828.438 357.101C828.56 356.94 828.667 356.767 828.806 356.62C830.025 355.325 832.249 354.805 833.958 354.613C840.078 353.926 847.199 354.679 853.427 354.681C869.925 354.688 886.521 354.673 903.012 355.128Z"/>
	<path d="M902.907 339.989C908.83 339.92 937.415 338.23 940.756 341.273C940.861 341.369 940.936 341.493 941.026 341.602C940.775 342.707 940.715 342.833 939.694 343.39C934.623 346.156 910.221 343.939 903.015 344.001L855.021 344.017C848.589 344.04 842.08 344.677 835.664 344.333C833.532 344.218 830.558 344.179 828.807 342.858C828.184 342.388 828.408 342.416 828.374 341.509C829.387 340.533 830.359 340.278 831.718 340.127C839.702 339.236 848.095 339.938 856.124 339.953L902.907 339.989Z"/>
	<path d="M902.598 324.783C911.818 324.526 921.007 325.14 930.209 324.962C931.665 324.934 939.606 323.981 940.396 324.284C940.589 324.358 941.463 325.145 941.54 325.243C941.79 325.556 942.015 326.144 942.175 326.521C941.714 327.556 941.63 327.728 940.511 328.171C933.892 330.794 911.201 328.972 902.892 329.002L855.736 328.802C848.948 328.812 841.38 329.753 834.682 329.01C832.351 328.751 830.179 328.308 828.28 326.883L828.216 326.067C833.676 322.397 889.136 326.117 902.178 324.829C902.318 324.815 902.458 324.798 902.598 324.783Z"/>
	<path d="M359.816 239.553C358.735 235.369 358.115 230.939 360.469 227.019C362.304 223.963 365.727 222.142 369.141 221.432C372.306 220.774 375.456 221.254 378.17 223.049C381.273 225.102 383.708 228.646 384.32 232.335C384.905 235.866 383.757 239.537 381.691 242.407C379.874 244.932 377.413 246.685 374.285 247.098C369.667 247.709 365.398 245.602 361.578 243.305C353.162 250.538 344.446 257.299 335.712 264.138C331.7 267.28 327.671 270.911 323.442 273.731C337.263 293.49 347.344 305.722 367.751 319.337L367.837 319.704C365.9 330.553 364.245 341.252 363.435 352.25C362.812 360.697 362.789 369.191 362.304 377.65C365.559 377.686 368.687 378.278 371.883 378.837C374.375 373.478 376.904 370.694 382.635 368.637Q383.335 368.388 384.04 368.154C388.563 369.511 392.943 370.688 395.232 375.276C396.09 376.993 396.585 378.916 397.052 380.77Q427.188 382.772 457.294 385.197C466.56 385.946 483.679 388.623 492.187 387.237C497.853 386.313 508.967 379.486 514.769 376.824C520.522 374.184 526.46 371.937 532.385 369.712C548.463 363.675 564.915 359.541 581.284 354.476C582.313 350.4 584.252 346.105 588.049 343.884C590.764 342.296 594.036 342.259 597 343.111C600.307 344.063 603.167 346.157 604.81 349.214C606.429 352.226 606.71 355.987 605.697 359.241C604.7 362.445 602.561 364.457 599.591 365.892C596.859 367.211 594.559 367.657 591.544 367.843C587.126 365.66 584.327 363.395 581.837 359.032C553.789 366.852 526.194 375.631 499.921 388.366C533.421 389.289 567.004 392.267 600.39 395.092C617.939 396.576 635.58 398.566 653.187 399.007C655.566 395.268 657.91 393.06 662.102 391.492C662.7 365.74 671.224 326.304 686.498 305.33C686.478 312.309 686.268 319.396 686.731 326.358C688.956 359.774 702.065 388.381 725.64 412.086C753.676 440.278 790.306 456.512 830.218 456.603L830.762 456.604C837.736 456.159 844.664 455.267 851.623 454.795C849.052 461.662 837.197 489.996 838.258 494.904C839.056 495.592 839.733 496.178 840.628 496.74C838.96 503.907 837.075 511.761 833.766 518.351C831.652 522.562 828.897 526.445 826.662 530.599C828.986 530.83 831.152 531.075 833.4 531.764C833.859 545.522 832.753 559.386 833.354 573.095C833.291 577.013 833.146 580.974 833.352 584.888C833.527 588.214 834.296 591.985 833.894 595.28C833.71 596.791 833.156 598.271 832.042 599.343C828.776 602.485 822.874 601.438 818.77 601.274C818.085 603.95 817.631 605.722 815.675 607.784C823.26 608.52 831.17 607.698 838.793 607.589Q862.033 607.44 885.271 607.052Q898.705 606.917 912.139 607.073C917.59 607.113 924.056 607.775 929.37 606.668C936.257 606.433 957.228 604.492 962.01 607.891L962.35 608.662C961.641 609.727 960.749 610.096 959.541 610.375C955.092 611.404 932.9 610.488 926.379 610.612C916.136 632.525 905.745 653.949 890.516 672.957C894.181 676.516 897.587 680.238 900.904 684.12C902.208 685.646 903.406 687.61 904.822 688.986L905.877 691.228C922.127 703.502 932.857 732.448 935.575 752.051C937.009 762.39 937.646 784.845 933.219 794.371C925.841 828.654 902.312 856.871 873.234 875.558C870.344 877.416 867.812 878.49 864.355 878.749C860.312 880.074 855.728 881.009 852.105 883.255C851.044 884.257 849.791 884.96 848.455 885.532C823.928 896.041 789.978 893.119 765.8 883.372C736.111 871.403 713.717 846.981 701.389 817.816L700.525 817.558C697.081 820.518 697.427 824.904 695.907 828.893C695.298 830.491 694.171 832.035 692.478 832.583C688.995 833.709 684.864 831.508 681.867 829.898C672.555 835.515 662.241 840.191 652.219 844.384C609.933 862.079 566.069 868.482 520.46 866.583C511.636 866.215 502.748 865.276 493.992 864.102C490.028 863.57 485.693 862.376 481.724 862.321C481.526 862.318 481.327 862.334 481.129 862.34C480.821 862.685 480.506 863.024 480.173 863.346C470.764 872.446 459.447 880.375 448.946 888.147C404.712 920.885 356.312 945.048 299.983 943.889C237.494 942.603 180.882 910.525 136.815 868.078C128.986 860.536 121.206 852.788 113.955 844.686C108.267 838.331 102.958 831.621 97.0551 825.462C93.4861 823.344 92.2495 821.384 91.0375 817.456C79.9051 799.656 70.3583 780.176 68.6081 758.976C65.673 723.423 81.4772 700.005 103.404 674.235C97.3326 672.766 96.6469 677.306 92.4422 677.651C90.097 673.932 90.5286 622.813 90.9323 614.595C90.2148 608.393 90.655 601.668 90.6348 595.412L90.5382 560.352L90.4528 524.798C90.4434 518.051 89.8149 510.574 91.0781 503.955C91.3145 502.561 91.2107 502.492 92.2891 501.612C93.645 501.865 93.5533 501.881 94.3757 503.004C95.1487 509.612 95.0699 522.595 94.5533 529.328C96.0585 543.352 95.0334 560.312 95.0303 574.558Q94.8563 618.93 95.3244 663.301L95.519 670.27C99.2207 670.369 102.964 670.582 106.661 670.361C110.563 664.275 115.782 658.735 120.496 653.274C123.881 653.605 134.104 654.356 136.796 652.033C136.975 651.879 137.137 651.705 137.307 651.54L136.608 652.317L136.868 650.921C133.259 648.607 128.62 649.063 124.554 649.343C134.066 641.999 144.072 635.366 153.418 627.794C150.621 623.313 146.996 619.115 143.855 614.854C136.277 617.74 110.705 632.412 104.378 631.449L104.157 630.876C105.02 629.318 105.922 628.43 107.414 627.446C111.682 624.632 116.948 622.889 121.572 620.7C129.378 617.004 136.953 613.037 144.874 609.531C149.256 614.374 153.16 619.846 157.172 625.006Q167.315 618.249 177.241 611.177Q179.839 613.797 182.464 616.39C191.023 608.295 198.199 596.182 206.629 589.351C211.353 588.979 217.118 584.76 221.625 583.014C242.557 574.903 260.007 578.904 280.429 585.871C281.087 557.379 280.619 528.606 280.029 500.112C277.865 496.572 273.719 494.498 270.979 491.3C269.403 489.46 268.263 486.933 267.109 484.802C243.537 497.727 224.772 504.809 197.508 505.073C164.966 505.388 130.769 493.381 107.455 470.24Q106.302 469.081 105.177 467.895Q104.053 466.709 102.958 465.495Q101.862 464.282 100.797 463.042Q99.7315 461.802 98.6966 460.537Q97.6617 459.272 96.658 457.982Q95.6542 456.691 94.6822 455.377Q93.7102 454.063 92.7705 452.725Q91.8307 451.388 90.9239 450.028Q90.017 448.668 89.1436 447.286Q88.2701 445.904 87.4306 444.502Q86.591 443.099 85.7859 441.677Q84.9808 440.254 84.2106 438.812Q83.4404 437.371 82.7055 435.91Q81.9706 434.45 81.2715 432.973Q80.5725 431.495 79.9096 430.001Q79.2467 428.507 78.6204 426.997Q77.9941 425.487 77.4048 423.962Q76.8155 422.437 76.2635 420.899Q75.7115 419.36 75.1972 417.809Q74.6828 416.257 74.2064 414.693Q73.73 413.13 73.2919 411.555Q72.8537 409.98 72.454 408.395Q72.0544 406.81 71.6934 405.216Q71.3325 403.621 71.0105 402.019Q70.6885 400.416 70.4056 398.806Q70.1228 397.196 69.8792 395.58Q69.6357 393.964 69.4316 392.342Q69.2275 390.72 69.063 389.094Q68.8984 387.467 68.7736 385.837Q68.6487 384.208 68.5636 382.575Q68.4785 380.943 68.4331 379.309Q68.3878 377.675 68.3823 376.04Q68.3764 374.422 68.41 372.805Q68.4436 371.187 68.5168 369.571Q68.59 367.955 68.7027 366.341Q68.8154 364.727 68.9676 363.116Q69.1197 361.505 69.3112 359.899Q69.5027 358.292 69.7335 356.691Q69.9642 355.09 70.2341 353.494Q70.5039 351.899 70.8127 350.311Q71.1215 348.723 71.469 347.143Q71.8166 345.563 72.2026 343.992Q72.5887 342.421 73.0131 340.859Q73.4375 339.298 73.9 337.748Q74.3624 336.197 74.8627 334.659Q75.3629 333.12 75.9006 331.594Q76.4384 330.068 77.0133 328.556Q77.5882 327.044 78.1999 325.546Q78.8116 324.048 79.4597 322.566Q80.1079 321.083 80.7922 319.617Q81.4764 318.151 82.1963 316.702Q82.9162 315.254 83.6713 313.823Q84.4264 312.392 85.2163 310.98Q86.0062 309.568 86.8304 308.176Q87.6545 306.784 88.5125 305.412Q89.3705 304.04 90.2618 302.69Q91.1531 301.34 92.0771 300.012Q93.0012 298.684 93.9575 297.379Q94.9137 296.074 95.9016 294.793Q96.8895 293.511 97.9084 292.255Q98.9274 290.998 99.9768 289.766Q101.026 288.535 102.105 287.33Q103.184 286.124 104.293 284.946Q105.401 283.767 106.538 282.616C130.551 258.428 166.129 242.432 200.501 242.512C242.693 242.611 269.715 258.519 298.545 287.411Q310.045 278.655 321.414 269.729C334.018 259.431 347.184 249.825 359.816 239.553ZM595.189 787.523C588.301 792.024 581.451 796.695 574.373 800.889C564.771 806.578 554.829 811.681 545.276 817.461Q526.855 828.838 509.175 841.335C501.534 846.748 493.173 852.25 486.654 859.011C533.04 867.872 587.118 863.628 631.683 848.06C648.513 842.18 664.16 834.618 679.992 826.517C679.806 824.466 679.721 822.309 680.313 820.317C680.939 818.211 682.159 816.256 684.172 815.245C687.869 813.39 692.149 814.917 695.746 816.22L699.949 813.763C697.039 805.212 695 796.751 693.406 787.87C680.073 788.821 666.738 787.836 653.397 787.591Q624.293 787.21 595.189 787.523ZM327.593 379.414C324.461 422.484 303.587 454.016 272.012 481.654L271.543 482.06C273.598 485.077 275.782 488.067 277.679 491.184C281.665 490.317 286.523 488.946 290.277 491.226L290.429 492.114C288.692 494.019 285.513 494.522 283.097 495.02C299.278 519.673 317.37 543.042 333.499 567.738C333.475 547.484 333.661 527.206 333.433 506.955C333.295 494.716 331.54 481.155 333.784 469.101C334.374 465.93 335.791 463.127 338.116 460.876C347.976 451.33 363.613 457.972 373.232 454.952C372.998 446.826 369.293 439.029 367.661 431.106Q365.153 418.986 363.793 406.685Q362.433 394.383 362.234 382.008C358.457 380.325 333.145 379.451 327.593 379.414ZM301.322 291.266C320.862 318.804 327.56 342.566 327.637 375.914C336.079 376.154 355.343 378.684 362.304 377.65C362.789 369.191 362.812 360.697 363.435 352.25C364.245 341.252 365.9 330.553 367.837 319.704L367.751 319.337C347.344 305.722 337.263 293.49 323.442 273.731C316.039 279.508 308.484 285.193 301.322 291.266ZM284.538 506.093L284.606 556.087C284.625 566.701 284.396 577.4 284.979 587.998C293.249 592.99 302.083 597.107 310.547 601.773C318.442 606.126 325.975 611.001 333.78 615.478C333.535 601.845 334.098 588.242 333.571 574.594C316.993 551.935 300.885 528.927 284.538 506.093ZM94.5533 529.328C93.3828 539.862 94.2949 551.145 94.2008 561.781Q93.5859 598.378 93.9763 634.976C94.0751 643.322 93.0914 655.357 95.3244 663.301Q94.8565 618.931 95.0303 574.558C95.0334 560.312 96.0585 543.352 94.5533 529.328ZM91.0781 503.955C89.8149 510.574 90.4434 518.051 90.4528 524.798L90.5382 560.352L90.6348 595.412C90.655 601.668 90.2148 608.393 90.9323 614.595C91.5472 613.212 91.666 611.947 91.7091 610.44C92.2635 591.027 91.3606 571.442 91.2992 552.011C91.2707 542.983 92.9176 509.699 91.0781 503.955Z"/>
	<path d="M91.0781 503.955C92.9176 509.699 91.2707 542.983 91.2992 552.011C91.3606 571.442 92.2635 591.027 91.7091 610.44C91.666 611.947 91.5472 613.212 90.9323 614.595C90.2148 608.393 90.655 601.668 90.6348 595.412L90.5382 560.352L90.4528 524.798C90.4434 518.051 89.8149 510.574 91.0781 503.955Z"/>
	<path d="M94.5533 529.328C96.0585 543.352 95.0334 560.312 95.0303 574.558Q94.8563 618.93 95.3244 663.301C93.0914 655.357 94.0751 643.322 93.9763 634.976Q93.5859 598.377 94.2008 561.781C94.2949 551.145 93.3828 539.862 94.5533 529.328Z"/>
	<path fill="#FED560" d="M400.948 828.528Q401.76 828.596 402.567 828.717C405.206 829.122 407.594 830.385 409.094 832.644C410.186 834.287 410.618 836.262 410.12 838.189C409.462 840.74 407.509 842.488 405.344 843.806C404.321 843.782 403.293 843.766 402.275 843.653C400.149 843.417 398.132 842.222 396.826 840.528Q396.605 840.246 396.415 839.943Q396.226 839.639 396.069 839.317Q395.913 838.995 395.791 838.658Q395.67 838.322 395.585 837.974Q395.5 837.626 395.452 837.271Q395.404 836.917 395.394 836.559Q395.384 836.201 395.412 835.844Q395.44 835.487 395.506 835.135C396.103 831.851 398.298 830.234 400.948 828.528Z"/>
	<path fill="#F7DDB2" d="M382.713 372.923C383.309 372.937 383.877 373 384.465 373.102C387.157 373.569 389.497 374.501 391.019 376.909C392.075 378.579 392.364 380.535 391.893 382.45C391.111 385.632 388.878 387.228 386.175 388.76C384.821 388.746 383.387 388.756 382.065 388.43C380.152 387.96 378.286 386.538 377.274 384.855C376.24 383.135 376.047 381.199 376.576 379.276C377.492 375.946 379.84 374.484 382.713 372.923Z"/>
	<path fill="#F7DDB2" d="M662.141 396.021C662.927 395.99 663.722 395.963 664.507 396.025C667.026 396.223 669.396 397.291 670.939 399.339Q671.183 399.657 671.391 400Q671.598 400.342 671.767 400.706Q671.936 401.069 672.064 401.449Q672.192 401.829 672.277 402.22Q672.363 402.612 672.405 403.01Q672.447 403.409 672.446 403.809Q672.444 404.21 672.398 404.608Q672.353 405.006 672.264 405.397C671.594 408.464 669.712 410.232 667.153 411.836C665.913 411.944 664.712 412.008 663.48 411.784C661.184 411.366 659.098 410.088 657.807 408.119C656.551 406.205 656.245 403.935 656.852 401.734C657.659 398.81 659.611 397.424 662.141 396.021Z"/>
	<path fill="#F7DDB2" d="M592.415 346.593C593.278 346.642 594.161 346.689 595.01 346.856C597.429 347.332 599.665 348.919 600.904 351.047Q601.113 351.402 601.285 351.777Q601.456 352.152 601.587 352.542Q601.718 352.933 601.808 353.335Q601.898 353.737 601.946 354.147Q601.994 354.556 601.998 354.968Q602.003 355.38 601.965 355.791Q601.927 356.201 601.846 356.605Q601.765 357.009 601.643 357.403C600.686 360.435 598.469 361.932 595.752 363.287C594.495 363.153 593.223 363.008 592.004 362.656Q591.57 362.53 591.15 362.361Q590.73 362.192 590.329 361.982Q589.929 361.772 589.551 361.523Q589.173 361.274 588.822 360.988Q588.472 360.703 588.151 360.383Q587.83 360.064 587.543 359.715Q587.256 359.365 587.006 358.988Q586.755 358.612 586.543 358.212C585.618 356.452 585.439 354.521 586.066 352.631C587.109 349.485 589.607 347.979 592.415 346.593Z"/>
	<path fill="#14BCAB" d="M368.984 226.002C370.339 225.95 371.704 225.898 373.043 226.158C375.2 226.577 377.27 227.822 378.462 229.697C379.56 231.424 379.75 233.41 379.303 235.38C378.525 238.806 376.261 240.622 373.48 242.496C372.652 242.528 371.815 242.56 370.987 242.507C368.591 242.353 366.133 241.183 364.65 239.271C363.292 237.519 362.943 235.333 363.39 233.193C364.095 229.821 366.256 227.865 368.984 226.002Z"/>
	<path fill="#FED560" d="M681.949 465.95C689.754 464.511 706.013 464.939 712.933 469.409C715.272 470.921 716.107 473.881 716.491 476.493C717 479.952 716.699 483.768 716.629 487.264C706.195 477.35 694.858 471.92 681.949 465.95Z"/>
	<path fill="#FEFEFE" d="M710.006 717.416C729.967 725.595 750.623 732.868 770.913 740.19C778.777 743.027 793.954 746.415 800.155 751.198L798.749 750.919C767.842 742.982 737.028 734.989 706.492 725.692C707.735 722.965 708.86 720.186 710.006 717.416Z"/>
	<path fill="#E12726" d="M230.023 370.593C237.043 370.411 250.832 373.098 258.669 373.895C280.109 376.077 301.619 377.559 323.072 379.6Q322.314 386.89 321.748 394.198L321.183 394.859C319.287 395.181 317.299 394.787 315.449 394.313C311.777 393.374 308.157 392.016 304.49 390.992Q293.056 387.92 281.572 385.042C268.137 381.618 254.436 378.743 241.138 374.869C237.365 373.77 233.462 372.519 230.023 370.593Z"/>
	<path fill="#FED560" d="M124.554 649.343C134.066 641.999 144.072 635.366 153.418 627.794C159.924 636.399 165.761 645.758 173.549 653.268Q198.679 642.177 224.399 632.531C233.967 640.108 243.49 647.943 253.634 654.739C262.299 649.447 270.981 643.58 280.224 639.36L280.37 668.496Q220.058 668.617 159.752 669.495C142.287 669.752 123.977 669.076 106.661 670.361C110.563 664.275 115.782 658.735 120.496 653.274C123.881 653.605 134.104 654.356 136.796 652.033C136.975 651.879 137.137 651.705 137.307 651.54L136.608 652.317L136.868 650.921C133.259 648.607 128.62 649.063 124.554 649.343Z"/>
	<path fill="#E12726" d="M297.702 293.51C316.82 316.974 323.031 344.983 323.508 374.687C313.108 374.069 302.673 372.843 292.293 371.911L239.38 367.379Q222.251 365.38 205.076 363.827C217.638 353.429 230.814 344.083 243.866 334.335L297.702 293.51Z"/>
	<path fill="#F7DDB2" d="M362.234 382.008L372.005 383.027C373.529 387.167 375.485 390.678 379.771 392.481C382.649 393.692 385.789 393.565 388.62 392.287C391.838 390.833 393.982 388.26 395.854 385.348Q424.44 386.688 452.962 389.019C463.247 389.829 473.627 390.417 483.877 391.563L483.349 391.978C474.795 398.629 464.756 403.503 455.989 410.056C438.524 423.113 423.297 438.891 407.922 454.274C403.092 454.402 375.14 456.225 373.232 454.952C372.998 446.826 369.293 439.029 367.661 431.106Q365.153 418.986 363.793 406.685Q362.433 394.383 362.234 382.008Z"/>
	<path fill="#262B6A" d="M205.75 369.765C216.174 371.133 226.991 375.686 237.216 378.384L320.03 399.992C314.83 418.87 307.887 434.727 296.418 450.751C289.797 459.211 282.08 466.466 274.392 473.918C265.827 462.374 258.659 449.826 250.814 437.795L205.75 369.765Z"/>
	<path fill="#FED560" d="M206.629 589.351C211.353 588.979 217.118 584.76 221.625 583.014C242.557 574.903 260.007 578.904 280.429 585.871L280.42 633.754C271.418 638.702 262.222 643.564 253.493 648.975C243.673 642.235 234.159 634.745 225.133 626.972Q199.98 637.865 174.416 647.754Q165.277 636.772 157.172 625.006Q167.315 618.249 177.241 611.177Q179.839 613.797 182.464 616.39C191.023 608.295 198.199 596.182 206.629 589.351Z"/>
	<path fill="#F7DDB2" d="M414.312 453.953Q422.555 444.882 431.456 436.455Q440.357 428.028 449.866 420.294C459.918 412.168 480.066 396.441 492.064 393.024C501.159 390.433 552.226 395.928 565.445 396.892C594.279 398.995 623.187 400.486 651.941 403.554C652.76 406.509 653.664 409.092 655.09 411.815C637.723 425.536 612.915 433.011 591.8 438.664C582.015 441.283 572.272 443.251 562.29 444.952C556.118 446.004 548.665 446.503 542.781 448.563C541.871 448.882 541.476 449.263 540.765 449.906C527.964 451.419 514.416 451.063 501.512 451.519L414.312 453.953Z"/>
	<path fill="#262B6A" d="M905.877 691.228C922.127 703.502 932.857 732.448 935.575 752.051C937.009 762.39 937.646 784.845 933.219 794.371C929.491 798.414 926.974 810.495 924.004 816.14C910.759 841.312 888.995 859.446 865.601 874.704C860.18 856.72 853.898 839.151 847.746 821.415L826.037 758.877C838.456 748.221 900.823 699.762 905.877 691.228Z"/>
	<path fill="#5761F0" d="M793.361 646.254C825.417 641.936 856.695 646.844 882.949 666.844C885.526 668.807 888.021 670.89 890.516 672.957C894.181 676.516 897.587 680.238 900.904 684.12C902.208 685.646 903.406 687.61 904.822 688.986C895.416 694.834 887.095 703.096 878.504 710.099Q850.89 732.388 823.549 755.008C810.301 749.343 796.715 744.741 783.2 739.78Q747.459 726.811 712.067 712.919C717.731 701.687 724.844 689.578 734.118 680.939C737.994 677.329 751.523 667.286 752.539 662.683C764.255 653.639 779.298 650.195 793.361 646.254Z"/>
	<path fill="#FEFEFE" d="M197.314 246.705C199.219 246.504 201.111 246.504 203.022 246.56Q205.693 246.62 208.359 246.794Q211.025 246.968 213.681 247.255Q216.337 247.543 218.978 247.944Q221.619 248.345 224.241 248.858Q226.863 249.372 229.46 249.997Q232.057 250.622 234.626 251.358Q237.194 252.094 239.728 252.938Q242.263 253.783 244.759 254.735Q247.255 255.688 249.708 256.746Q252.161 257.804 254.566 258.966Q256.972 260.128 259.326 261.392Q261.679 262.656 263.977 264.019Q266.274 265.383 268.511 266.843Q270.749 268.303 272.921 269.858Q275.094 271.412 277.198 273.058Q279.302 274.704 281.334 276.439C286.203 280.623 290.541 285.345 294.939 290.01C284.281 299.633 271.773 307.804 260.229 316.38L200.279 361.178L196.815 359.638C184.436 353.84 172.993 345.449 161.13 338.623C139.586 326.227 117.508 314.62 96.1506 301.928Q99.6145 297.034 103.351 292.344C119.298 272.709 143.799 258.112 168.048 251.586C177.638 249.004 187.454 247.704 197.314 246.705Z"/>
	<path fill="#14BCAB" d="M699.63 745.002C737.13 755.974 775.181 765.115 812.851 775.529C825.029 810.817 834.674 847.023 847.811 881.954L841.522 883.764C823.514 887.74 806.992 888.731 788.805 885.229Q787.461 884.976 786.123 884.69Q784.785 884.404 783.455 884.085Q782.124 883.766 780.802 883.415Q779.48 883.063 778.167 882.68Q776.854 882.296 775.551 881.88Q774.247 881.464 772.955 881.016Q771.662 880.568 770.381 880.089Q769.1 879.61 767.831 879.099Q766.561 878.588 765.305 878.047Q764.049 877.505 762.807 876.932Q761.564 876.36 760.336 875.757Q759.108 875.155 757.895 874.522Q756.682 873.889 755.485 873.227Q754.288 872.565 753.108 871.873Q751.927 871.182 750.764 870.461Q749.601 869.741 748.456 868.992Q747.311 868.244 746.185 867.467Q745.059 866.691 743.952 865.887Q742.845 865.083 741.758 864.252Q740.671 863.421 739.605 862.564Q738.539 861.707 737.495 860.823Q736.45 859.94 735.427 859.031Q734.405 858.123 733.404 857.189Q732.404 856.256 731.428 855.298Q730.451 854.34 729.498 853.359Q728.545 852.377 727.616 851.373Q726.688 850.368 725.784 849.341Q724.88 848.314 724.002 847.265Q723.124 846.216 722.272 845.146Q721.419 844.076 720.594 842.985Q719.768 841.895 718.97 840.784Q718.171 839.673 717.4 838.543C698.4 810.337 693.173 778.106 699.63 745.002Z"/>
	<path fill="#14BCAB" d="M93.3118 306.181C118.717 319.236 143.601 333.583 168.253 348C177.052 353.146 189.55 359.103 196.753 365.926C205.402 374.119 213.667 390.181 220.461 400.504L270.745 476.782C261.568 483.315 252.074 488.482 241.625 492.707C236.916 494.183 232.202 495.723 227.424 496.959Q225.93 497.341 224.427 497.686Q222.924 498.031 221.414 498.339Q219.903 498.647 218.385 498.917Q216.867 499.188 215.343 499.421Q213.818 499.654 212.289 499.849Q210.76 500.045 209.226 500.202Q207.692 500.36 206.155 500.48Q204.617 500.6 203.078 500.682Q201.538 500.764 199.997 500.808Q198.455 500.852 196.914 500.858Q195.372 500.864 193.83 500.832Q192.289 500.8 190.748 500.73Q189.208 500.66 187.67 500.552Q186.132 500.444 184.597 500.298Q183.062 500.152 181.531 499.969Q180 499.785 178.474 499.564Q176.948 499.343 175.428 499.084Q173.908 498.826 172.395 498.53Q170.881 498.233 169.376 497.9Q167.871 497.567 166.374 497.197Q164.877 496.826 163.39 496.419Q161.903 496.012 160.426 495.569Q158.949 495.125 157.484 494.646Q156.018 494.166 154.565 493.65Q153.112 493.134 151.672 492.583Q150.232 492.031 148.806 491.445Q147.381 490.858 145.969 490.236Q144.558 489.615 143.163 488.959Q141.768 488.302 140.389 487.612Q139.01 486.922 137.649 486.197Q136.288 485.473 134.945 484.716Q133.602 483.958 132.278 483.168Q131.002 482.397 129.745 481.596Q128.488 480.794 127.251 479.962Q126.013 479.13 124.797 478.268Q123.581 477.406 122.386 476.514Q121.191 475.623 120.018 474.702Q118.845 473.782 117.695 472.833Q116.546 471.884 115.419 470.907Q114.293 469.93 113.191 468.927Q112.088 467.923 111.011 466.892Q109.934 465.861 108.882 464.805Q107.83 463.748 106.805 462.666Q105.779 461.584 104.78 460.477Q103.781 459.37 102.81 458.24Q101.838 457.109 100.895 455.954Q99.9512 454.8 99.0361 453.623Q98.1211 452.446 97.235 451.247Q96.349 450.048 95.4926 448.828Q94.6361 447.607 93.8098 446.366Q92.9834 445.125 92.1876 443.865Q91.3919 442.604 90.6272 441.324Q89.8624 440.044 89.1292 438.746Q88.396 437.448 87.6948 436.132Q86.9935 434.817 86.3247 433.484Q85.6558 432.152 85.0197 430.804Q84.3836 429.455 83.7806 428.092Q83.1777 426.728 82.6083 425.35Q82.0388 423.973 81.5033 422.581Q80.9677 421.19 80.4663 419.786Q79.9649 418.382 79.4979 416.966Q79.031 415.55 78.5988 414.123Q78.1666 412.696 77.7695 411.259Q77.3723 409.822 77.0104 408.376C67.8034 372.377 74.7122 337.782 93.3118 306.181Z"/>
	<path fill="#FED560" d="M662.102 391.492C662.7 365.74 671.224 326.304 686.498 305.33C686.478 312.309 686.268 319.396 686.731 326.358C688.956 359.774 702.065 388.381 725.64 412.086C753.676 440.278 790.306 456.512 830.218 456.603L830.762 456.604C837.736 456.159 844.664 455.267 851.623 454.795C849.052 461.662 837.197 489.996 838.258 494.904C839.056 495.592 839.733 496.178 840.628 496.74C838.96 503.907 837.075 511.761 833.766 518.351C831.652 522.562 828.897 526.445 826.662 530.599C828.986 530.83 831.152 531.075 833.4 531.764C833.859 545.522 832.753 559.386 833.354 573.095C833.291 577.013 833.146 580.974 833.352 584.888C833.527 588.214 834.296 591.985 833.894 595.28C833.71 596.791 833.156 598.271 832.042 599.343C828.776 602.485 822.874 601.438 818.77 601.274C818.085 603.95 817.631 605.722 815.675 607.784C823.26 608.52 831.17 607.698 838.793 607.589Q862.033 607.44 885.271 607.052Q898.705 606.917 912.139 607.073C917.59 607.113 924.056 607.775 929.37 606.668C936.257 606.433 957.228 604.492 962.01 607.891L962.35 608.662C961.641 609.727 960.749 610.096 959.541 610.375C955.092 611.404 932.9 610.488 926.379 610.612C916.136 632.525 905.745 653.949 890.516 672.957C888.021 670.89 885.526 668.807 882.949 666.844C856.695 646.844 825.417 641.936 793.361 646.254C779.298 650.195 764.255 653.639 752.539 662.683C743.672 666.83 736.56 673.546 729.556 680.22C728.915 655.638 728.624 630.918 729.984 606.355C730.964 580.122 730.167 553.873 730.35 527.628L730.534 489.663C730.536 482.471 730.845 475.062 730.08 467.907C729.588 463.312 728.426 456.998 725.125 453.583C721.434 449.766 715.898 448.346 710.788 447.798C694.848 446.087 678.285 448.658 662.28 449.062C645.894 449.475 629.491 449.122 613.098 449.453Q590.759 450.055 568.412 450.007C559.201 450.072 549.969 450.343 540.765 449.906C541.476 449.263 541.871 448.882 542.781 448.563C548.665 446.503 556.118 446.004 562.29 444.952C572.272 443.251 582.015 441.283 591.8 438.664C612.915 433.011 637.723 425.536 655.09 411.815C656.881 413.442 659.067 414.922 661.334 415.784C664.156 416.857 667.302 416.869 670.022 415.488C674.681 413.121 676.323 408.823 677.864 404.184C676.926 401.045 675.962 397.943 673.693 395.482C670.581 392.107 666.459 391.566 662.102 391.492Z"/>
	<path d="M758.197 582.04C758.115 568.221 755.148 480.012 758.86 472.974L759.775 472.404C760.726 472.686 760.687 472.468 761.142 473.195C762.257 474.979 762.338 477.464 762.431 479.521C762.888 489.624 762.245 499.923 762.255 510.051L762.607 571.079C762.646 582.077 762.279 593.15 762.597 604.138C762.584 605.719 762.367 606.443 763.246 607.789C768.659 609.261 775.682 608.399 781.296 608.26C792.575 607.98 804.434 607.129 815.675 607.784C823.26 608.52 831.17 607.698 838.793 607.589Q862.033 607.44 885.271 607.052Q898.705 606.917 912.139 607.073C917.59 607.113 924.056 607.775 929.37 606.668C936.257 606.433 957.228 604.492 962.01 607.891L962.35 608.662C961.641 609.727 960.749 610.096 959.541 610.375C955.092 611.404 932.9 610.488 926.379 610.612L813.367 612L780.938 612.09C773.941 612.1 766.171 612.741 759.288 611.323C757.368 609.148 758.252 586.491 758.197 582.04Z"/>
	<path d="M796.117 563.675C796.131 562.948 796.134 562.231 796.261 561.513C796.991 557.402 801.38 551.863 804.637 549.383C804.599 566.541 803.818 584.06 804.664 601.17C809.387 601.557 814.042 601.433 818.77 601.274C818.085 603.95 817.631 605.722 815.675 607.784C804.434 607.129 792.575 607.98 781.296 608.26C775.682 608.399 768.659 609.261 763.246 607.789C762.367 606.443 762.584 605.719 762.597 604.138C763.296 599.88 763.027 595.422 762.97 591.118L768.607 590.468C768.887 581.37 768.565 572.264 768.861 563.158C772.109 562.94 775.416 563.015 778.673 562.978C784.512 562.983 790.292 563.298 796.117 563.675Z"/>
	<path fill="#14BCAB" d="M771.654 565.632Q777.35 565.171 783.064 565.303Q788.777 565.434 794.446 566.156C794.89 576.797 794.689 587.352 794.469 597.998L771.518 597.989C771.495 587.221 771.231 576.392 771.654 565.632Z"/>
	<path fill="#FEFEFE" d="M796.117 563.675C796.131 562.948 796.134 562.231 796.261 561.513C796.991 557.402 801.38 551.863 804.637 549.383C804.599 566.541 803.818 584.06 804.664 601.17C809.387 601.557 814.042 601.433 818.77 601.274C818.085 603.95 817.631 605.722 815.675 607.784C804.434 607.129 792.575 607.98 781.296 608.26C775.682 608.399 768.659 609.261 763.246 607.789C762.367 606.443 762.584 605.719 762.597 604.138C763.296 599.88 763.027 595.422 762.97 591.118L768.607 590.468C768.577 594.145 768.723 597.797 768.901 601.47C778.047 602.03 787.382 601.56 796.546 601.502C797.544 590.579 798.143 574.426 796.117 563.675Z"/>
	<path d="M826.662 530.599C828.986 530.83 831.152 531.075 833.4 531.764C833.859 545.522 832.753 559.386 833.354 573.095C833.291 577.013 833.146 580.974 833.352 584.888C833.527 588.214 834.296 591.985 833.894 595.28C833.71 596.791 833.156 598.271 832.042 599.343C828.776 602.485 822.874 601.438 818.77 601.274C814.042 601.433 809.387 601.557 804.664 601.17C803.818 584.06 804.599 566.541 804.637 549.383C805.779 543.803 804.968 536.659 804.965 530.927C810.965 530.556 821.358 532.199 826.662 530.599Z"/>
	<path fill="#E12726" d="M830.505 580.285L830.481 597.528C825.924 597.449 821.342 597.267 816.786 597.384C819.488 596.661 822.287 596.883 825.055 596.96C826.05 591.262 827.073 585.092 830.505 580.285Z"/>
	<path fill="#F67E71" d="M807.027 533.371L830.999 533.499L830.505 580.285C827.073 585.092 826.05 591.262 825.055 596.96C822.287 596.883 819.488 596.661 816.786 597.384C813.702 597.645 810.464 597.468 807.362 597.482C806.227 576.232 806.959 554.646 807.027 533.371Z"/>
	<path fill="#F7DDB2" d="M830.762 456.604C837.736 456.159 844.664 455.267 851.623 454.795C849.052 461.662 837.197 489.996 838.258 494.904C839.056 495.592 839.733 496.178 840.628 496.74C838.96 503.907 837.075 511.761 833.766 518.351C831.652 522.562 828.897 526.445 826.662 530.599C821.358 532.199 810.965 530.556 804.965 530.927C804.968 536.659 805.779 543.803 804.637 549.383C801.38 551.863 796.991 557.402 796.261 561.513C796.134 562.231 796.131 562.948 796.117 563.675C790.292 563.298 784.512 562.983 778.673 562.978C780.075 555.877 794.063 533.608 798.094 525.895Q806.828 508.982 814.153 491.414C815.851 487.325 826.076 458.396 826.407 458.011C827.586 456.642 829.104 456.812 830.762 456.604Z"/>
	<path fill="#FEFEFE" d="M758.197 582.04C758.252 586.491 757.368 609.148 759.288 611.323C766.171 612.741 773.941 612.1 780.938 612.09L813.367 612C810.894 623.626 799.244 635.692 793.361 646.254C779.298 650.195 764.255 653.639 752.539 662.683C743.672 666.83 736.56 673.546 729.556 680.22C728.915 655.638 728.624 630.918 729.984 606.355C733.831 602.157 738.524 598.755 742.852 595.073C747.954 590.733 752.92 586.161 758.197 582.04Z"/>
	<path fill="#F7DDB2" d="M813.367 612L926.379 610.612C916.136 632.525 905.745 653.949 890.516 672.957C888.021 670.89 885.526 668.807 882.949 666.844C856.695 646.844 825.417 641.936 793.361 646.254C799.244 635.692 810.894 623.626 813.367 612Z"/>
	<path fill="#FED560" d="M284.979 587.998C293.249 592.99 302.083 597.107 310.547 601.773C318.442 606.126 325.975 611.001 333.78 615.478C335.072 652.651 334.795 689.891 335.672 727.081C335.987 740.428 335.355 759.173 337.377 771.817C338.031 775.912 338.89 779.444 342.111 782.303C345.643 785.437 349.753 786.685 354.337 787.22C364.092 788.358 374.026 787.835 383.83 787.781L423.258 787.715L537.095 787.55C556.416 787.522 575.882 786.999 595.189 787.523C588.301 792.024 581.451 796.695 574.373 800.889C564.771 806.578 554.829 811.681 545.276 817.461Q526.855 828.838 509.175 841.335C501.534 846.748 493.173 852.25 486.654 859.011C460.382 853.675 439.689 847.943 414.593 838.246C414.749 834.539 414.569 831.502 412.019 828.571C409.658 825.857 405.437 824.183 401.874 824.161C399.161 824.144 396.696 825.152 394.868 827.168C392.354 829.939 391.09 834.06 391.476 837.769C391.82 841.074 393.467 844.349 396.131 846.388C398.268 848.024 400.871 848.574 403.505 848.147C407.625 847.479 410.41 845.39 413.265 842.517C435.214 850.496 457.889 859.063 481.129 862.34C480.821 862.685 480.506 863.024 480.173 863.346C470.764 872.446 459.447 880.375 448.946 888.147C404.712 920.885 356.312 945.048 299.983 943.889C237.494 942.603 180.882 910.525 136.815 868.078C128.986 860.536 121.206 852.788 113.955 844.686C108.267 838.331 102.958 831.621 97.0551 825.462C93.4861 823.344 92.2495 821.384 91.0375 817.456C79.9051 799.656 70.3583 780.176 68.6081 758.976C65.673 723.423 81.4772 700.005 103.404 674.235C104.433 674.384 105.434 674.428 106.473 674.462C117.418 674.82 128.476 674.188 139.421 673.934Q160.574 673.482 181.732 673.517L259.037 672.999C271.328 672.906 283.863 673.379 296.125 672.814C298.448 672.707 301.257 672.671 303.023 670.993C302.962 669.879 302.887 669.456 301.877 668.736C298.577 666.386 288.739 668.094 285.021 668.542L284.979 587.998Z"/>
	<path d="M91.0375 817.456L91.0207 746.637C91.0055 736.982 90.0431 726.905 90.6843 717.329C90.8554 714.774 91.1407 711.36 92.8751 709.412C93.9319 709.695 93.966 709.847 94.4768 710.787C95.3729 712.437 95.8771 714.927 95.9591 716.808C96.2456 723.378 95.5281 730.248 95.5117 736.864L95.4669 791.462C95.444 800.677 94.3824 811.248 96.5597 820.23L97.273 820.429C108.318 823.446 129.357 821.467 141.569 821.478L240.685 822.001C255.421 822.014 270.332 821.037 285.034 821.485C287.263 821.553 292.492 821.578 294.206 822.944C294.456 823.143 294.598 823.449 294.794 823.702C294.106 824.834 293.035 825.193 291.803 825.515C282.547 827.933 263.857 826.069 253.743 826.014L187.705 825.998L130.523 826.008C119.584 826.048 107.904 827.023 97.0551 825.462C93.4861 823.344 92.2495 821.384 91.0375 817.456Z"/>
	<path d="M112.171 770.696C122.054 770.271 132.662 769.862 142.497 771.071C142.55 783.064 144.168 805.269 141.816 816.006L111.512 815.747C111.255 803.034 109.721 782.709 112.171 770.696Z"/>
	<path fill="#FED560" d="M115.983 775.095L138.064 775.16L138.109 811.539L115.924 811.528L115.983 775.095Z"/>
	<path d="M244.948 749.51Q259.314 749.408 273.677 749.732C274.327 760.026 274.085 770.506 274.101 780.821C274.119 792.312 274.425 804.062 273.318 815.504L244.474 815.502C244.136 803.507 244.46 791.554 244.395 779.562C244.342 769.644 243.424 759.341 244.948 749.51Z"/>
	<path fill="#5761F0" d="M248.511 754.023L269.737 753.755Q269.382 782.593 269.838 811.428C262.721 811.846 255.63 811.643 248.509 811.471L248.511 754.023Z"/>
	<path d="M157.511 731.013L187.323 730.999C187.608 748.478 187.526 765.917 187.539 783.393C187.547 794.181 187.94 804.927 187.374 815.708C177.313 816.109 167.316 815.866 157.258 815.485C156.823 805.483 157.156 795.487 157.192 785.482L157.511 731.013Z"/>
	<path fill="#5761F0" d="M161.701 735.242C168.889 735.427 176.11 735.307 183.302 735.329L183.331 811.499L161.482 811.511L161.485 760.024C161.478 751.948 160.826 743.257 161.701 735.242Z"/>
	<path d="M202.737 719.242Q217.254 718.858 231.771 719.253C231.841 731.883 232.968 812.25 230.932 815.708L201.692 815.503Q201.374 786.397 201.492 757.291C201.464 746.331 200.707 735.108 201.537 724.184C201.673 722.386 201.961 720.874 202.737 719.242Z"/>
	<path fill="#5761F0" d="M206.34 723.243C213.364 723.529 220.48 723.305 227.514 723.312L227.477 811.719C220.212 811.534 212.932 811.567 205.664 811.512C205.975 790.654 205.876 769.778 205.933 748.917C205.952 741.756 205 729.8 206.34 723.243Z"/>
	<path fill="#FEFEFE" d="M692.191 772.492L462.591 771.78L403.385 771.06C390.996 770.986 378.116 771.762 365.821 770.271C362.052 769.814 358.29 768.714 355.538 765.963C352.015 762.442 351.391 755.09 350.99 750.344C349.871 737.06 350.471 723.441 350.175 710.103L348.378 621.803L346.502 534.239C346.111 518.595 345.186 502.897 345.449 487.246C345.554 481.047 346.166 475.547 350.987 471.147C354.359 468.07 358.001 467.529 362.365 467.182C378.09 465.934 393.925 466.685 409.68 466.689L489.975 466.493L582.99 465.981C616.009 465.645 648.928 465.08 681.949 465.95C694.858 471.92 706.195 477.35 716.629 487.264Q715.878 560.933 716.156 634.604L716.021 671.971C715.981 679.521 715.413 687.53 716.548 695.003C713.553 700.715 700.594 721.426 702.688 726.838C703.506 728.951 705.589 730.276 707.641 730.984C715.127 733.568 722.953 735.383 730.604 737.425L767.695 747.31L794.804 754.558C803.64 756.984 812.907 760.169 822.107 760.658L847.827 834.699L856.941 861.041C858.538 865.659 859.929 870.498 861.864 874.985C862.501 876.463 863.263 877.568 864.355 878.749C860.312 880.074 855.728 881.009 852.105 883.255C848.328 868.151 842.457 853.293 837.773 838.418L825.734 800.342C822.787 791.13 820.266 781.306 815.588 772.805C809.225 769.454 801.653 768.29 794.74 766.454L765.515 758.615L723.966 747.382C715.283 745.035 706.142 741.808 697.171 741.116C691.77 749.784 692.518 762.616 692.191 772.492Z"/>
	<path d="M693.92 569.726C696.126 569.677 698.808 569.603 700.739 570.851C701.617 571.417 701.31 571.1 701.58 572.261L700.747 573.218C692.82 574.47 678.545 574.207 670.399 573.527C667.699 573.557 663.413 574.152 661.28 572.256L661.331 571.252C661.727 570.962 662.06 570.553 662.521 570.382C665.456 569.292 688.879 569.934 693.92 569.726Z"/>
	<path d="M667.085 665.693Q671.152 665.484 675.225 665.48C680.271 665.469 697.755 664.578 700.745 667.564L700.28 668.527C698.564 669.946 696.565 669.69 694.444 669.734C687.64 669.819 680.843 669.516 674.04 669.517C670.408 669.518 665.764 670.27 662.261 669.586C661.049 669.349 660.805 668.82 660.141 667.898L660.529 667.132C662.601 666.074 664.807 665.965 667.085 665.693Z"/>
	<path d="M660.511 606.507C670.707 606.541 690.498 604.79 699.329 607.161C700.166 608.296 699.878 608.804 699.767 610.176C690.13 610.413 669.764 611.901 661.614 609.835C660.519 608.713 660.688 608.033 660.511 606.507Z"/>
	<path d="M659.835 688.507C666.336 688.476 695.03 686.78 699.198 689.721C699.486 691.007 699.463 691.005 698.875 692.19C690.236 692.667 668.396 694.026 661.127 691.802C660.036 690.716 660.115 689.995 659.835 688.507Z"/>
	<path d="M661.566 546.52C667.829 546.491 697.327 544.579 701.18 547.855C701.353 549.1 701.337 549.323 700.87 550.487C693.204 550.465 667.683 552.16 661.722 549.925C661.035 548.657 661.376 547.924 661.566 546.52Z"/>
	<path d="M660.479 627.542C668.516 627.391 694.685 625.674 700.1 628.839C700.62 629.992 700.585 630.216 700.437 631.485C689.628 632.039 671.672 632.945 661.323 631.181C660.357 629.921 660.556 629.102 660.479 627.542Z"/>
	<path d="M666.012 512.737C675.666 512.572 685.838 511.791 695.442 512.641C697.404 512.814 700.463 512.913 701.733 514.451C701.568 514.68 701.431 514.932 701.239 515.138C699.83 516.646 698.117 516.488 696.235 516.589C687.454 517.091 678.609 517.505 669.812 517.322C667.555 517.274 663.179 517.465 661.557 515.776C661.201 514.694 660.97 514.761 661.495 513.675C662.876 512.775 664.418 512.844 666.012 512.737Z"/>
	<path d="M681.199 498.727C685.243 498.619 689.396 498.359 693.427 498.692C696.008 498.906 700.532 499.242 702.238 501.263L701.739 501.921C695.784 503.797 689.488 503.435 683.312 503.499C678.813 503.526 663.999 504.202 661.051 501.57L661.112 500.428C664.111 498.199 676.853 498.817 681.199 498.727Z"/>
	<path d="M398.325 724.722C418.284 724.309 438.416 725.295 458.395 725.371Q530.579 725.308 602.758 726.084Q623.27 726.304 643.782 726.262C652.355 726.262 667.296 725.178 675.082 727.391L674.986 729.057C672.057 730.791 668.794 730.533 665.52 730.5L472.139 729.081L414.581 728.731C406.949 728.712 398.453 729.856 390.96 728.741C388.814 728.422 388.813 728.535 387.499 726.756C390.957 724.667 394.409 724.811 398.325 724.722Z"/>
	<path d="M458.112 561.728C462.229 561.672 466.357 561.751 470.475 561.766C471.281 583.874 470.46 606.219 470.317 628.355C470.208 645.268 471.018 662.682 469.597 679.511C469.221 683.964 468.536 688.808 466.637 692.896C463.308 700.063 456.764 704.768 449.443 707.241C438.944 710.788 428.235 709.847 418.361 704.98C414.447 702.846 410.797 699.771 408.123 696.18C405.521 692.684 403.49 688.673 402.802 684.342C399.612 664.239 402.271 637.133 402.443 616.249L402.556 584.817C402.575 577.857 402.25 570.655 403.204 563.752C420.999 561.027 440.12 562.209 458.112 561.728Z"/>
	<path fill="#FEFEFE" d="M461.779 564.734L467.085 564.739L467.141 597.505C448.555 597.57 429.961 598.396 411.375 598.709L406.26 598.646Q406.045 582.608 406.426 566.574C424.749 564.797 443.377 565.066 461.779 564.734Z"/>
	<path fill="#262B6A" d="M457.525 600.743L467.039 600.729L467.025 647.809C467.014 657.961 467.407 668.335 466.383 678.446C465.974 682.479 465.226 686.562 463.676 690.327C461.162 696.434 455.993 700.553 449.972 702.913C440.053 706.802 429.773 706.215 420.088 702.04Q416.511 699.877 413.559 696.917C410.432 693.752 408.303 690.135 407.244 685.798C404.177 673.241 405.813 659.572 405.931 646.749L406.048 601.501L457.525 600.743Z"/>
	<path d="M509.841 527.731C517.748 527.689 539.304 526.792 545.31 529.094C545.39 529.436 545.476 529.777 545.534 530.124C546.868 538.069 546.152 547.02 546.099 555.083L545.98 593.494L545.941 650.248C545.943 660.86 546.562 671.896 545.479 682.452C544.884 688.254 543.851 693.168 540.191 697.875C534.588 705.081 525.818 707.829 517.12 708.909C514.395 709.177 511.799 709.274 509.07 708.985C500.45 708.074 492.386 704.341 486.963 697.42C483.617 693.152 482.559 688.434 481.967 683.149C481.097 675.399 481.461 667.406 481.471 659.613L481.516 621.551L481.084 563.36C481.107 551.703 480.818 539.582 482.313 528.016Q496.08 528.129 509.841 527.731Z"/>
	<path fill="#FEFEFE" d="M485.516 531.51L542.56 531.514C542.845 542.064 543.846 553.621 542.54 564.124C542.363 565.556 542.511 565.799 541.378 566.675C522.955 568.08 503.972 568.122 485.483 568.484L485.516 531.51Z"/>
	<path fill="#E12726" d="M502.272 570.723Q522.437 570.291 542.606 570.283L542.572 640.426C542.588 653.188 543.27 666.031 542.389 678.775C542.129 682.546 541.727 686.738 540.267 690.255C537.248 697.524 531.35 701.296 524.343 704.022C521.049 705.17 517.486 705.648 514.006 705.679C506.156 705.747 497.502 703.016 491.91 697.349C488.405 693.796 486.684 689.644 485.802 684.808C483.439 671.848 484.959 657.584 485.007 644.418L485.166 571.342C490.847 570.982 496.581 570.919 502.272 570.723Z"/>
	<path d="M572.669 503.741C579.897 503.722 623.363 501.652 626.724 504.901C627.38 506.608 627.434 508.308 627.452 510.119C627.537 518.937 627.157 527.796 627.103 536.62L626.664 607.905C626.516 629.559 627.25 651.337 626.629 672.963C626.484 678.042 626.302 683.275 625.047 688.224C623.019 696.223 617.747 701.013 610.988 705.121Q609.814 705.724 608.602 706.247Q607.391 706.77 606.147 707.211Q604.903 707.652 603.633 708.01Q602.363 708.367 601.071 708.639Q599.78 708.911 598.473 709.096Q597.167 709.282 595.851 709.38Q594.535 709.477 593.215 709.487Q591.895 709.497 590.578 709.419C581.967 708.879 573.289 705.759 567.55 699.055C564.282 695.238 561.555 689.274 560.798 684.271C559.301 674.375 560.008 663.777 560.146 653.797Q560.411 634.946 560.439 616.093L560.617 551.467C560.643 535.862 560.235 520.373 561.603 504.808C565.237 504.061 568.973 503.956 572.669 503.741Z"/>
	<path fill="#FEFEFE" d="M593.594 507.265L623.606 506.761L623.591 540.498Q608.607 540.559 593.625 540.786L564.404 541.237Q564.322 524.498 564.453 507.76C574.148 507.372 583.89 507.393 593.594 507.265Z"/>
	<path fill="#89CAF2" d="M619.882 543.733C620.747 543.733 621.621 543.837 622.483 543.903C623.089 544.557 623.311 544.664 623.547 545.576C624.211 548.134 623.485 565.176 623.485 569.063L623.015 637.862C622.944 651.711 623.597 665.97 622.491 679.771C622.116 684.458 621.409 689.091 618.975 693.202C615.498 699.077 609.447 702.813 602.939 704.479C592.733 707.091 583.072 705.182 574.126 699.889C573.328 699.249 572.532 698.6 571.793 697.891C568.305 694.55 566.01 690.495 565.016 685.771C561.732 670.157 563.931 652.477 563.995 636.551L564.303 544.503Q592.101 544.747 619.882 543.733Z"/>
</svg>
