<?xml version="1.0" encoding="utf-8" ?>
<svg width="200" height="200" viewBox="-20 70 1000 1000">
	<path d="M843.237 879.597L843.918 879.621C845.588 881.426 848.384 880.779 850.745 881.056C843.678 882.388 834.999 881.546 827.943 880.62C833.023 879.287 838.204 880.852 843.237 879.597Z"/>
	<path fill="#AEAEAE" d="M143.629 258.771C144.14 273.738 143.975 288.759 144.131 303.736C144.649 353.231 144.074 402.653 143.962 452.139C143.935 464.382 144.487 476.591 144.561 488.826C125.339 495.119 105.949 510.685 91.6534 524.79C86.8734 529.506 82.6781 535.6 77.33 539.639C93.2624 502.226 103.578 465.941 107.736 425.375C109.89 404.357 109.043 383.643 109.552 362.599C110.492 323.68 120.424 290.355 143.629 258.771Z"/>
	<path fill="#F3CAA4" d="M863.379 488.456C868.562 485.682 881.69 482.146 888.314 479.63C907.766 472.243 922.349 464.119 939.392 452.404C961.955 478.182 978.182 509.869 975.754 544.986C973.713 574.521 957.998 598.134 936.035 617.06C928.533 623.525 920.564 629.715 912.3 635.175C907.141 638.582 878.999 654.733 877.83 656.539L878.087 657.128C873.318 658.812 868.332 659.964 863.443 661.254Q862.785 574.856 863.379 488.456Z"/>
	<path fill="#F3CAA4" d="M77.33 539.639C82.6781 535.6 86.8734 529.506 91.6534 524.79C105.949 510.685 125.339 495.119 144.561 488.826C146.765 529.729 146.539 570.867 146.596 611.819L146.964 733.363C146.959 757.703 146.432 782.148 147.183 806.474Q142.277 803.443 137.476 800.248C93.4344 770.743 56.4982 730.627 46.1027 677.057C36.6668 628.432 50.123 580.221 77.33 539.639Z"/>
	<path d="M793.33 737.397C816.672 724.061 841.994 721.741 867.85 728.714C876.618 731.078 890.175 735.536 895.112 743.978C896.384 746.153 896.767 749.044 897.024 751.528C898.147 762.372 897.618 773.75 897.738 784.655C898.024 810.871 897.635 837.04 897.396 863.252C887.882 874.961 871.962 879.034 857.531 880.556C855.301 880.791 852.987 881.104 850.745 881.056C848.384 880.779 845.588 881.426 843.918 879.621L843.237 879.597C838.204 880.852 833.023 879.287 827.943 880.62C812.594 878.926 801.264 874.841 788.567 866.043C777.878 877.265 759.404 880.238 744.596 880.634C727.336 881.096 711.789 877.83 695.229 873.494C674.631 889.287 648.722 891.688 623.666 888.391Q621.992 888.17 620.324 887.905C611.374 887.436 600.24 883.748 592.677 878.936C587.424 875.593 583.792 871.616 582.389 865.437C581.351 853.782 582.711 842.344 582.171 830.738C581.111 822.291 580.693 802.147 583.384 794.459C585.686 787.882 591.568 783.768 597.595 780.882C622.566 768.925 653.404 770.896 678.866 780.021C678.303 772.26 677.236 763.841 682.475 757.356C690.257 747.725 705.892 744.37 717.509 743.006C742.375 740.085 766.64 742.183 786.874 758.064Q786.684 755.06 786.681 752.049C786.722 745.579 788.879 741.819 793.33 737.397ZM584.125 848.214C583.742 853.837 583.545 859.259 584.214 864.87C583.972 864.927 583.734 864.998 583.49 865.042C583.249 865.085 583.005 865.101 582.762 865.13L582.389 865.437C583.792 871.616 587.424 875.593 592.677 878.936C600.24 883.748 611.374 887.436 620.324 887.905C622.049 887.658 623.528 887.508 625.055 886.628Q635.373 887.803 645.747 887.329C662.975 886.443 682.272 883.681 694.434 870.27L694.515 849.616C692.521 851.641 690.524 853.576 688.234 855.27C669.766 868.935 641.326 869.185 619.562 865.772C606.775 863.767 592.089 859.12 584.125 848.214Z"/>
	<path fill="#FED560" d="M786.489 801.555L786.728 801.806C788.072 807.477 787.185 814.282 786.997 820.094C781.447 824.795 775.993 828.27 769.014 830.48C747.164 837.4 718.319 836.662 697.815 826.115C697.769 826.073 697.717 826.037 697.678 825.989C694.879 822.586 696.372 811.586 696.53 806.961C703.886 810.764 711.098 813.088 719.305 814.354C742.842 817.986 766.923 815.959 786.489 801.555Z"/>
	<path fill="#FED560" d="M680.905 775.224C681.695 775.754 682.301 776.46 682.975 777.126C697.832 791.821 720.538 795.54 740.678 795.374C759.194 795.221 774.333 791.255 787.476 777.836Q787.034 787.192 786.992 796.558C786.598 798.317 785.483 799.67 784.249 800.94C774.545 810.927 754.045 813.564 740.843 813.497C729.159 813.438 705.012 812.528 696.703 804.204C695.974 796.804 695.649 790.896 689.053 786.205C687.137 784.842 684.84 783.595 683.17 781.95C681.11 779.919 680.986 778.008 680.905 775.224Z"/>
	<path fill="#FED560" d="M786.484 823.029C788.301 825.497 787.126 838.909 787.009 842.421C783.091 846.012 778.996 848.771 774.055 850.79C750.061 860.592 720.115 857.758 696.666 847.959C695.455 845.708 696.325 830.816 696.366 827.474C704.27 832.071 711.617 834.39 720.696 835.674C737.755 838.086 758.707 837.807 774.545 830.538C778.903 828.538 782.656 825.893 786.484 823.029Z"/>
	<path fill="#FED560" d="M786.366 845.909L786.867 846.337C787.982 850.61 788.124 858.168 786.888 862.364C785.68 866.464 782.64 869.141 778.919 871.002C754.126 883.405 721.487 879.55 696.103 871.013C695.839 864.05 696.148 857.024 696.279 850.057C704.765 853.696 713.437 856.106 722.587 857.444C744.057 860.583 768.385 859.232 786.366 845.909Z"/>
	<path fill="#FED560" d="M789.046 758.249C792.534 760.265 795.459 763.886 798.828 766.264C808.058 772.781 822.415 775.058 833.484 775.53C856.37 776.505 878.134 774.577 895.718 758.521C896.002 764.455 895.805 770.278 895.457 776.201Q894.604 777.153 893.726 778.082C882.795 789.606 864.15 793.224 848.933 793.612C828.231 794.14 805.041 792.455 789.298 777.507C789.58 771.059 789.44 764.686 789.046 758.249Z"/>
	<path fill="#FED560" d="M895.441 779.615C896.791 785.282 895.947 792.049 895.754 797.853C882.455 811.178 863.889 814.294 845.703 814.553C826.042 814.833 804.548 813.216 789.727 798.832C787.823 793.165 788.912 786.054 789.223 780.157C799.622 789.804 812.229 793.42 826.082 794.988C851.265 797.84 874.951 795.842 895.441 779.615Z"/>
	<path fill="#FED560" d="M789.185 822.854C800.097 830.71 811.899 835.334 825.23 837.159C850.079 840.562 875.324 838.02 895.743 822.485L895.732 841.122Q894.741 842.116 893.709 843.067C880.107 855.542 856.435 858.123 838.864 857.283C822.292 856.49 801.183 854.41 789.347 841.362C789.15 835.249 788.742 828.954 789.185 822.854Z"/>
	<path fill="#FED560" d="M895.383 801.393C896.741 807.037 895.938 813.612 895.705 819.388C885.745 830.628 870.509 833.93 856.164 835.407C833.328 837.759 808.707 835.875 790.304 820.885L789.653 820.203C787.735 814.717 788.818 807.111 788.978 801.328C797.821 809.942 809.926 813.598 821.867 815.414C847.124 819.257 874.362 816.954 895.383 801.393Z"/>
	<path fill="#FED560" d="M789.022 844.439C804.408 857.885 830.817 860.583 850.512 859.239C869.204 857.964 880.062 854.559 895.708 844.343C895.928 850.386 896.039 856.368 895.705 862.412C882.653 876.305 862.564 879.063 844.339 879.61L843.918 879.621L843.237 879.597C824.732 879.106 803.77 876.521 789.335 863.703C788.668 857.284 788.798 850.879 789.022 844.439Z"/>
	<path fill="#FED560" d="M584.547 804.35C585.898 805.617 586.973 807.251 588.326 808.555C601.309 821.063 624.084 824.288 641.314 823.915C662.6 823.454 679.519 820.354 694.609 804.667C694.875 810.972 694.583 817.282 694.387 823.585C693.208 825.378 692.016 827.114 690.497 828.645C678.377 840.864 656.443 843.217 640.188 843.168C624.022 843.12 601.244 840.947 589.343 828.427C583.005 821.76 584.245 812.758 584.547 804.35Z"/>
	<path fill="#FED560" d="M584.012 826.197C587.807 828.61 590.953 832.543 594.796 835.162C605.994 842.795 623.512 845.389 636.744 845.502C658.261 845.686 678.972 842.604 694.802 826.977C694.447 833.359 694.527 839.768 694.5 846.158C693.464 847.712 692.427 849.216 691.106 850.546C678.418 863.321 656.997 865.24 639.973 865.17C623.932 865.104 600.62 863.124 588.787 850.699C582.461 844.056 583.653 834.6 584.012 826.197Z"/>
	<path fill="#FED560" d="M584.125 848.214C592.089 859.12 606.775 863.767 619.562 865.772C641.326 869.185 669.766 868.935 688.234 855.27C690.524 853.576 692.521 851.641 694.515 849.616L694.434 870.27C682.272 883.681 662.975 886.443 645.747 887.329Q635.373 887.803 625.055 886.628C623.528 887.508 622.049 887.658 620.324 887.905C611.374 887.436 600.24 883.748 592.677 878.936C587.424 875.593 583.792 871.616 582.389 865.437L582.762 865.13C583.005 865.101 583.249 865.085 583.49 865.042C583.734 864.998 583.972 864.927 584.214 864.87C583.545 859.259 583.742 853.837 584.125 848.214ZM584.214 864.87C583.972 864.927 583.734 864.998 583.49 865.042C583.249 865.085 583.005 865.101 582.762 865.13L582.389 865.437C583.792 871.616 587.424 875.593 592.677 878.936C600.24 883.748 611.374 887.436 620.324 887.905C622.049 887.658 623.528 887.508 625.055 886.628C616.277 885.506 607.275 883.595 599.174 879.946C591.931 876.685 587.035 872.445 584.214 864.87Z"/>
	<path d="M584.214 864.87C587.035 872.445 591.931 876.685 599.174 879.946C607.275 883.595 616.277 885.506 625.055 886.628C623.528 887.508 622.049 887.658 620.324 887.905C611.374 887.436 600.24 883.748 592.677 878.936C587.424 875.593 583.792 871.616 582.389 865.437L582.762 865.13C583.005 865.101 583.249 865.085 583.49 865.042C583.734 864.998 583.972 864.927 584.214 864.87Z"/>
	<path fill="#FED560" d="M837.571 727.205C853.981 725.85 877.467 730.469 890.254 741.506C893.126 743.985 895.7 747.361 895.877 751.297C896.004 754.12 894.661 756.637 892.8 758.672C882.545 769.89 862.836 772.783 848.456 773.564C831.863 775.018 810.447 772.883 796.805 762.306C793.039 759.386 789.749 755.475 789.317 750.549C789.013 747.083 790.386 743.856 792.681 741.311C802.604 730.308 823.8 728.166 837.571 727.205Z"/>
	<path d="M839.116 730.204L839.903 730.643C840.499 731.463 840.597 731.958 840.647 732.942C840.697 733.956 840.65 733.935 841.255 734.852L841.857 734.779C842.01 733.347 842.052 732.044 842.808 730.777L843.819 730.671C845.289 731.932 845.834 733.97 846.533 735.729C847.874 735.903 849.819 735.863 851.06 736.315C852.897 736.984 851.582 737.314 851.72 738.486C851.917 740.152 857.423 741.323 858.619 743.587C858.288 744.67 858.055 744.915 857.022 745.445C854.982 746.494 851.992 741.904 849.971 741.035C847.991 740.184 846.095 739.187 844.173 738.213L843.681 746.58C847.726 747.471 853.646 748.897 856.118 752.472C857.363 754.273 857.444 756.039 857.127 758.132C853.337 761.798 849.01 761.191 844.58 763.346C844.35 764.151 844.284 764.699 844.291 765.556C844.293 765.838 844.307 766.119 844.316 766.401L843.45 766.996C842.126 766.968 841.955 767.101 840.966 766.256C840.759 765.103 840.526 763.971 840.25 762.833C838.85 761.821 836.858 761.997 835.212 761.611C833.949 761.314 833.553 760.864 832.906 759.8C832.986 759.537 833.075 759.276 833.148 759.01C834.58 753.79 822.592 754.587 820.541 749.795C819.808 748.083 820.617 746.178 821.447 744.669C824.663 738.822 832.33 737.585 838.261 735.842C838.25 733.76 838.42 732.172 839.116 730.204Z"/>
	<path fill="#FED560" d="M840.505 738.492L841.095 738.906C841.582 740.195 841.856 741.755 841.675 743.141C841.5 744.47 840.959 745.074 839.996 745.918L838.122 745.678C837.487 745.075 836.751 744.443 836.236 743.734C835.516 742.745 835.549 742.078 835.788 740.947C837.062 739.487 838.717 739.111 840.505 738.492Z"/>
	<path fill="#FED560" d="M843.755 749.262C845.478 749.444 847.155 749.811 848.758 750.493C850.444 751.211 852.286 752.467 852.81 754.325C853.3 756.061 852.502 757.477 851.705 758.937C850.512 759.334 849.184 759.866 847.95 760.084C846.609 760.321 845.896 759.944 844.792 759.251C842.816 756.423 843.586 752.54 843.755 749.262Z"/>
	<path fill="#FED560" d="M829.835 740.385L830.467 740.488C831.961 741.423 832.647 743.993 833.316 745.578C835.641 747.097 838.195 748.092 840.741 749.175C840.97 752.244 842.099 757.324 840.042 759.721C838.585 759.826 837.586 759.001 836.402 758.267C837.272 757.445 837.924 756.664 838.599 755.676C837.905 754.183 828.117 752.377 825.849 750.746C824.532 749.799 824.136 748.936 823.887 747.376C824.685 744.287 827.224 742.009 829.835 740.385Z"/>
	<path fill="#FED560" d="M631.343 775.3C648.926 773.785 672.705 775.574 687.041 787.229C690.356 789.924 693.288 793.467 693.623 797.896C693.895 801.478 692.37 804.789 690.056 807.445C680.415 818.509 661.27 820.482 647.624 821.437C633.029 822.268 616.788 820.724 603.162 815.199C594.207 811.568 588.364 806.667 584.506 797.676C585.596 795.035 586.834 792.526 588.704 790.34C598.651 778.721 616.957 776.257 631.343 775.3Z"/>
	<path d="M636.835 782.188C637.293 782.249 638.116 782.342 638.536 782.477C642.998 783.911 638.219 794.331 640.565 798.403L641.038 798.215C640.995 794.037 640.425 789.045 641.473 785C641.815 783.678 642.087 783.098 643.243 782.388C644.329 783.829 644.97 785.638 646.211 786.932C648.717 789.547 655.394 788.358 659.124 793.771C659.347 795.045 659.356 795.2 658.862 796.389C657.641 796.616 656.593 797.037 655.404 796.627C655.018 795.396 654.637 793.508 653.813 792.512C651.882 790.178 647.589 789.683 644.762 789.392L644.057 789.325L644.004 798.706C647.08 799.125 652.553 800.223 654.498 802.877C655.323 804.002 655.103 805.299 654.801 806.571C653.496 812.064 647.808 810.05 644.173 812.384C643.809 813.421 643.416 814.33 642.88 815.289C641.675 815.428 641.833 815.238 640.936 814.528C640.086 811.282 641.09 806.381 640.89 802.821L640.34 801.142L639.901 801.178C639.192 804.978 640.223 808.913 639.524 812.722C639.286 814.019 638.989 814.383 637.899 815.059L636.874 814.699C635.854 807.998 628.197 810.252 626.033 805.536C626.463 804.394 626.581 804.341 627.59 803.634C631.001 803.623 633.612 807.541 636.214 809.494C636.684 805.993 636.922 802.584 637.008 799.053L636.388 798.865L635.471 798.572C634.677 798.322 633.847 798.101 633.101 797.724C630.228 796.273 629.701 792.357 628.946 789.55C626.877 790.481 623.398 791.583 622.476 793.802C621.412 796.362 623.627 800.023 624.72 802.307L623.648 802.62C621.745 801.669 618.6 799.764 617.714 797.776C617.179 796.575 617.117 795.663 617.635 794.447C620.378 788.023 629.909 788.737 635.16 786.353C636.421 785.125 636.525 783.837 636.835 782.188Z"/>
	<path fill="#FED560" d="M635.725 788.755C635.842 788.845 635.974 788.918 636.077 789.024C637.133 790.11 637.374 792.368 637.209 793.804C637.022 795.42 636.407 795.806 635.14 796.672C633.867 795.305 633.207 794.169 633.129 792.265C633.642 790.613 634.46 789.898 635.725 788.755Z"/>
	<path fill="#FED560" d="M643.902 801.38Q645.236 801.451 646.565 801.588C648.488 801.805 649.663 802.228 650.904 803.762C651.477 805.433 651.206 806.313 650.699 807.973C649.704 808.37 648.015 809.15 646.929 809.147C645.463 809.143 645.203 808.782 644.273 807.804C643.553 805.675 643.8 803.589 643.902 801.38Z"/>
	<path fill="#FED560" d="M731.587 744.206C731.888 744.176 732.188 744.143 732.489 744.118C746.501 742.917 770.642 747.257 781.579 756.768C784.934 759.687 787.197 763.472 787.4 767.985C787.618 772.833 785.759 777.085 782.427 780.537C771.617 791.738 752.273 792.693 737.728 792.972C721.073 792.239 702.134 790.16 688.622 779.383C684.975 776.474 681.679 772.572 681.251 767.746C680.948 764.315 682.33 761.116 684.529 758.546C694.231 747.202 717.464 745.112 731.587 744.206Z"/>
	<path d="M733.518 749.204C733.821 749.367 734.199 749.551 734.451 749.781C735.734 750.951 735.678 753.064 735.931 754.711L736.497 754.676C737.387 752.964 738.212 751.341 739.43 749.837L740.21 749.815C741.312 751.334 741.079 753.331 741.098 755.136C743.233 755.607 745.401 756.045 747.507 756.63C749.758 757.254 752.191 758.26 753.265 760.488C753.891 761.789 754.128 762.879 753.591 764.215L752.287 764.358C750.686 763.755 749.925 762.479 748.857 761.225C746.263 758.183 744.485 758.32 740.743 758.042L740.551 767.244Q741.171 767.282 741.789 767.343C745.193 767.684 750.775 769.031 752.804 772.114C753.615 773.346 753.695 774.745 753.399 776.143C752.089 782.341 745.171 779.427 741.475 782.121C740.779 782.628 740.67 784.54 740.492 785.394L739.509 785.933C738.157 785.025 737.837 783.323 737.261 781.819C736.218 782.057 734.901 784.613 734.079 785.58C732.683 785.157 732.324 782.168 731.436 780.87C730.522 779.533 729.001 779.479 727.537 779.145C724.752 778.508 721.477 777.675 719.864 775.12C719.941 773.931 719.91 773.884 720.694 773C723.135 773.428 725.589 775.366 727.747 776.572C729.068 777.31 730.534 778.125 732.076 777.696C732.91 775.303 732.512 772.144 732.485 769.614C728.358 769.213 723.757 769.113 720.384 766.371C719.197 765.405 718.257 763.958 718.25 762.382C718.245 761.214 718.749 760.119 719.505 759.251C722.584 755.712 728.015 755.561 732.334 755.161C732.562 753.164 733.092 751.169 733.518 749.204Z"/>
	<path fill="#FED560" d="M735.681 768.712C736.139 768.99 736.589 769.233 736.979 769.614C739.091 771.681 738.006 777.424 737.784 780.078C737.337 779.791 736.819 779.514 736.451 779.112C734.339 776.811 735.384 771.55 735.681 768.712Z"/>
	<path fill="#FED560" d="M735.345 757.1C735.99 757.391 736.551 757.793 737.144 758.177C738.982 761.249 738.121 764.819 737.774 768.204C736.919 767.781 736.087 767.309 735.574 766.464C734.006 763.881 734.969 759.909 735.345 757.1Z"/>
	<path fill="#FED560" d="M740.529 769.393C743.156 769.654 746.071 770.059 748.225 771.728C749.183 772.47 749.855 773.478 749.856 774.73C749.857 776.016 749.132 776.977 748.361 777.915C745.963 778.737 744.226 779.621 741.788 778.456C739.701 776.112 740.404 772.323 740.529 769.393Z"/>
	<path fill="#FED560" d="M727.887 757.662C729.648 757.65 730.493 757.622 731.772 758.856C732.844 761.419 732.413 764.528 732.351 767.267C730.443 767.307 728.528 767.109 726.626 766.971C725.214 766.434 723.323 765.712 722.428 764.417C721.774 763.47 721.648 762.449 722.073 761.38C722.935 759.213 725.899 758.31 727.887 757.662Z"/>
	<path d="M519.44 209.059C572.859 149.364 658.818 111.817 738.254 107.535C789.778 104.757 838.571 121.298 876.914 155.84C928.483 202.295 972.867 294.289 976.436 363.697C977.869 391.549 971.772 419.234 952.664 440.321C948.599 444.807 944.092 448.619 939.392 452.404C922.349 464.119 907.766 472.243 888.314 479.63C881.69 482.146 868.562 485.682 863.379 488.456Q862.785 574.855 863.443 661.254C868.332 659.964 873.318 658.812 878.087 657.128C879.959 656.859 881.805 656.38 883.619 657.086L884.002 657.726C882.644 660.044 878.552 660.87 876.042 661.536Q869.721 663.233 863.251 664.222L863.023 680.168C862.329 685.8 860.921 689.452 856.247 693.057C854.934 694.07 852.944 694.987 852.558 696.612C873.056 692.687 893.808 688.4 914.026 683.243C908.949 679.555 898.29 675.587 897.51 668.636C897.417 667.807 897.634 667.705 898.029 667.042C900.4 666.289 902.988 667.619 905.08 668.687C912.263 672.357 920.501 677.761 926.344 683.321C923.273 688.362 911.835 705.211 906.227 706.85C906.04 706.904 905.843 706.915 905.651 706.948L905.096 706.389C905.231 701.04 909.684 695.414 912.507 691.146C894.439 694.633 876.511 699.208 858.511 703.09L829.985 709.503C825.827 710.428 821.337 711.004 817.291 712.304C808.411 720.312 799.499 726.969 793.33 737.397C788.879 741.819 786.722 745.579 786.681 752.049Q786.684 755.06 786.874 758.064C766.64 742.183 742.375 740.085 717.509 743.006C705.892 744.37 690.257 747.725 682.475 757.356C677.236 763.841 678.303 772.26 678.866 780.021C653.404 770.896 622.566 768.925 597.595 780.882C591.568 783.768 585.686 787.882 583.384 794.459C580.693 802.147 581.111 822.291 582.171 830.738Q555.549 836.06 528.693 840.041Q501.837 844.022 474.816 846.652Q447.794 849.282 420.675 850.554Q393.555 851.827 366.406 851.738C354.756 851.731 343.034 851.97 331.393 851.608C308.247 850.888 284.504 848.369 261.68 844.592C249.041 842.501 234.711 840.96 222.691 836.513C209.765 837.33 155.791 851.325 148.774 849.034C144.864 844.887 147.782 814.743 147.257 807.419L147.183 806.474C146.432 782.148 146.959 757.703 146.964 733.363L146.596 611.819C146.539 570.867 146.765 529.729 144.561 488.826C144.487 476.591 143.935 464.382 143.962 452.139C144.074 402.653 144.649 353.231 144.131 303.736C143.975 288.759 144.14 273.738 143.629 258.771C143.812 255.583 143.865 252.653 143.449 249.48C140.862 252.852 138.28 256.539 134.839 259.108C133.321 260.24 131.542 261.342 129.637 261.072C129.23 259.882 129.252 260.407 129.459 259.156C130.496 252.872 142.595 240.16 147.804 236.283C152.143 239.172 155.149 243.825 158.233 247.939C162.318 244.989 165.965 241.27 169.742 237.932C176.466 231.99 183.364 226.263 190.8 221.225C243.596 185.46 313.602 176.06 375.842 183.182C407.1 186.759 437.652 194.199 468.446 200.337C485.379 203.713 502.519 205.831 519.44 209.059ZM594.027 280.96L539.563 349.955C531.362 360.425 523.664 371.661 515.014 381.727L514.705 382.095C511.953 385.408 509.777 389.332 506.831 392.454C499.645 400.068 488.847 401.171 480.045 405.898L479.096 406.368C479.743 407.984 482.844 409.447 484.321 410.396C495.097 417.602 506.041 426.224 517.861 431.594L521.996 433.788C525.225 426.468 535.513 416.224 541.384 410.255C544.256 406.512 547.701 401.226 551.901 398.935C557.452 395.908 567.177 395.815 573.528 394.052Q579.495 392.356 585.357 390.325Q591.218 388.294 596.956 385.935Q602.693 383.576 608.288 380.897Q613.883 378.217 619.318 375.226C648.408 359.203 674.304 339.488 699.447 317.919C698.286 317.423 697.057 317.055 695.863 316.645C677.585 309.845 659.34 303.309 640.822 297.192L636.982 296.021C629.607 293.929 622.363 291.048 615.14 288.475C608.132 285.978 600.933 283.709 594.027 280.96ZM410.236 373.786L363.117 414.236C354.904 421.152 345.746 427.577 338.171 435.169C344.384 435.065 351.426 432.227 357.566 430.924C369.193 428.457 380.855 426.723 392.525 424.564C404.927 422.27 419.007 418.123 431.606 418.877C433.383 418.497 435.132 417.296 436.72 416.428C446.745 414.328 456.512 409.401 465.911 405.376C458.223 401.521 450.806 397.027 443.34 392.754C432.452 386.194 421.519 379.649 410.236 373.786ZM450.288 389.621C457.616 394.071 464.916 398.524 472.421 402.67Q486.514 396.486 500.919 391.067C504.205 387.012 507.265 382.763 510.383 378.578C501.123 367.708 496.089 352.175 491.123 338.933C490.969 339.186 490.812 339.437 490.662 339.692C487.79 344.544 486.086 350.229 483.227 355.207C475.222 369.145 462.688 379.728 450.288 389.621ZM153.817 842.832C170.343 839.177 187.124 836.889 203.606 832.993C197.418 829.748 190.006 827.867 183.497 825.126C173.449 820.894 163.729 815.807 153.916 811.059C152.572 818.758 153.157 834.916 153.817 842.832ZM777.715 323.563L772.598 322.87C770.287 322.966 767.539 322.746 765.457 323.854C769.537 324.425 773.625 324.832 777.724 325.229C778.685 384.378 776.98 443.582 777.482 502.74L777.843 607.082Q777.974 620.184 777.971 633.286C777.976 637.777 777.717 642.45 778.075 646.921L778.792 646.773C779.939 643.781 779.102 589.2 779.113 581.51C779.12 576.871 778.373 570.591 779.433 566.139C780.383 537.168 779.548 507.906 779.562 478.905L779.625 433.605C779.641 424.984 779.912 416.267 779.505 407.657C778.469 402.59 778.921 326.003 779.328 325.092C780.245 324.818 780.002 325.011 780.622 324.437C780.754 324.316 780.874 324.184 781 324.057L780.089 323.178C779.388 317.306 779.237 300.532 780.302 294.871L781.44 294.645L781.636 294.579L782.208 294.705L782.071 294.108L782.542 294.214L781.922 293.115L782.143 292.48C780.647 288.867 780.302 287.205 781.237 283.335L780.374 280.63C775.46 289.086 777.701 312.95 777.715 323.563Z"/>
	<path fill="#9867B1" d="M283.428 778.04C284.117 779.829 283.859 781.482 283.716 783.36C282.491 782.415 280.755 781.414 280.302 779.874C281.189 778.656 282.04 778.567 283.428 778.04Z"/>
	<path fill="#FED560" d="M370.388 756.688C368.41 757.159 366.264 757.943 364.4 756.8L364.498 755.959C365.806 754.673 367.525 754.44 369.244 753.997L370.388 756.688Z"/>
	<path fill="#5761F0" d="M379.652 758.264C382.143 758.128 384.512 757.668 386.951 757.186C387.127 759.732 387.608 762.548 386.44 764.906C383.948 762.861 381.818 760.645 379.652 758.264Z"/>
	<path fill="#E12726" d="M294.946 768.009C299.326 768.689 303.532 769.449 307.803 770.628C303.514 771.27 299.23 771.884 294.99 772.804L294.946 768.009Z"/>
	<path fill="#14BDAB" d="M583.074 705.394C586.082 706.621 592.748 708.54 594.411 711.162L593.364 711.671C589.984 712.574 586.472 713.13 583.036 713.795L583.074 705.394Z"/>
	<path fill="#5761F0" d="M378.444 745.986C381.569 747.31 387.417 750.185 389.671 752.663L389.094 753.186C385.563 753.643 382.029 754.531 378.54 755.258L378.444 745.986Z"/>
	<path fill="#272B6A" d="M386.951 757.186C390.787 756.344 394.689 755.453 398.63 755.443C393.982 758.683 391.465 761.545 389.208 766.758C388.247 766.244 387.341 765.524 386.44 764.906C387.608 762.548 387.127 759.732 386.951 757.186Z"/>
	<path fill="#5761F0" d="M276.962 760.3L282.584 763.983C282.631 767.526 282.745 771.009 283.101 774.535L277.009 775.58L276.962 760.3Z"/>
	<path fill="#272B6A" d="M282.584 763.983C286.678 765.473 290.731 766.884 294.946 768.009L294.99 772.804C291.033 773.369 287.036 773.84 283.101 774.535C282.745 771.009 282.631 767.526 282.584 763.983Z"/>
	<path fill="#272B6A" d="M294.491 775.965L294.461 789.035C290.702 787.392 287.185 785.543 283.716 783.36C283.859 781.482 284.117 779.829 283.428 778.04C286.403 778.862 291.592 776.841 294.491 775.965Z"/>
	<path fill="#5761F0" d="M173.205 800.354C177.833 799.185 182.625 798.073 187.349 797.401L187.39 809.12C181.701 808.356 177.073 804.275 173.205 800.354Z"/>
	<path fill="#5761F0" d="M172.587 785.14C175.362 786.413 177.989 788.351 180.754 789.743C183.55 791.15 186.644 792.012 189.547 793.204L189.424 793.695L187.86 794.158C182.767 795.437 177.704 796.406 172.529 797.272L172.587 785.14Z"/>
	<path fill="#5761F0" d="M480.426 714.452Q484.701 717.32 489.006 720.143L489.039 734.129L480.489 735.5Q480.273 724.976 480.426 714.452Z"/>
	<path fill="#5761F0" d="M276.969 728.703C278.923 730.25 280.963 731.665 283.004 733.092C283.034 739.57 284.14 754.556 282.234 760.226C280.425 759.043 278.739 757.653 277.025 756.336Q276.866 742.52 276.969 728.703Z"/>
	<path fill="#5761F0" d="M277.015 598.004C279.046 599.516 281.011 601.13 282.997 602.702C283.019 612.231 283.817 622.475 282.806 631.926C280.588 629.843 278.877 627.578 277.092 625.13C276.813 616.1 276.987 607.038 277.015 598.004Z"/>
	<path fill="#5761F0" d="M277.024 695.94C278.927 697.791 281.022 699.48 283.032 701.215C283.023 710.614 283.66 720.576 282.871 729.903C280.76 728.36 278.929 726.558 277.046 724.753Q276.955 710.346 277.024 695.94Z"/>
	<path fill="#5761F0" d="M277.018 629.921C278.909 631.793 281.015 633.48 283.034 635.212C283.016 640.329 284.142 660.665 282.386 664.039C280.468 662.26 278.64 660.557 277.059 658.456Q276.845 644.189 277.018 629.921Z"/>
	<path fill="#5761F0" d="M277.053 664.034L283.006 668.266C283.174 678.027 283.597 687.662 282.812 697.414C282.099 696.803 281.409 696.193 280.774 695.499C274.265 688.398 276.617 672.872 277.053 664.034Z"/>
	<path fill="#14BDAB" d="M601.072 713.605C601.75 713.492 602.126 713.606 602.787 713.755C604.653 717.13 603.551 724.839 603.434 728.775C599.144 727.138 594.953 725.367 590.757 723.502C587.861 721.972 585.57 719.791 583.25 717.53Q592.182 715.663 601.072 713.605Z"/>
	<path fill="#0E73B8" d="M606.009 712.728Q610.942 711.924 615.823 710.85Q615.937 720.806 615.9 730.763C612.518 730.453 609.353 729.937 606.05 729.148L606.009 712.728Z"/>
	<path fill="#5761F0" d="M277.045 564.192C279.282 566.1 281.684 567.835 284.02 569.62C284.037 576.21 285.348 593.504 282.846 599.076C280.709 597.217 278.97 595.221 277.168 593.047C276.862 583.439 277.02 573.804 277.045 564.192Z"/>
	<path fill="#272B6A" d="M489.006 720.143C500.008 724.386 510.45 727.318 522.258 728.358C511.202 730.599 500.249 732.766 489.039 734.129L489.006 720.143Z"/>
	<path fill="#0F7050" d="M703.685 693.14C704.077 693.176 704.379 693.515 704.703 693.74C705.991 699.042 705.184 705.101 704.909 710.519C700.668 708.877 696.566 707.164 692.497 705.122C689.128 702.702 686.813 700.391 684.716 696.802Q694.239 695.172 703.685 693.14Z"/>
	<path fill="#0E73B8" d="M606.009 684.952Q611.013 685.51 615.992 686.253C615.943 689.749 614.893 704.646 616.503 707.053L616.836 707.27C613.29 707.923 609.634 708.257 606.054 708.714L606.009 684.952Z"/>
	<path fill="#5761F0" d="M172.051 759.604C175.566 762.179 179.254 764.31 183.034 766.458Q182.64 777.144 182.441 787.835C178.839 786.016 175.606 783.847 172.426 781.374C171.495 774.284 172.002 766.754 172.051 759.604Z"/>
	<path fill="#5761F0" d="M378.015 715.502C380.995 718.218 384.412 720.252 387.904 722.226C387.381 727.147 388.397 744.262 386.989 747.384C383.643 745.68 380.847 743.207 378.076 740.714Q377.939 728.108 378.015 715.502Z"/>
	<path fill="#3743AA" d="M480.49 504.897C482.922 506.982 485.357 508.95 487.974 510.798C488.037 517.019 489.489 537.166 487.452 541.917C485.033 540.63 482.715 538.88 480.428 537.357L480.49 504.897Z"/>
	<path fill="#0E73B8" d="M606.362 621.363Q612.322 621.918 618.296 622.285C617.102 622.473 616.263 622.29 615.523 623.304C615.019 632.036 615.555 640.779 615.018 649.536C612.149 648.93 609.332 648.576 606.417 648.288L606.362 621.363Z"/>
	<path fill="#0E73B8" d="M606.037 445.97Q610.732 446.208 615.423 446.503C615.248 455.633 615.201 464.65 615.627 473.777C612.456 473.264 609.317 473.043 606.112 472.856C605.98 463.899 606.06 454.928 606.037 445.97Z"/>
	<path fill="#3743AA" d="M480.045 647.256C482.616 649.071 485.271 650.61 488.021 652.138C487.989 658.422 489.804 678.409 487.44 682.923C485.026 681.542 482.707 679.889 480.378 678.362C479.436 668.146 480.014 657.517 480.045 647.256Z"/>
	<path fill="#3743AA" d="M480.127 681.489C482.838 683.45 485.673 685.146 488.55 686.851C488.735 694.005 490.743 710.047 487.843 716.03C485.262 714.394 482.787 712.587 480.287 710.83C479.922 701.072 480.132 691.254 480.127 681.489Z"/>
	<path fill="#5761F0" d="M378.011 586.082C380.858 588.212 383.965 589.921 387.038 591.696C387.118 597.186 388.414 617.5 386.565 621.382C383.441 619.438 380.82 617.183 378.152 614.663C377.782 605.152 377.979 595.6 378.011 586.082Z"/>
	<path fill="#5761F0" d="M378.16 619.23C381.147 621.602 384.262 623.474 387.627 625.253C387.346 635.059 388.579 644.53 387.052 654.319C383.634 652.384 381.008 649.829 378.283 647.048C377.959 637.797 378.163 628.488 378.16 619.23Z"/>
	<path fill="#0E73B8" d="M606.049 651.404C609.282 651.87 612.585 652.034 615.841 652.292C613.849 654.874 614.995 678.472 615.009 683.268L606.081 682.029L606.049 651.404Z"/>
	<path fill="#3743AA" d="M480.003 612.216C482.94 614.109 485.924 615.791 489.018 617.414C489.013 623.461 490.302 643.641 487.867 648.472C484.947 646.821 482.56 644.966 480.041 642.777C479.862 632.602 480.007 622.394 480.003 612.216Z"/>
	<path fill="#5761F0" d="M377.999 684.096C381.216 686.362 384.616 688.299 388.018 690.269C387.968 699.75 388.378 709.381 387.593 718.829C383.901 716.625 380.962 713.872 378.015 710.772Q377.932 697.434 377.999 684.096Z"/>
	<path fill="#5761F0" d="M378.009 650.938C381.1 653.81 384.396 656.037 388.015 658.184C388.014 667.754 388.181 677.343 387.585 686.898C384.033 684.976 380.958 682.574 378.036 679.806L378.009 650.938Z"/>
	<path fill="#0E73B8" d="M606.112 514.963L615.128 515.989C616.33 526.089 615.959 536.548 615.806 546.703C612.649 546.577 609.569 546.387 606.436 545.96Q606.551 530.459 606.112 514.963Z"/>
	<path fill="#5761F0" d="M172.043 600.177C175.425 603.018 178.958 604.986 182.989 606.757C183.018 616.133 183.258 625.562 182.892 634.931C178.677 632.621 175.411 630.194 172.059 626.736Q171.968 613.456 172.043 600.177Z"/>
	<path fill="#0E73B8" d="M606.291 549.015C609.291 549.441 612.381 549.408 615.404 549.722C615.791 560.826 615.851 571.8 615.488 582.902C612.487 582.409 609.397 582.166 606.373 581.811L606.291 549.015Z"/>
	<path fill="#5761F0" d="M172.023 728.089C175.558 730.604 178.929 732.819 183.039 734.292C183.066 739.018 183.901 760.486 182.439 762.899C178.857 760.827 175.462 758.53 172.354 755.796C171.687 746.617 172.002 737.29 172.023 728.089Z"/>
	<path fill="#5761F0" d="M378.029 515.304C381.13 518.076 384.578 520.315 388.026 522.622C388.024 528.807 389.174 547.952 387.029 552.915C383.588 551.184 380.917 548.814 378.082 546.256Q377.941 530.78 378.029 515.304Z"/>
	<path fill="#0E73B8" d="M606.043 584.987Q610.519 585.547 615.008 585.982C615.802 597.093 615.673 608.165 615.497 619.292C612.422 618.854 609.333 618.593 606.241 618.313C605.875 607.238 606.092 596.073 606.043 584.987Z"/>
	<path fill="#5761F0" d="M377.738 550.813C381.069 553.132 384.332 555.26 387.952 557.1C387.412 567.483 388.992 578.056 386.846 588.33C383.328 586.481 380.735 584.019 378.005 581.192C377.453 571.072 377.58 560.942 377.738 550.813Z"/>
	<path fill="#5761F0" d="M172.026 663.154C175.406 665.985 179.148 668.136 183.001 670.248C183.017 679.91 183.214 689.608 182.977 699.266C178.739 697.108 175.518 694.775 172.074 691.486C171.893 682.049 172.018 672.593 172.026 663.154Z"/>
	<path fill="#5761F0" d="M172.016 695.416C175.465 698.174 179.104 700.348 183.026 702.36Q183.245 717.068 182.961 731.774C178.531 729.593 175.034 727.249 172.121 723.165C171.82 713.926 171.986 704.659 172.016 695.416Z"/>
	<path fill="#272B6A" d="M283.004 733.092C286.804 734.819 290.684 736.186 294.624 737.547Q294.536 751.49 294.625 765.433C290.169 764.121 286.226 762.618 282.234 760.226C284.14 754.556 283.034 739.57 283.004 733.092Z"/>
	<path fill="#5761F0" d="M172.012 630.975C175.447 634.05 178.941 636.072 183.065 638.066C183.329 647.85 183.473 657.489 182.963 667.268C178.834 665.2 175.556 662.747 172.088 659.709C171.838 650.139 171.985 640.548 172.012 630.975Z"/>
	<path fill="#272B6A" d="M284.02 569.62C287.523 570.824 291.017 572.078 294.587 573.072Q294.898 588.709 295.003 604.349C290.936 603.234 286.295 601.533 282.846 599.076C285.348 593.504 284.037 576.21 284.02 569.62Z"/>
	<path fill="#272B6A" d="M387.904 722.226C392.282 723.672 396.78 725.07 401.359 725.718C399.937 729.969 400.091 746.648 401.084 751.266C396.511 750.906 390.972 749.742 386.989 747.384C388.397 744.262 387.381 727.147 387.904 722.226Z"/>
	<path fill="#272B6A" d="M283.032 701.215C286.89 702.674 290.921 704.619 294.869 705.748Q294.955 720.336 294.683 734.922C290.427 733.654 286.651 732.27 282.871 729.903C283.66 720.576 283.023 710.614 283.032 701.215Z"/>
	<path fill="#0E73B8" d="M606.014 475.953C609.137 476.421 612.351 476.556 615.502 476.8C615.9 488.927 616.167 500.926 615.453 513.045Q610.767 512.464 606.091 511.801C605.873 499.864 606.034 487.894 606.014 475.953Z"/>
	<path fill="#272B6A" d="M283.006 668.266C286.867 669.975 290.705 671.3 294.748 672.511Q295.006 687.734 294.848 702.959C290.457 701.658 286.682 699.854 282.812 697.414C283.597 687.662 283.174 678.027 283.006 668.266Z"/>
	<path fill="#272B6A" d="M283.034 635.212C287.031 636.831 291.014 638.509 295.066 639.986L294.947 669.869C290.924 668.657 285.654 666.754 282.386 664.039C284.142 660.665 283.016 640.329 283.034 635.212Z"/>
	<path fill="#272B6A" d="M282.997 602.702C287.076 604.477 291.144 605.867 295.437 607.027Q295.517 622.178 295.275 637.327C290.97 635.85 286.696 634.325 282.806 631.926C283.817 622.475 283.019 612.231 282.997 602.702Z"/>
	<path fill="#272B6A" d="M388.015 658.184C392.334 659.638 396.637 660.718 401.084 661.701C400.606 671.412 400.759 681.052 400.975 690.767C396.394 690.156 391.903 688.486 387.585 686.898C388.181 677.343 388.014 667.754 388.015 658.184Z"/>
	<path fill="#272B6A" d="M388.018 690.269C392.298 691.623 396.532 692.882 400.957 693.671L400.964 722.802C396.389 721.787 391.92 720.654 387.593 718.829C388.378 709.381 387.968 699.75 388.018 690.269Z"/>
	<path fill="#272B6A" d="M387.627 625.253C392.016 626.547 396.389 627.96 400.918 628.673C400.927 638.602 400.47 648.84 400.972 658.74C396.195 657.903 391.533 656.131 387.052 654.319C388.579 644.53 387.346 635.059 387.627 625.253Z"/>
	<path fill="#272B6A" d="M388.026 522.622C392.201 524.101 396.486 525.849 400.934 526.215C400.963 536.778 401.137 547.363 400.827 557.922C396.002 556.69 391.451 555.229 387.029 552.915C389.174 547.952 388.024 528.807 388.026 522.622Z"/>
	<path fill="#272B6A" d="M387.038 591.696C391.532 593.342 396.224 594.823 400.942 595.655L400.91 625.97C396.1 624.764 391.007 623.648 386.565 621.382C388.414 617.5 387.118 597.186 387.038 591.696Z"/>
	<path fill="#272B6A" d="M387.952 557.1C392.697 558.526 397.457 560.157 402.305 561.173C402.338 561.18 402.367 561.2 402.398 561.214L401.363 561.407C399.892 564.575 400.852 587.329 400.759 592.681C395.928 591.936 391.351 590.168 386.846 588.33C388.992 578.056 387.412 567.483 387.952 557.1Z"/>
	<path fill="#E12726" d="M801.832 666.59C803.067 666.579 802.51 666.381 803.477 667.248C805.438 673.233 804.116 686.565 803.984 693.32C798.437 691.901 793.303 690.12 788.114 687.692C784.928 685.714 780.01 681.747 779.08 677.942C778.76 676.629 779.008 675.34 779.76 674.218C782.923 669.497 796.527 667.81 801.832 666.59Z"/>
	<path fill="#14BDAB" d="M583.079 676.321C589.86 679.941 595.958 682.726 603.368 684.845L603.454 709.161C595.97 708.11 589.706 705.125 583.024 701.795L583.079 676.321Z"/>
	<path fill="#14BDAB" d="M582.976 612.219C589.746 616.5 595.672 619.181 603.531 620.816L603.497 648.213C595.624 645.846 588.972 643.783 583.04 637.787Q582.841 625.004 582.976 612.219Z"/>
	<path fill="#14BDAB" d="M583.09 434.786C584.875 435.853 586.529 437.348 588.261 438.53C593.091 441.829 597.956 443.71 603.496 445.513L603.487 472.594C595.743 470.837 589.765 468.592 583.194 464.108C582.622 454.4 582.976 444.514 583.09 434.786Z"/>
	<path fill="#E12726" d="M781 324.057L780.089 323.178C779.388 317.306 779.237 300.532 780.302 294.871L781.44 294.645C787.753 300.021 795.622 302.484 803.496 304.597L803.525 326.975C796.122 325.88 788.472 324.387 781 324.057Z"/>
	<path fill="#0F7050" d="M682.079 389.794C689.291 395.861 696.539 398.108 705.502 400.289L705.481 426.248C695.705 424.377 688.401 420.582 681.902 413.032Q681.698 401.411 682.079 389.794Z"/>
	<path fill="#14BDAB" d="M583.069 642.859C589.685 646.496 596.116 649.342 603.491 651.047L603.321 681.365C595.666 679.887 589.532 676.886 583.4 672.123C582.607 662.441 582.942 652.565 583.069 642.859Z"/>
	<path fill="#14BDAB" d="M583.103 506.334C589.705 509.973 596.027 512.847 603.401 514.534L603.359 545.419C595.558 543.688 589.865 541.26 583.381 536.648Q583.073 521.492 583.103 506.334Z"/>
	<path d="M777.715 323.563C777.701 312.95 775.46 289.086 780.374 280.63L781.237 283.335C780.302 287.205 780.647 288.867 782.143 292.48L781.922 293.115L782.542 294.214L782.071 294.108L782.208 294.705L781.636 294.579L781.44 294.645L780.302 294.871C779.237 300.532 779.388 317.306 780.089 323.178L781 324.057C780.874 324.184 780.754 324.316 780.622 324.437C780.002 325.011 780.245 324.818 779.328 325.092C778.921 326.003 778.469 402.59 779.505 407.657C779.912 416.267 779.641 424.984 779.625 433.605L779.562 478.905C779.548 507.906 780.383 537.168 779.433 566.139C778.373 570.591 779.12 576.871 779.113 581.51C779.102 589.2 779.939 643.781 778.792 646.773L778.075 646.921C777.717 642.45 777.976 637.777 777.971 633.286Q777.974 620.184 777.843 607.082L777.482 502.74C776.98 443.582 778.685 384.378 777.724 325.229C773.625 324.832 769.537 324.425 765.457 323.854C767.539 322.746 770.287 322.966 772.598 322.87L777.715 323.563Z"/>
	<path fill="#14BDAB" d="M583.08 540.858C589.824 544.527 595.961 546.812 603.472 548.546L603.452 581.224C595.551 579.838 589.199 576.783 583.133 571.522C582.672 561.347 582.959 551.043 583.08 540.858Z"/>
	<path fill="#14BDAB" d="M582.996 576.156C589.848 579.643 596.099 582.518 603.459 584.827L603.486 617.686C595.607 616.742 588.997 612.899 583.078 607.812Q582.85 591.984 582.996 576.156Z"/>
	<path fill="#F3CAA4" d="M258.561 456.521C264.138 453.531 318.386 439.194 323.393 439.553C311.805 449.98 299.116 459.315 286.514 468.476Q272.581 462.396 258.561 456.521Z"/>
	<path fill="#14BDAB" d="M583.09 468.305C589.822 471.605 596.144 473.839 603.451 475.526L603.242 511.375C596.18 511.862 588.356 506.257 583.176 502.073C582.527 490.884 582.97 479.512 583.09 468.305Z"/>
	<path fill="#14BDAB" d="M615.992 686.253C633.829 687.672 651.646 685.237 666.563 674.967C666.663 682.298 666.676 689.644 666.957 696.97C650.52 701.217 633.701 705.152 616.836 707.27L616.503 707.053C614.893 704.646 615.943 689.749 615.992 686.253Z"/>
	<path fill="#AEAEAE" d="M218.662 445.294C227.157 450.45 236.37 454.159 245.471 458.09C240.381 460.337 234.057 461.25 228.654 462.666Q213.811 466.592 199.1 470.99C189.398 473.845 179.82 476.977 170.22 480.153C164.084 482.183 157.551 484.905 151.154 485.834L151.443 483.753C154.664 479.951 209.64 450.341 218.662 445.294Z"/>
	<path fill="#14BDAB" d="M615.823 710.85C633.013 707.754 649.864 703.965 666.876 700.058C667.025 707.205 667.953 716.096 662.641 721.719C654.897 729.914 638.923 731.591 628.338 731.603C624.274 731.607 619.891 731.614 615.9 730.763Q615.937 720.806 615.823 710.85Z"/>
	<path fill="#E12726" d="M860.084 292.932L860.556 293.155C862.142 297.151 861.051 310.415 860.954 315.446C845.376 327.456 825.565 328.418 806.619 327.209C804.501 323.781 805.921 309.004 806.068 304.399C826.331 305.187 843.087 305.488 860.084 292.932Z"/>
	<path fill="#5761F0" d="M401.359 725.718C421.285 728.448 443.164 728.401 459.927 715.724C460.616 715.202 461.271 714.666 461.93 714.106L462.005 739.203C441.948 744.415 421.445 747.509 401.084 751.266C400.091 746.648 399.937 729.969 401.359 725.718Z"/>
	<path fill="#E12726" d="M187.967 768.198C207.844 772.987 233.437 776.442 251.831 764.999C253.998 763.651 255.978 762.055 257.93 760.418L258.059 779.721C245.824 782.755 233.623 785.598 221.264 788.09C214.867 789.38 208.328 790.965 201.79 791.18C197.092 791.334 192.543 790.574 187.921 789.82C185.977 789.285 184.238 788.756 182.441 787.835Q182.64 777.144 183.034 766.458C184.666 767.016 186.395 767.497 187.967 768.198Z"/>
	<path fill="#272B6A" d="M183.034 766.458C184.666 767.016 186.395 767.497 187.967 768.198L187.921 789.82C185.977 789.285 184.238 788.756 182.441 787.835Q182.64 777.144 183.034 766.458Z"/>
	<path fill="#14BDAB" d="M666.46 610.8C666.677 618.556 668.77 633.257 662.976 639.377C654.783 648.032 630.531 649.692 619.413 649.632Q617.215 649.617 615.018 649.536C615.555 640.779 615.019 632.036 615.523 623.304C616.263 622.29 617.102 622.473 618.296 622.285C635.32 623.151 652.411 621.121 666.46 610.8Z"/>
	<path fill="#14BDAB" d="M615.423 446.503C633.915 446.821 651.192 445.844 666.505 434.42L666.588 461.169C655.958 471.03 641.876 473.032 627.869 473.684C624.311 473.85 620.539 474.182 616.997 473.945C616.256 473.895 616.248 473.881 615.627 473.777C615.201 464.65 615.248 455.633 615.423 446.503Z"/>
	<path fill="#E12726" d="M294.491 775.965C305.059 772.393 316.266 771.334 327.216 769.414Q343.995 766.399 360.481 762.061C360.499 767.521 360.601 772.996 360.466 778.454C356.176 785.533 349.159 788.837 341.41 790.766C326.067 794.586 309.571 793.131 294.461 789.035L294.491 775.965Z"/>
	<path fill="#5761F0" d="M398.63 755.443C419.528 750.194 440.943 747.487 461.979 742.772C461.972 747.712 462.109 752.697 461.911 757.631C453.335 767.868 442.932 771.27 429.858 772.476C415.767 773.775 402.258 772.442 389.208 766.758C391.465 761.545 393.982 758.683 398.63 755.443Z"/>
	<path fill="#1C9871" d="M762.339 388.926L762.76 389.333C764.928 395.592 763.356 408.546 763.072 415.4C746.204 425.734 727.742 428.004 708.248 426.953C707.672 418.208 708.069 409.188 708.02 400.411L708.589 400.477C727.691 402.616 746.838 401.234 762.339 388.926Z"/>
	<path fill="#E12726" d="M187.349 797.401C195.702 794.539 205.067 793.938 213.747 792.297Q235.972 788.067 258.038 783.076C258.144 788.708 258.287 794.325 258.017 799.955C252.15 807.868 242.56 810.98 233.167 812.335C217.6 814.58 202.496 813.404 187.39 809.12L187.349 797.401Z"/>
	<path fill="#1C9871" d="M762.145 677.578L762.784 678.082C763.971 682.849 763.582 688.921 763.268 693.814C762.993 698.088 762.622 702.78 759.13 705.673C746.956 715.76 725.931 713.98 711.367 712.364C710.346 712.083 709.804 711.74 708.985 711.073C706.674 705.81 707.886 697.567 708.014 691.808C726.172 687.252 744.143 682.779 762.145 677.578Z"/>
	<path fill="#272B6A" d="M566.014 721.082L567.025 720.875C567.982 721.511 567.757 721.132 568.079 722.122C569.423 726.258 567.918 733.952 566.026 737.679C563.008 743.622 557.197 746.388 551.15 748.443C535.154 753.882 507.033 753.419 491.779 745.923C487.77 743.928 484.601 741.806 481.405 738.659C488.048 738.252 494.881 737.008 501.456 735.944C523.414 732.392 544.6 726.959 566.014 721.082Z"/>
	<path fill="#14BDAB" d="M615.128 515.989C633.55 516.088 650.105 514.733 666.51 505.632L666.539 535.231C656.135 545.63 637.67 547.15 623.733 547.102C621.121 547.093 618.397 547.059 615.806 546.703C615.959 536.548 616.33 526.089 615.128 515.989Z"/>
	<path fill="#14BDAB" d="M615.841 652.292C633.104 653.11 652.59 651.36 666.47 640.117C666.515 650.442 666.978 661.012 665.938 671.291C655.557 681.462 640.039 683.763 626.03 683.657C622.375 683.629 618.652 683.549 615.009 683.268C614.995 678.472 613.849 654.874 615.841 652.292Z"/>
	<path fill="#14BDAB" d="M615.404 549.722C633.267 551.152 650.783 547.86 666.614 539.482L666.574 571.522C652.875 581.826 632.133 584.591 615.488 582.902C615.851 571.8 615.791 560.826 615.404 549.722Z"/>
	<path fill="#5761F0" d="M400.957 693.671C421.484 697.426 443.135 696.884 460.862 684.776Q461.34 684.448 461.808 684.106Q461.837 696.312 461.496 708.514C453.807 718.504 443.499 722.305 431.261 723.849C421.408 725.091 410.75 724.561 400.964 722.802L400.957 693.671Z"/>
	<path fill="#14BDAB" d="M615.008 585.982C633.318 585.696 650.134 584.345 666.513 575.326L666.499 606.794C653.053 618.664 633.69 620.705 616.392 619.379C616.093 619.356 615.795 619.321 615.497 619.292C615.673 608.165 615.802 597.093 615.008 585.982Z"/>
	<path fill="#E12726" d="M294.624 737.547C314.774 742.261 338.446 742.954 356.687 731.644Q358.832 730.299 360.927 728.877C360.943 737.685 360.894 746.44 360.544 755.243C358.661 756.797 356.81 758.328 354.598 759.401C343.196 764.933 318.694 768.749 306.217 767.555C302.39 767.189 298.292 766.616 294.625 765.433Q294.536 751.49 294.624 737.547Z"/>
	<path fill="#5761F0" d="M401.084 661.701C420.666 664.75 443.156 665.402 459.883 653.07Q460.719 652.452 461.533 651.806Q461.595 665.181 461.496 678.555C452.258 689.041 440.772 691.909 427.168 692.811C418.294 693.399 409.629 692.831 400.975 690.767C400.759 681.052 400.606 671.412 401.084 661.701Z"/>
	<path fill="#5761F0" d="M400.918 628.673C418.94 631.867 441.499 633.205 457.27 622.074C458.85 620.958 460.315 619.674 461.774 618.407C461.879 627.558 461.917 636.667 461.459 645.81C455.673 654.275 446.315 657.499 436.632 659.299C424.929 661.475 412.633 660.816 400.972 658.74C400.47 648.84 400.927 638.602 400.918 628.673Z"/>
	<path fill="#5761F0" d="M400.942 595.655C418.333 599.079 441.831 599.078 457.195 588.918C458.891 587.796 460.409 586.429 461.92 585.075Q462.073 599.307 461.486 613.527C454.348 622.757 444.675 625.917 433.412 627.312C422.559 628.657 411.573 628.516 400.91 625.97L400.942 595.655Z"/>
	<path fill="#14BDAB" d="M615.502 476.8C632.63 477.776 652.198 475.251 666.537 465.35L666.536 501.511C652.859 513.552 632.68 513.699 615.453 513.045C616.167 500.926 615.9 488.927 615.502 476.8Z"/>
	<path fill="#F3CAA4" d="M338.171 435.169C344.384 435.065 351.426 432.227 357.566 430.924C369.193 428.457 380.855 426.723 392.525 424.564C404.927 422.27 419.007 418.123 431.606 418.877C412.179 427.284 392.594 435.338 373.229 443.887Q338.822 459.364 304.714 475.49C301.012 473.736 297.3 472.472 293.39 471.267C301.523 464.945 309.764 458.714 317.723 452.174C324.587 446.532 331.104 440.57 338.171 435.169Z"/>
	<path fill="#5761F0" d="M461.947 550.97Q462.119 565.64 461.76 580.307C452.032 591.005 440.173 593.876 426.098 594.526C417.641 594.916 409.052 594.454 400.759 592.681C400.852 587.329 399.892 564.575 401.363 561.407L402.398 561.214C420.483 563.7 443.341 565.291 458.684 553.572Q460.34 552.301 461.947 550.97Z"/>
	<path fill="#E12726" d="M294.869 705.748C315.703 709.786 339.321 711.906 357.839 699.342Q359.372 698.294 360.86 697.183Q361.058 711.096 360.514 725C348.12 736.502 331.76 738.75 315.365 738.125C308.274 737.855 301.495 736.911 294.683 734.922Q294.955 720.336 294.869 705.748Z"/>
	<path fill="#AEAEAE" d="M212.371 580.22C224.583 579.455 242.559 580.138 252.832 587.581C254.732 588.958 256.871 591.157 256.984 593.666C257.074 595.683 256.37 597.292 255.042 598.789C248.133 606.576 227.851 608.199 218.058 608.786C205.541 609.626 187.846 608.158 177.299 600.76C175.213 599.298 173.157 597.23 172.865 594.571C172.654 592.649 173.427 590.962 174.669 589.547C181.324 581.963 202.756 580.656 212.371 580.22Z"/>
	<path fill="#5761F0" d="M400.934 526.215C419.103 529.172 442.174 530.274 457.813 518.856Q459.699 517.481 461.478 515.97Q462.286 531.067 461.801 546.178C453.893 555.601 442.827 558.335 430.993 559.411C421.174 560.303 410.473 560.16 400.827 557.922C401.137 547.363 400.963 536.778 400.934 526.215Z"/>
	<path fill="#E12726" d="M295.066 639.986C314.028 643.916 338.84 645.829 355.949 634.788C357.677 633.673 359.302 632.356 360.912 631.079Q361.071 645.532 360.826 659.984C349.636 670.968 334.8 673.386 319.583 673.211C311.487 673.117 302.666 672.515 294.947 669.869L295.066 639.986Z"/>
	<path fill="#E12726" d="M295.437 607.027C317.276 610.743 341.171 611.912 360.132 598.485L360.593 598.154Q360.683 612.347 360.544 626.54C353.516 635.503 342.75 638.269 331.892 639.556C317.568 641.253 309.007 639.113 295.275 637.327Q295.517 622.178 295.437 607.027Z"/>
	<path fill="#AEAEAE" d="M313.743 543.201C326.645 542.289 345.894 542.796 356.96 550.367C359.084 551.82 361.108 553.854 361.483 556.514C361.749 558.4 361.032 560.14 359.831 561.569C353.877 568.649 335.629 571.8 326.916 572.562C313.498 574.272 294.651 573.225 283.094 565.326C280.683 563.679 278.022 561.186 277.6 558.131C277.328 556.169 277.988 554.374 279.261 552.893C285.736 545.361 304.429 543.745 313.743 543.201Z"/>
	<path fill="#F48F80" d="M781.237 283.335C786.961 275.969 795.637 273.878 804.484 272.783C819.81 270.886 843.079 270.171 856.051 280.279C858.209 281.961 860.456 284.314 860.837 287.148C861.072 288.898 860.422 290.478 859.331 291.819C852.488 300.23 834.735 302.693 824.756 303.405C814.668 304.125 799.974 303.069 790.776 298.341C788.014 296.921 784.63 293.458 782.143 292.48C780.647 288.867 780.302 287.205 781.237 283.335Z"/>
	<path fill="#E12726" d="M294.748 672.511C314.075 676.362 338.922 679.028 356.345 667.542C357.939 666.492 359.434 665.264 360.923 664.073C360.962 673.74 361.201 683.475 360.611 693.128C349.544 704.327 334.336 706.391 319.169 706.472C311.106 706.515 302.528 705.482 294.848 702.959Q295.006 687.734 294.748 672.511Z"/>
	<path fill="#F3CAA4" d="M777.482 502.74L777.843 607.082Q777.974 620.184 777.971 633.286C777.976 637.777 777.717 642.45 778.075 646.921Q777.697 658.529 777.49 670.142C773.545 670.876 769.589 672.217 765.718 673.294C766.078 629.04 764.707 584.731 765.784 540.485C766.453 528.795 766.18 517.144 765.996 505.446C769.751 504.342 773.654 503.558 777.482 502.74Z"/>
	<path fill="#E12726" d="M294.587 573.072C319.849 576.83 337.844 577.968 360.581 564.546C360.738 574.476 360.749 584.323 360.473 594.251C349.227 605.066 333.892 607.225 318.791 606.867C310.738 606.676 302.959 605.397 295.003 604.349Q294.898 588.709 294.587 573.072Z"/>
	<path fill="#AEAEAE" d="M712.449 366.696C725.549 365.066 742.892 366.632 754.467 373.541C757.586 375.403 760.867 378.123 761.681 381.852C762.158 384.036 761.639 386.16 760.329 387.955C754.69 395.681 739.384 398.131 730.621 399.262C717.083 401.049 698.958 399.842 687.485 391.701C684.698 389.724 682.073 386.957 681.561 383.44C681.185 380.855 681.992 378.445 683.659 376.461C690.013 368.897 703.341 367.715 712.449 366.696Z"/>
	<path fill="#E12726" d="M187.78 608.202C209.923 612.773 235.513 614.611 255.229 601.651Q256.388 600.903 257.506 600.095L257.499 627.079C250.656 636.107 239.72 638.651 229.012 640.154C215.018 642.119 201.587 640.456 187.981 637.033C186.199 636.453 184.57 635.763 182.892 634.931C183.258 625.562 183.018 616.133 182.989 606.757C184.639 607.159 186.207 607.556 187.78 608.202Z"/>
	<path fill="#272B6A" d="M182.989 606.757C184.639 607.159 186.207 607.556 187.78 608.202Q188.012 622.617 187.981 637.033C186.199 636.453 184.57 635.763 182.892 634.931C183.258 625.562 183.018 616.133 182.989 606.757Z"/>
	<path fill="#E12726" d="M188.009 639.681C208.294 643.874 234.186 647.292 252.611 635.34C254.376 634.196 255.976 632.871 257.504 631.431Q257.759 645.49 257.504 659.55C248.59 669.672 235.235 672.225 222.311 673.028C210.485 673.762 199.485 672.405 188.03 669.525C186.296 668.894 184.632 668.052 182.963 667.268C183.473 657.489 183.329 647.85 183.065 638.066C184.695 638.569 186.453 638.984 188.009 639.681Z"/>
	<path fill="#272B6A" d="M183.065 638.066C184.695 638.569 186.453 638.984 188.009 639.681L188.03 669.525C186.296 668.894 184.632 668.052 182.963 667.268C183.473 657.489 183.329 647.85 183.065 638.066Z"/>
	<path fill="#E12726" d="M188.05 704.141C208.436 709.219 233.343 711.525 252.2 700.142C254.246 698.907 256.105 697.426 257.951 695.917C257.989 705.214 258.083 714.529 257.713 723.82C247.704 734.796 234.125 737.09 219.785 737.714C208.949 738.186 198.399 737.178 188.04 733.888L182.961 731.774Q183.245 717.068 183.026 702.36C184.693 702.908 186.474 703.37 188.05 704.141Z"/>
	<path fill="#272B6A" d="M183.026 702.36C184.693 702.908 186.474 703.37 188.05 704.141L188.04 733.888L182.961 731.774Q183.245 717.068 183.026 702.36Z"/>
	<path fill="#E12726" d="M188.009 671.873C207.708 677.441 232.73 678.843 251.17 668.476Q254.727 666.461 257.763 663.725L257.498 692.107C249.071 701.979 236.532 704.553 224.1 705.519Q217.815 705.974 211.523 705.642Q205.23 705.31 199.028 704.197C195.394 703.525 191.649 702.318 187.994 701.907Q185.462 700.631 182.977 699.266C183.214 689.608 183.017 679.91 183.001 670.248C184.675 670.771 186.362 671.27 188.009 671.873Z"/>
	<path fill="#272B6A" d="M183.001 670.248C184.675 670.771 186.362 671.27 188.009 671.873L187.994 701.907Q185.462 700.631 182.977 699.266C183.214 689.608 183.017 679.91 183.001 670.248Z"/>
	<path fill="#E12726" d="M188.054 736.107C207.649 742.161 232.392 742.553 250.859 732.663C253.458 731.271 255.551 729.72 257.763 727.767Q258.149 742.106 257.725 756.443C248.17 766.889 234.921 769.265 221.257 769.854C209.851 770.345 199.002 768.36 188.011 765.528C185.999 764.802 184.234 764.072 182.439 762.899C183.901 760.486 183.066 739.018 183.039 734.292C184.67 734.849 186.54 735.301 188.054 736.107Z"/>
	<path fill="#272B6A" d="M183.039 734.292C184.67 734.849 186.54 735.301 188.054 736.107L188.011 765.528C185.999 764.802 184.234 764.072 182.439 762.899C183.901 760.486 183.066 739.018 183.039 734.292Z"/>
	<path fill="#65DDF9" d="M612.766 411.685C626.33 409.865 648.956 410.938 660.368 419.328C663.089 421.328 665.847 424.24 666.304 427.739C666.563 429.723 665.808 431.611 664.576 433.14C658.524 440.65 644.986 442.699 636.119 443.937C620.841 445.836 602.66 445.512 589.336 436.989C586.629 435.257 583.697 432.871 583.108 429.515C582.647 426.891 583.614 424.273 585.242 422.229C591.423 414.469 603.616 412.743 612.766 411.685Z"/>
	<path fill="#899CE2" d="M413.475 491.202C426.403 489.964 442.786 491.455 453.765 499.09C456.658 501.102 459.361 503.943 459.879 507.569C460.256 510.204 459.359 512.68 457.67 514.694C451.08 522.555 435.57 524.073 426.124 524.953C412.039 525.619 395.636 525.184 383.873 516.288C381.172 514.246 378.413 511.328 378.015 507.801C377.749 505.442 378.717 503.303 380.282 501.586C387.494 493.675 403.541 491.908 413.475 491.202Z"/>
	<path fill="#899CE2" d="M511.86 479.696C524.505 477.441 547.924 480.05 559.346 486.613C562.796 488.595 566.603 491.536 567.522 495.624C568.014 497.814 567.52 499.96 566.221 501.782C560.773 509.419 546.03 512.404 537.481 513.86C523.902 515.855 506.815 515.264 494.1 509.986C487.217 507.129 482.955 503.019 480.152 496.123C480.984 494.272 481.771 492.279 483.027 490.671C489.854 481.929 501.693 480.92 511.86 479.696Z"/>
	<path fill="#272B6A" d="M567.97 502.754L567.978 530.961C557.702 543.354 550.259 546.63 534.258 548.196C522.394 549.358 497.437 549.04 487.452 541.917C489.489 537.166 488.037 517.019 487.974 510.798C507.69 519.132 532.454 521.116 552.624 512.998C558.498 510.634 563.607 507.362 567.97 502.754Z"/>
	<path fill="#272B6A" d="M488.55 686.851C507.862 694.02 537.006 696.663 556.249 687.886C560.788 685.816 564.5 683.075 567.969 679.511L568.014 716.737C544.558 723.528 524.824 728.404 500.497 721.075C496.67 719.921 491.444 718.546 488.133 716.297C488.024 716.224 487.94 716.119 487.843 716.03C490.743 710.047 488.735 694.005 488.55 686.851Z"/>
	<path fill="#272B6A" d="M488.021 652.138C493.637 653.758 499.299 655.566 505.039 656.689C521.948 659.996 543.928 660.283 559.467 651.787C562.778 649.976 565.435 647.926 568.105 645.267Q568.208 659.868 567.961 674.468C561.758 683.29 552.469 687.09 542.111 688.846C527.448 691.333 500.224 691.178 487.44 682.923C489.804 678.409 487.989 658.422 488.021 652.138Z"/>
	<path fill="#272B6A" d="M489.018 617.414C509.454 624.305 538.051 625.943 557.689 616.055C561.645 614.063 564.944 611.555 568.255 608.64C568.534 619.164 568.513 629.537 567.908 640.05C563.453 647.337 555.337 651.312 547.273 653.23C531.531 656.974 502.022 657.029 487.867 648.472C490.302 643.641 489.013 623.461 489.018 617.414Z"/>
	<path fill="#272B6A" d="M567.819 572.895C569.589 582.223 568.257 593.635 567.941 603.179Q567.123 604.306 566.256 605.395C558.732 614.789 546.15 617.993 534.717 619.275C517.621 621.192 495.365 620.119 481.422 608.915C481.303 608.828 481.175 608.752 481.066 608.654C478.972 606.77 479.978 581.28 480.007 577.043C493.869 585.838 511.998 587.828 528.081 587.261C542.439 586.755 557.707 583.802 567.819 572.895Z"/>
	<path fill="#272B6A" d="M568.306 536.361C569.504 544.096 569.917 563.563 566.166 570.312C562.77 576.424 555.367 579.4 548.948 581.167C532.587 585.67 510.43 585.73 494.26 580.35C489.258 578.685 484.828 576.216 480.274 573.614C479.073 569.805 480.027 547.098 480.063 541.096C492.859 549.223 507.071 551.799 522.103 551.845C539.476 551.899 555.635 548.887 568.306 536.361Z"/>
	<path fill="#AEAEAE" d="M410.236 373.786C421.519 379.649 432.452 386.194 443.34 392.754C450.806 397.027 458.223 401.521 465.911 405.376C456.512 409.401 446.745 414.328 436.72 416.428C435.132 417.296 433.383 418.497 431.606 418.877C419.007 418.123 404.927 422.27 392.525 424.564C380.855 426.723 369.193 428.457 357.566 430.924C351.426 432.227 344.384 435.065 338.171 435.169C345.746 427.577 354.904 421.152 363.117 414.236L410.236 373.786ZM443.34 392.754C432.062 398.602 420.906 404.62 409.518 410.262C400.572 414.695 391.156 418.696 382.606 423.845C392.872 421.161 404.325 420.504 414.891 419.102C421.982 418.161 429.613 416.456 436.72 416.428C446.745 414.328 456.512 409.401 465.911 405.376C458.223 401.521 450.806 397.027 443.34 392.754Z"/>
	<path fill="#FED560" d="M645.046 292.738C652.501 285.065 660.047 277.204 668.608 270.748C690.045 254.582 716.769 250.439 742.616 246.869C755.365 245.108 767.98 242.647 780.883 242.442C772.259 251.851 762.715 260.214 753.661 269.19C738.283 284.433 723.064 300.12 707.112 314.741Q687.357 307.411 667.51 300.337C660.133 297.706 652.641 294.668 645.046 292.738Z"/>
	<path fill="#F3CAA4" d="M151.154 485.834C157.551 484.905 164.084 482.183 170.22 480.153C179.82 476.977 189.398 473.845 199.1 470.99Q213.811 466.592 228.654 462.666C234.057 461.25 240.381 460.337 245.471 458.09Q262.576 464.952 279.486 472.28L195.009 516.537C180.949 523.919 166.976 531.79 152.693 538.703L151.912 504.138C151.763 498.158 152.055 491.741 151.154 485.834Z"/>
	<path fill="#0F7050" d="M682.032 418.388C689.638 423.812 696.461 426.875 705.496 429.274C705.082 459.011 705.507 488.726 705.487 518.461L704.985 625.171C704.972 636.543 706.46 681.745 704.532 688.329C704.201 689.462 704.484 689.044 703.384 689.639L684.514 693.294L682.032 418.388Z"/>
	<path fill="#E12726" d="M779.79 325.745L803.492 329.253L803.998 662.717Q791.803 665.874 779.696 669.354L779.569 600.115C779.543 588.961 780.308 577.207 779.433 566.139C780.383 537.168 779.548 507.906 779.562 478.905L779.625 433.605C779.641 424.984 779.912 416.267 779.505 407.657C780.336 380.408 779.563 353.014 779.79 325.745Z"/>
	<path fill="#F3CAA4" d="M777.343 673.34C777.43 674.798 777.428 676.257 777.557 677.714C777.907 681.651 780.688 685.321 783.689 687.719C795.249 696.955 815.078 698.027 829.126 696.551C844.55 694.93 853.092 692.369 863.023 680.168C862.329 685.8 860.921 689.452 856.247 693.057C854.934 694.07 852.944 694.987 852.558 696.612C848.28 698.59 842.649 699.233 838.026 700.241Q819.249 704.263 800.418 708.024L666.73 736.248L334 806.905L243.428 825.439L218.597 830.404C213.713 831.374 208.579 832.708 203.606 832.993C197.418 829.748 190.006 827.867 183.497 825.126C173.449 820.894 163.729 815.807 153.916 811.059C153.69 808.854 153.804 806.497 153.755 804.271L170.389 800.846C171.274 801.94 172.167 803.047 173.177 804.028C183.6 814.156 204.487 815.609 218.091 815.573C229.831 815.541 248.163 814.436 256.85 805.298C262.499 799.355 261.194 790.287 260.934 782.775C265.728 781.526 270.586 780.556 275.433 779.545Q276.722 780.978 278.094 782.333C288.86 793.017 306.396 795.268 320.85 795.204C332.6 795.152 350.472 794.034 359.183 784.875C364.984 778.774 363.649 769.408 363.478 761.663C367.976 761.236 372.521 760.249 376.981 759.503C377.894 760.854 378.843 762.127 379.988 763.294C389.34 772.83 405.321 775.069 417.992 775.35C430.516 775.627 450.275 774.135 459.712 764.648C465.719 758.61 464.595 749.998 464.443 742.22Q471.703 741.073 478.882 739.499C479.779 740.697 480.684 741.921 481.75 742.974C491.332 752.44 512.16 754.492 524.818 754.288C537.729 754.08 556.249 753.218 565.647 743.068C571.328 736.933 570.212 728.204 569.981 720.516Q575.268 719.405 580.53 718.179C581.594 719.44 582.667 720.723 583.877 721.847C595.471 732.617 616.213 734.445 631.191 734.008C642.189 733.687 656.857 731.988 664.743 723.3C670.591 716.858 669.402 707.733 669.067 699.721C673.366 699.056 677.657 698.054 681.926 697.206C683.292 699.63 684.605 701.783 686.671 703.699C697.949 714.162 716.72 716.247 731.377 715.768C740.8 715.46 754.6 713.802 761.272 706.362C767.766 699.121 765.913 685.486 765.558 676.501C769.506 675.539 773.421 674.406 777.343 673.34Z"/>
	<path fill="#FED560" d="M594.027 280.96C600.933 283.709 608.132 285.978 615.14 288.475C622.363 291.048 629.607 293.929 636.982 296.021L640.822 297.192C659.34 303.309 677.585 309.845 695.863 316.645C697.057 317.055 698.286 317.423 699.447 317.919C674.304 339.488 648.408 359.203 619.318 375.226Q613.883 378.217 608.288 380.897Q602.693 383.576 596.956 385.935Q591.218 388.294 585.357 390.325Q579.495 392.356 573.528 394.052C567.177 395.815 557.452 395.908 551.901 398.935C547.701 401.226 544.256 406.512 541.384 410.255C535.513 416.224 525.225 426.468 521.996 433.788L517.861 431.594C506.041 426.224 495.097 417.602 484.321 410.396C482.844 409.447 479.743 407.984 479.096 406.368L480.045 405.898C488.847 401.171 499.645 400.068 506.831 392.454C509.777 389.332 511.953 385.408 514.705 382.095L515.014 381.727C523.664 371.661 531.362 360.425 539.563 349.955L594.027 280.96ZM636.982 296.021C617.695 317.016 598.608 338.011 579.942 359.562C573.27 367.265 566.419 374.843 559.811 382.595C556.06 386.995 552.748 391.866 548.7 395.992C541.606 396.892 534.601 398.384 527.589 399.767C523.774 393.4 519.747 387.452 515.014 381.727L514.705 382.095C511.953 385.408 509.777 389.332 506.831 392.454C499.645 400.068 488.847 401.171 480.045 405.898L479.096 406.368C479.743 407.984 482.844 409.447 484.321 410.396C495.097 417.602 506.041 426.224 517.861 431.594L521.996 433.788C525.225 426.468 535.513 416.224 541.384 410.255C544.256 406.512 547.701 401.226 551.901 398.935C557.452 395.908 567.177 395.815 573.528 394.052Q579.495 392.356 585.357 390.325Q591.218 388.294 596.956 385.935Q602.693 383.576 608.288 380.897Q613.883 378.217 619.318 375.226C648.408 359.203 674.304 339.488 699.447 317.919C698.286 317.423 697.057 317.055 695.863 316.645C686.634 326.075 676.072 333.833 665.473 341.625C637.515 362.179 607.893 381.08 574.216 390.657C567.814 392.478 561.444 394.201 554.798 394.844C562.216 385.314 570.582 376.333 578.478 367.174C598.917 343.471 619.821 320.382 640.822 297.192L636.982 296.021Z"/>
	<path fill="#14BDAB" d="M636.982 296.021L640.822 297.192C619.821 320.382 598.917 343.471 578.478 367.174C570.582 376.333 562.216 385.314 554.798 394.844C561.444 394.201 567.814 392.478 574.216 390.657C607.893 381.08 637.515 362.179 665.473 341.625C676.072 333.833 686.634 326.075 695.863 316.645C697.057 317.055 698.286 317.423 699.447 317.919C674.304 339.488 648.408 359.203 619.318 375.226Q613.883 378.217 608.288 380.897Q602.693 383.576 596.956 385.935Q591.218 388.294 585.357 390.325Q579.495 392.356 573.528 394.052C567.177 395.815 557.452 395.908 551.901 398.935C547.701 401.226 544.256 406.512 541.384 410.255C535.513 416.224 525.225 426.468 521.996 433.788L517.861 431.594C506.041 426.224 495.097 417.602 484.321 410.396C482.844 409.447 479.743 407.984 479.096 406.368L480.045 405.898C488.847 401.171 499.645 400.068 506.831 392.454C509.777 389.332 511.953 385.408 514.705 382.095L515.014 381.727C519.747 387.452 523.774 393.4 527.589 399.767C534.601 398.384 541.606 396.892 548.7 395.992C552.748 391.866 556.06 386.995 559.811 382.595C566.419 374.843 573.27 367.265 579.942 359.562C598.608 338.011 617.695 317.016 636.982 296.021ZM480.045 405.898C481.138 406.447 481.988 406.796 483.229 406.802C488.592 406.828 494.314 405.402 499.611 404.51L527.589 399.767C523.774 393.4 519.747 387.452 515.014 381.727L514.705 382.095C511.953 385.408 509.777 389.332 506.831 392.454C499.645 400.068 488.847 401.171 480.045 405.898Z"/>
	<path fill="#FED560" d="M531.852 402.014C536.929 401.011 541.98 399.992 547.005 398.75Q542.774 403.411 538.439 407.975C536.121 406.152 534.01 404.024 531.852 402.014Z"/>
	<path fill="#FEEEE3" d="M484.321 410.396C490.381 408.498 497.126 407.668 503.383 406.635L531.852 402.014C534.01 404.024 536.121 406.152 538.439 407.975C531.579 415.823 525.019 424.027 517.861 431.594C506.041 426.224 495.097 417.602 484.321 410.396Z"/>
	<path fill="#FED560" d="M594.027 280.96C600.933 283.709 608.132 285.978 615.14 288.475C622.363 291.048 629.607 293.929 636.982 296.021C617.695 317.016 598.608 338.011 579.942 359.562C573.27 367.265 566.419 374.843 559.811 382.595C556.06 386.995 552.748 391.866 548.7 395.992C541.606 396.892 534.601 398.384 527.589 399.767C523.774 393.4 519.747 387.452 515.014 381.727C523.664 371.661 531.362 360.425 539.563 349.955L594.027 280.96Z"/>
	<path fill="#1C9871" d="M762.175 419.453L762.623 419.589C763.981 423.318 763.346 475.347 763.353 482.555L763.287 674.143Q736.491 682.102 709.235 688.309L708.59 688.208C707.998 687.366 708.036 686.735 708.006 685.733C707.723 676.137 708.007 666.47 708.016 656.864L708.022 600.829L708.018 429.452C727.562 431.311 744.862 428.933 762.175 419.453Z"/>
	<path fill="#FED560" d="M699.447 317.919C702.416 319.2 705.406 320.449 708.35 321.786L711.741 318.731Q738.563 321.671 765.457 323.854C769.537 324.425 773.625 324.832 777.724 325.229C778.685 384.378 776.98 443.582 777.482 502.74C773.654 503.558 769.751 504.342 765.996 505.446C766.18 517.144 766.453 528.795 765.784 540.485C764.696 503.299 765.38 466.068 765.495 428.871L765.641 399.781C765.678 394.825 766.163 389.3 765.477 384.415C764.963 380.76 763.483 377.589 760.851 374.983C751.58 365.805 732.952 362.85 720.507 362.804C708.74 362.761 691.51 365.324 682.903 374.117C680.146 376.934 679.669 379.86 679.397 383.695C678.571 395.325 679.561 407.706 679.679 419.401L680.307 490.808L681.989 693.719L669.027 696.486C668.674 673.107 668.968 649.675 668.953 626.291L668.931 441.47C668.891 434.005 669.871 424.213 663.986 418.663C653.254 408.54 632.487 407.763 618.535 408.077C607.507 408.325 592.59 410.818 584.768 419.385C580.65 423.896 580.982 428.572 581.254 434.262C567.191 428.11 554.009 418.897 541.384 410.255C544.256 406.512 547.701 401.226 551.901 398.935C557.452 395.908 567.177 395.815 573.528 394.052Q579.495 392.356 585.357 390.325Q591.218 388.294 596.956 385.935Q602.693 383.576 608.288 380.897Q613.883 378.217 619.318 375.226C648.408 359.203 674.304 339.488 699.447 317.919Z"/>
	<path fill="#F3CAA4" d="M152.999 552.649C167.816 548.912 182.833 546.29 197.776 543.153L270.884 527.437L341.062 512.752C352.516 510.323 363.988 507.09 375.527 505.241C375.031 543.953 375.818 582.741 375.718 621.466C375.603 666.191 374.691 711.092 376.052 755.792L370.388 756.688L369.244 753.997C369.328 753.201 369.436 752.383 369.439 751.582C369.443 750.45 369.421 749.988 368.598 749.144C366.707 749.562 364.913 751.755 363.513 753.064L363.533 606.869L363.597 573.139C363.663 567.62 364.608 560.712 363.59 555.375C362.993 552.245 361.006 549.839 358.43 548.068C343.654 537.912 312.228 539.175 295.208 542.732C287.304 544.384 279.092 547.309 274.514 554.358Q273.735 665.31 274.514 776.26L260.96 779.299L260.598 656.882C260.562 634.924 261.132 612.885 260.479 590.943C259.473 589.738 258.42 588.491 257.278 587.41C246.945 577.621 228.032 577.305 214.71 577.302C202.377 577.299 181.645 578.256 172.505 587.946C170.281 590.303 169.935 594.577 169.678 597.728C169.095 604.879 169.469 612.279 169.468 619.462L169.431 659.15Q168.889 726.685 169.499 794.22Q161.562 796.058 153.53 797.423L152.999 552.649Z"/>
	<path fill="#E12726" d="M860.384 319.474C861.476 321.45 861.056 325.413 861.069 327.673L860.478 679.019C859.188 681.076 857.527 682.911 855.702 684.507C842.522 696.031 822.977 694.523 806.735 693.424C805.538 679.89 806.486 666.098 806.48 652.513L806.161 578.445L806.011 329.974C825.636 331.063 843.113 329.522 860.384 319.474Z"/>
	<path fill="#F3CAA4" d="M222.691 836.513Q424.516 797.028 625.303 752.562L726.336 731.015C756.514 724.445 786.838 717.455 817.291 712.304C808.411 720.312 799.499 726.969 793.33 737.397C788.879 741.819 786.722 745.579 786.681 752.049Q786.684 755.06 786.874 758.064C766.64 742.183 742.375 740.085 717.509 743.006C705.892 744.37 690.257 747.725 682.475 757.356C677.236 763.841 678.303 772.26 678.866 780.021C653.404 770.896 622.566 768.925 597.595 780.882C591.568 783.768 585.686 787.882 583.384 794.459C580.693 802.147 581.111 822.291 582.171 830.738Q555.549 836.06 528.693 840.041Q501.837 844.022 474.816 846.652Q447.794 849.282 420.675 850.554Q393.555 851.827 366.406 851.738C354.756 851.731 343.034 851.97 331.393 851.608C308.247 850.888 284.504 848.369 261.68 844.592C249.041 842.501 234.711 840.96 222.691 836.513Z"/>
	<path fill="#F3CAA4" d="M471.171 409.353C481.046 414.783 490.396 420.863 499.869 426.953C504.956 430.223 510.233 434.128 515.714 436.688C517.118 437.345 517.516 437.356 519.072 437.208C520.584 436.331 521.146 435.243 521.996 433.788C525.225 426.468 535.513 416.224 541.384 410.255C554.009 418.897 567.191 428.11 581.254 434.262L581.049 435.51L581.029 437.742L580.999 714.275C577.334 714.935 573.695 715.63 570.066 716.464L570.432 570.106Q570.533 545.474 570.153 520.844C570.057 513.826 570.583 506.531 569.81 499.557C569.303 494.974 568.544 490.996 565.129 487.641C554.485 477.185 534.682 475.668 520.685 476.046C508.23 476.382 490.931 477.803 481.793 487.542C478.707 490.832 478.076 494.346 477.712 498.677C477.029 506.796 477.886 515.27 477.905 523.436L477.879 577.018C477.898 629.99 477.4 683.032 478.035 735.998L464.407 738.26C463.7 717.52 464.203 696.689 464.279 675.935L464.476 574.372L464.493 535.154C464.492 527.57 464.916 519.636 464.028 512.101C463.426 506.995 462.574 502.949 458.622 499.315C447.028 488.656 426.02 487.587 411.234 488.544C399.54 489.302 384.893 491.934 376.915 501.338C376.508 501.817 376.21 502.233 375.937 502.796L375.527 505.241C363.988 507.09 352.516 510.323 341.062 512.752L270.884 527.437L197.776 543.153C182.833 546.29 167.816 548.912 152.999 552.649L152.74 550.614L153.065 546.738C153.821 545.221 155.377 544.45 156.78 543.603C166.946 537.462 177.902 532.302 188.414 526.759L247 495.855C260.119 488.991 273.438 482.494 286.224 475.019C291.902 477.782 298.214 479.753 304.138 481.986C305.636 481.733 307.166 481.242 308.642 480.861C310.17 479.734 311.852 479.03 313.575 478.254C364.551 452.706 418.359 430.784 471.171 409.353Z"/>
	<path fill="#14BDAB" d="M152.74 550.614C170.19 545.535 188.165 542.499 205.899 538.661L321.575 514.645Q339.18 511.054 356.725 507.181C363.116 505.787 369.655 504.612 375.937 502.796L375.527 505.241C363.988 507.09 352.516 510.323 341.062 512.752L270.884 527.437L197.776 543.153C182.833 546.29 167.816 548.912 152.999 552.649L152.74 550.614Z"/>
	<path fill="#14BDAB" d="M313.575 478.254C323.329 482.428 365.318 477.293 377 475.662C399.793 472.481 422.402 467.754 445.015 463.511C467.853 459.225 490.849 455.37 513.576 450.556C536.129 445.779 558.384 439.789 581.049 435.51L581.029 437.742Q519.248 451.898 456.955 463.598C424.236 469.873 391.733 475.991 358.553 479.335C342.14 480.989 325.108 482.429 308.642 480.861C310.17 479.734 311.852 479.03 313.575 478.254Z"/>
	<path fill="#F3CAA4" d="M471.171 409.353C481.046 414.783 490.396 420.863 499.869 426.953C504.956 430.223 510.233 434.128 515.714 436.688C517.118 437.345 517.516 437.356 519.072 437.208C520.584 436.331 521.146 435.243 521.996 433.788C525.225 426.468 535.513 416.224 541.384 410.255C554.009 418.897 567.191 428.11 581.254 434.262L581.049 435.51C558.384 439.789 536.129 445.779 513.576 450.556C490.849 455.37 467.853 459.225 445.015 463.511C422.402 467.754 399.793 472.481 377 475.662C365.318 477.293 323.329 482.428 313.575 478.254C364.551 452.706 418.359 430.784 471.171 409.353Z"/>
	<path fill="#AEAEAE" d="M158.233 247.939C162.318 244.989 165.965 241.27 169.742 237.932C176.466 231.99 183.364 226.263 190.8 221.225C243.596 185.46 313.602 176.06 375.842 183.182C407.1 186.759 437.652 194.199 468.446 200.337C485.379 203.713 502.519 205.831 519.44 209.059C514.873 214.817 510.054 220.514 505.873 226.556C488.059 252.305 482.532 279.514 486.013 310.373C486.617 315.722 491.685 335.82 491.123 338.933C490.969 339.186 490.812 339.437 490.662 339.692C487.79 344.544 486.086 350.229 483.227 355.207C475.222 369.145 462.688 379.728 450.288 389.621C436.973 381.611 423.887 373.215 409.742 366.721C401.743 372.829 394.585 379.65 386.925 386.135L345.272 421.16C338.952 426.516 330.13 435.559 323.393 439.553C318.386 439.194 264.138 453.531 258.561 456.521C245.091 450.81 231.793 444.808 218.447 438.817C209.52 442.69 201.209 447.821 192.729 452.554Q171.566 464.156 150.797 476.449L150.099 248.069Q152.977 251.72 156.102 255.163C158.006 257.244 160.969 260.674 163.902 260.816C164.847 260.08 164.941 259.728 165.014 258.493C165.228 254.851 160.519 250.556 158.233 247.939Z"/>
	<path fill="#14BDAB" d="M239.54 396.302C240.449 396.419 241.421 396.591 242.266 396.966C243.414 397.477 244.405 398.484 244.702 399.725C245.328 402.341 243.834 404.323 242.334 406.276C241.369 406.01 240.343 405.749 239.493 405.207C238.181 404.371 237.263 403.109 237.148 401.519C236.983 399.219 238.164 397.957 239.54 396.302Z"/>
	<path d="M403.099 316.907C405.27 317.257 408.209 317.785 409.628 319.673C410.608 320.977 410.891 322.324 410.595 323.904C409.692 328.713 405.461 332.156 401.588 334.653C403.006 332.413 404.33 330.602 406.262 328.756C407.35 326.941 408.385 324.822 407.723 322.665C407.041 320.44 406.821 319.781 404.826 318.595C402.896 320.044 401.891 323.441 400.964 325.624L400.578 325.05C400.418 321.191 400.511 319.946 403.099 316.907Z"/>
	<path fill="#14BDAB" d="M233.559 389.712C233.969 389.75 234.163 389.753 234.593 389.874C235.694 390.185 236.638 390.608 237.133 391.702C238.781 395.341 235.137 401.499 233.513 404.761C232.999 404.877 233.32 404.845 232.55 404.7C232.616 404.284 232.659 403.864 232.749 403.453C233.23 401.257 232.291 399.588 231.889 397.44C231.225 393.892 231.469 392.735 233.559 389.712Z"/>
	<path fill="#14BDAB" d="M419.137 323.244C419.978 323.407 420.959 323.54 421.75 323.864C422.965 324.361 423.911 325.262 424.405 326.492C425.41 328.992 424.105 331.66 422.963 333.839C422.15 333.78 421.29 333.733 420.5 333.524C419.226 333.186 418.118 332.224 417.632 330.997C416.604 328.399 418.041 325.542 419.137 323.244Z"/>
	<path d="M220.031 389.975C222.992 389.926 225.959 390.212 228.912 390.413C226.272 391.332 223.543 392.08 221.519 394.089C222.073 395.78 225.609 396.284 227.111 397.531C228.016 398.281 228.528 399.267 228.474 400.461C228.403 402.036 226.927 403.46 225.953 404.59C225.824 404.654 225.706 404.743 225.568 404.782C223.652 405.32 220.238 405.346 218.493 404.453L218.473 403.541C219.949 402.618 222.534 403.055 224.379 402.641C225.161 401.81 225.501 401.547 225.414 400.305C225.323 398.989 224.819 398.242 223.919 397.351C222.516 396.962 221.4 396.722 220.306 395.689C219.556 393.809 219.873 391.942 220.031 389.975Z"/>
	<path d="M387.991 317.012C390.318 316.912 393.362 316.986 395.205 318.615C396.214 319.507 396.505 320.497 396.509 321.806C396.524 325.858 392.653 329.118 389.947 331.605C392.194 331.608 394.712 331.551 396.536 333.007C395.463 333.665 394.753 333.662 393.538 333.787L384.21 333.856C387.144 331.438 393.471 326.919 393.714 322.878C393.926 319.355 388.368 320.458 386.863 318.699L387.991 317.012Z"/>
	<path d="M208.487 389.478C209.587 389.444 210.755 389.369 211.842 389.564Q212.155 389.618 212.461 389.707Q212.766 389.795 213.06 389.916Q213.354 390.038 213.633 390.19Q213.912 390.343 214.173 390.525Q214.433 390.708 214.672 390.917Q214.911 391.127 215.126 391.362Q215.341 391.596 215.529 391.853Q215.716 392.109 215.875 392.385C217.022 394.369 216.996 396.842 216.297 398.971C215.488 401.436 213.693 403.687 211.29 404.746C209.075 405.723 207.433 405.164 205.253 404.383L205.202 403.928C206.148 402.627 211.432 403.257 213.653 401.445C214.111 400.396 214.278 400.111 214.175 398.989C212.575 398.625 210.98 398.399 209.373 398.088C207.646 397.753 206.926 397.252 205.935 395.825C205.654 393.24 206.942 391.409 208.487 389.478Z"/>
	<path fill="#AEAEAE" d="M209.469 390.672C210.197 390.811 211.007 390.93 211.695 391.207C212.92 391.7 213.32 392.348 213.901 393.468C213.986 395.224 213.363 396.288 212.589 397.794C211.9 397.657 211.723 397.645 211.004 397.384C209.7 396.91 208.941 396.125 208.333 394.899C208.094 393.099 208.614 392.232 209.469 390.672Z"/>
	<path fill="#FED560" d="M519.44 209.059C572.859 149.364 658.818 111.817 738.254 107.535C789.778 104.757 838.571 121.298 876.914 155.84C928.483 202.295 972.867 294.289 976.436 363.697C977.869 391.549 971.772 419.234 952.664 440.321C948.599 444.807 944.092 448.619 939.392 452.404C922.349 464.119 907.766 472.243 888.314 479.63C881.69 482.146 868.562 485.682 863.379 488.456L863.446 351.407Q863.383 334.061 863.511 316.717C863.641 308.138 864.33 299.311 863.58 290.762C863.213 286.579 862.908 282.967 859.878 279.794C850.554 270.028 832.885 268.664 820.266 268.499C806.005 268.312 790.971 270.296 780.374 280.63C775.46 289.086 777.701 312.95 777.715 323.563L772.598 322.87C764.935 321.602 756.964 321.262 749.226 320.603Q731.068 319.043 712.928 317.292C723.074 306.939 733.72 297.142 744.086 287.019L791.418 240.481C792.504 239.256 793.757 238.154 794.946 237.027C799.143 232.835 831.852 198.769 833.405 198.123C833.716 200.741 832.903 202.982 835.106 204.894C836.588 204.728 837.415 204.279 838.385 203.116C841.17 199.775 845.862 184.722 845.517 180.406C845.446 179.519 845.412 179.52 845.194 178.791C842.908 178.022 829.116 184.109 826.49 185.453C824.228 186.609 821.992 187.9 820.89 190.274C821.225 191.338 820.922 191.094 821.771 191.555C824.04 192.788 827.558 192.453 830.019 192.103C819.532 204.038 807.896 215.173 796.728 226.476C792.814 230.438 787.919 234.447 784.488 238.761L780.883 242.442C767.98 242.647 755.365 245.108 742.616 246.869C716.769 250.439 690.045 254.582 668.608 270.748C660.047 277.204 652.501 285.065 645.046 292.738C643.779 292.53 642.69 291.913 641.548 291.356C625.238 285.412 608.954 279.464 592.327 274.459C577.588 291.649 563.862 309.564 549.919 327.391C536.629 344.385 523.16 361.188 510.383 378.578C501.123 367.708 496.089 352.175 491.123 338.933C491.685 335.82 486.617 315.722 486.013 310.373C482.532 279.514 488.059 252.305 505.873 226.556C510.054 220.514 514.873 214.817 519.44 209.059Z"/>
	<path d="M579.417 224.988C581.461 224.935 585.293 225.119 586.84 226.627C587.848 227.611 588.179 228.324 588.185 229.736C588.198 233.218 584.39 236.793 582.262 239.201C583.666 239.095 585.157 238.908 586.543 239.214C587.629 239.453 588.092 239.495 588.722 240.417C587.634 241.042 587.079 241.068 585.856 241.254L576.926 241.267C580.453 237.874 584.905 235.278 586.111 230.212C585.34 226.674 581.79 228.566 579.579 226.737L579.417 224.988Z"/>
	<path d="M594.046 225.445C595.874 225.356 597.264 225.199 598.73 226.517C600.345 227.968 601.089 230.159 601.083 232.294C601.076 234.883 600.063 237.591 598.17 239.394C596.154 241.314 593.886 241.313 591.266 241.138C592.745 238.794 596.161 239.429 597.874 236.627C597.525 234.462 592.01 233.189 590.229 231.429C590.016 230.825 589.686 230.334 589.869 229.685C590.431 227.687 592.374 226.443 594.046 225.445Z"/>
	<path fill="#FED560" d="M594.722 226.671C595.221 226.861 596.049 227.108 596.495 227.442C597.641 228.302 597.813 228.783 598.2 230.08C597.969 231.799 597.411 232.523 596.299 233.827C596.075 233.758 595.84 233.719 595.629 233.619C594.273 232.976 593.533 232.032 592.942 230.732C592.928 228.913 593.694 228.057 594.722 226.671Z"/>
	<path fill="#14BDAB" d="M794.946 237.027C806.072 236.971 870.744 231.04 875.91 233.208L876.332 233.906C875.859 234.854 876.11 234.781 874.974 235.195C869.182 237.305 853.349 236.347 846.467 236.641C835.6 237.106 824.671 238.006 813.842 238.99C806.327 239.673 798.984 240.663 791.418 240.481C792.504 239.256 793.757 238.154 794.946 237.027Z"/>
	<path fill="#14BDAB" d="M641.548 291.356C651.794 280.603 661.98 270.366 674.813 262.634C703.925 245.092 750.947 242.486 784.488 238.761L780.883 242.442C767.98 242.647 755.365 245.108 742.616 246.869C716.769 250.439 690.045 254.582 668.608 270.748C660.047 277.204 652.501 285.065 645.046 292.738C643.779 292.53 642.69 291.913 641.548 291.356Z"/>
</svg>
