<?xml version="1.0" encoding="utf-8" ?>
<svg width="150" height="150" viewBox="-20 70 1000 1000">
	<path fill="#E12726" d="M780.513 391.419C807.354 394.648 824.272 401.148 847.25 414.652C860.958 424.325 872.65 435.181 884.365 447.125C905.551 440.408 932.743 438.558 953.079 449.048C960.851 453.058 967.277 459.335 970.004 467.813C972.793 476.481 970.961 485.8 966.84 493.71C957.939 510.796 942.29 521.045 925.957 530.113C936.725 576.598 936.214 626.364 910.236 668.139C899.526 685.362 880.851 704.207 861.782 712.029C857.907 697.769 852.663 682.29 841.276 672.182C834.279 665.971 825.79 663.306 816.486 663.901C802.276 664.809 793.449 672.277 784.405 682.478C782.972 585.487 780.599 488.419 780.513 391.419ZM884.365 447.125C862.676 452.259 838.874 466.661 826.964 485.902C820.329 496.622 816.286 509.541 819.416 522.103Q819.611 522.897 819.846 523.679Q820.081 524.462 820.355 525.232Q820.628 526.003 820.94 526.758Q821.252 527.514 821.601 528.253Q821.95 528.992 822.335 529.712Q822.721 530.433 823.142 531.134Q823.563 531.834 824.018 532.513Q824.474 533.191 824.963 533.846Q825.451 534.501 825.972 535.131Q826.493 535.761 827.045 536.364Q827.596 536.967 828.177 537.542Q828.758 538.117 829.367 538.662Q829.976 539.207 830.612 539.721Q831.247 540.235 831.908 540.717Q832.568 541.198 833.251 541.646Q833.935 542.095 834.64 542.508C850.685 551.901 872.546 549.498 889.672 544.833C902.046 541.462 914.954 536.723 925.957 530.113C942.29 521.045 957.939 510.796 966.84 493.71C970.961 485.8 972.793 476.481 970.004 467.813C967.277 459.335 960.851 453.058 953.079 449.048C932.743 438.558 905.551 440.408 884.365 447.125Z"/>
	<path d="M884.365 447.125C905.551 440.408 932.743 438.558 953.079 449.048C960.851 453.058 967.277 459.335 970.004 467.813C972.793 476.481 970.961 485.8 966.84 493.71C957.939 510.796 942.29 521.045 925.957 530.113C914.954 536.723 902.046 541.462 889.672 544.833C872.546 549.498 850.685 551.901 834.64 542.508Q833.935 542.095 833.251 541.646Q832.568 541.198 831.908 540.717Q831.247 540.235 830.612 539.721Q829.976 539.207 829.367 538.662Q828.758 538.117 828.177 537.542Q827.596 536.967 827.045 536.364Q826.493 535.761 825.972 535.131Q825.451 534.501 824.963 533.846Q824.474 533.191 824.018 532.513Q823.563 531.834 823.142 531.133Q822.721 530.433 822.335 529.712Q821.95 528.992 821.601 528.253Q821.252 527.514 820.94 526.758Q820.628 526.003 820.355 525.232Q820.081 524.462 819.846 523.679Q819.611 522.897 819.416 522.103C816.286 509.541 820.329 496.622 826.964 485.902C838.874 466.661 862.676 452.259 884.365 447.125ZM886.721 449.374C903.37 475.577 916.873 497.133 925.331 527.33C938.831 519.778 951.79 511.387 960.641 498.356C966.027 490.427 969.759 480.803 967.673 471.124C966.085 463.759 961.279 457.813 955.082 453.741C935.184 440.666 908.564 444.843 886.721 449.374Z"/>
	<path fill="#E12726" d="M925.331 527.33C916.107 531.373 907.142 535.79 897.62 539.127C880.58 545.099 856.471 549.68 839.535 541.374Q838.856 541.049 838.195 540.691Q837.533 540.333 836.89 539.941Q836.248 539.55 835.625 539.127Q835.003 538.704 834.403 538.25Q833.803 537.797 833.226 537.313Q832.649 536.83 832.098 536.318Q831.546 535.807 831.021 535.268Q830.495 534.729 829.998 534.165Q829.5 533.6 829.032 533.012Q828.563 532.423 828.125 531.811Q827.687 531.2 827.28 530.567Q826.872 529.934 826.498 529.282Q826.123 528.629 825.781 527.959Q825.44 527.288 825.132 526.602Q824.825 525.915 824.552 525.213Q824.28 524.512 824.043 523.798C820.805 513.807 822.148 503.021 826.857 493.754C838.832 470.188 862.575 457.327 886.721 449.374C903.37 475.577 916.873 497.133 925.331 527.33Z"/>
	<path fill="#AFAEAE" d="M554.644 245.632C536.724 225.326 524.83 202.254 526.584 174.474C527.847 154.455 537.911 136.222 552.9 123.147C579.48 99.9626 617.375 95.6167 651.292 98.0442C727.555 103.502 821.325 141.798 872.075 200.486C898.634 231.199 915.441 270.019 912.523 311.183Q912.411 312.78 912.26 314.373Q912.109 315.967 911.918 317.556Q911.728 319.145 911.498 320.729Q911.268 322.313 910.999 323.891Q910.73 325.469 910.422 327.04Q910.115 328.611 909.768 330.173Q909.421 331.736 909.036 333.29Q908.651 334.843 908.227 336.387Q907.804 337.931 907.342 339.463Q906.88 340.996 906.381 342.517Q905.882 344.037 905.345 345.545Q904.808 347.053 904.234 348.547Q903.66 350.042 903.049 351.521Q902.438 353.001 901.791 354.465Q901.144 355.929 900.461 357.376Q899.777 358.824 899.058 360.254Q898.339 361.684 897.585 363.096Q896.831 364.508 896.043 365.901Q895.254 367.293 894.431 368.666Q893.608 370.039 892.751 371.391Q891.895 372.743 891.005 374.074Q890.115 375.404 889.192 376.712Q888.27 378.02 887.315 379.305Q886.36 380.59 885.375 381.851Q884.388 383.112 883.371 384.348Q882.354 385.584 881.307 386.794Q880.26 388.005 879.183 389.189Q878.106 390.373 877 391.53Q875.894 392.688 874.76 393.817Q873.626 394.947 872.464 396.048Q871.302 397.149 870.113 398.221Q868.925 399.293 867.71 400.335C861.57 405.601 854.378 410.748 847.25 414.652C824.272 401.148 807.354 394.648 780.513 391.419C780.41 371.464 781.44 351.472 781.473 331.499C781.374 331.355 781.276 331.21 781.175 331.068C774.703 321.957 766.452 313.99 759.35 305.331C752.198 296.612 729.485 264.214 722.329 259.906C718.516 257.611 712.024 256.81 707.677 256.237C692.86 254.287 677.669 254.024 662.752 253.044L584.949 247.836C575.286 247.236 565.138 247.472 555.612 245.809L554.644 245.632Z"/>
	<path d="M166.183 503.166C154.746 494.373 143.221 485.698 132.708 475.793C105.672 450.317 86.5934 417.775 85.6408 379.833C84.3271 327.509 117.266 282.255 151.821 246.25C190.047 206.42 257.628 153.891 315.251 152.924C358.861 152.193 392.998 173.861 421.666 204.656C431.909 215.658 441.199 227.782 452.008 238.212C456.183 239.009 460.661 238.99 464.91 239.277L486.969 240.83C509.501 242.434 532.093 244.504 554.644 245.632L555.612 245.809C565.138 247.472 575.286 247.236 584.949 247.836L662.752 253.044C677.669 254.024 692.86 254.287 707.677 256.237C712.024 256.81 718.516 257.611 722.329 259.906C729.485 264.214 752.198 296.612 759.35 305.331C766.452 313.99 774.703 321.957 781.175 331.068C781.276 331.21 781.374 331.355 781.473 331.499C781.44 351.472 780.41 371.464 780.513 391.419C780.599 488.419 782.972 585.487 784.405 682.478C793.449 672.277 802.276 664.809 816.486 663.901C825.79 663.306 834.279 665.971 841.276 672.182C852.663 682.29 857.907 697.769 861.782 712.029C867.968 732.059 870.587 756.931 860.486 776.134C854.012 788.441 842.851 796.55 829.67 800.513C795.986 810.639 754.137 791.355 724.901 775.36C713.421 769.079 702.447 761.76 690.756 755.891C684.986 766.635 679.132 780.872 669.498 788.552C664.25 788.469 659.868 787.373 655.746 791.304C643.313 789.607 631.038 786.934 618.748 784.429C608.08 782.256 597.312 780.268 586.735 777.69C581.226 810.022 562.062 834.37 535.74 852.98C519.839 864.223 500.608 875.046 481.634 879.728C450.733 907.463 416.386 927.036 373.51 924.631C340.653 922.789 316.973 907.28 294.286 884.685C259.049 872.383 227.4 848.883 203.44 820.421C164.408 774.055 146.966 715.622 152.157 655.388C149.917 653.488 146.996 651.944 144.581 650.22Q140.133 647.054 136.088 643.387Q132.042 639.721 128.455 635.605Q127.421 634.422 126.446 633.189Q125.472 631.956 124.559 630.676Q123.647 629.396 122.8 628.073Q121.952 626.749 121.171 625.386Q120.39 624.022 119.677 622.621Q118.964 621.22 118.322 619.786Q117.68 618.352 117.109 616.887Q116.539 615.423 116.041 613.932Q115.544 612.441 115.121 610.928Q114.698 609.414 114.351 607.881Q114.004 606.349 113.733 604.8Q113.462 603.252 113.267 601.693Q113.073 600.133 112.957 598.566Q112.84 596.999 112.802 595.428Q112.763 593.856 112.802 592.285Q112.841 590.714 112.958 589.147C115.379 558.197 142.986 523.052 166.183 503.166ZM859.012 713.983C808.805 737.243 751.947 745.067 697.026 745.054L692.454 752.422L693.036 752.775C728.18 774.087 783.781 808.979 826.378 798.292C839.032 795.117 849.939 787.932 856.58 776.538C867.588 757.652 864.407 734.102 859.012 713.983ZM168.924 504.397C146.067 524.172 117.907 559.126 115.596 589.888C114.41 605.672 120.766 622.337 131.08 634.181C137.359 641.391 144.677 646.414 152.201 652.114C162.522 601.057 178.12 572.178 215.397 535.511C210.371 531.617 204.797 528.182 199.541 524.585C188.917 518.566 178.987 511.304 168.924 504.397ZM660.743 741.979C655.27 744.734 649.937 747.848 644.321 750.302C626.008 758.301 606.32 760.176 586.65 757.787C587.007 761.955 587.539 766.189 587.514 770.372C611.924 774.915 636.61 779.135 660.748 784.945C660.43 770.639 660.637 756.288 660.743 741.979ZM668.744 741.361Q668.693 754.148 669.145 766.927L672.859 760.247C675.354 756.193 678.052 752.168 680.319 747.986C676.478 745.823 672.423 743.772 668.744 741.361ZM678.616 730.323C675.151 731.483 671.815 732.087 669.601 735.197C669.424 736.507 669.356 736.811 670.129 737.985C672.056 740.911 678.692 743.867 681.771 745.676L685.633 738.078C683.372 736.729 682.042 735.784 680.814 733.44C680.186 732.242 679.778 731.1 678.616 730.323Z"/>
	<path fill="#FEFEFE" d="M758.4 393.707C762.071 391.937 768.515 387.679 772.499 388.978C773.446 390.325 773.143 391.434 773.138 393.055C768.675 393.375 762.734 394.489 758.4 393.707Z"/>
	<path fill="#FED560" d="M353.557 906.114L354.529 905.912C356.502 906.348 357.97 907.604 359.574 908.767C355.201 909.974 350.84 910.928 346.384 911.771L340.154 908.791C344.571 907.75 349.109 907.057 353.557 906.114Z"/>
	<path fill="#FED560" d="M369.613 913.159C376.153 913.406 382.767 915.774 389.109 917.291C386.081 917.428 383.039 917.438 380.008 917.499C373.091 917.599 366.645 916.674 359.866 915.479C363.087 914.462 366.298 913.786 369.613 913.159Z"/>
	<path fill="#FED560" d="M322.352 742.113C322.624 744.153 320.269 746.642 319.099 748.207C314.611 749.294 310.171 750.685 305.739 751.981L305.713 751.036C306.958 748.807 308.721 747.141 310.487 745.327L322.352 742.113Z"/>
	<path fill="#FED560" d="M339.888 897.634C340.46 897.541 340.686 897.48 341.219 897.466C343.299 897.41 345.341 899.653 346.811 900.945C341.6 902.167 336.415 903.55 331.224 904.862C328.764 904.988 326.595 902.716 324.864 901.204Q332.349 899.305 339.888 897.634Z"/>
	<path fill="#FED560" d="M311.295 757.071C312.203 757.127 311.755 756.972 312.566 757.709C312.442 759.019 312.331 760.22 311.529 761.336C309.765 763.79 299.693 765.561 296.34 766.442C295.443 766.367 295.865 766.541 295.145 765.772C295.368 763.794 296.691 762.001 297.677 760.306Q304.506 758.773 311.295 757.071Z"/>
	<path fill="#FEFEFE" d="M678.616 730.323C681.625 727.505 690.05 725.742 694.192 723.894C692.109 727.804 688.745 735.158 685.633 738.078C683.372 736.729 682.042 735.784 680.814 733.44C680.186 732.242 679.778 731.1 678.616 730.323Z"/>
	<path fill="#E12726" d="M723.065 399.079C730.032 398.258 736.777 396.522 743.822 396.015Q733.438 402.059 722.941 407.905L723.065 399.079Z"/>
	<path fill="#FED560" d="M329.767 888.161L331.219 888.145C332.947 888.88 333.933 890.179 335.159 891.56Q326.733 894.06 318.234 896.3C315.896 896.007 314.011 893.199 312.51 891.53Q321.101 889.654 329.767 888.161Z"/>
	<path fill="#FED560" d="M304.915 770.567C305.988 770.351 305.471 770.28 306.461 770.809C306.577 772.955 305.505 775.049 304.759 777.029C299.309 777.905 293.993 779.448 288.667 780.872L287.956 780.891L287.466 780.286C287.758 778.093 288.944 776.179 289.934 774.228C294.99 773.167 299.969 772.085 304.915 770.567Z"/>
	<path fill="#FED560" d="M301.198 784.58C301.99 784.542 301.529 784.482 302.519 785.032C302.832 786.791 302.718 788.339 301.773 789.887C300.559 791.875 287.354 793.895 284.083 794.69C283.16 794.491 283.616 794.692 282.769 793.978C282.59 791.959 283.492 790.18 284.2 788.327C289.897 787.246 295.545 785.868 301.198 784.58Z"/>
	<path fill="#FED560" d="M321.187 877.095C323.162 877.459 325.02 880.638 326.157 882.195C320.001 884.143 313.502 885.035 307.273 886.82C305.181 885.037 303.281 882.96 301.337 881.016C308.02 880.047 314.607 878.592 321.187 877.095Z"/>
	<path fill="#FED560" d="M297.3 812.592C297.966 812.511 298.436 812.643 299.086 812.779C299.459 813.276 299.59 813.395 299.846 814.033C300.331 815.243 300.18 816.63 299.664 817.778C297.187 820.282 286.327 821.424 282.169 822.404C281.203 822.608 280.83 822.599 279.923 822.201C278.96 820.515 279.391 818.173 279.48 816.287Q288.419 814.578 297.3 812.592Z"/>
	<path fill="#FED560" d="M313.07 866.167L314.367 866.206C316.086 867.605 316.838 869.552 317.799 871.499L298.11 875.541C296.092 875.05 294.525 871.97 293.392 870.314C299.772 868.433 306.52 867.311 313.07 866.167Z"/>
	<path fill="#FED560" d="M297.887 798.639C299.019 798.488 298.438 798.44 299.622 798.868C300.49 800.773 300.081 803.101 299.969 805.147Q291.07 807.149 282.113 808.875C280.983 808.987 281.532 809.099 280.485 808.449C279.875 806.353 280.505 803.864 280.796 801.726C286.546 800.867 292.199 799.838 297.887 798.639Z"/>
	<path fill="#FED560" d="M298.321 826.143C299.28 825.981 299.028 825.892 299.787 826.135C300.454 826.347 301.308 827.703 301.526 828.36C301.95 829.637 301.696 830.09 301.18 831.218C298.311 833.57 287.16 834.816 282.64 835.901C282.085 836.018 281.617 835.916 281.058 835.851C279.81 834.251 279.651 832.028 279.28 830.078C285.569 828.478 291.945 827.335 298.321 826.143Z"/>
	<path fill="#FED560" d="M304.911 853.674C306.446 853.464 306.871 853.312 308.337 853.93C309.937 855.622 310.37 858.09 311.022 860.278L292.614 863.364C291.425 863.578 290.786 863.62 289.629 863.249C287.754 861.645 286.969 859.211 285.987 856.998Q295.427 855.212 304.911 853.674Z"/>
	<path fill="#FED560" d="M302.04 838.668C302.464 838.665 302.818 838.921 303.193 839.105C304.639 841.408 305.183 844.137 305.903 846.738L285.044 850.321C284.34 850.347 284.77 850.396 283.818 849.89C282.54 847.46 282.071 844.733 281.447 842.076C288.26 840.774 295.196 839.831 302.04 838.668Z"/>
	<path fill="#FEFEFE" d="M581.184 326.327C586.31 329.994 589.521 364.055 592.116 372.133C594.753 380.343 598.886 387.589 603.48 394.819C598.767 393.839 593.631 390.083 590.337 386.653Q589.105 385.365 588.032 383.94Q586.96 382.516 586.062 380.976Q585.164 379.435 584.453 377.8Q583.742 376.165 583.228 374.458C579.193 361.274 580.887 340.116 581.184 326.327Z"/>
	<path fill="#5761F0" d="M437.105 269.768C436.597 266.644 436.033 262.985 437.689 260.14C445.019 258.904 466.304 261.83 474.394 263.27L473.748 263.818C477.323 268.663 481.227 273.33 485.066 277.97C469.112 274.845 453.212 272.018 437.105 269.768Z"/>
	<path fill="#5761F0" d="M432.065 244.376C441.573 244.478 451.399 244.508 460.742 246.401C463.487 250.351 466.649 253.864 469.474 257.715C460.017 256.797 450.046 253.52 440.528 254.158C437.952 254.33 435.313 255.149 433.616 257.197C430.775 260.623 431.646 264.771 432.141 268.805Q426.175 267.746 420.196 266.764C420.548 263.992 421.15 261.141 421.838 258.434C423.456 252.071 426.434 247.749 432.065 244.376Z"/>
	<path fill="#FEFEFE" d="M773.065 371.515L773.15 384.744C762.802 387.504 753.555 391.683 743.822 396.015C736.777 396.522 730.032 398.258 723.065 399.079L723.512 387.914C740.1 382.712 756.447 376.707 773.065 371.515Z"/>
	<path fill="#FEFEFE" d="M769.925 337.677C770.687 337.523 771.264 337.435 772.05 337.504C772.698 337.56 772.654 337.455 773.008 337.984C774.55 340.29 773.373 345.389 773.105 348.038L727.608 363.098L725.729 363.474L724.978 362.896C723.241 357.7 724.769 350.106 725.216 344.679C740.134 342.896 755.082 340.033 769.925 337.677Z"/>
	<path fill="#FEFEFE" d="M771.454 352.554C772.04 352.596 772.29 352.82 772.779 353.125C774.287 357.487 773.301 363.029 772.952 367.596C757.275 373.476 740.778 377.163 725.174 383.355L724.475 383.341L723.752 382.426C722.992 377.796 723.978 373.001 724.66 368.412C740.307 363.258 755.733 357.537 771.454 352.554Z"/>
	<path fill="#E12726" d="M758.4 393.707C762.734 394.489 768.675 393.375 773.138 393.055L772.919 398.893C756.175 409.827 738.378 419.315 722.035 430.817C722.292 424.637 722.556 418.469 722.544 412.283C733.281 405.154 746.04 397.51 758.4 393.707Z"/>
	<path fill="#E12726" d="M772.297 516.437L773.133 516.629C774.885 520.672 774.051 527.304 774.005 531.733C755.042 540.528 736.823 553.495 718.976 564.577L718.05 564.715C716.368 561.835 717.663 552.627 717.795 549.044C734.907 537.685 754.433 526.746 772.297 516.437Z"/>
	<path fill="#E12726" d="M772.31 403.45C774.142 406.331 772.958 417.619 772.812 421.376C755.862 431.204 738.65 440.967 722.178 451.557C720.201 447.755 721.62 438.666 721.917 434.47Q747.366 419.371 772.31 403.45Z"/>
	<path fill="#E12726" d="M771.758 425.894L772.495 426.09C774.164 429.496 773.08 439.435 772.977 443.513C755.686 452.328 739.033 462.153 722.207 471.804L721.443 471.732C719.959 468.847 721.259 459.152 721.533 455.423C738.029 445.158 754.973 435.673 771.758 425.894Z"/>
	<path fill="#E12726" d="M771.826 446.943L772.511 447.128C774.375 450.449 773.247 459.062 773.161 463C756.418 474.085 738.766 483.899 721.474 494.101C720.932 494.002 721.295 494.106 720.505 493.516C719.374 488.535 720.314 482.22 720.556 477.076Q746.011 461.703 771.826 446.943Z"/>
	<path fill="#E12726" d="M773.219 555.449L773.84 555.601C775.519 557.635 774.562 567.557 774.511 570.536Q745.206 588.154 717.079 607.597L716.325 606.877C715.421 602.054 716.269 596.382 716.563 591.476C734.806 578.339 753.953 566.974 773.219 555.449Z"/>
	<path fill="#E12726" d="M773.128 535.431L773.426 535.519C775.283 538.232 774.247 547.923 774.217 551.482C755.191 562.696 735.958 573.904 717.872 586.591L717.295 586.395C715.4 582.457 717.05 573.752 717.614 569.384C735.83 557.564 754.511 546.596 773.128 535.431Z"/>
	<path fill="#E12726" d="M773.849 574.913L774.388 575.085C775.84 577.125 775.04 588.554 775 591.558C767.177 595.794 759.717 600.835 752.208 605.596L716.8 628.068L716.001 627.592C714.347 623.859 715.722 616.392 716.026 612.255C734.851 599.301 754.217 586.622 773.849 574.913Z"/>
	<path fill="#E12726" d="M774.82 595.428C776.412 600.544 775.515 607.369 775.381 612.717C755.676 625.494 734.856 636.337 715.215 649.302C713.4 645.167 715.102 637.424 715.625 632.916C735.246 620.243 754.741 607.37 774.82 595.428Z"/>
	<path fill="#E12726" d="M774.314 617.43L775.012 617.62C776.624 621.051 775.755 630.864 775.752 634.982C755.642 646.062 735.209 656.754 715.749 668.948L715.043 668.821C713.33 665.976 714.551 657.235 714.674 653.729Q744.181 635.064 774.314 617.43Z"/>
	<path fill="#E12726" d="M774.774 639.41L775.384 639.54C777.246 642.283 776.308 652.143 776.316 655.706C755.658 666.163 735.173 677.736 715.264 689.575C714.545 689.884 714.976 689.794 713.944 689.632C712.237 686.067 713.848 677.748 714.177 673.704C734.487 662.475 754.424 650.602 774.774 639.41Z"/>
	<path fill="#E12726" d="M772.335 492.42L773 492.641C774.43 495.7 773.5 508.079 773.462 511.991C754.895 521.735 736.988 533.34 719.26 544.546L718.357 544.246C716.858 538.754 718.652 530.231 719.141 524.548C737.038 514.172 754.602 503.089 772.335 492.42Z"/>
	<path fill="#FEFEFE" d="M727.597 279.319C734.477 284.707 742.982 299.149 748.73 306.67Q757.238 317.65 766.549 327.958L758.167 329.289Q741.911 332.366 725.536 334.734C725.734 316.277 727.166 297.787 727.597 279.319Z"/>
	<path fill="#E12726" d="M775.532 660.488L776.237 661.183C777.675 667.481 776.861 674.398 776.578 680.806C756.325 690.584 735.132 698.742 714.373 707.423L713.79 707.059C711.953 703.925 713.032 697.813 713.26 694.217C725.323 687.845 737.267 681.111 749.158 674.42C757.841 669.534 766.377 664.461 775.532 660.488Z"/>
	<path fill="#E12726" d="M772.872 466.955C774.785 470.507 773.567 483.651 773.461 488.254Q746.481 503.55 720.22 520.048C720.13 519.971 720.025 519.909 719.951 519.817C718.625 518.17 719.807 501.923 719.928 499.022L772.872 466.955Z"/>
	<path fill="#FED560" d="M418.298 709.606C427.566 709.428 437.569 712.587 445.934 716.368C469.74 727.125 487.257 749.83 496.337 773.886C506.903 801.881 503.955 826.056 491.79 852.8C490.773 854.985 489.438 857.059 488.222 859.14C497.558 827.624 498.647 796.562 484.2 766.189C471.274 739.012 446.312 719.452 418.298 709.606Z"/>
	<path fill="#AFAEAE" d="M572.697 255.946C588.493 256.743 712.319 263.08 717.203 267.014C719.473 268.842 719.089 273.459 718.854 276.055C718.836 276.257 718.8 276.457 718.773 276.658C717.177 275.432 715.494 274.604 713.468 274.369C708.13 273.748 702.409 274.811 696.989 274.589C662.415 273.172 628.24 273.4 594.535 264.322C586.938 262.276 579.422 260.149 572.697 255.946Z"/>
	<path fill="#FEFEFE" d="M589.117 335.213C592.688 336.88 645.564 392.269 652.241 399.488C637.952 399.559 623.971 399.729 609.916 396.684C594.151 381.877 591.781 355.506 589.117 335.213Z"/>
	<path fill="#14BCAB" d="M353.512 499.575C352.47 453.503 349.9 407.565 347.753 361.543Q346.746 340.62 345.971 319.688C345.641 311.726 345.015 303.653 345.143 295.691C345.181 293.358 345.002 290.778 346.733 289.005C349.686 285.98 356.721 284.604 360.711 283.453L362.354 436.497C362.608 459.357 362.61 482.274 363.275 505.123L353.512 499.575Z"/>
	<path fill="#FED560" d="M297.298 495.348C304.056 503.949 307.31 512.571 305.963 523.621C304.159 538.413 293.136 550.313 281.791 559.015Q278.775 561.332 275.669 563.526C265.063 552.874 250.002 549.139 236.654 543.162C230.377 540.351 224.33 536.967 218.232 533.787C223.788 530.147 228.781 525.506 234.359 521.789C253.761 508.864 274.678 500.647 297.298 495.348Z"/>
	<path fill="#5761F0" d="M168.924 504.397C192.762 488.161 213.978 475.981 243.909 475.416C264.285 475.032 282.529 481.226 297.298 495.348C274.678 500.647 253.761 508.864 234.359 521.789C228.781 525.506 223.788 530.147 218.232 533.787C212.738 529.746 207.289 525.45 201.516 521.824C200.452 522.499 200.119 523.497 199.541 524.585C188.917 518.566 178.987 511.304 168.924 504.397Z"/>
	<path fill="#FED560" d="M215.397 535.511C222.586 540.206 230.443 544.015 238.333 547.38C250.166 552.426 263.77 555.896 273.05 565.271Q257.731 573.679 242.237 581.761C212.315 597.426 184.251 614.102 174.032 648.585C172.926 652.317 172.111 656.15 171.244 659.945C164.673 657.721 158.645 654.406 152.201 652.114C162.522 601.057 178.12 572.178 215.397 535.511Z"/>
	<path fill="#FED560" d="M498.958 761.033C528.231 766.429 557.364 772.848 586.735 777.69C581.226 810.022 562.062 834.37 535.74 852.98C519.839 864.223 500.608 875.046 481.634 879.728Q484.913 876.199 487.865 872.393Q490.817 868.586 493.419 864.532Q496.021 860.478 498.251 856.209Q500.482 851.939 502.324 847.488C514.371 818.129 510.893 789.809 498.958 761.033Z"/>
	<path fill="#FEFEFE" d="M460.742 246.401C484.282 247.822 507.838 250.518 531.357 252.418L556.127 254.284C561.604 254.683 567.314 254.822 572.697 255.946C579.422 260.149 586.938 262.276 594.535 264.322C628.24 273.4 662.415 273.172 696.989 274.589C702.409 274.811 708.13 273.748 713.468 274.369C715.494 274.604 717.177 275.432 718.773 276.658C718.205 280.912 718.515 285.528 718.401 289.841L717.526 313.973L714.512 415.652L706.537 710.246C704.317 711.144 702.012 711.76 699.713 712.423L706.547 429.669L708.478 344.033C708.805 330.217 710.096 316.329 709.452 302.506C709.327 299.83 708.198 296.274 706.768 293.985C704.564 290.461 700.606 289.312 696.796 288.372C689.337 286.531 681.28 285.957 673.647 285.087Q658.169 283.364 642.73 281.318L532.82 266.069L494.733 261.211C486.635 260.224 478.321 259.529 470.334 257.895L469.474 257.715C466.649 253.864 463.487 250.351 460.742 246.401Z"/>
	<path fill="#FED560" d="M275.026 567.508C276.102 568.265 277.01 569.462 277.797 570.502C285.396 580.559 287.194 592.892 285.624 605.124C283.406 622.417 274.083 639.783 260.117 650.405C239.703 665.93 211.488 666.917 187.108 663.502L174.175 661.063C174.887 657.66 175.608 654.225 176.551 650.879C186.209 616.613 214.296 599.991 243.759 584.446Q259.533 576.236 275.026 567.508Z"/>
	<path fill="#E12726" d="M697.026 745.054C701.179 738.198 708.06 721.992 713.45 717.349C717.549 713.818 725.01 711.829 729.989 709.695L764.956 694.461C770.633 692.014 776.66 690.075 782.107 687.153C791.275 682.234 795.808 672.651 806.141 669.243C814.896 666.355 824.696 665.988 833.039 670.37C848.769 678.63 854.023 698.341 859.012 713.983C808.805 737.243 751.947 745.067 697.026 745.054Z"/>
	<path fill="#5761F0" d="M244.292 324.688C247.851 323.902 252.362 324.175 256.014 324.257C276.532 324.72 298.285 329.696 315.809 340.624C326.469 347.271 336.217 356.78 339.077 369.437C341.092 378.357 339.053 387.396 334.109 395.005C323.917 410.688 306.372 417.542 288.849 421.339C267.266 423.48 247.306 417.132 229.494 405.089C215.72 395.775 196.574 379.908 193.573 362.413C192.445 355.833 194.178 349.602 198.176 344.302C208.645 330.42 228.129 326.718 244.292 324.688Z"/>
	<path fill="#FED560" d="M326.913 492.089C330.508 492.572 334.14 493.011 337.7 493.703C340.414 494.398 343.19 495.255 345.942 495.753L348.138 576.839C348.693 597.916 349.549 618.994 349.519 640.08C344.301 646 339.891 652.678 335.283 659.072C325.91 672.078 316.501 685.212 305.32 696.752C288.275 714.345 265.543 721.976 241.407 722.262C222.77 722.482 201.148 717.939 187.443 704.421C175.987 693.12 174.209 679.465 174.086 664.085Q179.766 665.423 185.511 666.45C210.357 670.72 239.424 669.073 260.515 653.849Q261.93 652.82 263.292 651.723Q264.654 650.625 265.959 649.461Q267.264 648.297 268.51 647.069Q269.756 645.841 270.939 644.553Q272.122 643.264 273.24 641.919Q274.358 640.573 275.407 639.173Q276.456 637.774 277.434 636.324Q278.412 634.873 279.317 633.376Q280.221 631.879 281.05 630.339Q281.879 628.799 282.631 627.219Q283.382 625.64 284.053 624.024Q284.725 622.409 285.315 620.763Q285.906 619.116 286.413 617.442Q286.921 615.768 287.345 614.071Q287.768 612.374 288.107 610.658Q288.445 608.942 288.698 607.211C291.159 591.358 287.562 578.574 278.203 565.712C291.889 555.933 305.527 543.122 308.739 525.838C310.976 513.802 306.864 504.16 300.189 494.368C308.98 493.074 318.063 493.094 326.913 492.089Z"/>
	<path fill="#FED560" d="M348.479 646.508L350.519 713.064C321.696 723.456 296.308 743.623 283.042 771.691Q282.447 772.922 281.882 774.167Q281.317 775.411 280.784 776.67Q280.25 777.929 279.748 779.2Q279.246 780.472 278.775 781.755Q278.305 783.039 277.866 784.333Q277.428 785.628 277.022 786.934Q276.616 788.239 276.242 789.554Q275.869 790.869 275.528 792.193Q275.187 793.517 274.879 794.849Q274.571 796.181 274.297 797.52Q274.022 798.859 273.781 800.204Q273.539 801.55 273.332 802.901Q273.124 804.252 272.95 805.608Q272.775 806.964 272.635 808.324Q272.494 809.684 272.388 811.046Q272.281 812.409 272.208 813.774Q272.135 815.139 272.097 816.506Q272.058 817.872 272.053 819.239Q272.048 820.606 272.077 821.973Q272.106 823.34 272.169 824.705Q272.232 826.071 272.329 827.435Q272.425 828.798 272.556 830.159Q272.687 831.52 272.851 832.877Q273.016 834.234 273.214 835.586Q273.412 836.939 273.643 838.286Q273.875 839.634 274.14 840.975Q274.405 842.316 274.703 843.65Q275.002 844.984 275.333 846.31Q275.664 847.637 276.028 848.954Q276.392 850.272 276.789 851.58Q277.186 852.888 277.615 854.186Q278.044 855.484 278.505 856.771C282.18 867.004 287.991 875.913 294.286 884.685C259.049 872.383 227.4 848.883 203.44 820.421C164.408 774.055 146.966 715.622 152.157 655.388C158.117 658.411 164.61 661.196 171.059 662.989C170.969 679.507 172.94 694.252 185.123 706.461C199.135 720.503 220.997 725.592 240.232 725.543C266.764 725.476 290.159 716.473 308.816 697.48C324.041 681.981 334.513 662.938 348.479 646.508Z"/>
	<path fill="#FEFEFE" d="M485.066 277.97C481.227 273.33 477.323 268.663 473.748 263.818L474.394 263.27C492.505 265.01 510.466 267.976 528.463 270.594L599.213 280.596C615.707 282.927 691.859 290.828 702.301 296.443C704.168 299.413 705.118 302.096 705.287 305.621C705.804 316.44 704.656 327.506 704.466 338.356Q703.791 380.558 702.554 422.748L697.875 605.629C696.955 641.637 695.464 677.675 695.465 713.696L688.428 716.646L689.459 434.219L689.701 353.026C689.771 339.228 690.53 325.049 689.89 311.293C689.799 309.348 689.319 307.957 688.416 306.245L687.505 305.614C685.836 307.015 685.571 311.243 685.379 313.398C684.368 324.764 685.137 336.668 685.029 348.109L684.297 424.442Q682.969 571.505 683.609 718.573C678.749 720.383 673.858 722.132 669.032 724.03Q668.094 611.151 668.878 498.271L668.749 448.507C668.799 433.69 669.112 418.94 668.461 404.127C651.103 383.716 630.212 364.069 611.366 344.767Q603.474 336.745 595.718 328.592C590.871 323.435 586.208 317.967 580.645 313.549C578.015 311.46 574.821 310.204 571.524 309.606C557.95 303.709 543.535 299.386 529.448 294.887C522.45 292.651 513.28 290.827 507.053 286.913C522.665 288.006 538.2 290.745 553.697 292.894L621.47 302.116C630.041 303.317 652.906 307.68 660.336 306.95C661.58 306.828 662.511 306.78 663.346 305.794C661.955 304.185 660.423 303.499 658.392 302.968C654.18 301.866 649.462 301.709 645.138 301.106L619.6 297.46L526.793 284.814C513.135 282.984 498.107 282.462 485.066 277.97Z"/>
	<path fill="#FED560" d="M353.512 499.575L363.275 505.123L363.337 505.734C364.83 521.748 364.211 538.351 364.615 554.468L367.511 644.052C367.764 651.132 368.126 658.22 368.307 665.301C368.385 668.374 368.035 671.548 368.321 674.601C368.474 676.232 368.868 678.926 370.07 680.13C370.171 680.231 370.297 680.302 370.411 680.388C372.483 678.248 371.891 669.744 371.842 666.864Q370.785 625.598 368.904 584.362L366.761 509.124C377.327 518.255 387.894 533.197 393.727 545.869C392.09 545.943 390.834 545.86 389.492 546.941C389.315 547.736 389.076 547.942 389.533 548.703C391.024 551.19 394.176 552.412 396.891 552.893C397.053 552.922 397.216 552.947 397.378 552.974C403.132 555.051 408.709 557.102 414.02 560.194C425.733 567.014 436.179 576.413 446.643 584.968C454.985 591.788 463.899 598.577 471.633 606.068C465.407 604.452 444.841 597.801 439.88 600.604Q439.687 600.712 439.508 600.842Q439.328 600.971 439.164 601.119Q439 601.267 438.854 601.433Q438.707 601.598 438.58 601.779Q438.452 601.959 438.345 602.153Q438.239 602.347 438.154 602.551Q438.07 602.755 438.008 602.968Q437.947 603.18 437.909 603.398C437.698 604.556 437.883 606.122 438.638 607.025C442.787 611.987 468.051 616.107 475.269 617.907Q482.888 619.83 490.387 622.179C504.461 635.076 517.574 647.771 530.159 662.15C544.777 665.904 559.791 668.65 574.555 671.807C585.895 674.231 597.58 677.366 609.065 678.914L609.117 690.184C586.962 685.538 564.686 681.047 542.68 675.754C561.403 700.3 583.686 725.7 586.65 757.787C587.007 761.955 587.539 766.189 587.514 770.372C556.163 764.7 525.01 757.913 493.641 752.237C484.168 736.447 472.715 722.686 456.582 713.37C441.656 704.751 423.336 699.735 406.072 702.073C399.952 702.903 394.003 704.755 387.912 705.764C378.01 707.404 368.194 708.267 358.459 710.903Q357.809 675.078 356.754 639.262L353.512 499.575Z"/>
	<path d="M542.68 675.754C531.662 672.48 520.208 670.426 508.971 668.04C496.744 665.443 484.535 662.566 472.287 660.104C463.256 658.29 453.02 657.428 444.44 654.17C441.597 653.09 439.132 651.775 437.886 648.895C438.019 647.682 437.999 647.135 439.011 646.284C441.073 644.548 444.387 644.468 446.92 644.69C454.327 645.338 462.063 647.951 469.367 649.52C489.535 653.853 509.811 658.858 530.159 662.15C544.777 665.904 559.791 668.65 574.555 671.807C585.895 674.231 597.58 677.366 609.065 678.914L609.117 690.184C586.962 685.538 564.686 681.047 542.68 675.754Z"/>
	<path fill="#FED560" d="M387.762 713.667Q388.64 713.528 389.525 713.451C411.205 711.662 434.936 722.242 451.266 735.878C473.29 754.269 485.804 780.704 488.159 809.116Q488.258 810.334 488.326 811.553Q488.395 812.773 488.433 813.994Q488.472 815.215 488.48 816.436Q488.489 817.658 488.467 818.879Q488.445 820.1 488.393 821.321Q488.342 822.541 488.26 823.76Q488.178 824.979 488.066 826.195Q487.954 827.411 487.812 828.625Q487.67 829.838 487.498 831.047Q487.327 832.257 487.125 833.461Q486.924 834.666 486.693 835.866Q486.461 837.065 486.201 838.259Q485.94 839.452 485.65 840.638Q485.36 841.825 485.041 843.004Q484.722 844.183 484.374 845.354Q484.026 846.525 483.649 847.687Q483.272 848.849 482.866 850.001Q482.461 851.153 482.027 852.295Q481.594 853.437 481.132 854.568Q480.67 855.699 480.181 856.818Q479.691 857.938 479.175 859.044Q478.658 860.151 478.114 861.245Q477.57 862.339 476.999 863.418Q476.428 864.498 475.831 865.564Q475.233 866.629 474.61 867.68Q473.987 868.73 473.338 869.765Q472.689 870.8 472.014 871.819Q471.34 872.837 470.641 873.839Q469.941 874.84 469.218 875.824Q468.494 876.808 467.746 877.774Q466.998 878.74 466.227 879.687Q465.456 880.634 464.661 881.562Q464.014 882.33 463.349 883.081Q462.684 883.833 462.001 884.568Q461.318 885.303 460.616 886.021Q459.915 886.739 459.197 887.44Q458.479 888.141 457.743 888.824Q457.008 889.507 456.256 890.172Q455.504 890.837 454.737 891.483Q453.969 892.13 453.185 892.757Q452.402 893.384 451.604 893.992Q450.805 894.6 449.992 895.189Q449.179 895.777 448.352 896.345Q447.525 896.914 446.684 897.462Q445.843 898.01 444.989 898.537Q444.135 899.064 443.268 899.57Q442.402 900.077 441.523 900.561Q440.644 901.046 439.754 901.51Q438.863 901.973 437.962 902.414Q437.061 902.855 436.149 903.275Q435.237 903.694 434.315 904.091Q433.393 904.487 432.462 904.862Q431.531 905.236 430.59 905.587Q429.65 905.938 428.702 906.266Q427.753 906.595 426.797 906.9Q425.841 907.205 424.878 907.486Q423.914 907.768 422.944 908.025Q421.974 908.283 420.998 908.517Q420.022 908.751 419.041 908.962Q418.06 909.172 417.073 909.358Q416.087 909.544 415.097 909.706Q414.106 909.868 413.112 910.006Q412.118 910.143 411.121 910.257Q410.124 910.37 409.124 910.459C386.954 911.917 366.463 906.135 348.474 892.927Q347.462 892.192 346.468 891.433Q345.475 890.673 344.501 889.889Q343.527 889.105 342.572 888.297Q341.618 887.489 340.684 886.657Q339.75 885.826 338.837 884.971Q337.924 884.116 337.032 883.239Q336.141 882.362 335.272 881.463Q334.402 880.564 333.556 879.644Q332.709 878.723 331.886 877.782Q331.062 876.841 330.263 875.879Q329.463 874.918 328.687 873.937Q327.912 872.956 327.161 871.956Q326.41 870.955 325.685 869.937Q324.959 868.918 324.259 867.882Q323.559 866.846 322.885 865.792Q322.21 864.739 321.563 863.669Q320.915 862.599 320.294 861.514Q319.674 860.428 319.08 859.328Q318.487 858.227 317.921 857.112Q317.355 855.996 316.817 854.867Q316.279 853.738 315.769 852.596Q315.26 851.454 314.779 850.3Q314.298 849.146 313.845 847.98Q313.393 846.814 312.97 845.637Q312.547 844.46 312.154 843.273Q311.76 842.086 311.396 840.889Q311.033 839.693 310.699 838.488Q310.365 837.283 310.061 836.069Q309.757 834.856 309.484 833.636Q309.21 832.416 308.967 831.189Q308.724 829.962 308.512 828.73Q308.3 827.497 308.118 826.26Q307.92 824.993 307.754 823.722Q307.587 822.451 307.452 821.176Q307.317 819.901 307.213 818.623Q307.109 817.345 307.036 816.065Q306.964 814.785 306.923 813.504Q306.882 812.222 306.873 810.94Q306.863 809.658 306.886 808.376Q306.908 807.094 306.961 805.813Q307.015 804.532 307.1 803.253Q307.185 801.974 307.302 800.697Q307.419 799.42 307.566 798.147Q307.714 796.873 307.894 795.604Q308.073 794.334 308.283 793.069Q308.494 791.805 308.735 790.545Q308.977 789.286 309.249 788.034Q309.521 786.781 309.824 785.535Q310.127 784.289 310.461 783.051Q310.795 781.813 311.158 780.584Q311.522 779.354 311.917 778.134Q312.311 776.914 312.734 775.704Q313.158 774.495 313.612 773.295Q314.066 772.096 314.549 770.908Q315.031 769.721 315.544 768.545Q316.056 767.37 316.596 766.208Q317.137 765.045 317.706 763.896Q318.275 762.747 318.873 761.613Q319.47 760.478 320.095 759.359Q320.72 758.24 321.372 757.136Q322.024 756.032 322.704 754.945Q323.383 753.857 324.089 752.787Q324.795 751.717 325.527 750.664Q326.258 749.611 327.016 748.577C342.604 727.563 362.232 717.375 387.762 713.667Z"/>
	<path d="M392.143 739.483C392.345 739.462 392.546 739.433 392.748 739.42C396.205 739.194 400.344 739.479 403.028 741.939C406.234 744.879 406.404 749.338 406.573 753.371C415.943 755.209 427.276 757.454 433.965 764.77C433.327 770.836 431.881 777.943 429.437 783.555C428.781 785.061 427.61 786.764 425.929 787.2C422.322 788.134 415.522 782.496 412.146 780.906C406.201 778.108 399.372 776.94 393.097 779.423C390.398 780.491 386.799 783.183 385.765 786.007C385.165 787.643 385.317 789.434 386.036 791.003C389.374 798.29 404.429 799.396 411.254 801.979C420.845 805.608 428.626 812.029 432.866 821.49C436.717 830.083 436.643 839.648 433.236 848.37C428.078 861.573 417.869 867.369 405.513 872.818L405.528 873.684C405.603 878.48 406.315 885.494 402.546 889.098C399.737 891.782 396.478 891.587 392.875 891.528C390.844 891.103 388.8 890.337 387.265 888.895C383.589 885.441 384.021 879.33 383.95 874.732C371.565 874.093 362.393 870.716 352.364 863.471C354.171 854.589 356.195 845.737 361.331 838.142C361.577 838.229 361.822 838.319 362.07 838.402C374.344 842.479 380.718 852.596 396.829 848.613C400.767 847.639 405.405 845.622 407.416 841.859C408.582 839.68 408.902 836.72 408.018 834.391C404.685 825.611 387.739 824.268 380.1 821.088C371.242 817.401 363.479 810.827 359.848 801.794C356.549 793.588 356.831 783.616 360.412 775.543C365.212 764.725 374.991 759.679 385.444 755.494C385.35 752.314 384.987 748.285 386.014 745.265C387.119 742.014 389.157 740.853 392.143 739.483Z"/>
	<path fill="#FED560" d="M391.422 744.533C393.921 744.319 397.368 743.616 399.394 745.496C401.912 747.833 401.433 753.542 401.58 756.797C406.809 759.913 413.03 760.431 418.792 762.08C422.47 763.132 425.881 764.844 429.306 766.518L424.584 782.451Q422.898 781.298 421.185 780.186C412.833 774.79 404.011 771.532 393.974 773.878C389.36 774.956 385.086 777.943 382.661 782.041C380.96 784.916 379.614 788.545 380.674 791.881C384.025 802.429 404.946 804.004 413.762 808.337C420.959 811.875 427.006 818.115 429.51 825.822C432.027 833.57 430.875 842.79 427.221 850.007C421.676 860.957 411.48 865.184 400.457 868.845C401.083 873.08 402.533 881.548 399.534 885.08C398.17 886.687 396.834 886.835 394.875 887.046C394.739 887.014 394.602 886.984 394.467 886.949C394.243 886.891 394.021 886.825 393.797 886.765C392.764 886.489 391.746 886.277 390.936 885.516C387.527 882.314 388.452 874.423 388.439 870.088C377.03 869.11 367.525 867.447 357.722 861.24Q360.237 852.421 363.116 843.714C366.062 846.15 369.504 848.231 372.98 849.817C381.889 853.881 393.029 855.726 402.36 851.987C406.896 850.169 410.609 846.884 412.431 842.287C413.788 838.863 414.069 834.65 412.441 831.27C407.72 821.47 391.179 820.018 382.019 816.482C374.668 813.644 367.843 808.581 364.686 801.142C361.592 793.853 362.027 784.595 365.229 777.39C370.014 766.621 380.191 762.964 390.318 758.924C390.186 753.981 389.951 749.315 391.422 744.533Z"/>
	<path fill="#5761F0" d="M166.183 503.166C154.746 494.373 143.221 485.698 132.708 475.793C105.672 450.317 86.5934 417.775 85.6408 379.833C84.3271 327.509 117.266 282.255 151.821 246.25C190.047 206.42 257.628 153.891 315.251 152.924C358.861 152.193 392.998 173.861 421.666 204.656C431.909 215.658 441.199 227.782 452.008 238.212C442.821 237.172 431.559 235.101 423.628 241.142C416.429 246.626 414.212 256.739 413.263 265.253C413.24 265.456 413.223 265.659 413.204 265.862C402.972 263.36 377.921 257.418 369.022 262.776C363.984 265.809 361.374 271.032 359.595 276.421C354.127 277.96 342.639 280.12 339.411 285.104C337.87 287.483 337.697 291.544 337.598 294.35C337.332 301.816 338.2 309.524 338.58 316.996C339.338 331.927 340.211 346.924 340.55 361.868C325.245 338.956 305.572 329.044 279.036 323.756C255.573 319.081 226.338 319.955 205.824 333.592C199.019 338.116 192.495 344.629 190.716 352.88C188.679 362.327 192.483 370.912 197.677 378.551C212.576 400.462 239.032 418.981 265.29 423.71C284.521 427.174 305.347 423.318 321.434 412.059C330.709 405.568 336.547 397.572 341.739 387.647Q343.366 420.389 344.486 453.153C344.924 467.297 344.759 481.655 345.942 495.753C343.19 495.255 340.414 494.398 337.7 493.703C334.14 493.011 330.508 492.572 326.913 492.089C318.063 493.094 308.98 493.074 300.189 494.368C285.209 479.317 267.222 472.333 245.969 472.296C225.022 472.259 202.763 479.328 184.875 490.093C178.388 493.997 172.291 498.697 166.183 503.166Z"/>
	<path d="M326.913 492.089C321.281 487.789 309.434 479.296 308.407 471.693C308.186 470.061 308.593 468.221 309.648 466.925C310.713 465.616 311.99 464.958 313.659 464.854C319.78 464.469 327.184 470.892 331.327 474.9C333.99 477.476 341.763 484.703 341.35 488.683C341.147 490.64 339 492.412 337.7 493.703C334.14 493.011 330.508 492.572 326.913 492.089Z"/>
	<path fill="#5761F0" d="M312.79 467.19C313.442 467.267 314.091 467.35 314.735 467.477C321.015 468.72 333.538 480.218 336.965 485.53C337.98 487.102 338.267 488.026 337.87 489.851C335.75 490.042 333.786 490.009 331.716 489.437C324.958 487.572 317.27 481.557 313.872 475.452C312.218 472.481 311.851 470.438 312.79 467.19Z"/>
	<path fill="#14BCAB" d="M375.602 266.94C386.814 267.992 397.743 270.145 408.838 271.946L454.954 279.231Q470.564 281.867 486.231 284.138C493.149 285.104 500.189 285.654 507.053 286.913C513.28 290.827 522.45 292.651 529.448 294.887C543.535 299.386 557.95 303.709 571.524 309.606C571.216 309.631 570.909 309.66 570.601 309.68C561.722 310.248 541.886 305.799 532.257 304.324C504.293 300.041 476.227 296.434 448.276 292.056C431.105 289.366 414.087 285.726 396.852 283.43C394.483 283.115 391.891 282.686 389.553 283.328C389.519 284.637 389.417 285.359 390.39 286.413C391.55 287.672 393.801 288.259 395.424 288.554C399.825 289.356 404.328 289.682 408.754 290.364L443.798 295.929Q468.161 299.715 492.45 303.951C502.038 305.687 511.557 307.845 521.158 309.486C538.62 312.471 556.118 314.824 573.515 318.24C574.041 333.459 572.15 367.717 577.371 380.428C579.432 385.447 583.058 389.749 586.982 393.428C605.612 410.895 636.997 407.53 660.532 407.511L660.573 633.412L660.568 705.348C660.567 717.38 659.775 730.024 660.743 741.979C655.27 744.734 649.937 747.848 644.321 750.302C626.008 758.301 606.32 760.176 586.65 757.787C583.686 725.7 561.403 700.3 542.68 675.754C564.686 681.047 586.962 685.538 609.117 690.184L609.065 678.914C597.58 677.366 585.895 674.231 574.555 671.807C559.791 668.65 544.777 665.904 530.159 662.15C517.574 647.771 504.461 635.076 490.387 622.179Q482.888 619.83 475.269 617.907C468.051 616.107 442.787 611.987 438.638 607.025C437.883 606.122 437.698 604.556 437.909 603.398Q437.947 603.18 438.008 602.968Q438.07 602.755 438.154 602.551Q438.239 602.347 438.345 602.153Q438.452 601.959 438.58 601.779Q438.707 601.598 438.854 601.433Q439 601.267 439.164 601.119Q439.328 600.971 439.508 600.842Q439.687 600.712 439.88 600.604C444.841 597.801 465.407 604.452 471.633 606.068C463.899 598.577 454.985 591.788 446.643 584.968C436.179 576.413 425.733 567.014 414.02 560.194C408.709 557.102 403.132 555.051 397.378 552.974C397.216 552.947 397.053 552.922 396.891 552.893C394.176 552.412 391.024 551.19 389.533 548.703C389.076 547.942 389.315 547.736 389.492 546.941C390.834 545.86 392.09 545.943 393.727 545.869C387.894 533.197 377.327 518.255 366.761 509.124C365.662 503.668 366.43 497.222 366.4 491.659L366.018 457.151L365.009 351.811Q364.62 329.431 364.955 307.05C365.083 299.34 364.941 291.252 366.05 283.618C367.143 276.093 369.458 271.483 375.602 266.94Z"/>
	<path d="M393.727 545.869C397.747 548.311 402.213 549.602 406.382 551.713C409.561 553.323 412.238 555.704 415.082 557.819C409.583 555.784 403.299 552.72 397.378 552.974C397.216 552.947 397.053 552.922 396.891 552.893C394.176 552.412 391.024 551.19 389.533 548.703C389.076 547.942 389.315 547.736 389.492 546.941C390.834 545.86 392.09 545.943 393.727 545.869Z"/>
	<path fill="#E12726" d="M399.287 507.032C402.399 506.897 405.204 507.137 408.155 508.213C414.206 510.419 418.916 515.277 421.449 521.142C423.647 526.232 424.125 532.294 421.825 537.441C419.619 542.377 415.711 544.711 410.854 546.52C407.469 546.62 404.506 546.245 401.389 544.826C395.11 541.967 389.881 536.347 387.619 529.824C386.019 525.211 385.963 520.122 388.184 515.701C390.539 511.013 394.529 508.69 399.287 507.032Z"/>
	<path fill="#E12726" d="M398.45 412.03C402.435 412.07 405.758 412.444 409.362 414.277Q409.881 414.544 410.386 414.837Q410.891 415.13 411.381 415.448Q411.87 415.767 412.342 416.11Q412.814 416.453 413.268 416.82Q413.722 417.187 414.157 417.577Q414.591 417.967 415.005 418.379Q415.419 418.791 415.811 419.223Q416.204 419.656 416.573 420.107Q416.943 420.56 417.288 421.03Q417.634 421.5 417.955 421.988Q418.277 422.475 418.572 422.979Q418.868 423.482 419.137 424Q419.407 424.518 419.649 425.049Q419.892 425.58 420.107 426.123Q420.322 426.666 420.508 427.219Q420.695 427.772 420.853 428.334C422.276 433.281 422.047 439.097 419.422 443.618C416.767 448.194 412.755 450.258 407.849 451.605Q406.485 451.607 405.13 451.454Q403.775 451.301 402.447 450.993Q401.118 450.686 399.833 450.229Q398.548 449.772 397.324 449.171Q396.785 448.899 396.259 448.601Q395.733 448.304 395.223 447.981Q394.712 447.658 394.218 447.311Q393.723 446.963 393.246 446.593Q392.769 446.222 392.311 445.829Q391.852 445.435 391.413 445.02Q390.975 444.605 390.556 444.169Q390.138 443.733 389.741 443.277Q389.345 442.822 388.971 442.347Q388.597 441.873 388.246 441.381Q387.895 440.889 387.569 440.381Q387.242 439.873 386.941 439.349Q386.639 438.826 386.364 438.288Q386.088 437.751 385.838 437.2Q385.589 436.65 385.366 436.088Q385.144 435.527 384.949 434.955C383.421 430.328 383.489 425.029 385.833 420.681C388.573 415.599 393.195 413.561 398.45 412.03Z"/>
	<path fill="#E12726" d="M398.18 458.609C401.846 458.336 405.107 458.661 408.544 460.069Q409.092 460.3 409.628 460.557Q410.164 460.815 410.686 461.1Q411.208 461.384 411.715 461.694Q412.223 462.005 412.714 462.34Q413.205 462.675 413.678 463.035Q414.152 463.395 414.607 463.778Q415.061 464.161 415.496 464.566Q415.932 464.972 416.346 465.398Q416.76 465.825 417.152 466.272Q417.544 466.719 417.913 467.185Q418.282 467.652 418.628 468.136Q418.973 468.62 419.293 469.121Q419.614 469.622 419.909 470.138Q420.204 470.654 420.472 471.185Q420.741 471.715 420.982 472.259Q421.224 472.802 421.438 473.357C423.354 478.305 423.604 484.125 421.376 489.018C419.084 494.052 415.197 496.479 410.27 498.416C406.975 498.633 404.138 498.583 401.018 497.352C394.598 494.818 389.587 489.248 387.093 482.88C385.165 477.956 384.773 472.3 387.074 467.429C389.399 462.506 393.328 460.402 398.18 458.609Z"/>
	<path fill="#E12726" d="M397.218 363.574C400.489 363.453 403.479 363.715 406.571 364.864Q407.122 365.069 407.662 365.303Q408.202 365.536 408.729 365.797Q409.257 366.058 409.77 366.346Q410.283 366.634 410.781 366.948Q411.278 367.261 411.759 367.6Q412.24 367.939 412.703 368.302Q413.165 368.666 413.609 369.052Q414.052 369.439 414.475 369.848Q414.898 370.257 415.299 370.687Q415.701 371.117 416.079 371.567Q416.458 372.017 416.813 372.487Q417.168 372.956 417.499 373.442Q417.829 373.929 418.134 374.432Q418.439 374.935 418.717 375.453Q418.996 375.971 419.248 376.503Q419.499 377.035 419.723 377.579C421.881 382.768 422.375 389.054 419.999 394.261C417.499 399.743 413.021 402.048 407.651 403.955C404.31 403.688 400.849 403.177 397.745 401.871Q397.203 401.646 396.673 401.393Q396.143 401.141 395.626 400.862Q395.109 400.583 394.607 400.279Q394.105 399.974 393.62 399.644Q393.134 399.315 392.665 398.961Q392.197 398.607 391.746 398.23Q391.296 397.853 390.866 397.454Q390.435 397.055 390.026 396.634Q389.616 396.214 389.228 395.773Q388.84 395.333 388.475 394.873Q388.11 394.413 387.768 393.936Q387.427 393.458 387.11 392.964Q386.793 392.469 386.501 391.96Q386.21 391.45 385.945 390.927Q385.679 390.403 385.441 389.866Q385.202 389.33 384.991 388.782C383.086 383.938 382.755 378.287 384.953 373.479C387.434 368.052 391.952 365.646 397.218 363.574Z"/>
	<path d="M438.284 389.473C449.052 389.174 462.261 393.462 472.945 395.585L542.017 409.209C542.152 411.577 542.374 414.158 542.186 416.524C542.058 418.133 542.059 418.901 540.885 419.987C530.159 418.462 442.424 402.213 437.69 398.365C436.829 397.665 436.024 396.236 435.93 395.131C435.743 392.952 437.086 391.139 438.284 389.473Z"/>
	<path d="M440.257 473.468C447.806 473.279 456.318 476.007 463.717 477.57L497.542 484.603L608.932 506.218C609.074 509 609.942 514.861 608.335 517.163L607.357 517.244L501.386 496.343C483.005 492.707 464.133 489.587 446.006 484.912C443.892 484.367 440.056 483.591 438.533 482.022C437.698 481.161 437.111 480.15 437.149 478.914C437.219 476.671 438.827 475.012 440.257 473.468Z"/>
	<path d="M440.468 516.954C456.204 518.337 472.159 522.734 487.679 525.812L557.272 539.597C574.388 543.073 591.532 546.971 608.783 549.694C608.926 552.783 609.588 557.075 608.288 559.97C607.932 560.762 607.535 560.641 606.772 560.872L497.64 539.044C482.981 536.125 468.149 533.736 453.595 530.356C450.093 529.543 440.435 528.072 438.248 525.439C437.481 524.515 436.962 523.335 437.108 522.113C437.371 519.924 438.942 518.373 440.468 516.954Z"/>
	<path d="M490.387 622.179Q482.888 619.83 475.269 617.907C468.051 616.107 442.787 611.987 438.638 607.025C437.883 606.122 437.698 604.556 437.909 603.398Q437.947 603.18 438.008 602.968Q438.07 602.755 438.154 602.551Q438.239 602.347 438.345 602.153Q438.452 601.959 438.58 601.779Q438.707 601.598 438.854 601.433Q439 601.267 439.164 601.119Q439.328 600.971 439.508 600.842Q439.687 600.712 439.88 600.604C444.841 597.801 465.407 604.452 471.633 606.068C488.283 611.391 506.252 614.18 523.363 617.793Q566.316 626.658 608.999 636.745L608.979 647.891C580.155 641.001 550.909 635.462 521.923 629.259C511.669 627.064 500.857 622.577 490.387 622.179Z"/>
	<path d="M440.134 558.449C449.152 558.25 459.148 561.572 467.952 563.537L504.092 571.511Q556.418 582.774 609.007 592.732C609.131 595.831 609.805 600.682 608.437 603.472L607.321 603.834C591.382 600.019 574.969 597.351 558.892 594.115L491.876 580.048C475.399 576.657 457.769 574.387 441.849 568.945C440.374 568.441 439.091 567.93 437.995 566.771C437.161 565.89 436.688 564.856 436.814 563.615C437.044 561.367 438.619 559.934 440.134 558.449Z"/>
	<path d="M440.356 430.439C446.858 430.824 453.643 432.654 460.037 433.928L493.817 440.675L608.816 463.189C608.993 466.223 609.946 471.622 608.128 474.239L606.861 474.296C588.918 470.38 570.796 467.163 552.764 463.682L487.117 450.7C474.579 448.234 461.853 446.261 449.41 443.377C446.414 442.682 441.178 441.807 438.721 439.949C437.637 439.129 436.743 437.842 436.66 436.456C436.51 433.956 438.736 432.006 440.356 430.439Z"/>
</svg>
