<?xml version="1.0" encoding="utf-8" ?>
<svg width="50" height="50" viewBox="0 0 900 900">
	<path transform="scale(1.6 1.6)" d="M328.15 79.5286C332.822 79.2938 337.59 79.602 342.277 79.6157L370.186 79.5998C388.115 79.6046 413.959 78.7471 431.469 81.1342C443.742 82.8075 436.786 92.9751 435.225 100.698C431.106 121.079 430.405 164.66 443.042 181.072C447.581 186.967 458.225 186.871 448.757 196.014C448.474 223.092 449.273 250.53 450.944 277.544C451.204 281.739 451.156 286.281 452.017 290.39C461.513 283.689 476.966 272.138 488.768 271.716C523.566 270.472 532.213 361.486 532.871 392.145C533.509 421.911 537.906 483.73 518.391 503.934C499.715 523.269 456.578 531.486 431.17 541.529C423.657 544.499 423.141 549.907 412.959 551.351C397.89 553.488 386.096 549.974 371.543 549.169C364.097 548.757 355.815 549.921 348.225 550.012C322.744 551.939 279.095 552.933 260.957 531.965C252.888 522.638 254.484 510.383 255.258 498.983C220.242 499.453 173.542 509.318 145.953 482.19C115.116 451.868 114.07 367.914 113.714 322.48L113.78 283.842C113.869 257.412 115.024 231.287 117.01 204.906C119.272 174.857 122.696 127.524 144.392 105.638C167.376 82.453 202.536 86.2852 232.34 84.4991C248.732 83.5168 265.003 81.2992 281.387 80.3266C296.947 79.4031 312.571 79.6615 328.15 79.5286Z"/>
	<path fill="#15BBAB" transform="scale(1.6 1.6)" d="M419.817 196.203C427.204 195.85 434.825 195.132 442.209 195.429C442.589 202.085 442.459 208.78 442.456 215.445L442.467 250.132C442.58 262.002 443.277 285.978 445.432 296.472C436.286 303.142 428.166 311.081 419.028 317.64C418.624 314.954 418.937 312.13 419.01 309.422C419.559 288.82 418.608 268.19 419.309 247.589C419.864 231.279 421.092 212.445 419.817 196.203Z"/>
	<path fill="#FED45E" transform="scale(1.6 1.6)" d="M310.009 356.283C324.487 348.625 375.496 351.552 394.767 355.004L394.74 454.582C394.74 475.104 394.457 495.67 394.833 516.187C385.241 513.173 345.327 509.051 334.413 509.185C325.846 509.291 317.53 510.733 309.045 511.348C309.213 502.709 308.836 493.744 309.073 485.553C308.644 483.897 308.356 480.769 309.367 479.326C308.318 476.948 309.117 465.241 308.956 461.722C308.721 459.229 308.825 456.257 309.35 453.813C310.266 447.67 309.759 435.907 309.651 429.288C309.065 427.265 309.219 424.74 309.836 422.744C310.193 417.129 309.634 411.472 309.757 405.844C309.633 404.083 309.512 402.444 309.781 400.688C308.634 396.092 308.537 386.422 309.607 381.826C309.296 380.202 309.092 377.613 310.062 376.203C308.803 372.101 309.854 361.08 310.009 356.283Z"/>
	<path transform="scale(1.6 1.6)" d="M310.062 376.203C324.107 368.684 342.816 363.02 358.436 367.803C361.754 368.819 365.787 370.181 366.318 374.07L366.069 374.351C343.158 367.819 329.623 375.487 309.607 381.826C309.296 380.202 309.092 377.613 310.062 376.203Z"/>
	<path transform="scale(1.6 1.6)" d="M309.35 453.813L309.379 454.131C309.78 458.138 317.17 453.234 320.866 452.128C331.393 448.978 356.299 443.649 365.482 449.859C374.157 455.725 353.187 452.731 351.803 452.79C337.07 453.417 322.964 457.426 308.956 461.722C308.721 459.229 308.825 456.257 309.35 453.813Z"/>
	<path transform="scale(1.6 1.6)" d="M309.836 422.744C326.317 417.33 346.743 413.251 363.125 421.358C364.602 422.089 365.479 422.935 365.374 424.597C362.921 426.585 353.126 423.746 350.097 423.478C336.356 422.267 322.548 424.53 309.651 429.288C309.065 427.265 309.219 424.74 309.836 422.744Z"/>
	<path transform="scale(1.6 1.6)" d="M309.781 400.688C324.724 393.985 339.356 389.412 355.707 395.716C365.496 399.49 372.644 408.537 360.956 403.446C343.545 395.864 327.112 400.45 309.757 405.844C309.633 404.083 309.512 402.444 309.781 400.688Z"/>
	<path transform="scale(1.6 1.6)" d="M309.367 479.326C313.681 477.819 318.038 476.085 322.478 474.999C327.964 473.655 369.753 467.936 367.515 478.154C365.721 479.626 355.013 478.309 352.177 478.165C333.001 477.186 325.423 482.045 309.073 485.553C308.644 483.897 308.356 480.769 309.367 479.326Z"/>
	<path fill="#FED45E" transform="scale(1.6 1.6)" d="M472.182 310.379C473.654 307.928 485.972 291.538 486.557 301.854C487.315 315.202 486.737 328.886 486.733 342.275L486.731 419.336C486.762 434.144 489.494 452.354 489.079 465.443C481.34 467.816 436.153 495.14 425.976 501.012C417.48 505.914 409.26 511.884 400.367 515.982C400.259 511.386 400.476 506.723 400.483 502.118L400.93 373.112C400.928 355.586 397.692 349.562 408.47 335.637L411.426 332.076C412.138 333.492 413.049 334.978 413.521 336.489C414.855 338.256 417.236 341.129 419.108 342.296L419.208 342.275C420.467 340.424 425.578 337.565 427.614 336.294C444.205 326.197 455.506 321.534 474.779 317.843L473.599 317.047C470.622 315.042 471.681 314.166 472.105 310.989L472.182 310.379Z"/>
	<path transform="scale(1.6 1.6)" d="M478.336 317.472C479.468 318.773 479.089 321.119 479.038 322.747C460.449 326.001 446.02 329.738 428.624 338.311C425.58 339.855 422.505 341.347 419.208 342.275C420.467 340.424 425.578 337.565 427.614 336.294C444.205 326.197 455.506 321.534 474.779 317.843C475.97 317.586 477.121 317.527 478.336 317.472Z"/>
	<path transform="scale(1.6 1.6)" d="M476.559 418.89C481.595 418.738 482.222 423.897 477.717 424.804C473.185 425.716 468.409 425.594 463.83 426.519C456.149 428.069 449.051 431.135 441.605 433.449C439.983 433.711 438.63 433.83 437.596 432.41C437.108 423.67 470.594 419.085 476.559 418.89Z"/>
	<path transform="scale(1.6 1.6)" d="M466.075 393.252C468.604 393.084 480.715 391.661 479.596 396.778C479.233 398.437 477.016 398.555 475.641 398.628C460.538 399.435 455.756 400.97 442.601 408.787C440.501 410.051 436.328 413.681 433.704 411.935C427.338 407.698 453.315 394.389 466.075 393.252Z"/>
	<path transform="scale(1.6 1.6)" d="M470.413 366.694C473.382 366.488 476.4 366.958 479.341 367.333C484.687 375.629 473.724 372.246 466.091 373.385C456.839 374.766 448.568 379.106 440.45 383.517L439.794 383.85C429.622 388.975 430.156 384.497 438.577 378.19C448.24 370.954 458.455 367.494 470.413 366.694Z"/>
	<path transform="scale(1.6 1.6)" d="M464.762 342.939C467.34 342.682 480.661 341.101 479.21 346.942C477.318 348.541 464.755 348.637 461.334 349.189C450.631 350.916 440.92 354.423 431.298 359.277C428.849 360.641 421.296 366.185 420.032 360.786C422.031 352.47 454.007 343.972 464.762 342.939Z"/>
	<path transform="scale(1.6 1.6)" d="M476.152 446.678C477.53 446.418 479.077 446.536 480.481 446.523C487.943 453.816 472.992 452.798 465.281 455.413C450.252 460.511 435.249 467.818 420.951 474.701C419.184 475.476 417.509 476.106 415.633 476.567C415.979 474.69 416.144 472.79 417.375 471.236C422.542 464.71 462.66 448.506 476.152 446.678Z"/>
	<path fill="#FC615C" transform="scale(1.6 1.6)" d="M411.426 332.076C421.248 320.476 449.909 302.722 462.81 294.447C473.444 287.627 491.63 272.584 504.135 283.355C526.538 302.65 525.403 386.503 525.391 417.823C525.382 439.31 527.509 476.729 511.942 494.105C497.796 509.895 445.351 524.654 424.624 531.53C415.232 534.646 406.172 539.733 396.1 540.217C388.941 540.561 382.367 537.517 374.981 537.265C349.996 536.412 292.492 542.168 273.878 525.166C260.562 513.003 261.493 486.294 262.291 469.004C264.186 427.933 266.571 389.489 265.973 348.297C265.79 335.684 261.57 319.943 280.157 319.752C300.591 319.541 321.641 323.413 341.804 326.221C354.607 328.004 368.266 329.052 380.678 332.697C393.039 336.327 394.588 342.76 394.767 355.004C375.496 351.552 324.487 348.625 310.009 356.283C309.854 361.08 308.803 372.101 310.062 376.203C309.092 377.613 309.296 380.202 309.607 381.826C308.537 386.422 308.634 396.092 309.781 400.688C309.512 402.444 309.633 404.083 309.757 405.844C309.634 411.472 310.193 417.129 309.836 422.744C309.219 424.74 309.065 427.265 309.651 429.288C309.759 435.907 310.266 447.67 309.35 453.813C308.825 456.257 308.721 459.229 308.956 461.722C309.117 465.241 308.318 476.948 309.367 479.326C308.356 480.769 308.644 483.897 309.073 485.553C308.836 493.744 309.213 502.709 309.045 511.348C307.76 512.267 306.831 514.881 307.854 516.283C310.795 517.472 325.98 516.238 330.219 516.118C348.443 515.602 367.3 517.024 385.068 521.385C389.53 522.48 394.788 524.915 399.386 523.524C408.82 520.671 442.334 500.033 452.954 493.872C463.905 487.518 474.427 480.447 485.638 474.541C487.813 473.395 499.127 469.006 496.766 465.482C494.358 464.092 491.612 464.818 489.079 465.443C489.494 452.354 486.762 434.144 486.731 419.336L486.733 342.275C486.737 328.886 487.315 315.202 486.557 301.854C485.972 291.538 473.654 307.928 472.182 310.379L472.105 310.989C471.681 314.166 470.622 315.042 473.599 317.047L474.779 317.843C455.506 321.534 444.205 326.197 427.614 336.294C425.578 337.565 420.467 340.424 419.208 342.275L419.108 342.296C417.236 341.129 414.855 338.256 413.521 336.489C413.049 334.978 412.138 333.492 411.426 332.076Z"/>
	<path fill="#15BBAB" transform="scale(1.6 1.6)" d="M314.885 89.199C331.274 88.6711 347.678 89.4273 364.065 89.6032L394.532 90.0284C406.479 90.1411 418.168 90.5193 430.114 91.6108C422.803 125.417 424.741 152.352 434.686 186.202C378.49 189.798 322.145 185.409 265.973 183.832L227.705 182.755C205.068 181.939 183.798 180.835 163.348 169.918C139.02 156.93 127.803 136.613 148.484 114.482C167.176 94.4791 193.083 94.8364 218.485 94.5993C250.053 94.3046 282.684 90.2709 314.885 89.199Z"/>
	<path fill="#5661EE" transform="scale(1.6 1.6)" d="M132.514 146.859C143.623 167.066 150.493 172.928 172.822 182.474C173.556 194.093 173.416 205.796 173.462 217.436L175.389 442.645C175.498 451.533 175.298 462.474 176.235 471.198C177.047 478.762 185.936 482.416 186.448 473.43C186.803 467.197 186.433 460.75 186.421 454.497L186.239 197.276C186.162 192.852 186.443 188.62 185.837 184.209C204.291 187.83 223.365 188.458 242.072 190.155C303.509 195.728 358.414 198.249 419.817 196.203C421.092 212.445 419.864 231.279 419.309 247.589C418.608 268.19 419.559 288.82 419.01 309.422C418.937 312.13 418.624 314.954 419.028 317.64C394.06 336.263 390.391 329.785 360.219 325.561C344.65 323.381 278.441 311.594 267.917 320.7C260.323 327.271 262.873 343.369 262.873 353.193L262.877 406.718C262.901 432.907 260.558 463.931 258.593 490.023C248.989 491.335 238.856 491.168 229.16 491.402C200.135 492.1 163.127 495.543 144.847 467.474C124.863 436.79 124.458 387.043 123.439 351.667C121.76 293.41 123.013 235.247 128.623 177.203C129.598 167.117 130.402 156.779 132.514 146.859Z"/>
</svg>
