<?xml version="1.0" encoding="utf-8" ?>
<svg width="50" height="50" viewBox="0 0 900 900">
	<path transform="scale(1.6 1.6)" d="M201.465 91.1148C209.789 90.7675 218.155 90.9254 226.487 90.9238C264.799 90.9164 303.579 92.8447 341.74 96.5091C372.151 99.4295 402.715 104.794 433.321 104.781C443.916 104.776 452.269 102.766 460.823 110.65C473.503 122.336 464.518 155.527 464.106 173.957C463.239 212.738 466.243 251.55 465.322 290.365C465.09 300.143 464.335 310.01 464.671 319.786C463.026 322.014 478.428 332.432 481.996 335.573C554.311 399.225 535.564 514.394 445.515 550.627C394.541 571.239 335.591 558.912 295.02 522.27C290.759 518.421 286.469 514.505 282.94 509.956C278.577 510.696 274.255 511.926 269.919 512.838C239.538 519.224 204.686 517.986 175.895 506.276C128.858 487.143 137.689 417.536 139.572 376.438C141.567 332.909 134.44 289.39 136.331 245.09C137.193 224.903 138.253 206.787 137.52 186.35C136.582 160.223 132.48 123.056 151.686 102.675C163.168 90.4907 185.854 91.5751 201.465 91.1148Z"/>
	<path fill="#15BBAB" transform="scale(1.6 1.6)" d="M152.452 357.905C153.369 360.198 153.003 363.318 152.966 365.769C153.966 365.761 154.971 365.779 155.968 365.692C157.32 366.618 164.345 372.217 164.422 367.81C164.464 365.356 162.893 363.04 162.777 360.528C165.316 366.773 167.067 390.583 165.73 397.325C165.64 395.02 165.605 392.729 165.625 390.424C163.392 399.777 163.288 406.815 168.569 415.682C170.668 419.204 206.759 420.456 211.062 420.225C218.902 419.805 245.762 414.897 250.078 417.451C248.941 458.03 261.891 477.702 282.438 508.633C248.871 511.496 215.466 506.559 185.09 491.273C159.435 478.362 154.121 468.581 151.381 439.638C149.144 415.997 150.69 398.198 152.136 374.495C152.472 368.989 152.254 363.426 152.452 357.905Z"/>
	<path fill="#FC615C" transform="scale(1.6 1.6)" d="M414.264 307.993C418.576 309.013 423.279 310.235 427.354 312.008C430.879 313.152 434.426 314.524 437.812 316.035C470.515 330.754 496.629 355.63 509.492 389.521C540.427 471.023 485.174 542.771 403.309 552.092C403.248 551.177 401.845 550.079 401.209 549.43C385.378 533.255 378.642 508.184 376.281 486.275C375.66 480.509 375.932 474.583 374.615 468.907C403.897 461.28 429.042 435.824 406.452 407.521C406.889 407.279 407.223 407.046 407.613 406.741C407.157 403.313 391.405 383.941 387.538 376.946C377.757 359.255 377.548 337.407 389.668 320.647C393.361 315.539 397.862 311.542 404.234 310.521C407.906 310.6 411.451 310.984 415.1 311.334L415.347 311.016L415.646 311.077L416.187 310.072C415.983 309.002 415.115 308.592 414.264 307.993Z"/>
	<path fill="#FD9AA1" transform="scale(1.6 1.6)" d="M426.834 314.433L426.583 313.977C422.923 312.936 426.568 312.341 427.354 312.008C430.879 313.152 434.426 314.524 437.812 316.035C439.594 319.979 428.474 315.141 426.834 314.433Z"/>
	<path fill="#FEBDBD" transform="scale(1.6 1.6)" d="M414.264 307.993C418.576 309.013 423.279 310.235 427.354 312.008C426.568 312.341 422.923 312.936 426.583 313.977L426.834 314.433C423.043 313.478 418.711 312.777 415.1 311.334L415.347 311.016L415.646 311.077L416.187 310.072C415.983 309.002 415.115 308.592 414.264 307.993Z"/>
	<path fill="#FED45E" transform="scale(1.6 1.6)" d="M429.695 471.89C429.706 470.537 429.364 469.034 429.267 467.66C427.973 449.285 427.511 430.641 427.184 412.232C427.076 406.13 424.033 392.723 432.48 390.975C437.168 390.004 469.272 391.589 474.539 392.338C482.212 393.429 482.703 398.222 478.685 403.729C477.838 427.739 474.034 501.863 436.595 500.405C418.066 499.683 423.788 475.551 429.695 471.89Z"/>
	<path transform="scale(1.6 1.6)" d="M429.695 471.89C429.706 470.537 429.364 469.034 429.267 467.66C427.973 449.285 427.511 430.641 427.184 412.232C427.076 406.13 424.033 392.723 432.48 390.975C437.168 390.004 469.272 391.589 474.539 392.338C482.212 393.429 482.703 398.222 478.685 403.729C473.927 404.665 445.246 401.495 437.513 401.494L438.147 423.508C447.73 422.202 469.113 418.174 472.413 429.666C469.365 438.953 465.338 434.642 457.314 433.412C451.356 432.498 444.83 433.246 438.826 433.595C438.876 439.222 438.946 444.863 439.248 450.482C439.629 457.599 443.391 477.056 429.695 471.89Z"/>
	<path fill="#FED45E" transform="scale(1.6 1.6)" d="M337.549 309.203C342.427 308.059 347.182 306.406 352.09 305.311C358.938 303.783 389.719 300.392 396.847 302.358C401.982 306.059 408.821 305.318 414.264 307.993C415.115 308.592 415.983 309.002 416.187 310.072L415.646 311.077L415.347 311.016L415.1 311.334C411.451 310.984 407.906 310.6 404.234 310.521C397.862 311.542 393.361 315.539 389.668 320.647C377.548 337.407 377.757 359.255 387.538 376.946C391.405 383.941 407.157 403.313 407.613 406.741C407.223 407.046 406.889 407.279 406.452 407.521C429.042 435.824 403.897 461.28 374.615 468.907C375.932 474.583 375.66 480.509 376.281 486.275C378.642 508.184 385.378 533.255 401.209 549.43C401.845 550.079 403.248 551.177 403.309 552.092C315.774 556.406 240.838 484.251 256.658 394.38C261.553 366.569 281.691 341.026 304.392 325.073C304.781 324.993 305.262 324.69 305.624 324.514C309.66 321.751 313.96 319.309 318.151 316.786C324.515 314.095 330.941 311.238 337.549 309.203Z"/>
	<path fill="#FEFEFE" transform="scale(1.6 1.6)" d="M337.549 309.203C342.427 308.059 347.182 306.406 352.09 305.311C358.938 303.783 389.719 300.392 396.847 302.358C401.982 306.059 408.821 305.318 414.264 307.993C415.115 308.592 415.983 309.002 416.187 310.072L415.646 311.077L415.347 311.016L415.1 311.334C411.451 310.984 407.906 310.6 404.234 310.521C374.245 302.884 348.181 306.761 319.859 319.547C317.437 320.64 308.116 325.955 306.359 325.822L305.624 324.514C309.66 321.751 313.96 319.309 318.151 316.786C324.515 314.095 330.941 311.238 337.549 309.203Z"/>
	<path transform="scale(1.6 1.6)" d="M298.472 389.15C312.713 388.212 345.596 399.453 349.073 416.053C352.51 432.458 332.071 446.226 318.366 448.687C314.145 449.298 309.828 449.43 305.574 449.679C305.752 455.501 307.504 465.103 302.975 469.476C300.565 471.803 295.085 471.02 294.375 467.429C293.67 463.865 294.589 459.253 294.702 455.591C295.177 440.181 294.418 424.795 292.511 409.497C291.398 400.577 286.453 391.204 298.472 389.15Z"/>
	<path fill="#FC615C" transform="scale(1.6 1.6)" d="M301.425 399.837C313.677 399.974 332.568 407.723 337.268 419.641C335.809 424.706 333.471 427.747 329.574 431.19C322.11 437.178 314.463 438.417 305.112 438.451C304.364 425.455 302.654 412.756 301.425 399.837Z"/>
	<path transform="scale(1.6 1.6)" d="M374.615 468.907C370.118 470.338 355.881 473.179 353.867 466.831C352.774 463.389 355.456 452.882 355.939 448.708C357.649 433.925 356.902 419.175 356.595 404.339C355.883 369.926 394.495 395.281 406.452 407.521C429.042 435.824 403.897 461.28 374.615 468.907Z"/>
	<path fill="#FC615C" transform="scale(1.6 1.6)" d="M366.594 398.61C388.867 399.813 419.073 426.103 390.571 448.281C382.99 453.892 374.426 457.849 364.959 458.6C365.326 449.746 366.871 440.938 367.112 432.031C367.413 420.856 366.43 409.751 366.594 398.61Z"/>
	<path fill="#5661EE" transform="scale(1.6 1.6)" d="M152.452 357.905C152.046 355.294 152.282 352.328 152.185 349.654C151.474 330.071 148.878 310.629 147.873 291.065C146.339 261.193 149.734 234.3 149.623 205.319C149.519 178.135 137.617 137.425 157.563 115.347C173.543 97.6579 203.029 99.9936 225.044 99.9944C268.361 99.9958 315.449 102.898 358.48 107.57C382.998 110.232 408.65 115.971 433.333 115.165C440.701 114.924 449.557 112.6 455.551 118.241C462.722 124.989 459.785 142.202 459.78 150.876C459.769 170.193 460.111 189.528 458.688 208.807C457.581 223.806 454.876 238.642 454.748 253.723C454.567 275.198 457.541 296.359 457.914 317.782C440.653 310.364 424.369 300.878 405.103 299.543C402.155 299.677 399.182 300.476 396.847 302.358C389.719 300.392 358.938 303.783 352.09 305.311C347.182 306.406 342.427 308.059 337.549 309.203C330.941 311.238 324.515 314.095 318.151 316.786C313.96 319.309 309.66 321.751 305.624 324.514C305.262 324.69 304.781 324.993 304.392 325.073C298.979 325.098 283.726 339.767 279.278 344.262C257.342 366.432 251.444 387.682 250.078 417.451C245.762 414.897 218.902 419.805 211.062 420.225C206.759 420.456 170.668 419.204 168.569 415.682C163.288 406.815 163.392 399.777 165.625 390.424C165.605 392.729 165.64 395.02 165.73 397.325C167.067 390.583 165.316 366.773 162.777 360.528C162.893 363.04 164.464 365.356 164.422 367.81C164.345 372.217 157.32 366.618 155.968 365.692C154.971 365.779 153.966 365.761 152.966 365.769C153.003 363.318 153.369 360.198 152.452 357.905Z"/>
	<path fill="#15BBAB" transform="scale(1.6 1.6)" d="M318.151 316.786C315.065 316.368 298.156 319.184 293.643 319.653C270.176 322.09 214.85 326.645 196.934 321.586C176.464 315.805 184.854 289.624 186.169 273.725C188.595 244.378 189.028 215.268 185.589 186.01C183.467 167.958 176.681 149.377 201.992 147.856C218.53 146.862 235.482 148.225 251.983 149.364L297.594 152.498C316.461 153.926 335.266 155.104 354.062 157.373C363.213 158.478 384.981 159.238 389.813 168.74L392.757 166.005C415.163 170.571 412.838 193.482 414.12 211.902C414.935 223.61 417.7 253.258 414.884 264.269C414.369 262.425 413.876 261.028 414.535 259.15C410.2 260.394 402.877 291.533 400.216 293.78C401.021 295.243 402.025 296.492 402.603 298.074C403.377 298.979 404.158 299.025 405.103 299.543C402.155 299.677 399.182 300.476 396.847 302.358C389.719 300.392 358.938 303.783 352.09 305.311C347.182 306.406 342.427 308.059 337.549 309.203C330.941 311.238 324.515 314.095 318.151 316.786Z"/>
	<path transform="scale(1.6 1.6)" d="M318.151 316.786C315.065 316.368 298.156 319.184 293.643 319.653C270.176 322.09 214.85 326.645 196.934 321.586C176.464 315.805 184.854 289.624 186.169 273.725C188.595 244.378 189.028 215.268 185.589 186.01C183.467 167.958 176.681 149.377 201.992 147.856C218.53 146.862 235.482 148.225 251.983 149.364L297.594 152.498C316.461 153.926 335.266 155.104 354.062 157.373C363.213 158.478 384.981 159.238 389.813 168.74C397.077 190.144 399.749 265.043 393.108 282.047C383.784 278.821 388.263 266.58 388.417 257.303C388.665 242.418 388.213 183.257 383.322 172.158C379.865 164.311 354.58 163.39 347.134 162.5C304.921 157.459 269.517 156.24 227.524 156.257C219.113 156.261 198.598 154.225 192.548 160.188C192.29 179.058 196.329 197.88 196.442 216.812L196.472 245.176C196.465 265.182 193.087 284.158 193.174 303.306C193.208 310.826 198.137 312.581 204.811 313.967C231.165 319.441 287.999 315.997 314.43 313.047C319.624 312.468 335.184 308.952 337.549 309.203C330.941 311.238 324.515 314.095 318.151 316.786Z"/>
</svg>
