<?xml version="1.0" encoding="utf-8" ?>
<svg width="100" height="50" viewBox="0 50 800 900">
	<path fill="#FC615C" transform="scale(2.48636 2.48636)" d="M394.23 115.238C401.749 116.303 409.8 115.938 417.384 115.857C424.023 115.786 430.668 115.84 437.306 115.669C437.086 120.111 437.204 124.615 437.195 129.062L437.155 152.51L437.097 222.83L437.221 395.128C431.696 394.673 425.906 395.035 420.357 395.055C411.669 395.087 402.947 394.946 394.266 395.259C393.828 383.629 394.087 371.877 394.072 360.235L394.05 296.558L394.23 115.238Z"/>
	<path fill="#5661EE" transform="scale(2.48636 2.48636)" d="M74.9445 115.509C89.289 115.419 103.638 115.828 117.993 115.69C117.649 120.685 117.817 125.798 117.817 130.805L117.824 155.457L117.933 233.515L117.934 338.875C117.916 357.588 117.439 376.393 118.017 395.095C110.636 394.734 103.184 394.84 95.7918 394.841C88.808 394.842 81.7431 394.715 74.7719 395.151L74.7457 231.191C74.7479 192.647 74.3042 154.044 74.9445 115.509Z"/>
	<path fill="#15BBAB" transform="scale(2.48636 2.48636)" d="M318.159 113.357C324.883 112.797 332.658 114.065 339.015 116.268C353.237 121.196 364.068 131.635 370.495 145.076C373.329 151.002 374.881 157.508 375.469 164.039C376.333 173.647 375.807 183.703 375.813 193.357L375.825 245.941L375.838 308.336C375.841 319.448 376.335 331.315 375.645 342.337C375.247 348.704 374.336 355.29 372.176 361.306C367.496 374.341 358.173 384.895 345.592 390.784C333.637 396.381 320.097 397.309 307.624 392.78C300.051 390.03 293.772 385.476 288.652 379.268C280.671 369.589 275.123 355.108 269.896 343.602L255.844 313.303L233.115 363.154C226.524 377.649 218.963 387.019 203.558 392.793C192.987 396.383 182.459 396.747 171.822 393.218C159.227 389.04 148.151 379.155 142.279 367.293C139.224 361.122 137.676 354.192 137.061 347.364C136.098 336.678 136.549 325.68 136.544 314.956L136.537 261.777L136.533 201.125C136.53 190.174 136.019 178.954 136.714 168.034C137.097 162.024 138.072 156.042 140.023 150.333C144.814 136.316 154.527 125.253 167.834 118.762C180.169 112.745 196.235 111.899 209.201 116.466C228.723 123.341 237.512 140.342 245.199 158.088C248.854 166.524 252.28 175.09 256.249 183.381C258.733 179.544 260.397 174.531 262.069 170.285C267.012 157.729 272.229 142.042 281.042 131.743C290.8 120.341 303.277 114.455 318.159 113.357ZM321.008 157.314C317.046 158.081 313.376 159.933 311.067 163.378C306.764 169.799 304.704 177.741 301.944 184.905L288.289 220.115C285.839 226.301 283.376 232.495 280.726 238.598C279.057 242.439 276.931 246.401 275.642 250.37L291.294 286.176C297.458 300.094 303.805 313.927 309.794 327.924C312.409 333.911 316.588 346.502 322.937 348.921C324.58 349.547 326.281 349.493 327.885 348.771C329.811 347.903 331.477 346.296 332.17 344.279C333.708 339.803 332.985 315.343 332.985 308.627L332.986 256.929L332.936 201.62C332.924 191.571 333.264 181.393 332.771 171.359C332.627 168.437 332.304 165.133 330.954 162.493C329.839 160.312 327.999 158.687 325.655 157.943C324.236 157.492 322.5 157.243 321.008 157.314ZM188.674 157.577C185.511 158.534 183.035 160.174 181.427 163.161C179.677 166.411 179.357 170.566 179.218 174.185C178.895 182.628 179.292 191.2 179.295 199.658L179.301 254.686L179.28 311.75C179.277 318.335 178.537 338.874 180.13 344.146C180.751 346.199 181.849 347.474 183.74 348.465C185.304 349.284 187.056 349.54 188.748 348.971C193.112 347.506 196.09 341.79 197.87 337.9C199.772 333.744 201.461 329.484 203.254 325.28L228.284 268.862C231.096 262.5 234.203 256.23 236.854 249.803C228.256 230.46 220.648 210.556 212.752 190.913L206.86 176.229C205.264 172.24 203.834 168.111 201.601 164.422C199.941 161.679 197.727 159.29 194.65 158.154C192.692 157.431 190.727 157.305 188.674 157.577Z"/>
</svg>
