<?xml version="1.0" encoding="utf-8" ?><svg xmlns="http://www.w3.org/2000/svg" xmlns:xlink="http://www.w3.org/1999/xlink" width="1024" height="1024" viewBox="0 0 1024 1024"><path transform="scale(2 2)" d="M196.737 71.1925C195.551 65.7983 214.017 63.7932 217.706 63.6858C240.998 63.0073 284.917 83.7944 271.856 111.183C280.8 142.165 269.295 175.066 238.706 188.415C236.034 189.581 231.947 192.592 237.081 191.806C260.037 188.29 264.519 190.791 284.648 198.336C286.312 197.658 287.034 197.094 288.7 197.59C292.515 196.33 304.726 191.004 307.273 188.482C310.194 186.167 334.703 176.032 339.398 174.07C350.038 177.918 435.127 208.807 437.21 219.653C438.421 225.96 437.471 238 437.198 244.967L435.394 301.025C435.17 307.28 435.153 314.731 434.48 320.832C432.73 323.685 370.234 355.104 363.277 358.328C362.997 358.458 362.122 357.973 361.807 357.802C360.886 358.439 359.957 358.949 359.451 359.944C358.537 361.985 349.514 366.739 346.806 365.125C345.432 365.717 344.419 366.166 342.985 366.605C344.776 369.994 337.889 371.488 335.687 372.561C327.627 369.911 318.531 365.184 310.421 361.938C301.191 364.431 287.76 367.906 279.048 371.293C283.714 377.263 286.439 378.293 280.433 384.508C278.91 387.136 273.927 390.641 271.387 392.731C248.309 411.71 209.753 434.061 180.215 442.869C174.509 444.571 157.371 447.193 152.975 442.594C147.869 439.071 143.016 436.696 137.143 432.468C129.464 428.811 122.212 411.709 119.372 404.394C110.89 404.481 104.937 394.466 102.895 387.428C98.9287 373.756 103.041 356.466 109.522 344.103C109.722 341.292 109.511 338.445 109.56 335.626C109.945 313.492 114.996 292.488 121.385 271.429C119.21 273.209 117.584 275.246 115.23 276.78C113.667 279.172 113.075 279.396 110.399 278.242C95.1067 271.65 84.7942 259.596 78.1903 244.634C59.7558 202.869 92.4135 168.782 128.508 153.567C149.412 145.159 138.76 121.717 148.011 103.711C154.099 91.8617 166.359 80.3786 180.625 85.8697C183.276 81.9327 192.504 73.4995 196.737 71.1925Z"/><path fill="#5661EE" transform="scale(2 2)" d="M236.583 196.206C252.023 192.85 266.206 193.936 280.433 200.464C276.321 201.927 240.942 216.146 239.988 218.177C238.292 221.788 239.273 231.793 239.271 235.861L239.276 284.318C239.278 287.972 239.017 297.275 239.917 300.5C239.886 303.455 238.503 310.96 242.17 311.974C242.374 316.032 248.098 316.943 251.019 319.155C249.598 319.803 248.141 320.449 246.807 321.263C243.339 315.126 242.421 322.194 242.921 325.709C246.07 347.862 261.372 364.987 276.506 380.269C278.084 381.863 280.727 381.291 280.073 378.823C278.876 376.101 275.698 373.84 273.852 371.293L274.75 371.293C276.203 372.083 277.538 371.95 279.048 371.293C283.714 377.263 286.439 378.293 280.433 384.508C278.91 387.136 273.927 390.641 271.387 392.731C248.309 411.71 209.753 434.061 180.215 442.869C174.509 444.571 157.371 447.193 152.975 442.594C147.869 439.071 143.016 436.696 137.143 432.468L138.62 430.088C137.575 428.205 135.382 425.728 134.001 423.948C108.905 391.61 110.587 324.632 120.722 288.072C128.08 261.527 137.753 234.39 163.831 220.357C171.093 216.449 179.405 213.634 187.046 209.869C188.626 230.523 221.408 244.629 234.582 220.904C239.228 212.538 238.947 205.246 236.583 196.206Z"/><path transform="scale(2 2)" d="M154.067 440.082C187.505 446.623 241.982 410.793 266.79 391.481C270.339 388.718 277.045 380.329 280.433 384.508C278.91 387.136 273.927 390.641 271.387 392.731C248.309 411.71 209.753 434.061 180.215 442.869C174.509 444.571 157.371 447.193 152.975 442.594C153.291 441.76 153.701 440.9 154.067 440.082Z"/><path transform="scale(2 2)" d="M177.918 298.246C182.218 298.106 180.735 302.787 180.568 306.749C180.03 319.55 182.871 330.06 187.046 341.992C193.295 337.783 234.226 312.66 239.559 314.71C240.617 315.828 240.399 317.389 238.833 318.039C223.447 324.421 209.746 332.277 195.642 341.122C181.72 349.797 166.726 360.15 158.324 374.609C156.805 377.223 156.642 383.068 152.682 380.94C147.366 373.166 178.422 347.873 183.656 344.103C180.946 336.363 172.546 304.862 177.918 298.246Z"/><path fill="#15BBAB" transform="scale(2 2)" d="M115.23 276.78C114.283 275.264 106.698 272.092 104.303 270.461C83.6517 256.395 71.8631 230.285 79.6905 205.745C85.7123 186.865 99.8254 172.545 117.084 163.461C126.58 158.463 135.567 156.284 142.043 147.045C150.297 135.271 144.792 124.92 148.988 112.094C156.445 89.2934 180.118 76.7837 192.708 104.406C202.706 126.344 211.379 160.167 203.108 183.474C196.461 202.207 183.289 207.528 166.766 214.439C141.974 224.81 129.934 247.74 121.385 271.429C119.21 273.209 117.584 275.246 115.23 276.78Z"/><path fill="#FED45E" transform="scale(2 2)" d="M337.928 260.996C367.211 250.903 405.87 238.638 433.346 224.432C434.32 234.198 433.241 244.736 432.84 254.53L431.15 309.375C431.046 312.683 430.75 315.84 430.817 319.155C425.496 321.648 419.464 325.014 414.207 327.791L364.461 353.478C362.046 354.744 361.464 355 361.807 357.802C360.886 358.439 359.957 358.949 359.451 359.944C358.537 361.985 349.514 366.739 346.806 365.125C345.432 365.717 344.419 366.166 342.985 366.605C340.838 365.447 339.448 366.556 337.323 367.478C337.351 362.288 339.528 354.871 333.939 354.773C333.342 354.358 333.374 354.242 332.972 353.592C354.171 343.437 367.114 316.719 337.928 308.461L337.928 260.996Z"/><path transform="scale(2 2)" d="M357.511 357.802L359.451 359.944C358.537 361.985 349.514 366.739 346.806 365.125C345.708 361.337 354.123 359.265 357.511 357.802Z"/><path fill="#FE9C8B" transform="scale(2 2)" d="M246.807 325.245C262.614 319.809 278.28 271.154 294.521 272.264C305.204 273.312 295.982 295.019 294.047 299.585C290.924 307.572 290.003 312.84 300.432 311.378C312.975 309.62 336.921 307.832 346.724 317.725C353.533 324.862 350.659 335.176 344.157 341.333C331.606 353.335 304.255 359.634 287.881 364.265C283.724 365.441 274.415 366.371 274.75 371.293L273.852 371.293C261.92 360.384 248.655 341.458 246.807 325.245Z"/><path fill="#15BBAB" transform="scale(2 2)" d="M196.737 71.1925C202.16 74.2248 228.324 56.1363 258.401 81.8554C259.734 82.9957 261.367 84.3902 262.322 85.8697C262.334 87.0774 263.446 88.6151 264.115 89.7238C267.398 95.5897 267.502 101.744 269.714 105.892C267.371 108.906 264.885 114.677 261.61 118.882C248.438 135.793 230.202 144.472 210.273 151.051L210.195 150.803C209.596 148.921 209.196 147.207 208.879 145.269C206.028 127.863 199.005 93.7136 180.625 85.8697C183.276 81.9327 192.504 73.4995 196.737 71.1925Z"/><path fill="#FED45E" transform="scale(2 2)" d="M339.398 178.193C340.479 178.737 341.545 179.1 342.691 179.48C353.219 182.972 373.782 192.923 383.234 194.463C375.968 200.982 352.04 211.733 342.418 216.8C329.897 211.603 317.69 205.658 305.047 200.684C301.858 199.429 301.011 203.052 303.605 204.169L337.928 219.225C325.749 226.158 307.711 233.274 296.791 240.945C292.443 239.452 288.081 237.412 283.854 235.566L265.048 227.414C259.462 224.928 251.227 221.16 245.541 219.225C259.572 213.239 273.48 207.006 287.678 201.385C289.944 200.487 289.935 199.54 288.7 197.59C292.515 196.33 304.726 191.004 307.273 188.482C307.722 189.715 307.926 190.562 308.767 191.57C309.497 191.758 336.418 179.677 339.398 178.193Z"/><path fill="#FC615C" transform="scale(2 2)" d="M243.277 222.207C249.278 224.9 255.564 227.461 261.629 230.091L293.021 243.697L293.021 268.432C276.424 271.122 263.575 302.755 253.303 315.276C251.106 314.266 244.293 310.568 242.17 311.974C238.503 310.96 239.886 303.455 239.917 300.5C241.016 300.53 241.858 300.68 242.812 300.193C243.8 298.204 243.279 230.655 243.277 222.207Z"/><path fill="#5661EE" transform="scale(2 2)" d="M109.522 344.103C110.036 347.163 109.678 352.099 109.963 355.632C111.088 369.575 113.812 391.555 119.372 404.394C110.89 404.481 104.937 394.466 102.895 387.428C98.9287 373.756 103.041 356.466 109.522 344.103Z"/><path fill="#FC615C" transform="scale(2 2)" d="M315.741 359.944C321.244 358.283 327.549 355.687 332.972 353.592C333.374 354.242 333.342 354.358 333.939 354.773C332.869 356.644 333.962 364.739 333.939 367.478C328.049 365.55 321.879 362.192 315.741 359.944Z"/><path fill="#FEFEFE" transform="scale(2 2)" d="M262.322 85.8697C263.592 87.0942 264.397 88.1501 265.23 89.7238C268.735 92.2803 271.341 101.758 269.714 105.892C267.502 101.744 267.398 95.5897 264.115 89.7238C263.446 88.6151 262.334 87.0774 262.322 85.8697Z"/><path fill="#FED45E" transform="scale(2 2)" d="M387.465 197.59C393.79 198.069 427.911 213.918 432.935 220.278C416.896 227.947 399.759 234.276 383.122 240.479L356.128 250.26C349.281 252.726 342.622 255.232 335.687 257.479C328.418 254.854 319.966 251.231 312.729 248.249C308.269 246.5 305.052 244.473 300.331 243.697C304.07 241.018 338.475 222.923 342.418 222.207C346.072 222.559 349.463 224.447 352.831 225.901L368.231 232.567C370.782 233.686 373.687 236.111 376.129 233.587C377.227 230.227 350.76 220.718 346.806 219.225C351.996 216.326 384.895 200.051 387.465 197.59Z"/><path fill="#FED45E" transform="scale(2 2)" d="M269.714 114.94C269.8 115.096 270.536 121.331 270.646 122.172C275.224 157.17 246.992 195.582 210.273 187.708C208.923 187.462 207.598 187.148 206.26 186.845C210.594 173.307 210.528 168.332 210.273 154.618C239.66 147.451 251.57 135.993 269.714 114.94Z"/><path fill="#FC615C" transform="scale(2 2)" d="M296.791 245.395C305.837 249.667 324.863 258.656 333.939 260.996L333.939 307.655C331.331 307.219 329.151 306.819 326.56 306.226C319.843 305.96 313.202 305.822 306.517 306.62C303.809 306.943 298.878 308.258 296.352 307.846C293.378 303.539 313.636 278.298 296.791 268.432C296.6 261.053 296.786 252.841 296.791 245.395Z"/><path fill="#FED45E" transform="scale(2 2)" d="M204.706 190.5C214.327 192.744 220.875 193.317 230.798 191.093C234.38 206.085 238.797 220.503 220.061 228.319C205.589 233.563 192.999 220.884 190.219 207.257C196.723 202.404 200.507 197.25 204.706 190.5Z"/></svg>