<?xml version="1.0" encoding="utf-8" ?>
<svg width="200" height="200" viewBox="50 90 900 900">
	<path fill="#AFAEAE" d="M425.406 200.673C461.843 196.26 483.317 200.976 515.674 218.158C512.168 219.027 507.134 218.005 503.568 217.446C490.116 215.335 476.827 212.387 463.312 210.614C452.895 209.248 442.393 208.94 431.997 207.709C431.345 205.2 427.309 202.402 425.406 200.673Z"/>
	<defs>
		<linearGradient id="gradient_0" gradientUnits="userSpaceOnUse" x1="523.9975" y1="233.24246" x2="527.86774" y2="218.35246">
			<stop offset="0" stop-color="#C2A34F"/>
			<stop offset="1" stop-color="#B39065"/>
		</linearGradient>
	</defs>
	<path fill="url(#gradient_0)" d="M431.997 207.709C442.393 208.94 452.895 209.248 463.312 210.614C476.827 212.387 490.116 215.335 503.568 217.446C507.134 218.005 512.168 219.027 515.674 218.158C530.725 221.178 545.703 226.093 560.779 229.505C579.262 233.688 597.983 236.456 616.451 240.515C617.006 242.264 617.525 244.034 618.193 245.743C608.723 243.082 597.354 241.842 587.563 239.994C572.721 237.192 558.12 233.705 543.453 230.129C538.191 228.846 532.773 227.912 527.577 226.436C519.833 222.403 447.638 211.332 437.405 212.095C435.502 211.151 432.937 211.272 430.834 211.134C432.156 211.12 433.206 211.039 434.502 210.715C434.078 209.561 432.893 209.147 431.873 208.495L431.997 207.709Z"/>
	<path fill="#AA803D" d="M732.249 246.337C732.446 246.37 732.643 246.406 732.84 246.437C745.254 248.422 758.547 247.553 771.119 248.078C813.525 249.849 848.807 261.228 874.825 296.903C898.598 329.499 900.339 358.202 896.676 396.667C895.493 409.093 894.151 421.555 892.496 433.926C890.929 433.667 889.38 433.167 887.847 432.745C889.89 421.945 891.373 410.744 892.058 399.775C892.307 395.788 892.117 391.786 892.383 387.809C892.674 383.456 893.612 379.158 893.828 374.795C895.325 344.479 884.153 312.653 863.611 290.295C826.907 250.346 778.394 252.874 728.929 250.964L732.249 246.337Z"/>
	<path fill="#AA803D" d="M913.205 529.409C919.368 535.297 925.454 541.122 930.71 547.863C944.457 565.494 951.13 588.158 951.661 610.339C952.723 654.687 932.852 700.144 902.332 731.894C884.662 750.275 862.8 763.859 839.081 772.972C833.641 775.062 823.908 776.635 819.438 779.104C787.914 786.13 755.139 786.442 723.904 794.337C710.131 797.818 697.207 802.306 684.208 808.036C678.416 810.589 672.38 814.274 666.492 816.378C666.616 814.883 666.489 813.405 666.416 811.909C693.07 798.402 720.974 788.9 750.743 785.311C768.962 783.114 803.045 781.157 819.135 774.684C824.973 772.342 831.525 771.156 837.498 768.955C858.396 761.251 877.326 749.561 893.538 734.287C924.689 704.938 946.543 660.217 947.612 617.142C948.172 594.57 941.715 570.845 928.478 552.44C923.89 546.061 918.441 540.443 913.054 534.749L913.205 529.409Z"/>
	<path fill="#5761F0" d="M872.169 192.133C878.201 191.404 884.836 192.668 890.036 195.84C896.072 199.522 900.308 205.671 901.916 212.525C903.579 219.612 902.384 227.251 898.374 233.359C893.985 240.047 887.629 242.812 880.116 244.431C873.729 244.864 867.883 243.596 862.471 240.081C856.283 236.063 851.958 229.72 850.387 222.516C848.935 215.863 849.988 208.742 853.779 203.026C858.197 196.366 864.596 193.523 872.169 192.133Z"/>
	<path fill="#FED560" d="M666.492 816.378C672.38 814.274 678.416 810.589 684.208 808.036C697.207 802.306 710.131 797.818 723.904 794.337C755.139 786.442 787.914 786.13 819.438 779.104C822.333 802.841 814.465 829.754 799.691 848.456C786.499 865.154 766.46 876.873 745.218 879.312C726.705 881.437 707.18 876.671 692.584 864.891C677.987 853.11 668.849 834.882 666.492 816.378Z"/>
	<path fill="#FED560" d="M702.069 710.188C711.782 706.372 721.938 703.454 731.831 700.104C750.151 693.901 768.469 687.544 786.633 680.896C801.65 705.614 818.471 745.347 819.135 774.684C803.045 781.157 768.962 783.114 750.743 785.311C720.974 788.9 693.07 798.402 666.416 811.909C665.125 803.877 666.165 794.735 667.371 786.758C670.573 765.593 678.721 745.197 690.309 727.216C694.047 721.416 698.351 715.997 702.069 710.188Z"/>
	<path fill="#E12726" d="M180.339 370.302C180.236 370.036 180.129 369.772 180.031 369.503C177.421 362.351 173.686 355.7 170.603 348.744C165.319 336.822 161.223 324.275 158.461 311.53C150.66 275.526 157.549 236.451 177.626 205.481C195.431 178.018 223.575 160.27 255.425 153.696C303.21 143.832 354.007 154.926 395.572 179.659C406.122 185.936 415.226 193.929 425.406 200.673C427.309 202.402 431.345 205.2 431.997 207.709L431.873 208.495C432.893 209.147 434.078 209.561 434.502 210.715C433.206 211.039 432.156 211.12 430.834 211.134C367.112 209.202 298.044 219.788 249.957 265.162C215.446 297.724 204.187 339.955 201.337 385.605C201.272 385.84 201.199 386.073 201.141 386.309C200.897 387.311 200.872 388.128 200.853 389.149C199.762 389.775 199.286 389.572 198.058 389.537L197.934 389.157C195.151 389.318 192.533 387.905 190.068 386.77C186.456 381.55 183.724 375.691 180.339 370.302Z"/>
	<path fill="#FEFEFE" d="M197.934 389.157C198.82 381.625 199.331 374.045 200.077 366.498C204.317 323.616 221.711 283.902 255.58 256.143C295.237 223.64 345.347 210.561 395.831 208.277C407.642 207.742 420.106 207.32 431.873 208.495C432.893 209.147 434.078 209.561 434.502 210.715C433.206 211.039 432.156 211.12 430.834 211.134C367.112 209.202 298.044 219.788 249.957 265.162C215.446 297.724 204.187 339.955 201.337 385.605C201.272 385.84 201.199 386.073 201.141 386.309C200.897 387.311 200.872 388.128 200.853 389.149C199.762 389.775 199.286 389.572 198.058 389.537L197.934 389.157Z"/>
	<path fill="#AFAEAE" d="M126.692 735.13C123.614 730.611 119.75 726.44 116.372 722.124C110.456 714.565 104.809 706.774 99.5858 698.718C81.4761 670.785 70.1045 639.628 69.6351 606.075C68.9032 553.76 96.6557 499.502 126.559 458.214C147.225 429.68 172.626 406.269 180.339 370.302C183.724 375.691 186.456 381.55 190.068 386.77C192.533 387.905 195.151 389.318 197.934 389.157L198.058 389.537C199.286 389.572 199.762 389.775 200.853 389.149C200.872 388.128 200.897 387.311 201.141 386.309C201.199 386.073 201.272 385.84 201.337 385.605C201.358 387.336 201.309 389.088 201.506 390.808C201.936 394.908 201.582 399.172 201.461 403.292C201.863 408.439 201.331 413.506 201.528 418.627C205.055 427.564 227.942 488.543 231.553 491.528C230.605 493.259 229.722 495.094 228.503 496.651C220.421 510.944 212.392 525.252 204.982 539.908C198.417 552.892 192.517 566.517 184.766 578.837C177.187 590.884 164.835 599.141 156.261 610.526C137.734 635.129 137.155 688.66 139.18 718.564C134.185 723.738 129.986 728.684 126.692 735.13Z"/>
	<path fill="#777879" d="M198.313 423.351C198.865 416.617 200.215 409.928 201.461 403.292C201.863 408.439 201.331 413.506 201.528 418.627C201.37 420.17 201.263 421.613 200.703 423.076C199.584 423.595 199.479 423.463 198.313 423.351Z"/>
	<path fill="#CE9D07" d="M190.068 386.77C192.533 387.905 195.151 389.318 197.934 389.157L198.058 389.537C197.198 393.934 197.075 398.566 196.937 403.033C194.293 397.727 191.864 392.428 190.068 386.77Z"/>
	<defs>
		<linearGradient id="gradient_1" gradientUnits="userSpaceOnUse" x1="179.63846" y1="549.4906" x2="180.78252" y2="566.34509">
			<stop offset="0" stop-color="#878381"/>
			<stop offset="1" stop-color="#A09FA0"/>
		</linearGradient>
	</defs>
	<path fill="url(#gradient_1)" d="M179.611 545.567C180.02 547.015 180.129 548.525 181.249 549.556C182.327 548.896 182.573 548.162 183.104 547.063C183.799 552.76 182.697 559.302 182.483 565.064C180.916 566.236 179.424 567.496 177.92 568.748C178.035 560.932 178.072 553.266 179.611 545.567Z"/>
	<path fill="#685627" d="M201.528 418.627C205.055 427.564 227.942 488.543 231.553 491.528C230.605 493.259 229.722 495.094 228.503 496.651C224.22 489.804 221.448 481.801 218.365 474.358C212.498 460.19 206.877 446.029 201.727 431.585C200.363 444.645 199.638 457.899 197.732 470.885C195.02 489.358 190.744 507.444 186.973 525.709C185.512 532.788 184.79 540.037 183.104 547.063C182.573 548.162 182.327 548.896 181.249 549.556C180.129 548.525 180.02 547.015 179.611 545.567C178.346 529.347 188.462 500.835 191.308 483.629C194.613 463.639 195.934 443.452 198.313 423.351C199.479 423.463 199.584 423.595 200.703 423.076C201.263 421.613 201.37 420.17 201.528 418.627Z"/>
	<path fill="#AFAEAE" d="M667.869 718.424C672.375 717.858 676.847 717.648 681.312 716.723C688.27 715.282 695.312 712.442 702.069 710.188C698.351 715.997 694.047 721.416 690.309 727.216C678.721 745.197 670.573 765.593 667.371 786.758C666.165 794.735 665.125 803.877 666.416 811.909C666.489 813.405 666.616 814.883 666.492 816.378C594.11 854.482 527.846 905.502 443.89 914.509C419.145 917.164 393.116 915.607 369.263 908.249C332.477 896.902 297.971 869.453 268.188 845.735C259.526 838.837 250.157 832.341 242.608 824.214C248.626 824.829 254.418 827.715 260.535 828.43C286.218 831.429 310.074 825.279 334.61 818.433C336.48 824.599 339.391 829.841 344.12 834.266C355.178 844.609 370.961 848.569 385.771 847.999C400.569 847.43 413.524 842.109 423.648 831.159C436.256 817.524 440.102 801.805 439.363 783.709L441.277 782.906C445.186 784.171 448.811 784.714 452.873 783.777C460.91 781.922 468.763 778.445 476.425 775.433L508.993 762.721L624.608 718.461C626.413 720.182 628.287 721.551 630.342 722.942C634.858 721.635 638.586 721.051 643.309 721.213L646.507 718.159C648.041 718.935 649.614 719.765 651.25 720.305C652.864 720.837 654.056 720.709 655.569 719.905C657.742 717.352 657.564 714.793 657.654 711.611C660.879 714.472 663.829 716.795 667.869 718.424Z"/>
	<path d="M618.908 204.485C619.308 190.649 620.95 173.281 631.643 163.173C642.906 152.525 663.054 147.976 678.123 148.461C692.076 148.909 707.465 154.765 717.02 165.199C725.705 174.682 726.876 189.353 728.233 201.563C730.961 204.054 733.924 206.537 734.017 210.55C734.1 214.138 731.544 216.857 729.147 219.192C728.285 220.031 727.397 220.839 726.494 221.633C730.583 224.185 734.038 226.796 735.24 231.765C736.423 236.651 734.543 242.032 732.249 246.337L728.929 250.964C778.394 252.874 826.907 250.346 863.611 290.295C884.153 312.653 895.325 344.479 893.828 374.795C893.612 379.158 892.674 383.456 892.383 387.809C892.117 391.786 892.307 395.788 892.058 399.775C891.373 410.744 889.89 421.945 887.847 432.745C889.38 433.167 890.929 433.667 892.496 433.926C898.124 435.19 908.723 436.922 911.928 442.286C918.639 453.518 911.318 511.786 913.205 529.409L913.054 534.749C912.784 550.295 911.53 565.837 911.093 581.389L910.176 609.01C909.965 616.449 910.079 623.892 909.196 631.296C908.825 634.41 908.339 639.066 906.094 641.341C900.758 646.749 889.933 649.112 882.848 651.033C883.173 655.86 883.642 660.574 880.264 664.549C876.586 668.877 870.292 669.63 864.988 670.202C860.859 673.931 856.732 676.548 850.934 676.363C848.916 676.298 846.899 675.821 844.941 675.362C836.093 678.944 828.038 681.206 818.734 677.296C816.058 676.172 813.737 674.578 811.462 672.798C803.144 675.387 794.84 677.969 786.633 680.896C768.469 687.544 750.151 693.901 731.831 700.104C721.938 703.454 711.782 706.372 702.069 710.188C695.312 712.442 688.27 715.282 681.312 716.723C676.847 717.648 672.375 717.858 667.869 718.424C663.829 716.795 660.879 714.472 657.654 711.611C657.564 714.793 657.742 717.352 655.569 719.905C654.056 720.709 652.864 720.837 651.25 720.305C649.614 719.765 648.041 718.935 646.507 718.159L643.309 721.213C638.586 721.051 634.858 721.635 630.342 722.942C628.287 721.551 626.413 720.182 624.608 718.461L508.993 762.721L476.425 775.433C468.763 778.445 460.91 781.922 452.873 783.777C448.811 784.714 445.186 784.171 441.277 782.906L439.363 783.709C440.102 801.805 436.256 817.524 423.648 831.159C413.524 842.109 400.569 847.43 385.771 847.999C370.961 848.569 355.178 844.609 344.12 834.266C339.391 829.841 336.48 824.599 334.61 818.433C310.074 825.279 286.218 831.429 260.535 828.43C254.418 827.715 248.626 824.829 242.608 824.214C233.813 819.998 224.731 816.546 216.108 811.932C207.197 807.163 198.867 801.364 189.96 796.583C169.268 785.479 140.998 774.739 128.872 753.267C125.431 747.174 124.845 741.803 126.692 735.13C129.986 728.684 134.185 723.738 139.18 718.564C137.155 688.66 137.734 635.129 156.261 610.526C164.835 599.141 177.187 590.884 184.766 578.837C192.517 566.517 198.417 552.892 204.982 539.908C212.392 525.252 220.421 510.944 228.503 496.651C229.722 495.094 230.605 493.259 231.553 491.528C227.942 488.543 205.055 427.564 201.528 418.627C201.331 413.506 201.863 408.439 201.461 403.292C201.582 399.172 201.936 394.908 201.506 390.808C201.309 389.088 201.358 387.336 201.337 385.605C204.187 339.955 215.446 297.724 249.957 265.162C298.044 219.788 367.112 209.202 430.834 211.134C432.937 211.272 435.502 211.151 437.405 212.095C447.638 211.332 519.833 222.403 527.577 226.436C532.773 227.912 538.191 228.846 543.453 230.129C558.12 233.705 572.721 237.192 587.563 239.994C597.354 241.842 608.723 243.082 618.193 245.743C617.525 244.034 617.006 242.264 616.451 240.515C616.133 237.756 615.222 233.625 616.886 231.171C617.829 229.779 619.387 229.17 620.996 229.069C622.395 228.981 623.802 228.98 625.202 228.975C625.525 226.869 625.812 224.751 626.202 222.656C621.755 222.648 615.336 223.294 611.787 219.961C610.582 218.83 610.067 217.44 610.089 215.792C610.148 211.417 615.034 207.674 618.092 205.143C618.361 204.92 618.633 204.701 618.908 204.485ZM437.405 212.095C441.998 216.804 446.44 221.722 450.495 226.906L451.206 227.548C462.904 244.816 468.076 263.503 464.128 284.26C461.07 300.34 452.645 316.04 438.839 325.298C426.593 333.509 411.845 335.784 399.96 344.974L399.412 344.923L396.39 347.94L396.484 348.327C381.522 359.805 374.107 391.13 371.667 409.411C370.276 419.833 368.131 437.202 371.423 446.92L371.907 447.353C394.839 442.181 418.168 438.64 441.282 434.374C470.632 428.957 499.934 422.988 529.431 418.417C531.061 407.308 532.733 396.326 536.055 385.566C543.51 361.421 557.26 351.176 578.717 339.559L603.045 326.491C615.277 319.517 628.2 313.711 640.544 306.901C648.23 289.906 638.94 280.514 634.728 264.52C626.473 259.156 622.922 254.142 618.193 245.743C608.723 243.082 597.354 241.842 587.563 239.994C572.721 237.192 558.12 233.705 543.453 230.129C538.191 228.846 532.773 227.912 527.577 226.436C519.833 222.403 447.638 211.332 437.405 212.095ZM728.929 250.964C726.334 253.359 723.705 255.554 720.875 257.666C713.56 278.396 706.344 284.919 710.132 308.501L739.778 320.397C768.416 331.664 791.427 342.846 803.943 373.028C807.329 381.195 809.495 389.702 811.02 398.397C811.743 402.515 812.078 406.835 813.134 410.872L860.749 424.57C869.709 427.164 879.129 429.458 887.847 432.745C889.89 421.945 891.373 410.744 892.058 399.775C892.307 395.788 892.117 391.786 892.383 387.809C892.674 383.456 893.612 379.158 893.828 374.795C895.325 344.479 884.153 312.653 863.611 290.295C826.907 250.346 778.394 252.874 728.929 250.964Z"/>
	<path fill="#8EF7FA" d="M542.617 573.364C544.665 575.138 545.42 578.288 546.279 580.78C544.855 580.768 544.181 580.835 542.984 579.957C541.93 578.014 542.463 575.507 542.617 573.364Z"/>
	<path fill="#FEFEFE" d="M725.006 228.812C726.226 228.859 727.306 228.925 728.333 229.675C729.343 230.412 729.971 231.423 730.227 232.636C731.239 237.428 727.788 242.767 725.174 246.533L722.46 249.955C722.5 243.848 721.545 234.054 725.006 228.812Z"/>
	<path fill="#5761F0" d="M173.194 724.404C175.935 726.136 178.497 728.488 181.115 730.432C187.711 735.333 194.742 739.936 202.192 743.414C205.291 744.861 208.497 746.441 211.741 747.525C214.611 748.484 218.639 748.598 221.231 750.075C221.777 750.386 221.875 750.576 222.22 751.01C218.108 752.313 213.075 750.876 209.136 749.459C198.269 745.55 178.317 735.176 173.194 724.404Z"/>
	<path fill="#AFAEAE" d="M865.729 634.114C866.483 634.563 867.206 635.045 867.827 635.671C872.381 640.258 877.77 650.717 877.545 657.269C877.466 659.578 876.616 660.592 874.993 662.07C872.746 663.262 870.21 664.083 867.84 665.013C869.639 653.93 864.624 644.645 865.729 634.114Z"/>
	<path fill="#AFAEAE" d="M855.075 636.703C855.708 637.128 856.115 637.521 856.553 638.149C860.756 644.181 863.603 654.612 862.051 661.868C861.214 665.775 859.59 667.734 856.331 669.906C853.927 670.507 851.43 670.856 848.989 671.294C856.625 657.771 852.315 650.426 855.075 636.703Z"/>
	<defs>
		<linearGradient id="gradient_2" gradientUnits="userSpaceOnUse" x1="847.46368" y1="658.81641" x2="820.84277" y2="658.08167">
			<stop offset="0" stop-color="#D7C39C"/>
			<stop offset="1" stop-color="#F6E3C9"/>
		</linearGradient>
	</defs>
	<path fill="url(#gradient_2)" d="M846.556 642.295C846.72 642.523 846.896 642.744 847.049 642.979C849.615 646.931 849.551 653.888 848.642 658.332C847.568 663.582 844.802 668.252 840.173 671.097C834.192 674.772 827.389 674.177 820.92 672.495L819.418 671.537L819.293 670.649C819.416 670.488 819.521 670.313 819.661 670.167C822.034 667.675 827.211 667.194 830.506 666.901C831.9 667.903 832.344 668.261 834.043 668.095C839.791 664.526 842.868 649.037 846.264 642.813C846.359 642.639 846.459 642.468 846.556 642.295Z"/>
	<path fill="#FEFEFE" d="M251.551 718.962C256.14 719.34 260.648 719.721 265.174 720.616C263.299 733.006 262.496 745.377 262.013 757.887L257.127 755.744C256.564 755.512 256.011 755.239 255.46 754.983C250.638 752.741 245.025 750.061 243.245 744.611C240.671 736.725 248.01 725.708 251.551 718.962Z"/>
	<path fill="#FED560" d="M147.718 655.293C151.804 657.672 156.128 660.849 159.086 664.573C165.123 672.175 164.471 687.929 163.37 697.126C162.343 698.341 161.071 698.659 159.63 699.256C159.012 699.5 158.377 699.723 157.712 699.8C153.453 700.294 148.489 696.019 145.244 693.759C145.763 680.906 146.661 668.111 147.718 655.293Z"/>
	<path fill="#AFAEAE" d="M601.471 693.023C603.28 694.079 604.543 696.967 605.564 698.743C567.247 712.829 529.173 727.443 491.119 742.218C491.001 742.265 490.889 742.332 490.765 742.359C489.414 742.646 489.12 742.708 488.028 741.981C487.2 740.189 487.467 737.976 487.479 736.036L601.471 693.023Z"/>
	<path fill="#FEFEFE" d="M270.837 721.375C278.401 721.668 287.225 722.059 293.485 726.883C296.523 729.223 298.542 732.44 298.913 736.293C299.593 743.348 295.173 749.788 290.951 754.999C289.932 755.969 288.84 756.916 287.681 757.713C282.157 761.512 274.781 760.928 268.522 759.798C268.352 746.801 269.346 734.283 270.837 721.375Z"/>
	<path fill="#FED560" d="M844.268 461.13C851.06 459.693 905.264 445.317 906.996 446.38L907.39 446.211C910.579 451.056 909.436 460.247 909.149 465.828C903.403 464.282 873.639 475.215 865.953 477.249C858.182 472.717 850.951 467.133 844.268 461.13Z"/>
	<path fill="#CE9D07" d="M273.434 428.108C282.538 426.723 297.359 427.723 305.186 433.011C313.642 438.725 316.051 448.061 317.792 457.462L303.045 460.133C291.143 462.372 279.36 465.005 267.588 467.833C267.414 457.75 264.888 442.106 268.498 432.742C269.523 430.082 270.875 429.195 273.434 428.108Z"/>
	<path fill="#14BCAB" d="M525.75 424.648C526.933 424.399 527.587 424.266 528.747 424.651C530.392 429.824 527.963 443.768 527.981 449.985C527.995 455.26 528.595 460.594 529.031 465.849C507.691 458.083 481.841 452.556 459.614 446.859C451.71 444.954 443.811 442.99 435.826 441.452C444.228 439.3 453.159 438.284 461.696 436.64L525.75 424.648Z"/>
	<path fill="#14BCAB" d="M676.66 194.201C683.123 193.6 690.092 193.991 696.49 195.086C703.229 196.238 723.988 202.43 727.381 208.443C728.017 209.57 728.192 210.626 727.752 211.841C726.441 215.458 721.461 217.299 718.197 218.709C706.649 214.049 696.267 212.541 684.25 216.16C679.801 217.499 675.255 219.249 670.615 219.73C670.42 219.75 670.224 219.764 670.029 219.78C659.661 219.664 649.942 216.087 639.722 215.72C634.159 215.52 619.783 218.834 615.685 216.695C615.509 215.427 615.626 215.392 616.438 214.373C628.089 199.748 659.016 195.571 676.66 194.201Z"/>
	<path fill="#5761F0" d="M144.949 699.993C148.48 702.964 152.43 706.812 157.424 706.374C160.219 706.128 162.375 704.466 164.448 702.724C164.704 714.352 164.797 727.41 173.848 735.96C183.506 745.083 205.673 758.065 219.364 757.57C223.244 757.43 226.847 755.961 229.502 753.08C231.407 751.014 232.73 748.19 233.61 745.549C219.636 745.287 206.901 739.488 195.121 732.466C188.621 728.591 173.672 720.235 171.732 712.583L172.325 713.604C172.598 713.467 172.839 713.179 173.145 713.192C174.085 713.231 180.613 719.665 181.774 720.587C196.814 732.533 215.321 740.205 234.03 744.021L235.115 743.768C235.702 744.512 235.963 745.159 236.319 746.018C239.787 754.376 248.496 759.089 256.519 762.339C258.484 763.135 260.498 763.818 262.504 764.5L261.44 783.934C238.604 777.264 218.325 767.206 197.271 756.326C186.472 750.746 175.391 745.253 165.484 738.171C158.496 733.176 151.993 727.224 146.258 720.834C144.624 713.914 144.506 707.06 144.949 699.993Z"/>
	<path fill="#FEFEFE" d="M703.831 290.876C705.187 296.367 705.239 314.078 704.784 320.199C704.269 327.141 702.293 333.422 696.74 338.02C692.544 341.494 687.411 342.692 682.053 342.118C669.517 340.774 657.3 331.83 649.589 322.274C646.985 319.049 645.138 315.506 643.389 311.767C647.749 304.816 648.562 299.007 648.396 291.004C649.063 291.775 649.746 292.532 650.443 293.276C657.042 300.33 664.558 306.536 674.746 306.697C687.315 306.896 695.489 299.12 703.831 290.876Z"/>
	<path fill="#685627" d="M607.375 704.533C611.28 706.309 615.195 711.48 618.123 714.548C599.673 720.246 581.645 728.214 563.626 735.197L464.258 773.614L457.64 776.235C456.718 771.414 455.727 766.738 454.255 762.043C505.672 744.038 556.287 723.492 607.375 704.533Z"/>
	<path fill="#5761F0" d="M340.564 816.897C342.417 810.963 342.796 804.685 344.167 798.633C347.935 782.001 356.58 766.435 368.427 754.217C377.913 744.434 390.83 735.264 405.007 735.133C413.906 735.051 422.535 738.675 428.78 744.999C438.951 755.3 441.444 768.956 441.277 782.906L439.363 783.709C438.15 776.872 435.963 770.035 431.974 764.287C427.349 757.623 420.389 753.061 412.35 751.744C402.185 750.079 391.203 753.795 383.017 759.763C370.001 769.252 361.067 784.639 358.635 800.498C356.218 816.262 359.922 827.726 369.285 840.346C367.506 839.671 365.733 838.981 363.975 838.251C352.584 833.521 345.382 828.521 340.564 816.897Z"/>
	<path fill="#14BCAB" d="M670.541 154.696C683.354 153.504 697.091 156.267 707.493 164.27C718.306 172.59 721.188 185.25 722.907 198.071C706.464 189.977 692.604 188.327 674.566 188.582C657.299 189.326 640.49 194.487 624.488 200.679C626.138 190.152 626.14 178.963 633.076 170.203C641.969 158.973 657.139 156.219 670.541 154.696Z"/>
	<path fill="#14BCAB" d="M546.438 585.829C547.016 585.93 547.564 586.156 548.119 586.345C550.459 589.215 551.862 593.045 553.459 596.381C559.974 609.998 567.811 623.198 576.098 635.801C580.908 643.114 586.92 650.109 590.627 658.039C594.972 667.335 596.99 677.837 600.205 687.587C594.52 689.282 588.959 691.284 583.379 693.289L543.519 708.186L543.476 625.238C543.429 612.934 542.208 600.567 543.085 588.279C543.923 586.923 545.052 586.581 546.438 585.829Z"/>
	<path fill="#14BCAB" d="M422.62 444.191C430.367 443.468 514.698 467.378 528.893 471.437L528.986 480.523C514.03 485.741 494.461 489.765 478.746 492.826C474.315 491.029 469.794 489.567 465.25 488.092C446.297 483.341 427.403 478.266 408.515 473.26C389.753 468.287 370.821 463.366 352.367 457.338C375.978 454.087 399.07 447.791 422.62 444.191Z"/>
	<path fill="#5761F0" d="M403.726 758.14C409.466 757.77 415.378 758.635 420.335 761.693C426.939 765.767 430.802 772.909 432.514 780.291C435.61 793.641 432.018 807.514 424.883 818.971C418.224 829.663 407.731 837.914 395.377 840.768C388.512 841.98 381.373 841.093 375.53 837.002C369.524 832.798 366.228 825.795 364.989 818.742C362.42 804.119 366.912 788.753 375.343 776.749C382.207 766.976 391.86 760.182 403.726 758.14Z"/>
	<path d="M401.266 776.629C405.161 776.484 409.273 777.506 412.539 779.665C416.219 782.098 418.375 786.012 419.162 790.291C420.498 797.563 418.164 805.277 414.09 811.329C409.558 818.063 403.432 821.87 395.471 823.386C391.845 823.017 388.548 822.622 385.315 820.759C381.526 818.575 379.14 815.04 378.091 810.834C376.308 803.685 378.458 795.911 382.312 789.797C386.786 782.699 393.155 778.481 401.266 776.629Z"/>
	<path fill="#FEFEFE" d="M400.222 782.993C402.357 782.943 404.648 783.154 406.651 783.926C409.209 784.912 411.306 786.68 412.41 789.218C414.168 793.26 413.393 798.318 411.835 802.29C409.131 809.186 404.108 813.695 397.402 816.512C395.285 816.759 393.04 816.724 390.988 816.114C388.331 815.324 386.127 813.821 384.935 811.255C382.914 806.902 383.996 801.27 385.8 797.04C388.688 790.267 393.521 785.828 400.222 782.993Z"/>
	<path fill="#14BCAB" d="M528.098 486.607L528.633 486.853C530.464 490.156 530.597 503.88 530.951 508.303C532.331 525.558 535.392 542.673 536.616 559.895C537.166 567.621 537.032 575.433 537.053 583.176C530.734 585.787 524.053 587.683 517.556 589.811L490.108 599.042C489.344 599.278 488.819 599.284 488.028 599.292C487.095 598.217 486.817 597.507 486.696 596.066C486.228 590.472 486.933 584.394 486.977 578.745C487.085 565.006 486.801 551.251 486.73 537.51C486.685 529.022 487.305 520.158 486.234 511.74C485.608 506.823 484.053 502.532 482.137 497.98C497.389 493.926 512.819 490.571 528.098 486.607Z"/>
	<path fill="#08A36C" d="M560.503 357.997C563.694 358.107 566.493 359.297 569.242 360.837C582.948 368.515 591.348 385.986 595.317 400.514C600.912 420.995 602.701 440.877 591.894 459.81C585.972 460.69 580.041 461.209 574.062 461.451C560.099 459.368 547.346 455.094 534.006 450.719C534.076 437.386 534.744 423.862 536.582 410.649C539.238 391.55 544.373 370.208 560.503 357.997Z"/>
	<path fill="#FEFEFE" d="M694.82 219.617C702.339 219.129 709.401 221.873 716.409 224.252C716.435 232.827 717.813 240.873 716.708 249.505C714.542 266.434 705.239 284.666 691.462 295.062C685.798 299.336 679.156 301.818 671.979 300.628C660.09 298.654 652.334 287.484 645.843 278.367C642.208 272.708 640.407 266.088 637.474 260.058C636.121 259.129 634.765 258.202 633.45 257.219C627.817 253.008 621.788 245.104 621.011 237.97C620.871 236.686 621.142 234.974 622.04 233.989C622.466 233.522 622.841 233.738 623.408 233.78C628.492 236.967 629.999 243.295 633.984 247.39C634.93 248.363 635.331 248.365 636.58 248.427L637.413 247.518C639.45 240.74 636.062 228.407 634.849 221.409C647.769 222.439 661.343 226.848 674.246 224.864C680.952 223.833 687.322 220.952 694.037 219.752L694.82 219.617Z"/>
	<path d="M687.271 269.418C688.087 269.649 688.13 269.503 688.591 270.076C689.356 271.029 689.622 272.61 689.327 273.791C689.044 274.928 688.225 275.733 687.276 276.354C682.209 279.672 674.62 279.323 668.975 278.267C667.846 277.219 666.837 276.387 666.531 274.81C667.751 272.254 677.658 273.695 680.719 272.958C683.163 272.37 685.225 270.81 687.271 269.418Z"/>
	<path fill="#14BCAB" d="M334.801 461.165C337.093 460.744 339.387 461.155 341.653 461.582C356.83 464.441 372.074 469.125 387.028 473.025C412.832 479.755 438.865 486.399 464.407 494.032C438.191 499.873 412.161 506.486 386.149 513.172L371.756 516.487C347.907 508.985 324.696 500.151 301.247 491.538C287.283 486.408 273.213 481.709 259.328 476.341C266.301 475.206 273.207 473.193 280.138 471.76C298.312 468.001 316.501 464.265 334.801 461.165Z"/>
	<path fill="#14BCAB" d="M535.933 589.542C536.888 590.491 536.925 591.188 537.036 592.484C537.416 596.912 537.098 601.642 537.059 606.094L536.995 629.053C537.004 656.268 536.976 683.472 537.511 710.683C521.285 717.068 504.781 722.88 488.436 728.961L487.717 728.317C487.001 724.274 487.469 719.664 487.475 715.549L487.466 691.768L487.029 606.459C503.245 600.544 519.606 595.133 535.933 589.542Z"/>
	<path fill="#5761F0" d="M141.433 725.801C144.04 726.825 147.864 731.678 150.027 733.775C154.207 737.829 158.852 741.285 163.624 744.608C171.634 750.187 180.567 754.709 189.163 759.313C197.804 763.941 206.4 768.718 215.178 773.08C261.793 796.241 294.438 796.702 343.065 780.354C339.314 790.834 336.101 801.367 333.087 812.084C319.887 818.296 297.184 821.812 282.582 822.519C270.296 823.113 257.816 822.123 246.058 818.337C227.882 812.485 212.331 801.295 195.694 792.315C184.47 786.257 172.451 781.304 161.626 774.564C155.397 770.686 149.539 766.269 144.125 761.315C138.989 756.615 131.586 749.17 131.552 741.716C131.524 735.649 137.567 729.919 141.433 725.801Z"/>
	<path fill="#FEFEFE" d="M534.798 457.248C554.086 463.949 565.626 467.353 586.568 466.874C586.193 476.746 585.143 486.603 584.757 496.482C584.244 509.607 584.536 522.799 584.716 535.932C580.606 533.488 576.075 530.128 571.559 528.539C570.019 527.997 569.104 527.952 567.643 528.657C567.333 529.358 567.004 529.669 567.232 530.458C568.647 535.344 580.748 540.776 585.337 543.314C588.203 564.566 601.132 633.737 618.223 646.596C631.214 656.371 643.453 657.197 655.917 670.378C650.782 669.119 646.298 666.712 641.36 664.959C638.475 663.935 633.732 662.74 630.874 664.448C629.688 665.156 629.171 665.972 628.83 667.302C626.313 677.122 644.979 695.421 649.615 704.066C650.877 707.753 651.693 711.457 652.483 715.269C644.181 708.871 637.401 701.413 630.383 693.727C629.031 692.247 626.946 689.339 624.887 689.243C623.982 690.178 623.673 690.358 623.68 691.742C623.707 697.019 638.988 712.063 642.92 716.397C640.05 714.938 637.655 713.093 634.298 713.3C632.767 713.394 631.46 713.692 630.077 712.885C629.9 712.782 629.731 712.665 629.555 712.558C624.159 709.289 619.069 704.348 614.952 699.568C600.571 682.875 603.524 670.305 594.593 653.484C587.285 639.717 576.954 627.534 569.144 613.975C557.632 593.992 545.554 571.023 541.085 548.221C538.457 534.81 537.787 521.005 536.535 507.416C534.986 490.599 533.554 474.148 534.798 457.248Z"/>
	<path fill="#FED560" d="M810.074 416.676C820.657 418.945 831.084 422.1 841.487 425.07L897.638 441.438C872.673 448.657 847.418 454.599 822.206 460.876L731.533 483.776C716.084 487.673 700.509 491.309 685.171 495.623L676.627 498.219C650.747 488.169 625.012 477.086 599.642 465.81C608.841 463.037 618.679 461.555 628.083 459.47L681.203 447.265C724.16 437.236 766.905 425.666 810.074 416.676Z"/>
	<path fill="#8EF7FA" d="M252.357 497.483C254.704 497.476 256.967 497.977 259.167 498.763C271.39 503.127 283.294 509.758 294.887 515.592C314.041 525.229 333.128 535.002 352.463 544.274C335.734 571.307 325.422 600.742 314.892 630.581C311.22 629.558 307.361 628.925 303.628 628.137C275.129 622.567 244.489 613.537 220.872 596.012C214.063 590.961 207.989 584.942 201.959 579.009C210.217 563.157 218.328 547.248 226.754 531.483C231.315 522.952 235.593 513.515 241.718 505.998C244.831 502.179 247.971 499.708 252.357 497.483Z"/>
	<path fill="#FED560" d="M592.01 469.56C605.157 473.886 617.62 479.868 630.334 485.285L673.759 503.275C674.026 530.994 673.534 558.71 673.502 586.429L673.507 708.705C667.666 703.654 661.284 699.349 654.749 695.262C652.771 694.019 650.858 692.727 649.017 691.288C644.201 687.522 635.408 678.882 635.506 672.38C635.527 671.016 635.704 670.83 636.665 670.036C641.451 669.423 647.481 673.711 652.204 674.928C654.184 675.438 657.087 676.02 658.851 674.633C659.871 673.83 660.214 672.597 660.327 671.362C661.603 657.406 625.618 648.166 617.428 637.44C611.181 629.258 608.655 617.441 605.696 607.686C598.988 585.575 592.661 562.613 590.779 539.494C589.879 528.424 590.17 517.214 590.294 506.12C590.431 493.893 590.595 481.723 592.01 469.56Z"/>
	<path fill="#FEFEFE" d="M599.007 498.225C608.56 501.368 617.624 506.273 626.662 510.652C636.712 515.521 646.84 520.163 657.013 524.767C657.047 529.365 656.141 556.374 654.78 558.557C649.582 555.022 643.579 552.492 637.956 549.696L610.999 536.246C606.16 533.819 600.436 531.509 596.295 528.001C595.74 525.446 597.705 523.81 597.916 521.327C598.573 513.585 597.897 506.055 599.007 498.225Z"/>
	<path fill="#FED560" d="M600.621 500.99C609.523 504.353 618.039 509.096 626.626 513.197C636.277 517.807 646.27 522.022 655.56 527.327C655.169 536.899 654.153 546.432 653.982 556.018L610.716 533.383L598.38 527.258C598.901 523.671 599.006 520.141 599.075 516.521C612.926 523.321 631.177 533.581 645.5 537.916C637.165 530.203 610.564 518.556 599.364 513.916C599.735 509.603 600.185 505.297 600.621 500.99Z"/>
	<path fill="#5761F0" d="M227.225 512.095C231.537 501.456 240.348 486.895 249.745 480.071C263.901 484.529 277.624 490.113 291.571 495.162L367.279 522.051C363.077 527.287 359.423 532.758 355.984 538.518C334.397 529.105 313.52 517.762 292.483 507.162C282.615 502.19 272.488 496.038 261.883 492.843C257.614 491.557 252.85 490.868 248.597 492.526C238.361 496.519 231.488 509.563 226.217 518.626C219.29 533.117 211.269 547.337 203.747 561.543C200.613 567.462 197.183 573.36 194.515 579.5C219.264 609.876 250.045 622.211 287.082 630.802C295.892 632.845 305.013 633.958 313.722 636.314C300.388 654.642 276.839 666.457 270.054 689.262C267.584 697.564 267.688 706.22 265.748 714.569C260.306 713.436 252.788 711.082 247.773 714.479C244.713 716.553 243.52 719.699 242.227 722.993C240.751 728.18 238.315 733.42 236.529 738.551C230.93 736.513 224.855 735.701 219.169 733.745C202.093 727.873 180.751 716.197 170.152 701.291C177.079 705.103 183.41 710.864 190.055 715.281C197.645 720.327 223.67 735.469 232.535 734.371C234.565 734.12 236.589 733.056 237.868 731.479C237.765 729.446 235.757 729.352 234.043 728.729C214.014 721.446 200.396 714.202 182.702 702.51C178.626 699.816 172.654 696.707 170.113 692.463L170.418 692.228C173.977 692.75 189.42 704.091 193.719 706.702C198.665 709.705 203.737 712.569 208.851 715.277C214.432 718.233 233.225 727.942 238.682 725.283C240.214 724.536 240.435 723.616 241.143 722.194C241.048 721.994 240.598 721.012 240.438 720.776C238.995 718.655 234.616 718.116 232.246 717.542C214.046 713.373 181.974 695.202 169.196 681.447C188.047 692.435 212.838 711.497 234.297 715.492C235.607 714.782 236.507 714.528 237.014 713.103C235.089 708.947 228.004 706.755 223.993 705.027C218.551 702.682 212.951 700.419 207.705 697.656C194.911 690.919 182.833 682.678 170.362 675.35C170.161 674.326 169.959 673.304 169.738 672.284C167.168 660.447 158.736 655.024 149.249 648.964C153.844 610.751 174.114 606.711 192.735 578.005C195.255 571.251 199.719 564.225 203.018 557.746C210.794 542.479 218.421 526.796 227.225 512.095Z"/>
	<path fill="#08A36C" d="M636.813 314.969C641.395 318.816 644.117 324.696 648.063 329.159C656.715 338.944 669.777 347.633 683.171 348.229C690.009 348.533 697.212 346.131 702.189 341.338C709.439 334.358 710.387 324.429 710.534 314.962C730.97 323.217 754.959 330.04 773.072 342.633C796.187 358.705 803.202 384.428 807.812 410.725C797.235 412.905 786.728 416.023 776.255 418.699C777.88 408.038 779.268 397.308 781.18 386.696C782.405 379.897 784.428 372.986 785.151 366.138C785.369 364.078 785.407 362.463 784.391 360.629C783.294 359.985 783.337 359.972 782.092 360.209C777.293 363.769 775.606 383.913 774.419 390.618C773.147 380.735 775.794 369.552 773.223 359.973C772.882 358.702 772.264 358.039 771.117 357.415C769.969 357.416 769.351 357.347 768.449 358.217C767.37 359.257 767.438 360.513 767.427 361.875C767.556 381.275 768.638 400.891 769.929 420.246C752.187 423.62 734.622 428.345 717.048 432.53C678.372 441.743 639.879 451.332 600.936 459.413C606.312 436.902 607.115 417.873 600.082 395.397C594.114 376.321 584.724 362.738 566.903 353.415C589.459 339.311 613.424 327.605 636.813 314.969Z"/>
	<path fill="#FED560" d="M437.405 212.095C447.638 211.332 519.833 222.403 527.577 226.436C532.773 227.912 538.191 228.846 543.453 230.129C558.12 233.705 572.721 237.192 587.563 239.994C597.354 241.842 608.723 243.082 618.193 245.743C622.922 254.142 626.473 259.156 634.728 264.52C638.94 280.514 648.23 289.906 640.544 306.901C628.2 313.711 615.277 319.517 603.045 326.491L578.717 339.559C557.26 351.176 543.51 361.421 536.055 385.566C532.733 396.326 531.061 407.308 529.431 418.417C499.934 422.988 470.632 428.957 441.282 434.374C418.168 438.64 394.839 442.181 371.907 447.353L371.423 446.92C368.131 437.202 370.276 419.833 371.667 409.411C374.107 391.13 381.522 359.805 396.484 348.327L396.39 347.94L399.412 344.923L399.96 344.974C411.845 335.784 426.593 333.509 438.839 325.298C452.645 316.04 461.07 300.34 464.128 284.26C468.076 263.503 462.904 244.816 451.206 227.548L450.495 226.906C446.44 221.722 441.998 216.804 437.405 212.095ZM527.577 226.436C529.326 229.705 545.686 239.194 551.484 249.252C551.613 249.369 551.739 249.489 551.87 249.604C557.025 254.18 563.699 256.605 569.24 260.623C589.113 275.034 600.966 296.25 602.669 320.655L603.045 326.491C615.277 319.517 628.2 313.711 640.544 306.901C648.23 289.906 638.94 280.514 634.728 264.52C626.473 259.156 622.922 254.142 618.193 245.743C608.723 243.082 597.354 241.842 587.563 239.994C572.721 237.192 558.12 233.705 543.453 230.129C538.191 228.846 532.773 227.912 527.577 226.436Z"/>
	<path fill="#AA803D" d="M399.96 344.974C403.847 346.984 411.53 350.835 413.504 355.017C413.716 355.466 413.697 355.685 413.726 356.13C413.226 356.634 413.153 356.918 412.38 356.978C409.221 357.221 400.34 349.86 396.484 348.327L396.39 347.94L399.412 344.923L399.96 344.974Z"/>
	<path fill="#AFAEAE" d="M437.405 212.095C447.638 211.332 519.833 222.403 527.577 226.436C529.326 229.705 545.686 239.194 551.484 249.252C543.901 246.661 536.529 243.53 528.907 241.022C503.651 232.712 477.832 227.934 451.206 227.548L450.495 226.906C446.44 221.722 441.998 216.804 437.405 212.095Z"/>
	<path fill="#5761F0" d="M471.506 498.666C472.097 498.573 472.904 498.392 473.52 498.439C474.493 498.514 475.119 498.954 475.773 499.629C479.077 503.041 480.068 509.489 480.458 514.081C481.183 522.589 480.588 531.43 480.557 539.973L480.609 585.383C480.701 638.773 480.503 692.193 481.515 745.575C471.95 748.756 462.496 752.653 452.975 756.03C448.515 745.666 443.622 736.705 433.796 730.555C423.568 724.154 411.948 723.663 400.433 726.347C375.162 732.237 358.698 752.697 345.636 773.655C322.689 780.127 300.838 785.313 276.858 785.497C273.855 785.521 270.973 785.276 267.991 784.942L268.354 766.393C277.354 767.168 286.085 767.397 293.469 761.271C299.84 755.986 304.022 747.499 304.555 739.251C304.906 733.824 303.641 728.3 299.965 724.16C293.267 716.617 281.107 715.993 271.811 715.227C273.055 704.465 274.508 693.332 279.552 683.595C285.839 671.457 296.937 662.406 306.929 653.393C310.837 649.868 315.124 646.469 317.835 641.881C323.578 632.162 325.739 619.59 329.644 608.972C339.022 583.472 352.764 552.439 368.482 530.267C370.773 527.035 373.174 523.984 376.822 522.228C387.852 516.915 401.678 515.215 413.563 512.293C432.738 507.577 452.046 502.011 471.506 498.666Z"/>
	<path d="M455.275 636.088C457.518 635.953 459.792 636.506 461.847 637.385C462.977 637.869 463.789 638.814 464.055 640.03C464.434 641.759 463.602 643.782 462.689 645.221C458.133 652.397 447.368 653.621 439.728 655.446C438.163 655.587 436.259 655.643 434.787 655.002C433.2 654.311 431.39 652.364 430.868 650.699C430.397 649.196 430.756 647.808 431.619 646.535C436.071 639.961 448.07 637.681 455.275 636.088Z"/>
	<path d="M454.133 510.592C457.579 510.205 460.944 511.39 463.835 513.207C469.038 516.476 471.36 520.969 472.542 526.826C475.008 539.044 474.211 552.211 474.497 564.647C474.769 576.429 476.042 588.652 474.439 600.364C474.025 603.383 473.088 606.277 471.328 608.791C468.64 612.629 464.626 614.191 460.443 615.892C454.793 618.189 448.702 619.562 442.855 621.288L414.24 629.933L378.145 641.299C369.674 643.958 361.194 646.914 352.441 648.493C348.095 649.273 342.963 648.913 339.091 646.651C335.319 644.446 332.322 641.099 331.215 636.816C327.246 621.461 355.616 564.304 364.562 549.998C368.36 543.924 373.272 537.482 379.324 533.493C383.175 530.954 387.427 529.09 391.763 527.551C398.757 525.068 406.171 523.641 413.321 521.634C426.907 517.819 440.354 513.71 454.133 510.592Z"/>
	<path fill="#8EF7FA" d="M387.181 535.954L387.688 536.126C389.438 541.455 387.578 620.86 387.526 631.719C377.252 634.839 358.646 642.466 348.66 642.448C345.738 642.443 343.481 641.633 340.838 640.528C340.131 639.855 339.418 639.092 338.838 638.308C336.859 635.637 336.919 632.597 337.468 629.473C340.335 613.168 362.731 562.579 373.28 548.597C377.146 543.473 381.929 539.572 387.181 535.954Z"/>
	<path fill="#8EF7FA" d="M452.752 517.612C455.122 517.232 457.81 517.173 460.046 518.162C462.573 519.278 464.269 521.407 465.178 523.961C467.839 531.437 470.845 596.718 467.172 603.464C465.854 605.884 463.617 607.471 461.201 608.679C454.872 611.844 447.309 613.499 440.521 615.558L405.47 626.243L393.101 629.903L394.307 533.772C403.032 530.419 412.144 528.154 421.148 525.694C431.639 522.827 442.099 519.824 452.752 517.612Z"/>
	<path fill="#FED560" d="M828.485 465.211C833.547 463.513 839.077 462.442 844.268 461.13C850.951 467.133 858.182 472.717 865.953 477.249C873.639 475.215 903.403 464.282 909.149 465.828L908.827 467.435C907.885 479.105 908.156 491.137 907.791 502.862L905.423 589.534C904.93 605.354 904.689 621.21 903.38 636.987C896.16 641.177 888.431 643.331 880.493 645.726C878.162 640.942 875.526 635.823 871.856 631.918C870.129 630.08 867.54 628.087 864.853 628.246C862.255 628.4 861.039 629.998 859.327 631.713C857.564 630.957 855.169 629.664 853.229 629.738C849.3 629.889 851.088 634.384 849.056 636.406C847.844 636.382 846.053 636.17 844.919 636.609C839.205 638.82 835.143 653.849 833.554 659.077C822.849 662.054 812.256 666.06 801.776 669.734L757.693 685.132C731.588 694.311 705.149 702.504 679.084 711.793C678.348 670.817 678.887 629.778 679.046 588.797C679.155 560.326 678.541 531.691 679.51 503.244C696.21 498.422 713.094 494.432 729.942 490.178L828.485 465.211Z"/>
	<path fill="#FEFEFE" d="M828.485 465.211C833.547 463.513 839.077 462.442 844.268 461.13C850.951 467.133 858.182 472.717 865.953 477.249C873.639 475.215 903.403 464.282 909.149 465.828L908.827 467.435C895.868 471.915 882.518 475.574 869.359 479.433C870.784 490.905 871.243 502.507 871.81 514.047C872.638 530.865 873.277 547.667 873.502 564.506L893.345 558.265C892.832 564.642 892.911 571.191 892.714 577.589C892.382 588.411 891.939 599.192 892.09 610.024C870.445 616.717 848.81 623.475 827.041 629.756C827.017 612.596 826.881 595.457 826.469 578.302C839.608 574.882 852.527 571.052 865.458 566.928C862.604 538.949 863.531 510.629 860.658 482.674C848.641 486.477 836.803 490.871 824.862 494.909C804.418 501.822 783.907 508.466 763.332 514.976C764.298 534.687 765.708 554.402 766.987 574.095C755.828 577.07 745.367 581.645 734.608 585.758C723.988 589.819 713.169 593.453 702.461 597.283C702.175 575.626 701.296 554.023 700.406 532.386C716.059 526.005 734.047 520.573 750.179 514.806C784.264 502.621 818.074 489.984 853.348 481.558C845.174 476.055 835.691 472.039 828.485 465.211Z"/>
	<path fill="#FED560" d="M762.172 550.487L762.653 550.685C764.563 557.109 764.14 565.395 765.091 572.13C745.165 580.221 724.712 587.216 704.496 594.558L704.483 582.086C718.205 578.617 731.435 574.392 744.737 569.546C747.413 568.38 754.248 566.276 755.912 564.091C754.837 563.694 753.609 564.24 752.53 564.573C748.623 565.779 744.884 567.624 741 568.945C728.937 573.05 716.755 577.081 704.541 580.708L704.371 569.991C716.243 566.782 727.549 562.808 739.156 558.78C746.85 556.11 754.666 553.656 762.172 550.487Z"/>
	<path fill="#FED560" d="M760.486 514.116C761.421 515.771 762.307 543.671 762.595 547.913C743.541 554.793 724.549 561.694 705.115 567.452L704.573 567.386C703.344 565.757 702.991 538.039 702.875 533.948C715.633 529.244 728.417 524.855 741.296 520.501C747.697 518.337 753.935 515.816 760.486 514.116Z"/>
	<path fill="#FED560" d="M890.398 561.567C892.26 564.725 890.083 601.402 889.995 608.007L829.254 626.54C828.197 620.489 828.826 613.851 828.882 607.709L828.891 580.268C849.5 574.306 870.005 568.228 890.398 561.567Z"/>
	<path fill="#CE9D07" d="M201.337 385.605C204.187 339.955 215.446 297.724 249.957 265.162C298.044 219.788 367.112 209.202 430.834 211.134C432.937 211.272 435.502 211.151 437.405 212.095C441.998 216.804 446.44 221.722 450.495 226.906L451.206 227.548C462.904 244.816 468.076 263.503 464.128 284.26C461.07 300.34 452.645 316.04 438.839 325.298C426.593 333.509 411.845 335.784 399.96 344.974L399.412 344.923L396.39 347.94L396.484 348.327C381.522 359.805 374.107 391.13 371.667 409.411C370.276 419.833 368.131 437.202 371.423 446.92L371.907 447.353C356.615 451.47 340.609 452.699 325.209 456.741C324.14 449.565 322.182 443.704 318.903 437.231C317.451 435.409 315.976 433.661 314.865 431.603C303.655 421.72 291.347 419.201 276.513 420.202C271.703 420.526 267.117 421.842 263.828 425.568C256.291 434.105 259.631 458.657 260.084 469.716C247.207 473.682 238.403 479.748 231.553 491.528C227.942 488.543 205.055 427.564 201.528 418.627C201.331 413.506 201.863 408.439 201.461 403.292C201.582 399.172 201.936 394.908 201.506 390.808C201.309 389.088 201.358 387.336 201.337 385.605Z"/>
	<path fill="#685627" d="M314.865 431.603C315.514 420.045 315.577 408.204 318.604 396.953C323.891 377.301 335.654 359.169 353.597 348.988C369.079 340.204 382.688 340.358 399.412 344.923L396.39 347.94C382.735 344.09 368.276 346.151 355.943 352.985C339.698 361.985 328.365 378.66 323.33 396.287C321.009 404.41 319.753 413.02 319.503 421.46C319.35 426.65 319.663 432.1 318.903 437.231C317.451 435.409 315.976 433.661 314.865 431.603Z"/>
	<path fill="#CE9D07" d="M318.903 437.231C319.663 432.1 319.35 426.65 319.503 421.46C319.753 413.02 321.009 404.41 323.33 396.287C328.365 378.66 339.698 361.985 355.943 352.985C368.276 346.151 382.735 344.09 396.39 347.94L396.484 348.327C381.522 359.805 374.107 391.13 371.667 409.411C370.276 419.833 368.131 437.202 371.423 446.92L371.907 447.353C356.615 451.47 340.609 452.699 325.209 456.741C324.14 449.565 322.182 443.704 318.903 437.231Z"/>
	<path fill="#E12726" d="M201.337 385.605C204.187 339.955 215.446 297.724 249.957 265.162C298.044 219.788 367.112 209.202 430.834 211.134C432.937 211.272 435.502 211.151 437.405 212.095C441.998 216.804 446.44 221.722 450.495 226.906C450.36 226.94 450.226 226.976 450.091 227.007C441.908 228.906 432.895 227.117 424.554 227.59C393.021 229.377 366.311 242.115 349.128 269.09C340.116 283.236 334.469 299.746 328.075 315.181C312.465 352.862 290.078 383.025 248.131 392.628C231.915 396.34 217.478 394.414 201.506 390.808C201.309 389.088 201.358 387.336 201.337 385.605Z"/>
</svg>
