<?xml version="1.0" encoding="utf-8" ?>
<svg width="200" height="200" viewBox="70 30 900 900">
	<path fill="#2D3473" d="M113.233 593.469L113.687 596.57C113.763 596.597 113.851 596.601 113.914 596.65C114.609 597.192 114.716 598.402 114.945 599.227C115.062 601.604 114.641 604.167 114.331 606.526C114.138 606.325 113.92 606.145 113.751 605.923C111.95 603.557 113.08 596.369 113.233 593.469Z"/>
	<path fill="#605E6B" d="M104.262 552.874L105.029 553.025C105.288 554.144 105.346 553.642 105.062 554.468C104.573 555.891 104.05 556.903 104.717 558.349C103.473 563.175 102.502 568.456 100.305 572.954L99.8206 573.098C99.0018 566.875 101.707 558.442 104.262 552.874Z"/>
	<path fill="#D377D4" d="M257.976 432.122L264.05 434.971C258.119 437.785 251.455 439.582 244.865 439.579C248.583 436.384 253.615 434.315 257.976 432.122Z"/>
	<path fill="#2D3473" d="M194.274 561.351L194.878 562.2C194.008 565.712 188.031 571.714 185.866 575.075C183.832 578.233 182.273 581.611 180.719 585.022C179.94 583.949 179.493 583.104 179.636 581.732C180.343 574.96 189.125 565.346 194.274 561.351Z"/>
	<path fill="#79642C" d="M143.071 498.481C148.505 494.198 159.394 484.509 166.284 484.003L166.48 484.573C164.605 487.009 148.869 497.148 144.949 500.27L143.071 498.481Z"/>
	<path fill="#7D7C7C" d="M907.299 469.34L907.663 468.902C910.918 464.905 914.247 457.266 918.826 455.025L920.232 454.982C920.852 455.619 920.977 455.467 920.958 456.26C920.837 461.291 913.328 467.767 910.813 472.168C909.464 471.64 908.47 470.592 907.375 469.659L907.299 469.34Z"/>
	<path d="M667.858 480.487C671.401 476.152 683.507 465.581 688.425 462.027C688.333 462.26 688.247 462.495 688.15 462.726C687.622 463.977 686.611 464.955 685.707 465.943L685.642 466.739L685.005 466.902L689.399 465.65C682.557 471.951 675.646 478.338 668.53 484.324C668.983 483.202 669.308 482.541 669.167 481.305L667.858 480.487Z"/>
	<path fill="#7D7C7C" d="M844.698 442.71C844.906 442.639 845.119 442.58 845.323 442.498C851.006 440.214 855.728 419.423 860.393 420.707C861.174 422.038 861.241 422.805 860.836 424.309C859.058 430.919 853.852 437.984 850.026 443.583L848.849 444.944C847.581 444.032 846.541 443.471 845.085 442.906L844.698 442.71Z"/>
	<path fill="#605E6B" d="M206.847 487.035L208.358 487.043L208.665 487.692C202.181 494.524 175.014 497.825 165.118 499.372C164.378 499.437 164.027 499.332 163.326 499.131L163.253 498.35C169.134 495.065 180.421 494.661 187.31 493.034C193.964 491.464 200.389 489.251 206.847 487.035Z"/>
	<path fill="#2D3473" d="M108.106 622.79C109.438 623.855 109.799 625.274 110.104 626.874C111.101 632.107 111.325 637.54 112.863 642.662C115.194 650.426 119.324 657.827 120.589 665.888C119.626 665.167 118.733 664.425 118.019 663.448C111.592 654.658 106.476 633.602 108.106 622.79Z"/>
	<path fill="#2D3473" d="M183.428 515.36C184.175 515.752 183.806 515.45 184.355 516.45C182.97 519.735 177.048 522.463 174.301 524.685C172.286 526.314 170.412 528.216 168.589 530.054C161.493 537.212 155.89 545.536 150.978 554.301L149.989 553.713C149.634 552.536 149.615 553.034 149.911 551.862C150.648 548.947 152.81 546.016 154.492 543.543C162.19 532.229 171.65 522.446 183.428 515.36Z"/>
	<path fill="#2D3473" d="M92.2512 597.25C92.6547 597.544 93.1246 598.021 93.3286 598.488C94.4618 601.083 91.3082 625.022 92.8367 632.021C93.5228 635.163 94.2502 638.325 95.3685 641.346C96.6356 644.768 100.171 649.918 100.429 653.351C100.499 654.28 100.167 654.323 99.5891 654.99C97.9736 653.172 96.6223 651.126 95.5296 648.953C88.8364 635.643 87.6664 611.269 92.2512 597.25Z"/>
	<path fill="#7D7C7C" d="M900.167 402.75C900.979 403.172 901.52 403.633 902.176 404.269C902.409 404.98 902.605 405.631 902.541 406.392C901.789 415.305 887.347 429.31 880.737 434.675C879.509 434.026 879.107 433.959 878.453 432.76C879.062 429.154 887.381 423.45 889.832 420.241C893.907 414.903 896.938 408.634 900.167 402.75Z"/>
	<path fill="#605E6B" d="M127.556 513.96C132.12 508.453 137.737 503.222 143.071 498.481L144.949 500.27C139.691 504.799 134.735 509.52 130.044 514.643C122.149 524.085 115.083 533.971 109.746 545.106C107.949 549.49 106.196 553.844 104.717 558.349C104.05 556.903 104.573 555.891 105.062 554.468C105.346 553.642 105.288 554.144 105.029 553.025L104.262 552.874C105.239 548.941 107.244 544.987 109.057 541.373C113.563 531.299 120.417 522.297 127.556 513.96Z"/>
	<path fill="#605E6B" d="M137.305 579.3C137.497 579.439 137.707 579.556 137.88 579.717C139.605 581.324 138.284 584.357 137.801 586.405C134.878 598.794 132.471 610.735 134.292 623.508C135.123 629.34 136.798 635.264 136.735 641.165C135.239 640.317 134.63 639.289 133.974 637.734C127.97 623.516 131.488 593.446 137.305 579.3Z"/>
	<path fill="#7D7C7C" d="M920.049 381.131C920.888 381.59 920.869 381.541 921.621 382.102C923.464 383.481 924.221 386.302 924.48 388.475C925.642 398.251 920.089 410.616 914.317 418.211C913.397 418.795 913.242 418.806 912.146 418.819L911.628 418.044C912.588 411.95 917.577 404.645 919.02 397.546C920.175 391.863 917.926 386.701 920.049 381.131Z"/>
	<path fill="#2D3473" d="M113.233 593.469C115.005 574.438 123.135 555.848 133.917 540.196C135.911 537.3 138.193 533.659 140.875 531.345C141.466 530.835 141.587 530.798 142.18 530.469C142.53 531.843 141.569 533.386 140.86 534.572C138.787 538.035 135.995 540.968 133.863 544.43C123.135 561.848 117.362 578.904 114.945 599.227C114.716 598.402 114.609 597.192 113.914 596.65C113.851 596.601 113.763 596.597 113.687 596.57L113.233 593.469Z"/>
	<path fill="#7D7C7C" d="M939.474 400.221C941.173 401.067 942.136 402.003 942.745 403.809C945.822 412.948 939.043 432.488 934.851 440.829L934.119 441.01C932.733 440.566 932.539 440.554 931.651 439.425C931.069 434.708 935.295 429.25 936.46 424.69C938.377 417.188 936.734 406.731 939.474 400.221Z"/>
	<path fill="#7D7C7C" d="M886.523 456.564C886.674 456.471 886.826 456.379 886.975 456.284C894.39 451.576 902.634 444.633 908.534 438.171C911.729 434.672 915.729 426.019 919.808 424.276C920.584 425.198 920.331 425.818 920.202 426.999C919.077 437.299 907.139 446.482 899.485 452.348C896.613 454.548 893.624 456.635 890.818 458.916L889.313 459.753L886.523 456.564Z"/>
	<path fill="#2D3473" d="M190.736 530.434L191.242 531.376C174.743 548.156 162.062 569.135 154.637 591.399C152.662 597.32 152.865 605.323 149.661 610.557C149.491 610.32 149.128 609.826 149.016 609.607C146.825 605.338 151.068 594.064 152.495 589.889C157.891 574.11 175.838 537.715 190.736 530.434Z"/>
	<path fill="#A157DB" d="M207.853 407.835C224.663 415.115 242.129 422.946 257.976 432.122C253.615 434.315 248.583 436.384 244.865 439.579C238.979 440.203 232.636 439.531 227.328 436.818C216.619 431.343 211.233 418.693 207.853 407.835Z"/>
	<path d="M170.963 284.153L171.252 286.842C171.966 287.228 172.516 287.392 173.315 287.527C164.233 308.261 159.915 329.427 160.474 352.118L160.208 354.197L160.581 354.671L162.629 353.761C162.89 354.776 162.907 355.647 162.897 356.691L163.965 358.097L163.96 359.155L164.418 359.505C165.34 357.982 166.3 356.496 167.295 355.021C167.271 356.094 166.736 357.457 167.418 358.296C168.35 356.966 169.338 355.68 170.322 354.388L171.512 354.495C170.528 356.21 168.532 358.814 168.387 360.761C169.357 360.542 168.999 360.748 169.546 360.32C171.356 361.087 173.575 360.131 175.397 359.646C173.196 361.949 171.029 364.252 168.971 366.684C173.518 372.737 178.043 375.182 176.919 383.32C176.743 384.6 176.42 385.857 176.088 387.105C177.364 388.259 178.717 389.128 180.174 390.038L179.254 390.354C179.087 391.691 179.72 392.019 179.493 393.374L175.809 391.7C172.499 390.153 169.036 389.39 165.672 388.052C163.402 387.149 162.059 386.004 161.126 383.716C159.121 378.797 158.633 372.664 158.018 367.423C154.655 338.755 159.145 310.48 170.963 284.153ZM167.376 371.741C166.827 373.812 165.36 377.315 166.539 379.317C167.697 381.283 169.416 382.69 170.516 384.784C171.162 386.015 171.981 386.145 173.195 386.712C173.98 383.109 174.36 379.864 172.33 376.551C171.294 374.859 169.036 372.764 167.376 371.741ZM175.809 391.7L179.493 393.374C179.72 392.019 179.087 391.691 179.254 390.354C177.91 390.031 177.692 389.699 176.398 390.318C176.165 390.766 175.86 391.192 175.809 391.7Z"/>
	<defs>
		<linearGradient id="gradient_0" gradientUnits="userSpaceOnUse" x1="176.72787" y1="391.17599" x2="177.71706" y2="389.89529">
			<stop offset="0" stop-color="black" stop-opacity="0.95686275"/>
			<stop offset="1" stop-color="black" stop-opacity="0.98823529"/>
		</linearGradient>
	</defs>
	<path fill="url(#gradient_0)" d="M175.809 391.7C175.86 391.192 176.165 390.766 176.398 390.318C177.692 389.699 177.91 390.031 179.254 390.354C179.087 391.691 179.72 392.019 179.493 393.374L175.809 391.7Z"/>
	<path fill="#14BCAB" d="M642.582 192.589C686.009 182.719 734.513 194.275 771.793 217.735C791.975 230.435 822.43 258.684 827.775 282.103C828.797 286.579 828.905 291.033 828.539 295.593C824.375 290.512 821.171 284.593 817.323 279.255C810.884 270.323 803.164 262.09 795.113 254.584C760.27 222.097 727.939 204.105 679.303 202.691C669.231 202.399 659.009 203.213 648.932 203.561C646.652 199.964 644.498 196.394 642.582 192.589Z"/>
	<path fill="#5761F0" d="M888.785 780.673C893.268 779.873 898.599 780.303 903.089 780.928C913.675 782.404 925.645 786.284 932.185 795.327C935.642 800.107 937.037 805.854 935.973 811.67C934.46 819.943 928.823 826.971 922.585 832.308C899.411 852.133 865.439 856.685 836.504 862.502C829.958 863.818 823.157 864.836 816.753 866.716C807.425 869.455 798.219 874.127 790.252 879.613C783.978 883.923 778.372 892.411 770.669 894.077C766.96 894.878 763.501 893.546 760.447 891.486C757.611 889.574 755.962 886.256 755.453 882.936C755.166 881.067 755.114 879.104 755.944 877.361C760.992 866.768 770.119 858.169 776.897 848.672C782.912 840.244 787.981 831.147 794.182 822.859C799.274 816.054 805.492 810.196 812.66 805.612C830.862 793.97 867.198 783.721 888.785 780.673Z"/>
	<path fill="#5761F0" d="M162.253 157.698C175.427 156.427 191.462 158.817 203.033 165.493C211.037 170.112 217.69 176.831 220.054 185.985C222.483 195.393 219.896 204.915 215.011 213.076C205.098 229.635 178.829 251.942 161.758 260.989C156.655 263.693 151.55 265.484 145.958 266.877C145.146 267.004 144.335 267.126 143.519 267.22C132.61 268.473 122.404 263.535 114.142 256.819C101.491 246.536 89.2001 230.74 87.6151 213.986C86.5544 202.775 90.4042 192.381 97.6289 183.869C113.289 165.416 139.24 159.678 162.253 157.698Z"/>
	<path fill="#E12726" d="M274.085 204.756C279.915 173.235 288.436 151.694 309.86 127.413C335.702 98.1246 372.516 80.2052 411.468 77.875C444.372 75.9066 478.332 84.2581 506.166 101.972C515.152 107.69 523.5 114.606 531.453 121.674C519.012 121.662 506.783 120.845 494.324 121.576C455.897 123.832 414.496 136.84 386.729 164.436C374.91 176.183 367.252 189.433 360.139 204.317C331.703 198.633 302.277 196.253 274.085 204.756Z"/>
	<path fill="#5761F0" d="M624.349 30.2055C624.649 30.1911 624.949 30.1737 625.25 30.1624C695.935 27.4962 800.379 60.3128 852.923 108.532C862.008 116.87 874.575 130.369 874.819 143.558C874.91 148.452 872.898 152.759 869.382 156.117C857.14 167.809 833.928 166.873 818.125 166.517C750.495 166.344 640.774 129.949 587.149 88.6563C578.271 81.8199 567.022 71.979 565.706 60.0624C565.128 54.8284 567.114 49.7499 570.534 45.824C582.669 31.8932 607.354 31.371 624.349 30.2055Z"/>
	<path fill="#FED560" d="M663.555 601.559C663.565 588.31 664.155 574.765 666.551 561.723C673.469 524.078 696.065 490.538 727.5 468.952C761.617 445.525 803.741 435.039 844.698 442.71L845.085 442.906C846.541 443.471 847.581 444.032 848.849 444.944L850.026 443.583C862.456 446.699 874.801 450.27 886.087 456.485L886.523 456.564L889.313 459.753L890.818 458.916C896.41 462.264 901.957 465.6 907.299 469.34L907.375 469.659C908.47 470.592 909.464 471.64 910.813 472.168L910.954 472.351C940.733 492.452 960.134 528.953 966.942 563.751C974.693 603.366 965.71 646.369 943.187 679.781C919.299 715.216 881.838 738.857 840.071 746.99C816.502 751.58 791.075 750.691 768.501 742.231C759.614 738.901 751.115 734.328 741.978 731.699C740.365 712.435 739.672 693.068 738.333 673.78C737.492 661.668 737.749 642.275 732.48 631.464C725.455 626.248 716.472 623.384 708.464 619.969C693.581 613.62 678.637 607.422 663.555 601.559Z"/>
	<path fill="#9A8B46" d="M817.26 504.017C818.114 504.097 818.191 504.301 818.847 504.808C819.358 506.095 819.475 506.06 818.976 507.33C812.811 512.722 794.202 513.047 785.949 512.986C785.724 512.927 785.485 512.908 785.274 512.811C784.241 512.336 783.718 511.546 783.269 510.561C783.923 509.395 784.712 509.365 785.962 509.12C789.455 508.435 793.25 508.435 796.796 508.126C803.646 507.528 810.746 506.242 817.26 504.017Z"/>
	<path fill="#9A8B46" d="M886.087 456.485L886.523 456.564L889.313 459.753C883.504 467.248 849.928 483.947 839.612 487.101C837.469 487.757 834.897 488.734 832.835 487.623L832.774 486.7C835.461 479.821 845.662 485.625 886.087 456.485Z"/>
	<path fill="#9A8B46" d="M910.954 472.351C897.419 487.786 880.711 498.395 861.227 504.835C857.15 506.182 848.17 510.002 844.162 507.99L844.021 507.08C847.096 503.077 855.393 502.544 860.045 501.069C863.006 500.129 865.873 498.888 868.685 497.576C883.409 490.703 896.914 482.241 907.375 469.659C908.47 470.592 909.464 471.64 910.813 472.168L910.954 472.351Z"/>
	<path fill="#9A8B46" d="M845.085 442.906C846.541 443.471 847.581 444.032 848.849 444.944C837.278 463.15 818.729 477.857 798.161 484.48C788.191 487.691 752.982 494.051 744.42 489.683L744.326 488.937C749.585 485.02 762.108 486.685 768.665 486.187C772.651 485.884 776.638 485.27 780.567 484.539C807.784 479.479 829.382 465.848 845.085 442.906Z"/>
	<path fill="#FEFEFE" d="M784.756 594.91C786.284 595.205 787.566 595.344 788.792 596.391C789.646 598.043 789.315 599.666 789.165 601.449C793.361 602.495 797.76 603.485 801.69 605.329C808.614 608.578 812.327 614.267 814.727 621.294C816.05 625.165 815.955 630.716 814.116 634.377C813.502 634.788 813.18 635.284 812.374 635.013C806.447 633.022 808.037 622.408 805.679 618.061C802.636 612.454 793.833 609.971 788.214 608.19C785.771 620.674 784.877 634.035 783.827 646.721C790.38 648.466 797.008 650.467 802.527 654.552C808.01 658.61 811.658 664.452 812.496 671.265C813.358 678.275 811.208 685.521 806.687 690.942C799.16 699.97 788.693 701.766 777.597 702.575C777.394 706.874 777.003 711.149 776.503 715.423C776.304 717.94 776.05 719.312 774.111 721.02C773.489 721.168 773.229 721.404 772.654 721.077C769.966 717.476 772.165 706.605 772.677 702.29C766.193 700.675 759.772 698.896 755.006 693.871C750.978 689.623 746.987 681.63 747.421 675.648C747.528 674.183 748.179 672.588 749.492 671.795C750.668 671.083 751.355 671.223 752.618 671.409C758.016 674.776 755.62 681.907 758.287 686.649C760.998 691.467 768.877 693.958 773.867 695.477C775.536 681.148 777.26 666.8 778.129 652.395C771.964 650.856 765.975 649.07 760.901 645.077C755.927 641.163 752.677 635.626 752.114 629.281C751.537 622.782 753.837 616.199 758.044 611.255C764.848 603.257 773.305 601.724 783.152 600.915C783.509 598.832 784.086 596.912 784.756 594.91Z"/>
	<path fill="#FED560" d="M779.048 608.115C780.53 608.047 781.221 607.845 782.542 608.567C784.519 615.406 780.1 637.611 779.28 645.804C775.478 644.301 771.758 642.74 768.08 640.951C767.845 640.82 767.608 640.694 767.377 640.558C763.781 638.443 760.529 634.709 759.555 630.595C758.508 626.174 759.8 621.476 762.324 617.786C766.367 611.876 772.285 609.442 779.048 608.115Z"/>
	<path fill="#FED560" d="M783.169 654.234C789.498 656.185 795.922 658.182 800.578 663.197C803.615 666.467 805.318 670.75 805.122 675.229C804.833 681.839 800.755 686.224 796.182 690.442C790.729 694.336 784.808 695.17 778.332 695.652C780.16 681.86 781.711 668.07 783.169 654.234Z"/>
	<path fill="#336E5D" d="M485.65 934.894C482.776 937.27 479.072 938.69 475.575 939.876C457.936 945.859 438.976 947.107 420.499 947.935C343.478 951.385 263.637 934.376 194.53 900.312C148.864 877.803 103.413 843.982 86.6345 793.776C80.1693 774.431 79.0741 751.735 88.509 733.125C96.3987 717.562 109.91 705.91 121.947 693.645C129.102 686.354 136.005 678.641 142.215 670.525C160.236 646.97 171.102 618.396 191.984 597.01C202.729 586.004 215.361 577.992 230.008 573.303C270.657 560.29 308.398 575.406 343.332 595.801C353.848 601.94 363.848 608.817 374.701 614.38C358.529 621.666 341.457 627.556 324.738 633.455C314.535 637.056 303.131 640.28 293.704 645.622C291.582 646.825 290.183 647.815 289.258 650.142C287.005 655.814 287.299 663.145 287.584 669.127C288.909 696.88 294.134 724.313 297.718 751.815C299.823 767.97 304.157 815.881 309.574 828.443C310.536 830.674 312.641 832.392 314.611 833.717C321.644 838.449 329.397 842.409 336.798 846.54C346.146 851.758 355.392 857.157 364.657 862.519C394.367 879.713 423.723 897.418 453.198 915.004C460.55 919.391 480.044 929.722 485.65 934.894Z"/>
	<path fill="#14BCAB" d="M183.249 718.954C183.759 719.146 184.532 719.372 184.999 719.686C186.149 720.46 186.247 720.749 186.563 722.014C186.205 722.864 185.434 724.177 185.801 725.108C187.148 728.522 196.804 729.68 198.937 739.204C199.445 741.473 199.241 743.932 197.935 745.906C196.997 747.322 195.968 747.895 194.31 748.213C193.406 747.938 192.862 747.953 192.231 747.191C190.838 745.511 191.179 743.826 191.394 741.801L191.471 741.128C188.427 738.168 184.957 735.842 181.445 733.484C176.898 740.766 172.801 748.31 168.846 755.924C172.087 758.018 175.279 760.347 177.592 763.479C180.243 767.067 181.331 771.349 180.563 775.756C179.57 781.452 175.748 786.441 171.008 789.607C163.944 794.324 155.8 795.257 147.669 793.49C146.735 795.1 145.615 797.494 144.067 798.542C143.276 799.076 143.227 798.864 142.356 798.696C139.109 795.76 141.907 794.651 140.814 791.454C140.758 791.291 140.658 791.146 140.581 790.992C136.478 788.651 132.69 785.573 130.263 781.458C127.783 777.253 127.169 772.353 128.509 767.663C129.471 764.294 131.814 759.103 135.292 757.621C136.523 757.097 136.859 757.306 138.025 757.739C140.289 761.205 136.054 769.565 136.635 774.254C137.242 779.152 141.105 781.993 144.758 784.745C149.271 776.167 154.139 767.746 158.846 759.271C155.957 757.418 153.1 755.422 150.742 752.908C147.527 749.481 144.972 745.031 145.26 740.184C145.518 735.825 148.055 732.112 151.319 729.369C159.492 722.501 169.244 722.701 179.191 723.682L183.249 718.954Z"/>
	<path fill="#2D3473" d="M169.616 730.631C171.423 730.483 173.41 730.968 175.2 731.236C171.87 737.97 167.646 746.106 162.765 751.808L161.65 751.768C158.92 749.326 155.892 746.791 154.935 743.093C154.376 740.935 154.691 738.835 155.956 736.99C158.927 732.654 164.804 731.534 169.616 730.631Z"/>
	<path fill="#2D3473" d="M164.023 763.338C167.49 765.257 171.327 767.015 172.905 770.939C173.669 772.838 173.514 774.895 172.732 776.76C170.668 781.684 165.542 784.217 160.935 786.215C157.555 786.609 154.272 786.693 150.871 786.665C155.161 778.832 159.548 771.067 164.023 763.338Z"/>
	<path d="M360.139 204.317C367.252 189.433 374.91 176.183 386.729 164.436C414.496 136.84 455.897 123.832 494.324 121.576C506.783 120.845 519.012 121.662 531.453 121.674C531.601 121.727 531.748 121.783 531.896 121.834C539.425 124.422 552.127 125.334 561.069 127.672C601.473 138.236 620.755 158.964 642.582 192.589C644.498 196.394 646.652 199.964 648.932 203.561C659.009 203.213 669.231 202.399 679.303 202.691C727.939 204.105 760.27 222.097 795.113 254.584C803.164 262.09 810.884 270.323 817.323 279.255C821.171 284.593 824.375 290.512 828.539 295.593C828.634 295.902 828.726 296.212 828.824 296.52C829.815 299.611 831.675 302.678 833.109 305.594C835.54 310.537 837.777 315.434 839.526 320.668C849.088 349.279 842.196 380.463 829.095 406.815C826.43 412.176 821.731 421.392 816.043 423.992C815.337 423.679 814.621 423.296 813.913 423.009C808.204 420.692 768.84 434.754 761.795 437.617C755.397 440.216 749.172 443.288 742.965 446.311C739.54 448.468 735.998 450.386 732.443 452.317C730.539 453.636 728.488 455.615 726.122 455.393C725.102 454.507 724.706 453.545 724.163 452.346C719.221 450.928 713.848 450.58 708.738 450.088C703.267 454.482 694.967 462.22 689.399 465.65L685.005 466.902L685.642 466.739L685.707 465.943C686.611 464.955 687.622 463.977 688.15 462.726C688.247 462.495 688.333 462.26 688.425 462.027C683.507 465.581 671.401 476.152 667.858 480.487L669.167 481.305C669.308 482.541 668.983 483.202 668.53 484.324C647.771 504.107 626.607 523.435 605.99 543.379C596.957 552.117 587.137 560.764 578.99 570.335C591.044 574.249 602.831 579.222 614.763 583.522C631.001 589.374 647.698 594.749 663.555 601.559C678.637 607.422 693.581 613.62 708.464 619.969C716.472 623.384 725.455 626.248 732.48 631.464C737.749 642.275 737.492 661.668 738.333 673.78C739.672 693.068 740.365 712.435 741.978 731.699C742.014 733.746 742.202 735.903 742.054 737.938C743.613 749.668 741.789 761.984 743.659 773.63C746.455 783.488 747.245 792.912 748.107 803.074C748.553 808.339 748.521 814.254 750.204 819.283C699.223 839.998 647.83 859.595 597.941 882.926C570.261 895.871 542.95 909.551 515.236 922.455C507.732 925.949 496.813 932.467 489.593 935.042C488.312 935.499 486.933 935.175 485.65 934.894C480.044 929.722 460.55 919.391 453.198 915.004C423.723 897.418 394.367 879.713 364.657 862.519C355.392 857.157 346.146 851.758 336.798 846.54C329.397 842.409 321.644 838.449 314.611 833.717C312.641 832.392 310.536 830.674 309.574 828.443C304.157 815.881 299.823 767.97 297.718 751.815C294.134 724.313 288.909 696.88 287.584 669.127C287.299 663.145 287.005 655.814 289.258 650.142C290.183 647.815 291.582 646.825 293.704 645.622C303.131 640.28 314.535 637.056 324.738 633.455C341.457 627.556 358.529 621.666 374.701 614.38C386.376 611.197 398.085 606.502 409.384 602.184C417.258 599.176 425.338 596.373 433.037 592.964C437.775 590.867 442.142 587.981 446.796 585.697C452.679 582.809 458.864 580.666 465.039 578.507C462.405 576.096 459.344 574.015 456.942 571.384C447.371 564.862 438.241 556.735 429.064 549.589C416.963 540.167 404.467 531.247 392.417 521.773C391.293 521.278 389.994 520.114 388.969 519.388C373.755 508.228 358.29 497.09 343.53 485.343C336.272 480.524 329.312 475.002 322.278 469.846C311.932 462.694 302.383 454.406 291.679 447.775C290.535 448.149 289.025 448.783 287.82 448.383C285.899 447.746 284.718 444.94 283.085 443.69C278.903 440.488 269.243 436.382 264.05 434.971L257.976 432.122C242.129 422.946 224.663 415.115 207.853 407.835C199.172 402.096 188.701 398.343 179.493 393.374C179.72 392.019 179.087 391.691 179.254 390.354L180.174 390.038C178.717 389.128 177.364 388.259 176.088 387.105C176.42 385.857 176.743 384.6 176.919 383.32C178.043 375.182 173.518 372.737 168.971 366.684C171.029 364.252 173.196 361.949 175.397 359.646C173.575 360.131 171.356 361.087 169.546 360.32C168.999 360.748 169.357 360.542 168.387 360.761C168.532 358.814 170.528 356.21 171.512 354.495L170.322 354.388C169.338 355.68 168.35 356.966 167.418 358.296C166.736 357.457 167.271 356.094 167.295 355.021C166.3 356.496 165.34 357.982 164.418 359.505L163.96 359.155L163.965 358.097L162.897 356.691C162.907 355.647 162.89 354.776 162.629 353.761L160.581 354.671L160.208 354.197L160.474 352.118C159.915 329.427 164.233 308.261 173.315 287.527C172.516 287.392 171.966 287.228 171.252 286.842L170.963 284.153C172.758 280.01 175.025 275.906 177.265 271.985C198.1 235.514 234.842 215.545 274.085 204.756C302.277 196.253 331.703 198.633 360.139 204.317ZM454.766 349.479C454.277 351.108 454.039 352.551 452.598 353.613C450.459 353.776 448.772 352.371 447.05 351.202L480.778 489.001C484.117 503.06 487.55 517.141 490.667 531.246C493.125 542.37 495.234 553.656 498.189 564.659C503.257 563.08 508.318 561.513 513.316 559.722C514.173 552.554 515.122 545.404 516.121 538.254C517.012 531.414 517.773 524.516 519.005 517.729C519.538 504.829 522.55 489.496 524.341 476.473C528.167 448.653 532.089 420.853 536.611 393.136C539.391 376.089 543.225 358.247 545.156 341.178C533.047 341.376 520.824 342.709 508.751 343.693C490.678 345.168 472.682 346.575 454.766 349.479ZM323.073 466.101C323.145 466.326 323.205 466.555 323.289 466.776C323.703 467.861 324.325 468.632 325.036 469.527C324.725 469.598 324.398 469.521 324.079 469.517C322.885 469.501 323.358 469.433 322.278 469.846C329.312 475.002 336.272 480.524 343.53 485.343C358.29 497.09 373.755 508.228 388.969 519.388C389.994 520.114 391.293 521.278 392.417 521.773C404.467 531.247 416.963 540.167 429.064 549.589C438.241 556.735 447.371 564.862 456.942 571.384C456.828 570.386 456.491 569.531 456.164 568.587C456.751 568.575 457.338 568.556 457.922 568.505L458.552 568.447C461.987 570.158 465.365 573.414 468.428 575.778L485.971 568.946C474.466 551.254 461.929 534.209 449.795 516.943C445.024 510.154 439.525 503.567 435.335 496.407C435.368 495.593 435.315 495.244 434.964 494.483C434.614 493.724 434.318 493.012 434.042 492.222L435.224 491.528C431.845 485.342 426.564 479.285 422.417 473.514C414.929 463.096 407.712 452.219 399.727 442.19L399.418 441.734C398.21 442.5 397.54 442.376 396.171 442.292C389.586 433.659 382.675 425.024 376.818 415.879C373.443 415.096 370.452 414.143 367.271 412.751C352.002 417.5 336.757 422.719 321.695 428.087C314.273 430.731 306.036 433.188 299.043 436.83C296.878 437.958 294.905 439.104 293.618 441.229C293.73 443.63 295.019 444.925 296.747 446.491C300.978 450.326 321.458 463.429 323.073 466.101ZM415.391 335.561C409.032 352.57 400.219 369.47 391.531 385.408C386.878 393.943 381.742 402.321 377.782 411.204C385.026 421.216 393.012 431.168 399.418 441.734L399.727 442.19C407.712 452.219 414.929 463.096 422.417 473.514C426.564 479.285 431.845 485.342 435.224 491.528C441.96 499.095 447.631 508.313 453.52 516.598C465.64 533.652 477.624 550.853 490.118 567.634L494.731 565.726C490.779 549.811 487.528 533.743 483.844 517.765C475.334 480.852 466.68 443.932 457.399 407.204L449.697 376.307C448.064 369.61 446.738 362.427 444.222 356.012C442.713 352.165 434.392 340.071 430.755 338.476C425.608 337.708 420.495 336.572 415.391 335.561ZM548.491 340.815C544.998 368.074 539.744 395.236 535.717 422.447L526.107 489.918C524.536 501.482 523.28 513.147 521.495 524.674C520.531 532.458 519.788 540.29 518.499 548.028C518.15 551.313 517.883 554.635 517.412 557.904C525.862 554.639 537.834 548.296 546.936 549.938C547.42 545.573 549.243 540.743 550.223 536.401C552.835 524.838 555.214 513.225 558.092 501.723C559.944 491.323 562.669 480.966 565.056 470.674L578.189 415.617C581.031 404.106 585.858 387.534 587.156 376.118L576.611 367.989C575.99 361.169 575.366 345.377 570.86 340.298L570.129 340.208C569.59 341.364 569.392 342.414 568.263 343.063C560.115 340.045 556.951 340.296 548.491 340.815ZM591.142 378.421C583.239 406.605 576.714 435.343 570.234 463.884C567.325 476.699 564.966 489.865 561.482 502.523C560.8 502.979 560.17 503.328 559.413 503.646L558.092 501.723C555.214 513.225 552.835 524.838 550.223 536.401C549.243 540.743 547.42 545.573 546.936 549.938L548.051 550.399C548.489 553.368 548.13 556.27 548.442 559.223L548.615 559.631C551.678 561.822 556.247 562.902 559.79 564.258C568.147 554.488 575.225 542.884 582.435 532.235L619.87 476.262C625.976 467.025 631.785 457.155 638.789 448.591C626.597 426.093 611.406 394.208 591.142 378.421ZM681.561 448.392C671.492 448.521 658.536 449.587 648.944 448.954L642.7 449.265C628.574 471.358 613.393 492.928 598.631 514.605C587.121 531.507 575.98 548.73 564.219 565.451C567.708 566.676 571.285 567.796 574.72 569.158C583.377 561.135 591.295 552.162 599.79 543.923C622.064 522.322 644.709 501.146 667.858 480.487C671.401 476.152 683.507 465.581 688.425 462.027C691.168 458.022 699.105 452.832 703.124 449.683C695.913 449.158 688.798 448.53 681.561 448.392ZM536.834 127.282C546.628 138.576 554.23 150.827 560.452 164.395C564.915 166.892 571.604 167.644 576.533 169.347C595.911 176.042 612.471 185.112 627.253 199.47C630.795 198.092 634.253 196.348 637.715 194.771C633.54 186.374 628.372 178.47 622.444 171.21C601.678 145.774 569.244 130.574 536.834 127.282ZM173.315 287.527C164.233 308.261 159.915 329.427 160.474 352.118L161.112 352.837C162.045 351.991 162.091 350.478 162.377 349.259C168.845 326.848 178.292 308.877 194.937 292.226C199.345 287.816 205.723 283.963 209.382 279.013C209.582 278.741 209.774 278.463 209.97 278.187C215.587 257.004 226.69 238.695 243.783 224.972C248.837 220.914 254.486 217.668 259.571 213.654L260.038 213.28C227.955 221.194 197.919 245.037 180.927 273.016C178.131 277.621 175.384 282.544 173.315 287.527ZM347.901 360.586C347.741 360.726 347.58 360.865 347.422 361.008C342.321 365.601 338.754 371.564 334.397 376.811C328.057 384.447 320.568 391.623 312.998 398.044C306.438 403.609 299.404 408.858 292.097 413.409C288.109 415.893 279.336 419.253 276.477 422.133C278.187 424.106 280.05 426.057 281.645 428.116C282.562 429.509 283.635 430.755 284.705 432.032C295.338 428.053 305.258 422.339 315.876 418.222C332.071 411.943 348.839 407.29 365.068 401.18C365.165 401.04 365.31 400.924 365.358 400.761C366.254 397.72 350.419 365.988 347.901 360.586ZM563.904 170.359C568.529 185.61 572.094 200.193 573.847 216.052C588.102 205.537 601.057 204.969 618.11 204.971C619.518 204.303 620.693 202.571 621.715 201.385C621.556 200.926 621.543 200.814 621.236 200.351C619.588 197.862 616.374 195.606 614.046 193.771C599.21 182.08 581.971 175.281 563.904 170.359ZM175.397 359.646C173.196 361.949 171.029 364.252 168.971 366.684C173.518 372.737 178.043 375.182 176.919 383.32C176.743 384.6 176.42 385.857 176.088 387.105C177.364 388.259 178.717 389.128 180.174 390.038C188.934 394.182 197.801 399.335 206.819 402.795C202.721 384.881 201.059 371.699 201.956 353.322C191.436 351.518 184.03 353.614 175.397 359.646ZM166.62 346.802C164.649 348.43 164.946 349.408 163.713 351.407C163.163 350.705 162.763 350.063 162.377 349.259C162.091 350.478 162.045 351.991 161.112 352.837L160.474 352.118L160.208 354.197L160.581 354.671L162.629 353.761C162.89 354.776 162.907 355.647 162.897 356.691L163.965 358.097L163.96 359.155L164.418 359.505C165.34 357.982 166.3 356.496 167.295 355.021C168.55 351.621 172.131 347.625 174.831 345.237C182.642 338.326 191.403 336.287 201.649 336.937C200.913 318.879 203.508 302.984 207.885 285.585C192.114 296.779 179.729 314.446 172.001 332.03C170.281 335.945 168.512 343.74 166.62 346.802ZM817.952 336.117C820.308 341.323 827.065 351.28 826.942 356.752C826.776 358.929 826.732 360.879 827.056 363.043L826.709 363.656C826.09 363.234 825.492 362.796 824.892 362.349C827.362 373.722 827.922 383.604 826.587 395.154C828.366 393.792 828.311 391.793 828.624 389.73C828.662 389.979 828.687 390.231 828.738 390.478C829.021 391.845 829.902 391.969 831.043 392.618C833.52 388.193 834.988 381.43 836.36 376.523C843.319 351.644 840.527 326.99 827.82 304.577C824.766 315.154 821.84 325.808 817.952 336.117ZM786.01 400.15C781.286 406.618 776.335 412.872 770.658 418.542C765.548 423.647 759.809 428.25 755.122 433.747C775.073 429.305 794.472 422.349 814.126 416.725C809.85 409.384 804.391 404.363 796.221 401.723C793.774 400.932 788.194 399.05 786.01 400.15ZM815.343 340.517C813.055 345.328 810.832 350.158 808.665 355.025C810.434 360.518 812.884 365.84 814.432 371.392C818.114 384.601 819.56 398.092 821.356 411.631C823.527 406.217 825.469 400.897 826.587 395.154C827.922 383.604 827.362 373.722 824.892 362.349C822.184 354.961 819.934 347.01 815.343 340.517ZM570.891 242.358C570.318 247.228 569.92 252.196 569.034 257.016C569.201 260.496 569.628 264.011 570.477 267.396C578.749 252.678 586.907 238.432 596.46 224.494C593.363 223.922 584.645 228.911 581.857 230.854C577.694 233.755 573.192 237.798 570.891 242.358ZM795.48 383.238C793.364 387.25 791.318 391.32 789.04 395.242C801.889 398.312 807.34 402.044 816.437 411.456C816.276 407.716 816.201 403.926 815.823 400.202C815.334 395.379 813.8 390.774 809.849 387.702C806.519 385.113 799.802 382.655 795.48 383.238ZM365.635 404.984C338.608 413.602 312.233 422.955 286.585 435.112C287.623 436.509 288.696 438.356 290.18 439.289L290.521 439.093C291.979 437.077 293.526 435.939 295.703 434.752C302.254 431.181 309.867 428.894 316.866 426.321C328.036 422.215 339.23 417.985 350.569 414.36C355.69 412.722 361.127 411.804 366.062 409.654C367.421 409.061 368.433 408.504 369.278 407.249C369.085 406.108 369.353 406.398 368.478 405.751C367.516 405.04 366.805 404.872 365.635 404.984ZM567.317 267.61C563.369 273.627 560.793 279.945 558.176 286.62C554.657 299.421 553.06 313.266 551.529 326.448C556.087 326.72 560.743 327.13 565.306 326.937C563.851 318.437 561.041 310.152 559.726 301.659C558.052 290.849 561.901 282.879 568.087 274.389C568.104 272.091 567.681 269.871 567.317 267.61ZM409.388 334.191C403.416 345.353 397.684 356.653 391.903 367.916C385.192 380.993 376.665 395.063 373.672 409.539C382.606 398.758 407.007 348.977 410.95 334.916L409.388 334.191ZM573.447 222.629C573.513 225.412 573.51 228.148 574.056 230.888C581.673 224.961 589.951 221.325 599.352 219.312C601.644 215.422 605.504 212.518 608.808 209.505C598.758 207.791 587.357 212.149 579.25 217.901C577.226 219.337 575.289 220.965 573.447 222.629ZM171.512 354.495C170.528 356.21 168.532 358.814 168.387 360.761C169.357 360.542 168.999 360.748 169.546 360.32C171.104 358.559 172.849 356.921 174.698 355.469C182.878 349.049 192.063 348.167 202.036 349.361C202.064 346.64 201.993 343.914 201.958 341.193C199.868 339.615 196.212 339.639 193.723 339.979C184.441 341.245 177.583 348.059 171.512 354.495ZM806.134 361.005C803.36 366.945 800.582 372.882 797.917 378.872C798.575 379.279 798.296 379.184 799.008 379.344C804.142 380.494 808.879 382.128 813.397 384.856C811.658 376.689 809.606 368.634 806.134 361.005ZM520.478 335.99C513.307 336.781 506.179 337.71 499.044 338.774C497.106 339.357 495.036 339.785 493.379 340.983C503.991 340.651 514.759 339.517 525.337 338.576C531.138 338.061 537.525 337.945 543.209 336.742C544.88 336.389 545.148 335.98 546 334.543C537.502 335.182 528.978 335.397 520.478 335.99ZM519.005 517.729C517.773 524.516 517.012 531.414 516.121 538.254C516.293 538.129 516.473 538.015 516.637 537.88C517.436 537.225 517.442 536.72 517.978 535.948C518.047 535.848 518.171 535.8 518.267 535.726C518.268 539.755 517.969 544.039 518.499 548.028C519.788 540.29 520.531 532.458 521.495 524.674L519.983 525.143C518.867 522.991 520.054 520.214 519.005 517.729ZM742.054 737.938C741.615 743.457 740.646 770.258 742.846 774.354L743.659 773.63C741.789 761.984 743.613 749.668 742.054 737.938ZM278.046 430.457C275.708 431.498 273.375 432.538 271.08 433.672C273.362 434.614 275.551 436.138 277.939 436.76C278.958 437.025 278.488 437.051 279.481 436.497C279.155 434.34 279.281 432.336 278.046 430.457Z"/>
	<path fill="#14BCAB" d="M624.467 211.167C625.065 211.227 625.646 211.282 626.23 211.431C628.115 211.911 630.8 212.987 631.876 214.682L631.339 215.34C629.012 215.622 625.969 216.467 623.895 215.375C623.521 213.685 623.982 212.808 624.467 211.167Z"/>
	<path fill="#D377D4" d="M358.561 239.435C359.39 240.069 360.027 240.811 360.549 241.717C361.998 244.226 362.746 247.287 362.034 250.116C361.491 250.194 360.966 250.147 360.42 250.127C359.908 249.694 359.832 249.677 359.396 249.057C357.793 246.779 358.3 242.089 358.561 239.435Z"/>
	<path fill="#FEEBAC" d="M504.892 619.807C508.22 621.441 510.998 623.239 513.784 625.72C510.655 625.715 507.118 626.111 504.595 623.891C504.169 623.515 503.981 623.255 503.642 622.837L504.892 619.807Z"/>
	<path fill="#E12726" d="M570.891 242.358C570.318 247.228 569.92 252.196 569.034 257.016C567.656 254.957 567.117 250.741 566.41 248.227C567.794 246.154 569.294 244.264 570.891 242.358Z"/>
	<path fill="#FEFEFE" d="M527.793 611.384C529.216 612.19 530.284 613.316 531.444 614.447C530.319 615.983 529.071 617.42 527.844 618.875C526.312 617.972 525.052 617.126 524.394 615.47C524.875 613.748 526.512 612.566 527.793 611.384Z"/>
	<path fill="#FED560" d="M580.063 646.711C583.481 646.277 590.657 645.863 593.704 647.425L593.367 648.384C589.939 649.639 584.767 650.022 581.388 648.371C580.392 647.885 580.37 647.7 580.063 646.711Z"/>
	<path fill="#14BCAB" d="M732.443 452.317C732.016 451.609 731.645 450.857 731.254 450.128C731.451 449.24 731.362 448.971 732.063 448.317C734.363 446.171 739.963 446.208 742.965 446.311C739.54 448.468 735.998 450.386 732.443 452.317Z"/>
	<path d="M742.054 737.938C743.613 749.668 741.789 761.984 743.659 773.63L742.846 774.354C740.646 770.258 741.615 743.457 742.054 737.938Z"/>
	<path fill="#FEFEFE" d="M559.143 630.058C560.631 630.228 562.077 630.215 563.298 631.176L563.156 631.974C560.504 634.201 557.105 634.696 553.795 635.171C552.046 635.222 550.46 635.353 548.783 634.792L548.662 634.279C551.392 631.929 555.707 630.923 559.143 630.058Z"/>
	<path fill="#E12726" d="M365.022 237.693C368.155 238.574 371.62 240.078 374.209 242.085C375.345 242.966 376.093 243.458 376.278 244.895C373.274 245.028 370.31 245.497 367.337 245.919L365.022 237.693Z"/>
	<path fill="#009160" d="M648.944 448.954C649.589 448.577 650.225 448.303 650.944 448.092C657.6 446.141 675.538 445.189 681.561 448.392C671.492 448.521 658.536 449.587 648.944 448.954Z"/>
	<path fill="#A157DB" d="M201.958 341.193C206.914 344.747 211.545 348.984 214.902 354.124C210.796 352.326 206.462 350.164 202.036 349.361C202.064 346.64 201.993 343.914 201.958 341.193Z"/>
	<path fill="#E12726" d="M520.478 335.99C520.936 335.578 521.362 335.196 521.893 334.88C526.15 332.348 539.173 330.882 543.935 332.474C545.361 332.952 545.338 333.259 546 334.543C537.502 335.182 528.978 335.397 520.478 335.99Z"/>
	<path fill="#FEFEFE" d="M546.588 626.583L547.545 626.726L547.896 627.605C544.594 631.264 538.211 633.878 533.633 635.576C532.716 635.252 532.353 634.757 531.68 634.079L531.794 633.237C535.355 629.114 541.524 627.846 546.588 626.583Z"/>
	<path d="M519.005 517.729C520.054 520.214 518.867 522.991 519.983 525.143L521.495 524.674C520.531 532.458 519.788 540.29 518.499 548.028C517.969 544.039 518.268 539.755 518.267 535.726C518.171 535.8 518.047 535.848 517.978 535.948C517.442 536.72 517.436 537.225 516.637 537.88C516.473 538.015 516.293 538.129 516.121 538.254C517.012 531.414 517.773 524.516 519.005 517.729Z"/>
	<path fill="#FED560" d="M494.367 571.432C494.878 571.626 495.219 571.716 495.666 572.095C499.362 575.23 507.795 600.724 508.017 605.929C505.174 600.442 503.212 594.447 500.767 588.766C498.706 583.978 495.741 578.901 494.383 573.897C494.134 572.977 494.177 572.347 494.367 571.432Z"/>
	<path fill="#E12726" d="M573.447 222.629C573.513 225.412 573.51 228.148 574.056 230.888C572.24 233.151 570.15 236.691 567.635 238.146C566.668 238.705 566.704 238.672 565.586 238.326C565.279 237.662 565.074 237.105 565.103 236.359C565.311 230.941 569.573 226.016 573.447 222.629Z"/>
	<path fill="#14BCAB" d="M637.715 194.771C639.478 198.2 641.156 201.719 643.084 205.057C639.743 205.302 636.434 205.559 633.081 205.484L627.253 199.47C630.795 198.092 634.253 196.348 637.715 194.771Z"/>
	<path fill="#14BCAB" d="M608.808 209.505C612.56 209.994 616.326 210.123 620.104 210.29L617.334 216.282C610.935 216.179 605.665 219.819 599.352 219.312C601.644 215.422 605.504 212.518 608.808 209.505Z"/>
	<path fill="#E12726" d="M558.176 286.62C557.172 279.394 561.636 260.309 563.44 252.597C564.846 257.57 565.745 262.684 567.317 267.61C563.369 273.627 560.793 279.945 558.176 286.62Z"/>
	<path fill="#FED560" d="M547.908 564.217C550.917 565.484 554.049 566.446 557.145 567.475C553.323 572.581 549.369 577.584 545.431 582.6L541.227 587.954L547.908 564.217Z"/>
	<path fill="#14BCAB" d="M774.187 396.178C779.936 388.807 786.356 385.19 795.48 383.238C793.364 387.25 791.318 391.32 789.04 395.242C784.382 394.403 778.812 395.393 774.187 396.178Z"/>
	<path fill="#FEFEFE" d="M524.749 660.416C527.059 664.612 529.312 672.714 530.141 677.511C530.428 679.171 530.626 680.306 529.652 681.723L527.887 681.619C526.741 681.297 525.561 680.99 524.455 680.548C522.944 679.945 521.735 678.764 521.102 677.262C519.055 672.401 522.986 665.022 524.749 660.416Z"/>
	<path fill="#FED560" d="M471.599 605.793C480.878 607.361 490.018 609.966 498.841 613.206C500.729 615.655 502.493 617.827 504.892 619.807L503.642 622.837C499.997 618.837 478.21 609.885 471.599 605.793Z"/>
	<path fill="#FEFEFE" d="M512.342 663.892L512.864 664.431C513.302 668.021 515.498 674.163 513.209 677.28C510.647 680.768 502.363 680.354 498.379 680.649C497.964 680.641 497.382 680.426 496.975 680.32L497.003 679.272C500.71 673.387 507.132 668.421 512.342 663.892Z"/>
	<path fill="#FED560" d="M511.587 566.033L512.159 566.593C513.18 572.58 510.204 585.736 509.225 592.23L507.007 587.681C504.519 581.88 502.428 575.905 500.239 569.986L511.587 566.033Z"/>
	<path fill="#FEFEFE" d="M564.947 616.484C565.894 616.464 566.885 616.431 567.808 616.67C569.966 617.226 571.649 618.866 572.629 620.821C573.624 622.806 574.341 626.202 573.348 628.321C572.809 629.47 572.553 629.617 571.456 630.052C569.265 629.457 567.802 627.172 565.771 626.107C565.469 625.949 565.162 625.801 564.857 625.648C560.043 625.449 555.231 625.074 550.423 624.759C554.9 620.857 559.417 618.568 564.947 616.484Z"/>
	<path fill="#14BCAB" d="M653.503 440.209C664.201 439.614 698.688 439.574 707.601 444.148L707.569 444.695C705.424 445.255 703.601 445.163 701.414 445.034C683.425 442.055 664.452 442.912 646.341 444.152C646.937 443.274 647.554 442.265 648.295 441.506C649.622 440.146 651.729 440.297 653.503 440.209Z"/>
	<path fill="#FED560" d="M562.276 569.233L570.494 572.329C560.65 582.829 550.106 592.623 540.25 603.125C538.67 604.834 536.974 606.454 535.334 608.106C542.115 593.865 552.959 581.849 562.276 569.233Z"/>
	<path fill="#FED560" d="M488.493 574.035C494.145 580.109 498.319 594.002 501.257 601.883C498.764 599.421 496.179 597.077 493.575 594.735C487.594 589.445 480.953 584.805 474.541 580.05L488.493 574.035Z"/>
	<path fill="#FEFEFE" d="M579.35 627.796C585.69 628.931 593.332 631.092 597.614 636.336C598.501 637.423 598.557 637.94 598.388 639.291C596.18 641.403 592.751 641.112 589.874 641.261C582.309 640.839 575.537 639.032 568.406 636.53C573.159 634.229 576.715 632.622 579.35 627.796Z"/>
	<path fill="#14BCAB" d="M570.488 332.775C580.087 335.567 586.986 353.96 593.186 361.599L590.452 368.621C589.959 369.67 589.855 369.931 588.927 370.599C585.382 370.336 582.604 367.328 579.996 365.154C578.474 350.436 577.695 345.67 570.488 332.775Z"/>
	<path fill="#14BCAB" d="M596.252 365.304C601.414 369.594 605.934 382.673 609.988 388.935C614.903 396.525 620.882 403.389 626.05 410.805C629.173 415.288 631.664 420.04 634.56 424.641C637.461 429.252 641.085 433.532 644.633 437.655C644.003 439.025 642.598 439.66 641.369 440.435C638.08 438.881 634.899 431.798 633.061 428.671C621.434 408.887 609.65 389.942 592.773 374.174C593.872 371.196 595.078 368.254 596.252 365.304Z"/>
	<path fill="#FED560" d="M739.881 782.443C740.027 782.528 740.189 782.589 740.319 782.697C742.439 784.464 743.294 807.406 743.57 811.656C739.501 808.277 735.317 805.082 731.095 801.899C726.713 798.941 722.467 795.92 718.45 792.476C725.764 789.523 732.913 786.132 739.881 782.443Z"/>
	<path fill="#FEFEFE" d="M533.878 648.206C534.04 648.235 534.203 648.262 534.365 648.294C542.936 649.958 548.627 659.996 553.116 666.772C552.033 670.464 550.497 673.809 548.696 677.196C545.596 679.467 542.275 680.642 538.671 681.83C537.527 676.775 537.329 671.434 536.726 666.287C536.015 660.214 534.979 654.219 533.878 648.206Z"/>
	<path fill="#FED560" d="M458.311 885.73C466.154 887.848 477.763 893.758 484.44 898.27C484.596 906.738 485.895 915.292 486.525 923.755C481.916 921.104 462.307 892.441 458.311 885.73Z"/>
	<path fill="#FED560" d="M712.856 794.979C723.244 801.229 732.094 809.26 741.663 816.635C739.721 817.643 737.614 818.379 735.583 819.193L730.373 817.164C719.38 812.899 708.724 807.943 698.175 802.686C703.153 800.245 708.023 797.696 712.856 794.979Z"/>
	<path fill="#E12726" d="M449.902 338.804C468.35 335.389 486.498 333.725 505.187 332.321C513.062 331.73 521.112 330.504 528.989 331.452C522.47 332.493 515.947 333.015 509.494 334.516C506.728 335.159 500.566 336.314 499.044 338.774C497.106 339.357 495.036 339.785 493.379 340.983C488.808 341.568 464.04 345.211 461.089 343.012C460.468 342.549 460.606 341.506 460.522 340.789L459.665 340.327C456.133 340.498 454.274 342.071 451.539 344.101L449.902 338.804Z"/>
	<path fill="#FED560" d="M576.114 573.973C583.918 576.345 591.45 579.428 598.779 582.993C587.213 587.787 575.204 591.408 563.623 596.182L546.625 602.624C556.098 592.815 566.258 583.408 576.114 573.973Z"/>
	<path fill="#14BCAB" d="M568.087 274.389C570.533 287.589 577.033 312.891 569.144 324.511C568.155 325.969 566.915 326.38 565.306 326.937C563.851 318.437 561.041 310.152 559.726 301.659C558.052 290.849 561.901 282.879 568.087 274.389Z"/>
	<path fill="#FED560" d="M470.029 582.485C476.712 585.936 492.154 600.027 498.067 605.65C491.125 605.015 484.843 603.197 478.181 601.261C472.946 599.859 467.508 599.249 462.216 598.078C456.515 596.816 451.156 594.751 445.784 592.501C453.938 589.307 462.034 586.068 470.029 582.485Z"/>
	<path fill="#AFAEAF" d="M551.675 296.108L546.989 326.288C536.077 326.532 525.185 327.16 514.284 327.444C520.726 321.801 527.817 316.852 534.307 311.24C540.039 306.284 545.153 300.002 551.675 296.108Z"/>
	<path fill="#FED560" d="M310.578 795.766C317.264 799.351 323.578 803.893 330.09 807.816C337.336 812.181 344.884 816.024 352.336 820.023C342.714 824.281 332.164 827.021 322.121 830.198L317.798 826.776C316.841 825.966 316.237 825.808 316.047 824.513C317.964 822.067 329.215 820.364 334.446 816.737C335.557 815.966 336.675 815.151 336.907 813.78C336.483 813.45 336.453 813.378 335.858 813.192C330.965 811.659 318.83 817.592 314.202 819.517C313.832 817.015 313.529 814.502 313.201 811.994C313.445 811.927 313.691 811.864 313.934 811.794C316.242 811.134 318.742 810.209 319.848 807.919C320.254 807.078 320.044 807.054 319.755 806.263C319.553 806.175 319.356 806.071 319.147 805.998C316.91 805.22 314.418 806.822 312.413 807.738L310.578 795.766Z"/>
	<path fill="#E12726" d="M385.324 209.183C391.979 208.41 399.779 208.66 405.994 211.395C415.899 215.755 419.698 225.185 423.265 234.582C418.93 230.274 414.943 226.324 409.662 223.185C395.39 215.832 378.922 220.695 363.938 222.719C364.78 220.803 365.597 218.8 366.892 217.139C371.505 211.218 378.372 210.101 385.324 209.183Z"/>
	<path fill="#A157DB" d="M348.282 242.909C350.255 244.643 351.252 252.415 352.104 255.343C342.548 263.331 332.044 273.256 328.045 285.451C326.718 289.497 326.572 294.156 324.665 297.959C324.602 298.084 324.533 298.206 324.468 298.33C320.676 292.22 319.432 283.996 320.7 276.983C323.489 261.565 336.185 251.375 348.282 242.909Z"/>
	<path fill="#14BCAB" d="M611.649 234.317C612.844 235.849 613.439 237.323 613.747 239.249C617.128 260.424 591.487 295.581 579.534 312.731L579.084 313.196L578.245 312.991C578.291 310.375 578.732 308.073 579.559 305.592C582.462 296.871 586.925 288.303 590.564 279.845C597.108 264.636 603.037 248.484 611.649 234.317Z"/>
	<path fill="#FEFEFE" d="M488.305 629.68C494.05 630.973 498.895 634.377 504.57 635.672C510.589 637.045 517.85 636.065 523.481 638.709C524.516 639.196 525.407 639.59 525.821 640.693C522.363 645.341 510.398 646.942 505.073 647.84C496.791 649.194 488.191 650.509 479.788 649.709C476.609 649.407 472.696 648.629 470.649 645.913C469.781 644.762 469.384 643.528 469.611 642.072C470.612 635.656 478.727 634.932 483.546 632.751C485.272 631.97 486.794 630.808 488.305 629.68Z"/>
	<path fill="#FEFEFE" d="M383.371 835.63C392.169 839.841 400.177 845.2 408.328 850.519C410.137 861.712 411.368 872.985 412.567 884.257C405.889 881.318 395.639 874.443 388.732 870.48C386.555 858.981 384.033 847.332 383.371 835.63Z"/>
	<path fill="#14BCAB" d="M719.466 441.116C727.183 435.416 734.975 429.723 742.42 423.67C750.182 417.359 758.221 408.486 767.173 404.151C772.873 401.391 779.771 400.594 786.01 400.15C781.286 406.618 776.335 412.872 770.658 418.542C765.548 423.647 759.809 428.25 755.122 433.747C746.425 435.081 738.203 439.441 730.549 443.545C726.823 442.827 723.141 442.059 719.466 441.116Z"/>
	<path fill="#FEFEFE" d="M630.406 830.626C632.606 833.325 633.607 855.826 634.057 860.813C625.917 864.477 611.95 871.951 603.472 872.796C601.275 864.368 599.738 855.811 598.203 847.243C609.016 841.854 619.706 836.234 630.406 830.626Z"/>
	<path fill="#FED560" d="M544.107 554.549L545.092 554.925C545.267 555.356 545.333 555.434 545.354 555.969C545.442 558.201 544.134 561.765 543.622 564.085C540.637 577.604 536.985 593.653 525.97 603.01C522.512 602.856 518.978 602.466 515.587 603.315L514.439 603.198C511.688 597.362 516.26 571.969 517.336 564.252C526.273 560.908 534.886 557.126 544.107 554.549Z"/>
	<path fill="#FED560" d="M355.637 823.012C362.84 825.023 369.519 830.305 376.206 833.676C377.11 844.608 379.506 855.595 381.988 866.263C376.297 862.619 370.555 859.092 364.748 855.636C352.312 848.017 339.471 841.056 327.043 833.418C337.033 830.975 346.363 827.389 355.637 823.012Z"/>
	<path d="M826.942 356.752C831.068 367.131 831.381 381.505 831.043 392.618C829.902 391.969 829.021 391.845 828.738 390.478C828.687 390.231 828.662 389.979 828.624 389.73C828.311 391.793 828.366 393.792 826.587 395.154C827.922 383.604 827.362 373.722 824.892 362.349C825.492 362.796 826.09 363.234 826.709 363.656L827.056 363.043C826.732 360.879 826.776 358.929 826.942 356.752Z"/>
	<path fill="#14BCAB" d="M660.789 258.626C673.253 257.642 685.578 261.021 696.532 266.783C714.852 276.42 729.786 292.891 735.833 312.838C736.801 316.03 739.566 324.502 737.671 327.463C737.237 328.141 736.826 327.996 736.101 328.117L735.882 327.202L735.852 327.617C733.584 321.479 731.482 315.26 728.401 309.473C719.871 297.076 710.526 287.104 697.486 279.368C677.475 267.498 656.198 266.371 634.053 272.08C641.801 264.958 650.481 260.559 660.789 258.626Z"/>
	<path d="M162.377 349.259C162.763 350.063 163.163 350.705 163.713 351.407C164.946 349.408 164.649 348.43 166.62 346.802C165.82 350.521 165.228 354.518 163.965 358.097L162.897 356.691C162.907 355.647 162.89 354.776 162.629 353.761L160.581 354.671L160.208 354.197L160.474 352.118L161.112 352.837C162.045 351.991 162.091 350.478 162.377 349.259Z"/>
	<path fill="#A157DB" d="M291.283 290.208C300.601 289.813 308.587 292.133 317.176 295.493C318.326 297.373 319.32 299.375 320.37 301.314C316.921 300.541 313.396 299.839 309.872 299.545C281.793 297.207 248.889 309.472 227.612 327.553C224.416 330.598 221.563 333.775 219.714 337.842C218.601 340.293 218.336 343.782 216.518 345.754L215.699 345.572C215.105 344.478 214.736 343.519 214.606 342.268C213.78 334.318 219.097 324.615 224.123 318.722C240.065 300.029 267.666 291.995 291.283 290.208Z"/>
	<path fill="#FEFEFE" d="M549.348 652.416C568.057 654.136 600.061 667.29 613.729 679.494L601.878 684.271L579.302 693.695C573.646 686.888 567.24 682.124 560.083 677.009C560.754 676.426 561.419 675.849 562.001 675.175C563.518 673.419 564.126 671.32 563.835 669.016C562.951 662.016 554.545 656.443 549.348 652.416Z"/>
	<path fill="#14BCAB" d="M596.46 224.494C601.465 224.342 607.024 222.749 611.064 226.531C611.575 227.01 611.397 226.734 611.523 227.524C608.505 227.616 604.071 225.38 601.675 227.445C601.782 228.659 601.879 229.213 602.781 230.162C604.053 231.5 606.612 232.361 608.291 233.12C597.017 257.329 585.798 281.385 576.733 306.534C575.877 299.032 573.212 273.289 570.477 267.396C578.749 252.678 586.907 238.432 596.46 224.494Z"/>
	<path fill="#FEFEFE" d="M437.402 597.056C454.799 603.114 478.493 613.488 493.856 623.373C483.676 623.183 475.419 626.046 467.791 632.807C464.848 632.491 418.593 610.785 411.087 607.492C419.913 604.145 428.524 600.283 437.402 597.056Z"/>
	<path fill="#A157DB" d="M331.454 289.74C338.105 293.824 345.486 299.576 352.891 301.898C357.615 308.539 362.146 313.946 368.754 318.794C363.926 331.101 358.079 344 350.08 354.576L328.462 307.165C329.825 301.474 330.25 295.499 331.454 289.74Z"/>
	<path fill="#E12726" d="M491.269 198.215C507.751 197.084 526.583 201.215 540.267 210.676C553.458 219.795 558.131 229.408 560.965 244.793C559.272 242.001 557.545 239.254 555.585 236.639C543.897 221.049 525.729 214.831 507.025 212.24C490.463 209.513 471.776 210.316 455.504 214.065C442.812 216.99 433.762 221.208 426.676 232.499C426.463 229.934 426.107 227.373 425.802 224.817C426.929 223.19 428.119 221.596 429.445 220.124C443.522 204.493 471.101 199.06 491.269 198.215Z"/>
	<path fill="#FED560" d="M415.344 855.471C431.774 862.721 447.186 872.471 463.307 880.379C467.621 882.495 479.86 885.992 481.781 889.459L481.487 890.31C477.193 891.572 462.805 883.516 457.96 881.462C455.834 880.561 452.091 878.684 449.879 879.568L449.582 880.73C451.151 888.125 458.734 896.254 463.166 902.202C469.35 910.945 476.277 919.226 482.912 927.631C461.932 913.648 440.957 899.901 419.135 887.26C417.454 876.833 416.201 866.001 415.344 855.471Z"/>
	<path fill="#FEFEFE" d="M603.52 587.494C613.776 586.251 627.571 594.159 636.658 598.268C618.04 605.851 597.674 616.01 578.265 620.499C575.913 616.707 574.023 613.995 570.203 611.476C560.338 611.244 552.405 616.835 544.136 621.491C542.052 620.352 540.219 619.003 538.33 617.578C539.55 615.999 540.636 614.562 541.472 612.744C541.272 611.784 541.149 611.033 541.247 610.053C544.854 607.625 554.784 605.388 559.406 603.754C574.174 598.533 588.83 592.931 603.52 587.494Z"/>
	<path fill="#D377D4" d="M347.901 360.586C350.419 365.988 366.254 397.72 365.358 400.761C365.31 400.924 365.165 401.04 365.068 401.18C348.839 407.29 332.071 411.943 315.876 418.222C305.258 422.339 295.338 428.053 284.705 432.032C283.635 430.755 282.562 429.509 281.645 428.116C280.05 426.057 278.187 424.106 276.477 422.133C279.336 419.253 288.109 415.893 292.097 413.409C299.404 408.858 306.438 403.609 312.998 398.044C320.568 391.623 328.057 384.447 334.397 376.811C338.754 371.564 342.321 365.601 347.422 361.008C347.58 360.865 347.741 360.726 347.901 360.586ZM281.645 428.116C282.562 429.509 283.635 430.755 284.705 432.032C295.338 428.053 305.258 422.339 315.876 418.222C332.071 411.943 348.839 407.29 365.068 401.18C352.416 395.857 340.477 393.682 327.482 398.962C310.256 405.962 297.929 419.817 281.645 428.116Z"/>
	<path fill="#FED560" d="M693.463 805.43C699.29 807.372 704.685 810.93 710.178 813.677C716.557 816.866 723.156 819.618 729.732 822.371C708.034 830.664 686.592 839.691 665.094 848.489L639.998 858.81C638.927 849.681 638.192 840.52 637.416 831.362C656.441 826.969 676.247 814.669 693.463 805.43Z"/>
	<path fill="#D377D4" d="M368.754 318.794C380.722 325.628 392.749 330.257 405.94 334.112C399.075 346.774 392.25 359.468 385.956 372.426C382.162 380.24 379.064 389.666 374.108 396.8C373.527 397.636 373.113 397.875 372.202 398.267L370.538 398.167C366.178 393.236 353.804 362.784 350.08 354.576C358.079 344 363.926 331.101 368.754 318.794Z"/>
	<path fill="#FEFEFE" d="M465.349 649.491C468.854 651.662 472.291 653.739 476.306 654.82C488.435 658.088 503.507 653.481 515.607 651.164C509.056 654.321 502.033 656.76 495.257 659.412C482.789 664.292 470.294 669.121 457.903 674.194C443.221 680.205 429.14 687.86 414.634 694.334C408.118 697.667 401.136 700.306 394.322 702.961C386.097 698.996 378.008 694.761 370.199 690.023C380.755 684.65 392.104 680.446 403.033 675.877C423.843 667.178 444.725 658.624 465.349 649.491Z"/>
	<path fill="#A157DB" d="M201.956 353.322C207.525 355.324 214.175 356.756 218.966 360.329C226.859 366.216 235.457 379.073 241.753 386.903C253.53 401.549 265.342 416.625 278.046 430.457C275.708 431.498 273.375 432.538 271.08 433.672C249.582 424.682 228.428 412.17 206.819 402.795C202.721 384.881 201.059 371.699 201.956 353.322Z"/>
	<path fill="#14BCAB" d="M624.353 221.102C628.342 220.523 632.598 220.928 636.623 221.041C641.425 235.293 638.047 246.313 633.38 260.066C632.347 255.946 632 251.616 630.788 247.546C630.162 245.447 629.589 243.607 627.613 242.492L626.373 242.946C625.679 243.832 624.842 244.46 625.027 245.683C625.476 248.643 626.983 251.809 627.728 254.753C628.958 259.615 628.458 265.449 628.395 270.458C627.231 266.352 625.769 261.623 623.385 258.05C622.429 256.617 622.425 256.541 620.726 256.241C618.743 260.443 623.396 270.16 624.651 274.663C625.735 275.957 627.331 276.324 628.868 276.88C622.431 294.156 614.793 311.025 607.501 327.955C604.022 336.568 600.452 345.196 596.533 353.618C589.393 343.445 583.559 333.471 579.502 321.64C591.716 303.469 605.354 284.906 613.247 264.353C618.898 249.639 620.388 237.74 613.866 223.178C617.379 222.616 620.868 221.821 624.353 221.102Z"/>
	<path fill="#E12726" d="M353.147 260.283C359.928 268.169 368.112 274.341 375.432 281.663C394.141 300.378 412.673 319.153 430.755 338.476C425.608 337.708 420.495 336.572 415.391 335.561L410.95 334.916L409.388 334.191C408.083 333.97 407.179 333.567 405.94 334.112C392.749 330.257 380.722 325.628 368.754 318.794C362.146 313.946 357.615 308.539 352.891 301.898C345.486 299.576 338.105 293.824 331.454 289.74C335.085 279.287 341.507 271.139 349.38 263.518L353.147 260.283Z"/>
	<path fill="#BD3AA5" d="M349.38 263.518C350.48 267.649 350.11 272.559 350.076 276.843C350.007 285.658 350.276 293.406 352.891 301.898C345.486 299.576 338.105 293.824 331.454 289.74C335.085 279.287 341.507 271.139 349.38 263.518Z"/>
	<path fill="#FED560" d="M593.411 849.486C593.93 849.971 598.479 872.894 599.474 875.991C582.139 884.679 564.796 893.37 547.32 901.774C531.025 909.611 514.595 917.159 498.489 925.383C505.888 912.672 513.947 900.31 521.518 887.691C521.744 886.82 521.661 886.647 521.421 885.812C520.244 884.922 519.985 884.742 518.537 884.536C518.133 884.693 517.655 884.725 517.325 885.006C515.85 886.262 513.902 890.679 512.761 892.47C506.623 902.101 500.238 911.288 494.557 921.227C493.97 912.487 493.453 903.739 492.437 895.036C503.977 890.155 514.857 883.768 526.393 878.849L569.21 860.636C577.319 857.119 585.685 853.787 593.411 849.486Z"/>
	<path fill="#FEFEFE" d="M367.319 694.207C375.582 698.337 383.502 703.07 391.48 707.716C392.076 721.352 394.216 734.748 395.751 748.289C397.837 766.7 399.585 785.179 401.998 803.55C403.345 813.802 407.98 833.288 406.852 842.55C398.903 837.645 390.736 833.055 382.666 828.349C378.829 810.599 376.935 790.077 374.485 771.895C371.031 746.264 365.314 720.151 367.319 694.207Z"/>
	<path fill="#A157DB" d="M260.038 213.28C284.692 205.623 310.522 201.836 336.298 205.009C343.573 205.905 350.849 207.564 358.044 208.976C356.547 213.116 354.997 217.245 353.685 221.448C343.426 222.129 333.127 222.642 322.958 224.226C292.166 229.023 262.454 242.519 236.385 259.269C227.319 265.094 219.178 272.777 209.97 278.187C215.587 257.004 226.69 238.695 243.783 224.972C248.837 220.914 254.486 217.668 259.571 213.654L260.038 213.28Z"/>
	<path fill="#E12726" d="M388.77 223.703C389.746 223.509 390.842 223.53 391.843 223.49C406.083 222.926 414.105 231.932 423.711 240.835C429.838 272.593 437.506 304.086 444.093 335.761C441.635 336.229 439.197 336.888 436.762 337.469C427.141 328.198 417.959 318.467 408.813 308.729L380.557 280.275C375.736 275.326 370.356 270.238 366.317 264.632L366.836 264.34L367.697 263.844C369.164 263.011 371.323 262.03 372.182 260.481C374.035 257.137 371.101 255.081 370.304 252.01C370.021 250.923 370.128 250.702 370.631 249.778C371.828 249.114 372.779 248.591 374.18 248.602C380.104 248.647 383.916 257.483 387.539 261.146C387.976 261.588 388.979 262.398 389.618 262.381C390.122 261.833 390.4 261.748 390.457 260.955C390.668 258.061 389.362 254.633 388.133 252.028C384.485 244.296 378.934 239.548 371.5 235.651C368.984 234.332 366.202 233.053 364.241 230.96C364.4 230.464 364.504 230.036 364.81 229.589C367.775 225.248 383.564 224.257 388.77 223.703Z"/>
	<path fill="#14BCAB" d="M641.643 221.397C647.948 222.364 654.302 223.309 660.518 224.756C697.326 233.327 729.221 258.057 758.33 281.045C772.505 292.239 786.869 303.718 798.921 317.249C805.317 324.431 810.317 332.365 815.343 340.517C813.055 345.328 810.832 350.158 808.665 355.025C801.063 340.18 789.194 325.76 773.047 320.075C761.591 316.04 752.667 319.127 742.245 324.187C741.069 312.268 737.196 301.054 730.561 291.065C718.995 273.653 699.155 259.018 678.455 254.98C663.057 251.976 649.927 255.571 637.124 264.117C642.75 248.589 644.885 237.827 641.643 221.397Z"/>
	<path fill="#FEFEFE" d="M617.468 684.009C618.643 685.152 618.742 687.622 618.964 689.224C620.98 703.761 621.635 718.524 622.811 733.145C625.231 763.244 627.363 793.517 630.627 823.531C624.745 826.311 602.006 839.158 597.192 838.821C595.666 825.47 593.891 812.095 592.686 798.715C590.963 779.575 589.864 760.367 587.847 741.254C586.356 727.131 584.097 713.088 582.323 698.999C593.581 693.03 605.632 688.681 617.468 684.009Z"/>
	<path fill="#E12726" d="M360.767 216.686C367.518 196.429 378.968 178.324 394.875 164.028C424.427 137.468 468.659 126.622 507.641 125.871C517.469 125.681 527.051 126.782 536.834 127.282C546.628 138.576 554.23 150.827 560.452 164.395C535.944 158.657 497.272 157.102 472.181 160.16C427.326 165.627 389.408 180.083 360.767 216.686Z"/>
	<path fill="#FED560" d="M642.556 601.486C655.646 601.655 710.627 626.665 725.168 633.306C692.618 645.25 661.231 660.229 629.128 673.309C626.587 674.314 623.985 675.103 621.379 675.917C611.369 668.679 600.154 662.579 588.718 657.878C582.676 655.394 576.461 653.469 570.467 650.838C573.902 651.17 576.908 652.424 580.2 653.339C584.264 654.467 590.709 655.532 594.433 652.928C596.356 651.584 596.639 650.259 597.182 648.075C597.843 645.415 605.086 646.171 607.174 642.877C608.145 641.345 608.307 640.079 607.823 638.338C605.951 631.601 594.954 625.906 589.256 623.001C607.49 616.886 624.542 608.118 642.556 601.486Z"/>
	<path fill="#A157DB" d="M207.885 285.585C215.598 279.327 223.33 273.05 231.548 267.459C260.805 247.553 296.982 230.854 332.452 227.001C338.998 226.29 345.555 226.323 352.13 226.342C351.508 229.991 350.794 233.649 350.3 237.316C335.877 245.106 321.781 256.81 317.032 273.155C315.333 279.003 315.295 284.672 316.205 290.654C292.424 282.232 268.877 286.856 246.539 297.431C232.457 304.097 218.479 314.234 213.134 329.51C211.675 333.68 211.138 337.781 210.76 342.164C208.229 340.118 205.03 337.179 201.649 336.937C200.913 318.879 203.508 302.984 207.885 285.585Z"/>
	<path fill="#FED560" d="M501.397 663.063C501.798 663.559 501.844 663.426 501.369 664.278C498.634 669.195 489.142 674.177 489.377 680.732C489.425 682.056 490.025 682.997 491.045 683.785C496.749 688.196 508.777 684.903 515.3 683.745C516.792 684.787 518.311 685.76 520.039 686.366C531.987 690.559 543.568 687.111 554.566 682.073C561.568 685.879 568.229 690.613 574.115 695.975C546.15 710.134 516.504 720.504 488.281 734.07L470.553 743.208C462.24 738.983 454.237 734.052 446.081 729.521C431.555 721.45 416.96 713.653 402.081 706.251C419.801 698.806 437.034 690.396 454.578 682.577C470.011 675.698 485.754 669.448 501.397 663.063Z"/>
	<path fill="#14BCAB" d="M651.659 208.824C673.948 205.141 699.694 206.997 721.313 213.361C764.284 226.009 806.556 265.683 827.82 304.577C824.766 315.154 821.84 325.808 817.952 336.117C816.552 333.969 815.135 331.831 813.678 329.721C808.893 322.791 803.959 315.91 798.178 309.767C773.991 284.06 722.337 244.923 690.096 230.449C674.11 223.272 657.854 219.188 640.672 216.052L635.908 209.991C636.476 209.918 637.042 209.858 637.611 209.792C642.398 209.239 643.667 210.419 647.547 212.69C648.734 213.385 648.703 213.52 650 213.183C651.158 211.841 651.324 210.53 651.659 208.824Z"/>
	<path fill="#E12726" d="M374.632 207.087C380.569 201.684 386.683 196.61 393.28 192.031C430.632 166.104 481.571 160.21 525.892 164.348C538.719 165.546 551.242 168.102 563.904 170.359C568.529 185.61 572.094 200.193 573.847 216.052C568.986 219.374 565.363 224.226 562.387 229.23C558.81 221.747 553.906 215.332 547.428 210.116C528.048 194.509 501.681 191.763 477.749 194.468C458.244 196.672 435.301 204.281 422.693 220.168C419.701 216.292 416.586 212.665 412.48 209.93C400.798 202.151 387.518 204.506 374.632 207.087Z"/>
	<path fill="#FED560" d="M402.242 610.468C408.467 612.298 414.622 616.21 420.6 618.847C435.042 625.219 449.548 631.337 464.277 637.016C463.206 639.649 462.397 642.3 461.601 645.026L389.985 674.868C382.033 678.217 374.37 682.371 366.401 685.578C364.609 686.299 364.015 686.244 362.248 685.468C340.766 673.563 319.16 661.712 297.044 651.022C331.859 636.973 367.696 625.156 402.242 610.468Z"/>
	<path d="M558.092 501.723L559.413 503.646C560.17 503.328 560.8 502.979 561.482 502.523C559.036 514.635 556.292 526.705 553.551 538.753C552.023 545.469 550.857 552.778 548.442 559.223C548.13 556.27 548.489 553.368 548.051 550.399L546.936 549.938C547.42 545.573 549.243 540.743 550.223 536.401C552.835 524.838 555.214 513.225 558.092 501.723Z"/>
	<path fill="#FED560" d="M293.618 656.311C301.489 661.031 309.922 664.979 318.08 669.186L361.229 691.314C358.44 711.69 362.014 732.102 364.666 752.295C367.784 776.027 371.483 799.662 375.102 823.32C374.303 823.415 373.942 823.344 373.195 822.972C366.902 819.837 360.888 815.481 354.741 811.975C339.885 803.502 324.864 795.314 309.761 787.292C307.105 775.65 306.545 760.732 304.841 748.528C300.538 717.729 295.444 687.422 293.618 656.311Z"/>
	<path d="M312.928 676.535C316.596 676.06 321.084 677.273 324.511 678.63C337.752 683.872 348.032 695.901 353.542 708.781C357.385 717.765 359.819 730.778 355.914 740.094C353.638 745.523 349.96 748.231 344.686 750.301C339.738 751.005 334.825 750.196 330.274 748.167C318.038 742.714 308.932 730.161 304.297 717.941C300.773 708.65 297.789 694.613 302.295 685.227C304.625 680.374 308.029 678.166 312.928 676.535Z"/>
	<path fill="#FED560" d="M315.233 683.431C317.176 683.453 318.888 683.738 320.758 684.277C331.671 687.422 340.581 697.126 345.707 706.895C349.697 714.498 353.121 725.314 350.246 733.805C348.746 738.235 346.078 740.877 341.93 742.863C339.792 743.016 337.687 743.076 335.591 742.549C325.74 740.072 317.264 731.027 312.293 722.537C307.588 714.501 304.144 702.929 306.755 693.676C308.187 688.599 310.842 685.969 315.233 683.431Z"/>
	<path d="M307.172 700.708C308.47 700.787 309.833 700.928 310.954 701.663C313.306 703.204 313.718 705.451 314.222 708.033C313.225 707.632 312.206 707.235 311.255 706.732C308.662 705.363 307.894 703.414 307.172 700.708Z"/>
	<path d="M318.556 686.317L320.839 688.367C322.356 688.653 324.246 688.947 325.585 689.751C326.495 690.297 327.311 691.155 327.411 692.257C327.486 693.091 327.444 693.814 326.879 694.414C325.67 694.551 325.068 694.228 324.012 693.703C323.103 693.253 322.876 693.011 321.847 693.068C322.893 696.242 326.05 698.316 328.552 700.347C328.214 697.938 327.748 695.852 328.696 693.522L329.485 693.21C329.629 693.339 329.786 693.454 329.917 693.597C331.67 695.513 331.516 698.315 331.595 700.744C334.269 704.304 337.241 706.927 340.83 709.538C339.352 706.512 334.252 700.538 334.875 697.393L335.888 697.497C338.229 698.954 339.902 700.665 341.486 702.923C342.799 704.794 344.899 707.728 344.505 709.99L343.719 710.464C342.506 710.288 341.393 710.173 340.162 710.174C339.799 711.706 341.549 714.848 342.209 716.432C342.615 715.606 342.884 714.881 343.631 714.298C344.178 713.872 344.512 714.072 345.155 714.133C346.255 714.863 346.914 715.572 347.554 716.713C348.252 717.958 348.721 719.248 348.37 720.629L347.241 720.703C345.47 719.898 344.266 718.897 342.854 717.562L342.344 717.072C341.626 718.229 341.154 719.433 341.352 720.814C341.743 723.549 346.165 724.01 347.926 725.801C348.707 726.595 349.115 727.956 348.918 729.053C348.703 730.252 348.274 730.449 347.312 730.951C345.077 730.755 341.927 727.698 340.029 726.317C341.581 728.793 343.121 730.855 345.16 732.958C345.22 733.032 345.285 733.102 345.34 733.18C346.149 734.336 346.933 735.192 346.357 736.675C345.935 737.764 345.481 738.086 344.446 738.458C342.969 737.81 342.431 736.578 341.492 735.311C340.491 733.961 339.751 732.934 338.031 732.687L337.121 733.555C337.187 735.217 338.094 735.999 338.836 737.447C339.393 738.533 339.521 738.383 339.121 739.618L337.694 740.258C334.316 739.381 335.982 734 333.147 731.756C332.268 731.061 332.691 731.169 331.734 731.287C331.039 733.145 331.881 736.141 332.052 738.162C329.414 736.129 330.067 733.39 328.797 730.737C327.882 728.823 325.519 728.244 323.68 727.714L323.032 727.532C323.617 729.83 324.375 732.053 324.018 734.44L323.3 734.427C321.429 731.762 320.851 729.672 320.429 726.454C317.77 724.862 315.707 723.152 313.572 720.937C314.748 719.525 316.044 718.202 317.293 716.854C315.939 716.038 314.514 715.476 313.095 714.797C311.508 714.038 310.519 713.485 309.912 711.731C310.128 710.449 309.858 710.464 310.973 709.637C312.675 709.845 314.162 711.24 315.518 712.241C315.21 708.714 316.009 702.658 313.83 699.771C313.673 699.562 313.499 699.365 313.334 699.162C313.559 697.952 315.492 697.403 316.471 696.504L316.321 695.741C313.919 694.619 311.328 697.048 308.785 695.428C308.517 694.256 308.488 693.943 309.049 692.79C310.096 690.638 312.664 688.471 314.89 687.681C315.858 688.546 315.64 689.661 315.764 690.919C316.85 690.153 317.876 687.544 318.556 686.317Z"/>
	<path fill="#FED560" d="M320.43 699.833C325.897 704.906 332.55 707.258 337.416 713.254C337.744 717.28 338.329 722.454 335.793 725.849C334.357 726.54 334.279 726.414 332.703 726.05C331.312 725.279 330.459 724.81 329.658 723.363C328.949 722.082 328.537 721.786 327.219 721.113C325.551 721.388 325.58 723.228 323.995 724.083L323.205 723.646C320.378 717.967 319.704 710.341 318.538 704.134L320.43 699.833Z"/>
	<path d="M323.456 706.42C324.156 706.737 324.841 707.044 325.497 707.446C329.742 710.043 331.573 713.242 332.629 718.009C330.566 717.872 328.876 717.464 327.245 716.121C324.294 713.693 323.686 710.017 323.456 706.42Z"/>
	<path fill="#14BCAB" d="M743.652 330.202C745.167 329.046 746.717 327.993 748.353 327.018C755.029 323.042 761.846 321.779 769.49 323.81C788.728 328.924 797.083 345.104 806.134 361.005C803.36 366.945 800.582 372.882 797.917 378.872C797.446 378.743 797.283 378.681 796.831 378.61C791.667 377.797 785.059 379.961 780.759 382.79C774.07 387.191 769.776 395.013 763.774 400.364C747.905 414.509 730.829 427.441 713.628 439.92C693.405 436.694 673.693 435.504 653.216 435.491C666.54 418.903 681.076 403.095 694.704 386.712C708.761 369.815 721.953 352.151 737.153 336.248C737.877 336.056 738.601 335.87 739.333 335.713C755.153 332.325 773.543 343.027 784.92 353.037C787.849 355.613 790.23 359.916 793.539 361.805C794.7 362.468 795.239 362.457 796.492 362.118C796.91 361.575 797.495 361.117 797.493 360.393C797.489 358.556 795.867 356.778 794.696 355.504C781.664 341.338 762.926 331.134 743.652 330.202Z"/>
	<path fill="#FED560" d="M397.227 710.213C410.01 716.379 422.607 723.575 434.838 730.767C445.963 737.308 457.013 744.636 469.272 748.853C469.618 758.121 471.212 767.28 471.633 776.54C473.106 781.493 472.883 787.796 473.292 792.992C475.311 822.402 478.931 851.723 482.174 881.016L413.693 845.424C413.073 838.828 411.855 832.195 410.954 825.62L406.036 787.286C402.986 761.622 401.034 735.772 397.227 710.213Z"/>
	<path d="M471.025 794.934C470.634 797.284 470.163 799.653 469.194 801.842C467.05 806.689 463.26 810.631 458.25 812.495C452.502 814.633 446.096 813.582 440.705 810.926C427.669 804.501 418.052 790.212 413.562 776.765C410.761 768.376 409.409 759.068 413.648 750.884C416.355 745.657 421.051 741.886 426.725 740.33C433.481 738.477 440.726 740.348 446.719 743.676C459.042 750.518 465.718 763.772 469.444 776.817C470.686 782.928 471.01 788.706 471.025 794.934Z"/>
	<path fill="#FED560" d="M431.313 757.467C431.394 757.501 431.484 757.521 431.558 757.57C432.605 758.256 432.801 758.384 433.068 759.548C432.428 760.883 431.331 761.32 430.092 761.994C429.125 761.282 428.487 760.727 427.818 759.725C428.518 758.299 429.895 758.098 431.313 757.467Z"/>
	<path fill="#FED560" d="M423.808 752.149C426.336 751.781 428.682 751.678 430.877 753.198L430.412 754.062C429.003 754.415 427.199 754.805 425.749 754.569C424.497 754.365 424.248 754.182 423.56 753.236L423.808 752.149Z"/>
	<path fill="#FED560" d="M446.466 767.252C447.436 768.254 448.255 769.369 448.748 770.687C449.267 772.075 449.065 773.09 448.496 774.426C448.135 774.373 447.682 774.317 447.341 774.209C446.002 773.786 445.962 773.512 445.344 772.322C445.292 770.478 445.876 768.98 446.466 767.252Z"/>
	<path fill="#FED560" d="M458.424 794.933C458.645 795.192 458.91 795.418 459.087 795.709C459.76 796.818 459.582 798.139 459.42 799.34C458.676 800.377 458.732 800.387 457.496 800.67L455.888 799.53C455.021 799.747 454.686 799.778 453.835 799.713L453.941 798.832C455.298 797.253 456.724 796.127 458.424 794.933Z"/>
	<path fill="#FED560" d="M450.69 782.813C451.573 783.634 451.92 785.314 451.967 786.51C452.05 788.578 451.112 789.738 449.754 791.173C448.795 790.274 448.28 788.795 448.29 787.49C448.305 785.465 449.352 784.203 450.69 782.813Z"/>
	<path fill="#FED560" d="M441.397 778.798C442.502 779.477 443.242 780.723 443.604 781.958C444.192 783.964 443.599 785.101 442.673 786.793C442.273 786.687 441.747 786.567 441.388 786.371C440.193 785.721 440.008 785.188 439.53 784.005C439.66 781.965 440.451 780.583 441.397 778.798Z"/>
	<path fill="#FED560" d="M431.99 785.88C432.793 785.903 433.728 785.877 434.507 786.064C435.894 786.397 436.484 786.927 437.288 788.054C437.7 789.806 437.493 790.84 437.028 792.563C436.094 792.344 435.242 792.17 434.441 791.598C432.539 790.237 432.361 788.005 431.99 785.88Z"/>
	<path fill="#FED560" d="M420.748 755.421C421.633 755.978 421.233 755.635 421.976 756.533C423.432 758.294 425.172 759.763 426.601 761.564C428.133 763.495 427.625 764.823 427.384 767.15C426.233 767.083 425.982 767.074 425.022 766.457C423.813 764.003 421.234 757.875 420.748 755.421Z"/>
	<path fill="#FED560" d="M430.815 750.189C433.057 750.005 435.035 749.938 437.224 750.535C439.448 751.143 442.288 752.218 443.222 754.566C443.784 755.98 443.38 756.732 442.932 758.081C442.24 757.618 442.537 757.876 441.911 757.165C439.179 754.066 438.038 753.671 434.198 752.426C432.632 751.918 431.582 751.685 430.815 750.189Z"/>
	<path fill="#FED560" d="M440.154 791.858C440.77 792.403 441.288 793.565 441.709 794.283L442.88 792.358L443.701 792.302C444.374 792.803 444.601 792.778 444.831 793.639C445.492 796.114 444.562 798.501 443.399 800.64C442.194 799.579 441.526 798.148 440.748 796.762C439.586 797.142 438.881 797.497 437.666 797.122L437.092 796.038C437.587 794.413 439.033 793.109 440.154 791.858Z"/>
	<path fill="#FED560" d="M434.526 756.704C436.207 757.02 438.14 757.853 439.413 759.011C440.416 759.923 440.944 761.092 440.917 762.453C440.849 765.87 438.275 768.134 435.96 770.266C435.161 769.073 434.681 768.346 434.602 766.853C435.551 765.58 437.255 765.792 438.68 764.992C439.482 761.161 435.156 761.644 434.526 756.704Z"/>
	<path fill="#FED560" d="M441.196 770.303C443.093 771.162 443.737 773.79 444.477 775.606L444.601 775.698C445.469 776.326 446.388 776.95 447.165 777.689C448.157 778.631 448.558 779.628 448.607 780.984C447.903 782.305 447.744 782.457 446.457 783.225C445.911 782.566 445.564 781.996 445.234 781.203C444.138 778.58 443.904 777.884 441.286 776.605C440.36 776.153 439.618 775.859 438.855 775.14C438.273 774.591 438.423 774.232 438.364 773.49C439.026 772.035 440.001 771.295 441.196 770.303Z"/>
	<path fill="#FED560" d="M416.628 762.392C418.122 764.697 418.752 769.195 419.529 771.956C422.65 783.048 428.189 795.455 438.558 801.57C439.98 802.408 442.135 803.381 443.795 802.669C445.934 801.753 447.211 798.252 448.176 796.279C450.893 795.142 453.348 793.68 455.872 792.173C453.705 795.071 447.499 797.848 447.237 801.579C447.181 802.378 447.629 802.611 448.102 803.186C456.947 804.931 455.157 802.52 462.246 801.856L462.609 802.671C462.505 802.828 462.415 802.994 462.297 803.142C459.69 806.421 455.608 806.972 451.715 807.358C445.763 807.948 441.002 805.704 436.549 801.928C425.2 792.303 417.813 777.118 416.628 762.392Z"/>
	<path fill="#FED560" d="M436.645 745.94C440.347 745.919 444.023 748.139 446.836 750.374C456.304 757.892 464.698 773.465 465.686 785.512C465.84 787.389 465.676 788.715 464.373 790.169C462.785 789.469 462.54 784.889 461.112 783.328C460.431 783.811 459.755 784.396 458.931 784.605C458.439 784.729 457.946 784.852 457.465 785.014L456.673 785.286L456.038 784.745C456.182 784.371 456.486 783.641 456.532 783.258C456.757 781.396 452.74 777.813 451.423 776.396C452.83 776.142 454.106 775.83 455.466 775.39C456.326 774.306 456.657 773.659 456.594 772.232C456.545 771.088 456.264 769.788 455.431 768.971C454.265 769.079 453.042 770.739 451.992 771.436C451.1 770.579 451.091 770.494 450.859 769.272C451.377 768.502 451.8 767.848 452.177 766.995C451.164 766.833 450.201 766.687 449.221 766.375L449.412 765.491C450.468 764.73 451.212 764.207 451.94 763.101L451.438 762.045C449.584 761.058 448.215 761.467 446.179 761.636C444.658 761.054 444.313 760.462 443.437 759.169C444.097 758.65 445.171 757.855 445.545 757.062C446.043 756.008 446.04 755.283 445.703 754.197C444.707 750.982 439.572 747.365 436.645 745.94Z"/>
	<path fill="#A157DB" d="M221.922 355.962C221.235 351.15 220.96 345.999 222.558 341.34C226.646 329.417 241.048 322.069 251.613 316.872C273.263 306.223 299.791 298.957 323.45 306.98C331.654 324.825 340.106 342.556 347.901 360.586C347.741 360.726 347.58 360.865 347.422 361.008C342.321 365.601 338.754 371.564 334.397 376.811C328.057 384.447 320.568 391.623 312.998 398.044C306.438 403.609 299.404 408.858 292.097 413.409C288.109 415.893 279.336 419.253 276.477 422.133C257.774 400.581 239.857 378.161 221.922 355.962Z"/>
	<path d="M396.171 442.292C397.54 442.376 398.21 442.5 399.418 441.734L399.727 442.19C400.061 443.603 400.443 444.417 400.03 445.828L399.293 446.428C398.164 445.122 397.182 443.69 396.171 442.292Z"/>
	<path d="M323.073 466.101C330.683 470.777 338.081 476.573 345.18 482.002L343.825 482.397C343.368 483.436 343.463 484.227 343.53 485.343C336.272 480.524 329.312 475.002 322.278 469.846C323.358 469.433 322.885 469.501 324.079 469.517C324.398 469.521 324.725 469.598 325.036 469.527C324.325 468.632 323.703 467.861 323.289 466.776C323.205 466.555 323.145 466.326 323.073 466.101Z"/>
	<path d="M399.727 442.19C407.712 452.219 414.929 463.096 422.417 473.514C426.564 479.285 431.845 485.342 435.224 491.528L434.042 492.222C434.318 493.012 434.614 493.724 434.964 494.483C435.315 495.244 435.368 495.593 435.335 496.407C429.292 489.452 424.102 480.913 418.713 473.388C412.302 464.435 405.245 455.669 399.293 446.428L400.03 445.828C400.443 444.417 400.061 443.603 399.727 442.19Z"/>
	<path d="M343.53 485.343C343.463 484.227 343.368 483.436 343.825 482.397L345.18 482.002C360.583 493.299 376.01 504.552 391.2 516.135C390.954 517.327 391.046 518.432 389.842 519.055C389.565 519.198 389.26 519.277 388.969 519.388C373.755 508.228 358.29 497.09 343.53 485.343Z"/>
	<path d="M391.2 516.135C392.246 516.96 393.868 517.963 394.578 519.054C399.941 522.409 404.952 526.614 409.973 530.468L435.569 550.215C440.988 554.406 454.635 563.841 458.552 568.447L457.922 568.505C457.338 568.556 456.751 568.575 456.164 568.587C456.491 569.531 456.828 570.386 456.942 571.384C447.371 564.862 438.241 556.735 429.064 549.589C416.963 540.167 404.467 531.247 392.417 521.773C391.293 521.278 389.994 520.114 388.969 519.388C389.26 519.277 389.565 519.198 389.842 519.055C391.046 518.432 390.954 517.327 391.2 516.135ZM391.2 516.135C390.954 517.327 391.046 518.432 389.842 519.055C389.565 519.198 389.26 519.277 388.969 519.388C389.994 520.114 391.293 521.278 392.417 521.773C393.346 521.439 393.676 521.391 394.683 521.606C394.956 521.664 395.224 521.747 395.494 521.817L394.578 519.054C393.868 517.963 392.246 516.96 391.2 516.135Z"/>
	<defs>
		<linearGradient id="gradient_1" gradientUnits="userSpaceOnUse" x1="390.55188" y1="518.86188" x2="395.75641" y2="520.81763">
			<stop offset="0" stop-color="black" stop-opacity="0.96078432"/>
			<stop offset="1" stop-color="black"/>
		</linearGradient>
	</defs>
	<path fill="url(#gradient_1)" d="M391.2 516.135C392.246 516.96 393.868 517.963 394.578 519.054L395.494 521.817C395.224 521.747 394.956 521.664 394.683 521.606C393.676 521.391 393.346 521.439 392.417 521.773C391.293 521.278 389.994 520.114 388.969 519.388C389.26 519.277 389.565 519.198 389.842 519.055C391.046 518.432 390.954 517.327 391.2 516.135Z"/>
	<path fill="#E12726" d="M428.424 241.047C430.065 236.257 431.506 231.485 435.408 227.989C448.66 216.115 478.202 214.696 494.982 215.854C513.007 217.097 534.752 220.181 547.578 234.317C552.012 239.204 555.039 245.309 559.444 250.356L551.675 296.108C545.153 300.002 540.039 306.284 534.307 311.24C527.817 316.852 520.726 321.801 514.284 327.444C492.283 329.949 470.607 329.741 448.864 334.861C441.551 303.767 434.91 272.33 428.424 241.047Z"/>
	<path fill="#14BCAB" d="M651.322 273.184C667.283 271.842 682.617 276.085 696.345 284.224C715.699 295.698 726.882 312.777 732.372 334.253C709.119 360.982 686.772 388.658 664.022 415.831C658.897 421.931 653.647 427.928 648.431 433.95C638.258 420.487 629.807 406.257 620.856 391.997C613.815 380.779 606.286 369.815 598.966 358.774C606.126 343.014 613.008 327.128 619.64 311.139C624.375 299.725 628.769 288.183 633.986 276.975C639.718 275.15 645.359 273.968 651.322 273.184Z"/>
	<path fill="#FED560" d="M574.349 702.486L575.478 702.581C578.028 705.963 577.772 712.902 578.32 717.027C580.688 734.887 582.695 752.701 584.117 770.661C585.28 785.365 585.921 800.12 587.368 814.8C588.247 823.719 589.588 832.461 591.379 841.24C570.117 851.33 548.231 860.079 526.963 870.131C515.271 875.657 504.122 882.168 492.556 887.913C490.873 877.896 490.297 867.514 489.094 857.414C484.741 820.869 481.576 783.934 474.165 747.862C486.487 743.975 497.698 737.481 509.381 732.103L574.349 702.486Z"/>
	<path fill="#FED560" d="M727.658 638.428L728.328 638.706C732.219 645.267 736.774 757.364 737.552 774.808C714.38 784.922 691.436 795.768 668.508 806.43C659.177 810.769 647.419 817.368 638.019 820.525C636.953 820.883 637.032 820.866 636.036 820.368C633.397 774.235 629.519 727.966 624.201 682.062C634.569 676.828 645.741 672.722 656.49 668.286C680.299 658.459 704.209 649.119 727.658 638.428Z"/>
</svg>
