<?xml version="1.0" encoding="utf-8" ?><svg xmlns="http://www.w3.org/2000/svg" xmlns:xlink="http://www.w3.org/1999/xlink" width="1024" height="1024" viewBox="0 0 1024 1024"><path transform="scale(2 2)" d="M188.625 120.349C216.174 117.673 240.927 151.62 247.546 175.245C248.391 178.262 248.882 181.108 249.831 184.113C265.938 197.704 258.804 226.798 239.412 229.559C235.918 237.793 232.488 240.642 226.749 246.743C225.676 251.182 224.79 258.362 223.639 262.05C232.425 258.809 247.924 267.359 254.719 273.034C279.141 293.428 291.224 319.074 291.166 350.291L291.167 369.875C291.128 379.353 290.09 378.628 293.719 386.952C297.948 373.669 321.556 367.793 334.256 361.997C301.286 352.631 317.696 304.421 341.237 293.161C351.252 288.371 356.566 292.014 365.658 295.987C372.999 299.194 379.944 301.484 383.372 309.492C387.133 318.468 385.738 332.546 382.407 341.339C384.951 340.386 387.56 338.979 389.914 337.632C395.481 339.637 401.124 341.292 406.594 343.707C417.964 348.488 420.256 347.498 420.259 361.5L420.256 374.148C420.26 382.745 421.326 390.932 418.686 399.243C414.788 411.513 406.199 412.204 395.934 417.223L337.847 443.088C324.914 448.88 324.658 448.288 311.994 442.979C300.955 438.352 292.376 439.441 292.633 424.723C292.772 416.734 292.463 408.605 292.645 400.576C288.156 409.387 284.974 410.88 276.168 414.254C271.748 415.592 261.069 421.901 256.556 421.674C248.841 421.284 235.425 416.123 228.009 413.867L127.947 383.87C120.346 381.611 105.142 378.378 99.4947 373.118C93.1378 367.197 88.972 355.858 92.2209 347.312C92.9559 345.379 94.7411 342.714 94.7552 340.631C94.8732 323.256 92.5045 305.123 100.093 288.906C109.982 267.771 129.341 252.608 153.183 251.66C141.361 238.992 134.43 217.342 133.493 200.587C115.182 191.274 115.674 167.077 132.755 157.105C133.36 146.605 143.457 133.486 153.825 130.876C165.07 128.046 177.281 121.303 188.625 120.349ZM355.491 366.113C379.278 365.028 394.653 306.694 370.74 302.577C370.837 302.825 374.197 306.002 375.051 307.393C384.278 322.417 375.86 348.035 363.503 358.922C361.192 360.958 357.156 363.703 355.491 366.113ZM210.634 210.567C217.564 229.162 206.706 235.271 206.635 244.34C208.158 243.943 210.373 243.065 211.912 242.503C214.97 227.295 219.021 229.046 213.525 210.567C215.819 203.918 215.352 181.596 206.635 182.194C211.986 190.548 212.849 200.513 210.751 210.043L210.634 210.567ZM406.685 409.194C419.97 403.913 417.132 383.979 417.123 372.534C417.116 364.079 420.334 350.071 409.709 349.472C410.893 350.85 412.923 353.21 413.141 355.044C414.272 364.435 414.471 390.398 412.162 398.7C411.388 401.483 406.816 407.8 406.685 409.194ZM241.187 226.108C256.381 222.679 261.11 197.654 248.581 187.086C248.944 189.11 251.34 192.1 251.769 194.329C254.267 207.293 250.883 217.4 241.187 226.108Z"/><path fill="#5762EF" transform="scale(2 2)" d="M153.183 254.322C153.375 254.288 154.476 254.164 154.505 254.353C156.978 270.588 152.504 283.596 165.525 296.738C185.364 316.763 212.064 302.266 211.912 273.497C239.85 281.815 263.744 312.781 266.558 341.551C266.905 345.106 266.789 349.681 266.788 353.302L266.777 371.051C266.772 377.94 265.597 385.317 268.854 391.593C272.78 399.159 272.674 409.044 265.43 414.656C258.65 419.909 254.203 418.253 246.43 417.223C243.175 415.091 236.42 413.293 232.487 412.067L127.802 380.567C120.42 378.305 110.087 375.964 103.544 372.38C97.255 368.934 91.9234 356.377 95.0315 349.578C104.606 328.635 89.2554 306.864 109.404 279.764C120.532 264.397 134.998 257.641 153.183 254.322Z"/><path fill="#FFD55F" transform="scale(2 2)" d="M406.685 409.194L335.131 441.003C329.647 443.41 323.548 448.353 319.537 439.16C317.296 434.024 318.361 407.55 318.548 400.787C318.65 396.806 321.714 389.308 325.375 387.409C338.678 380.506 352.822 374.817 366.579 368.854C381.004 362.734 395.224 355.379 409.709 349.472C410.893 350.85 412.923 353.21 413.141 355.044C414.272 364.435 414.471 390.398 412.162 398.7C411.388 401.483 406.816 407.8 406.685 409.194Z"/><path fill="#FFD55F" transform="scale(2 2)" d="M146.612 157.105C150.083 159.785 153.279 163.099 156.907 165.719C172.295 176.832 188.132 181.154 206.635 182.194C211.986 190.548 212.849 200.513 210.751 210.043L210.634 210.567C217.564 229.162 206.706 235.271 206.635 244.34C203.9 244.834 201.475 245.25 198.713 245.596C196.905 242.548 196.077 241.355 192.444 240.598C185.171 239.082 168.549 231.83 166.76 241.721C164.569 253.835 167.831 254.194 178.579 256.319C182.904 257.174 187.99 258.886 192.551 259.304C196.834 258.463 194.909 256.29 198.713 255.669C200.909 255.43 202.854 255.37 204.968 255.176C202.448 257.846 198.658 261.245 195.506 263.225L194.701 263.225C181.891 269.606 167.68 263.374 158.658 253.542C142.914 236.385 135.218 212.459 136.295 189.332C136.803 178.413 138.291 164.967 146.612 157.105Z"/><path fill="#FEFEFE" transform="scale(2 2)" d="M198.713 255.669C200.909 255.43 202.854 255.37 204.968 255.176C202.448 257.846 198.658 261.245 195.506 263.225L195.247 262.583C195.363 260.785 197.587 257.939 198.565 255.972L198.713 255.669Z"/><path fill="#FBD97B" transform="scale(2 2)" d="M192.551 259.304C196.834 258.463 194.909 256.29 198.713 255.669L198.565 255.972C197.587 257.939 195.363 260.785 195.247 262.583L195.506 263.225L194.701 263.225L194.364 263.026C193.559 261.247 197.395 259.392 196.167 258.09C195.101 259.031 194.83 259.131 193.568 259.66L193.224 259.801L194.819 259.938L194.841 260.179L194.121 260.495C193.298 260.47 193.328 260.396 192.627 259.92L192.551 259.304Z"/><path fill="#5BD6F8" transform="scale(2 2)" d="M226.749 264.014C254.538 262.308 284.885 311.45 287.742 336.401C288.101 339.533 287.978 346.425 287.977 349.66L287.959 369.617C287.958 371.506 287.758 379.918 288.112 381.104C293.408 398.878 292.284 405.111 273.81 412.106C273.471 412.338 272.224 412.82 271.773 413.007L273.25 408.398C277.349 395.182 269.859 390.283 269.83 386.351L269.863 353.789C269.861 348.183 270.073 341.093 269.049 335.725C263.749 307.946 240.556 278.838 213.525 270.551C218.086 268.709 222.452 266.398 226.749 264.014Z"/><path fill="#262B69" transform="scale(2 2)" d="M165.153 131.802C172.486 130.188 183.162 134.161 189.486 137.812C208.937 149.043 219.729 167.646 225.981 188.432C217.245 200.48 215.765 214.986 226.749 226.108C224.089 233.647 222.779 236.215 215.41 240.312C217.38 231.985 219.754 228.461 218.364 218.936C217.981 216.309 216.454 212.03 216.435 209.683C216.401 205.645 218.423 202.005 217.663 197.701C217.47 193.41 213.051 182.455 210.634 178.705C205.377 178.266 200.311 178.972 194.808 178.106C175.554 175.077 160.672 166.015 146.612 152.903C137.765 158.696 135.216 174.455 133.493 184.113C128.164 163.487 139.547 132.23 165.153 131.802Z"/><path fill="#FFD55F" transform="scale(2 2)" d="M355.491 366.113C320.471 359.226 349.586 295.473 370.74 302.577C370.837 302.825 374.197 306.002 375.051 307.393C384.278 322.417 375.86 348.035 363.503 358.922C361.192 360.958 357.156 363.703 355.491 366.113Z"/><path fill="#FFD55F" transform="scale(2 2)" d="M157.931 256.791C171.808 271.341 189.511 273.494 204.968 260.106C204.985 260.769 205.026 261.391 204.968 262.05C206.977 262.088 208.683 261.645 208.852 264.014C208.616 268.91 209.113 273.56 209.033 278.404C208.835 290.399 199.743 302.074 187.209 302.577C182.114 303.451 174.223 299.874 170.185 296.835C156.403 286.461 159.777 271.689 157.931 256.791Z"/><path fill="#FEFEFE" transform="scale(2 2)" d="M204.968 262.05C206.977 262.088 208.683 261.645 208.852 264.014C208.616 268.91 209.113 273.56 209.033 278.404C208.835 290.399 199.743 302.074 187.209 302.577C188.357 301.422 193.049 299.366 194.832 297.961C210.29 286.662 202.48 274.18 204.968 262.05Z"/><path fill="#5BD6F8" transform="scale(2 2)" d="M186.432 123.545C193.581 121.712 206.248 126.685 212.158 130.46C230.673 142.287 241.5 161.716 246.43 182.6C239.668 180.893 235.542 181.366 229.737 185.211C227.68 187.072 225.48 176.811 224.529 174.558C214.241 150.191 195.832 131.77 169.148 128.085C175.824 126.512 179.155 124.015 186.432 123.545Z"/><path fill="#E02626" transform="scale(2 2)" d="M343.684 295.155C354.101 291.602 357.433 297.203 366.118 299.046C363.45 299.851 361.289 300.584 358.68 301.543C340.108 312.028 328.669 342.818 341.499 361.372C338.266 360.295 334.932 359.304 331.764 358.127C307.274 349.03 322.219 304.023 343.684 295.155Z"/><path fill="#FB4F4D" transform="scale(2 2)" d="M343.684 295.155C354.101 291.602 357.433 297.203 366.118 299.046C363.45 299.851 361.289 300.584 358.68 301.543C354.269 298.568 347.894 297.497 343.684 295.155Z"/><path fill="#B86406" transform="scale(2 2)" d="M302.359 379.965C309.48 382.8 313.38 384.95 321.355 386.952C315.322 392.814 314.534 400.567 315.171 408.482C315.869 417.153 313.579 433.745 316.773 441.294C310.745 439.533 297.36 436.875 296.22 429.618C295.431 424.594 295.638 392.62 296.769 388.084C297.61 384.711 299.348 381.812 302.359 379.965Z"/><path fill="#E02626" transform="scale(2 2)" d="M241.187 226.108C210.901 232.8 226.72 170.006 248.581 187.086C248.944 189.11 251.34 192.1 251.769 194.329C254.267 207.293 250.883 217.4 241.187 226.108Z"/><path fill="#FFD55F" transform="scale(2 2)" d="M338.047 363.744C344.616 363.878 348.765 369.489 359.562 368.396L338.888 377.423C335.195 379.05 329.721 381.251 326.496 383.397L323.991 384.778C318.139 382.803 311.55 380.618 305.887 378.219C316.324 373.243 327.763 368.79 338.047 363.744Z"/><path fill="#FFD55F" transform="scale(2 2)" d="M389.914 341.339C391.883 341.378 404.137 346.294 406.685 347.268C402.385 349.174 380.02 358.817 377.471 361.372C372.267 362.579 369.878 364.235 365.018 366.113C369.168 362.977 373.079 359.16 375.986 354.808C382.82 344.578 377.425 346.619 389.914 341.339Z"/><path fill="#262B69" transform="scale(2 2)" d="M170.885 239.677C173.834 239.64 194.037 242.6 194.67 245.441C195.157 247.629 194.319 253.953 193.38 255.669C190.61 256.312 169.732 252.161 169.5 250.205C169.009 247.788 169.81 241.678 170.885 239.677Z"/><path fill="#5BD6F8" transform="scale(2 2)" d="M197.559 248.979C214.065 244.896 220.08 244.716 231.612 229.908C232.071 229.32 232.476 229.481 233.092 229.559C234.417 229.655 234.954 229.692 236.265 229.559C235.457 231.347 232.389 237.376 230.933 238.498C225.302 245.888 217.272 248.857 208.852 251.66C205.048 252.509 201.427 252.83 197.559 253.255C197.504 251.839 197.542 250.398 197.559 248.979Z"/><path fill="#FEFEFE" transform="scale(2 2)" d="M233.092 229.559C234.417 229.655 234.954 229.692 236.265 229.559C235.457 231.347 232.389 237.376 230.933 238.498C225.302 245.888 217.272 248.857 208.852 251.66C206.718 248.28 213.114 247.55 215.295 246.333C222.15 242.506 225.42 239.417 230.933 234.087C231.58 232.081 233.046 231.989 233.092 229.559Z"/><path fill="#262B69" transform="scale(2 2)" d="M129.295 162.704C129.835 163.477 129.296 170.741 129.259 172.502C129.083 180.888 130.052 188.288 131.472 196.508L128.32 193.524C119.231 184.113 121.952 171.898 129.295 162.704Z"/><path fill="#15BCAC" transform="scale(2 2)" d="M222.675 248.979L222.967 249.367C222.631 252.998 220.947 260.862 219.296 264.014C217.435 265.414 214.253 267.055 211.912 268.71C211.448 267.372 213.194 255.646 213.525 253.255C216.943 251.855 219.459 250.71 222.675 248.979Z"/><path fill="#FBD97B" transform="scale(2 2)" d="M210.634 253.255C209.688 257.217 209.196 259.868 208.852 264.014C208.683 261.645 206.977 262.088 204.968 262.05C205.026 261.391 204.985 260.769 204.968 260.106C206.64 257.934 208.709 255.092 210.634 253.255Z"/><path transform="scale(2 2)" d="M328.53 63.5875C338.433 62.5567 350.48 68.9019 359.547 72.6153C366.956 75.6495 366.878 82.5252 367.248 89.1082C382.632 98.8483 402.212 94.5529 401.719 115.613C401.499 124.993 405.081 144.954 395.652 149.501C387.037 153.656 378.32 157.459 369.765 161.775C392.135 167.593 397.997 174.407 392.501 198.955C399.85 201.18 415.225 207.31 415.383 216.376C415.56 226.543 415.578 237.043 415.409 247.217C415.174 261.374 399.37 264.81 388.891 269.339L356.733 283.476C350.394 286.28 344.276 288.741 338.047 291.855C336.578 292.444 335.765 292.69 334.256 293.104C327.431 291.316 318.215 286.67 311.753 283.671C304.129 280.132 305.89 268.016 305.952 261.127C306.118 242.405 301.129 234.973 318.965 226.858L333.977 220.098C337.076 218.732 341.837 216.755 344.674 215.109L344.725 214.862C330.095 211.454 334.759 189.18 338.047 179.479C322.339 180.989 303.007 171.451 296.738 157.105C289.962 159.82 279.811 153.097 272.461 150.659C259.004 146.195 263.43 122.849 263.332 110.174C263.27 102.143 274.269 98.5373 280.139 95.6794C285.55 93.0452 291.203 89.7134 296.738 87.4942C295.766 75.5482 300.16 73.9726 310.292 70.1305C316.135 67.9145 322.22 64.2788 328.53 63.5875Z"/><path fill="#E02626" transform="scale(2 2)" d="M324.852 92.9593C349.137 83.723 385.243 125.293 364.776 156.607C364.127 157.6 363.494 158.702 362.393 159.124L361.848 158.948C354.049 154.388 342.61 170.577 339.541 175.788C334.696 177.01 330.729 176.981 325.945 175.687C290.548 166.109 279.917 115.335 310.062 97.2676C313.541 95.1821 320.809 91.8958 324.852 92.9593Z"/><path fill="#FEFEFE" transform="scale(2 2)" d="M324.852 92.9593C349.137 83.723 385.243 125.293 364.776 156.607C364.127 157.6 363.494 158.702 362.393 159.124L361.848 158.948C362.303 157.455 364.095 154.791 364.769 153.117C376.092 124.982 351.793 92.7785 321.355 95.057L324.852 92.9593Z"/><path transform="scale(2 2)" d="M343.684 110.567C347.891 110.683 350.991 114.522 350.326 118.693C349.605 123.212 329.591 150.29 326.998 152.077C320.741 156.389 316.097 149.288 313.008 144.849C310.838 141.793 306.057 136.048 306.277 132.156C306.473 128.684 311.429 125.33 314.786 126.21C318.347 127.143 321.395 132.838 323.222 135.821C326.872 130.87 338.346 111.68 343.684 110.567Z"/><path fill="#C0DCEA" transform="scale(2 2)" d="M323.222 140.705C328.409 135.097 340.451 112.314 345.533 113.997C350.213 117.833 345.168 122.707 342.557 126.376L334.255 137.893C332.396 140.456 327.048 148.714 324.852 149.924C318.917 151.754 312.756 139.592 309.875 134.887C307.896 132.034 312.168 128.339 314.341 129.378C317.203 130.746 321.28 138.158 323.222 140.705Z"/><path fill="#FEFEFE" transform="scale(2 2)" d="M345.533 113.997C350.213 117.833 345.168 122.707 342.557 126.376L334.255 137.893C332.396 140.456 327.048 148.714 324.852 149.924C321.683 142.245 341.623 123.158 345.533 113.997Z"/><path fill="#09BE7E" transform="scale(2 2)" d="M334.256 289.925C331.652 288.857 330.207 287.644 329.955 284.54C329.15 274.627 329.499 260.009 329.882 250.01C330.049 245.963 331.434 243.724 334.999 242.093C342.579 238.626 402.63 210.649 408.439 210.567C415.493 213.65 412.993 240.014 412.421 246.743C411.88 253.097 408.744 257.759 402.552 260.106C399.699 261.596 396.15 262.832 393.133 264.094C373.375 272.361 353.969 281.554 334.256 289.925Z"/><path fill="#5BD6F8" transform="scale(2 2)" d="M408.439 210.567C415.493 213.65 412.993 240.014 412.421 246.743C411.88 253.097 408.744 257.759 402.552 260.106C403.165 258.731 406.556 256.49 407.355 254.727C411.374 246.067 410.08 219.956 408.166 210.935L408.439 210.567Z"/><path fill="#FEFEFE" transform="scale(2 2)" d="M377.471 168.278C399.945 166.96 392.008 216.417 370.74 219.986C345.784 221.242 357.56 173.294 377.471 168.278Z"/><path fill="#FEFEFE" transform="scale(2 2)" d="M369.765 116.236C377.331 113.121 388.67 106.721 395.934 104.4C400.387 109.407 398.707 116.853 398.709 122.995C398.71 128.413 400.585 141.722 396.07 145.625C393.704 147.669 371.135 157.524 367.248 158.948L368.081 157.105L369.765 154.161C377.221 136.678 373.325 131.745 369.765 116.236Z"/><path fill="#FBD97B" transform="scale(2 2)" d="M268.783 106.184C270.978 106.194 288.356 113.374 292.073 114.845C288.276 126.164 288.001 134.17 291.523 145.979C292.069 147.81 294.128 152.344 294.139 153.747L293.719 154.161L292.073 155.313C286.719 152.777 271.495 147.854 268.198 144.121C265.208 140.736 266.838 124.89 266.832 119.306C266.827 114.632 264.711 109.66 268.783 106.184Z"/><path fill="#AEAEAE" transform="scale(2 2)" d="M358.68 161.775C361.847 161.335 370.218 165.007 374.021 166.154C360.166 172.383 352.064 192.758 353.634 207.273C353.856 209.321 356.452 216.098 356.336 216.963C353.245 215.102 350.135 213.762 346.778 212.456C328.129 205.199 340.486 168.471 358.68 161.775Z"/><path fill="#006F3D" transform="scale(2 2)" d="M312.056 234.087C315.961 235.507 325.415 240.067 328.53 242.503C325.861 248.23 326.476 256.974 326.481 263.336L326.496 286.836C302.156 273.667 311.331 284.541 309.321 253.475C309.005 248.584 308.364 237.849 312.056 234.087Z"/><path fill="#AEAEAE" transform="scale(2 2)" d="M329.759 66.7698C336.465 66.0694 352.442 71.7975 358.68 75.9666C354.241 77.1625 351.345 78.6073 347.141 80.4183L333.149 86.504L330.875 87.4942C324.589 84.0162 311.284 78.5679 304.364 75.9666C310.185 73.0416 324.403 66.9729 329.759 66.7698Z"/><path fill="#FFD55F" transform="scale(2 2)" d="M348.554 216.963C351.669 216.59 362.175 223.45 369.765 223.284C365.294 225.058 360.843 227.182 356.435 229.144L335.127 238.498C334.026 239.026 333.271 239.288 332.127 239.677C326.916 237.641 320.362 234.277 315.192 231.794C324.982 228.707 338.551 221.224 348.554 216.963Z"/><path fill="#FEFEFE" transform="scale(2 2)" d="M334.256 89.1082C342.513 86.8122 353.378 79.4143 361.848 78.2055C365.182 82.3399 364.517 96.7702 364.29 101.916C362.941 102.486 361.758 103.172 360.364 103.475C351.479 94.2365 346.006 92.567 334.256 89.1082Z"/><path fill="#AEAEAE" transform="scale(2 2)" d="M367.248 92.9593C375.985 96.0814 383.403 99.5063 392.501 102.476C385.737 105.414 374.285 110.186 368.081 113.997C365.804 110.019 363.608 106.782 360.364 103.475C361.758 103.172 362.941 102.486 364.29 101.916C369.353 101.653 367.225 97.1207 367.248 92.9593Z"/><path fill="#FBD97B" transform="scale(2 2)" d="M302.359 78.2055C309.688 81.9785 320.724 86.2659 328.53 89.1082C322.999 89.3207 320.027 89.3957 315.192 91.9276C309.348 92.7627 303.702 97.8619 299.705 101.916C299.718 95.6027 297.617 82.2061 302.359 78.2055Z"/><path fill="#AEAEAE" transform="scale(2 2)" d="M294.822 91.9276C298.675 90.1639 296.694 102.342 296.738 106.184L294.822 108.475C294.53 109.079 293.075 111.267 292.645 111.943C286.276 108.974 278.364 105.959 271.773 103.475C276.594 100.706 289.902 93.7225 294.822 91.9276Z"/><path fill="#FEFEFE" transform="scale(2 2)" d="M294.822 91.9276C298.675 90.1639 296.694 102.342 296.738 106.184L294.822 108.475C292.248 106.597 294.188 94.8687 294.822 91.9276Z"/><path fill="#FFD55F" transform="scale(2 2)" d="M391.195 201.385C395.312 203.155 400.602 205.761 404.563 207.836C399.575 209.863 394.81 211.96 389.914 214.18L380.304 218.604C386.138 212.948 388.804 209.115 391.195 201.385Z"/><path transform="scale(2 2)" d="M249.831 161.775C252.135 162.324 255.691 164.041 258.029 165.016L309.872 186.437C314.099 188.208 329.914 192.199 327.373 196.508C325.418 196.745 315.749 192.223 313.237 191.169L291.02 181.95C277.712 176.333 264.247 171.167 250.973 165.482C248.706 164.511 248.565 163.81 249.831 161.775Z"/></svg>