<?xml version="1.0" encoding="utf-8" ?>
<svg width="200" height="200" viewBox="50 90 900 900">
	<path fill="#6C5829" d="M99.8883 778.172C106.045 781.414 112.245 784.627 118.55 787.571C124.997 790.582 133.567 793.314 139.033 797.924C139.601 799.341 139.177 800.096 138.837 801.558C129.798 798.7 106.595 787.75 99.3137 781.816C98.9166 780.359 99.4206 779.585 99.8883 778.172Z"/>
	<path fill="#6C5829" d="M317.497 849.895C318.37 850.125 319.004 850.429 319.804 850.834L319.99 851.912C316.25 858.999 290.956 869.461 282.719 872.521C277.294 874.535 271.193 875.561 265.483 876.401C233.7 881.077 205.648 870.195 177.56 857.045C176.556 856.531 175.692 856.01 174.795 855.325C174.657 854.066 174.625 854.044 175.297 852.98C179.32 851.621 197.891 862.17 202.87 864.022C210.267 866.774 218.422 869.521 226.143 871.115C261.191 878.349 288.437 868.891 317.497 849.895Z"/>
	<path fill="#6C5829" d="M168.815 825.631C174.606 826.997 180.181 831.94 185.201 835.059C189.308 837.61 193.558 839.987 197.812 842.284C226.027 857.516 259.442 865.227 288.511 847.422C292.142 845.199 302.538 835.73 304.622 835.203C306.077 834.835 306.488 835.011 307.785 835.722C308.062 836.814 307.923 836.883 307.62 837.91C292.103 851.764 276.329 860.866 255.189 861.837C229.051 863.039 206.079 851.941 184.174 839.036C179.719 836.411 172.872 833.23 169.428 829.338C168.244 827.999 168.643 827.256 168.815 825.631Z"/>
	<path fill="#FEFEFE" d="M951.93 653.623C959.301 655.723 966.491 660.323 970.353 667.135C972.864 671.564 974.178 677.265 972.645 682.224C967.949 697.423 946.207 706.995 933.074 713.535C915.241 722.415 896.741 730.47 878.466 738.413C865.482 744.057 851.537 749.326 839.559 756.964C833.734 760.678 826.962 765.358 824.58 772.148C821.113 782.03 828.182 792.414 824.736 803.744C817.036 829.06 756.485 857.615 733.134 869.535C711.332 880.664 688.85 890.629 666.114 899.699C652.209 905.246 637.851 911.008 623.154 914.115C590.714 920.973 558.419 910.231 527.866 900.316C494.955 889.636 462.501 877.695 430.038 865.744C400.097 854.721 369.99 843.149 338.777 836.24C323.054 832.759 307.265 830.864 291.156 830.603C270.448 830.268 252.294 833.585 232.047 826.689C200.059 815.795 166.801 789.329 137.575 772.11C128.708 766.886 119.814 761.581 110.728 756.748C98.4328 750.206 85.5209 744.207 74.2342 735.986C66.9008 730.644 59.3798 723.962 55.181 715.771C52.775 711.077 51.4942 705.745 53.2084 700.598C56.5664 690.516 73.0402 680.434 82.1157 676.165C83.8544 675.347 85.6147 674.561 87.4823 674.091L87.3705 713.857L258.191 812.768C272.185 807.507 285.405 799.938 298.84 793.406L366.383 761.158L366.49 805.504L428.138 838.283C438.999 844.093 449.606 850.266 460.651 855.74C480.086 848.434 499.574 841.241 518.849 833.52C551.907 851.922 584.389 871.371 617.777 889.171C627.024 885.333 635.962 880.328 645.042 876.053C663.341 867.437 681.807 859.148 700.219 850.777L760.204 823.55C772.281 818.054 784.511 812.918 796.209 806.631C796.859 788.974 795.513 770.955 795.501 753.249C809.018 747.398 821.875 740.562 835.032 733.981L888.171 707.601L925.731 688.946C934.574 684.576 943.536 680.616 951.766 675.128C952.831 668.014 951.941 660.787 951.93 653.623Z"/>
	<path fill="#EE8F5E" d="M191.471 503.581C181.263 504.904 157.485 503.745 147.916 499.899C134.296 494.425 126.013 482.829 120.419 469.73C101.29 424.935 111.654 366.207 129.375 322.479C156.539 255.448 218.731 185.799 286.002 157.552C342.672 133.758 392.598 147.147 445.142 173.352C465.901 183.706 486.091 195.344 507.602 204.122C479.276 213.855 461.271 227.502 448.028 254.76C445.104 260.779 442.549 267.167 440.854 273.649C440.258 275.931 440.156 280.586 438.678 282.223C424.072 280.931 409.492 280.333 394.861 279.51C387.481 279.095 379.351 277.57 372.016 278.709C360.422 280.51 349.271 287.002 338.487 291.401L254.552 326.618L203.245 347.76C193.355 351.81 183.141 355.435 173.642 360.355C173.718 369.511 173.797 378.661 174.116 387.813C179.439 389.727 184.972 390.955 190.458 392.303C190.178 419.411 190.147 446.496 190.58 473.604C190.739 483.598 191.358 493.593 191.471 503.581Z"/>
	<path fill="#508291" d="M507.602 204.122C552.72 219.536 592.472 216.595 635.001 195.688C690.763 168.276 723.511 122.684 793.266 146.257C836.344 160.815 878.447 195.386 898.566 236.567C914.56 269.306 914.172 306.359 902.327 340.329C888.375 380.34 869.909 416.895 890.365 459.338C898.28 475.761 909.67 490.312 922.422 503.254C904.675 499.638 888.066 491.177 870.519 486.794C866.161 485.705 862.383 485.442 857.932 486.15C847.545 487.804 837.502 492.339 827.671 495.936C811.671 501.792 795.673 507.88 779.431 513.033C778.646 474.591 779.83 436.066 780.008 397.619C783.757 396.661 787.254 395.409 790.844 393.968C790.749 387.89 790.795 381.803 790.779 375.724C789.462 374.846 788.129 373.988 786.743 373.223C778.338 368.586 769.115 364.909 760.324 361.043L713.573 340.799L599.098 290.325C597.567 289.645 594.995 288.017 593.385 288.73C592.316 289.202 592.035 289.595 590.775 289.589C582.257 289.548 573.483 288.504 564.922 288.217C538.782 287.341 512.665 286.455 486.548 285.014L456.418 283.284C450.922 283.011 444.847 283.234 439.44 282.354L438.678 282.223C440.156 280.586 440.258 275.931 440.854 273.649C442.549 267.167 445.104 260.779 448.028 254.76C461.271 227.502 479.276 213.855 507.602 204.122Z"/>
	<path d="M786.433 324.081C794.916 324.386 813.201 334.422 820.937 339.096C823.808 340.831 826.792 342.304 827.658 345.739C827.532 345.703 827.405 345.672 827.281 345.632C820.11 343.332 813.052 337.733 806.25 334.265C800.846 331.51 794.921 329.731 789.605 326.895C788.059 326.07 787.26 325.599 786.433 324.081Z"/>
	<path d="M762.734 301.092C767.69 300.694 772.652 301.952 777.366 303.361C797.083 309.256 864.886 342.52 874.53 360.218C870.176 359.424 852.336 344.546 847.031 341.044C831.058 330.5 814.12 321.3 796.654 313.483C791.051 310.975 785.123 308.715 779.228 307.032C774.831 305.777 769.974 304.992 765.748 303.288C764.509 302.789 763.642 302.051 762.734 301.092Z"/>
	<path d="M173.642 360.355C183.141 355.435 193.355 351.81 203.245 347.76L254.552 326.618L338.487 291.401C349.271 287.002 360.422 280.51 372.016 278.709C379.351 277.57 387.481 279.095 394.861 279.51C409.492 280.333 424.072 280.931 438.678 282.223L439.44 282.354C444.847 283.234 450.922 283.011 456.418 283.284L486.548 285.014C512.665 286.455 538.782 287.341 564.922 288.217C573.483 288.504 582.257 289.548 590.775 289.589C592.035 289.595 592.316 289.202 593.385 288.73C594.995 288.017 597.567 289.645 599.098 290.325L713.573 340.799L760.324 361.043C769.115 364.909 778.338 368.586 786.743 373.223C788.129 373.988 789.462 374.846 790.779 375.724C790.795 381.803 790.749 387.89 790.844 393.968C787.254 395.409 783.757 396.661 780.008 397.619C779.83 436.066 778.646 474.591 779.431 513.033C795.673 507.88 811.671 501.792 827.671 495.936C837.502 492.339 847.545 487.804 857.932 486.15C862.383 485.442 866.161 485.705 870.519 486.794C888.066 491.177 904.675 499.638 922.422 503.254C932.359 506.853 942.461 509.917 952.467 513.304L952.533 580.892C952.605 589.519 953.172 598.14 953.135 606.763C953.067 622.383 952.257 638.006 951.93 653.623C951.941 660.787 952.831 668.014 951.766 675.128C943.536 680.616 934.574 684.576 925.731 688.946L888.171 707.601L835.032 733.981C821.875 740.562 809.018 747.398 795.501 753.249C795.513 770.955 796.859 788.974 796.209 806.631C784.511 812.918 772.281 818.054 760.204 823.55L700.219 850.777C681.807 859.148 663.341 867.437 645.042 876.053C635.962 880.328 627.024 885.333 617.777 889.171C584.389 871.371 551.907 851.922 518.849 833.52C499.574 841.241 480.086 848.434 460.651 855.74C449.606 850.266 438.999 844.093 428.138 838.283L366.49 805.504L366.383 761.158L298.84 793.406C285.405 799.938 272.185 807.507 258.191 812.768L87.3705 713.857L87.4823 674.091L87.5182 601.007C110.727 591.593 134.08 582.836 157.495 573.972C166.375 570.611 178.562 564.719 187.322 562.838C188.68 562.546 190.246 563.021 191.576 563.361L192.316 563.555C193.482 557.638 192.319 548.841 192.149 542.583C191.796 529.58 191.46 516.59 191.471 503.581C191.358 493.593 190.739 483.598 190.58 473.604C190.147 446.496 190.178 419.411 190.458 392.303C184.972 390.955 179.439 389.727 174.116 387.813C173.797 378.661 173.718 369.511 173.642 360.355Z"/>
	<path fill="#F8C94F" d="M625.115 649.199C625.467 649.26 625.997 649.338 626.319 649.468C627.455 649.929 627.457 650.283 627.788 651.363C627.224 652.967 626.402 653.763 625.188 654.927L623.524 654.871C622.468 654.17 622.521 654.244 622.253 653.005C622.901 651.16 623.62 650.434 625.115 649.199Z"/>
	<path fill="#F8C94F" d="M879.312 616.408C880.263 617.676 880.435 619.626 880.398 621.177C880.338 623.695 879.674 625.495 877.867 627.245C877.521 626.94 877.228 626.73 876.987 626.326C876.178 624.968 876.072 622.691 876.336 621.159C876.732 618.857 877.445 617.794 879.312 616.408Z"/>
	<path fill="#F8C94F" d="M865.1 704.773C865.923 705.024 865.486 704.816 866.339 705.529C866.633 706.834 866.967 708.175 867.002 709.518C867.067 712.038 866.667 713.394 865.021 715.244L863.735 714.963C862.932 714.053 862.721 713.319 862.621 712.138C862.384 709.348 863.253 706.819 865.1 704.773Z"/>
	<path fill="#F8C94F" d="M878.723 602.222C878.979 602.424 879.267 602.59 879.489 602.827C880.151 603.532 880.326 605.123 880.397 606.06C880.614 608.954 879.905 611.566 877.997 613.734L876.997 613.238C876.373 612.124 876.167 611.211 876.116 609.952C875.995 606.988 876.695 604.388 878.723 602.222Z"/>
	<path fill="#F8C94F" d="M626.358 628.825L627.117 629.381C627.837 631.125 628.162 632.665 627.529 634.508C626.764 636.735 625.725 637.386 623.678 638.296C623.351 637.932 623.238 637.839 622.974 637.354C622.301 636.121 622.148 634.52 622.523 633.165C623.154 630.885 624.362 629.956 626.358 628.825Z"/>
	<path fill="#F8C94F" d="M880.936 698.365L881.599 698.737C882.505 700.848 882.527 703.047 881.855 705.241C881.246 707.23 880.166 707.658 878.436 708.572L877.905 708.241C877.099 706.57 877.056 704.554 877.429 702.756C877.952 700.233 878.871 699.726 880.936 698.365Z"/>
	<path fill="#F8C94F" d="M626.421 617.868C626.638 618.081 626.895 618.26 627.071 618.509C627.951 619.747 628.039 622.371 627.599 623.789C626.863 626.159 625.735 626.913 623.659 628.077C623.584 627.983 623.497 627.897 623.435 627.795C622.448 626.176 622.064 624.137 622.591 622.293C623.243 620.011 624.431 619.035 626.421 617.868Z"/>
	<path fill="#F8C94F" d="M626.244 594.886C626.393 595.05 626.567 595.194 626.689 595.379C627.74 596.965 627.921 599.914 627.29 601.682C626.533 603.802 625.327 604.059 623.475 604.987C623.305 604.807 623.101 604.654 622.966 604.446C622.083 603.088 622.12 600.392 622.587 598.891C623.274 596.679 624.269 595.887 626.244 594.886Z"/>
	<path fill="#F8C94F" d="M625.945 639.229L626.742 639.598C627.726 640.713 628 642.137 627.875 643.601C627.667 646.048 626.881 647.446 624.969 648.937C624.758 648.909 624.544 648.901 624.336 648.853C623.607 648.682 623.102 648.587 622.735 647.908C621.995 646.538 622.014 645.073 622.409 643.598C623.031 641.271 623.837 640.376 625.945 639.229Z"/>
	<path fill="#F8C94F" d="M865.812 690.392L866.286 690.924C866.819 693.035 867.151 695.304 866.946 697.481C866.682 700.287 866.291 701.875 864.062 703.649L863.352 703.184C862.778 701.777 862.677 700.426 862.661 698.908C862.626 695.445 863.396 692.845 865.812 690.392Z"/>
	<path fill="#F8C94F" d="M625.472 605.723C626.071 605.773 626.536 605.966 627.099 606.167C627.897 607.758 628.03 609.357 627.824 611.112C627.49 613.967 627.055 615.46 624.771 617.26L623.518 616.896C622.169 614.694 622.166 612.203 622.602 609.711C623.015 607.352 623.574 607.021 625.472 605.723Z"/>
	<path fill="#F8C94F" d="M881.16 683.839C882.416 685.753 882.48 689.513 882.098 691.71C881.574 694.723 880.737 695.925 878.237 697.627C878.155 697.515 878.058 697.412 877.99 697.291C876.75 695.072 877.037 689.731 877.76 687.405C878.362 685.471 879.448 684.763 881.16 683.839Z"/>
	<path fill="#F8C94F" d="M639.209 644.979L640.027 644.957L640.567 645.698C640.559 647.066 640.54 647.887 639.97 649.166C637.601 651.534 634.249 652.159 631.117 653.004L629.863 652.747C629.406 651.685 629.126 651.2 629.653 650.036C631.056 646.936 636.294 645.97 639.209 644.979Z"/>
	<path fill="#F8C94F" d="M864.836 608.322C865.39 608.728 865.468 608.651 865.705 609.21C866.662 611.46 866.539 616.746 865.516 618.999C864.848 620.47 863.512 620.623 862.125 621.164C861.613 620.866 861.389 620.487 861.033 620.023C860.581 617.095 860.415 614.612 861.382 611.758C862.045 609.803 863.031 609.175 864.836 608.322Z"/>
	<path fill="#F8C94F" d="M865.368 622.541C865.649 622.857 865.839 623.018 865.973 623.469C866.772 626.161 866.487 630.288 865.149 632.734C864.36 634.175 862.813 634.508 861.356 635.002C859.711 632.542 860.611 627.349 860.729 624.481L865.368 622.541Z"/>
	<path fill="#F8C94F" d="M373.977 665.561C376.631 666.519 380.324 667.467 382.357 669.47C383.162 670.263 383.186 670.45 383.213 671.512L381.875 672.456L374.019 675.546L373.977 665.561Z"/>
	<path fill="#F8C94F" d="M677.665 630.004C678.235 630.181 678.329 630.516 678.679 630.982C678.869 632.866 679.075 633.576 678.314 635.348C677.295 636.24 676.611 636.692 675.308 637.098C673.579 637.637 671.971 638.308 670.306 639.018C669.822 638.84 669.526 638.33 669.188 637.946C668.839 636.385 668.648 635.38 669.065 633.78C670.561 632.029 675.43 630.827 677.665 630.004Z"/>
	<path fill="#F8C94F" d="M653.444 639.522C654.01 639.842 654.664 640.572 654.935 641.163C655.385 642.148 655.037 642.612 654.569 643.475C653.156 646.082 646.506 647.518 643.839 648.377L643.259 648.115C642.733 646.802 642.862 646.108 643.058 644.753C644.981 641.711 650.155 640.657 653.444 639.522Z"/>
	<path fill="#F8C94F" d="M688.81 625.438L689.74 625.46L690.38 626.23C690.491 627.463 690.776 629.078 690.334 630.259C689.411 632.724 684.485 633.766 682.126 634.606C681.392 634.812 681.81 634.808 680.905 634.312C680.345 632.514 680.741 630.573 680.943 628.729C683.634 627.772 686.21 626.614 688.81 625.438Z"/>
	<path fill="#F8C94F" d="M616.456 632.479L617.202 633.011C617.903 635.178 617.6 637.598 617.533 639.852L610.06 642.969C608.668 641.083 609.261 637.521 609.395 635.268L616.456 632.479Z"/>
	<path fill="#F8C94F" d="M666.619 634.066C666.744 634.18 666.893 634.273 666.996 634.407C667.877 635.558 667.536 638.359 667.514 639.815L657.179 643.467C656.894 643.147 656.475 642.714 656.296 642.33C655.837 641.341 655.777 640.351 656.362 639.411C658.086 636.635 663.724 635.136 666.619 634.066Z"/>
	<path fill="#F8C94F" d="M704.974 626.546L711.509 629.015L711.499 639.314L705.108 636.603L704.974 626.546Z"/>
	<path fill="#49E5DE" d="M130.925 588.708L131.661 588.995L134.891 588.22C134.272 588.661 133.872 588.772 133.193 589.113C133.05 589.185 132.943 589.316 132.813 589.411C132.166 589.887 131.49 590.076 130.739 590.333L130.73 590.812C126.807 592.627 108.508 601.175 105.179 599.66C104.915 599.54 104.679 599.366 104.429 599.218C112.932 595.231 121.963 591.534 130.925 588.708Z"/>
	<path fill="#F8C94F" d="M689.463 573.052L690.131 573.714C690.813 576.077 690.514 578.734 690.467 581.177L683.164 583.454C683.054 583.345 682.927 583.25 682.835 583.126C681.47 581.283 682.243 577.461 682.456 575.3L689.463 573.052Z"/>
	<path fill="#F8C94F" d="M576.433 637.052C576.595 637.221 576.781 637.369 576.918 637.559C577.675 638.605 578.35 641.321 578.018 642.546C577.608 644.059 576.149 645.055 574.734 645.526C573.169 646.048 571.281 644.899 569.873 644.266C567.984 643.363 566.137 642.365 564.279 641.4L576.433 637.052Z"/>
	<path fill="#F8C94F" d="M705.004 612.725L711.472 615.075L711.434 626.132L705.037 623.622L705.004 612.725Z"/>
	<path fill="#F8C94F" d="M616.226 652.418C616.338 652.432 616.454 652.422 616.56 652.459C617.658 652.851 617.721 653.077 618.121 654.087C617.395 656.474 616.138 657.503 614.072 658.752C611.534 660.286 608.425 661.289 605.491 660.551L600.963 658.211C606.131 656.434 611.183 654.523 616.226 652.418Z"/>
	<path fill="#F8C94F" d="M689.244 605.953L690.198 606.506C690.865 608.798 690.544 611.385 690.477 613.755C687.706 614.551 684.995 615.529 682.273 616.477C682.024 616.411 681.547 615.972 681.332 615.809C680.821 613.596 681.306 611.274 681.567 609.042L689.244 605.953Z"/>
	<path fill="#FEFEFE" d="M937.873 657.996C939.134 660.074 938.6 663.812 938.534 666.19C936.013 667.557 933.285 668.662 930.67 669.847C929.304 667.801 929.953 663.879 930.059 661.482L937.873 657.996Z"/>
	<path fill="#F8C94F" d="M678.198 609.985L678.857 610.325C679.493 612.613 679.088 615.238 678.968 617.593C676.142 618.411 673.358 619.645 670.612 620.714L669.715 620.162C669.098 617.933 669.386 615.609 669.488 613.321L678.198 609.985Z"/>
	<path fill="#F8C94F" d="M616.829 621.537C616.933 621.649 617.054 621.746 617.141 621.871C618.505 623.822 617.761 627.942 617.599 630.227C615.166 631.2 612.652 632.038 610.189 632.935C608.402 630.675 609.333 626.958 609.606 624.24L616.829 621.537Z"/>
	<path fill="#FEFEFE" d="M891.752 692.972L892.802 693.346C893.606 695.668 893.421 698.011 893.398 700.436L885.248 704.705C884.721 704.794 885.073 704.79 884.271 704.3C883.826 701.883 884.19 699.425 884.39 696.992L891.752 692.972Z"/>
	<path fill="#FEFEFE" d="M614.465 583.34C617.708 585.023 624.489 586.666 626.707 589.141L626.416 589.927L623.647 591.043L614.267 594.39L614.465 583.34Z"/>
	<path fill="#F8C94F" d="M617.368 598.525C618.928 600.733 618.218 604.923 618.091 607.553L610.91 610.376L610.183 609.705C609.662 606.967 609.915 604.222 610.039 601.454L617.368 598.525Z"/>
	<path fill="#F8C94F" d="M617.062 609.996L617.84 610.807C618.488 613.526 618.183 616.262 618.038 619.029L610.888 621.997L610.125 621.226C609.606 618.537 609.842 615.765 609.918 613.04L617.062 609.996Z"/>
	<path fill="#F8C94F" d="M940.636 656.576C943.32 654.996 946.154 653.687 948.953 652.326L948.961 661.285C946.668 662.57 944.389 663.835 942.01 664.959C941.25 664.924 941.68 665.034 940.842 664.316C940.179 661.809 940.517 659.146 940.636 656.576Z"/>
	<path fill="#E4DFD6" d="M942.01 664.959C941.95 663.522 941.987 662.101 942.209 660.676C942.477 658.96 943.072 658.097 944.449 657.094L945.866 657.327C947.386 658.395 948.053 659.694 948.961 661.285C946.668 662.57 944.389 663.835 942.01 664.959Z"/>
	<path fill="#FEFEFE" d="M903.761 686.488C905.179 688.498 904.536 692.781 904.476 695.19C901.766 696.553 898.965 697.779 896.218 699.066C895.106 696.631 895.542 693.378 895.613 690.755L903.761 686.488Z"/>
	<path fill="#F8C94F" d="M689.32 594.998L690.251 595.658C690.851 598.388 690.569 601.309 690.508 604.091L682.613 606.489L681.933 605.738C681.413 603.157 681.804 600.55 682.025 597.948C684.478 597.07 686.904 595.979 689.32 594.998Z"/>
	<path fill="#F8C94F" d="M689.448 615.505L690.146 616.211C690.827 618.547 690.52 621.168 690.463 623.584L682.104 626.588C681.766 626.496 681.395 626.187 681.098 625.996C680.469 623.658 680.845 621.224 681.02 618.836L689.448 615.505Z"/>
	<path fill="#F8C94F" d="M776.335 654.209L783.501 657.002L783.458 668.244L776.531 665.524L776.335 654.209Z"/>
	<path fill="#FEFEFE" d="M926.87 674.992C928.225 676.844 927.809 681.226 927.858 683.51L919.657 687.516C918.162 685.59 918.735 681.464 918.79 679.082L926.87 674.992Z"/>
	<path fill="#F8C94F" d="M677.88 619.995C679.633 621.87 679.064 625.344 679.018 627.776C676.083 628.931 673.103 629.941 670.118 630.959L669.315 630.396C668.61 628.179 668.92 625.82 669.024 623.523L677.88 619.995Z"/>
	<path fill="#FEFEFE" d="M926.469 662.962L927.278 663.61C927.848 666.16 927.555 668.926 927.489 671.527C924.895 672.909 922.237 674.188 919.607 675.503C918.054 673.198 918.69 669.08 918.78 666.373C921.26 665.111 923.915 664.075 926.469 662.962Z"/>
	<path fill="#F8C94F" d="M385.819 658.738C388.536 659.68 392.672 660.639 394.827 662.605C395.736 663.433 395.872 664.111 396.002 665.279C395.411 666.526 395.049 667.058 393.897 667.828C391.529 668.897 389.34 670.264 386.697 669.404C384.422 666.596 385.554 662.152 385.819 658.738Z"/>
	<path fill="#F8C94F" d="M689.84 582.484C691.278 584.915 690.542 589.983 690.479 592.798L683.187 595.465C681.463 593.286 682.355 588.141 682.486 585.436L689.84 582.484Z"/>
	<path fill="#FEFEFE" d="M915.332 668.001C916.926 670.061 916.198 674.453 916.107 676.992L908.183 681.005C906.577 678.977 907.4 674.037 907.518 671.481L915.332 668.001Z"/>
	<path fill="#F8C94F" d="M373.566 653.809C376.713 655.101 379.908 656.272 383.093 657.467L383.055 666.446L373.908 663.03L373.566 653.809Z"/>
	<path fill="#FEFEFE" d="M794.766 681.17L796.33 681.678C798.51 686.306 796.949 714.322 796.352 721.671C796.278 721.607 796.195 721.553 796.129 721.481C793.977 719.164 794.759 686.466 794.766 681.17Z"/>
	<path fill="#F8C94F" d="M948.931 571.003C950.332 573.357 949.626 578.089 949.56 580.798L941.585 584.49C940.224 582.165 940.956 577.483 941.04 574.815L948.931 571.003Z"/>
	<path fill="#FEFEFE" d="M915.57 680.478C917.181 682.463 916.467 686.692 916.386 689.164L907.898 693.388L907.137 692.716C906.61 690.117 906.837 687.455 906.915 684.817L915.57 680.478Z"/>
	<path fill="#FEFEFE" d="M859.157 708.407C859.64 708.508 859.309 708.406 860.016 708.993C860.546 711.634 860.269 714.332 860.151 717.008C857.39 718.526 854.547 719.886 851.719 721.275C851.436 721.302 851.175 721.107 850.91 721.004C850.329 718.354 850.729 715.207 850.799 712.492C853.695 711.288 856.408 709.916 859.157 708.407Z"/>
	<path fill="#F8C94F" d="M775.474 640.311C778.037 641.45 780.836 642.293 783.479 643.254L783.477 654.356L776.085 651.727C775.719 647.92 775.576 644.134 775.474 640.311Z"/>
	<path fill="#F8C94F" d="M666.584 614.023C668.234 615.859 667.552 619.704 667.462 622.064C664.059 623.163 660.711 624.618 657.376 625.916L656.748 625.304C656.121 622.912 656.402 620.43 656.504 617.981C659.902 616.803 663.242 615.355 666.584 614.023Z"/>
	<path fill="#F8C94F" d="M679.311 599.048C680.511 601.598 679.709 605.148 679.364 607.846L670.168 611.194C668.782 609.056 669.419 605.293 669.538 602.818C672.741 601.389 676.006 600.217 679.311 599.048Z"/>
	<path fill="#E4DFD6" d="M903.782 673.488C905.383 675.295 904.617 680.613 904.543 683.001L896.202 687.303C894.954 684.405 895.474 680.502 895.525 677.389L903.782 673.488Z"/>
	<path fill="#F8C94F" d="M666.584 624.025L667.183 624.635C667.856 627.008 667.554 629.62 667.487 632.067C664.079 633.196 660.754 634.635 657.425 635.978L656.732 635.332C656.122 632.912 656.401 630.41 656.506 627.936C659.91 626.822 663.252 625.349 666.584 624.025Z"/>
	<path fill="#F8C94F" d="M938.346 575.949C939.406 578.875 938.997 582.422 938.946 585.494L930.183 589.974C929.491 586.6 929.783 583.196 929.937 579.782C932.69 578.421 935.548 577.219 938.346 575.949Z"/>
	<path fill="#F8C94F" d="M653.414 619.003L654.177 619.653C654.845 621.925 654.561 624.397 654.494 626.743L644.106 630.605L643.267 630.152C642.613 627.852 642.928 625.384 643.029 623.017L653.414 619.003Z"/>
	<path fill="#F8C94F" d="M550.585 624.008C551.246 624.125 550.832 624.006 551.739 624.589C551.931 627.193 552.876 631.251 552.508 633.712C552.366 634.666 552.266 634.723 551.491 635.341C548.907 635.216 545.945 632.932 543.769 631.542C541.785 630.352 538.952 629.615 536.802 628.593C541.422 627.186 546.002 625.536 550.585 624.008Z"/>
	<path fill="#F8C94F" d="M653.379 585.028L654.158 585.71C654.808 588.231 654.504 590.927 654.417 593.511C651.08 594.417 647.882 595.741 644.663 596.99C642.883 595.007 643.627 591.024 643.758 588.494L653.379 585.028Z"/>
	<path fill="#F8C94F" d="M795.868 653.483C795.899 653.508 795.937 653.526 795.963 653.557C797.876 655.835 797.088 661.102 797.02 663.996L789.723 667.517C789.491 667.354 789.343 667.268 789.156 667.008C787.651 664.924 788.472 659.055 788.531 656.516C791.07 655.71 793.448 654.586 795.868 653.483Z"/>
	<path fill="#F8C94F" d="M652.928 608.506C653.669 608.616 653.222 608.49 654.174 609.133C654.893 611.495 654.562 614.133 654.486 616.579C651.195 617.579 647.975 618.927 644.76 620.15L644.462 620.215L643.657 619.695C643.068 617.202 643.392 614.527 643.496 611.983L652.928 608.506Z"/>
	<path fill="#F8C94F" d="M892.042 678.97C893.925 681.108 893.13 686.225 893.048 689.008L885.176 693.367C883.199 690.671 884.168 685.604 884.438 682.476C887.07 681.53 889.545 680.22 892.042 678.97Z"/>
	<path fill="#F8C94F" d="M679.886 575.563C681.026 577.945 680.515 581.581 680.461 584.18L670.644 587.955C669.112 586.166 669.908 581.276 670.029 578.974L679.886 575.563Z"/>
	<path fill="#F8C94F" d="M948.612 583.491C950.555 585.468 949.864 591.03 949.883 593.755C947.187 594.859 944.637 596.216 942.058 597.567L941.442 597.387C939.858 595.055 940.85 589.731 941.029 586.981C943.588 585.95 946.105 584.653 948.612 583.491Z"/>
	<path fill="#F8C94F" d="M666.498 603.513L667.179 604.147C667.861 606.701 667.562 609.42 667.478 612.043L657.602 615.627L656.808 615.079C656.143 612.56 656.443 609.883 656.532 607.299L666.498 603.513Z"/>
	<path fill="#F8C94F" d="M902.842 604.973L903.72 605.198C904.401 607.879 903.993 611.487 903.954 614.274C900.802 615.598 897.836 617.206 894.834 618.836C894.422 618.748 894.712 618.841 894.148 618.233C893.914 615.141 894.209 612.061 894.41 608.973C897.193 607.572 900.005 606.262 902.842 604.973Z"/>
	<path fill="#F8C94F" d="M640.063 633.996C641.754 635.925 641.119 639.806 641.035 642.266C637.451 643.554 633.963 645.005 630.466 646.511L629.754 645.802C629.178 643.358 629.438 640.813 629.524 638.319C633.082 636.998 636.567 635.471 640.063 633.996Z"/>
	<path fill="#F8C94F" d="M653.418 629.01L654.222 629.736C654.818 632.119 654.559 634.607 654.477 637.043C650.971 638.205 647.569 639.68 644.156 641.088C643.581 640.937 643.958 641.069 643.116 640.491C642.455 638.063 642.808 635.46 642.935 632.969C646.457 631.753 649.932 630.331 653.418 629.01Z"/>
	<path fill="#F8C94F" d="M640.886 623.54C641.822 626.059 641.272 629.14 641.08 631.771C637.402 633.009 633.824 634.521 630.232 635.985C628.853 634.042 629.451 630.153 629.522 627.83L640.886 623.54Z"/>
	<path fill="#F8C94F" d="M914.84 599.468C916.781 601.776 916.069 606.09 916.02 608.997L907.137 613.031C905.172 610.67 905.955 606.449 906.074 603.497C909.029 602.264 911.929 600.809 914.84 599.468Z"/>
	<path fill="#F8C94F" d="M926.865 594.008C926.939 594.08 927.026 594.141 927.088 594.224C928.719 596.422 927.754 601.447 927.532 604.039L919.135 607.596C918.785 607.475 918.506 607.202 918.202 606.99C917.652 604.06 917.962 600.975 918.058 598.007C921.023 596.768 923.938 595.34 926.865 594.008Z"/>
	<path fill="#F8C94F" d="M938.101 588.494C939.84 590.754 939.087 595.908 939.021 598.718L930.663 602.653L929.79 601.809C929.235 598.728 929.55 595.564 929.68 592.449L938.101 588.494Z"/>
	<path fill="#F8C94F" d="M795.349 638.984L796.141 639.049C798.016 641.521 797.082 646.961 796.978 649.992L789.734 653.257L789.258 653.281C787.708 651.041 788.455 644.872 788.499 641.978L795.349 638.984Z"/>
	<path fill="#F8C94F" d="M914.242 586.407C915.092 586.388 914.625 586.314 915.604 586.8C916.226 589.905 915.918 593.378 915.872 596.546L908.213 600.071L907.233 600.341L906.646 599.758C906.133 596.758 906.431 593.607 906.518 590.573C908.996 588.718 911.404 587.584 914.242 586.407Z"/>
	<path fill="#F8C94F" d="M926.963 581.016C928.471 583.54 927.763 588.173 927.66 591.031L919.153 595.212C919.025 595.138 918.873 595.094 918.768 594.989C917.048 593.28 918.245 586.997 918.466 584.77L926.963 581.016Z"/>
	<path fill="#F8C94F" d="M847.559 713.973C849.28 715.839 848.551 720.516 848.481 722.988L838.623 728.008C836.804 725.687 837.667 721.584 837.864 718.802C841.118 717.24 844.334 715.596 847.559 713.973Z"/>
	<path fill="#F8C94F" d="M640.496 613.008L641.242 613.702C641.84 616.306 641.578 618.951 641.471 621.601C637.666 622.67 634.08 623.979 630.427 625.486C628.799 623.74 629.452 619.612 629.517 617.316L640.496 613.008Z"/>
	<path fill="#F8C94F" d="M666.88 580.022C668.621 582.371 667.737 586.404 667.504 589.206C664.274 590.515 660.923 591.495 657.6 592.538L656.816 591.958C656.162 589.398 656.475 586.593 656.543 583.967C660.009 582.72 663.439 581.337 666.88 580.022Z"/>
	<path fill="#F8C94F" d="M859.543 694.567C861.245 697.097 860.421 701.885 860.276 704.814L851.731 709.064C851.31 708.861 851.05 708.54 850.721 708.214C850.155 705.127 850.437 701.921 850.523 698.796C853.563 697.477 856.546 695.984 859.543 694.567Z"/>
	<path fill="#F8C94F" d="M820.995 726.949C822.845 729.037 822.08 733.544 821.989 736.242C818.677 737.852 815.424 739.598 812.157 741.299C812.046 741.175 811.916 741.065 811.824 740.926C810.422 738.836 811.311 734.13 811.5 731.686L820.995 726.949Z"/>
	<path fill="#F8C94F" d="M903.07 591.444L903.859 591.481C905.012 593.483 904.274 599.268 904.216 601.718L895.648 605.708L894.808 605.636C893.976 602.639 894.487 598.638 894.535 595.501C897.318 594.011 900.194 592.739 903.07 591.444Z"/>
	<path fill="#F8C94F" d="M725.693 620.817L735.677 625.029L735.592 635.515L725.713 631.482L725.693 620.817Z"/>
	<path fill="#F8C94F" d="M845.076 631.487L845.838 632.282C846.448 635.485 846.103 638.787 845.951 642.022L837.518 646.057C837.222 645.902 836.882 645.47 836.644 645.228C836.168 641.939 836.409 638.594 836.499 635.281L845.076 631.487Z"/>
	<path fill="#F8C94F" d="M857.898 625.966C859.22 627.555 858.479 633.843 858.454 636.177C855.314 637.45 852.272 639.034 849.223 640.512L848.599 640.134C847.76 637.387 848.385 633.123 848.461 630.192C851.665 628.949 854.777 627.408 857.898 625.966Z"/>
	<path fill="#F8C94F" d="M891.843 610.015C892.749 611.544 892.377 617.414 892.652 619.653C889.512 621.508 886.431 623.1 883.061 624.497L882.229 624.163C881.63 621.205 881.977 617.787 882.034 614.764L891.843 610.015Z"/>
	<path fill="#F8C94F" d="M891.805 596.559C893.112 599.645 892.37 603.981 892.16 607.235C889.228 608.65 886.164 609.873 883.178 611.179C881.563 608.799 882.357 603.781 882.46 600.997L891.805 596.559Z"/>
	<path fill="#F8C94F" d="M640.553 589.525L641.225 590.232C641.826 592.848 641.577 595.53 641.49 598.196L630.61 602.144L629.812 601.484C629.165 599.018 629.45 596.367 629.52 593.837L640.553 589.525Z"/>
	<path fill="#F8C94F" d="M750.868 631.558C754.471 632.779 757.977 634.342 761.491 635.797L761.494 645.76L750.976 641.759L750.868 631.558Z"/>
	<path fill="#F8C94F" d="M725.822 634.536L736.127 638.839L736.099 649.306L725.878 644.951L725.822 634.536Z"/>
	<path fill="#F8C94F" d="M763.538 636.25L773.564 640.271L773.765 650.375C770.447 650.409 766.474 648.019 763.537 646.637L763.538 636.25Z"/>
	<path fill="#F8C94F" d="M712.925 629.567C716.563 630.567 720.002 632.049 723.484 633.487L723.485 643.747C720.055 642.187 716.513 640.876 713 639.518L712.925 629.567Z"/>
	<path fill="#F8C94F" d="M591.218 631.464L592.195 632.057C592.865 634.464 592.573 637.067 592.502 639.546C588.542 640.861 584.759 642.398 580.942 644.081C580.53 643.928 580.219 643.578 579.888 643.293C579.135 640.985 579.449 638.356 579.499 635.95C583.459 634.7 587.348 632.979 591.218 631.464Z"/>
	<path fill="#F8C94F" d="M713.01 615.776L723.106 619.798C723.152 623.345 723.093 626.9 723.085 630.448L713.044 626.515L713.01 615.776Z"/>
	<path fill="#F8C94F" d="M834.885 720.005C836.216 721.965 835.517 726.82 835.458 729.181C831.904 731.233 828.348 733.122 824.625 734.85C823.967 731.691 824.271 728.649 824.491 725.458C827.892 723.465 831.315 721.679 834.885 720.005Z"/>
	<path fill="#F8C94F" d="M738.042 626.075L748.493 630.441C748.53 633.858 748.65 637.275 748.746 640.692C745.607 640.372 741.068 637.761 738.039 636.53L738.042 626.075Z"/>
	<path fill="#F8C94F" d="M847.356 700.493C848.999 703.03 848.277 707.8 848.185 710.724C845.064 712.234 842.024 713.913 838.969 715.551L838.156 714.71C837.641 711.513 837.906 708.264 838.015 705.039L847.356 700.493Z"/>
	<path fill="#F8C94F" d="M679.456 586.55C681.12 588.824 680.179 594.106 680.018 596.816L670.441 600.46C668.579 598.331 669.605 592.693 669.773 589.994L679.456 586.55Z"/>
	<path fill="#F8C94F" d="M807.281 648.402L808.009 648.391C809.855 650.6 809.044 655.899 808.973 658.71L800.205 662.694L799.631 662.753C797.941 660.579 798.815 655 798.919 652.256L807.281 648.402Z"/>
	<path fill="#F8C94F" d="M844.343 617.487L845.337 617.557C847.012 619.514 846.089 625.877 845.993 628.554L837.74 632.197L837.221 632.233C835.68 630.197 836.449 623.752 836.506 620.989L844.343 617.487Z"/>
	<path fill="#F8C94F" d="M763.897 649.597C767.265 650.694 770.599 652.19 773.904 653.481C774.189 657.132 774.358 660.786 774.533 664.444C770.997 663.284 767.506 661.85 764.014 660.555L763.897 649.597Z"/>
	<path fill="#F8C94F" d="M832.817 636.97C833.503 637.196 833.115 637.001 833.85 637.762C834.382 640.961 834.133 644.277 834.072 647.511L825.179 651.518L824.682 651.324C822.996 649.108 823.824 643.785 823.903 641.028L832.817 636.97Z"/>
	<path fill="#F8C94F" d="M751.002 644.755C754.682 646.046 758.328 647.453 761.986 648.807L761.973 659.474L751.551 655.194C751.479 651.718 751.2 648.227 751.002 644.755Z"/>
	<path fill="#F8C94F" d="M604.393 626.35L606.545 625.721C607.429 626.354 607.515 626.382 607.689 627.425C608.005 629.324 607.534 631.757 607.364 633.688C602.899 635.421 598.47 637.222 594.047 639.058L594.146 630.477C597.599 629.227 600.992 627.738 604.393 626.35Z"/>
	<path fill="#F8C94F" d="M819.875 628.479L820.835 628.501C822.402 630.681 821.537 636.311 821.446 638.997L812.739 643.244L812.401 643.287L811.655 642.679C811.067 639.341 811.354 635.874 811.438 632.501L819.875 628.479Z"/>
	<path fill="#F8C94F" d="M807.265 633.902L807.887 633.938C809.711 636.315 808.928 642.079 808.888 644.981L800.697 648.537L799.772 648.693C797.93 646.325 798.963 640.547 799.133 637.515L807.265 633.902Z"/>
	<path fill="#F8C94F" d="M820.557 642.472C822.474 644.627 821.578 650.257 821.486 653.028L811.894 657.507L811.155 656.723C810.582 653.545 810.917 650.188 811.034 646.974C814.254 645.655 817.41 643.969 820.557 642.472Z"/>
	<path fill="#F8C94F" d="M653.047 595.999L653.479 596.116C655.255 598.4 654.52 603.2 654.457 606.027L645.106 609.565C644.271 609.468 644.306 609.289 643.743 608.714C643.171 605.627 643.484 602.414 643.592 599.289L653.047 595.999Z"/>
	<path fill="#F8C94F" d="M857.542 611.992C859.501 614.097 858.541 620.24 858.454 623.009L849.616 627.024C849.065 626.805 849.442 626.989 848.643 626.224C848.086 622.813 848.372 619.235 848.461 615.788L857.542 611.992Z"/>
	<path fill="#F8C94F" d="M666.537 591.026C666.564 591.044 666.596 591.057 666.618 591.081C668.538 593.216 667.568 598.978 667.463 601.765C664.187 602.744 660.946 603.87 657.699 604.944C655.831 602.541 656.705 597.441 656.803 594.476L666.537 591.026Z"/>
	<path fill="#F8C94F" d="M833.015 622.47C835.101 625.033 834.197 630.343 834.095 633.505C830.905 634.784 827.783 636.334 824.654 637.761C822.773 635.524 823.735 629.255 823.863 626.487C827.027 625.342 829.996 623.95 833.015 622.47Z"/>
	<path fill="#32D4C9" d="M165.425 575.581C171.874 572.275 179.916 569.278 186.979 567.794L187.056 568.688C181.486 572.929 173.547 573.396 167.519 576.65L144.923 585.283C140.82 587.006 135.023 590.22 130.73 590.812L130.739 590.333C131.49 590.076 132.166 589.887 132.813 589.411C132.943 589.316 133.05 589.185 133.193 589.113C133.872 588.772 134.272 588.661 134.891 588.22L131.661 588.995L130.925 588.708C134.227 586.368 140.114 584.974 144 583.559C150.452 580.219 158.521 577.958 165.425 575.581Z"/>
	<path fill="#F8C94F" d="M737.943 639.487L749.288 644.09L749.539 654.491C745.725 652.93 741.859 651.489 738.012 650.012L737.943 639.487Z"/>
	<path fill="#F8C94F" d="M834.86 706.502C836.373 708.906 835.556 714.196 835.467 717.014C831.99 718.617 828.606 720.464 825.204 722.224C823.628 719.461 824.421 714.63 824.532 711.507L834.86 706.502Z"/>
	<path fill="#F8C94F" d="M821.41 712.499C823.197 714.857 822.365 720.68 822.286 723.495L812.397 728.304L811.68 727.7C811.158 724.318 811.458 720.785 811.57 717.37L821.41 712.499Z"/>
	<path fill="#F8C94F" d="M591.422 620.022C592.91 622.383 592.427 625.996 592.375 628.708C588.336 630.466 584.196 632.039 580.11 633.691C579.998 633.586 579.869 633.495 579.773 633.375C578.317 631.56 578.844 627.092 578.862 624.832C583.003 623.131 587.237 621.614 591.422 620.022Z"/>
	<path fill="#FEFEFE" d="M864.596 649.229C865.727 650.107 865.767 650.977 865.943 652.302C866.802 658.804 867.261 680.269 866.124 686.399C865.942 687.377 865.404 688.044 864.807 688.808C864.758 688.78 864.704 688.76 864.659 688.726C863.839 688.1 863.762 688.134 863.52 687.059C862.312 681.683 862.119 652.969 864.596 649.229Z"/>
	<path fill="#F8C94F" d="M607.504 614.022L608.175 614.674C608.812 617.229 608.518 619.944 608.434 622.558C603.912 624.198 599.482 626.144 595.035 627.979C593.258 625.935 593.949 621.559 594.032 619L607.504 614.022Z"/>
	<path fill="#F8C94F" d="M640.828 600.008C642.403 602.57 641.567 607.82 641.469 610.751C637.67 612.05 633.936 613.542 630.19 614.987C628.573 612.639 629.444 607.078 629.539 604.293C633.343 602.981 637.08 601.47 640.828 600.008Z"/>
	<path fill="#F8C94F" d="M808.492 733.026C810.039 735.417 809.361 739.717 809.261 742.492C805.105 744.548 800.907 746.525 796.727 748.533C794.85 746.522 795.544 741.989 795.58 739.342C799.927 737.329 804.203 735.161 808.492 733.026Z"/>
	<path fill="#F8C94F" d="M808.511 718.943L809.324 719.788C809.795 722.986 809.546 726.283 809.474 729.507L796.599 735.991C794.742 733.526 795.433 728.895 795.477 725.948C799.563 723.215 804.124 721.149 808.511 718.943Z"/>
	<path fill="#FEFEFE" d="M948.052 664.984L948.68 665.598C949.264 667.909 948.982 670.357 948.891 672.722C944.95 674.816 934.392 681.479 930.512 681.294L930.032 680.502L929.975 673.18C932.331 672.023 935.119 670.234 937.742 670.015C938.192 671.206 938.582 672.225 939.289 673.294C940.416 672.103 940.703 670.201 941.156 668.63C943.348 667.179 945.683 666.106 948.052 664.984Z"/>
	<path fill="#0201F2" d="M696.304 558.141C698.017 558.589 698.489 558.627 699.78 559.915C701.416 564.848 700.717 571.545 700.773 576.746C700.91 589.452 700.433 602.5 701.177 615.158L701.226 617.026C701.804 621.975 702.673 629.812 701.018 634.503C700.063 634.993 700.466 634.934 699.889 634.971C699.318 629.132 699.528 623.019 699.402 617.145L698.955 615.255L698.961 613.793C698.716 606.139 697.852 566.78 699.148 562.286C698.342 561.094 698.195 560.616 696.839 560.049L696.304 558.141Z"/>
	<path fill="#F8C94F" d="M616.499 642.477L617.207 642.979C617.896 645.158 617.589 647.562 617.511 649.823C610.96 652.304 604.416 654.798 597.824 657.166L592.249 654.507C591.385 654.123 591.245 654.015 590.583 653.256C593.842 650.902 601.361 648.376 605.452 647.577C606.96 647.282 607.325 647.927 608.493 648.767C608.942 648.307 609.252 647.93 609.485 647.321C609.676 646.822 609.827 646.249 610.082 645.778C610.966 644.147 614.781 643.152 616.499 642.477Z"/>
	<path fill="#FEFEFE" d="M864.026 563.841L864.707 564.059C865.371 565.557 865.58 601.316 864.945 603.701C864.508 605.341 863.588 605.561 862.25 606.367C861.452 606.341 861.867 606.463 861.093 605.779C860.855 601.855 860.534 568.541 861.059 566.727C861.558 565.003 862.588 564.691 864.026 563.841Z"/>
	<path fill="#14BDAB" d="M788.482 513.998C793.825 515.512 799.166 518.084 804.373 520.069C815.371 524.263 827.822 527.715 837.816 533.959L837.6 534.282L834.896 533.47C826.748 530.957 818.746 528.035 810.568 525.603C801.028 522.767 791.33 520.4 781.873 517.304C784.039 516.136 786.275 515.086 788.482 513.998Z"/>
	<path fill="#FEFEFE" d="M614.418 573.517C621.581 576.162 629.313 578.707 636.056 582.279C637.275 582.924 638.454 583.467 638.857 584.833L637.808 585.592L630.795 588.224C625.348 585.847 619.842 583.688 614.292 581.564C614.258 578.885 614.363 576.196 614.418 573.517Z"/>
	<path fill="#F8C94F" d="M575.624 626.022L576.29 626.606C576.944 629.278 576.924 632.087 577.057 634.825C572.103 636.643 567.291 638.593 562.483 640.769L557.814 638.48C556.422 637.806 555.067 636.935 553.723 636.164C560.172 631.156 568.116 628.952 575.624 626.022Z"/>
	<path fill="#FEFEFE" d="M880.427 641.898L881.462 642.08C882.77 644.785 882.432 674.141 881.385 678.473C880.954 680.255 879.909 680.618 878.474 681.537C878.394 681.476 878.304 681.426 878.235 681.353C876.672 679.684 876.641 648.027 877.436 644.37C877.744 642.953 879.258 642.561 880.427 641.898Z"/>
	<path fill="#FEFEFE" d="M879.522 556.857L880.349 557.182C881.426 559.933 881.246 592.873 880.369 596.462C879.99 598.009 878.73 598.511 877.513 599.4L876.862 598.84C876.029 594.212 875.581 564.06 876.451 559.478C876.747 557.924 878.253 557.574 879.522 556.857Z"/>
	<path fill="#E4DFD6" d="M209.01 523.68C213.17 535.898 214.338 561.304 214.108 574.406C212.38 573.841 210.696 572.96 209.034 572.216C208.915 556.144 208.022 539.709 209.01 523.68Z"/>
	<path fill="#F8C94F" d="M606.436 636.548C607.984 638.391 607.513 641.646 607.49 643.923C601.604 646.473 594.773 650.25 588.43 651.203C585.936 651.578 584.774 651.014 582.773 649.552L579.631 647.486C588.029 642.921 597.501 639.924 606.436 636.548Z"/>
	<path fill="#F8C94F" d="M574.01 614.974L574.858 614.841C576.915 616.826 576.47 620.86 576.557 623.579C569.587 625.957 562.72 628.982 555.86 631.684L555.066 631.221C554.099 628.577 553.727 625.757 553.232 622.993C560.21 620.515 567.099 617.644 574.01 614.974Z"/>
	<path fill="#FEFEFE" d="M705.333 567.145C707.103 567.594 708.851 568.228 710.592 568.782C710.647 582.891 711.047 597.111 710.435 611.204L705.321 609.579L705.333 567.145Z"/>
	<path fill="#FEFEFE" d="M696.839 560.049C694.44 560.227 691.777 559.403 689.46 558.802C679.926 556.327 670.639 552.161 661.364 548.832C649.684 544.64 638.278 540.226 626.77 535.619C623.394 534.268 619.576 533.263 616.38 531.565C615.333 531.009 614.978 530.699 614.404 529.714L614.923 528.993C619.595 529.251 640.275 538.365 646.577 540.644C663.089 546.616 679.907 551.884 696.304 558.141L696.839 560.049Z"/>
	<path fill="#252C6A" d="M699.148 562.286C697.852 566.78 698.716 606.139 698.961 613.793L698.955 615.255L699.402 617.145C699.528 623.019 699.318 629.132 699.889 634.971L694.587 632.024C696.729 625.866 695.51 596.291 695.536 587.775C695.026 579.874 694.821 571.811 696.451 564.02C697.76 563.633 698.247 563.311 699.148 562.286Z"/>
	<path fill="#F8C94F" d="M607.535 602.523L608.178 603.178C608.858 605.876 608.541 608.816 608.474 611.581C603.617 613.216 598.844 615.033 594.061 616.871C593.628 613.87 593.042 610.993 592.292 608.055L592.107 617.558L585.379 619.772C583.091 620.608 580.841 621.566 578.581 622.477L578.091 613.441C588.04 610.148 597.796 606.383 607.535 602.523Z"/>
	<path fill="#FEFEFE" d="M948.372 610.485L949.41 610.802C951.224 616.403 949.315 641.92 948.963 649.038C946.787 650.28 944.514 651.36 942.274 652.482L941.503 652.03C939.664 645.863 941.752 621.537 942.109 613.264L948.372 610.485Z"/>
	<path fill="#FEFEFE" d="M614.354 562.793C623.238 566.36 648.684 574.83 654.922 579.156C654.418 580.171 652.796 580.499 651.75 580.938L643.203 583.952C634.379 578.454 623.912 575.295 614.172 571.763C614.098 568.771 614.242 565.783 614.354 562.793Z"/>
	<path fill="#FEFEFE" d="M938.407 615.021C939.995 616.867 938.502 649.241 938.485 653.982C935.949 655.199 933.379 656.348 930.821 657.517C928.853 647.326 930.593 629.318 931.016 618.245L938.407 615.021Z"/>
	<path fill="#FEFEFE" d="M948.877 525.976C950.421 528.252 949.535 562.117 949.507 567.568L942.191 570.479C940.194 567.515 941.875 534.876 942.029 529.485L948.877 525.976Z"/>
	<path fill="#FEFEFE" d="M892.428 636.5C894.146 639.046 893.095 668.817 893.101 674.71L885.644 678.24L885 677.887C883.234 672.871 884.64 646.502 884.862 640.035L892.428 636.5Z"/>
	<path fill="#FEFEFE" d="M915.542 625.517C915.609 625.586 915.691 625.642 915.744 625.722C917.832 628.883 916.115 658.735 915.956 664.333L908.593 667.535L908.156 667.16C906.043 662.515 907.785 636.513 908.023 629.305L915.542 625.517Z"/>
	<path fill="#FEFEFE" d="M926.608 620.402L927.56 620.739C929.299 627.882 927.732 650.716 927.508 659.039L920.206 662.218L919.373 662.187C917.898 658.862 919.06 629.696 919.109 624.028L926.608 620.402Z"/>
	<path fill="#FEFEFE" d="M845.891 658.969C846.471 658.988 846.099 658.933 846.944 659.375C848.587 666.613 847.517 687.805 847.501 696.565L839.71 700.642C839.136 700.46 839.495 700.61 838.715 700.03C837.083 690.653 838.381 672.571 838.518 662.493L845.891 658.969Z"/>
	<path fill="#FEFEFE" d="M795.467 592.476L796.144 593.128C796.993 597.702 796.483 603.015 796.484 607.687L796.492 634.688L789.222 638.048C786.672 635.156 788.139 602.169 788.259 595.501L795.467 592.476Z"/>
	<path fill="#FEFEFE" d="M904.349 630.988C906.391 635.117 904.946 662.94 904.83 669.386L896.195 673.265C894.599 666.573 895.708 643.867 895.662 635.039L904.349 630.988Z"/>
	<path fill="#FEFEFE" d="M938.831 530.557C941.016 535.753 938.793 564.766 938.526 572.039C935.959 573.25 933.347 574.372 930.752 575.524C928.725 566.132 930.571 544.394 931.006 534.001L938.831 530.557Z"/>
	<path fill="#FEFEFE" d="M926.777 535.917C927.287 535.934 926.921 535.897 927.821 536.279C928.426 542.279 927.905 548.571 927.73 554.597C927.517 561.965 927.502 569.331 927.49 576.7L919.682 580.272C919.149 580.342 919.491 580.35 918.709 579.95C918.081 575.402 918.5 570.273 918.562 565.673L919.022 539.467C921.636 538.375 924.202 537.099 926.777 535.917Z"/>
	<path fill="#FEFEFE" d="M844.425 572.507C846.52 575.05 845.529 608.026 845.513 613.354C842.916 614.566 840.269 615.672 837.637 616.806C835.347 614.077 836.574 581.752 836.621 575.816L844.425 572.507Z"/>
	<path fill="#FEFEFE" d="M774.554 593.08C777.64 594.038 780.558 595.485 783.495 596.818L783.39 639.45C780.659 638.722 777.977 637.697 775.301 636.785C774.504 622.204 774.513 607.677 774.554 593.08Z"/>
	<path fill="#FEFEFE" d="M891.497 551.467C893.887 554.032 892.491 586.238 892.419 592.251L883.901 595.993L883.505 595.612C881.954 590.78 883.405 562.401 883.498 554.988L891.497 551.467Z"/>
	<path fill="#FEFEFE" d="M902.772 546.39L903.856 546.563C905.838 550.481 904.106 581.151 903.974 587.546L896.65 590.785L895.685 590.788C893.631 585.531 895.108 557.119 895.221 549.749L902.772 546.39Z"/>
	<path fill="#FEFEFE" d="M914.883 541.486L915.704 541.606C917.224 543.932 915.984 576.517 915.958 582.305L908.106 585.626L907.096 585.25C905.171 580.108 906.923 551.847 907.099 544.803L914.883 541.486Z"/>
	<path fill="#FEFEFE" d="M858.952 652.964L859.705 653.664C860.566 657.86 860.087 662.703 860.13 666.996L860.437 690.462C857.575 691.944 854.612 693.231 851.679 694.564L850.873 694.35C848.576 689.374 849.938 663.997 850.018 657.037L858.952 652.964Z"/>
	<path fill="#FEFEFE" d="M820.34 670.482L821.193 670.592C823.56 674.817 822.14 702.211 822.078 708.55L813.647 712.909C812.838 713.171 813.262 713.175 812.381 712.764C810.664 702.08 812.158 685.227 812.502 673.998L820.34 670.482Z"/>
	<path fill="#FEFEFE" d="M808.424 675.978C809.088 676.048 808.713 675.946 809.485 676.459C810.253 689.204 809.593 702.251 809.454 715.023L800.463 719.363C800.445 719.345 800.423 719.331 800.409 719.311C798.219 716.127 799.507 685.687 799.569 680.008L808.424 675.978Z"/>
	<path fill="#FEFEFE" d="M725.489 574.314L735.181 578.506L735.169 621.253L725.974 617.215L725.489 574.314Z"/>
	<path fill="#FEFEFE" d="M614.46 552.549C631.021 560.022 648.424 564.978 665.094 571.987C666.381 572.528 667.771 572.957 668.659 574.083C668.195 574.942 667.748 574.937 666.886 575.34C664.101 576.232 661.298 577.065 658.497 577.907L614.384 561.053L614.46 552.549Z"/>
	<path fill="#FEFEFE" d="M713.102 569.727L722.545 573.243L723.152 616.271L713.44 612.495L713.102 569.727Z"/>
	<path fill="#FEFEFE" d="M807.874 587.525C810.013 591.377 808.555 623.468 808.484 629.549L799.973 633.372C799.915 633.319 799.841 633.28 799.8 633.214C797.743 629.891 798.969 597.152 799.011 591.247C801.894 589.882 804.923 588.744 807.874 587.525Z"/>
	<path fill="#FEFEFE" d="M762.513 588.768L771.989 591.985L772.223 635.658C769.077 634.643 765.981 633.459 762.877 632.323C762.418 617.812 762.511 603.284 762.513 588.768Z"/>
	<path fill="#FEFEFE" d="M750.5 584.098C753.581 585.088 756.625 586.333 759.665 587.448C760.368 601.989 760.028 616.649 760.003 631.204C756.899 629.829 753.691 628.695 750.511 627.509L750.5 584.098Z"/>
	<path fill="#FEFEFE" d="M819.919 582.486L820.428 582.775C821.919 585.495 820.974 618.644 820.946 624.354C818.087 625.658 815.119 626.781 812.21 627.971C809.941 624.474 811.177 592.041 811.208 586.02L819.919 582.486Z"/>
	<path fill="#FEFEFE" d="M857.429 567.021C859.575 569.636 858.439 602.195 858.449 607.977L849.125 612.011C847.098 608.982 848.024 576.649 848.037 571.018L857.429 567.021Z"/>
	<path fill="#FEFEFE" d="M834.573 663.922C834.912 663.981 835.191 664.229 835.49 664.4C837.153 672.23 835.61 693.409 835.471 702.547L826.118 707.031L825.651 706.657C823.344 701.292 824.851 675.838 824.986 668.486L834.573 663.922Z"/>
	<path fill="#FEFEFE" d="M738.021 579.773L747.748 583.281C748.249 597.675 748.013 612.054 747.77 626.45C744.441 625.698 741.171 624.057 738.025 622.729L738.021 579.773Z"/>
	<path fill="#FEFEFE" d="M832.268 577.427C832.98 577.336 832.56 577.316 833.494 577.727C835.222 588.675 834.042 606.516 833.972 618.055L824.769 622.524L824.165 622.299C822.068 618.443 823.37 587.172 823.469 580.949C826.429 579.885 829.347 578.599 832.268 577.427Z"/>
	<path fill="#14BDAB" d="M713.654 547.94C723.468 549.479 732.745 553.581 742.249 556.376C761.006 561.892 780.089 566.835 798.627 573.023L793.123 575.22L787.687 577.186C770.432 571.677 753.44 565.297 736.371 559.239C729.955 556.961 716.411 553.399 711.433 549.811C711.77 548.676 712.658 548.508 713.654 547.94Z"/>
	<path fill="#FEFEFE" d="M614.52 541.752C628.945 547.818 643.443 553.623 658.087 559.14C665.163 561.806 672.456 564.001 679.442 566.883C680.937 567.5 683.128 568.176 683.948 569.627L682.395 570.437L672.487 573.607C663.372 568.112 652.395 565.228 642.423 561.613C633.067 558.222 623.842 554.469 614.485 551.066L614.52 541.752Z"/>
	<path fill="#14BDAB" d="M946.748 515.885L947.702 516.081C948.948 517.31 949.058 519.082 949.397 520.73C941.796 526.312 932.577 530.04 924.025 533.946C909.025 540.799 893.77 547.139 878.621 553.655C877.562 553.974 877.512 554.21 876.449 553.753C875.543 551.621 875.922 549.039 875.989 546.758C899.501 536.31 923.357 526.584 946.748 515.885Z"/>
	<path fill="#E4DFD6" d="M194.836 504.028C198.114 503.975 201.398 503.854 204.672 504.049C204.495 526.23 205.278 548.485 205.495 570.674C202.282 569.13 199.098 567.521 195.903 565.941C196.029 545.31 195.379 524.651 194.836 504.028Z"/>
	<path fill="#14BDAB" d="M949.353 597.999C950.483 600.022 950.036 603.667 950.035 605.947C925.922 617.575 901.406 628.5 877.222 640.017C876.415 637.313 876.499 634.524 876.461 631.729C900.475 619.724 924.789 608.82 949.353 597.999Z"/>
	<path fill="#FEFEFE" d="M614.5 533.061C632.274 540.563 650.322 547.176 668.46 553.724C676.291 556.551 689.948 559.857 696.451 564.02C694.821 571.811 695.026 579.874 695.536 587.775C695.51 596.291 696.729 625.866 694.587 632.024C694.086 630.688 693.728 629.391 693.615 627.958C693.198 622.655 693.882 617.113 693.994 611.791C694.185 602.734 694.061 593.685 694.305 584.623C694.408 580.788 695.294 574.444 694.002 570.875C693.904 570.604 693.786 570.34 693.65 570.086C692.809 568.506 688.577 568.025 686.967 567.644C680.788 566.181 674.546 562.811 668.546 560.58L614.476 539.996L614.5 533.061Z"/>
	<path fill="#14BDAB" d="M864.722 637.46L865.591 637.955C866.325 640.077 866.043 642.694 866.037 644.929C853.983 650.883 805.593 675.721 795.262 676.971L794.693 675.971C793.287 674.224 791.555 672.721 789.932 671.177C815.077 660.536 839.848 648.74 864.722 637.46Z"/>
	<path fill="#FEFEFE" d="M220.956 511.728L231.513 515.908L231.516 582.293C228.463 580.712 225.154 579.425 222.011 578.016L220.956 511.728Z"/>
	<path fill="#14BDAB" d="M864.107 551.519L864.77 552.149C865.562 554.631 865.501 557.129 865.543 559.704C839.82 569.732 814.426 580.761 788.931 591.369C788.701 591.241 788.275 590.707 788.087 590.507C787.521 587.795 787.789 585.111 787.935 582.366C798.341 577.018 809.448 573.654 820.33 569.471C835.049 563.813 849.587 557.663 864.107 551.519Z"/>
	<path fill="#FEFEFE" d="M219.922 431.11C223.621 431.973 227.294 433.008 230.971 433.965C231.633 441.437 231.554 449.018 231.774 456.518C232.179 470.32 232.526 484.103 232.541 497.912C228.559 496.48 224.591 495.173 220.514 494.04L219.922 431.11Z"/>
	<path fill="#FEFEFE" d="M297.767 454.784L309.362 458.307L310.208 524.442L299.277 520.553C299.034 498.637 298.117 476.707 297.767 454.784Z"/>
	<path fill="#14BDAB" d="M780.539 520.036C808.353 526.574 835.029 537.994 861.859 547.668L855.693 550.17C852.408 549.394 849.154 548.412 845.901 547.509C825.911 541.775 805.64 536.721 785.211 532.802C776.995 531.225 768.701 530.118 760.458 528.702C767.193 525.91 773.862 522.963 780.539 520.036Z"/>
	<path fill="#14BDAB" d="M705.001 553.744C731.556 561.957 757.034 573.804 783.512 582.349L783.502 592.8C773.645 588.494 763.407 585.142 753.365 581.315C737.33 575.203 721.391 568.793 705.032 563.58L705.001 553.744Z"/>
	<path fill="#FEFEFE" d="M382.715 480.788C386.853 481.98 390.936 483.576 395.007 484.99L394.986 553.921C391.115 552.797 387.28 551.097 383.502 549.672L382.715 480.788Z"/>
	<path fill="#FEFEFE" d="M299.698 540.509L310.731 544.41C311.694 569.337 312.08 594.338 312.493 619.283C308.716 617.396 304.883 615.682 301.013 613.994C300.41 589.524 299.697 564.984 299.698 540.509Z"/>
	<path fill="#FEFEFE" d="M384.772 571.224L395.314 575.318C395.528 603.378 395.891 631.476 395.623 659.535C392.165 658.666 389.157 657.236 385.994 655.641L384.772 571.224Z"/>
	<path fill="#0201F2" d="M356.839 288.075L357.33 288.456C343.97 295.617 329.912 301.643 316.198 308.104L248.773 339.853C231.648 347.796 214.497 355.366 198.129 364.815C194.749 363.825 191.292 363.027 187.879 362.153L182.481 360.503C202.67 354.011 223.787 343.668 243.565 335.422L356.839 288.075Z"/>
	<path fill="#14BDAB" d="M745.948 535.005C756.118 537.221 765.96 541.257 776.049 543.886C796.197 549.136 816.631 553.194 836.888 557.98C832.216 559.861 827.427 561.534 822.707 563.298C809.341 565.003 749.422 545.958 732.04 540.947L745.948 535.005Z"/>
	<path fill="#14BDAB" d="M730.674 541.445C745.201 546.189 760.008 550.813 774.802 554.631C789.573 558.443 804.521 561.531 819.277 565.362C814.494 566.903 809.833 568.796 805.155 570.624L800.064 572.193C784.178 567.807 768.411 562.908 752.622 558.183C740.706 554.618 728.461 551.497 716.999 546.635C721.617 545.109 726.14 543.21 730.674 541.445Z"/>
	<path fill="#14BDAB" d="M759.154 529.478C769.907 531.988 780.813 533.644 791.615 535.903C812.785 540.33 833.677 545.269 854.611 550.704C850.554 552.507 846.425 554.152 842.317 555.836C840.783 556.374 839.333 556.883 837.687 556.731C830.1 556.033 822.431 553.194 814.991 551.478C801.069 548.267 787.142 545.174 773.289 541.668C764.915 539.549 756.081 537.634 748.237 533.952C751.766 532.201 755.474 530.87 759.154 529.478Z"/>
	<path fill="#F8C94F" d="M194.024 393.143L205.724 396.553C205.381 416.336 204.817 436.132 204.747 455.917C204.689 471.927 205.165 488.055 204.672 504.049C201.398 503.854 198.114 503.975 194.836 504.028C194.298 489.458 194.513 474.823 194.42 460.241L194.024 393.143Z"/>
	<path fill="#0201F2" d="M376.265 283.088C380.84 282.902 385.44 283.123 390.015 283.242C374.355 292.487 357.591 300.7 341.331 308.86C314.654 322.249 287.771 335.231 260.886 348.196C253.252 351.878 245.708 355.698 238.171 359.573C231.139 363.189 224.158 367.207 216.552 369.483L201.939 365.457C216.675 358.853 231.15 351.575 245.754 344.677C289.231 324.142 332.578 303.157 376.265 283.088Z"/>
	<path fill="#0201F2" d="M397.544 284.07C403.295 284 409.177 284.307 414.853 285.25C385.49 298.911 357.125 314.657 328.324 329.437C298.825 344.576 268.862 358.779 239.691 374.557C234.328 374.422 227.951 371.938 222.735 370.534C235.622 364.736 248.151 358.055 260.877 351.901C290.182 337.732 319.461 323.521 348.525 308.86C364.821 300.639 380.899 291.538 397.544 284.07Z"/>
	<path fill="#F8C94F" d="M519.584 626.041C530.407 631.507 541.439 636.527 552.484 641.526L553.328 642.069C547.002 646.438 492.211 666.696 483.615 668.69L482.896 668.402C477.624 665.827 472.44 663.064 467.236 660.354L465.809 659.922C460.815 657.049 455.493 654.618 450.335 652.044C472.97 642.549 496.293 633.732 519.584 626.041Z"/>
	<path fill="#FEFEFE" d="M465.809 659.922C468.832 656.763 479.998 654.914 484.545 653.291C493.987 649.921 503.362 646.288 512.583 642.355C520.206 639.105 528.041 635.209 536.025 632.939C525.295 641.011 481.374 657.082 467.236 660.354L465.809 659.922Z"/>
	<path fill="#FEFEFE" d="M552.484 641.526L553.328 642.069C547.002 646.438 492.211 666.696 483.615 668.69L482.896 668.402C483.656 667.048 484.721 666.568 486.081 665.941C491.56 663.413 497.706 661.673 503.361 659.509C519.625 653.287 536.026 647.216 552.484 641.526Z"/>
	<path fill="#0201F2" d="M421.215 285.509C426.828 285.628 432.435 285.844 438.045 286.062C425.686 292.54 413.746 299.785 401.499 306.471L312.027 354.919L283.985 370.447C278.549 373.485 272.929 377.088 267.137 379.345C264.728 380.283 263.097 379.921 260.587 379.45C254.873 378.26 249.202 377.05 243.57 375.504C255.999 370 267.859 363.432 280.004 357.345C305.061 344.788 330.171 332.363 355.023 319.396C377.035 307.911 398.611 295.84 421.215 285.509Z"/>
	<path fill="#0201F2" d="M466.552 288.071C471.988 288.25 477.45 288.729 482.88 289.081C444.745 311.845 407.008 335.412 369.127 358.607L336.558 378.366C330.034 382.347 323.344 387.028 316.403 390.218C314.119 391.268 312.857 391.233 310.383 390.843C304.376 389.798 298.496 388.395 292.58 386.935C314.041 378.335 334.365 364.699 354.316 353.085C391.648 331.353 428.789 309.031 466.552 288.071Z"/>
	<path fill="#0201F2" d="M444.294 286.469C449.744 287.257 455.324 287.389 460.824 287.51C455.397 290.845 449.715 293.82 444.241 297.099C414.032 315.192 383.599 332.735 353.024 350.206L316.14 371.261C308.627 375.544 301.124 380.229 293.287 383.884C291.06 384.922 289.485 385.567 287.005 385.361C280.881 384.167 274.781 382.822 268.675 381.538C278.85 376.963 288.509 371.464 298.287 366.122L330.194 348.802L444.294 286.469Z"/>
	<path fill="#0201F2" d="M488.253 289.51C494.085 289.613 499.91 289.837 505.737 290.063C492.14 298.335 478.899 307.43 465.531 316.093L379.218 371.945C367.137 379.694 355.212 388.241 342.815 395.417C341.064 396.43 339.427 397.37 337.387 397.617C331.096 395.97 324.836 394.219 318.574 392.464C326.201 388.393 333.506 383.663 340.896 379.179L377.997 356.636L488.253 289.51Z"/>
	<path fill="#F8C94F" d="M220.503 496.761C243.48 503.346 265.845 511.782 288.411 519.616L394.985 556.457L395.016 572.264L220.652 508.969L220.503 496.761Z"/>
	<path fill="#0201F2" d="M511.249 290.522C517.412 290.449 523.509 290.719 529.661 291.058L416.139 367.277L380.847 390.903C374.591 395.097 368.325 399.778 361.747 403.436C355.212 402.006 348.742 400.427 342.273 398.723C380.334 375.412 418.025 351.151 455.47 326.85C474.099 314.76 492.228 302.014 511.249 290.522Z"/>
	<path fill="#F8C94F" d="M553.328 642.069C558.182 643.634 562.568 646.429 567.306 648.294L569.044 649.318C573.721 651.555 578.284 654.055 583.08 656.032L585.692 657.105C590.365 659.326 595.097 661.468 599.611 664.002C584.023 669.705 568.529 675.697 553.084 681.777C545.33 684.829 537.298 688.866 529.256 690.925C524.646 688.817 519.563 686.882 515.242 684.249L512.877 683.454C508.327 681.378 503.92 678.921 499.487 676.607L497.563 675.914C492.979 673.399 488.215 671.19 483.615 668.69C492.211 666.696 547.002 646.438 553.328 642.069Z"/>
	<path fill="#FEFEFE" d="M583.08 656.032L585.692 657.105C578.779 661.042 570.59 663.559 563.149 666.381C547.23 672.419 531.072 678.015 515.242 684.249L512.877 683.454C516.537 680.578 543.799 671.727 550.511 669.177C561.451 665.021 572.297 660.581 583.08 656.032Z"/>
	<path fill="#F8C94F" d="M569.044 649.318C573.721 651.555 578.284 654.055 583.08 656.032C572.297 660.581 561.451 665.021 550.511 669.177C543.799 671.727 516.537 680.578 512.877 683.454C508.327 681.378 503.92 678.921 499.487 676.607C512.687 672.555 525.786 666.799 538.687 661.815C546.246 658.895 562.926 653.583 569.044 649.318Z"/>
	<path fill="#F8C94F" d="M553.328 642.069C558.182 643.634 562.568 646.429 567.306 648.294L569.044 649.318C562.926 653.583 546.246 658.895 538.687 661.815C525.786 666.799 512.687 672.555 499.487 676.607L497.563 675.914C492.979 673.399 488.215 671.19 483.615 668.69C492.211 666.696 547.002 646.438 553.328 642.069Z"/>
	<path fill="#FEFEFE" d="M567.306 648.294L569.044 649.318C562.926 653.583 546.246 658.895 538.687 661.815C525.786 666.799 512.687 672.555 499.487 676.607L497.563 675.914C498.709 674.88 499.942 674.144 501.368 673.544C510.106 669.873 519.421 666.997 528.302 663.581C541.308 658.578 554.219 653.034 567.306 648.294Z"/>
	<path fill="#0201F2" d="M535.102 291.506C541.648 291.628 548.204 291.951 554.748 292.179L437.683 373.239C426.34 381.104 395.273 405.169 384.809 408.839C378.059 407.792 371.175 405.916 364.584 404.109C379.391 396.726 392.774 386.2 406.595 377.134L491.053 321.185C505.756 311.305 519.819 300.483 535.102 291.506Z"/>
	<path fill="#0201F2" d="M560.326 292.518L583.402 293.062L409.896 412.782C409.627 412.931 409.361 413.087 409.087 413.23C404.12 415.818 393.704 411.549 388.566 409.962C397.428 405.236 405.546 399.293 413.789 393.585L445.081 371.934L560.326 292.518Z"/>
	<path fill="#FEFEFE" d="M595.512 292.591C604.304 296.249 612.811 300.772 621.436 304.806C634.902 311.104 648.573 317.07 662.217 322.973C704.096 341.092 746.512 357.927 787.498 378.034C787.305 382.272 787.29 386.516 787.24 390.757C786.705 391.074 786.134 391.442 785.554 391.682C784.607 392.074 783.84 392.239 782.81 392.161C779.24 391.892 740.548 372.602 733.511 369.342C688.019 348.262 641.797 328.764 595.522 309.48L595.512 292.591Z"/>
	<path fill="#FEFEFE" d="M616.325 467.72C644.486 462.617 672.617 457.222 700.654 451.481C718.107 447.908 735.494 443.947 752.987 440.582L753.267 462.218L658.051 482.889C644.406 485.721 630.401 489.367 616.633 491.217L616.325 467.72Z"/>
	<path fill="#14BDAB" d="M186.979 567.794C191.609 566.591 227.718 585.535 234.421 588.983C211.38 598.178 187.965 606.362 164.941 615.61C156.052 619.18 146.572 622.335 138.201 627.004C123.695 619.311 109.455 611.159 94.9615 603.443C97.722 601.478 101.246 600.335 104.429 599.218C104.679 599.366 104.915 599.54 105.179 599.66C108.508 601.175 126.807 592.627 130.73 590.812C135.023 590.22 140.82 587.006 144.923 585.283L167.519 576.65C173.547 573.396 181.486 572.929 187.056 568.688L186.979 567.794Z"/>
	<path fill="#FEFEFE" d="M590.374 294.377L591.126 294.671C592.988 298.558 592.034 305.949 591.996 310.304C583.702 316.858 575.482 323.595 566.956 329.844C536.167 352.409 503.995 372.918 472.629 394.647C451.583 409.227 431.265 424.816 410.827 440.227L410.233 439.995C408.766 432.976 409.488 424.857 409.503 417.706C416.55 413.817 423.078 408.788 429.67 404.184L462.445 381.425C505.038 352.311 547.31 322.799 590.374 294.377Z"/>
	<path fill="#FEFEFE" d="M233.789 435.092C253.309 439.822 275.971 447.241 295.003 453.799L296.498 519.842C289.504 516.934 282.082 514.665 274.932 512.147C261.764 507.508 248.582 502.848 235.28 498.607L233.789 435.092Z"/>
	<path fill="#FEFEFE" d="M454.994 497.705C474.505 494.965 493.994 490.387 513.371 486.757C546.497 480.551 579.716 474.701 612.776 468.155L613.015 491.873C574.195 498.505 535.518 507.654 497.044 516.095C487.972 518.086 478.944 520.297 469.913 522.461C465.362 523.551 460.266 525.248 455.618 525.566C455.565 516.278 455.25 506.99 454.994 497.705Z"/>
	<path fill="#14BDAB" d="M859.637 488.559C870.316 488.39 881.649 494.173 891.792 497.351L942.384 513.596C932.344 518.953 921.305 522.834 910.789 527.13C899.024 531.935 887.465 537.156 875.635 541.847C874.614 542.217 874.286 542.327 873.217 542.048C866.232 540.22 856.764 535.975 849.582 533.322C830.865 526.406 812.042 519.418 793.518 512.009C802.309 507.882 811.738 504.766 820.873 501.466C833.685 496.837 846.47 492.098 859.637 488.559Z"/>
	<path fill="#FEFEFE" d="M234.306 516.725C255.299 523.99 276.335 531.536 296.991 539.717L298.25 612.771C277.176 602.704 255.829 593.071 234.503 583.549L234.306 516.725Z"/>
	<path fill="#FEFEFE" d="M311.818 459.236L380.014 480.007L380.967 548.8C358.414 540.817 335.661 533.278 313.021 525.536L311.818 459.236Z"/>
	<path fill="#F8C94F" d="M443.729 654.075C450.594 656.544 457.204 660.184 463.758 663.393L464.274 664.114C468.596 666.253 472.866 668.77 477.375 670.471L479.534 671.653L492.18 677.961L494.568 679.136C498.767 681.256 502.944 683.442 507.174 685.496L510.132 686.74C514.286 689.057 518.826 690.919 523.136 692.946C501.393 701.088 479.501 711.064 457.806 719.732C444.671 713.996 431.881 707.503 418.844 701.546C403.84 694.691 388.475 688.341 373.976 680.463C397.15 671.396 420.193 662.183 443.729 654.075Z"/>
	<path fill="#FEFEFE" d="M507.174 685.496L510.132 686.74C505.966 690.039 456.529 708.837 449.01 710.392C459.767 704.247 471.681 700.455 483.188 696.032C491.333 692.901 499.331 689.316 507.174 685.496Z"/>
	<path fill="#FEFEFE" d="M477.375 670.471L479.534 671.653C471.201 677.897 429.18 693.685 417.967 695.86C437.239 686.191 458.056 680.228 477.375 670.471Z"/>
	<path fill="#FEFEFE" d="M492.18 677.961L494.568 679.136C484.464 685.573 444.39 700.278 431.891 703.159C439.941 698.431 449.244 695.336 457.927 691.982C469.436 687.536 480.94 683.057 492.18 677.961Z"/>
	<path fill="#FEFEFE" d="M463.758 663.393L464.274 664.114C456.43 671.233 413.179 687.195 401.713 689.859C408.104 684.44 432.925 675.948 441.712 672.361C448.989 669.391 456.278 665.767 463.758 663.393Z"/>
	<path fill="#14BDAB" d="M237.611 590.489C244.55 592.454 251.562 596.398 258.105 599.437L293.562 615.999C281.591 621.574 268.998 626.074 256.739 630.996L195.902 656.039L194.826 656.429C190.029 656.081 148.135 632.353 140.953 628.468C172.215 614.005 205.312 602.433 237.611 590.489Z"/>
	<path fill="#14BDAB" d="M91.5173 606.737C107.564 614.614 123.201 623.812 139.001 632.235L138.477 737.859C135.95 738.161 97.2637 714.754 91.4961 711.503L91.5173 606.737Z"/>
	<path fill="#FEFEFE" d="M100.252 623.811C105.124 625.359 109.957 628.48 114.491 630.871C120.211 633.887 125.993 636.734 131.826 639.524C131.931 647.288 131.826 655.053 131.752 662.818C120.782 658.437 110.715 652.332 100.454 646.537L100.252 623.811Z"/>
	<path fill="#14BDAB" d="M143.023 635.305C159.155 643.418 175.09 651.905 190.985 660.47L190.971 768.977L142.5 740.917L143.023 635.305Z"/>
	<path fill="#FEFEFE" d="M152.045 652.817C163.007 657.795 173.576 664.953 183.983 671.044L183.932 694.192C173.106 689.093 162.756 683.028 151.997 677.775L152.045 652.817Z"/>
	<path fill="#FEFEFE" d="M313.504 545.333C320.632 548.689 328.729 551.103 336.164 553.823L381.987 570.454C382.469 598.459 382.919 626.507 382.942 654.516L373.558 651.242L373.002 644.779C366.599 641.917 360 639.536 353.52 636.855L315.281 620.742L313.504 545.333Z"/>
	<path fill="#0201F2" d="M177.994 363.552L353.458 404.967C370.963 409.26 388.609 413.06 405.997 417.811L406.011 443.016C397.502 441.438 389.201 438.984 380.835 436.791L343.421 427.221L241.366 401.838C220.243 396.475 199.258 390.524 178.039 385.553C177.93 378.222 177.993 370.884 177.994 363.552Z"/>
	<path fill="#14BDAB" d="M297.156 617.454C304.08 620.797 310.87 624.409 317.903 627.524C332.618 634.042 347.716 639.681 362.517 646.001C328.418 657.554 295.107 672.369 261.874 686.211L255.698 688.717C235.939 679.139 216.541 668.889 197.127 658.637C211.104 653.591 224.821 646.995 238.573 641.294C258.049 633.219 277.767 625.724 297.156 617.454Z"/>
	<path fill="#F8C94F" d="M690.55 635.076C696.659 638.492 704 640.388 710.483 643.114C724.703 649.093 738.951 655.061 753.323 660.662C765.459 665.392 777.716 669.651 789.452 675.346C771.986 680.969 754.624 687.299 737.54 693.993C726.34 698.381 715.019 703.894 703.359 706.922C698.22 704.605 692.452 702.516 687.604 699.693L686.871 699.315L671.272 691.703L669.508 691.158C664.734 688.403 659.764 686.016 654.827 683.571L653.474 683.153C649.064 680.713 644.489 678.593 639.943 676.422L638.356 675.912C630.073 671.662 621.386 668.138 613.414 663.304C628.589 657.544 643.965 652.279 659.192 646.646C669.544 642.816 680.008 638.288 690.55 635.076Z"/>
	<path fill="#FEFEFE" d="M691.39 638.991L692.325 639.646L692.253 640.493C686.323 645.247 638.163 663.053 628.279 666.207L627.696 666.039C630.648 662.382 683.649 642.114 691.39 638.991Z"/>
	<path fill="#FEFEFE" d="M638.356 675.912C639.905 674.406 641.719 673.634 643.66 672.736C647.48 670.969 651.533 669.942 655.399 668.311C664.105 664.636 697.942 648.143 704.343 648.211C704.555 648.213 704.767 648.228 704.979 648.237L705.025 648.771C703.232 650.271 701.262 651.421 699.155 652.419C690.538 656.497 681.208 659.587 672.382 663.258C664.399 666.578 647.132 674.766 639.943 676.422L638.356 675.912Z"/>
	<path fill="#FEFEFE" d="M686.871 699.315C687.198 698.567 687.481 698.21 688.185 697.777C695.054 693.551 703.138 690.328 710.418 686.812C724.133 680.186 738.016 673.019 752.211 667.49C753.898 666.833 755.615 666.288 757.365 665.823C754.999 668.047 752.662 669.687 749.797 671.223C741.936 675.435 733.6 678.427 725.552 682.216L701.882 693.47C697.322 695.642 692.482 698.377 687.604 699.693L686.871 699.315Z"/>
	<path fill="#FEFEFE" d="M669.508 691.158C678.046 684.602 696.659 678.249 707.038 673.537C714.887 669.974 722.636 665.876 730.64 662.697C733.117 661.713 737.066 659.719 739.694 660.081C739.851 660.102 740.001 660.16 740.154 660.2L740.506 660.917C738.608 662.644 677.503 689.509 671.272 691.703L669.508 691.158Z"/>
	<path fill="#FEFEFE" d="M653.474 683.153C660.849 678.25 670.346 674.925 678.504 671.471C693.531 665.109 708.644 658.665 724.039 653.257L724.732 653.571C724.363 654.688 723.305 655.313 722.294 655.875C714.172 660.392 704.613 663.45 696.004 667.068C683.372 672.377 667.734 680.351 654.827 683.571L653.474 683.153Z"/>
	<path fill="#14BDAB" d="M195.157 662.801C215.219 672.621 234.875 683.449 254.73 693.698L254.74 767.756C254.744 780.451 255.259 793.362 254.64 806.028C235.393 793.466 215.143 782.564 195.028 771.479C194.9 735.295 196.453 698.977 195.157 662.801Z"/>
	<path fill="#FEFEFE" d="M207.058 680.324L238.646 698.773L238.443 722.155C227.693 716.757 217.293 710.787 206.9 704.743L207.058 680.324Z"/>
	<path fill="#F8C94F" d="M512.993 701.515C513.324 713.484 513.245 725.508 513.955 737.458L514.082 751.984C513.96 760.705 514.438 769.509 514.654 778.237L516.023 830.037C497.895 836.388 479.96 843.879 462.033 850.822L459.997 723.204L512.993 701.515Z"/>
	<path fill="#FEFEFE" d="M489.989 741.32C494.335 739.685 509.461 734.094 513.384 735.626L513.955 737.458L514.082 751.984C506.311 754.404 498.499 756.514 490.616 758.531C490.561 752.806 490.698 747.009 489.989 741.32Z"/>
	<path fill="#F8C94F" d="M606.829 665.096C610.837 669.743 617.023 671.468 622.618 673.466L624.962 674.659C634.44 679.223 643.921 684.433 653.628 688.447L655 689.597C659.441 692.011 664.023 694.003 668.656 696.008L670.921 696.772C675.246 698.828 679.587 700.83 683.956 702.792L686.022 703.506C689.538 706.003 694.594 707.662 698.551 709.535C688.04 714.122 677.191 718.136 666.552 722.432L614.29 743.741C601.739 737.178 588.744 731.504 575.862 725.629L519.086 699.696C531.524 695.441 543.516 690.005 555.725 685.153C572.735 678.392 589.872 672.005 606.829 665.096Z"/>
	<path fill="#FEFEFE" d="M653.628 688.447L655 689.597C641.528 696.166 588.852 719.158 576.402 720.262C593.238 712.344 610.975 706.208 628.218 699.225C636.631 695.818 644.956 691.015 653.628 688.447Z"/>
	<path fill="#FEFEFE" d="M636.994 682.513L637.597 682.864L637.443 683.666C630.13 688.058 621.17 690.563 613.244 693.73C595.57 700.793 578.174 708.087 560.12 714.195L559.483 713.854L559.463 713.211C566.342 708.964 575.518 706.498 583.053 703.524C601.02 696.432 618.839 689.151 636.994 682.513Z"/>
	<path fill="#FEFEFE" d="M622.618 673.466L624.962 674.659C615.405 680.46 603.542 683.908 593.185 688.195L565.933 699.561C558.608 702.62 551.17 706.166 543.382 707.821C568.812 694.579 596.168 684.524 622.618 673.466Z"/>
	<path fill="#FEFEFE" d="M668.656 696.008L670.921 696.772C664.285 702.068 643.536 708.706 634.728 712.257C622.694 717.109 610.68 722.571 598.426 726.787C595.158 727.911 592.007 728.78 588.583 729.264C599.571 722.93 611.71 719.132 623.468 714.501C638.614 708.536 653.628 702.263 668.656 696.008Z"/>
	<path fill="#FEFEFE" d="M683.956 702.792L686.022 703.506C676.432 710.694 624.533 731.334 611.743 734.019C619.472 729.046 628.751 725.714 637.225 722.167C652.785 715.652 668.496 709.555 683.956 702.792Z"/>
	<path fill="#0201F2" d="M616.633 491.217C630.401 489.367 644.406 485.721 658.051 482.889L753.267 462.218C752.849 483.457 753.267 504.983 754.526 526.193C736.451 533.563 718.036 542.813 698.85 546.54L697.063 554.553C683.435 550.759 670.497 545.519 657.199 540.768C643.687 535.94 629.678 531.607 616.644 525.611L616.633 491.217Z"/>
	<path fill="#FEFEFE" d="M209.542 397.055C244.608 406.635 279.998 414.946 315.24 423.86C346.127 431.672 376.788 440.212 407.979 446.761L410.515 662.064L406.135 663.78C403.569 662.883 400.985 662.022 398.455 661.027L397.507 483.453C382.76 477.445 367.771 473.13 352.545 468.549L301.069 452.929L249.914 437.096C238.978 433.669 228.183 429.814 217.013 427.185L218.919 576.715C217.322 575.953 215.666 575.243 214.108 574.406C214.338 561.304 213.17 535.898 209.01 523.68C207.752 513.492 208.188 502.624 208.068 492.338C207.809 470.242 208.118 448.118 208.626 426.028C208.848 416.365 209.575 406.725 209.542 397.055Z"/>
	<path fill="#F8C94F" d="M370.039 683.265C398.839 696.399 427.469 709.758 455.986 723.494C457.28 765.454 457.568 807.353 457.691 849.329C447.962 844.76 438.773 839.137 429.287 834.096L370.508 802.927L370.039 683.265Z"/>
	<path d="M379.361 770.926C382.39 772.221 385.299 773.849 388.219 775.376C388.412 782.283 388.505 789.175 388.22 796.08C385.271 795.414 382.16 793.286 379.492 791.837L379.361 770.926Z"/>
	<path d="M396.07 779.828C399.084 781.203 402.032 782.78 404.995 784.263L405.205 805.091C402.046 803.734 399.024 802.142 395.98 800.548L396.07 779.828Z"/>
	<path d="M412.711 788.847C415.816 790.128 418.841 791.769 421.861 793.247L421.948 813.737L412.529 808.965L412.711 788.847Z"/>
	<path d="M429.974 797.782C433.085 799.124 435.997 800.623 438.941 802.299C438.955 809.179 438.837 816.057 438.729 822.936C435.535 821.721 432.554 819.899 429.565 818.251C429.588 811.419 429.706 804.609 429.974 797.782Z"/>
	<path fill="#FEFEFE" d="M393.559 709.462C399.627 711.302 405.5 714.328 411.002 717.448C411.096 721.685 412.36 731.276 410.301 734.812C404.25 732.073 398.379 728.587 392.513 725.453L393.559 709.462Z"/>
	<path fill="#F8C94F" d="M789.887 679.003C791.121 681.135 791.832 791.091 792.025 804.228C780.529 810.379 768.201 815.279 756.306 820.609C740.056 827.892 723.959 835.507 707.658 842.683C707.093 838.31 707.425 833.615 707.368 829.198L706.919 803.804L705.512 710.81C733.008 698.951 761.911 689.74 789.887 679.003Z"/>
	<path fill="#FEFEFE" d="M776.2 710.056L776.896 710.316C778.95 714.191 777.956 727.884 777.973 732.604C760.182 737.73 742.575 743.814 724.938 749.464L724.245 749.168C722.055 744.798 723.08 731.98 723.083 726.497C740.744 720.85 758.426 715.336 776.2 710.056Z"/>
	<path fill="#F8C94F" d="M700.848 712.54C702.883 721.84 702.121 743.558 702.273 754.257L703.508 844.578C689.848 851.427 675.925 857.359 662.018 863.66C647.842 870.082 633.822 876.895 619.754 883.551C619.319 879.516 619.557 875.178 619.528 871.117C619.473 863.263 619.446 855.408 619.245 847.556L616.988 746.962C630.991 741.843 644.771 735.674 658.591 730.061C672.7 724.33 687.079 719.055 700.848 712.54Z"/>
	<path fill="#FEFEFE" d="M662.256 736.393C662.701 736.358 663.173 736.545 663.605 736.654C665.645 740.324 664.954 747.322 665.002 751.54L685.176 744.041C685.791 751.323 685.511 758.686 686.081 765.997L659.479 777.25C652.405 780.253 645.219 782.998 638.063 785.799L637.467 761.464C641.967 760.202 646.294 758.645 650.666 757.008C650.069 751.838 649.47 746.669 648.976 741.488C653.519 740.061 657.921 738.363 662.256 736.393Z"/>
	<path fill="#14BDAB" d="M369.39 648.043C369.698 648.174 370.054 648.562 370.311 648.783C371.957 657.297 371.009 667.294 370.956 676.005L365.977 678.61L366.025 756.184C352.493 763.545 338.263 769.879 324.374 776.532L259.955 807.544L259.049 806.723C257.207 801.079 258.84 779.042 258.853 771.443L258.773 692.813C273.234 685.555 288.621 679.861 303.602 673.762C325.396 664.889 347.189 655.857 369.39 648.043Z"/>
	<path fill="#F8C94F" d="M517.051 703.293C549.067 717.776 581.15 732.091 612.749 747.469C614.402 792.76 614.951 838.244 615.513 883.567C584.012 865.154 552.131 847.288 520.357 829.347C519.519 815.13 519.663 800.747 519.312 786.501L517.051 703.293Z"/>
	<path d="M587.733 825.861L596.288 829.531C596.385 837.017 596.322 844.506 596.293 851.993L587.805 847.486L587.733 825.861Z"/>
	<path d="M536.06 797.814C539.033 799.088 541.747 800.608 544.526 802.256L544.517 824.518C541.567 823.067 538.753 821.382 535.917 819.722L536.06 797.814Z"/>
	<path d="M553.461 807.306L562.003 811.723L562.003 833.737L553.444 829.844C553.237 822.308 553.251 814.843 553.461 807.306Z"/>
	<path d="M570.364 816.309L578.977 820.52C579.152 828.064 579.271 835.521 578.824 843.059C575.97 841.921 573.162 840.069 570.473 838.556L570.364 816.309Z"/>
	<path fill="#FEFEFE" d="M545.999 730.209C552.451 732.114 558.737 735.066 565.029 737.472L564.968 756.094C558.581 752.77 551.992 749.785 545.488 746.695C545.446 741.215 545.315 735.654 545.999 730.209Z"/>
	<path fill="#E12726" d="M455.618 525.566C460.266 525.248 465.362 523.551 469.913 522.461C478.944 520.297 487.972 518.086 497.044 516.095C535.518 507.654 574.195 498.505 613.015 491.873C612.812 501.019 613.085 510.277 612.688 519.395C612.479 524.201 611.48 528.909 611.392 533.73C611.015 554.45 611.284 575.313 611.521 596.038L565.419 613.161C553.721 617.387 541.944 621.147 530.556 626.202C527.185 624.392 523.836 622.51 520.421 620.786C510.992 624.686 501.279 627.883 491.686 631.35C480.543 635.377 469.481 639.677 458.449 644.001L456.684 565.712C456.371 552.4 456.648 538.836 455.618 525.566Z"/>
	<path fill="#FEFEFE" d="M594.479 312.468C598.823 314.875 603.785 316.755 608.342 318.737C619.8 323.722 631.397 328.362 642.914 333.206C674.237 346.379 705.148 360.578 735.985 374.845C749.192 380.955 765.899 387.482 778.215 394.686C775.415 403.418 776.957 435.531 776.937 446.791L776.488 518.038C769.929 520.244 763.46 522.755 756.976 525.172C755.909 496.049 756.664 466.872 755.526 437.778C744.87 439.153 734.181 441.883 723.652 444.052L664.01 456.242C646.182 459.768 628.232 462.714 610.361 466.021L504.545 485.635C487.153 488.706 469.768 491.842 452.499 495.554C452.412 512.217 453.113 528.813 453.386 545.465L455.083 645.031C441.069 649.286 427.432 655.132 413.877 660.663C413.231 651.539 413.503 642.291 413.449 633.147L412.99 590.504L410.994 444.582C419.35 438.667 427.156 432.017 435.34 425.873C450.513 414.482 466.076 403.468 481.694 392.694C505.225 376.462 529.529 361.389 552.86 344.868C567.239 334.685 581.01 323.814 594.479 312.468Z"/>
</svg>
