<?xml version="1.0" encoding="utf-8" ?>
<svg width="50" height="50" viewBox="0 0 900 900">
	<path transform="scale(1.6 1.6)" d="M318.232 97.3498C335.316 96.4876 359.145 96.5408 375.413 99.3229C404.603 104.315 448.937 124.065 474.045 140.263C504.563 159.952 519.25 177.693 536.646 209.939C539.96 216.082 543.84 222.374 546.325 228.896C561.787 269.479 563.007 308.045 555.573 350.171C545.707 406.072 533.071 432.587 493.642 473.276C456.221 511.893 371.234 536.22 320.333 539.75C299.78 541.295 265.12 541.656 245.831 538.869C216.208 534.588 186.028 517.584 162.078 500.293C123.497 472.44 109.679 460.652 93.356 411.957C79.6635 371.108 76.9032 337.157 81.8415 293.684C85.3384 262.901 91.0582 232.526 112.28 208.035C121.283 197.645 132.589 189.522 142.4 179.942C152.578 170.003 161.047 158.923 172.199 149.829C210.187 118.85 269.014 100.945 318.232 97.3498Z"/>
	<path fill="#6FECE1" transform="scale(1.6 1.6)" d="M135.283 296.591L137.247 296.565C137.204 298.005 136.935 299.846 137.487 301.201C136.835 301.406 136.185 301.644 135.514 301.774C135.369 300.055 135.351 298.315 135.283 296.591Z"/>
	<path fill="#A7F8F7" transform="scale(1.6 1.6)" d="M145.345 252.202C146.272 252.253 147.204 252.28 148.126 252.391C146.606 254.037 144.061 256.602 146.371 258.636L147.546 258.991C145.546 260.257 143.677 261.568 141.913 263.153L140.888 262.858C142.322 259.285 143.842 255.746 145.345 252.202Z"/>
	<path fill="#FEFEFE" transform="scale(1.6 1.6)" d="M394.738 113.295C402.522 116.059 410.118 119.312 417.892 122.083C419.432 122.633 420.97 123.176 422.478 123.81C410.463 128.863 392.254 142.436 381.938 145.267L381.871 146.305C374.005 145.115 365.899 145.082 358.123 143.744C356.838 143.726 353.516 144.147 352.642 142.985L353.355 142.311C356.785 142.474 383.29 125.184 387.164 121.794C389.863 119.432 391.663 114.9 394.738 113.295Z"/>
	<path fill="#FED45E" transform="scale(1.6 1.6)" d="M374.969 142.045C378.952 141.333 382.734 139.805 386.541 138.464C385.359 141.028 382.265 141.43 381.032 143.652L380.734 143.831C376.796 146.171 377.778 146.45 381.776 145.219L381.938 145.267L381.871 146.305C374.005 145.115 365.899 145.082 358.123 143.744C359.77 142.695 372.061 142.494 374.969 142.045Z"/>
	<defs>
		<linearGradient id="gradient_0" gradientUnits="userSpaceOnUse" x1="397.30249" y1="127.86586" x2="400.41849" y2="140.51268">
			<stop offset="0" stop-color="#E97201"/>
			<stop offset="1" stop-color="#F59110"/>
		</linearGradient>
	</defs>
	<path fill="url(#gradient_0)" transform="scale(1.6 1.6)" d="M417.892 122.083C419.432 122.633 420.97 123.176 422.478 123.81C410.463 128.863 392.254 142.436 381.938 145.267L381.776 145.219C377.778 146.45 376.796 146.171 380.734 143.831L381.032 143.652C382.265 141.43 385.359 141.028 386.541 138.464C395.775 134.309 408.473 127.132 417.892 122.083Z"/>
	<path fill="#FEFEFE" transform="scale(1.6 1.6)" d="M245.918 432.946C248.67 433.521 251.569 433.92 254.134 435.104C258.493 436.151 262.818 437.294 267.142 438.477C269.553 439.12 271.738 438.73 274.106 439.017C264.014 444.993 253.959 455.032 243.054 458.951C238.455 462.193 233.1 464.093 228.352 467.045C227.111 466.785 226.039 466.304 224.886 465.792C219.163 463.9 213.623 461.446 208.099 459.049C206.937 458.674 205.795 458.209 204.652 457.78C217.534 448.358 231.383 439.579 245.918 432.946Z"/>
	<path fill="#FC615C" transform="scale(1.6 1.6)" d="M224.886 465.792C229.745 462.227 235.515 459.335 240.91 456.662C240.27 457.435 239.601 458.005 238.76 458.567L238.415 459.296L238.754 459.984C240.425 460.307 241.455 458.856 243.054 458.951C238.455 462.193 233.1 464.093 228.352 467.045C227.111 466.785 226.039 466.304 224.886 465.792Z"/>
	<path fill="#DE2501" transform="scale(1.6 1.6)" d="M267.142 438.477C269.553 439.12 271.738 438.73 274.106 439.017C264.014 444.993 253.959 455.032 243.054 458.951C241.455 458.856 240.425 460.307 238.754 459.984L238.415 459.296L238.76 458.567C239.601 458.005 240.27 457.435 240.91 456.662C247.41 451.084 258.514 445.848 267.142 438.477Z"/>
	<path fill="#FC615C" transform="scale(1.6 1.6)" d="M245.918 432.946C248.67 433.521 251.569 433.92 254.134 435.104C252.517 435.068 250.371 434.802 248.827 435.281C244.385 436.658 214.109 454.35 208.099 459.049C206.937 458.674 205.795 458.209 204.652 457.78C217.534 448.358 231.383 439.579 245.918 432.946Z"/>
	<path fill="#FEFEFE" transform="scale(1.6 1.6)" d="M274.106 439.017C283.406 437.144 292.034 440.002 301.104 441.286C296.092 445.236 288.928 449.441 284.614 453.933C275.481 460.534 267.02 469.216 257.152 474.495C253.715 474.79 232.778 468.495 228.352 467.045C233.1 464.093 238.455 462.193 243.054 458.951C253.959 455.032 264.014 444.993 274.106 439.017Z"/>
	<path fill="#FEFEFE" transform="scale(1.6 1.6)" d="M196.382 412.924C206.324 419.191 233.382 429.781 245.918 432.946C231.383 439.579 217.534 448.358 204.652 457.78C195.509 454.36 186.734 449.807 178.338 444.858C177.105 444.509 175.925 443.477 174.94 442.695C170.537 440.257 166.967 436.935 162.848 434.123C170.976 430.416 191.374 419.511 196.382 412.924Z"/>
	<path fill="#DE2501" transform="scale(1.6 1.6)" d="M174.94 442.695C185.057 440.373 203.824 423.398 212.389 424.786L212.629 425.237C208.827 430.752 186.239 439.536 178.338 444.858C177.105 444.509 175.925 443.477 174.94 442.695Z"/>
	<path fill="#FEFEFE" transform="scale(1.6 1.6)" d="M381.938 145.267C392.254 142.436 410.463 128.863 422.478 123.81C426.639 125.373 430.715 127.062 434.747 128.939C436.804 129.898 438.864 130.845 440.937 131.766C445.491 133.844 450.196 135.903 454.42 138.602C454.963 138.942 455.583 139.263 456.081 139.661C459.34 141.849 462.828 143.968 465.775 146.568C466.58 147.709 467.358 148.634 468.708 149.123C457.135 155.358 441.38 161.798 430.877 168.203C429.249 167.363 427.744 166.204 426.232 165.171C411.668 156.949 398.284 150.17 381.871 146.305L381.938 145.267Z"/>
	<path fill="#FED45E" transform="scale(1.6 1.6)" d="M454.42 138.602C454.963 138.942 455.583 139.263 456.081 139.661C451.664 142.843 424.9 158.589 419.371 158.71L419.151 158.447C421.316 154.915 449.464 140.911 454.42 138.602Z"/>
	<path fill="#F36D08" transform="scale(1.6 1.6)" d="M434.747 128.939C436.804 129.898 438.864 130.845 440.937 131.766C430.253 133.757 420.874 145.639 402.817 147.933C412.35 141.222 423.515 137.227 434.747 128.939Z"/>
	<path fill="#DE2501" transform="scale(1.6 1.6)" d="M465.775 146.568C466.58 147.709 467.358 148.634 468.708 149.123C457.135 155.358 441.38 161.798 430.877 168.203C429.249 167.363 427.744 166.204 426.232 165.171C433.802 165.795 457.747 150.182 465.775 146.568Z"/>
	<path fill="#FEEAA8" transform="scale(1.6 1.6)" d="M123.915 394.695C133.324 390.321 149.162 381.657 157.852 376.297C160.56 379.686 163.345 382.814 166.516 385.787L168.36 387.581C172.538 391.591 176.634 395.852 181.039 399.601C182.118 400.553 183.25 401.48 184.241 402.523C187.671 405.588 191.099 408.626 194.686 411.506L196.382 412.924C191.374 419.511 170.976 430.416 162.848 434.123C161.555 433.17 160.462 432.212 159.34 431.068C154.076 427.258 149.312 423.103 144.723 418.514L141.767 415.359C138.134 411.541 134.739 407.479 131.29 403.494L129.936 401.819C127.822 399.537 125.881 397.104 123.915 394.695Z"/>
	<path fill="#FED45E" transform="scale(1.6 1.6)" d="M181.039 399.601C182.118 400.553 183.25 401.48 184.241 402.523C175.995 406.899 167.653 411.35 158.857 414.54C156.326 415.458 145.893 417.837 144.723 418.514L141.767 415.359C150.448 415.671 178.47 406.15 181.039 399.601Z"/>
	<path fill="#FEFEFE" transform="scale(1.6 1.6)" d="M123.915 394.695C133.324 390.321 149.162 381.657 157.852 376.297C160.56 379.686 163.345 382.814 166.516 385.787L168.36 387.581C160.246 391.391 151.75 394.353 143.634 398.14C139.539 400.001 135.442 401.768 131.29 403.494L129.936 401.819C127.822 399.537 125.881 397.104 123.915 394.695Z"/>
	<path fill="#F36D08" transform="scale(1.6 1.6)" d="M142.3 395.553C141.441 397.001 139.864 396.939 138.935 398.103L139.088 398.947C140.556 399.259 141.97 397.965 143.634 398.14C139.539 400.001 135.442 401.768 131.29 403.494L129.936 401.819C134.187 400.177 138.044 397.343 142.3 395.553Z"/>
	<path fill="#DE2501" transform="scale(1.6 1.6)" d="M166.516 385.787L168.36 387.581C160.246 391.391 151.75 394.353 143.634 398.14C141.97 397.965 140.556 399.259 139.088 398.947L138.935 398.103C139.864 396.939 141.441 397.001 142.3 395.553C147.898 392.308 160.612 387.492 166.516 385.787Z"/>
	<path fill="#FEFEFE" transform="scale(1.6 1.6)" d="M144.723 418.514C145.893 417.837 156.326 415.458 158.857 414.54C167.653 411.35 175.995 406.899 184.241 402.523C187.671 405.588 191.099 408.626 194.686 411.506L196.382 412.924C191.374 419.511 170.976 430.416 162.848 434.123C161.555 433.17 160.462 432.212 159.34 431.068C154.076 427.258 149.312 423.103 144.723 418.514Z"/>
	<path fill="#FC615C" transform="scale(1.6 1.6)" d="M194.686 411.506L196.382 412.924C191.374 419.511 170.976 430.416 162.848 434.123C161.555 433.17 160.462 432.212 159.34 431.068C172.993 428.5 182.332 416.616 194.686 411.506Z"/>
	<path fill="#FED45E" transform="scale(1.6 1.6)" d="M95.5444 269.173C103.834 262.846 128.612 251.278 137.602 250.054C121.661 287.369 129.676 320.487 145.555 356.241C146.455 358.235 147.283 360.336 148.36 362.237C149.686 364.469 151.246 366.668 152.448 368.957C153.59 370.533 154.711 372.131 155.888 373.68C156.557 374.542 157.249 375.387 157.852 376.297C149.162 381.657 133.324 390.321 123.915 394.695C123.408 394.19 122.959 393.6 122.495 393.054C119.93 390.298 117.889 386.944 115.801 383.822C94.3776 352.79 82.6614 304.721 95.5444 269.173Z"/>
	<defs>
		<linearGradient id="gradient_1" gradientUnits="userSpaceOnUse" x1="148.54117" y1="363.55704" x2="143.92972" y2="367.99905">
			<stop offset="0" stop-color="#D78425"/>
			<stop offset="1" stop-color="#F4A32E"/>
		</linearGradient>
	</defs>
	<path fill="url(#gradient_1)" transform="scale(1.6 1.6)" d="M148.36 362.237C149.686 364.469 151.246 366.668 152.448 368.957L150.313 367.179L143.968 370.227C142.658 367.788 142.203 365.037 144.68 363.239L148.36 362.237Z"/>
	<path fill="#FEFEFE" transform="scale(1.6 1.6)" d="M150.313 367.179L152.448 368.957C153.59 370.533 154.711 372.131 155.888 373.68C156.557 374.542 157.249 375.387 157.852 376.297C149.162 381.657 133.324 390.321 123.915 394.695C123.408 394.19 122.959 393.6 122.495 393.054C119.93 390.298 117.889 386.944 115.801 383.822C120.605 380.354 137.365 373.796 143.968 370.227L150.313 367.179Z"/>
	<path fill="#F36D08" transform="scale(1.6 1.6)" d="M155.888 373.68C156.557 374.542 157.249 375.387 157.852 376.297C149.162 381.657 133.324 390.321 123.915 394.695C123.408 394.19 122.959 393.6 122.495 393.054C133.342 386.044 144.399 379.608 155.888 373.68Z"/>
	<path fill="#5661EE" transform="scale(1.6 1.6)" d="M448.798 335.032C457.437 333.527 481.533 329.841 488.673 336.723C456.598 395.274 387.62 432.885 321.283 431.994C313.343 431.888 305.418 431.163 297.471 431.244C299.133 428.799 298.458 422.025 297.735 419.246L296.792 418.703C313.276 417.31 315.553 396.473 318.2 383.492C344.953 383.467 377.204 372.881 396.665 354.763C399.822 360.721 436.149 339.608 448.798 335.032Z"/>
	<path fill="#FED45E" transform="scale(1.6 1.6)" d="M96.5607 265.954C103.103 241.352 114.1 217.746 131.727 199.066C142.26 187.903 152.679 177.494 163.269 166.073C190.838 136.338 242.376 114.776 281.443 107.963C292.784 105.985 325.252 101.622 336.405 101.875C356.438 102.33 375.9 106.685 394.738 113.295C391.663 114.9 389.863 119.432 387.164 121.794C383.29 125.184 356.785 142.474 353.355 142.311L352.817 142.014C347.941 144.371 321.54 146.019 317.11 145.162C315.402 144.832 314.529 142.731 313.032 141.989C307.769 139.381 285.143 145.625 278.802 147.549C284.185 143.271 289.483 139.073 294.375 134.222C286.73 136.798 278.855 140.089 271.68 143.769C260.923 149.287 251.854 152.798 241.249 157.896C206.525 174.589 172.065 200.335 150.928 233.14C148.211 237.357 145.742 241.938 142.613 245.856L142.283 246.264C125.8 246.443 110.108 257.575 96.5607 265.954Z"/>
	<path fill="#B2772F" transform="scale(1.6 1.6)" d="M350.017 111.569C356.519 111.33 342.077 116.631 341.341 116.96L340.879 117.187L340.821 116.813L340.464 117.355L340.086 117.354L340.083 117.022C342.931 114.62 346.442 112.628 350.017 111.569Z"/>
	<path fill="#B2772F" transform="scale(1.6 1.6)" d="M293.823 115.861C299.398 118.211 287.455 124.141 285.71 124.836L285.045 124.914L284.848 124.437C285.814 121.634 291.19 117.223 293.823 115.861Z"/>
	<path fill="#FED45E" transform="scale(1.6 1.6)" d="M430.877 168.203C441.38 161.798 457.135 155.358 468.708 149.123C473.518 151.599 478.037 154.668 482.369 157.906C483.038 158.53 483.736 159.134 484.319 159.842C489.531 164.509 495.361 168.813 499.832 174.232L496.374 176.269C489.501 180.431 477.895 187.561 470.555 190.451C476.45 193.072 494.809 180.138 502.432 177.205C506.229 180.169 509.409 184.201 511.842 188.343C505.578 193.59 498.172 196.82 492.575 202.991C500.174 200.147 506.079 193.844 513.802 191.217C521.843 200.071 529.92 220.314 533.001 231.998C527.595 233.913 523.458 235.964 519.454 240.127C524.356 238.257 528.895 235.914 533.466 233.357C548.26 272.792 542.582 316.893 525.436 354.669C515.964 375.537 498.964 395.605 483.015 412.019C439.171 457.136 374.613 480.314 312.269 480.479C304.053 480.501 295.88 479.621 287.674 479.525L311.072 460.493C315.232 457.092 319.698 453.901 323.478 450.076C312.432 453.163 303.53 463.862 294.151 470.183C291.048 473.16 287.354 475.758 283.968 478.42C278.27 476.648 272.195 475.223 266.31 474.239C263.385 473.55 260.109 474.222 257.152 474.495C267.02 469.216 275.481 460.534 284.614 453.933C288.928 449.441 296.092 445.236 301.104 441.286L308.963 441.293C351.521 438.232 379.592 434.7 418.565 413.347C436.672 403.426 451.826 391.432 466.192 376.515C523.327 317.192 523.652 249.142 463.671 191.416C458.867 187.39 454.088 183.199 448.791 179.828C447.621 179.455 446.229 178.047 445.23 177.277C440.569 174.095 435.82 170.931 430.877 168.203Z"/>
	<path fill="#FEEAA8" transform="scale(1.6 1.6)" d="M281.187 462.682L281.282 463.245C278.969 465.131 275.43 466.914 273.659 469.223C273.756 469.706 275.895 475.513 276.062 475.708C286.418 479.994 286.351 473.939 294.064 469.725L294.151 470.183C291.048 473.16 287.354 475.758 283.968 478.42C278.27 476.648 272.195 475.223 266.31 474.239C266.752 472.936 279.092 464.206 281.187 462.682Z"/>
	<path fill="#F36D08" transform="scale(1.6 1.6)" d="M301.104 441.286L308.963 441.293C302.235 446.494 295.61 452.382 288.502 457.016L288.384 456.49C286.316 458.025 285.421 457.128 284.201 455.147L284.69 454.455L284.614 453.933C288.928 449.441 296.092 445.236 301.104 441.286Z"/>
	<path fill="#DE2501" transform="scale(1.6 1.6)" d="M284.614 453.933L284.69 454.455L284.201 455.147C285.421 457.128 286.316 458.025 288.384 456.49L288.502 457.016C286.179 458.899 283.291 460.606 281.187 462.682C279.092 464.206 266.752 472.936 266.31 474.239C263.385 473.55 260.109 474.222 257.152 474.495C267.02 469.216 275.481 460.534 284.614 453.933Z"/>
	<path fill="#FEFEFE" transform="scale(1.6 1.6)" d="M484.319 159.842C489.531 164.509 495.361 168.813 499.832 174.232L496.374 176.269C486.178 176.038 479.032 178.29 469.886 172.377C465.713 168.306 480.686 161.919 484.319 159.842Z"/>
	<path fill="#FEFEFE" transform="scale(1.6 1.6)" d="M430.877 168.203C441.38 161.798 457.135 155.358 468.708 149.123C473.518 151.599 478.037 154.668 482.369 157.906C483.038 158.53 483.736 159.134 484.319 159.842C480.686 161.919 465.713 168.306 469.886 172.377L469.603 173.214C466.383 174.531 466.276 170.876 461.33 173.071C457.326 175.534 453.03 177.793 448.791 179.828C447.621 179.455 446.229 178.047 445.23 177.277C440.569 174.095 435.82 170.931 430.877 168.203Z"/>
	<path fill="#51230A" transform="scale(1.6 1.6)" d="M482.369 157.906C483.038 158.53 483.736 159.134 484.319 159.842C480.686 161.919 465.713 168.306 469.886 172.377L469.603 173.214C466.383 174.531 466.276 170.876 461.33 173.071C457.326 175.534 453.03 177.793 448.791 179.828C447.621 179.455 446.229 178.047 445.23 177.277C450.958 177.296 464.282 166.767 470.004 163.831C472.887 161.58 478.899 159.18 482.369 157.906Z"/>
	<path fill="#FC615C" transform="scale(1.6 1.6)" d="M542.656 341.481C544.175 351.618 536.284 388.463 530.96 401.404C505.751 462.682 460.31 497.763 397.531 517.602C352.952 531.69 302.368 538.902 256.128 530.855C245.907 529.076 236.097 525.724 226.261 522.511C192.13 511.366 174.387 502.326 148.085 475.371C132.513 459.412 123.536 445.597 114.683 424.918C108.573 410.644 104.272 394.156 97.8994 378.716C102.698 382.951 107.686 389.282 110.399 395.081C115.759 406.532 112.169 401.555 123.587 409.422C131.751 415.594 139.269 422.637 147.313 428.982C154.101 434.337 161.432 438.871 168.178 444.347C161.801 446.265 154.674 449.661 148.963 453.075C147.522 453.936 145.738 455.583 148.798 454.849C156.303 453.048 164.362 446.237 172.105 449.296C182.085 453.239 192.485 458.575 202.961 462.784C201.172 463.827 177.853 478.837 176.991 479.832L177.343 480.372L176.913 480.253L177.129 479.671L177.854 480.29C184.459 478.662 199.282 468.386 205.793 464.393C222.112 468.45 234.838 476.898 253.609 478.891C263.809 479.974 273.802 480.797 284.121 482.009C281.122 483.86 264.468 493.732 264.116 497.451C266.393 499.658 269.902 495.027 271.731 493.633C292.852 477.54 291.104 485.586 314.187 484.455C362.07 482.109 393.486 473.646 436.648 453.5C472.528 436.753 491.308 418.406 515.819 387.121C526.965 372.894 536.421 358.602 542.656 341.481Z"/>
	<path transform="scale(1.6 1.6)" d="M246.993 490.308C247.19 493.636 236.186 510.504 232.921 511.349C229.812 506.212 243.454 493.71 246.993 490.308Z"/>
	<path transform="scale(1.6 1.6)" d="M205.624 477.374C214.461 477.176 192.053 493.921 189.18 496.496C188.69 496.906 188.319 497.027 187.706 497.191L187.444 496.894C187.748 493.328 201.862 481.172 205.624 477.374Z"/>
	<path fill="#15BBAB" transform="scale(1.6 1.6)" d="M145.345 252.202C149.19 244.226 158.252 233.649 164.108 226.749C189.348 197.013 215.553 174.215 251.349 158.528C265.445 152.35 293.292 146.382 308.904 147.688C335.964 149.951 363.751 144.752 389.413 154.754L393.515 156.311C394.884 156.836 396.273 157.332 397.624 157.901L400.389 158.921C405.428 160.927 413.256 163.707 417.269 167.197L423.452 170.387C430.007 173.693 437.947 177.843 443.463 182.65L444.755 183.443C460.218 193.842 480.143 212.482 487.868 228.699L490.213 233.052C492.151 236.369 494.264 240.443 495.254 244.177C496.87 248.343 498.242 252.545 499.65 256.783C500.907 261.102 501.893 265.587 502.29 270.075L502.614 273.403C503.867 290.94 500.33 308.433 494.243 324.83C492.636 328.956 490.796 332.838 488.673 336.723C481.533 329.841 457.437 333.527 448.798 335.032C436.149 339.608 399.822 360.721 396.665 354.763C377.204 372.881 344.953 383.467 318.2 383.492C315.553 396.473 313.276 417.31 296.792 418.703L297.735 419.246C298.458 422.025 299.133 428.799 297.471 431.244C258.012 432.608 212.914 422.795 185.249 392.629L181.503 389.177C178.061 387.026 173.777 381.806 170.909 378.831L168.164 376.085C161.057 368.714 154.382 359.44 150.355 349.979L147.62 344.379C140.96 334.296 136.581 314.49 135.514 301.774C136.185 301.644 136.835 301.406 137.487 301.201C136.935 299.846 137.204 298.005 137.247 296.565L135.283 296.591C135.112 289.15 136.115 281.888 137.618 274.624C138.453 270.59 139.454 266.724 140.888 262.858L141.913 263.153C143.677 261.568 145.546 260.257 147.546 258.991L146.371 258.636C144.061 256.602 146.606 254.037 148.126 252.391C147.204 252.28 146.272 252.253 145.345 252.202Z"/>
	<path fill="#6FECE1" transform="scale(1.6 1.6)" d="M140.888 262.858L141.913 263.153C140.255 265.962 139.563 268.434 139.066 271.649L138.763 271.743L138.87 271.973C136.488 275.599 144.921 267.842 147.486 267.899C145.456 269.201 141.436 270.975 140.972 273.57C139.846 274.233 138.913 274.477 137.618 274.624C138.453 270.59 139.454 266.724 140.888 262.858Z"/>
	<path fill="#A7F8F7" transform="scale(1.6 1.6)" d="M363.177 177.999C362.065 179.352 353.824 184.16 352.285 184.028L352.236 183.539C353.992 180.877 360.233 177.034 363.114 175.408L362.863 175.802C362.456 176.427 361.954 176.968 361.456 177.52L361.548 177.895C362.187 178.069 362.528 178.048 363.177 177.999Z"/>
	<path fill="#A7F8F7" transform="scale(1.6 1.6)" d="M484.233 231.844C484.91 232.927 486.151 234.032 486.528 235.208C483.173 237.115 480.016 239.838 476.91 242.154C479.483 238.827 481.828 235.296 484.233 231.844Z"/>
	<path fill="#6FECE1" transform="scale(1.6 1.6)" d="M487.868 228.699L490.213 233.052C488.995 234 487.992 234.662 486.528 235.208C486.151 234.032 484.91 232.927 484.233 231.844C484.78 230.316 486.387 229.185 487.868 228.699Z"/>
	<path fill="#6FECE1" transform="scale(1.6 1.6)" d="M187.65 327.36C184.154 329.977 172.617 337.413 168.806 338.27C169.38 336.566 174.951 335.354 175.648 333.71C172.922 334.851 170.137 336.874 167.132 337.044C172.745 333.545 181.439 330.049 187.65 327.36Z"/>
	<path fill="#6FECE1" transform="scale(1.6 1.6)" d="M502.29 270.075L502.614 273.403C496.632 276.481 491.292 281.071 484.845 283.252C490.727 278.71 496.717 275.106 502.29 270.075Z"/>
	<path fill="#A7F8F7" transform="scale(1.6 1.6)" d="M499.65 256.783C491.995 258.653 485.64 263.159 478.638 266.562L478.477 267.146L478.443 266.631L477.629 267.035L477.729 267.006L477.475 267.077C482.03 263.283 487.854 260.6 492.748 257.195C499.071 252.797 493.769 248.899 494.56 244.594L495.254 244.177C496.87 248.343 498.242 252.545 499.65 256.783Z"/>
	<path fill="#A7F8F7" transform="scale(1.6 1.6)" d="M417.269 167.197L423.452 170.387C418.465 173.764 404.428 181.285 399.167 183.511C404.667 179.335 411.835 174.852 415.846 169.176L417.269 167.197Z"/>
	<path fill="#A7F8F7" transform="scale(1.6 1.6)" d="M473.78 212.439C474.892 213.051 476.018 214.542 476.929 215.465C471.619 220.943 463.826 224.326 457.001 227.527C455.868 228.06 454.68 228.489 453.515 228.946C460.816 224.228 467.621 218.556 473.78 212.439Z"/>
	<path fill="#6FECE1" transform="scale(1.6 1.6)" d="M198.909 364.158C195.171 367.326 175.458 378.104 170.909 378.831L168.164 376.085C171.729 373.942 192.461 367.04 198.909 364.158Z"/>
	<path fill="#A7F8F7" transform="scale(1.6 1.6)" d="M181.503 389.177C190.682 386.298 199.604 381.346 207.196 379.026C203.307 382.327 190.207 392.772 185.249 392.629L181.503 389.177Z"/>
	<path fill="#A7F8F7" transform="scale(1.6 1.6)" d="M167.132 337.044C170.137 336.874 172.922 334.851 175.648 333.71C174.951 335.354 169.38 336.566 168.806 338.27C161.87 341.91 156.226 344.581 150.355 349.979L147.62 344.379C153.797 344.119 161.217 339.134 167.132 337.044Z"/>
	<path fill="#A7F8F7" transform="scale(1.6 1.6)" d="M438.551 181.486C440.216 182.046 441.664 182.771 443.463 182.65L444.755 183.443C444.834 184.486 444.875 185.494 444.845 186.54C441.315 189.355 431.328 190.566 425.48 193.808C429.67 189.533 433.959 185.33 438.551 181.486Z"/>
	<path fill="#FEFEFE" transform="scale(1.6 1.6)" d="M183.514 304.401L183.927 304.507C173.456 311.54 160.476 316.574 149.334 322.647C146.536 324.172 144.408 326.668 141.651 328.294C137.164 319.427 176.318 307.229 183.514 304.401Z"/>
	<path fill="#A7F8F7" transform="scale(1.6 1.6)" d="M147.486 267.899C155.867 263.853 191.478 246.505 198.902 244.902C183.78 253.133 171.996 258.935 156.229 266.278C151.163 268.638 146.152 271.537 140.972 273.57C141.436 270.975 145.456 269.201 147.486 267.899Z"/>
	<path fill="#A7F8F7" transform="scale(1.6 1.6)" d="M186.648 276.522C174.341 285.353 151.659 293.59 137.487 301.201C136.935 299.846 137.204 298.005 137.247 296.565C151.515 293.748 171.501 281.582 186.648 276.522Z"/>
	<defs>
		<linearGradient id="gradient_2" gradientUnits="userSpaceOnUse" x1="380.42969" y1="174.06554" x2="377.75894" y2="161.65274">
			<stop offset="0" stop-color="#B2FFFF"/>
			<stop offset="1" stop-color="#E5FFFF"/>
		</linearGradient>
	</defs>
	<path fill="url(#gradient_2)" transform="scale(1.6 1.6)" d="M393.515 156.311C394.884 156.836 396.273 157.332 397.624 157.901L400.389 158.921C394.17 163.2 369.504 175.382 363.177 177.999C362.528 178.048 362.187 178.069 361.548 177.895L361.456 177.52C361.954 176.968 362.456 176.427 362.863 175.802L363.114 175.408C367.154 172.107 371.819 169.305 376.064 166.234C377.594 165.338 379.072 164.355 380.56 163.392C386.245 158.424 386.621 157.947 393.515 156.311Z"/>
	<path fill="#A7F8F7" transform="scale(1.6 1.6)" d="M393.515 156.311C394.884 156.836 396.273 157.332 397.624 157.901C395.236 159.785 392.287 157.349 389.484 159.524C386.125 162.131 385.19 164.607 380.56 163.392C386.245 158.424 386.621 157.947 393.515 156.311Z"/>
	<path fill="#FEFEFE" transform="scale(1.6 1.6)" d="M148.126 252.391C152.129 250.812 156.469 249.836 160.601 248.62C189.075 240.235 215.051 224.543 244.601 219.946C219.142 237.091 176.613 244.99 147.546 258.991L146.371 258.636C144.061 256.602 146.606 254.037 148.126 252.391Z"/>
	<path transform="scale(1.6 1.6)" d="M301.122 196.44C301.587 186.225 299.403 172.856 307.768 165.184C315.186 158.379 325.236 161.307 331.363 168.338C339.196 177.327 337.937 190.358 335.088 201.117C350.691 199.705 358.875 191.343 373.486 203.02C381.247 209.224 390.138 223.289 382.324 232.562C365.051 253.059 343.223 234.724 325.005 226.182C318.216 231.977 319.016 251.163 324.334 257.421C338.94 274.605 382.107 261.131 404.375 297.018C416.294 316.227 411.943 338.682 396.665 354.763C377.204 372.881 344.953 383.467 318.2 383.492C315.553 396.473 313.276 417.31 296.792 418.703C274.598 416.996 282.072 398.757 287.538 385.287C266.606 380.516 254.865 380.854 235.888 366.004C220.015 353.583 233.667 345.405 247.476 337.571C269.104 325.301 271.718 335.156 289.66 339.58C291.506 339.351 294.26 341.152 296.144 341.723C299.595 338.693 293.541 333.584 291.932 331.394C286.69 324.262 278.271 319.961 272.48 313.143C269.614 309.768 258.4 292.919 259.619 288.777C238.806 278.348 219.927 261.653 232.604 236.792C249.398 203.86 289.824 212.82 301.122 196.44Z"/>
	<path fill="#5661EE" transform="scale(1.6 1.6)" d="M289.66 339.58C291.506 339.351 294.26 341.152 296.144 341.723C299.595 338.693 293.541 333.584 291.932 331.394C286.69 324.262 278.271 319.961 272.48 313.143C269.614 309.768 258.4 292.919 259.619 288.777C274.599 294.388 293.91 297.631 309.603 300.961C325.408 304.315 347.654 306.704 338.136 330.662C330.434 350.049 304.966 348.705 289.66 339.58Z"/>
	<path fill="#5661EE" transform="scale(1.6 1.6)" d="M315.308 166.871C316.971 166.838 318.492 167.09 320.025 167.762C338.417 175.819 326.821 197.4 330.055 204.471C334.009 213.117 365.26 186.66 378.083 216.373C382.276 226.089 376.856 233.825 367.352 237.117C356.814 240.766 335.984 225.578 325.296 220.374C315.075 223.709 317.841 230.951 316.719 239.264C315.461 248.58 311.034 254.379 319.56 261.394C331.847 271.504 347.079 270.454 361.7 273.785C407.661 284.256 423.234 328.493 383.562 357.449C368.904 368.147 346.215 376.425 327.74 377.34C323.744 377.538 319.222 377.183 315.373 378.203C307.457 380.301 313.638 410.615 296.029 414.83C294.303 414.359 292.829 413.857 291.266 412.966C281.087 404.019 293.559 387.137 292.207 382.668C290.75 377.85 244.836 378.578 236.399 353.319C238.585 347.889 243.73 344.175 248.627 341.316C277.446 324.492 294.093 359.526 326.036 347.879C341.068 342.398 348.465 325.714 342.679 311.074C338.002 299.242 322.26 298.171 311.584 296.077L288.874 291.407C270.611 287.571 244.837 282.443 237.288 262.73C232.684 250.71 237.033 239.129 244.954 229.85C258.992 213.405 286.534 210.758 306.244 203.366C306.899 192.494 302.852 170.684 315.308 166.871Z"/>
</svg>
