<?xml version="1.0" encoding="utf-8" ?>
<svg width="100" height="100" viewBox="0 0 900 900">
	<path fill="#9B1315" transform="scale(1.6 1.6)" d="M399.151 284.727C398.996 285.899 398.691 286.688 399.354 287.751L397.957 288.599C396.207 288.027 395.268 287.523 394.317 285.909L399.151 284.727Z"/>
	<path fill="#6D0205" transform="scale(1.6 1.6)" d="M404.114 281.756L405.841 283.695L399.354 287.751C398.691 286.688 398.996 285.899 399.151 284.727L404.114 281.756Z"/>
	<path fill="#DC2E2F" transform="scale(1.6 1.6)" d="M396.389 294.027L394.412 292.703L393.426 288.942C393.458 287.829 393.511 286.686 394.317 285.909C395.268 287.523 396.207 288.027 397.957 288.599C396.594 290.328 396.548 291.926 396.389 294.027Z"/>
	<path transform="scale(1.6 1.6)" d="M204.908 133.423C215.674 99.8327 249.85 92.6293 279.845 84.9725C287.385 83.0477 294.896 80.544 302.698 79.9839C346.146 76.8649 382.296 105.8 391.289 148.68C392.109 152.588 392.545 156.943 393.81 160.708L394.904 160.41C398.112 158.517 410.51 159.733 414.255 160.775C422.2 162.987 430.262 168.469 436.098 174.262C439.827 170.887 443.536 167.348 447.602 164.382C465.957 150.99 492.336 149.398 508.309 167.357C517.115 177.257 521.281 190.13 515.751 202.642C503.81 229.658 457.037 261.149 433.191 277.889C424.016 284.33 417.644 289.766 407.766 295.503L406.015 300.484L404.72 299.235C403.77 297.508 404.561 295.778 405.07 294.045C402.005 294.587 399.443 294.918 396.389 294.027C396.548 291.926 396.594 290.328 397.957 288.599L399.354 287.751L405.841 283.695L404.114 281.756L407.419 277.238C415.162 260.469 399.447 242.983 384.73 236.306L384.161 237.376C381.587 241.917 377.044 246.543 371.921 247.951L365.766 247.982C370.408 269.132 362.391 284.835 353.667 303.353C352.225 306.413 350.656 307.413 353.701 309.598C382.613 312.445 424.363 308.711 444.282 333.106C457.737 349.584 456.692 375.897 462.475 396.784C468.249 417.636 480.317 430.806 477.781 454.12C476.028 470.247 456.966 491.685 444.356 501.625C411.717 527.355 367.544 529.032 327.969 535.193C309.919 538.004 292.158 542.628 273.868 543.813C251.91 545.236 230.137 541.18 208.556 537.704C176.3 532.509 163.023 527.22 142.484 501.127C112.94 463.593 125.126 424.901 150.283 389.363C162.574 372.001 176.295 359.862 195.615 350.789C208.958 344.523 236.027 337.767 244.362 326.42L244.992 325.582C240.975 318.177 236.823 310.899 233.739 303.038C232.388 299.595 228.642 284.623 227.203 282.958C226.606 282.269 216.904 278.705 214.803 277.407C198.296 267.206 180.788 243.333 186.714 222.998L189.733 216.795C183.557 208.998 177.111 193.832 175.207 184.055C171.11 163.013 183.293 138.885 204.908 133.423ZM194.292 221.926C190.911 225.67 191.315 229.503 191.578 234.22C192.443 249.754 202.154 262.564 213.437 272.527C216.344 275.094 222.594 280.286 226.753 280.01L229.779 280.058C232.477 282.7 236.183 296.143 238.136 300.73C247.827 323.498 271.152 341.741 296.316 341.541C310.579 341.428 329.27 322.703 338.525 313.167C350.852 300.466 361.862 278.07 361.579 260.65C361.518 256.878 360.033 248.837 362.402 245.937L365.766 247.982L371.921 247.951L371.826 247.49C380.86 238.855 384.627 216.245 387.258 203.412C374.33 209.283 368.771 231.716 363.705 231.591C359.355 229.916 357.161 215.914 355.758 211.727C352.029 200.603 347.699 189.943 344.824 178.524C341.895 166.886 346.18 158.722 329.363 160.793C318.8 162.094 308.721 165.793 298.218 167.496C263.7 173.094 233.012 161.058 225.117 206.103C223.111 217.548 220.51 247.653 225.438 257.947L226.032 259.018L224.346 259.705C210.846 260.282 203.953 230.768 194.292 221.926Z"/>
	<path fill="#FFB5B2" transform="scale(1.6 1.6)" d="M391.764 206.118L394.779 207.91C398.786 212.224 394.632 217.912 391.141 220.943L388.655 223.096L391.764 206.118Z"/>
	<path fill="#FC615C" transform="scale(1.6 1.6)" d="M322.183 358.391C324.371 358.247 333.398 366.093 335.455 367.888L335.298 369.103C334.319 375.88 330.312 388.388 324.669 392.608L318.649 388.005L300.719 370.069C307.346 365.356 314.921 362.014 322.183 358.391Z"/>
	<path fill="#FC615C" transform="scale(1.6 1.6)" d="M329.914 392.545C335.854 403.38 342.092 424.282 346.367 436.291C350.084 446.73 354.707 457.094 357.505 467.823C362.841 488.283 358.182 491.659 341.094 503.091C337.875 505.084 326.605 512.87 323.122 512.448C318.699 508.864 320.284 495.131 320.288 490.194C320.303 472.405 321.325 404.331 329.914 392.545Z"/>
	<path fill="#15BBAB" transform="scale(1.6 1.6)" d="M347.995 313.094C353.199 321.293 359.904 329.264 362.74 338.676C364.942 345.983 365.974 363.758 355.975 366.306C344.679 369.185 332.065 357.535 323.091 352.196C308.463 355.705 286.147 383.311 269.282 379.543C249.764 373.333 253.486 346.731 254.155 331.073C291.746 358.268 320.43 347.272 347.995 313.094Z"/>
	<path fill="#5661EE" transform="scale(1.6 1.6)" d="M152.618 398.963C168.595 400.636 184.819 403.609 195.944 416.302C212.023 434.649 221.97 477.828 227.221 501.6C229.362 511.295 232.009 525.589 235.822 534.543L218.491 531.486C199.912 528.306 182.519 526.34 166.747 514.817C150.763 503.138 136.731 485.734 133.656 465.848C130.239 443.751 139.42 417.06 152.618 398.963Z"/>
	<path fill="#FC615C" transform="scale(1.6 1.6)" d="M439.699 176.967C451.137 166.862 464.452 159.678 480.173 160.614C496.6 161.591 512.217 174.548 511.164 191.712C509.517 218.559 449.011 257.58 428.999 273.549C422.79 278.503 411.058 290.723 405.07 294.045C402.005 294.587 399.443 294.918 396.389 294.027C396.548 291.926 396.594 290.328 397.957 288.599L399.354 287.751L405.841 283.695C424.167 266.028 407.699 237.445 387.202 231.749L388.406 226.622C393.704 223.341 399.165 220.216 400.644 213.563C402.888 203.468 391.883 202.008 391.049 199.729C390.422 198.016 392.334 181.72 392.111 176.476C391.978 173.336 389.504 168.773 390.278 165.886L392.007 163.404L392.503 163.492C396.583 164.196 400.725 163.804 404.83 164.213C419.101 165.635 426.706 174.148 435.39 184.536C436.995 184.842 439.686 185.667 441.129 184.571L441.949 182.696L439.699 176.967Z"/>
	<path fill="#5661EE" transform="scale(1.6 1.6)" d="M301.819 83.5649C346.49 78.3101 385.805 121.93 388.071 164.996C388.267 168.724 387.484 172.445 387.779 176.19C388.391 183.97 390.219 189.691 389.048 197.77L385.451 198.561C374.949 201.777 369.017 214.58 364.247 223.453C359.937 205.546 351.893 188.377 349.244 170.198C348.441 164.689 348.441 158.493 342.022 156.729C331.96 153.964 311.781 161.442 301.09 163.558C279.72 167.789 257.193 162.688 237.444 174.012L231.281 179.237C218.23 193.969 218.64 232.314 219.819 252.857C213.913 243.781 208.841 234.236 203.334 224.923C201.358 221.584 198.766 218.615 196.692 215.333C184.306 195.732 174.366 173.309 187.993 151.726C203.591 127.022 216.575 149.994 221.766 148.842L222.476 147.77C224.889 140.156 216.614 135.86 210.743 134.137C220.928 104.07 248.807 95.8972 277.086 88.7007C285.237 86.6264 293.423 84.3768 301.819 83.5649Z"/>
	<path fill="#FED45E" transform="scale(1.6 1.6)" d="M194.292 221.926C203.953 230.768 210.846 260.282 224.346 259.705L226.032 259.018L225.438 257.947C220.51 247.653 223.111 217.548 225.117 206.103C233.012 161.058 263.7 173.094 298.218 167.496C308.721 165.793 318.8 162.094 329.363 160.793C346.18 158.722 341.895 166.886 344.824 178.524C347.699 189.943 352.029 200.603 355.758 211.727C357.161 215.914 359.355 229.916 363.705 231.591C368.771 231.716 374.33 209.283 387.258 203.412C384.627 216.245 380.86 238.855 371.826 247.49L371.921 247.951L365.766 247.982L362.402 245.937C360.033 248.837 361.518 256.878 361.579 260.65C361.862 278.07 350.852 300.466 338.525 313.167C329.27 322.703 310.579 341.428 296.316 341.541C271.152 341.741 247.827 323.498 238.136 300.73C236.183 296.143 232.477 282.7 229.779 280.058L226.753 280.01C222.594 280.286 216.344 275.094 213.437 272.527C202.154 262.564 192.443 249.754 191.578 234.22C191.315 229.503 190.911 225.67 194.292 221.926ZM329.817 264.909C326.23 271.718 321.995 281.988 313.992 284.489C304.65 287.408 282.752 287.15 273.23 285.349C270.006 284.74 267.29 282.096 264.151 281.656C260.222 281.105 259.345 286.837 260.36 289.531C263.93 299.005 278.367 309.507 287.043 313.196L287.786 313.502C292.696 315.167 314.812 321.309 319.642 319.126L320.917 317.949L319.843 315.476C316.46 311.675 301.198 311.274 293.876 309.167C320.096 308.209 331.175 292.914 330.061 267.651L329.817 264.909Z"/>
	<path transform="scale(1.6 1.6)" d="M258.324 209.189L262.776 209.632C266.934 210.497 273.516 213.582 275.748 217.382L275.87 218.403C274.175 219.009 265.208 215.404 261 215.139C255.021 215.004 245.028 219.42 243.832 219.071L245.119 215.154C248.56 211.075 253.246 209.716 258.324 209.189Z"/>
	<path transform="scale(1.6 1.6)" d="M327.499 200.714C330.556 200.275 335.183 201.197 337.601 203.305L338.373 204.851C337.258 206.604 333.87 205.975 331.986 206.104C325.284 206.563 319.62 208.999 314.209 212.893L309.525 217.117L307.059 217.364C305.958 209.793 321.195 201.852 327.499 200.714Z"/>
	<path transform="scale(1.6 1.6)" d="M274.953 259.633C284.638 260.67 303.503 280.323 314.791 266.817C315.654 265.785 317.39 262.881 318.45 262.445L319.286 263.06C319.836 264.37 319.225 265.65 318.753 266.877C307.285 285.377 286.029 269.855 272.985 262.106L274.953 259.633Z"/>
	<path transform="scale(1.6 1.6)" d="M329.817 264.909L330.061 267.651C331.175 292.914 320.096 308.209 293.876 309.167C301.198 311.274 316.46 311.675 319.843 315.476L320.917 317.949L319.642 319.126C314.812 321.309 292.696 315.167 287.786 313.502L287.043 313.196C278.367 309.507 263.93 299.005 260.36 289.531C259.345 286.837 260.222 281.105 264.151 281.656C267.29 282.096 270.006 284.74 273.23 285.349C282.752 287.15 304.65 287.408 313.992 284.489C321.995 281.988 326.23 271.718 329.817 264.909ZM321.861 285.415C305.06 294.568 285.924 288.724 268.896 289.03C271.236 292.785 273.695 296.079 277.129 298.906C281.829 302.919 289.487 307.87 295.902 307.258C305.685 306.325 321.825 297.049 322.017 285.534L321.861 285.415Z"/>
	<path fill="#15BBAB" transform="scale(1.6 1.6)" d="M356.783 316.035C388.297 319.569 431.741 314.844 447.04 349.826C453.162 363.823 453.226 381.822 457.316 396.974C465.988 429.104 484.125 442.194 460.409 474.999C452.872 464.307 447.561 452.645 444.483 439.932C439.652 419.978 440.385 380.733 424.96 366.141L424.828 368.794C425.197 376.494 430.344 391.701 432.01 400.358C437.098 426.781 435.421 459.592 456.819 479.476C430.301 517.883 374.835 519.979 333.529 526.233C318.13 528.564 303.02 532.708 287.587 534.73C270.725 536.939 254.4 535.908 237.506 534.953C237.946 520.42 230.246 489.274 226.735 474.798C217.181 435.647 203.856 394.149 156.255 393.418C169.271 377.194 184.414 363.824 203.465 355.081C218.652 348.111 235.705 344.175 247.807 331.918C245.003 349.514 245.934 377.555 266.557 384.343C277.321 387.887 286.572 379.655 295.578 375.082C304.753 381.98 312.449 390.534 321.673 397.395C321.271 403.917 320.086 410.445 319.575 416.985C317.676 441.259 316.434 468.767 316.421 492.866C316.407 518.128 318.24 521.003 341.315 508.617C378.986 488.397 362.806 465.453 351.268 435.399C346.189 422.168 339.299 400.593 332.639 388.718C336.846 382.447 338.726 377.238 339.381 369.706C353.112 373.832 361.43 374.351 366.267 359.15C371.478 342.777 364.045 330.179 356.783 316.035Z"/>
</svg>
