<?xml version="1.0" encoding="utf-8" ?>
<svg width="100" height="100" viewBox="0 0 900 900">
	<path transform="scale(1.6 1.6)" d="M137.513 272.654C131.885 264.879 128.336 254.443 125.624 245.297C107.384 183.786 127.961 114.846 193.907 95.6196C223.368 87.0301 283.567 88.8518 311.541 104.295C339.828 119.91 360.577 156.482 366.809 187.919C367.363 190.713 367.643 193.576 368.459 196.309L368.573 196.674L381.548 188.614C388.896 184.633 411.062 174.728 418.429 176.913L445.228 173.646L445.422 171.88C448.927 170.326 464.918 172.394 469.324 173.273C537.686 186.91 564.221 271.48 540.94 331.205C538.17 338.313 534.699 345.626 529.765 351.483C561.261 369.042 558.687 376.398 558.782 409.601C558.809 418.887 558.891 428.217 559.12 437.5C559.553 455.056 563.321 473.755 554.181 489.804C545.662 504.76 529.337 512.217 513.368 516.486C509.605 517.492 498.039 520.951 494.808 519.248L493.427 517.905L493.318 516.131C490.162 515.256 471.507 516.305 467.635 517.029L467.703 519.831C469.205 519.839 472.37 519.641 473.559 520.62L473.728 520.808C470.078 524.14 425.723 522.689 418.549 522.364C399.918 521.522 377.7 519.416 360.225 512.711C352.462 509.732 335.806 501.576 329.231 496.61C320.867 509.891 309.293 514.219 294.513 517.575C262.036 524.951 229.499 529.584 196.193 526.155C192.264 526.489 172.944 522.959 168.721 521.828C161.474 521.276 154.112 517.643 146.874 517.77L143.284 519.809L130.823 517.782C101.667 509.565 101.145 486.908 101.244 461.247C101.325 440.195 100.847 419.109 101.275 398.065C101.379 392.931 101.989 387.801 102.061 382.669C102.146 376.61 101.253 370.57 101.527 364.483C102.244 348.591 105.7 332.801 105.005 316.843C104.755 311.098 103.244 304.114 104.983 298.552C108.54 287.169 127.279 277.795 137.513 272.654ZM227.293 94.2547C154.377 100.096 118.601 145.622 124.573 218.107C126.011 235.56 130.358 248.959 136.746 265.088C136.704 262.081 135.246 258.451 134.498 255.511C127.354 227.399 125.875 196.621 136.452 169.211C149.667 134.966 179.98 108.009 215.134 97.8899C219.122 96.742 224.055 96.1906 227.78 94.5345L227.293 94.2547ZM369.701 225.04C378.864 214.284 388.421 197.832 400.449 190.286C403.554 188.338 410.219 185.152 412.309 182.389L412.213 181.707C402.937 183.674 377.335 193.577 369.185 199.664L369.701 225.04Z"/>
	<path fill="white" transform="scale(1.6 1.6)" d="M463.441 517.958L467.635 517.029L467.703 519.831C465.651 519.708 464.9 519.408 463.441 517.958Z"/>
	<path fill="#D0A039" transform="scale(1.6 1.6)" d="M346.725 337.762C347.867 338.459 353.773 351.415 354.469 353.64L354.581 355.267C349.618 349.995 348.123 344.665 346.725 337.762Z"/>
	<path fill="#5762EF" transform="scale(1.6 1.6)" d="M108.773 444.773C125.477 465.482 156.262 459.81 178.859 461.605C193.184 462.743 207.391 464.825 221.737 465.727C237.624 466.727 253.589 466.382 269.5 466.387C292.792 466.395 313.558 466.82 332.492 451.278L335.91 448.383C337.692 468.019 331.464 495.266 312.69 505.626C299.259 513.038 262.417 521.562 246.869 523.014L246.679 523.018C236.959 524.821 226.08 525.668 216.193 525.681C213.036 525.685 198.029 525.123 196.193 526.155C192.264 526.489 172.944 522.959 168.721 521.828C161.474 521.276 154.112 517.643 146.874 517.77C145.429 513.583 138.371 513.378 134.707 512.117C103.552 501.399 108.706 471.575 108.773 444.773Z"/>
	<path fill="#53A8FF" transform="scale(1.6 1.6)" d="M168.721 521.828C171.941 520.369 193.938 527.142 197.481 524.957L200.233 525.2C206.478 525.45 212.845 525.507 219.086 525.16C222.641 524.962 245.473 522.755 246.679 523.018C236.959 524.821 226.08 525.668 216.193 525.681C213.036 525.685 198.029 525.123 196.193 526.155C192.264 526.489 172.944 522.959 168.721 521.828Z"/>
	<path fill="#5762EF" transform="scale(1.6 1.6)" d="M339.867 377.727C340.565 381.942 339.985 389.46 339.973 393.944C339.91 415.965 343.795 437.125 322.792 451.463C307.384 461.981 289.206 460.553 271.456 460.54C251.569 460.525 231.614 460.453 211.771 458.99C200.552 458.162 189.479 456.242 178.259 455.48C157.351 454.058 126.37 459.871 112.494 439.422C104.966 426.865 106.187 399.279 106.915 384.837L109.291 386.426C139.365 404.212 226.644 400.102 266.953 399.36C293.222 398.876 324.097 404.686 339.867 377.727Z"/>
	<path fill="#5762EF" transform="scale(1.6 1.6)" d="M139.283 277.86C159.546 307.483 196.834 330.706 233.568 330.658C265.669 330.616 304.636 318.248 332.749 301.726C335.132 305.244 337.031 309.191 338.529 313.162C339.807 316.551 341.358 327.78 343.547 329.407L341.633 331.516C339.366 334.059 341.365 341.095 341.444 344.445C342.18 375.659 325.804 394.55 294.03 393.694C288.643 393.548 283.28 392.936 277.886 392.854C269.282 392.723 260.791 393.417 252.207 393.629C219.904 394.427 128.513 395.714 111.964 379.376C102.438 369.97 107.648 355.257 108.717 343.764C109.423 336.176 109.665 328.709 109.665 321.091C126.848 339.247 168.591 338.486 193.732 338.514C198.389 338.52 206.845 339.902 210.871 336.967L210.747 335.23C206.981 332.168 198.274 333.601 193.711 333.405C171.051 332.431 121.458 333.425 111.051 312.022C102.034 293.477 125.764 283.78 139.283 277.86Z"/>
	<path fill="#FD625D" transform="scale(1.6 1.6)" d="M341.113 440.254C347.857 414.845 343.676 394.631 344.944 369.291C345.222 363.748 346.28 358.069 346.993 352.564C371.973 385.303 415.622 395.459 454.93 391.962C471.275 390.508 485.86 383.631 500.338 376.297C505.499 373.682 510.704 369.97 516.263 368.327L516.641 368.22L522.846 370.354L518.911 364.286L526.706 355.676C536.957 360.56 549.717 366.745 552.634 378.775C554.725 387.398 554.636 409.243 553.447 418.26C550.349 441.756 528.36 449.309 508.114 453.846C504.952 454.554 499.603 454.748 497.121 456.843L496.254 458.795L497.93 460.356C502.348 462.205 521.891 455.36 527.336 453.296C539.483 448.691 549.19 442.856 554.695 430.666C555.233 442.123 556.373 473.685 552.363 483.193C544.429 502.005 524.321 509.464 505.814 513.636C502.387 514.408 494.348 513.848 493.427 517.905L493.318 516.131C490.162 515.256 471.507 516.305 467.635 517.029L463.441 517.958C462.639 517.16 459.151 517.802 458.003 517.901C443.422 519.163 428.945 518.425 414.379 517.359C383.096 515.07 358.397 511.631 332.295 493.001C342.641 474.306 339.56 464.061 340.487 445.259C354.882 454.739 370.91 458.481 387.791 460.364C391.087 460.731 401.107 462.436 403.447 460.284L403.824 458.954C403.703 455.676 399.925 455.852 397.614 455.787C380.023 455.292 354.924 451.711 341.113 440.254Z"/>
	<path fill="#FFD55F" transform="scale(1.6 1.6)" d="M445.422 171.88L446.166 174.712C449.97 176.215 464.451 176.349 470.188 177.529C532.389 190.321 559.689 272.219 538.054 326.676C526.194 356.525 510.41 367.737 481.803 380.045C468.479 385.778 458.13 387.695 443.816 387.602C409.46 387.378 378.884 381.392 354.581 355.267L354.469 353.64C353.773 351.415 347.867 338.459 346.725 337.762L345.172 332.004C344.845 330.989 344.533 329.908 343.547 329.407C341.358 327.78 339.807 316.551 338.529 313.162C337.031 309.191 335.132 305.244 332.749 301.726L343.08 293.388C359.64 277.325 369.462 247.933 369.701 225.04C378.864 214.284 388.421 197.832 400.449 190.286C403.554 188.338 410.219 185.152 412.309 182.389L412.213 181.707L417.566 180.283C418.601 179.44 418.432 178.108 418.429 176.913L445.228 173.646L445.422 171.88Z"/>
	<path transform="scale(1.6 1.6)" d="M444.079 209.71L444.994 209.678C453.225 209.575 452.472 222.205 452.386 227.649C468.67 230.645 476.417 238.857 481.314 255.052C482.961 260.497 485.03 268.278 482.02 273.58C480.354 276.514 476.621 279.049 473.379 276.867C469.518 274.268 470.494 265.543 469.74 261.33C463.459 226.266 419.239 241.957 424.138 265.235C427.549 281.437 454.658 284.625 466.621 292.332C478.936 300.264 484.902 317.869 476.26 330.64C470.721 338.824 462.157 341.644 452.899 343.397L450.648 354.14C449.039 359.433 441.865 368.915 437.603 361.853C434.541 356.781 438.254 346.868 439.622 341.405C428.096 340.426 407.16 335.037 403.726 321.823C402.87 318.529 404.061 314.74 407.662 313.867C412.665 312.656 415.6 317.929 418.748 320.759C428.094 329.16 444.857 333.937 456.824 330.356C465.015 327.905 468.388 319.874 465.947 311.929C461.709 298.138 440.758 296.129 429.555 290.229C397.819 273.513 410.119 236.696 439.763 227.779C439.382 221.609 437.778 213.432 444.079 209.71Z"/>
	<path fill="#15BCAC" transform="scale(1.6 1.6)" d="M227.293 94.2547C230.523 93.5881 234.326 93.7581 237.626 93.7602C274.967 93.785 308.083 98.3085 333.466 128.313C367.184 168.172 379.127 233.113 348.865 278.335C329.145 307.804 268.647 326.259 232.683 325.911C197.305 325.57 159.86 301.827 140.929 272.349C139.467 270.072 137.5 267.728 136.746 265.088C136.704 262.081 135.246 258.451 134.498 255.511C127.354 227.399 125.875 196.621 136.452 169.211C149.667 134.966 179.98 108.009 215.134 97.8899C219.122 96.742 224.055 96.1906 227.78 94.5345L227.293 94.2547Z"/>
	<path transform="scale(1.6 1.6)" d="M248.566 119.688L249.845 119.644C259.012 119.931 255.625 135.772 255.322 141.298C263.225 143.545 277.909 147.495 278.661 157.701C279.01 162.435 275.968 170.696 270.139 170.697C264.971 170.698 268.576 153.157 250.008 153.723C239.161 154.054 224.529 169.895 225.402 180.843C226.618 196.091 256.217 201.76 267.74 206.342C308.052 222.372 300.176 274.001 258.389 276.683L258.303 281.09C257.524 288.057 250.165 301.127 245.043 292.153C242.812 288.244 244.31 283.738 245.507 279.781C245.893 278.056 237.148 275.929 235.524 275.182C228.239 271.828 216.353 263.111 212.119 256.098C207.874 249.066 214.153 237.324 221.135 242.971C223.508 244.89 225.126 248.149 226.789 250.68C231.598 257.999 238.839 264.648 247.29 267.389C263.728 272.72 283.644 254.459 279.97 236.252C273.982 206.571 197.724 216.243 211.284 173.003C215.921 158.215 227.787 147.599 241.177 140.636C242.112 133.33 240.277 123.009 248.566 119.688Z"/>
</svg>
