<?xml version="1.0" encoding="utf-8" ?>
<svg width="100" height="100" viewBox="0 0 900 900">
	<path transform="scale(1.6 1.6)" d="M217.414 269.875C196.355 270.542 185.704 232.057 193.668 222.63L194.95 222.119C195.88 221.338 193.53 215.285 193.157 214.075C179.864 171.012 188.548 123.827 228.398 98.3283C261.328 77.2564 304.432 74.9273 341.987 83.2247C368.195 89.0151 406.019 106.044 420.711 129.23C437.464 155.667 429.993 185.604 423.714 213.917L428.628 211.648L430.293 212.493C440.916 219.735 434.966 247.255 428.877 256.288C421.129 267.782 408.044 269.103 405.569 254.127L404.98 252.545C404.451 251.511 403.754 251.292 402.725 250.98C403.421 278.392 402.024 309.28 381.998 330.426L381.134 331.326C411.944 329.627 422.209 330.15 451.218 345.923C472.786 357.65 478.369 362.896 492.437 382.596C497.27 389.364 502.322 395.984 506.588 403.136C521.4 427.967 539.92 478.354 516.805 503.804C507.174 514.408 491.944 514.918 478.821 517.504C470.149 519.213 461.561 521.319 452.871 522.951C405.775 531.796 360.92 528.452 313.481 523.629C274.441 519.66 235.457 515.635 196.491 510.98C180.541 509.075 164.84 506.971 149.133 503.546C133.356 500.105 116.258 495.008 115.622 474.722C115.077 457.336 126.138 437.484 132.803 421.985C150.492 380.852 167.126 341.915 218.791 341.066L223.863 341.213C225.369 337.594 223.843 326.242 223.097 322.132C221.843 318.964 219.516 315.642 218.955 312.284C218.534 309.767 220.445 305.921 220.41 302.925C220.297 293.076 218.379 279.863 217.414 269.875Z"/>
	<path fill="#FED45E" transform="scale(1.6 1.6)" d="M200.02 231.417L200.384 231.678C209.35 239.122 214.912 248.9 215.404 260.682C204.746 257.184 200.565 241.245 200.02 231.417Z"/>
	<path fill="#FED45E" transform="scale(1.6 1.6)" d="M426.567 221.519L426.915 221.915C428.799 232.069 423.862 250.426 415.856 256.562C411.963 250.277 421.136 225.262 426.567 221.519Z"/>
	<path fill="#FC615C" transform="scale(1.6 1.6)" d="M354.136 349.122L354.385 349.528C353.926 354.601 354.342 363.118 350.279 366.829C342.444 373.985 299.15 373.23 289.753 363.549L282.434 354.375C304.319 358.13 332.892 357.025 354.136 349.122Z"/>
	<path fill="#FC615C" transform="scale(1.6 1.6)" d="M311.736 380.22C319.529 380.404 327.139 380.812 334.951 380.616C343.715 412.604 355.75 444.071 360.464 477.052C362.448 490.926 362.778 504.574 362.751 518.55L345.862 517.107L295.399 512.046C290.078 476.573 293.625 462.724 303.846 430.104C309.071 413.432 312.034 397.754 311.736 380.22Z"/>
	<path fill="#5661EE" transform="scale(1.6 1.6)" d="M212.24 234.085C205.692 225.643 204.088 223.322 201.052 212.754C185.616 159.017 201.804 112.34 255.622 94.1088C277.816 86.5904 306.241 86.4548 329.246 89.6625C353.456 93.0381 395.488 109.528 411.107 130.255C430.088 155.444 421.344 193.355 413.461 222.035C410.204 233.884 406.485 241.357 405.569 254.127L404.98 252.545C404.451 251.511 403.754 251.292 402.725 250.98L402.624 250.441C401.208 242.539 401.408 233.754 401.423 225.73C401.463 203.729 404.523 201.237 384.929 190.243C368.884 181.241 363.546 167.328 365.437 149.6C365.736 146.798 368.195 139.806 365.293 137.877L362.074 136.728C355.68 138.482 345.881 146.966 339.818 150.871C315.644 166.442 298.006 167.601 270.147 172.261C257.027 174.456 220.841 185.466 213.716 198.339C209.926 205.187 210.862 226.017 212.24 234.085Z"/>
	<path fill="#15BBAB" transform="scale(1.6 1.6)" d="M223.097 322.132L223.504 322.47C225.339 324.069 226.747 327.481 228.124 329.56C234.272 338.845 246.207 346.406 256.526 350.175C268.94 354.709 269.939 350.89 277.877 362.032C285.388 372.576 289.481 377.737 302.927 379.998C303.524 413.986 289.8 434.532 285.239 465.781C283.01 481.054 284.319 496.139 286.683 511.303C273.09 508.993 259.114 508.103 245.391 506.792C219.797 504.348 192.536 502.226 167.444 496.768C158.256 494.77 135.886 489.655 130.919 482.977C122.024 471.017 134.505 446.379 138.919 434.593C148.957 407.788 157.673 378.072 182.386 360.769C204.317 345.413 226.121 354.344 228.618 352.674L229.609 351.1C229.661 348.277 225.216 343.786 223.863 341.213C225.369 337.594 223.843 326.242 223.097 322.132Z"/>
	<path fill="#FEFEFE" transform="scale(1.6 1.6)" d="M210.256 369.799C211.753 369.687 213.578 369.352 214.827 370.298C214.34 372.169 207.36 373.226 205.434 373.901C176.626 384.002 166.664 411.91 159.152 439.784C157.732 445.053 157.336 452.957 153.973 457.366L153.22 457.789C152.322 458.231 151.748 458.243 150.819 457.916L150.115 456.45C147.792 443.033 166.838 401.875 174.599 391.298C183.204 379.57 195.841 371.995 210.256 369.799Z"/>
	<path fill="#15BBAB" transform="scale(1.6 1.6)" d="M391.213 340.44C415.703 337.939 434.578 345.552 455.07 358.629C468.213 367.017 475.554 375.801 484.786 387.934C501.734 410.207 510.511 426.606 516.717 454.939C519.493 467.614 519.311 481.644 512.006 492.908C503.267 506.386 479.039 507.298 463.569 510.584C431.268 518.032 404.997 518.793 372.494 518.795C372.137 506.649 372.38 494.835 370.979 482.706C369.355 468.657 365.857 454.982 362.437 441.291C357.224 420.422 351.388 399.104 343.848 378.92C364.199 375.648 362.718 362.152 363.512 344.273C371.717 340.469 382.326 341.109 391.213 340.44Z"/>
	<path fill="#48D6C7" transform="scale(1.6 1.6)" d="M394.459 345.389C402.465 346.822 415.167 354.125 422.856 357.924C443.018 367.811 465.408 375.94 480.658 393.242C481.645 394.362 484.283 396.61 484.663 398.016L484.733 398.574C478.915 393.713 473.455 388.5 467.418 383.897C453.33 373.154 437.616 365.822 421.53 358.626C416.348 356.939 399.007 348.449 394.459 345.389Z"/>
	<path fill="#FED45E" transform="scale(1.6 1.6)" d="M357.064 149.054C358.086 150.388 356.426 172.85 366.706 186.467C374.237 196.442 385.658 197.049 392.044 204.065L392.335 204.391C394.547 213.24 392.632 226.665 392.788 236.105C392.887 242.066 394.173 247.783 394.73 253.687C398.663 295.33 385.741 331.733 343.022 342.479C320.768 348.077 285.328 348.293 263.367 342.268C238.731 334.711 232.388 323.435 229.053 299.844C225.355 273.693 220 241.628 219.898 216.096C219.852 204.476 219.536 201.197 230.601 194.977C260.897 177.946 285.668 182.269 315.757 172.007C332.615 166.258 342.513 158.772 357.064 149.054Z"/>
	<path transform="scale(1.6 1.6)" d="M353.007 230.092C359.486 229.376 375.894 233.385 373.085 241.208L371.507 242.898C367.788 244.477 362.098 241.092 358.716 239.577L355.431 238.558C351.877 239.605 339.831 245.572 337.056 239.265L337.607 237.619C340.874 233.343 347.884 230.808 353.007 230.092Z"/>
	<path transform="scale(1.6 1.6)" d="M332.069 215.616L368.194 217.088C374.448 218.302 375.451 224.045 369.763 226.605L365.073 227.283C359.658 227.656 333.538 226.873 329.498 223.025L328.506 220.65C328.67 218.984 330.771 216.557 332.069 215.616Z"/>
	<path transform="scale(1.6 1.6)" d="M361.22 194.491C365.935 193.964 368.356 193.965 369.719 198.922L367.11 203.955C352.446 204.838 337.785 209.547 324.172 214.797C321.28 215.442 316.713 215.051 316.157 211.286L317.024 208.591C321.053 203.528 353.816 195.465 361.22 194.491Z"/>
	<path transform="scale(1.6 1.6)" d="M288.379 212.602L291.894 212.984C294.385 214.22 296.012 217.368 294.464 219.937C292.415 223.337 286.106 223.911 282.561 224.841L283.372 227.484C282.925 230.885 275.725 235.338 273.009 237.066C277.895 236.858 288.015 236.267 288.716 243.181C289.677 252.676 278.679 244.532 275.471 245.188C272.565 245.782 273.28 249.66 271.978 251.524C269.945 254.434 259.718 256.322 257.131 253.757L256.425 252.493C256.203 249.4 266.262 243.515 269.624 239.774L263.652 242.106C260.172 243.763 256.84 245.176 253.089 246.103C251.363 245.493 248.696 244.609 247.927 242.743L247.915 240.312C250.148 235.165 268.049 229.402 273.592 227.261C266.148 228.384 231.974 234.808 242.754 217.233C246.027 217.119 249.384 217.546 252.659 217.698C268.221 218.421 274.437 215.03 287.945 212.675L288.379 212.602Z"/>
	<path transform="scale(1.6 1.6)" d="M321.951 263.891L329.662 264.478C346.363 267.378 371.478 285.601 367.519 305.354C364.323 321.3 335.27 283.995 301.626 303.001C297.667 305.238 288.49 314.12 285.078 306.853L284.974 304.113C286.879 299.429 298.812 294.185 303.556 291.98L312.191 289.084C328.731 285.124 345.408 290.479 359.491 299.192C356.739 290.383 347.588 282.387 339.855 277.759C328.223 270.798 312.255 272.469 300.681 278.742C297.551 280.438 291.21 286.872 287.416 283.867L286.149 281.171C285.457 270.917 314.375 264.209 321.951 263.891Z"/>
</svg>
