<?xml version="1.0" encoding="utf-8" ?><svg xmlns="http://www.w3.org/2000/svg" xmlns:xlink="http://www.w3.org/1999/xlink" width="1000" height="500" viewBox="0 0 1000 500"><path transform="scale(0.976562 0.976562)" d="M299.741 63.6996C337.716 62.1556 354.708 66.8795 359.167 109.499L381.05 109.499C383.296 91.901 391.621 66.3089 413.325 63.7591C449.048 59.5625 469.569 69.4578 473.063 109.499L494.947 109.499C500.125 71.2064 510.873 64.5849 546.682 63.7175C575.345 63.0232 584.109 84.1576 587.557 109.499L609.327 109.499C611.493 87.2509 622.49 61.878 648.764 63.6655C660.619 64.472 674.252 60.8208 684.072 68.8636C696.023 78.6517 700.413 94.9467 702.141 109.499C726.6 109.374 737.481 124.243 731.077 147.643C728.399 157.43 732.376 167.14 736.091 176.428C796.06 137.766 800.905 199.666 783.677 242.171C794.474 236.562 801.499 233.527 813.074 230.254C844.408 221.396 871.152 237.494 853.745 271.985C840.659 297.913 808.031 326.244 780.04 335.96L781.925 343.629C785.531 354.517 788.935 366.948 791.795 377.986C803.989 425.064 801.645 437.835 749.793 436.203L707.386 434.847C696.123 434.447 685.051 433.678 673.826 434.539C658.783 447.711 647.499 444.281 629.046 443.635L203.606 430.9C186.133 430.286 156.992 433.567 165.624 406.04C193.809 316.159 209.796 223.644 218.726 130.011C223.328 106.698 249.295 109.397 267.528 109.499C270.009 89.1891 276.894 67.617 299.741 63.6996ZM426.625 109.499L441.633 109.499C440.638 95.3615 438.114 84.6571 426.625 75.5754C415.137 82.158 411.605 97.4075 409.216 109.499L426.625 109.499ZM539.75 75.5754C528.973 84.7521 526.307 96.1729 523.879 109.499L539.75 109.499L554.607 109.499C553.747 101.803 548.459 77.8162 539.75 75.5754ZM671.096 109.499C668.188 99.4342 663.433 80.7421 653.172 75.5754C643.776 85.7527 640.253 96.0556 638.118 109.499L655.776 109.499C660.836 109.51 666.05 109.59 671.096 109.499ZM295.557 109.499L313.995 109.499L328.586 109.499C326.679 93.9947 323.677 84.5324 310.385 75.5754C301.784 86.3783 297.797 95.7471 295.557 109.499Z"/><path fill="#15BBAB" transform="scale(0.976562 0.976562)" d="M203.624 269.467C215.192 269.183 228.008 269.464 239.677 269.467C218.317 304.284 271.223 295.448 291.038 295.638C305.067 295.773 319.714 296.383 333.59 294.663C344.145 293.107 345.856 279.155 351.505 270.25C360.398 270.001 370.417 270.241 379.4 270.25C375.742 279.086 370.329 294.156 386.01 295.429C395.624 296.21 471.574 296.423 476.835 294.964C486.424 292.304 489.177 277.993 493.546 270.25C502.127 270.172 513.518 270.933 521.516 270.25C516.606 279.745 513.379 295.722 529.061 295.795L590.331 295.72C623.981 295.71 617.761 299.904 633.148 273.506C656.771 273.499 682.31 274.032 705.769 273.506C702.732 284.256 700.332 300.58 698.304 311.91L687.04 373.39C683.418 395.855 681.433 441.897 650.036 441.006C637.168 440.749 624.297 440.175 611.431 439.758L265.9 429.216C241.163 428.275 216.093 428.516 191.314 427.19C182.66 426.727 164.15 426.951 167.828 411.959C178.019 377.378 187.619 342.648 195.332 307.41C198.074 294.972 200.22 281.681 203.624 269.467Z"/><path transform="scale(0.976562 0.976562)" d="M367.661 341.99C371.35 341.399 387.023 341.971 392.11 341.978L429.778 341.984C438.862 341.983 449.345 341.727 458.338 343.19C477.709 347.964 460.555 373.203 458.249 383.691C456.417 392.025 451.72 399.701 444.362 404.067C426.302 407.225 378.318 403.233 357.633 402.787C331.782 403.308 351.55 367.041 355.097 355.14C357.34 347.615 360.428 344.545 367.661 341.99Z"/><path fill="#FED45E" transform="scale(0.976562 0.976562)" d="M370.027 345.334L417.547 345.32C430.171 345.318 473.085 339.126 462.875 362.126C457.401 374.458 454.438 395.048 441.633 401.149C431.51 401.649 412.235 400.537 401.252 400.345L371.563 399.695C364.171 399.531 348.399 401.939 347.255 391.361C346.663 385.895 356.512 346.711 370.027 345.334Z"/><path transform="scale(0.976562 0.976562)" d="M230.169 340.422C246.186 337.718 299.885 340.369 316.707 341.221C328.56 341.821 329.428 352.345 325.981 360.989C320.71 374.213 317.601 397.218 303.25 401.149C290.263 403.98 236.24 400.798 220.692 400.245C197.852 399.431 205.73 380.75 211.571 367.625C216.722 356.051 217.153 342.221 230.169 340.422Z"/><path fill="#FED45E" transform="scale(0.976562 0.976562)" d="M230.169 343.629C238.488 341.391 306.955 343.736 318.069 344.573C334.761 345.83 311.651 393.64 303.25 398.017C297.907 399.865 225.936 397.324 215.296 397.067C207.484 392.02 207.41 387.789 210.619 379.592C215.115 368.104 219.241 347.378 230.169 343.629Z"/><path fill="#FC615C" transform="scale(0.976562 0.976562)" d="M295.557 113.007L381.05 113.007C379.235 131.409 386.038 157.368 407.396 161.449C411.242 162.185 425.381 162.723 428.67 160.589L428.733 159.934C411.383 144.787 407.798 136.714 409.216 113.007L494.947 113.007C494.684 136.493 502.197 162.943 531.265 161.968C549.869 161.344 539.95 160.041 533.063 151.395C524.058 140.091 522.925 126.59 523.879 113.007L609.327 113.007C608.116 133.274 614.998 159.785 638.967 162.217C644.011 162.728 654.505 164.613 657.591 159.898C640.72 146.175 635.627 137.092 638.118 113.007L684.915 112.986C727.89 112.976 733.186 115.517 725.667 158.305L718.056 202.423L213.876 202.423C216.881 178.821 219.325 154.849 222.018 131.2C223.159 121.18 232.21 114.726 241.895 113.007C249.501 112.671 259.713 112.999 267.528 113.007C265.796 135.552 273.208 161.77 300.2 161.696C336.673 161.596 291.471 160.15 295.557 113.007Z"/><path fill="#A5A4F8" transform="scale(0.976562 0.976562)" d="M405.1 205.683L718.056 205.683C715.105 216.17 713.639 226.215 711.798 236.958L705.769 270.25L633.148 270.25C636.15 261.488 650.935 236.16 630.497 234.536C622.07 233.866 544.341 233.863 540.444 235.106C528.135 239.034 526.54 256.881 521.516 266.961C518.679 267.367 497.942 266.979 493.546 266.961L497.216 258.123L497.956 256.262C500.924 248.705 503.149 240.565 494.508 235.718C489.322 232.81 416.128 234.461 405.321 234.6C387.682 236.113 386.207 251.066 381.05 266.961L351.505 266.961C358.002 250.808 365.897 234.344 340.862 234.407C314.108 234.468 287.352 234.305 260.599 234.535C247.388 234.648 243.763 256.306 239.677 266.201L203.624 266.201C207.188 246.132 209.624 225.579 213.876 205.683L405.1 205.683Z"/><path fill="#08876D" transform="scale(0.976562 0.976562)" d="M728.337 164.932C728.443 165.068 736.062 192.758 736.695 194.986L794.49 401.814C804.318 435.351 765.158 432.887 746.592 432.99C725.013 431.565 697.989 430.66 676.47 430.497C684.101 419.208 684.536 408.51 686.921 395.413L712.636 253.054C717.687 224.248 722.472 193.485 728.337 164.932Z"/><path fill="#FED45E" transform="scale(0.976562 0.976562)" d="M765.193 168.668C796.288 165.398 791.358 212.547 784.674 230.145C775.31 254.798 773.945 250.536 796.248 239.613C856.007 210.347 876.556 253.608 826.604 301.384C812.043 314.909 797.836 324.045 780.04 332.839C776.896 326.039 774.461 315.72 772.349 308.279L736.091 179.987C746.113 174.229 753.401 170.24 765.193 168.668Z"/><path fill="#5661EE" transform="scale(0.976562 0.976562)" d="M402.811 237.958C413.647 237.903 488.997 236.897 492.809 238.942C501.411 243.556 495.29 252.609 492.908 258.985C488.741 270.14 486.478 288.638 473.063 292.157C448.047 294.405 409.658 292.709 384.161 292.157C379.691 289.418 376.801 285.893 379.065 280.525C384.502 267.655 389.488 240.476 402.811 237.958Z"/><path fill="#FED45E" transform="scale(0.976562 0.976562)" d="M542.785 237.958C556.886 237.632 626.376 236.614 633.463 239.054C645.1 243.061 625.209 287.67 615.103 292.157C587.732 293.362 558.882 291.271 531.349 292.255C519.531 292.678 518.462 282.931 522.665 274.218C527.928 263.309 531.065 241.272 542.785 237.958Z"/><path fill="#5661EE" transform="scale(0.976562 0.976562)" d="M258.596 237.958C262.384 237.632 270.552 237.927 274.668 237.932L333.79 237.9C341.367 237.871 357.868 235.515 354.35 249.535C351.917 259.234 341.813 286.941 333.648 292.157C311.122 293.499 285.033 292.007 262.154 292.165C237.436 292.336 232.411 289.799 243.785 265.901C248.433 256.135 248.073 243.415 258.596 237.958Z"/><path fill="#A5A4F8" transform="scale(0.976562 0.976562)" d="M655.776 67.1358C659.12 67.2015 657.835 68.0236 655.609 69.4025C630.361 85.0588 625.348 139.085 649.562 158.261C643.123 159.034 639.515 159.143 633.148 158.261C605.611 144.554 607.597 95.7737 626.311 75.6847C635.012 66.3445 644.243 67.3266 655.776 67.1358Z"/><path fill="#A5A4F8" transform="scale(0.976562 0.976562)" d="M299.741 67.1358C304.775 66.918 311.493 67.1154 316.648 67.1358C290.302 82.4372 282.268 131.856 303.858 154.048C306.611 156.878 308.322 158.184 303.25 158.261C250.997 157.253 267.496 71.929 299.741 67.1358Z"/><path fill="#A5A4F8" transform="scale(0.976562 0.976562)" d="M529.045 67.1358C533.986 67.0361 539.381 67.1341 544.353 67.1358C516.451 85.5268 510.305 134.8 535.141 158.261L529.045 158.261C482.966 156.681 492.421 70.9176 529.045 67.1358Z"/><path fill="#A5A4F8" transform="scale(0.976562 0.976562)" d="M415.261 67.1358C419.919 67.0212 425.183 67.1324 429.884 67.1358C402.237 86.5903 395.088 136.817 421.598 158.261L415.261 158.261C370.064 159.597 377.031 70.4988 415.261 67.1358Z"/><path fill="#1F2595" transform="scale(0.976562 0.976562)" d="M671.096 67.1358C690.896 70.4461 696.505 92.4523 698.454 109.499C693.646 109.679 689.171 109.592 684.375 109.499C680.718 109.766 677.486 109.617 673.826 109.499C671.442 94.396 667.332 83.0831 655.776 73.0221C660.99 69.8822 665.102 67.8399 671.096 67.1358Z"/><path fill="#1F2595" transform="scale(0.976562 0.976562)" d="M552.714 67.1358C575.486 70.0412 581.407 90.0503 584.14 109.499L575.367 109.499L558.015 109.499C556.45 95.6788 553.562 83.1188 542.785 73.0221C546.461 69.943 547.969 68.2689 552.714 67.1358Z"/><path fill="#1F2595" transform="scale(0.976562 0.976562)" d="M324.544 67.1358C347.927 70.4463 352.78 89.5152 356.3 109.499L346.254 109.499L333.648 109.499C326.606 92.3833 330.179 87.3806 313.995 73.0221C317.567 70.2738 320.053 68.1974 324.544 67.1358Z"/><path fill="#1F2595" transform="scale(0.976562 0.976562)" d="M437.854 67.1358C460.804 69.4813 467.133 89.7399 469.745 109.499L459.875 109.499L444.362 109.499C444.938 94.9531 440.585 81.5972 428.231 73.0221C431.21 71.0355 434.63 68.2847 437.854 67.1358Z"/></svg>