<?xml version="1.0" encoding="utf-8" ?>
<svg width="50" height="50" viewBox="0 0 1000 1000">
	<path transform="scale(1.6 1.6)" d="M156.024 95.4931C180.611 93.9553 209.484 96.0534 233.916 97.9703C252.249 99.4088 283.122 100.426 300.577 105.478C303.035 106.19 305.847 108.998 308.268 109.074C310.607 109.148 317.632 105.233 322.644 105.135C338.207 104.828 354.811 106.186 370.407 107.101C392.331 108.388 422.849 106.14 437.383 126.023C450.423 143.86 453.086 191.04 449.871 212.488C462.649 216.485 487.927 218.471 501.592 220.231C531.461 224.078 556.383 228.354 559.484 263.81C562.18 294.635 558.033 321.733 555.358 352.184C552.528 384.403 551.283 424.036 552.837 456.404C555.595 513.865 562.127 535.763 488.365 541.68C457.969 546.386 412.156 542.339 380.625 540.929C355.71 539.814 330.817 539.446 305.874 540.02C284.956 540.502 252.168 545.129 234.866 530.334C216.35 514.501 216.881 465.094 214.967 441.985C214.279 433.67 197.782 436.503 190.578 436.349C164.985 435.803 114.909 436.109 97.0038 420.92C69.3907 397.495 87.303 321.826 92.0663 292.119C97.0044 261.322 97.7506 230.115 95.9495 199.002C94.468 173.409 88.3355 130.782 105.892 110.547C117.936 96.6663 139.121 96.741 156.024 95.4931Z"/>
	<path fill="#FC615C" transform="scale(1.6 1.6)" d="M391.182 258.713C396.379 258.131 401.713 258.064 406.937 257.758L475.779 253.364C504.833 251.731 524.665 251.745 552.506 261.176C552.574 276.132 554.83 272.877 547.877 284.911C535.46 306.401 542.105 369.441 545.147 394.551C537.092 393.974 520.722 392.465 513.469 394.823C514.738 393.514 517.075 391.765 517.021 389.8C514.348 386.006 477.968 357.866 472.944 354.029C450.68 337.029 427.764 321.117 405.076 304.739C395.689 297.963 393.084 291.457 379.952 294.54C380.337 278.573 387.993 270.488 391.182 258.713Z"/>
	<path fill="#5661EE" transform="scale(1.6 1.6)" d="M513.469 394.823C520.722 392.465 537.092 393.974 545.147 394.551C546.018 394.732 546.572 394.66 547.164 395.362C552.525 419.197 543.834 497.325 532.43 515.142C514.375 543.35 435.542 536.894 402.378 535.3C397.491 535.065 390.055 535.539 385.543 534.536C386.903 513.61 391.708 508.794 402.807 491.975C404.909 488.79 407.84 485.25 408.943 481.577C418.32 468.611 459.511 440.958 473.649 430.002C487.459 419.3 501.013 407.116 513.469 394.823Z"/>
	<path fill="#FC615C" transform="scale(1.6 1.6)" d="M222.707 408.707C224.274 413.167 226.707 423.277 230.868 419.911C231.886 420.476 232.927 421.018 233.889 421.674C235.905 421.414 250.651 421.084 251.67 421.782C251.763 423.847 249.133 426.49 249.868 429.512C247.783 441.155 243.7 489.94 257.383 479.444C261.08 476.607 263.215 468.871 265.592 464.727C274.86 448.567 296.866 434.451 314.075 429.301C324.005 426.329 371.573 416.157 376.317 421.815C380.978 427.374 368.871 519.197 408.943 481.577C407.84 485.25 404.909 488.79 402.807 491.975C391.708 508.794 386.903 513.61 385.543 534.536C375.32 533.045 362.1 533.441 351.581 533.438L288.709 533.454C274.473 533.385 250.33 536.358 239.961 524.321C233.921 520.051 230.209 511.655 227.792 504.948C226.852 502.15 225.372 498.261 226.154 495.306C226.237 492.912 225.517 490.132 225.184 487.744C222.2 466.337 220.915 431.156 222.707 408.707Z"/>
	<defs>
		<linearGradient id="gradient_0" gradientUnits="userSpaceOnUse" x1="292.10376" y1="511.9317" x2="295.86923" y2="480.67426">
			<stop offset="0" stop-color="#FF7874"/>
			<stop offset="1" stop-color="#FFABA2"/>
		</linearGradient>
	</defs>
	<path fill="url(#gradient_0)" transform="scale(1.6 1.6)" d="M226.154 495.306C256.283 493.738 285.534 490.809 315.849 490.02C323.112 489.83 360.695 488.158 361.713 488.599C363.471 490.185 363.311 493.136 361.728 494.766C355.436 501.242 285.838 503.581 275.157 504.076C271.268 504.256 258.061 504.146 255.265 504.662C246.193 504.783 236.821 505.625 227.792 504.948C226.852 502.15 225.372 498.261 226.154 495.306Z"/>
	<path fill="#FED45E" transform="scale(1.6 1.6)" d="M222.707 408.707C222.605 394.33 222.217 380.147 221.535 365.797L219.284 322.243C216.742 280.006 221.399 263.811 265.522 260.903C299.415 258.67 333.512 261.333 367.442 260.19C375.335 259.924 383.274 259.086 391.182 258.713C387.993 270.488 380.337 278.573 379.952 294.54C372.383 313.242 383.645 349.333 389.335 367.737C375.757 367.88 362.145 368.088 348.571 367.947L330.627 367.728C287.204 367.13 261.185 386.694 249.868 429.512C249.133 426.49 251.763 423.847 251.67 421.782C250.651 421.084 235.905 421.414 233.889 421.674C232.927 421.018 231.886 420.476 230.868 419.911C226.707 423.277 224.274 413.167 222.707 408.707Z"/>
	<path fill="#5661EE" transform="scale(1.6 1.6)" d="M197.477 378.584C197.818 368.076 195.772 357.381 194.505 346.983C189.596 306.684 190.481 265.059 193.393 224.626C194.249 212.739 194.155 177.875 208.807 173.013C220.717 169.06 268.607 173.657 281.398 175.877C312.201 181.221 343.554 191.967 373.659 200.751C409.184 211.117 446.333 218.644 482.968 223.717C508.838 227.299 542.497 225.099 551.971 255.726C504.847 235.767 420.971 251.369 368.055 253.932C331.662 255.694 294.731 252.821 257.643 255.06C205.862 258.185 211.302 295.075 213.856 334.543L216.15 370.388C216.904 384.217 217.694 417.374 216.008 430.914C213.633 426.657 211.73 422.279 209.908 417.766C207.301 410.997 204.299 404.138 200.631 397.869C199.447 391.858 198.608 384.869 197.477 378.584Z"/>
	<path transform="scale(1.6 1.6)" d="M379.952 294.54C393.084 291.457 395.689 297.963 405.076 304.739C427.764 321.117 450.68 337.029 472.944 354.029C477.968 357.866 514.348 386.006 517.021 389.8C517.075 391.765 514.738 393.514 513.469 394.823C501.013 407.116 487.459 419.3 473.649 430.002C459.511 440.958 418.32 468.611 408.943 481.577C368.871 519.197 380.978 427.374 376.317 421.815C371.573 416.157 324.005 426.329 314.075 429.301C296.866 434.451 274.86 448.567 265.592 464.727C263.215 468.871 261.08 476.607 257.383 479.444C243.7 489.94 247.783 441.155 249.868 429.512C261.185 386.694 287.204 367.13 330.627 367.728L348.571 367.947C362.145 368.088 375.757 367.88 389.335 367.737C383.645 349.333 372.383 313.242 379.952 294.54Z"/>
	<path fill="#FED45E" transform="scale(1.6 1.6)" d="M395.156 305.67C404.498 310.577 414.309 318.582 422.976 324.875C445.484 341.214 467.632 358.15 489.101 375.835C493.816 379.759 498.609 383.531 503.534 387.188L510.221 391.201C491.365 410.82 468.823 426.402 447.664 443.326C436.031 452.63 424.809 462.691 412.831 471.53C407.925 475.15 404.879 477.891 402.028 470.78C400.797 466.956 400.15 462.951 399.482 458.998C396.428 443.29 395.929 426.816 394.816 410.873C372.868 410.98 332.655 416.929 312.74 423.294C285.996 431.842 270.442 446.14 255.168 468.331C252.29 447.653 257.734 425.378 268.738 407.654C291.644 370.762 335.682 374.679 373.054 374.731C395.879 374.762 400.912 380.648 396.787 354.623C394.986 343.26 389.141 316.208 394.929 306.061L395.156 305.67Z"/>
	<path fill="#FEFEFE" transform="scale(1.6 1.6)" d="M400.894 411.785C407.359 412.619 418.195 411.664 423.678 413.141L423.545 413.462C417.359 428.628 414.128 444.799 402.294 457.133C399.636 452.136 400.842 419.093 400.894 411.785Z"/>
	<path fill="#15BBAB" transform="scale(1.6 1.6)" d="M103.207 133.819C99.8173 138 99.2386 144.891 96.7853 147.449C95.751 143.601 102.914 126.337 105.08 122.328C109.403 114.328 115.89 109.443 124.632 106.887C157.37 97.3152 227 103.83 263.397 106.9C283.644 108.608 303.532 111.072 323.886 111.574C342.624 112.037 361.355 113.235 380.055 114.468C396.686 115.565 417.263 114.091 429.723 127.344C445.842 144.489 444.64 189.067 443.957 211.427C426.049 206.233 406.269 203.226 387.785 198.194C334.763 183.761 283.954 163.519 227.989 163.74C215.741 163.788 206.987 161.055 199.373 171.327C197.248 174.513 194.83 177.804 193.301 181.324C185.499 203.981 185.674 254.796 185.831 279.356C186.012 307.507 187.457 352.041 197.477 378.584C198.608 384.869 199.447 391.858 200.631 397.869C204.299 404.138 207.301 410.997 209.908 417.766C208.875 418.307 208.221 418.917 207.416 419.755C208.688 423.037 209.487 426.3 210.16 429.752C189.051 429.489 147.941 430.274 132.059 420.598C109.716 406.985 109.777 378.964 109.791 355.954C109.803 336.644 110.812 318.644 111.485 299.6C112.859 260.725 111.77 216.165 108.827 177.692C107.71 163.084 106.641 148.097 103.207 133.819Z"/>
	<path fill="#31E6D4" transform="scale(1.6 1.6)" d="M191.753 174.139C194.117 172.876 196.679 171.604 199.373 171.327C197.248 174.513 194.83 177.804 193.301 181.324C192.444 179.875 191.236 178.949 189.945 177.916C190.509 176.64 191.141 175.393 191.753 174.139Z"/>
	<path fill="#091243" transform="scale(1.6 1.6)" d="M200.631 397.869C204.299 404.138 207.301 410.997 209.908 417.766C208.875 418.307 208.221 418.917 207.416 419.755C204.62 412.486 201.894 405.621 200.631 397.869Z"/>
	<path fill="#028974" transform="scale(1.6 1.6)" d="M308.466 134.476C306.725 134.799 303.662 135.63 301.966 135.243C303.666 134.864 317.493 132.759 313.675 138.08C312.154 140.199 296.082 142.216 295.682 140.08C298.32 140.029 303.83 139.353 305.389 137.35L304.776 137.139L301.046 136.703C304.29 135.24 305.278 139.35 308.466 134.476Z"/>
	<path fill="#31E6D4" transform="scale(1.6 1.6)" d="M373.595 187.362C378.883 186.703 399.374 189.768 408.542 189.872L407.779 189.706L408.079 189.911C407.047 190.737 403.061 189.089 401.228 190.792C412.221 194.521 425.204 193.51 436.661 192.518L436.674 196.414C435.092 196.512 433.5 196.539 431.915 196.596C424.463 196.755 376.252 192.246 372.421 189.025C375.789 189.055 379.468 190.027 382.877 190.392C386.372 187.538 374.928 187.59 373.595 187.362Z"/>
	<path fill="#31E6D4" transform="scale(1.6 1.6)" d="M304.776 137.139L305.389 137.35C303.83 139.353 298.32 140.029 295.682 140.08C293.039 139.833 290.185 140.3 287.506 140.265L257.059 140.063C243.498 140.05 196.136 137.932 185.646 143.987C170.283 152.856 167.279 195.589 164.202 212.696C161.708 226.564 158.946 241.053 155.025 254.613C153.663 224.265 158.157 180.537 168.625 152.2C176.937 129.697 181.344 139.287 200.508 138.607C235.661 137.359 269.986 138.24 304.776 137.139Z"/>
	<path fill="#31E6D4" transform="scale(1.6 1.6)" d="M153.487 127.203C164.066 127.85 150.327 164.393 148.583 172.952C142.486 202.874 140.772 258.572 145.399 287.77C147.054 298.217 159.351 321.219 148.598 325.618C140.219 328.021 140.446 308.246 139.532 302.286C132.755 258.108 131.678 191.899 142.983 149.017C144.691 142.537 146.246 129.993 153.487 127.203Z"/>
</svg>
