<?xml version="1.0" encoding="utf-8" ?>
<svg width="50" height="50" viewBox="0 0 900 900">
	<path transform="scale(1.6 1.6)" d="M115.434 79.444C124.209 77.666 177.728 87.5249 188.661 89.1406C239.871 96.7081 291.208 99.7165 342.977 98.7144C349.758 98.5831 393.741 95.4027 397.126 98.4182C399.981 100.962 398.767 136.997 398.766 142.464L398.625 174.613C398.522 191.901 397.977 209.054 397.14 226.338C396.716 235.09 396.02 243.981 396.426 252.745C433.079 255.587 471.047 256.097 507.624 253.337C513.187 252.917 519.855 250.081 523.953 254.834C526.116 276.637 528.36 300.009 529.588 321.914C532.103 366.766 532.038 413.603 529.032 458.438C527.431 482.311 525.541 519.26 508.549 538.118C485.965 560.786 446.916 555.246 417.945 553.551C396.104 552.272 374.456 549.584 352.727 547.142C318.397 543.283 245.863 541.534 235.986 498.146C230.495 474.024 237.113 410.922 238.75 384.679C224.852 381.035 198.769 379.981 184.334 379.145C147.609 377.018 125.789 381.264 113.666 338.503C105.786 310.71 110.626 261.481 111.164 231.059C111.414 216.952 111.218 202.809 111.207 188.699L111.217 141.146C111.125 129.7 110.549 117.788 109.414 106.416C108.537 97.6278 102.842 82.5678 115.434 79.444ZM258.409 310.234C259.608 322.411 258.521 337.784 257.978 350.01L253.868 431.654C253.343 443.471 251.928 455.577 252.595 467.392C274.712 456.366 308.268 470.037 331.692 476.037C367.21 485.135 392.889 486.134 418.839 515.877C421.309 518.708 425.317 524.821 427.947 527.003C430.298 527.728 433.489 530.988 435.552 532.517C465.091 554.399 499.316 530.592 511.262 501.173C512.521 498.071 514.896 487.246 516.363 485.538L516.728 486.175C519.394 476.242 519.556 464.96 520.231 454.755C522.53 420.032 522.179 388.141 521.398 353.675C521.186 344.295 521.783 334.846 520.954 325.492C503.484 324.698 482.534 326.231 464.531 326.324C458.075 325.885 451.567 326.163 445.1 326.036C425.078 325.642 405.171 322.928 385.2 322.446C384.076 321.977 381.863 322.07 380.581 321.971C371.808 321.285 363.003 320.613 354.268 319.544C342.581 314.881 270.876 309.984 258.409 310.234ZM125.133 95.8929C124.483 103.276 124.229 111.055 124.442 118.459C139.916 118.161 197.118 117.032 207.724 127.266C216.539 135.772 232.91 140.081 244.744 141.516C248.364 141.955 255.129 141.843 258.21 143.433C263.336 143.45 268.463 143.491 273.588 143.357C280.601 142.693 286.728 142.77 293.281 145.507C296.246 145.204 314.485 145.489 316.557 146.639C322.549 142.361 338.454 129.751 336.193 147.425C333.823 147.671 331.469 147.808 329.345 148.999C316.115 156.418 297.826 178.741 286.82 191.162C282.659 195.857 277.851 200.265 274.085 205.27C264.864 212.838 252.443 226.98 243.177 235.854C235.684 243.113 203.993 270.244 204.12 274.451C214.588 277.254 232.856 247.97 243.091 244.361C244.291 242.178 245.118 240.213 246.951 238.439C260.302 237.65 278.477 241.652 292.024 243.366C321.947 247.151 356.884 251.784 387.131 252.209C387.917 249.198 387.633 245.277 387.757 242.163C389.513 198.053 391.376 153.779 390.369 109.623C383.501 112.494 362.194 111.426 353.722 111.451L313.72 111.46C276.389 111.362 234.001 108.165 197.247 103.237C180.939 101.051 166.154 99.4768 149.729 97.9712C141.635 97.2291 133.244 95.9178 125.133 95.8929ZM119.925 91.1374C116.79 113.525 119.776 141.016 119.878 164.612L119.947 206.291C119.94 216.377 120.242 226.556 119.891 236.629C118.987 262.531 113.128 320.251 125.368 343.38C126.829 337.242 127.964 336.818 130.448 331.764L130.291 331.26L128.949 332.484C125.435 328.854 128.256 331.728 126.381 329.079C120.831 316.383 126.026 254.344 126.473 231.932C127.227 194.052 125.913 156.295 124.442 118.459C124.229 111.055 124.483 103.276 125.133 95.8929C133.244 95.9178 141.635 97.2291 149.729 97.9712C166.154 99.4768 180.939 101.051 197.247 103.237C234.001 108.165 276.389 111.362 313.72 111.46L353.722 111.451C362.194 111.426 383.501 112.494 390.369 109.623C390.223 103.707 380.232 106.824 374.184 107.058C313.959 109.382 253.556 107.424 193.836 99.0713L155.849 94.0227C144.393 92.5295 131.429 90.2336 119.925 91.1374ZM251.006 310.474C250.236 318.153 250.093 325.897 249.735 333.604L247.613 380.516C245.888 411.843 242.785 443.393 242.953 474.787C245.935 471.731 249.257 469.929 252.595 467.392C251.928 455.577 253.343 443.471 253.868 431.654L257.978 350.01C258.521 337.784 259.608 322.411 258.409 310.234C255.957 310.291 253.444 310.235 251.006 310.474ZM143.686 332.238C139.002 336.154 134.934 341.282 134.397 347.608C132.523 369.701 161.844 367.912 176.348 368.724C197.453 369.906 218.504 371.564 239.44 374.56C239.749 365.601 241.969 350.486 239.297 351.154C236.795 356.933 235.74 362.799 232.587 368.478C226.317 369.061 219.422 367.604 213.188 366.751C203.908 365.481 147.507 360.52 142.29 357.356C135.819 346.298 142.488 340.662 143.686 332.238Z"/>
	<path fill="#FEFEFE" transform="scale(1.6 1.6)" d="M252.47 477.607C255.48 475.626 258.809 474.145 262.324 473.35C261.135 474.857 255.564 477.859 253.112 480.414C244.065 491.892 249.601 493.967 248.356 503.437C245.883 498.155 244.05 492.88 243.881 487.014C246.071 483.17 248.987 480.292 252.47 477.607Z"/>
	<path fill="#FEFEFE" transform="scale(1.6 1.6)" d="M251.298 246.481L256.906 246.586C254.277 256.867 256.669 288.641 255.949 301.461C254.326 301.622 252.63 301.606 250.997 301.674C251.609 286.324 252.576 261.76 251.298 246.481Z"/>
	<path fill="#FEFEFE" transform="scale(1.6 1.6)" d="M427.947 527.003C430.298 527.728 433.489 530.988 435.552 532.517C465.091 554.399 499.316 530.592 511.262 501.173C512.521 498.071 514.896 487.246 516.363 485.538L516.728 486.175C511.149 527.301 500.334 545.921 456.447 545.088C439.348 544.763 439.401 540.83 427.947 527.003Z"/>
	<path fill="#FC615C" transform="scale(1.6 1.6)" d="M143.686 332.238C157.274 319.985 209.593 336.546 227.767 345.584C230.154 346.771 237.08 351.066 239.297 351.154C236.795 356.933 235.74 362.799 232.587 368.478C226.317 369.061 219.422 367.604 213.188 366.751C203.908 365.481 147.507 360.52 142.29 357.356C135.819 346.298 142.488 340.662 143.686 332.238Z"/>
	<path fill="#5661EE" transform="scale(1.6 1.6)" d="M262.324 473.35C277.42 467.444 318.561 482.522 333.877 486.467C348.923 490.343 367.584 492.86 381.563 498.994C403.772 508.74 412.915 530.547 430.51 544.631C418.369 544.791 406.038 543.642 393.956 542.482L321.562 534.195C302.128 531.674 256.238 525.999 248.356 503.437C249.601 493.967 244.065 491.892 253.112 480.414C255.564 477.859 261.135 474.857 262.324 473.35Z"/>
	<path fill="#5661EE" transform="scale(1.6 1.6)" d="M256.906 246.586C268.165 247.862 279.306 249.921 290.513 251.56C315.404 255.202 340.412 257.359 365.484 259.247C370.123 259.597 379.02 259.69 383.108 260.929C385.698 261.172 388.305 261.361 390.884 261.696C412.947 264.269 439.223 264.884 461.559 264.895C470.605 264.9 479.952 265.326 488.946 264.273C498.291 263.187 507.848 262.756 517.246 262.366C517.65 280.651 519.404 298.864 519.757 317.15C508.183 317.98 496.329 317.485 484.715 317.484C421.075 317.475 361.771 309.724 298.646 303.383C287.149 302.228 267.396 299.839 255.949 301.461C256.669 288.641 254.277 256.867 256.906 246.586Z"/>
	<path fill="#FEFEFE" transform="scale(1.6 1.6)" d="M383.108 260.929C385.698 261.172 388.305 261.361 390.884 261.696C412.947 264.269 439.223 264.884 461.559 264.895C470.605 264.9 479.952 265.326 488.946 264.273L490.419 264.456C487.009 268.552 459.899 269.665 453.704 269.744C434.857 269.983 408.58 266.91 390.435 263.382C387.955 262.802 385.25 262.373 383.108 260.929Z"/>
	<path fill="#FED45E" transform="scale(1.6 1.6)" d="M125.133 95.8929C133.244 95.9178 141.635 97.2291 149.729 97.9712C166.154 99.4768 180.939 101.051 197.247 103.237C234.001 108.165 276.389 111.362 313.72 111.46L353.722 111.451C362.194 111.426 383.501 112.494 390.369 109.623C391.376 153.779 389.513 198.053 387.757 242.163C387.633 245.277 387.917 249.198 387.131 252.209C356.884 251.784 321.947 247.151 292.024 243.366C278.477 241.652 260.302 237.65 246.951 238.439C245.118 240.213 244.291 242.178 243.091 244.361C232.856 247.97 214.588 277.254 204.12 274.451C203.993 270.244 235.684 243.113 243.177 235.854C252.443 226.98 264.864 212.838 274.085 205.27C277.851 200.265 282.659 195.857 286.82 191.162C297.826 178.741 316.115 156.418 329.345 148.999C331.469 147.808 333.823 147.671 336.193 147.425C338.454 129.751 322.549 142.361 316.557 146.639C314.485 145.489 296.246 145.204 293.281 145.507C286.728 142.77 280.601 142.693 273.588 143.357C268.463 143.491 263.336 143.45 258.21 143.433C255.129 141.843 248.364 141.955 244.744 141.516C232.91 140.081 216.539 135.772 207.724 127.266C197.118 117.032 139.916 118.161 124.442 118.459C124.229 111.055 124.483 103.276 125.133 95.8929ZM274.085 205.27L275.581 204.518C276.678 205.232 277.115 207.073 278.135 208.118C277.061 209.179 275.937 210.099 275.35 211.519C292.29 198.588 299.933 175.239 323.726 161.258C328.156 161.242 331.905 161.143 336.113 159.665C337.03 155.725 336.347 151.43 336.193 147.425C333.823 147.671 331.469 147.808 329.345 148.999C316.115 156.418 297.826 178.741 286.82 191.162C282.659 195.857 277.851 200.265 274.085 205.27Z"/>
	<path transform="scale(1.6 1.6)" d="M301.984 210.423C309.057 210.767 336.801 210.603 339.515 211.857C344.526 214.17 341.093 218.46 337.352 219.335C331.454 219.86 291.128 221.626 298.11 212.208C299.138 210.82 300.377 210.689 301.984 210.423Z"/>
	<path fill="#FEFEFE" transform="scale(1.6 1.6)" d="M274.085 205.27L275.581 204.518C276.678 205.232 277.115 207.073 278.135 208.118C277.061 209.179 275.937 210.099 275.35 211.519C268.357 220.069 257.687 224.909 251.273 234.334C260.427 235.04 269.385 236.781 278.468 238.011C310.456 242.339 351.574 249.137 383.845 248.83C384.809 250.045 385.883 251.272 387.131 252.209C356.884 251.784 321.947 247.151 292.024 243.366C278.477 241.652 260.302 237.65 246.951 238.439C245.118 240.213 244.291 242.178 243.091 244.361C232.856 247.97 214.588 277.254 204.12 274.451C203.993 270.244 235.684 243.113 243.177 235.854C252.443 226.98 264.864 212.838 274.085 205.27Z"/>
	<path fill="#FC615C" transform="scale(1.6 1.6)" d="M124.442 118.459C139.916 118.161 197.118 117.032 207.724 127.266C216.539 135.772 232.91 140.081 244.744 141.516C248.364 141.955 255.129 141.843 258.21 143.433C263.336 143.45 268.463 143.491 273.588 143.357C280.601 142.693 286.728 142.77 293.281 145.507C296.246 145.204 314.485 145.489 316.557 146.639C322.549 142.361 338.454 129.751 336.193 147.425C333.823 147.671 331.469 147.808 329.345 148.999C316.115 156.418 297.826 178.741 286.82 191.162C282.659 195.857 277.851 200.265 274.085 205.27C264.864 212.838 252.443 226.98 243.177 235.854C235.684 243.113 203.993 270.244 204.12 274.451C214.588 277.254 232.856 247.97 243.091 244.361C243.887 244.875 244.779 245.179 245.095 246.091C242.813 256.364 243.836 266.882 243.437 277.319L241.112 343.016C235.9 338.183 228.31 335.539 221.843 332.77C218.35 331.307 214.727 330.163 211.243 328.662C183.079 321.578 152.847 306.192 130.448 331.764L130.291 331.26L128.949 332.484C125.435 328.854 128.256 331.728 126.381 329.079C120.831 316.383 126.026 254.344 126.473 231.932C127.227 194.052 125.913 156.295 124.442 118.459Z"/>
	<path fill="#F7A0AD" transform="scale(1.6 1.6)" d="M212.232 327.297C214.564 327.708 222.583 329.642 221.843 332.77C218.35 331.307 214.727 330.163 211.243 328.662C212.005 328.584 212.55 328.5 213.23 328.894L213.543 328.7C213.435 327.987 212.667 328.035 212.232 327.297Z"/>
	<path transform="scale(1.6 1.6)" d="M188.941 171.646C194.457 171.393 200.006 172.026 205.523 172.19C209.407 172.306 227.583 170.077 224.641 178.495C224.161 179.866 223.004 180.393 221.8 181.016C218.688 181.512 193.131 180.398 189.387 179.813C184.141 178.993 185.61 173.874 188.941 171.646Z"/>
	<path fill="#FEFEFE" transform="scale(1.6 1.6)" d="M126.381 329.079C127.942 327.634 129.259 325.844 130.665 324.243C149.901 302.343 190.54 318.1 212.232 327.297C212.667 328.035 213.435 327.987 213.543 328.7L213.23 328.894C212.55 328.5 212.005 328.584 211.243 328.662C183.079 321.578 152.847 306.192 130.448 331.764L130.291 331.26L128.949 332.484C125.435 328.854 128.256 331.728 126.381 329.079Z"/>
	<path transform="scale(1.6 1.6)" d="M195.964 139.743C215.594 138.236 237.137 145.58 258.21 143.433C263.336 143.45 268.463 143.491 273.588 143.357C279.197 143.333 281.58 146.61 278.526 151.659C274.147 154.99 222.872 151.335 210.38 150.269C204.716 149.785 182.351 148.883 195.964 139.743Z"/>
	<path transform="scale(1.6 1.6)" d="M316.557 146.639C322.549 142.361 338.454 129.751 336.193 147.425C333.823 147.671 331.469 147.808 329.345 148.999C316.115 156.418 297.826 178.741 286.82 191.162C282.659 195.857 277.851 200.265 274.085 205.27C264.864 212.838 252.443 226.98 243.177 235.854C235.684 243.113 203.993 270.244 204.12 274.451C207.268 278.627 214.553 288.666 205.278 290.312C197.283 291.731 188.594 271.087 185.008 265.662C177.706 254.616 169.305 244.881 159.837 235.655C157.127 233.014 150.034 227.75 149.915 223.572C149.858 221.533 152.493 218.963 154.579 219.467C161.953 221.25 190.738 254.143 198.263 263.816C198.911 255.692 210.416 248.709 216.074 243.648C233.078 228.437 297.059 169.262 296.306 152.54C296.189 149.948 295.216 147.271 293.281 145.507C296.246 145.204 314.485 145.489 316.557 146.639Z"/>
	<path fill="#FEFEFE" transform="scale(1.6 1.6)" d="M293.281 145.507C296.246 145.204 314.485 145.489 316.557 146.639C303.389 157.188 293.155 169.817 282.146 182.502C269.565 196.999 256.064 211.235 242.211 224.502C239.939 226.677 199.292 264.402 198.811 264.497L198.263 263.816C198.911 255.692 210.416 248.709 216.074 243.648C233.078 228.437 297.059 169.262 296.306 152.54C296.189 149.948 295.216 147.271 293.281 145.507Z"/>
	<path fill="#15BBAB" transform="scale(1.6 1.6)" d="M258.409 310.234C270.876 309.984 342.581 314.881 354.268 319.544C363.003 320.613 371.808 321.285 380.581 321.971C381.863 322.07 384.076 321.977 385.2 322.446C405.171 322.928 425.078 325.642 445.1 326.036C451.567 326.163 458.075 325.885 464.531 326.324C482.534 326.231 503.484 324.698 520.954 325.492C521.783 334.846 521.186 344.295 521.398 353.675C522.179 388.141 522.53 420.032 520.231 454.755C519.556 464.96 519.394 476.242 516.728 486.175L516.363 485.538C514.896 487.246 512.521 498.071 511.262 501.173C499.316 530.592 465.091 554.399 435.552 532.517C433.489 530.988 430.298 527.728 427.947 527.003C425.317 524.821 421.309 518.708 418.839 515.877C392.889 486.134 367.21 485.135 331.692 476.037C308.268 470.037 274.712 456.366 252.595 467.392C251.928 455.577 253.343 443.471 253.868 431.654L257.978 350.01C258.521 337.784 259.608 322.411 258.409 310.234ZM447.147 373.505C435.078 384.055 422.21 393.543 409.975 403.87C402.541 410.144 353.817 453.019 352.387 458.742C352.031 460.079 351.353 461.399 350.811 462.674C359.216 458.116 370.956 445.478 378.577 438.652C391.956 426.668 406.687 415.719 422.897 407.875C433.086 402.945 456.207 394.343 449.217 377.675L447.147 373.505Z"/>
	<defs>
		<linearGradient id="gradient_0" gradientUnits="userSpaceOnUse" x1="358.71106" y1="322.03119" x2="380.6644" y2="322.63904">
			<stop offset="0" stop-color="#9AEDFF"/>
			<stop offset="1" stop-color="#F3FFFF"/>
		</linearGradient>
	</defs>
	<path fill="url(#gradient_0)" transform="scale(1.6 1.6)" d="M354.268 319.544C363.003 320.613 371.808 321.285 380.581 321.971L380.277 322.728C380.653 323.508 381.048 324.272 381.458 325.035C377.798 324.747 355.602 322.906 353.659 319.936L354.268 319.544Z"/>
	<path fill="#FEFEFE" transform="scale(1.6 1.6)" d="M380.581 321.971C381.863 322.07 384.076 321.977 385.2 322.446C405.171 322.928 425.078 325.642 445.1 326.036C451.567 326.163 458.075 325.885 464.531 326.324C467.925 326.727 471.547 326.581 474.974 326.735C451.348 332.171 412.564 328.284 387.293 325.594C385.348 325.355 383.418 325.111 381.458 325.035C381.048 324.272 380.653 323.508 380.277 322.728L380.581 321.971Z"/>
	<path transform="scale(1.6 1.6)" d="M423.452 495.717C426.628 495.469 463.954 496.932 467.141 497.477C471.901 498.292 471.226 504.061 467.667 505.967C461.292 507.347 424.885 506.035 421.944 502.936C420.247 501.148 421.494 496.918 423.452 495.717Z"/>
	<path transform="scale(1.6 1.6)" d="M460.199 434.193C462.513 434.019 464.765 433.998 467.084 434.074C468.533 435.016 470.298 436.105 470.565 437.985C471.814 446.792 439.945 444.027 432.65 444.289C429.314 444.227 416.676 444.364 423.001 437.169C426.527 433.159 453.247 434.756 460.199 434.193Z"/>
	<path transform="scale(1.6 1.6)" d="M322.836 361.008C329.125 360.524 335.769 361.733 342.059 362.139C345.93 362.389 372.198 360.833 366.785 370.131C365.864 371.712 364.392 372.12 362.713 372.516C352.95 372.639 342.9 371.3 333.14 370.61C329.584 370.359 314.935 372.119 317.984 364.965C318.888 362.843 320.801 361.804 322.836 361.008Z"/>
	<path transform="scale(1.6 1.6)" d="M414.741 465.329C418.142 465.035 421.554 465.825 424.929 466.198C440.739 467.941 453.3 465.839 467.724 466.529C472.148 469.842 472.049 474.066 466.832 475.929C456.367 477.331 415.279 477.646 411.22 472.849C408.365 469.475 411.786 466.932 414.741 465.329Z"/>
	<path transform="scale(1.6 1.6)" d="M436.656 367.774C434.008 367.487 385.422 363.436 400.551 355.166C405.112 352.673 427.839 357.338 435.741 357.281C455.074 357.142 462.131 351.426 453.127 373.774C452.096 375.644 451.497 377.414 449.217 377.675L447.147 373.505C435.078 384.055 422.21 393.543 409.975 403.87C402.541 410.144 353.817 453.019 352.387 458.742C344.045 466.528 327.769 440.788 324.145 435.933C319.736 430.027 300.069 410.099 299.378 407.261C302.731 386.822 339.159 438.018 343.046 442.872C345.892 440.645 349.559 438.936 352.67 437.035C367.397 428.035 379.623 414.853 392.468 403.481C401.097 395.841 427.184 372.638 436.656 367.774Z"/>
	<path fill="#007478" transform="scale(1.6 1.6)" d="M447.147 373.505C449.297 371.843 450.81 372.901 453.127 373.774C452.096 375.644 451.497 377.414 449.217 377.675L447.147 373.505Z"/>
	<path fill="#FEFEFE" transform="scale(1.6 1.6)" d="M436.656 367.774C437.429 367.765 438.494 367.6 439.201 367.895C424.566 380.324 409.401 392.122 395.036 404.88C384.482 414.253 358.196 441.333 346.93 447.202C345.407 445.891 344.125 444.595 343.046 442.872C345.892 440.645 349.559 438.936 352.67 437.035C367.397 428.035 379.623 414.853 392.468 403.481C401.097 395.841 427.184 372.638 436.656 367.774Z"/>
</svg>
