<?xml version="1.0" encoding="utf-8" ?>
<svg width="50" height="50" viewBox="0 0 900 900">
	<path transform="scale(1.6 1.6)" d="M398.762 498.106C390.53 499.044 382.215 501.211 373.936 501.265C367.042 501.309 360.188 499.546 353.34 499.909C343.757 500.417 334.246 502.28 324.629 502.664C252.016 505.561 165.208 474.082 137.07 401.501C124.97 370.292 121.475 360.626 119.661 327.544C117.649 290.855 118.427 263.012 133.493 228.903C153.769 182.994 197.519 139.5 244.04 121.582C312.851 95.08 382.681 103.286 443.081 143.951C480.16 168.915 505.082 198.103 521.08 239.985C527.58 256.999 532.695 275.011 532.159 293.385C531.218 325.591 518.196 368.229 505.071 397.505C504.944 394.38 508.172 387.498 508.908 383.826C514.983 353.515 524.896 323.713 526.616 292.724C526.918 287.278 527.249 281.366 526.297 275.972C525.126 273.957 524.672 270.571 523.964 268.25C511.828 228.477 474.743 194.918 443.218 169.501C427.152 156.548 412.869 143.331 393.997 134.244C361.365 118.529 328.308 114.921 293.253 120.739C260.232 126.219 227.055 136.563 201.735 159.413C199.147 161.325 196.669 163.542 194.366 165.788C185.74 173.697 176.771 180.759 168.71 189.289C154.15 205.607 135.023 245.754 130.054 265.771C128.87 270.54 125.506 290.067 124.096 292.557C123.29 302.942 123.842 314.75 126.152 324.913C129.925 321.761 141.22 313.585 139.808 317.732C136.515 327.396 123.015 318.36 130.291 341.838C132.636 340.656 135.349 338.903 138.024 338.93L138.535 339.331C138.495 342.549 133.318 346.634 130.913 348.787C131.379 354.636 132.191 360.93 136.179 365.528C139.722 365.272 147.969 361.749 149.748 363.283C153.88 366.848 140.646 372.219 138.747 372.778C140.141 377.487 142.154 387.316 146.758 389.727C151.283 392.097 154.957 387.425 159.09 386.945C160.168 389.481 151.245 396.744 149.593 398.855C152.818 409.466 158.767 418.384 166.383 426.385C171.072 418.73 177.327 406.966 185.459 402.842C180.294 409.827 171.427 419.82 168.364 427.828C175.793 436.135 185.671 448.957 195.177 454.628C203.268 453.42 211.249 451.43 219.421 450.883C212.713 453.088 206.205 455.832 199.543 458.164C215.639 474.377 253.88 488.701 275.175 492.697C290.153 495.508 307.793 497.044 323.011 497.107C333.588 497.151 343.917 494.882 354.4 494.715C361.5 494.602 368.463 496.275 375.601 495.951C385.603 495.497 395.055 492.116 405.172 492.251C405.876 499.016 419.316 512.593 423.774 518.481C430.077 526.806 445.922 554.947 457.924 554.311C472.96 553.514 473.522 521.506 474.902 511.184C478.607 483.47 481.688 461.89 479.522 432.989C480.095 431.497 480.509 429.842 482.037 429.103L482.63 429.364C490.718 454.129 484.943 484.577 481.394 509.661C479.317 524.349 478.163 561.225 456.114 560.226C443.67 559.662 435.047 544.745 428.432 535.96C419.441 524.023 408.902 508.832 398.762 498.106ZM124.096 292.557C125.506 290.067 128.87 270.54 130.054 265.771C135.023 245.754 154.15 205.607 168.71 189.289C176.771 180.759 185.74 173.697 194.366 165.788C196.669 163.542 199.147 161.325 201.735 159.413C227.055 136.563 260.232 126.219 293.253 120.739C328.308 114.921 361.365 118.529 393.997 134.244C412.869 143.331 427.152 156.548 443.218 169.501C474.743 194.918 511.828 228.477 523.964 268.25C524.672 270.571 525.126 273.957 526.297 275.972C520.677 215.733 477.732 164.655 425.684 136.938C381.1 113.196 318.191 105.476 268.9 119.241C229.296 130.3 193.386 154.971 167.276 186.689C144.38 214.504 123.055 255.527 124.096 292.557Z"/>
	<path fill="#5661EE" transform="scale(1.6 1.6)" d="M168.71 189.289C176.104 196.556 175.072 209.172 176.872 218.647C178.698 228.254 188.18 267.226 196.174 271.71C187.313 319.979 193.909 361.032 229.573 398.205C247.158 416.534 271.441 433.413 297.284 436.171C293.352 440.496 283.858 439.632 278.517 440.218C258.508 442.412 239.241 447.826 219.421 450.883C211.249 451.43 203.268 453.42 195.177 454.628C185.671 448.957 175.793 436.135 168.364 427.828C171.427 419.82 180.294 409.827 185.459 402.842C177.327 406.966 171.072 418.73 166.383 426.385C158.767 418.384 152.818 409.466 149.593 398.855C151.245 396.744 160.168 389.481 159.09 386.945C154.957 387.425 151.283 392.097 146.758 389.727C142.154 387.316 140.141 377.487 138.747 372.778C140.646 372.219 153.88 366.848 149.748 363.283C147.969 361.749 139.722 365.272 136.179 365.528C132.191 360.93 131.379 354.636 130.913 348.787C133.318 346.634 138.495 342.549 138.535 339.331L138.024 338.93C135.349 338.903 132.636 340.656 130.291 341.838C123.015 318.36 136.515 327.396 139.808 317.732C141.22 313.585 129.925 321.761 126.152 324.913C123.842 314.75 123.29 302.942 124.096 292.557C125.506 290.067 128.87 270.54 130.054 265.771C135.023 245.754 154.15 205.607 168.71 189.289Z"/>
	<path fill="#15BBAB" transform="scale(1.6 1.6)" d="M435.814 385.383C435.764 386.917 434.656 388.046 433.693 389.207C435.532 390.723 438.502 390.529 440.245 388.964L440.515 388.154C440.007 387.669 439.506 387.325 438.908 386.959L438.898 386.526C443.676 386.665 443.159 399.723 452.224 400.419L454.266 401.44C454.329 403.658 456.33 407.183 457.789 408.865L458.963 408.959L459.295 409.423C459.029 410 458.819 410.158 458.346 410.561L458.513 411.14C460.531 409.619 462.637 407.968 465.164 407.449L465.852 407.661L466.01 408.123C463.2 411.914 458.497 414.239 455.55 417.864C453.672 423.91 456.631 420.656 462.307 424.377C468.278 428.29 468.197 435.235 477.33 435.174L478.783 435.151C479.31 434.312 478.774 433.622 479.522 432.989C481.688 461.89 478.607 483.47 474.902 511.184C473.522 521.506 472.96 553.514 457.924 554.311C445.922 554.947 430.077 526.806 423.774 518.481C419.316 512.593 405.876 499.016 405.172 492.251C395.055 492.116 385.603 495.497 375.601 495.951C368.463 496.275 361.5 494.602 354.4 494.715C343.917 494.882 333.588 497.151 323.011 497.107C307.793 497.044 290.153 495.508 275.175 492.697C253.88 488.701 215.639 474.377 199.543 458.164C206.205 455.832 212.713 453.088 219.421 450.883C239.241 447.826 258.508 442.412 278.517 440.218C283.858 439.632 293.352 440.496 297.284 436.171C299.894 435.614 309.194 437.563 312.503 437.951C327.504 439.707 340.511 438.264 354.953 433.887C358.076 432.854 361.136 431.408 364.163 430.111L364.958 430.603L365.064 431.484L365.909 432.138C397.404 421.314 414.365 412.476 435.814 385.383Z"/>
	<path fill="#FEFEFE" transform="scale(1.6 1.6)" d="M354.953 433.887C358.076 432.854 361.136 431.408 364.163 430.111L364.958 430.603L365.064 431.484L365.909 432.138C364.248 432.713 355.464 436.499 354.953 433.887Z"/>
	<path transform="scale(1.6 1.6)" d="M341.603 476.194L341.92 476.332C344.703 480.692 341.054 484.238 335.976 483.679C332.299 480.149 339.014 477.457 341.603 476.194Z"/>
	<path transform="scale(1.6 1.6)" d="M381.874 432.511L381.961 432.572C381.912 433.086 378.549 435.138 377.923 435.58C363.103 446.014 363.338 447.136 356.697 461.947L356.472 461.728C351.916 451.117 375.218 436.645 381.874 432.511Z"/>
	<path transform="scale(1.6 1.6)" d="M373.474 476.776C378.425 478.138 374.136 484.335 366.337 485.499C360.317 484.715 372.475 477.531 373.474 476.776Z"/>
	<path transform="scale(1.6 1.6)" d="M356.964 468.645C368.534 472.005 358.389 476.038 353.317 479.551C342.6 486.497 355.741 470.054 356.964 468.645Z"/>
	<path transform="scale(1.6 1.6)" d="M473.083 441.03L473.253 441.158L473.3 441.741C471.379 445.986 465.882 454.082 460.334 451.779C454.04 446.174 469.553 441.607 473.083 441.03Z"/>
	<path transform="scale(1.6 1.6)" d="M299.262 463.125C308.338 462.509 304.35 469.859 298.438 472.688C289.089 473.955 293.273 465.269 299.262 463.125Z"/>
	<path transform="scale(1.6 1.6)" d="M335.377 462.802C336.099 462.936 336.32 463.391 335.951 464.053C334.894 465.951 319.09 479.537 314.938 481.351C310.816 476.206 331.466 464.131 335.377 462.802Z"/>
	<path transform="scale(1.6 1.6)" d="M471.735 498.987C474.916 501.808 465.717 509.266 463.946 511.465C461.944 513.953 451.314 530.152 449.973 530.526C447.207 527.499 450.65 525.813 452.473 523.259C458.051 515.448 463.297 504.041 471.735 498.987Z"/>
	<path transform="scale(1.6 1.6)" d="M469.669 473.059C477.09 472.758 461.579 484.016 460.798 484.732C455.158 489.907 449.991 495.291 444.638 500.739C443.566 500.229 442.959 499.858 442.815 498.575C444.293 495.761 464.493 476.169 469.669 473.059Z"/>
	<path transform="scale(1.6 1.6)" d="M458.513 411.14C460.531 409.619 462.637 407.968 465.164 407.449L465.852 407.661L466.01 408.123C463.2 411.914 458.497 414.239 455.55 417.864C442.447 428.818 432.383 440.796 415.369 446.627C410.229 448.389 412.929 445.733 417.821 443.848C434.615 437.376 445.758 423.215 458.513 411.14Z"/>
	<path fill="#5661EE" transform="scale(1.6 1.6)" d="M201.735 159.413C227.055 136.563 260.232 126.219 293.253 120.739C328.308 114.921 361.365 118.529 393.997 134.244C412.869 143.331 427.152 156.548 443.218 169.501C474.743 194.918 511.828 228.477 523.964 268.25C524.672 270.571 525.126 273.957 526.297 275.972C527.249 281.366 526.918 287.278 526.616 292.724C524.896 323.713 514.983 353.515 508.908 383.826C508.172 387.498 504.944 394.38 505.071 397.505C499.167 411.855 489.662 418.319 482.63 429.364L482.037 429.103C480.509 429.842 480.095 431.497 479.522 432.989C478.774 433.622 479.31 434.312 478.783 435.151L477.33 435.174C468.197 435.235 468.278 428.29 462.307 424.377C456.631 420.656 453.672 423.91 455.55 417.864C458.497 414.239 463.2 411.914 466.01 408.123L465.852 407.661L465.164 407.449C462.637 407.968 460.531 409.619 458.513 411.14L458.346 410.561C458.819 410.158 459.029 410 459.295 409.423L458.963 408.959L457.789 408.865C456.33 407.183 454.329 403.658 454.266 401.44L452.224 400.419C443.159 399.723 443.676 386.665 438.898 386.526L438.908 386.959C439.506 387.325 440.007 387.669 440.515 388.154L440.245 388.964C438.502 390.529 435.532 390.723 433.693 389.207C434.656 388.046 435.764 386.917 435.814 385.383C458.299 347.342 464.451 307.759 451.311 264.874C442.872 237.332 422.72 208.098 396.827 194.416L396.547 194.287C394.662 193.44 391.803 192.413 389.769 193.18C347.362 171.348 310.062 166.313 265.904 189.573C262.183 191.532 258.649 193.818 254.938 195.78C253.823 195.775 253.365 196.158 252.551 196.853L252.29 197.079L251.88 197.017C251.187 194.914 250.508 191.188 253.303 191.918L253.368 191.751C248.721 189.002 242.677 187.838 237.735 185.433C231.179 182.244 225.432 177.688 218.823 174.569L219.344 175.244C217.344 175.693 206.807 170.225 204.382 169.187C200.471 167.512 198.954 168.628 197.573 163.858C198.96 162.555 201.122 161.244 201.735 159.413Z"/>
	<path transform="scale(1.6 1.6)" d="M505.636 345.351C506.182 345.316 506.738 345.378 507.285 345.41L507.549 345.788C504.423 350.393 491.774 353.388 486.442 353.545C478.943 352.208 503.602 345.888 505.636 345.351Z"/>
	<path transform="scale(1.6 1.6)" d="M496.661 373.695L497.28 374.03C497.369 379.884 476.536 383.582 471.462 383.371C471.037 383.048 470.634 382.704 470.226 382.359L470.322 381.868C473.165 380.41 478.566 380.47 481.917 379.566C487.047 378.183 491.834 375.871 496.661 373.695Z"/>
	<path transform="scale(1.6 1.6)" d="M520.371 315.57C520.69 315.554 521.228 315.554 521.042 315.967C518.893 320.741 496.557 329.68 491.017 331.358C486.58 329.846 517.072 317.235 520.371 315.57Z"/>
	<path transform="scale(1.6 1.6)" d="M452.224 400.419C455.989 398.028 477.305 390.012 479.204 392.906C477.454 396.475 458.829 401.845 454.266 401.44L452.224 400.419Z"/>
	<path transform="scale(1.6 1.6)" d="M194.366 165.788C196.669 163.542 199.147 161.325 201.735 159.413C201.122 161.244 198.96 162.555 197.573 163.858C198.954 168.628 200.471 167.512 204.382 169.187C206.807 170.225 217.344 175.693 219.344 175.244L218.823 174.569C225.432 177.688 231.179 182.244 237.735 185.433C242.677 187.838 248.721 189.002 253.368 191.751L253.303 191.918C250.508 191.188 251.187 194.914 251.88 197.017L252.29 197.079L252.551 196.853C253.365 196.158 253.823 195.775 254.938 195.78C258.649 193.818 262.183 191.532 265.904 189.573C310.062 166.313 347.362 171.348 389.769 193.18C391.803 192.413 394.662 193.44 396.547 194.287L396.827 194.416C422.72 208.098 442.872 237.332 451.311 264.874C464.451 307.759 458.299 347.342 435.814 385.383C414.365 412.476 397.404 421.314 365.909 432.138L365.064 431.484L364.958 430.603L364.163 430.111C361.136 431.408 358.076 432.854 354.953 433.887C340.511 438.264 327.504 439.707 312.503 437.951C309.194 437.563 299.894 435.614 297.284 436.171C271.441 433.413 247.158 416.534 229.573 398.205C193.909 361.032 187.313 319.979 196.174 271.71C188.18 267.226 178.698 228.254 176.872 218.647C175.072 209.172 176.104 196.556 168.71 189.289C176.771 180.759 185.74 173.697 194.366 165.788ZM202.147 310.751C206.378 332.206 214.362 359.856 228.508 377.273C236.936 375.131 260.218 364.716 267.563 360.049C271.772 357.374 281.463 347.086 286.228 347.568C295.914 359.133 308.019 364.234 322.784 363.308C337.544 364.223 351.797 381.408 374.837 382.227C399.392 383.1 389.006 382.181 399.762 398.774C415.578 385.076 424.481 374.622 432.039 354.647C445.241 319.753 441.035 276.037 425.75 242.16C424.598 241.858 423.937 240.879 423.134 240.07C403.567 220.348 360.471 190.226 331.094 188.85C314.249 188.062 289.218 196.467 275.89 206.828C258.903 220.033 228.455 264.275 217.481 284.48C214.516 289.939 206.323 307.765 202.147 310.751ZM202.147 310.751C206.323 307.765 214.516 289.939 217.481 284.48C228.455 264.275 258.903 220.033 275.89 206.828C289.218 196.467 314.249 188.062 331.094 188.85C360.471 190.226 403.567 220.348 423.134 240.07C423.937 240.879 424.598 241.858 425.75 242.16C409.069 195.234 333.732 169.859 288.391 186.122C236.316 204.801 192.906 252.752 202.147 310.751ZM397.185 198.026C421.247 217.12 432.677 238.306 440.183 267.861C451.609 312.849 448.844 348.095 418.985 385.478C401.761 407.042 388.585 417.74 364.163 430.111L364.958 430.603L365.064 431.484L365.909 432.138C397.404 421.314 414.365 412.476 435.814 385.383C458.299 347.342 464.451 307.759 451.311 264.874C442.872 237.332 422.72 208.098 396.827 194.416L395.99 194.838C395.824 196.038 396.596 196.996 397.185 198.026Z"/>
	<path fill="#FEFEFE" transform="scale(1.6 1.6)" d="M389.769 193.18C391.803 192.413 394.662 193.44 396.547 194.287L396.827 194.416L395.99 194.838C395.824 196.038 396.596 196.996 397.185 198.026C394.683 196.453 392.305 194.72 389.769 193.18Z"/>
	<path fill="#15BBAB" transform="scale(1.6 1.6)" d="M194.366 165.788C196.669 163.542 199.147 161.325 201.735 159.413C201.122 161.244 198.96 162.555 197.573 163.858C198.954 168.628 200.471 167.512 204.382 169.187C206.807 170.225 217.344 175.693 219.344 175.244L218.823 174.569C225.432 177.688 231.179 182.244 237.735 185.433C242.677 187.838 248.721 189.002 253.368 191.751L253.303 191.918C250.508 191.188 251.187 194.914 251.88 197.017L252.29 197.079L252.551 196.853C253.365 196.158 253.823 195.775 254.938 195.78C228.048 214.623 203.419 238.459 196.174 271.71C188.18 267.226 178.698 228.254 176.872 218.647C175.072 209.172 176.104 196.556 168.71 189.289C176.771 180.759 185.74 173.697 194.366 165.788Z"/>
	<path fill="#FC615C" transform="scale(1.6 1.6)" d="M228.508 377.273C236.936 375.131 260.218 364.716 267.563 360.049C271.772 357.374 281.463 347.086 286.228 347.568C295.914 359.133 308.019 364.234 322.784 363.308C337.544 364.223 351.797 381.408 374.837 382.227C399.392 383.1 389.006 382.181 399.762 398.774C367.519 428.917 329.486 441.968 287.73 424.912C260.707 413.873 245.82 400.5 228.508 377.273Z"/>
	<path transform="scale(1.6 1.6)" d="M311.973 370.725C332.69 368.219 340.258 400.971 314.138 405.247C288.171 406.715 288.384 374.283 311.973 370.725Z"/>
	<path fill="#FC615C" transform="scale(1.6 1.6)" d="M311.932 376.639C325.605 375.778 328.204 395.38 313.287 397.796C296.735 397.981 297.011 380.062 311.932 376.639Z"/>
	<path fill="#FED45E" transform="scale(1.6 1.6)" d="M202.147 310.751C206.323 307.765 214.516 289.939 217.481 284.48C228.455 264.275 258.903 220.033 275.89 206.828C289.218 196.467 314.249 188.062 331.094 188.85C360.471 190.226 403.567 220.348 423.134 240.07C423.937 240.879 424.598 241.858 425.75 242.16C441.035 276.037 445.241 319.753 432.039 354.647C424.481 374.622 415.578 385.076 399.762 398.774C389.006 382.181 399.392 383.1 374.837 382.227C351.797 381.408 337.544 364.223 322.784 363.308C308.019 364.234 295.914 359.133 286.228 347.568C281.463 347.086 271.772 357.374 267.563 360.049C260.218 364.716 236.936 375.131 228.508 377.273C214.362 359.856 206.378 332.206 202.147 310.751ZM267.583 235.52C251.664 254.301 268.249 292.353 286.431 269.255C290.772 263.74 291.449 256.777 295.059 251.037C302.475 239.249 346.408 237.051 357.015 245.184C368.665 254.116 367.552 272.76 359.028 283.389C342.682 303.774 307.871 312.939 311.596 350.166C311.932 353.524 312.962 356.849 313.236 360.181C319.328 356.515 323.832 346.79 327.859 340.932C341.913 320.486 362.887 310.703 378.965 293.084C388.196 282.968 389.539 275.152 388.917 261.818C388.853 261.061 388.761 260.379 388.583 259.636C386.298 249.413 380.982 232.388 370.104 228.838C366.755 224.404 351.517 216.317 345.668 214.161C334.986 215.305 323.541 215.551 313.75 216.816C308.277 217.524 303.103 219.366 297.69 220.163C281.08 222.609 279.139 220.05 267.583 235.52Z"/>
	<path fill="#FEFEFE" transform="scale(1.6 1.6)" d="M388.917 261.818L389.306 261.439C394.786 265.595 399.696 274.978 400.656 281.797C404.607 309.86 362.929 336.692 343.234 349.262C336.407 353.619 328.722 357.775 322.784 363.308C308.019 364.234 295.914 359.133 286.228 347.568C289.879 346.095 293.17 343.95 296.896 342.637C300.017 343.93 301.85 345.754 303.805 348.465C305.133 352.835 307.692 360.149 313.236 360.181C319.328 356.515 323.832 346.79 327.859 340.932C341.913 320.486 362.887 310.703 378.965 293.084C388.196 282.968 389.539 275.152 388.917 261.818Z"/>
	<path transform="scale(1.6 1.6)" d="M303.805 348.465C299.757 302.941 359.759 291.841 355.251 260.392C353.541 248.456 342.417 249.989 333.443 250.052C326.752 250.099 308.466 249.051 302.917 253.001C297.645 256.753 298.316 278.655 276.274 281.905C249.714 285.821 233.986 218.3 312.383 209.496C320.535 208.581 339.067 208.903 345.668 214.161C334.986 215.305 323.541 215.551 313.75 216.816C308.277 217.524 303.103 219.366 297.69 220.163C281.08 222.609 279.139 220.05 267.583 235.52C251.664 254.301 268.249 292.353 286.431 269.255C290.772 263.74 291.449 256.777 295.059 251.037C302.475 239.249 346.408 237.051 357.015 245.184C368.665 254.116 367.552 272.76 359.028 283.389C342.682 303.774 307.871 312.939 311.596 350.166C311.932 353.524 312.962 356.849 313.236 360.181C307.692 360.149 305.133 352.835 303.805 348.465Z"/>
	<path fill="#FC615C" transform="scale(1.6 1.6)" d="M267.583 235.52C279.139 220.05 281.08 222.609 297.69 220.163C303.103 219.366 308.277 217.524 313.75 216.816C323.541 215.551 334.986 215.305 345.668 214.161C351.517 216.317 366.755 224.404 370.104 228.838C380.982 232.388 386.298 249.413 388.583 259.636C388.761 260.379 388.853 261.061 388.917 261.818C389.539 275.152 388.196 282.968 378.965 293.084C362.887 310.703 341.913 320.486 327.859 340.932C323.832 346.79 319.328 356.515 313.236 360.181C312.962 356.849 311.932 353.524 311.596 350.166C307.871 312.939 342.682 303.774 359.028 283.389C367.552 272.76 368.665 254.116 357.015 245.184C346.408 237.051 302.475 239.249 295.059 251.037C291.449 256.777 290.772 263.74 286.431 269.255C268.249 292.353 251.664 254.301 267.583 235.52ZM267.583 235.52C270.946 234.625 274.151 232.926 277.477 231.83C307.982 221.77 315.935 216.134 349.882 224.363C353.273 225.185 357.372 225.85 360.505 227.387C363.652 228.135 366.861 228.775 370.104 228.838C366.755 224.404 351.517 216.317 345.668 214.161C334.986 215.305 323.541 215.551 313.75 216.816C308.277 217.524 303.103 219.366 297.69 220.163C281.08 222.609 279.139 220.05 267.583 235.52Z"/>
	<path transform="scale(1.6 1.6)" d="M360.505 227.387C363.652 228.135 366.861 228.775 370.104 228.838C380.982 232.388 386.298 249.413 388.583 259.636L388.426 259.729C386.794 259.011 378.105 243.437 375.816 240.58C371.833 235.608 365.704 231.993 360.922 227.761L360.505 227.387Z"/>
</svg>
