<?xml version="1.0" encoding="utf-8" ?>
<svg width="100" height="100" viewBox="0 0 900 900">
	<path transform="scale(1.6 1.6)" d="M511.784 127.251C523.265 126.622 520.767 140.073 521.383 147.896C523.45 174.183 527.061 200.281 528.447 226.665L532.106 306.828C534.5 355.08 527.415 403.434 512.675 449.36C489.378 521.952 465.627 544.972 388.61 555.006C357.632 559.042 326.847 560.321 295.625 560.059C262.947 559.785 230.494 554.805 197.82 554.021C170.092 553.356 145.481 553.211 120.99 538.052C97.3096 523.394 84.3458 502.274 84.8745 473.663C85.7359 427.046 112.223 400.071 150.749 379.596C154.054 377.839 157.691 375.323 161.493 374.977C161.173 379.333 161.021 383.863 161.21 388.225C147.802 395.145 140.648 397.483 128.043 408.068C98.9892 428.797 83.754 478.758 105.585 508.951C127.804 539.68 162.198 541.787 196.093 542.639C233.1 543.568 269.725 548.759 306.805 548.736C347.457 548.71 424.409 546.128 458.212 521.408C486.604 500.644 503.356 449.443 510.916 414.593C508.867 417.226 509.099 424.762 506.452 425.962C502.844 423.584 498.302 419.158 495.869 415.605C496.887 413.068 496.546 409.795 496.209 407.127L496.233 402.327L496.302 398.238C496.799 394.922 496.819 390.359 495.639 387.198L497.109 384.341C498.785 378.049 501.912 371.039 501.543 364.468C501.426 362.372 500.313 360.481 500.149 358.364C498.943 355.35 501.538 346.988 502.643 344.192C509.614 326.556 506.497 324.79 507.703 306.381C509.235 283.012 512.303 261.599 512.603 237.891C512.644 234.655 513.306 187.2 513.692 186.686L514.044 187.08C513.378 173.399 507.513 134.296 511.784 127.251Z"/>
	<path fill="#FED45E" transform="scale(1.6 1.6)" d="M500.149 358.364C498.943 355.35 501.538 346.988 502.643 344.192C509.614 326.556 506.497 324.79 507.703 306.381C509.235 283.012 512.303 261.599 512.603 237.891C512.644 234.655 513.306 187.2 513.692 186.686L514.044 187.08C515.939 216.179 517.097 243.961 518.434 272.949C519.076 286.86 520.576 300.742 520.917 314.665C521.675 345.55 518.141 384.186 510.916 414.593C508.867 417.226 509.099 424.762 506.452 425.962C502.844 423.584 498.302 419.158 495.869 415.605C496.887 413.068 496.546 409.795 496.209 407.127L496.233 402.327L496.302 398.238C496.799 394.922 496.819 390.359 495.639 387.198L497.109 384.341C498.785 378.049 501.912 371.039 501.543 364.468C501.426 362.372 500.313 360.481 500.149 358.364Z"/>
	<path fill="#5D1010" transform="scale(1.6 1.6)" d="M500.149 358.364C503.203 359.439 505.357 361.193 506.713 364.166C506.399 371.922 502.151 378.678 497.109 384.341C498.785 378.049 501.912 371.039 501.543 364.468C501.426 362.372 500.313 360.481 500.149 358.364Z"/>
	<defs>
		<linearGradient id="gradient_0" gradientUnits="userSpaceOnUse" x1="302.31036" y1="548.24011" x2="299.26776" y2="154.91579">
			<stop offset="0" stop-color="#FF564F"/>
			<stop offset="1" stop-color="#DE6796"/>
		</linearGradient>
	</defs>
	<path fill="url(#gradient_0)" transform="scale(1.6 1.6)" d="M167.798 152.586C169.957 157.686 174.906 188.768 175.011 195.191C174.714 194.28 174.752 193.772 173.904 193.281L173.317 193.503C170.943 198.842 173.614 236.42 173.619 248.619C173.633 279.643 173.266 306.869 171.587 337.707C171.23 344.255 170.446 391.163 173.182 395.291C170.182 408.487 169.492 426.9 168.214 440.516C165.996 464.142 161.503 494.48 163.22 518.092C171.099 519.622 179.048 519.909 187.037 520.361C211.491 521.747 235.816 524.931 260.275 526.106C297.198 527.878 333.406 521.903 370.087 518.983C398.228 516.742 419.904 523.457 445.28 506.288C464.306 493.416 474.443 466.933 478.575 445.059C479.05 442.542 482.156 430.374 480.657 429.984C482.164 428.939 482.641 426.971 482.482 425.209L481.953 424.771C482.764 424.415 483.007 423.948 483.521 423.26C484.512 422.265 486.272 421.352 487.463 420.554C490.311 419.166 493.075 417.134 495.493 415.095C496.011 412.501 495.956 409.766 496.209 407.127C496.546 409.795 496.887 413.068 495.869 415.605C498.302 419.158 502.844 423.584 506.452 425.962C509.099 424.762 508.867 417.226 510.916 414.593C503.356 449.443 486.604 500.644 458.212 521.408C424.409 546.128 347.457 548.71 306.805 548.736C269.725 548.759 233.1 543.568 196.093 542.639C162.198 541.787 127.804 539.68 105.585 508.951C83.754 478.758 98.9892 428.797 128.043 408.068C140.648 397.483 147.802 395.145 161.21 388.225C161.021 383.863 161.173 379.333 161.493 374.977C163.647 371.566 164.964 330.904 165.001 322.832L165.007 222.455C165.006 213.402 164.067 158.98 167.798 152.586ZM161.21 388.225C147.802 395.145 140.648 397.483 128.043 408.068C132.732 422.016 130.875 423.522 125.33 436.931C109.865 474.33 110.432 497.082 150.107 513.317C149.958 481.083 155.286 449.521 158.556 417.573C159.29 410.399 161.823 394.418 161.21 388.225Z"/>
	<path fill="#FED45E" transform="scale(1.6 1.6)" d="M173.182 395.291L173.997 395.034C181.786 401.55 186.616 419.579 204.22 417.617C236.62 424.336 291.148 431.511 322.901 429.714C357.984 427.729 389.292 420.888 425.152 422.932C437.323 423.626 449.514 425.077 461.697 425.254L462.284 426.272L462.204 426.38C464.201 427.612 467.459 426.819 469.748 426.874C473.707 427.194 476.906 428.907 480.657 429.984C482.156 430.374 479.05 442.542 478.575 445.059C474.443 466.933 464.306 493.416 445.28 506.288C419.904 523.457 398.228 516.742 370.087 518.983C333.406 521.903 297.198 527.878 260.275 526.106C235.816 524.931 211.491 521.747 187.037 520.361C179.048 519.909 171.099 519.622 163.22 518.092C161.503 494.48 165.996 464.142 168.214 440.516C169.492 426.9 170.182 408.487 173.182 395.291ZM427.312 452.943C409.94 454.106 392.778 457.006 375.458 458.332C335.35 461.403 294.672 460.841 254.632 456.728C245.289 455.768 226.754 452.506 218.614 453.883C217.615 456.889 217.853 458.828 218.827 461.809C228.59 464.985 245.439 465.908 255.679 466.614C289.75 471.07 341.631 470.997 375.058 467.772C400.928 465.277 428.626 456.773 454.261 464.371C457.018 465.188 459.787 466.212 462.639 466.623C463.862 448.382 440.789 452.269 427.312 452.943ZM215.768 477.221C213.637 478.456 213.066 480.009 214.527 482.227C219.114 489.187 239.121 488.59 246.567 489.243C275.369 491.771 301.521 491.799 329.944 492.569C342.238 492.903 358.412 495.042 370.44 492.605C375.232 489.972 371.325 485.724 367.791 483.945C323.576 485.447 274.778 483.671 230.537 478.651C225.674 478.099 220.673 476.989 215.768 477.221Z"/>
	<path fill="#5661EE" transform="scale(1.6 1.6)" d="M167.798 152.586C165.118 138.963 152.416 119.41 161.577 103.855C166.308 95.8242 176.983 98.8861 184.641 98.9632L224.985 99.3916C248.445 99.7324 271.812 99.0479 295.228 97.952L342.711 95.3159C389.836 92.2729 436.957 89.4885 484.193 89.6101C491.275 89.6283 498.896 89.2903 505.894 90.3178C526.6 93.3578 509.158 121.212 511.784 127.251C507.513 134.296 513.378 173.399 514.044 187.08L513.692 186.686C513.306 187.2 512.644 234.655 512.603 237.891C512.303 261.599 509.235 283.012 507.703 306.381C506.497 324.79 509.614 326.556 502.643 344.192C501.538 346.988 498.943 355.35 500.149 358.364C500.313 360.481 501.426 362.372 501.543 364.468C501.912 371.039 498.785 378.049 497.109 384.341L495.639 387.198C496.819 390.359 496.799 394.922 496.302 398.238L496.233 402.327L496.209 407.127C495.956 409.766 496.011 412.501 495.493 415.095C493.075 417.134 490.311 419.166 487.463 420.554C486.272 421.352 484.512 422.265 483.521 423.26C483.007 423.948 482.764 424.415 481.953 424.771L482.482 425.209C482.641 426.971 482.164 428.939 480.657 429.984C476.906 428.907 473.707 427.194 469.748 426.874C467.459 426.819 464.201 427.612 462.204 426.38L462.284 426.272L461.697 425.254C449.514 425.077 437.323 423.626 425.152 422.932C389.292 420.888 357.984 427.729 322.901 429.714C291.148 431.511 236.62 424.336 204.22 417.617C186.616 419.579 181.786 401.55 173.997 395.034L173.182 395.291C170.446 391.163 171.23 344.255 171.587 337.707C173.266 306.869 173.633 279.643 173.619 248.619C173.614 236.42 170.943 198.842 173.317 193.503L173.904 193.281C174.752 193.772 174.714 194.28 175.011 195.191C174.906 188.768 169.957 157.686 167.798 152.586Z"/>
	<path fill="#9191CE" transform="scale(1.6 1.6)" d="M492.889 391.275C493.865 389.946 494.759 388.591 495.639 387.198C496.819 390.359 496.799 394.922 496.302 398.238C496.199 396.718 496.305 395.149 496.331 393.624C495.119 392.906 494.006 392.134 492.889 391.275Z"/>
	<path fill="#FB8ACE" transform="scale(1.6 1.6)" d="M461.697 425.254C468.792 425.139 476.708 425.392 483.521 423.26C483.007 423.948 482.764 424.415 481.953 424.771L482.482 425.209C482.641 426.971 482.164 428.939 480.657 429.984C476.906 428.907 473.707 427.194 469.748 426.874C467.459 426.819 464.201 427.612 462.204 426.38L462.284 426.272L461.697 425.254Z"/>
	<path fill="#5D1010" transform="scale(1.6 1.6)" d="M481.953 424.771L482.482 425.209C482.641 426.971 482.164 428.939 480.657 429.984C476.906 428.907 473.707 427.194 469.748 426.874C474.226 426.189 477.429 425.952 481.953 424.771Z"/>
	<path transform="scale(1.6 1.6)" d="M496.233 402.327L496.209 407.127C495.956 409.766 496.011 412.501 495.493 415.095C493.075 417.134 490.311 419.166 487.463 420.554C488.647 419.294 489.978 418.209 491.297 417.093C490.978 411.794 489.213 403.71 496.233 402.327Z"/>
	<path fill="#FC615C" transform="scale(1.6 1.6)" d="M173.182 395.291C170.446 391.163 171.23 344.255 171.587 337.707C173.266 306.869 173.633 279.643 173.619 248.619C173.614 236.42 170.943 198.842 173.317 193.503L173.904 193.281C174.752 193.772 174.714 194.28 175.011 195.191C179.213 233.74 181.543 266.26 180.324 305.055C179.831 320.746 175.586 355.252 179.086 367.679C181.185 381.089 181.321 394.111 188.885 405.772C191.366 408.776 193.898 411.391 196.902 413.871C199.222 415.294 201.557 416.925 204.22 417.617C186.616 419.579 181.786 401.55 173.997 395.034L173.182 395.291Z"/>
	<path fill="#5D1010" transform="scale(1.6 1.6)" d="M188.885 405.772C191.366 408.776 193.898 411.391 196.902 413.871C192.76 412.458 189.72 410.349 186.994 406.912L187.692 407.031C188.278 407.549 188.844 407.991 189.498 408.425L190.163 408.268C189.544 407.627 189.131 407.088 188.691 406.314L188.885 405.772Z"/>
	<path transform="scale(1.6 1.6)" d="M179.086 367.679C181.185 381.089 181.321 394.111 188.885 405.772L188.691 406.314C189.131 407.088 189.544 407.627 190.163 408.268L189.498 408.425C188.844 407.991 188.278 407.549 187.692 407.031L186.994 406.912C179.171 398.874 178.859 377.913 179.086 367.679Z"/>
	<path fill="#15BBAB" transform="scale(1.6 1.6)" d="M410.276 117.953C416.982 117.576 484.328 116.676 486.847 119.114C488.144 123.547 486.9 131.283 486.883 136.19C486.833 150.706 488.442 165.303 488.872 179.821C489.9 214.496 489.14 249.27 485.97 283.826C484.233 302.765 480.528 321.585 478.081 340.455C475.935 356.998 475.795 374.013 471.948 390.269C446.21 390.745 422.237 387.324 395.839 389.424C375.457 391.045 355.631 396.364 335.462 399.454C313.17 402.87 291.241 401.657 268.988 398.672L232.197 393.262C225.903 392.28 216.101 392.331 211.03 387.871C200.376 378.5 205.762 318.384 206.435 303.631C208.525 257.795 206.283 213.252 196.931 168.266L190.839 138.669C189.901 133.897 188.555 128.873 188.342 124.012C196.006 124.016 203.759 125.611 211.465 125.903C241.582 127.043 268.903 126.404 298.718 124.747L384.527 119.579C393.132 119.085 401.647 118.23 410.276 117.953Z"/>
	<path fill="#FEFEFE" transform="scale(1.6 1.6)" d="M243.801 314.786C249.985 314.52 256.944 317.206 262.881 318.724C296.554 327.334 339.692 329.773 374.608 326.139C396.707 323.839 419.148 319.052 441.467 321.633C441.581 324.468 442.588 328.897 438.989 329.738C435.507 330.235 431.784 330.042 428.265 330.083C407.758 330.323 387.969 334.534 367.603 336.021C334.912 338.407 293.878 335.079 262.373 328.464C256.823 327.299 250.677 326.368 245.322 324.576C241.213 323.201 238.609 316.002 243.801 314.786Z"/>
	<path fill="#FEFEFE" transform="scale(1.6 1.6)" d="M243.412 290.106C258.467 289.422 284.092 292.399 299.366 293.959C319.411 296.008 339.021 298.291 359.216 297.124C384.193 295.682 407.301 291.952 432.398 295.546C438.856 296.47 449.141 296.603 444.053 306.043C439.914 306.705 432.788 304.793 428.296 304.375C398.235 301.581 366.027 306.885 335.348 306.481C316.005 306.227 296.556 302.702 277.146 301.517L257.47 300.307C252.213 299.97 246.152 300.35 241.555 297.345C241.482 294.744 240.499 291.347 243.412 290.106Z"/>
	<path fill="#FEFEFE" transform="scale(1.6 1.6)" d="M240.136 335.679C247.862 336.751 256.843 339.522 264.866 341.016C287.204 345.174 309.235 348.252 331.96 349.256C343.885 349.783 438.561 345.054 442.302 352.687C443.205 354.53 441.856 357.283 441.047 358.965C434.955 361.527 425.7 358.478 419.14 358.583C389.95 359.051 355.206 360.26 326.215 358.559C311.466 357.693 254.317 351.37 241.179 344.104C237.353 341.988 238.157 338.933 240.136 335.679Z"/>
	<path fill="#FEFEFE" transform="scale(1.6 1.6)" d="M243.241 261.599C251.483 260.921 261.76 263.856 270.101 265.009C307.292 270.149 337.01 269.932 373.636 268.545C392.952 267.813 435.129 267.693 452.495 278.234C451.846 280.234 451.041 282 450.024 283.838C446.957 285.262 425.477 280.179 420.485 279.479C395.533 275.979 370.143 278.406 345.076 278.898C317.611 279.437 292.463 277.986 265.323 273.583C258.187 272.425 248.11 271.579 241.565 268.762C241.337 265.941 241.033 263.8 243.241 261.599Z"/>
	<path transform="scale(1.6 1.6)" d="M395.362 131.1C408.594 131.691 446.123 128.225 454.344 135.65C463.662 144.067 466.183 158.676 466.852 170.585C467.347 179.418 464.809 213.63 458.711 219.916C456.749 221.938 442.744 217.953 396.806 226.131C364.142 231.945 336.444 231.724 304.357 233.356C270.094 232.76 234.419 233.075 232.311 190.309C231.228 168.345 236.769 140.223 261.289 133.835C274.372 130.427 295.662 131.271 309.424 131.272L363.366 131.279C374.006 131.282 384.733 131.554 395.362 131.1Z"/>
	<path fill="#5661EE" transform="scale(1.6 1.6)" d="M414.604 142.647C426.152 142.604 443.593 138.71 449.72 149.491C459.684 167.019 455.847 190.169 450.728 208.641C424.048 208.685 405.071 213.565 379.69 216.975C348.409 221.177 315.89 222.855 284.297 221.218C259.409 220.048 243.654 214.177 242.782 186.714C241.458 144.991 261.299 144.426 295.073 144.403L332.123 144.414C346.287 144.411 360.464 143.848 374.62 143.494L414.604 142.647Z"/>
	<path fill="#FEFEFE" transform="scale(1.6 1.6)" d="M399.343 151.402C401.063 151.348 432.254 148.204 423.807 157.764C420.301 161.732 407.051 161.564 401.616 161.981C402.419 167.304 403.293 172.648 403.83 178.004C412.643 177.345 421.589 176.875 430.423 177.231C430.288 179.454 429.962 181.474 429.481 183.646C425.712 184.458 421.886 184.906 418.066 185.394C413.908 185.94 409.761 186.22 405.57 186.307C406.208 197.629 411.173 213.403 398.04 207.377C397.334 201.106 397.713 194.768 397.111 188.486C396.128 178.238 391.322 162.696 387.376 152.679C391.388 151.721 395.241 151.503 399.343 151.402Z"/>
	<path fill="#FEFEFE" transform="scale(1.6 1.6)" d="M298.374 153.747C313.48 153.454 332.199 154.424 338.397 171.181C336.254 184.56 329.641 188.259 316.523 188.534C313.827 188.597 311.129 188.529 308.433 188.487C308.406 191.513 310.889 216.315 302.676 209.2C299.97 206.855 298.506 159.209 298.374 153.747Z"/>
	<path fill="#5661EE" transform="scale(1.6 1.6)" d="M309.427 163.607C315.064 163.241 320.239 162.456 323.872 167.744C326.114 171.007 327.312 176.637 323.472 179.23C319.249 180.781 312.949 180.02 308.45 180.004C308.203 176.913 306.986 166.092 308.358 163.849L309.427 163.607Z"/>
	<path fill="#FEFEFE" transform="scale(1.6 1.6)" d="M354.446 153.305C380.182 151.163 397.418 190.176 373.43 205.283C369.062 207.823 353.46 211.649 349.771 206.567C347.593 203.565 348.752 173.559 348.379 167.496C348.096 162.906 346.616 158.43 346.524 153.828C349.16 153.584 351.802 153.434 354.446 153.305Z"/>
	<path fill="#5661EE" transform="scale(1.6 1.6)" d="M357.232 160.717C368.006 161.825 382.58 183.608 369.893 196.551C366.621 199.764 362.92 201.178 358.348 201.076C357.02 193.827 357.339 169.127 357.232 160.717Z"/>
</svg>
