<?xml version="1.0" encoding="utf-8" ?>
<svg width="100" height="100" viewBox="0 0 1000 1000">
	<path transform="scale(1.6 1.6)" d="M138.632 290.511C135.716 280.746 136.368 270.195 135.454 260.131C134.177 246.055 132.289 232.064 131.276 217.955C129.383 191.597 128.908 166.309 123.108 140.373C121.518 133.264 119.005 125.677 118.415 118.439C116.335 92.9055 146.287 89.361 164.533 88.791C200.037 87.6818 243.251 90.6038 277.835 84.284C300.361 80.1677 307.723 74.3969 328.88 87.2086C344.104 96.4278 410.933 141.536 412.563 149.372C413.39 153.347 409.666 154.61 406.506 155.177C404.558 151.294 367.739 149.382 361.581 149.228C352.475 149 342.572 151.146 334.416 146.323C331.959 141.383 331.752 135.335 330.723 129.982C329.028 121.168 323.511 93.9284 314.658 90.8273C305.526 87.6284 289.88 92.4337 280.254 94.1135C249.551 99.4717 205.506 98.7608 173.842 98.7528C162.086 98.7498 124.477 97.2092 127.328 117.209C128.071 122.422 129.898 127.616 131.116 132.742C140.571 172.536 138.128 206.561 142.991 245.969C144.063 254.664 148.115 284.881 138.673 290.505L138.632 290.511Z"/>
	<path fill="#FC615C" transform="scale(1.6 1.6)" d="M337.346 113.654C339.976 115.355 342.304 118.709 344.493 120.984C351.062 127.809 358.741 133.409 367.312 137.45C369.326 138.4 380.849 142.715 381.201 143.372C368.031 141.327 355.315 141.282 342.042 142.159C341.234 132.515 340.707 122.836 337.346 113.654Z"/>
	<path fill="#5661EE" transform="scale(1.6 1.6)" d="M407.391 177.26C411.579 177.063 415.62 175.774 419.76 175.214C454.394 170.527 462.482 186.002 476.209 211.722C498.621 253.714 529.297 249.014 540.229 266.06C546.092 275.201 548.904 301.656 549.641 312.768C553.323 368.235 538.935 496.248 503.325 536.625C476.159 567.429 440.564 559.139 405.894 549.74L374.583 541.261C347.876 534.206 321.117 527.289 294.63 519.421C263.766 510.253 231.054 500.458 200.456 490.502C199.703 490.007 198.934 489.533 198.173 489.051C217.193 489.404 250.796 485.713 269.297 482.963C303.851 477.826 334.962 470.643 370.129 469.723C396.94 469.021 414.244 475.893 421.385 445.718L421.859 445.805C422.894 445.011 423.003 443.482 423.882 442.511L424.103 444.394C425.904 436.13 423.211 398.548 421.593 386.416C421.546 387.452 421.542 388.509 421.429 389.54C420.946 385.845 422.015 382.796 420.365 387.597C420.163 375.339 418.85 363.239 418.42 351.029C416.238 335.413 414.936 315.733 414.105 299.87C411.271 266.194 414.193 229.321 409.562 196.359C408.75 190.584 406.104 183.023 407.391 177.26Z"/>
	<path transform="scale(1.6 1.6)" d="M407.391 177.26C411.579 177.063 415.62 175.774 419.76 175.214C454.394 170.527 462.482 186.002 476.209 211.722C498.621 253.714 529.297 249.014 540.229 266.06C546.092 275.201 548.904 301.656 549.641 312.768C553.323 368.235 538.935 496.248 503.325 536.625C476.159 567.429 440.564 559.139 405.894 549.74L374.583 541.261C347.876 534.206 321.117 527.289 294.63 519.421C263.766 510.253 231.054 500.458 200.456 490.502C199.703 490.007 198.934 489.533 198.173 489.051C217.193 489.404 250.796 485.713 269.297 482.963C303.851 477.826 334.962 470.643 370.129 469.723C396.94 469.021 414.244 475.893 421.385 445.718L421.859 445.805C422.894 445.011 423.003 443.482 423.882 442.511L424.103 444.394C421.491 476.407 402.181 474.867 377.229 474.819C329.342 474.726 285.155 488.193 238.512 491.223C234.569 491.479 230.54 491.12 226.653 491.97C282.551 506.075 337.605 523.459 393.931 535.831C415.54 540.578 450.287 551.412 471.955 543.082C535.435 518.677 543.575 359 537.713 304.599C537.17 299.558 535.198 273.964 530.509 272.105C526.952 270.695 511.911 271.416 507.731 271.698C487.072 273.091 463.862 278.928 451.704 257.555C436.761 231.288 455.88 201.036 451.949 191.767C447.385 181.004 419.079 182.422 410.876 185.848C416.013 217.197 413.996 248.493 415.598 280L416.627 302.236C418.534 311.003 419.162 338.3 419.821 348.868C420.816 361.418 421.245 373.836 421.593 386.416C421.546 387.452 421.542 388.509 421.429 389.54C420.946 385.845 422.015 382.796 420.365 387.597C420.163 375.339 418.85 363.239 418.42 351.029C416.238 335.413 414.936 315.733 414.105 299.87C411.271 266.194 414.193 229.321 409.562 196.359C408.75 190.584 406.104 183.023 407.391 177.26Z"/>
	<path fill="#5661EE" transform="scale(1.6 1.6)" d="M459.285 203.9C460.076 205.067 460.557 206.52 461.131 207.808C470.958 229.853 484.26 250.873 507.57 259.818L503.361 260.081C484.527 262.063 466.874 265.657 459.236 243.598C454.58 230.152 457.627 217.523 459.285 203.9Z"/>
	<path fill="#FED45E" transform="scale(1.6 1.6)" d="M138.632 290.511L138.673 290.505C148.115 284.881 144.063 254.664 142.991 245.969C138.128 206.561 140.571 172.536 131.116 132.742C129.898 127.616 128.071 122.422 127.328 117.209C124.477 97.2092 162.086 98.7498 173.842 98.7528C205.506 98.7608 249.551 99.4717 280.254 94.1135C289.88 92.4337 305.526 87.6284 314.658 90.8273C323.511 93.9284 329.028 121.168 330.723 129.982C331.752 135.335 331.959 141.383 334.416 146.323C326.83 158.141 319.772 168.867 307.636 176.689C305.077 178.339 301.971 179.214 299.493 180.822C300.994 182.59 300.969 187.703 298.932 189.168C296.151 191.168 285.335 190.191 281.94 190.189L259.538 190.177C248.782 190.17 235.588 190.915 225.088 189.634C221.74 189.677 218.336 189.595 215.01 189.996C212.355 191.707 208.684 191.243 205.66 191.51C191.331 192.775 163.928 202.512 158.983 217.837C157.55 222.278 157.263 236.447 157.909 241.105C160.452 259.453 182.184 256.405 195.353 257.889C207.524 259.26 223.539 263.961 232.582 272.638C238.624 278.434 235.975 281.284 234.51 288.843C232.898 297.162 233.59 306.339 236.674 314.211C308.165 309.777 321.349 408.302 270.758 441.982C261.207 448.341 228.504 464.743 218.284 465.186C210.038 465.543 199.667 460.648 187.843 460.983C187.731 471.38 189.302 482.457 198.173 489.051C198.934 489.533 199.703 490.007 200.456 490.502C193.355 493.958 180.163 494.212 174.244 488.052C167.459 480.991 166.143 467.398 157.066 458.299C151.857 453.078 144.945 450.321 138.531 446.922C106.195 429.787 72.734 381.034 88.0818 344.481C97.2154 322.729 105.806 326.667 119.543 316.206C127.225 310.357 137.257 300.885 138.577 290.943L138.632 290.511Z"/>
	<path fill="#9B5701" transform="scale(1.6 1.6)" d="M211.883 190.018C207.563 190.579 189.2 193.644 188.068 193.478L187.933 193.099C191.042 190.381 204.697 187.543 208.857 186.981C211.949 188.514 207.708 189.615 211.883 190.018Z"/>
	<path transform="scale(1.6 1.6)" d="M220.788 184.992C239.152 181.566 257.056 180.3 275.735 180.334C283.387 180.348 292.017 181.366 299.493 180.822C300.994 182.59 300.969 187.703 298.932 189.168C296.151 191.168 285.335 190.191 281.94 190.189L259.538 190.177C248.782 190.17 235.588 190.915 225.088 189.634C221.74 189.677 218.336 189.595 215.01 189.996L211.883 190.018C207.708 189.615 211.949 188.514 208.857 186.981C212.785 186.153 216.823 185.63 220.788 184.992Z"/>
	<path transform="scale(1.6 1.6)" d="M228.572 130.814C233.724 130.209 240.958 132.758 236.585 137.991C234.509 140.475 190.019 145.722 184.621 146.325C163.525 148.679 170.739 146.62 159.108 160.097C140.634 165.064 163.745 126.747 186.852 137.814C200.814 135.665 214.494 132.387 228.572 130.814Z"/>
	<path fill="#FC615C" transform="scale(1.6 1.6)" d="M148.145 332.514C145.281 320.695 174.405 275.885 191.224 282.842C200.388 286.633 213.691 311.777 217.79 321.048C223.921 317.868 229.847 315.389 236.674 314.211C308.165 309.777 321.349 408.302 270.758 441.982C261.207 448.341 228.504 464.743 218.284 465.186C210.038 465.543 199.667 460.648 187.843 460.983C163.964 461.143 129.6 431.775 118.236 412.311C107.682 394.234 97.2679 359.455 113.724 341.626C126.506 327.778 140.033 337.972 148.145 332.514Z"/>
	<path transform="scale(1.6 1.6)" d="M230.664 364.712C254.311 363.814 201.001 408.952 198.034 411.385C187.056 420.392 176.274 406.643 165.559 399.861C162.813 398.088 157.611 394.433 158.78 390.433C161.831 379.988 186.416 399.478 192.16 401.482L192.606 401.635C206.626 392.922 220.187 370.65 230.664 364.712Z"/>
	<path transform="scale(1.6 1.6)" d="M236.674 314.211C308.165 309.777 321.349 408.302 270.758 441.982C261.207 448.341 228.504 464.743 218.284 465.186C210.038 465.543 199.667 460.648 187.843 460.983C163.964 461.143 129.6 431.775 118.236 412.311C107.682 394.234 97.2679 359.455 113.724 341.626C126.506 327.778 140.033 337.972 148.145 332.514C155.065 334.592 149.649 348.972 143.597 349.977C137.603 350.972 136.427 345.147 132.544 342.787C126.516 339.124 118.429 345.139 115.389 350.061C110.15 358.544 110.84 368.842 113.111 378.136C120.146 406.93 137.653 428.343 162.751 443.513C197.143 464.3 211.406 458.175 242.432 443.183C256.916 436.184 271.972 431.896 280.508 417.35C296.532 390.041 294.554 347.042 264.458 329.94C255.345 324.762 243.836 323.427 234.343 328.455C224.781 333.519 227.588 335.113 217.801 328.649L216.498 325.265C216.94 323.712 216.667 322.245 217.79 321.048C223.921 317.868 229.847 315.389 236.674 314.211Z"/>
	<path fill="#15BBAB" transform="scale(1.6 1.6)" d="M334.416 146.323C342.572 151.146 352.475 149 361.581 149.228C367.739 149.382 404.558 151.294 406.506 155.177C404.481 157.081 407.482 173.481 407.391 177.26C406.104 183.023 408.75 190.584 409.562 196.359C414.193 229.321 411.271 266.194 414.105 299.87C414.936 315.733 416.238 335.413 418.42 351.029C418.85 363.239 420.163 375.339 420.365 387.597C422.015 382.796 420.946 385.845 421.429 389.54C421.542 388.509 421.546 387.452 421.593 386.416C423.211 398.548 425.904 436.13 424.103 444.394L423.882 442.511C423.003 443.482 422.894 445.011 421.859 445.805L421.385 445.718C414.244 475.893 396.94 469.021 370.129 469.723C334.962 470.643 303.851 477.826 269.297 482.963C250.796 485.713 217.193 489.404 198.173 489.051C189.302 482.457 187.731 471.38 187.843 460.983C199.667 460.648 210.038 465.543 218.284 465.186C228.504 464.743 261.207 448.341 270.758 441.982C321.349 408.302 308.165 309.777 236.674 314.211C233.59 306.339 232.898 297.162 234.51 288.843C235.975 281.284 238.624 278.434 232.582 272.638C223.539 263.961 207.524 259.26 195.353 257.889C182.184 256.405 160.452 259.453 157.909 241.105C157.263 236.447 157.55 222.278 158.983 217.837C163.928 202.512 191.331 192.775 205.66 191.51C208.684 191.243 212.355 191.707 215.01 189.996C218.336 189.595 221.74 189.677 225.088 189.634C235.588 190.915 248.782 190.17 259.538 190.177L281.94 190.189C285.335 190.191 296.151 191.168 298.932 189.168C300.969 187.703 300.994 182.59 299.493 180.822C301.971 179.214 305.077 178.339 307.636 176.689C319.772 168.867 326.83 158.141 334.416 146.323Z"/>
	<defs>
		<linearGradient id="gradient_0" gradientUnits="userSpaceOnUse" x1="421.0575" y1="413.77509" x2="423.18713" y2="413.66928">
			<stop offset="0" stop-color="#000434"/>
			<stop offset="1" stop-color="#002187"/>
		</linearGradient>
	</defs>
	<path fill="url(#gradient_0)" transform="scale(1.6 1.6)" d="M420.365 387.597C422.015 382.796 420.946 385.845 421.429 389.54C421.542 388.509 421.546 387.452 421.593 386.416C423.211 398.548 425.904 436.13 424.103 444.394L423.882 442.511C423.003 443.482 422.894 445.011 421.859 445.805L421.385 445.718C424.926 426.549 419.971 406.863 420.365 387.597Z"/>
	<path transform="scale(1.6 1.6)" d="M374.502 354.48C377.392 353.983 380.121 356.083 379.874 359.146C379.447 364.449 332.403 380.724 322.991 379.63C319.927 378.365 314.662 375.069 317.622 371.221C319.408 368.901 328.288 369.008 331.358 368.479C345.914 365.972 361.409 356.213 374.502 354.48Z"/>
	<path transform="scale(1.6 1.6)" d="M362.518 302.861C363.845 302.7 365.103 302.563 366.176 303.54C379.375 315.554 313.797 329.784 293.048 327.965C290.027 327.829 284.138 325.685 286.306 321.532C288.343 317.63 298.009 318.571 301.562 318.402C324.595 317.303 341.68 310.45 362.518 302.861Z"/>
	<path transform="scale(1.6 1.6)" d="M360.929 257.263C365.454 256.73 369.789 261.143 366.419 265.397C363.178 269.488 353.883 269.651 349.176 270.586C318.008 276.781 284.742 287.524 254.119 290.915C250.527 290.979 245.534 286.376 247.914 282.881C249.472 280.594 284.527 275.26 289.502 274.105L360.929 257.263Z"/>
	<path transform="scale(1.6 1.6)" d="M377.186 201.339C379.577 201.236 381.091 202.564 380.74 205.084C378.688 219.848 319.747 231.845 306.496 234.402C274.207 240.631 232.391 247.074 199.259 242.618C193.958 241.524 193.886 237.3 197.088 233.837C201.827 233.139 207.044 233.813 211.833 233.935C248.084 234.86 317.089 227.364 352.043 212.691C360.377 209.193 368.235 203.101 377.186 201.339Z"/>
</svg>
