<?xml version="1.0" encoding="utf-8" ?>
<svg width="50" height="50" viewBox="0 0 900 900">
	<path transform="scale(1.6 1.6)" d="M488.053 257.089C493.215 257.821 494.394 262.327 495.463 266.748C498.528 279.435 500.122 294.805 502.507 307.916C505.729 325.633 510.595 343.045 513.823 360.755C516.4 374.892 517.286 389.32 519.436 403.521C522.723 425.218 528.23 447.033 524.474 469.107C518.721 502.914 477.745 504.223 451.098 505.476L296.56 513.482C252.771 515.608 208.426 513.983 164.834 509.515C143.265 507.305 107.581 506.275 94.2198 487.131C82.8554 470.847 90.7818 458.901 93.8816 444.131L94.2365 444.275C94.8526 446.994 94.6948 450.172 94.8785 452.968C97.9256 499.337 127.76 497.708 165.407 501.445C200.102 504.889 238.649 507.749 273.678 506.987C323.634 505.901 372.599 499.696 423 499.629C447.665 499.595 505.92 503.24 517.456 473.457C523.53 457.776 512.123 386.889 508.218 365.66C503.705 341.121 497.37 316.869 492.34 292.405C490.903 285.414 484.42 262.652 488.053 257.089Z"/>
	<path fill="#5661EE" transform="scale(1.6 1.6)" d="M93.8816 444.131C94.7887 438.044 94.1467 431.839 95.3673 425.79C106.414 371.043 140.388 318.709 145.31 265.568C147.061 246.654 147.292 216.746 173.396 213.125C198.196 209.684 234.531 215.103 260.224 215.85C279.851 216.421 299.422 215.044 319.035 215.041L377.186 215.049C387.506 215.058 397.951 215.421 408.259 215.007C402.389 224.852 395.682 235.863 388.423 244.779C379.898 243.284 370.294 244.005 361.637 244.005L160.281 243.413C160.17 277.798 152.583 301.393 141.397 332.869C128.409 369.413 106.185 423.519 114.999 460.887C115.799 461.372 116.605 461.319 117.509 461.347L117.467 461.651L117.491 462.131C120.322 464.102 165.615 469.904 170.233 469.313C189.465 471.439 209.14 472.009 228.459 472.75C237.11 473.082 246.003 474.093 254.644 473.796C268.053 476.176 297.077 474.78 311.248 474.32C346.519 473.174 381.648 469.351 416.953 468.662C424.27 468.519 431.575 468.816 438.905 468.615C481.271 468.252 475.538 475.056 476.134 436.59C476.417 418.344 478.688 400.235 476.101 382.025C472.619 357.508 463.565 332.445 461.562 308.143C460.687 297.535 460.789 286.01 461.382 275.373C461.578 271.855 463.277 263.042 461.958 260.289C464.108 255.897 474.339 239.446 477.552 235.775C488.924 243.774 486.446 255.454 488.053 257.089C484.42 262.652 490.903 285.414 492.34 292.405C497.37 316.869 503.705 341.121 508.218 365.66C512.123 386.889 523.53 457.776 517.456 473.457C505.92 503.24 447.665 499.595 423 499.629C372.599 499.696 323.634 505.901 273.678 506.987C238.649 507.749 200.102 504.889 165.407 501.445C127.76 497.708 97.9256 499.337 94.8785 452.968C94.6948 450.172 94.8526 446.994 94.2365 444.275L93.8816 444.131Z"/>
	<path fill="#15BBAB" transform="scale(1.6 1.6)" d="M464.749 133.664C464.011 124.108 479.991 103.23 486.049 96.1369C500.876 78.7789 526.043 72.0352 544.363 87.8154C565.834 106.31 490.01 218.116 477.552 235.775C474.339 239.446 464.108 255.897 461.958 260.289C463.277 263.042 461.578 271.855 461.382 275.373C460.789 286.01 460.687 297.535 461.562 308.143C463.565 332.445 472.619 357.508 476.101 382.025C478.688 400.235 476.417 418.344 476.134 436.59C475.538 475.056 481.271 468.252 438.905 468.615C431.575 468.816 424.27 468.519 416.953 468.662C381.648 469.351 346.519 473.174 311.248 474.32C297.077 474.78 268.053 476.176 254.644 473.796C246.003 474.093 237.11 473.082 228.459 472.75C209.14 472.009 189.465 471.439 170.233 469.313C165.615 469.904 120.322 464.102 117.491 462.131L117.467 461.651L117.509 461.347C116.605 461.319 115.799 461.372 114.999 460.887C106.185 423.519 128.409 369.413 141.397 332.869C152.583 301.393 160.17 277.798 160.281 243.413L361.637 244.005C370.294 244.005 379.898 243.284 388.423 244.779C395.682 235.863 402.389 224.852 408.259 215.007C411.188 211.647 413.644 207.401 416.157 203.711L441.366 166.335C446.895 158.069 452.211 146.47 460.939 141.058C463.642 138.636 464.933 137.602 464.749 133.664ZM464.749 133.664C464.933 137.602 463.642 138.636 460.939 141.058C452.211 146.47 446.895 158.069 441.366 166.335L416.157 203.711C413.644 207.401 411.188 211.647 408.259 215.007C402.389 224.852 395.682 235.863 388.423 244.779C379.898 243.284 370.294 244.005 361.637 244.005L160.281 243.413C160.17 277.798 152.583 301.393 141.397 332.869C128.409 369.413 106.185 423.519 114.999 460.887C115.799 461.372 116.605 461.319 117.509 461.347C118.732 458.306 118.288 453.59 118.356 450.308C119.801 380.097 167.833 317.897 167.109 249.735L243.355 250.121C253.868 250.159 265.222 249.409 275.66 250.895L302.635 250.935L311.092 250.932C309.257 252.702 310.514 255.923 310.973 258.089C314.995 258.963 313.553 261.423 315.773 262.028C316.873 262.328 318.106 262.156 319.238 262.459C338.089 263.143 357.897 268.987 376.193 262.279C360.626 290.071 344.465 315.183 330.822 344.688C326.393 354.267 301.921 415.484 304.607 425.067C307.833 436.577 324.902 423.704 329.981 420.655C366.857 398.513 385.926 381.242 408.473 346.027C410.629 342.659 412.646 338.655 415.123 335.559C416.667 332.949 418.14 330.246 419.871 327.756L420.403 327.833L420.732 327.678C421.2 328.197 421.401 328.891 421.675 329.524C426.819 322.767 431.907 313.211 438.442 307.843C438.521 305.112 438.231 303.036 437 300.576C438.374 295.85 457.393 267.162 461.958 260.289C464.108 255.897 474.339 239.446 477.552 235.775C490.01 218.116 565.834 106.31 544.363 87.8154C526.043 72.0352 500.876 78.7789 486.049 96.1369C479.991 103.23 464.011 124.108 464.749 133.664Z"/>
	<path fill="#A5F3FE" transform="scale(1.6 1.6)" d="M117.467 461.651C121.498 463.108 127.679 463.225 131.992 463.745L164.054 467.526C166.362 467.793 170.056 467.469 172.094 468.33L171.298 468.66C172.242 468.817 173.131 468.803 174.081 468.783L174.061 468.982C172.754 469.01 171.52 469.077 170.233 469.313C165.615 469.904 120.322 464.102 117.491 462.131L117.467 461.651Z"/>
	<path fill="#FEFEFE" transform="scale(1.6 1.6)" d="M172.094 468.33C200.447 469.634 228.794 471.821 257.159 472.853C262.036 472.682 266.989 473.331 271.876 473.458C315.069 474.589 357.963 468.639 401.132 468.642L438.905 468.615C431.575 468.816 424.27 468.519 416.953 468.662C381.648 469.351 346.519 473.174 311.248 474.32C297.077 474.78 268.053 476.176 254.644 473.796C246.003 474.093 237.11 473.082 228.459 472.75C209.14 472.009 189.465 471.439 170.233 469.313C171.52 469.077 172.754 469.01 174.061 468.982L174.081 468.783C173.131 468.803 172.242 468.817 171.298 468.66L172.094 468.33Z"/>
	<path transform="scale(1.6 1.6)" d="M441.192 349.723C442.357 381.9 415.364 426.69 385.192 439.167C363.121 448.294 292.498 453.1 267.03 450.581C232.491 447.164 199.665 421.368 186.616 389.684C166.792 341.554 185.386 300.429 220.153 266.734C223.109 263.87 226.6 259.724 230.429 258.14C232.256 259.789 233.39 261.987 234.567 264.117C229.775 267.072 225.524 271.033 221.45 274.901C186.765 307.824 172.911 358.341 199.686 400.824C212.191 420.665 233.866 436.239 256.777 441.419C279.169 446.482 368.539 441.61 391.647 426.991C415.06 412.179 423.224 390.931 431.094 365.371C433.133 358.752 434.531 352.035 437.615 345.796C439.261 346.865 440.165 348.097 441.192 349.723Z"/>
	<path fill="#FED45E" transform="scale(1.6 1.6)" d="M275.66 250.895L302.635 250.935L311.092 250.932C309.257 252.702 310.514 255.923 310.973 258.089C314.995 258.963 313.553 261.423 315.773 262.028C316.873 262.328 318.106 262.156 319.238 262.459C338.089 263.143 357.897 268.987 376.193 262.279C360.626 290.071 344.465 315.183 330.822 344.688C326.393 354.267 301.921 415.484 304.607 425.067C307.833 436.577 324.902 423.704 329.981 420.655C366.857 398.513 385.926 381.242 408.473 346.027C410.629 342.659 412.646 338.655 415.123 335.559C416.667 332.949 418.14 330.246 419.871 327.756L420.403 327.833L420.732 327.678C421.2 328.197 421.401 328.891 421.675 329.524C426.819 322.767 431.907 313.211 438.442 307.843C438.928 321.232 437.858 332.843 437.615 345.796C434.531 352.035 433.133 358.752 431.094 365.371C423.224 390.931 415.06 412.179 391.647 426.991C368.539 441.61 279.169 446.482 256.777 441.419C233.866 436.239 212.191 420.665 199.686 400.824C172.911 358.341 186.765 307.824 221.45 274.901C225.524 271.033 229.775 267.072 234.567 264.117C247.53 261.242 263.94 260.771 277.278 260.254L277.258 260.023L276.902 259.775C278.34 259.468 280.692 259.791 281.856 259.044C284.483 253.069 270.616 256.533 270.868 251.33C272.081 250.695 274.265 250.991 275.66 250.895Z"/>
	<path fill="#FEFEFE" transform="scale(1.6 1.6)" d="M419.871 327.756L420.403 327.833L420.732 327.678C421.2 328.197 421.401 328.891 421.675 329.524C420.605 331.32 417.579 338.648 415.123 335.559C416.667 332.949 418.14 330.246 419.871 327.756Z"/>
	<path fill="#FEFEFE" transform="scale(1.6 1.6)" d="M302.635 250.935L311.092 250.932C309.257 252.702 310.514 255.923 310.973 258.089C314.995 258.963 313.553 261.423 315.773 262.028C316.873 262.328 318.106 262.156 319.238 262.459L293.186 262.467C290.592 262.562 278.592 262.988 277.189 261.703L277.278 260.254L277.258 260.023C280.574 260.121 283.974 259.586 287.266 259.204C292.61 257.785 302.838 257.761 308.49 257.803C306.229 255.062 301.354 255.763 302.635 250.935Z"/>
	<defs>
		<linearGradient id="gradient_0" gradientUnits="userSpaceOnUse" x1="276.26733" y1="260.51941" x2="297.48267" y2="247.60558">
			<stop offset="0" stop-color="#0FF5EC"/>
			<stop offset="1" stop-color="#A0FFFF"/>
		</linearGradient>
	</defs>
	<path fill="url(#gradient_0)" transform="scale(1.6 1.6)" d="M275.66 250.895L302.635 250.935C301.354 255.763 306.229 255.062 308.49 257.803C302.838 257.761 292.61 257.785 287.266 259.204C283.974 259.586 280.574 260.121 277.258 260.023L276.902 259.775C278.34 259.468 280.692 259.791 281.856 259.044C284.483 253.069 270.616 256.533 270.868 251.33C272.081 250.695 274.265 250.991 275.66 250.895Z"/>
	<path transform="scale(1.6 1.6)" d="M297.471 309.817C301.34 309.64 311.433 308.637 314.089 312.038C318.985 318.308 305.516 318.028 302.912 317.847C285.28 316.626 271.27 327.496 267.761 345.031C263.517 366.246 275.413 374.05 294.592 377.758C298.306 379.863 299.053 384.769 293.753 385.149C286.163 385.694 276.212 380.736 270.575 376.013C246.102 355.511 265.221 312.29 297.471 309.817Z"/>
	<path transform="scale(1.6 1.6)" d="M298.761 283.569C302.858 283.347 335.213 285.604 329.722 294.389C326.469 299.594 313.805 292.273 309.219 291.49C273.572 285.406 221.876 319.106 233.182 360.413C238.544 380.004 256.947 391.377 273.504 400.806C278.34 403.56 292.619 407.587 288.78 414.068C282.233 418.98 185.532 371.014 241.1 308.969C255.552 292.833 277.53 284.723 298.761 283.569Z"/>
	<path transform="scale(1.6 1.6)" d="M464.749 133.664C464.011 124.108 479.991 103.23 486.049 96.1369C500.876 78.7789 526.043 72.0352 544.363 87.8154C565.834 106.31 490.01 218.116 477.552 235.775C474.339 239.446 464.108 255.897 461.958 260.289C457.393 267.162 438.374 295.85 437 300.576C438.231 303.036 438.521 305.112 438.442 307.843C431.907 313.211 426.819 322.767 421.675 329.524C421.401 328.891 421.2 328.197 420.732 327.678L420.403 327.833L419.871 327.756C418.14 330.246 416.667 332.949 415.123 335.559C412.646 338.655 410.629 342.659 408.473 346.027C385.926 381.242 366.857 398.513 329.981 420.655C324.902 423.704 307.833 436.577 304.607 425.067C301.921 415.484 326.393 354.267 330.822 344.688C344.465 315.183 360.626 290.071 376.193 262.279C357.897 268.987 338.089 263.143 319.238 262.459C318.106 262.156 316.873 262.328 315.773 262.028C313.553 261.423 314.995 258.963 310.973 258.089C310.514 255.923 309.257 252.702 311.092 250.932L302.635 250.935L275.66 250.895C265.222 249.409 253.868 250.159 243.355 250.121L167.109 249.735C167.833 317.897 119.801 380.097 118.356 450.308C118.288 453.59 118.732 458.306 117.509 461.347C116.605 461.319 115.799 461.372 114.999 460.887C106.185 423.519 128.409 369.413 141.397 332.869C152.583 301.393 160.17 277.798 160.281 243.413L361.637 244.005C370.294 244.005 379.898 243.284 388.423 244.779C395.682 235.863 402.389 224.852 408.259 215.007C411.188 211.647 413.644 207.401 416.157 203.711L441.366 166.335C446.895 158.069 452.211 146.47 460.939 141.058C463.642 138.636 464.933 137.602 464.749 133.664ZM462.926 146.425C457.741 160.278 438.613 186.487 430.131 199.052C398.678 245.646 369.158 292.926 344.249 343.418C342.804 346.347 341.5 349.413 339.868 352.24C344.907 354.224 349.902 356.397 354.556 359.186L355.543 359.887C356.661 359.517 361.087 348.439 361.923 346.691C377.079 314.968 398.748 279.951 417.669 249.48L475.986 156.317C470.089 153.356 467.605 151.043 462.926 146.425ZM481.142 158.534C443.21 224.815 397.53 286.916 364.065 355.728C358.395 367.386 358.623 361.372 366.795 370.079C371.839 361.147 375.828 351.645 380.467 342.509C395.364 313.17 413.327 284.835 431.309 257.32C443.396 238.827 455.57 220.777 465.894 201.194C472.867 187.968 479.168 174.283 488.439 162.476C486.011 161.17 483.521 159.925 481.142 158.534ZM311.092 250.932C309.257 252.702 310.514 255.923 310.973 258.089C314.995 258.963 313.553 261.423 315.773 262.028C316.873 262.328 318.106 262.156 319.238 262.459C338.089 263.143 357.897 268.987 376.193 262.279C378.562 258.503 380.852 254.611 383.596 251.093C359.471 250.502 335.228 250.961 311.092 250.932ZM437 300.576C432.047 310.019 424.423 318.133 419.871 327.756L420.403 327.833L420.732 327.678C421.2 328.197 421.401 328.891 421.675 329.524C426.819 322.767 431.907 313.211 438.442 307.843C438.521 305.112 438.231 303.036 437 300.576Z"/>
	<path fill="#B42E2D" transform="scale(1.6 1.6)" d="M464.749 133.664C465.039 135.577 464.45 136.556 466.562 136.211L467.362 136.935C466.648 138.207 465.947 139.481 465.156 140.707C463.926 140.216 462.231 140.808 460.939 141.058C463.642 138.636 464.933 137.602 464.749 133.664Z"/>
	<path fill="#5661EE" transform="scale(1.6 1.6)" d="M336.385 356.377C339.776 358.268 343.756 359.188 347.221 361.035C356.696 366.085 364.164 373.614 371.778 381.02C363.173 388.048 354.008 395.902 344.194 401.109C337.072 404.807 329.521 407.73 322.317 411.303C321.231 409.51 319.783 407.457 319.26 405.421C317.686 399.292 330.937 365.067 336.385 356.377Z"/>
	<path fill="#FC615C" transform="scale(1.6 1.6)" d="M467.362 136.935C481.662 121.066 490.182 87.7927 515.187 86.3921C523.008 85.9541 538.312 88.4962 538.707 98.7561C539.295 114.04 519.21 155.882 511.481 168.135C497.623 160.748 476.416 151.123 465.156 140.707C465.947 139.481 466.648 138.207 467.362 136.935Z"/>
	<path fill="#FC615C" transform="scale(1.6 1.6)" d="M488.439 162.476C493.357 164.167 502.172 169.296 506.746 172.221C502.237 179.529 496.617 186.226 491.895 193.438L447.625 262.484C436.965 279.443 426.442 296.604 416.305 313.882C406.43 330.716 397.394 348.37 385.32 363.791C381.502 368.667 377.344 373.226 374.039 378.487C372.548 376.845 367.426 371.836 366.795 370.079C371.839 361.147 375.828 351.645 380.467 342.509C395.364 313.17 413.327 284.835 431.309 257.32C443.396 238.827 455.57 220.777 465.894 201.194C472.867 187.968 479.168 174.283 488.439 162.476Z"/>
</svg>
