<?xml version="1.0" encoding="utf-8" ?>
<svg width="50" height="50" viewBox="0 0 900 900">
	<path transform="scale(1.6 1.6)" d="M307.883 80.1316C337.238 78.165 367.599 86.7615 395.782 93.9446C406.578 96.6963 418.412 99.0413 428.372 104.105C467.5 123.997 515.485 172.054 534.978 213.301C537.399 218.426 538.33 223.959 540.519 229.103C542.744 234.33 546.106 238.951 548.211 244.309C555.292 262.33 558.221 289.567 558.692 309C559.46 340.66 549.474 365.927 540.137 395.498C536.314 407.605 534.181 420.083 530.542 432.218C523.536 455.577 507.461 482.365 490.937 499.633C463.48 528.326 444.783 525.36 412.979 536.608C377.615 549.115 372.258 558.116 332.266 558.962C277.714 559.698 215.728 540.54 173.588 506.194C138.559 477.644 109.443 443.804 95.5322 399.797C91.8877 388.268 89.8365 376.21 87.3134 364.397C80.3423 331.76 77.8291 315.606 84.4707 282.692C105.004 180.935 163.049 116.702 262.6 88.7921C277.318 84.666 292.528 80.6681 307.883 80.1316Z"/>
	<path fill="#FE5E5C" transform="scale(1.6 1.6)" d="M397.874 535.567C396.141 536.785 394.549 538.179 392.782 539.365C363.481 559.036 305.059 550.467 272.944 544.844C248.71 540.6 233.296 537.304 211.513 525.217C198.146 517.8 176.501 504.399 166.696 492.736C165.572 491.4 162.012 488.326 165.95 489.206C176.152 494.906 184.115 496.523 194.454 500.6C207.266 514.774 249.77 512.259 268.114 512.864C290.904 513.616 314.675 514.958 337.332 512.074C340.979 511.609 344.638 510.955 348.318 510.86L348.864 510.848C366.625 520.008 371.23 532.673 397.874 535.567Z"/>
	<path fill="#FE5E5C" transform="scale(1.6 1.6)" d="M468.662 152.429C471.055 152.881 474.669 153.966 477.062 153.22C493.262 167.204 509.235 183.043 519.888 201.786C525.035 210.841 528.798 220.455 534.721 229.068C531.554 237.091 540.038 263.732 542.422 273.55C551.17 309.578 552.498 348.509 538.559 383.406C536.194 354.26 508.747 308.95 477.024 303.055C474.193 302.529 470.504 302.751 467.905 302.022L468.094 301.893C471.347 297.04 464.069 252.631 465.067 243.219C465.576 238.972 464.992 234.445 464.919 230.159C464.482 204.204 462.865 178.455 463.635 152.466L468.662 152.429Z"/>
	<path fill="#FED661" transform="scale(1.6 1.6)" d="M312.347 145.275C354.358 138.071 399.13 127.036 441.368 138.89C457.612 143.448 457.002 146.093 468.662 152.429L463.635 152.466C462.865 178.455 464.482 204.204 464.919 230.159C464.992 234.445 465.576 238.972 465.067 243.219C464.069 252.631 471.347 297.04 468.094 301.893L467.905 302.022C453.598 300.868 443.953 297.584 428.481 297.78C427.691 291.754 427.501 285.591 426.986 279.531L423.107 232.283C422.139 221.409 423.333 208.429 414.802 200.286C398.865 185.072 343.272 185.62 321.289 184.74C291.225 183.535 262.722 176.489 232.125 177.269C236.788 173.216 239.979 168.29 244.069 163.745C261.859 143.977 288.269 146.594 312.347 145.275Z"/>
	<path transform="scale(1.6 1.6)" d="M312.347 145.275C354.358 138.071 399.13 127.036 441.368 138.89C457.612 143.448 457.002 146.093 468.662 152.429L463.635 152.466C462.865 178.455 464.482 204.204 464.919 230.159C464.992 234.445 465.576 238.972 465.067 243.219C461.839 210.4 455.266 188.05 455.871 152.695C416.74 142.456 386.429 140.74 346.268 142.629C334.99 143.159 323.611 145.421 312.347 145.275Z"/>
	<path fill="#FED661" transform="scale(1.6 1.6)" d="M401.182 528.139C382.726 527.313 354.663 506.519 341.774 492.227C303.708 450.016 305.514 374.887 348.244 336.392C392.54 296.488 470.804 292.886 512.083 339.256C529.279 358.572 532.923 380.343 531.543 405.253C531.454 426.91 513.697 460.142 501.646 477.48C480.386 508.07 451.484 528.932 412.815 528.742C409.179 528.724 404.711 528.959 401.182 528.139Z"/>
	<defs>
		<linearGradient id="gradient_0" gradientUnits="userSpaceOnUse" x1="445.0195" y1="479.24091" x2="476.82986" y2="506.44403">
			<stop offset="0" stop-color="#FF9E4C"/>
			<stop offset="1" stop-color="#FF7C5F"/>
		</linearGradient>
	</defs>
	<path fill="url(#gradient_0)" transform="scale(1.6 1.6)" d="M401.182 528.139C403.895 526.258 414.471 525.684 418.182 525.065C448.906 519.946 473.098 505.515 492.455 481.598C505.433 465.564 526.273 432.243 527.018 411.446L526.54 412.192C530.78 413.508 518.94 440.144 516.37 445.273C515.211 447.588 512.132 451.799 511.841 454.123L512.293 454.638C518.644 455.581 529.876 416.445 530.721 410.101C530.948 408.401 530.659 406.809 531.543 405.253C531.454 426.91 513.697 460.142 501.646 477.48C480.386 508.07 451.484 528.932 412.815 528.742C409.179 528.724 404.711 528.959 401.182 528.139Z"/>
	<path fill="#FE5E5C" transform="scale(1.6 1.6)" d="M461.665 360.092C480.991 359.121 461.8 398.003 458.628 404.391C449.034 423.712 424.58 471.27 397.295 468.147C386.016 466.856 373.538 453.976 366.809 445.379C359.797 437.794 342.809 415.293 360.897 410.676C376.412 406.717 387.393 420.395 399.369 427.437C417.879 411.961 434.962 364.278 461.665 360.092Z"/>
	<path fill="#535EF4" transform="scale(1.6 1.6)" d="M165.95 489.206C155.065 479.219 144.44 468.599 135.688 456.678C96.2325 402.935 80.675 324.857 95.7379 259.517C115.112 175.478 185.665 108.902 270.222 92.8582C302.32 86.7682 334.397 89.0552 366.382 94.7398C419.162 104.12 437.034 114.464 477.062 153.22C474.669 153.966 471.055 152.881 468.662 152.429C457.002 146.093 457.612 143.448 441.368 138.89C399.13 127.036 354.358 138.071 312.347 145.275C288.269 146.594 261.859 143.977 244.069 163.745C239.979 168.29 236.788 173.216 232.125 177.269C218.954 179.825 194.805 169.804 183.525 184.99C177.78 192.725 179.716 203.039 180.562 211.95C182.146 228.644 182.991 244.936 182.2 261.715C181.173 283.505 180.226 300.809 183.71 322.925C186.741 342.164 190.432 358.553 190.581 378.282C190.762 402.186 187.958 426.025 187.187 449.918C186.49 471.486 186.379 480.57 194.454 500.6C184.115 496.523 176.152 494.906 165.95 489.206Z"/>
	<path fill="#10BDA9" transform="scale(1.6 1.6)" d="M215.629 184.19C247.196 182.776 274.457 188.238 304.994 191.325C327.708 193.621 397.997 191.859 411.238 207.919C416.299 214.058 415.662 235.534 416.102 243.316C417.408 266.407 417.565 278.202 414.955 301.037C384.271 307.094 347.925 324.469 329.891 350.138C311.357 376.521 306.662 410.966 312.133 442.256C316.381 465.322 326.425 478.878 338.224 498.253C320.353 504.292 257.974 497.714 238.313 495.691C216.419 493.437 202.781 497.308 199.551 471.036C196.228 444.016 201.639 406.85 201.544 377.263C201.472 354.758 197.057 332.583 196.097 310.147C194.88 281.688 199.897 253.632 198.379 225.975C197.832 216 196.721 205.833 196.99 195.84C197.317 183.719 205.711 184.851 215.629 184.19Z"/>
	<path transform="scale(1.6 1.6)" d="M274.52 404.502C277.867 403.971 282.428 407.806 279.42 410.419C275.087 414.183 242.002 413 234.852 412.706L234.243 412.634C228.51 411.983 225.03 405.778 232.473 405.237C236.52 404.942 241.652 405.869 245.966 405.904C255.529 405.981 264.999 405.306 274.52 404.502Z"/>
	<path transform="scale(1.6 1.6)" d="M263.408 358.591C274.597 358.944 292.61 356.525 301.744 363.577C295.741 367.09 282.175 365.723 274.906 365.87L236.293 366.211C236.166 364.178 235.716 361.73 236.904 359.948C240.261 358.24 258.429 358.639 263.408 358.591Z"/>
	<path transform="scale(1.6 1.6)" d="M237.326 318.792C247.687 318.133 313.311 318.48 319.256 321.449C322.189 322.914 322.749 326.64 319.141 327.173C302.312 325.04 274.464 326.583 256.551 326.578C250.362 326.576 243.038 327.129 236.999 326.147C232.842 325.472 234.959 320.337 237.326 318.792Z"/>
	<path transform="scale(1.6 1.6)" d="M231.288 273.874C255.337 271.955 287.753 275.479 311.892 277.654L370.083 282.388C373.992 282.673 378.436 282.726 382.252 283.598C386.285 284.519 385.546 288.585 382.391 289.993C341.411 290.978 298.104 282.19 256.034 281.375C247.897 281.218 239.487 281.856 231.396 281.03C227.122 280.594 228.775 275.487 231.288 273.874Z"/>
	<path transform="scale(1.6 1.6)" d="M242.833 229.196C279.426 227.515 319.483 234.732 356.695 236.326C360.366 236.483 378.132 236.509 380.342 238.157C382.674 239.897 381.67 243.357 378.828 243.878C376.75 244.259 374.032 243.888 371.897 243.853L358.245 243.732C319.594 242.573 270.988 232.849 234.201 237.085C233.502 237.165 215.375 239.594 220.822 232.779C223.63 229.264 238.348 229.451 242.833 229.196Z"/>
</svg>
