<?xml version="1.0" encoding="utf-8" ?>
<svg width="50" height="50" viewBox="0 0 900 900">
	<path transform="scale(1.6 1.6)" d="M304.406 100.486C338.077 98.5706 379.369 110.33 406.462 129.687C436.015 150.8 468.729 220.342 474.673 256.679C482.154 302.414 464.799 360.979 437.742 398.572C442.801 404.075 456.258 411.683 463.13 416.249C497.352 438.991 559.091 484.75 557.906 530.216C557.417 548.981 541.812 561.721 523.43 560.908C501.372 559.933 487.627 539.377 474.801 524.145C465.463 513.057 456.064 502.068 446.31 491.342L414.63 457.764C408.98 451.728 402.826 445.826 398 439.116C325.619 489.122 244.392 488.366 177.034 428.898C142.018 397.984 123.116 353.667 120.307 307.485C117.364 259.107 132.683 197.161 165.366 160.319C200.628 120.568 252.717 103.551 304.406 100.486ZM253.803 113.587C198.217 125.239 158.528 163.739 139.282 216.74C113.286 288.328 120.664 368.607 177.937 422.716C216.954 459.577 269.913 476.855 323.273 465.526C404.451 448.292 456.198 388.944 469.806 308.023C470.641 303.059 471.722 297.509 471.478 292.472C471.031 291.682 467.562 260.301 466.559 255.249C458.434 214.348 443.967 173.402 412.217 144.607C375.525 111.329 316.432 101.507 268.802 111.037C265.037 111.79 257.243 114.686 253.803 113.587ZM253.803 113.587C257.243 114.686 265.037 111.79 268.802 111.037C316.432 101.507 375.525 111.329 412.217 144.607C443.967 173.402 458.434 214.348 466.559 255.249C467.562 260.301 471.031 291.682 471.478 292.472C472.996 255.472 467.797 232.458 451.517 198.457C437.604 169.399 424.289 147.392 396.23 130.1C349.909 101.554 304.248 101.663 253.803 113.587Z"/>
	<path fill="#FC615C" transform="scale(1.6 1.6)" d="M437.085 399.481C439.678 400.812 442.19 403.483 444.52 405.292L482.375 434.669C509.702 455.456 557.531 498.95 551.163 534.421C548.331 550.194 532.991 556.864 518.273 554.092C498.509 548.596 479.822 519.967 466.236 504.146C447.419 482.233 423.036 455.3 402.804 435.094C422.083 421.42 423.546 422.686 437.085 399.481Z"/>
	<path fill="#5661EE" transform="scale(1.6 1.6)" d="M253.803 113.587C257.243 114.686 265.037 111.79 268.802 111.037C316.432 101.507 375.525 111.329 412.217 144.607C443.967 173.402 458.434 214.348 466.559 255.249C467.562 260.301 471.031 291.682 471.478 292.472C471.722 297.509 470.641 303.059 469.806 308.023C456.198 388.944 404.451 448.292 323.273 465.526C269.913 476.855 216.954 459.577 177.937 422.716C120.664 368.607 113.286 288.328 139.282 216.74C158.528 163.739 198.217 125.239 253.803 113.587ZM238.411 154.573C228.087 159.054 218.666 164.103 209.397 170.51L208.932 170.93C206.292 173.287 203.32 175.319 200.597 177.589C141.416 226.898 146.418 338.122 194.785 392.624C230.963 433.39 286.152 448.095 337.56 430.941C342.976 429.134 348.353 425.96 353.822 424.575C364.971 419.836 374.437 413.189 383.657 405.4C385.091 403.342 390.376 399.094 392.633 396.703C427.238 360.058 444.388 302.701 432.003 253.652C428.872 241.25 423.884 229.672 420.168 217.524C409.4 188.923 379.235 164.747 352.447 152.337C348.839 150.665 341.519 149.137 342.483 143.99C337.046 141.228 315.322 139.214 309.289 139.145C285.058 138.869 260.868 145.895 238.411 154.573ZM342.483 143.99C341.519 149.137 348.839 150.665 352.447 152.337C379.235 164.747 409.4 188.923 420.168 217.524C420.302 215.205 419.196 212.443 418.552 210.218C408.927 176.97 386.005 154.821 352.027 146.108C348.938 145.316 345.658 144.299 342.483 143.99Z"/>
	<defs>
		<linearGradient id="gradient_0" gradientUnits="userSpaceOnUse" x1="224.13626" y1="159.36378" x2="225.40421" y2="161.34407">
			<stop offset="0" stop-color="#B4A8FC"/>
			<stop offset="1" stop-color="#9486FE"/>
		</linearGradient>
	</defs>
	<path fill="url(#gradient_0)" transform="scale(1.6 1.6)" d="M209.397 170.51L209.449 169.81C211.845 165.906 233.53 152.098 238.411 154.573C228.087 159.054 218.666 164.103 209.397 170.51Z"/>
	<defs>
		<linearGradient id="gradient_1" gradientUnits="userSpaceOnUse" x1="367.80801" y1="422.19553" x2="367.81732" y2="413.11731">
			<stop offset="0" stop-color="#92C2E9"/>
			<stop offset="1" stop-color="#7F9AF2"/>
		</linearGradient>
	</defs>
	<path fill="url(#gradient_1)" transform="scale(1.6 1.6)" d="M383.657 405.4L383.857 405.993C380.999 408.23 378.368 410.667 375.418 412.802L375.792 413.201C378.835 413.138 381.576 408.182 384.639 407.132C381.69 411.161 358.523 426.906 353.822 424.575C364.971 419.836 374.437 413.189 383.657 405.4Z"/>
	<path transform="scale(1.6 1.6)" d="M238.411 154.573C260.868 145.895 285.058 138.869 309.289 139.145C315.322 139.214 337.046 141.228 342.483 143.99C341.519 149.137 348.839 150.665 352.447 152.337C379.235 164.747 409.4 188.923 420.168 217.524C423.884 229.672 428.872 241.25 432.003 253.652C444.388 302.701 427.238 360.058 392.633 396.703C390.376 399.094 385.091 403.342 383.657 405.4C374.437 413.189 364.971 419.836 353.822 424.575C348.353 425.96 342.976 429.134 337.56 430.941C286.152 448.095 230.963 433.39 194.785 392.624C146.418 338.122 141.416 226.898 200.597 177.589C203.32 175.319 206.292 173.287 208.932 170.93L209.397 170.51C218.666 164.103 228.087 159.054 238.411 154.573ZM246.895 159.542C249.84 161.218 264.896 157.788 269.169 157.433C300.931 154.797 326.261 155.279 355.498 170.848C379.042 183.385 389.479 198.317 401.902 221.496C418.757 252.942 433.265 296.786 422.398 332.541C422.022 333.777 420.983 335.862 422.708 336.329C434.402 299.569 434.906 271.283 421.708 233.698C411.682 205.147 399.506 187.695 374.42 170.483C328.492 138.971 299.92 140.936 246.895 159.542ZM185.187 207.638C176.329 217.074 169.832 247.844 168.008 260.594C162.046 302.268 174.921 358.842 202.067 391.19L202.443 390.679C202.402 388.264 195.392 377.632 193.858 374.566C171.447 329.8 166.318 267.768 182.741 220.039C183.991 216.405 185.986 212.977 187.514 209.446L185.187 207.638Z"/>
	<path fill="#15BBAB" transform="scale(1.6 1.6)" d="M246.895 159.542C249.84 161.218 264.896 157.788 269.169 157.433C300.931 154.797 326.261 155.279 355.498 170.848C379.042 183.385 389.479 198.317 401.902 221.496C418.757 252.942 433.265 296.786 422.398 332.541C422.022 333.777 420.983 335.862 422.708 336.329C419.843 347.475 408.868 368.758 402.235 378.132C392.919 391.3 376.117 403.8 362.206 412.003C316.072 439.208 249.122 438.278 209.332 399.616C206.739 397.097 203.829 394.381 202.067 391.19L202.443 390.679C202.402 388.264 195.392 377.632 193.858 374.566C171.447 329.8 166.318 267.768 182.741 220.039C183.991 216.405 185.986 212.977 187.514 209.446L185.187 207.638C200.443 185.43 219.521 166.124 246.895 159.542Z"/>
	<path transform="scale(1.6 1.6)" d="M336.579 191.403C342.172 191.312 352.533 190.524 356.985 194.455C366.135 202.535 369.522 253.986 370.968 266.773C373.157 286.129 382.093 324.735 369.123 340.157C355.904 355.874 322.793 348.278 303.252 349.165C286.547 349.924 270.491 353.797 253.921 355.277C227.086 356.407 229.05 343.079 229.055 319.769C229.061 291.965 227.746 272.912 224.624 245.011C223.896 238.497 223.999 231.634 222.78 225.218L222.67 224.654C211.592 218.279 213.892 190.417 233.382 200.436C242.706 194.561 322.423 191.705 336.579 191.403Z"/>
	<path fill="#FED45E" transform="scale(1.6 1.6)" d="M346.919 196.065C348.443 195.885 350.037 195.98 351.572 195.985C363.955 203.094 365.231 255.514 366.527 269.341C368.256 287.8 373.608 313.189 366.017 330.934C360.755 343.237 351.032 340.738 339.672 340.7C323.749 340.646 307.729 340.538 291.86 341.966C280.987 342.944 252.67 347.908 242.857 343.49C230.536 335.885 233.968 320.389 233.988 308.062C234.02 288.953 233.15 269.41 229.476 250.617C227.807 242.083 225.484 233.639 224.487 224.99C231.924 223.377 228.646 219.102 224.661 215.455C224.538 213.659 224.696 211.855 224.803 210.06C233.794 200.346 231.041 201.902 240.873 204.36C246.503 205.768 252.648 204.744 258.343 204.258L346.919 196.065Z"/>
	<path transform="scale(1.6 1.6)" d="M341.759 275.146L350.261 275.029L350.334 280.203C338.99 282.509 319.484 280.843 307.286 281.137C291.304 281.522 272.994 283.066 257.117 284.457C248.354 285.583 244.029 278.843 254.476 277.697C264.251 276.625 274.245 277.446 284.063 277.162C303.277 276.606 322.546 275.264 341.759 275.146Z"/>
	<path transform="scale(1.6 1.6)" d="M248.75 320.992C255.516 320.48 262.266 321.847 268.999 322.333C282.633 323.317 296.506 324.162 310.181 323.509C316.405 323.212 359.774 317.083 346.184 325.44C329.988 330.342 265.637 331.774 250.597 325.722C247.99 324.673 247.497 323.34 248.75 320.992Z"/>
	<path transform="scale(1.6 1.6)" d="M343.266 252.316C346.437 251.947 352.371 251.393 349.827 256.586C344.423 261.049 271.467 262.81 255.576 264.667C245.309 264.95 246.426 258.618 250.075 257.653C253.908 256.641 268.888 257.114 273.911 256.944C298.421 256.112 319.047 254.308 343.266 252.316Z"/>
	<path transform="scale(1.6 1.6)" d="M337.768 232.309C339.955 232.041 346.244 233.321 345.141 236.533C337.058 243.569 269.386 240.263 253.987 241.687C243.903 242.952 243.901 235.553 249.682 234.86C256.018 234.102 262.878 234.669 269.279 234.682C292.318 234.726 314.922 235.71 337.768 232.309Z"/>
	<path transform="scale(1.6 1.6)" d="M347.469 292.939C351.001 292.412 351.731 296.01 349.445 298.073C346.5 300.731 333.76 300.206 329.899 300.376L308.111 301.506C296.932 302.094 285.726 302.664 274.599 303.908C267.386 304.715 260.202 306.686 252.934 306.542C251.133 306.088 249.88 305.089 249.709 303.1C249.185 296.988 266.428 298.115 271.676 297.724L325.615 294.216C332.894 293.763 340.214 293.703 347.469 292.939Z"/>
</svg>
