<?xml version="1.0" encoding="utf-8" ?>
<svg width="50" height="50" viewBox="0 0 900 900">
	<path transform="scale(1.6 1.6)" d="M527.851 165.08C543.176 164.692 538.697 184.42 538.683 195.484C538.668 207.215 538.802 218.971 538.648 230.699L536.487 307.535C535.96 322.277 535.554 337.04 534.626 351.763C532.305 388.632 526.501 427.485 526.601 464.158C526.647 481.157 529.044 495.834 515.58 509.023C502.702 521.638 482.226 522.33 465.355 523.832L434.042 526.523C387.822 530.278 341.021 533.725 294.627 533.754C254.807 533.779 206.315 537.269 176.445 506.375C161.575 490.996 150.839 472.347 138.458 455.048L139.209 454.811C144.112 457.864 149.065 464.036 152.985 468.315L167 483.495C169.392 486.06 171.967 489.257 174.865 491.206C183.998 503.473 195.72 510.19 209.836 515.23C213.951 502.268 214.88 489.777 215.363 476.2L217.513 419.823C219.309 362.049 218.45 304.254 214.827 246.562C213.08 218.743 206.835 188.293 236.113 173.815C235.137 176.499 233.353 178.789 231.87 181.202C219.544 201.264 224.469 226.974 226.116 249.171C228.306 278.708 228.884 304.779 228.868 334.274C228.854 362.307 228.694 388.87 227.788 416.823L226.412 452.365C225.753 471.103 226.058 501.924 215.237 517.564C237.673 525.64 269.162 522.718 293.495 523.727C299.912 523.451 306.347 523.665 312.768 523.494C354.121 522.393 395.531 519.037 436.735 515.575C454.916 514.047 494.441 514.702 508.65 501.602C518.929 492.126 516.82 477.068 516.828 464.503C516.855 418.779 524.306 370.343 525.945 323.814C526.104 309.269 526.678 294.674 527.014 280.127L527.811 235.778C528.279 215.965 528.989 196.259 528.631 176.419C528.563 172.648 527.631 168.843 527.851 165.08Z"/>
	<path fill="#FED45E" transform="scale(1.6 1.6)" d="M172.378 173.968C195.294 168.529 219.264 172.673 238.758 168.303L237.738 171.656C237.203 172.319 236.478 173.055 236.113 173.815C206.835 188.293 213.08 218.743 214.827 246.562C218.45 304.254 219.309 362.049 217.513 419.823L215.363 476.2C214.88 489.777 213.951 502.268 209.836 515.23C195.72 510.19 183.998 503.473 174.865 491.206C174.948 489.451 171.216 482.117 170.555 479.223C165.451 456.892 166.476 433.998 166.564 411.266L168.451 239.426C168.839 217.613 169.122 195.583 172.378 173.968Z"/>
	<path fill="#FC615C" transform="scale(1.6 1.6)" d="M138.458 455.048C134.404 452.699 126.9 438.53 124.007 433.963C109.736 411.432 80.6566 370.625 79.4564 343.985C78.2831 317.943 100.807 282.246 112.811 259.515C121.188 243.651 129.089 227.54 138.211 212.082C145.526 199.687 154.204 187.711 160.552 174.807C169.901 155.801 173.056 111.268 198.734 106.507C204.831 105.377 211.566 105.702 217.751 105.916C251.519 107.087 286.799 113.703 321.138 116.508C345.427 118.492 369.198 119.5 393.548 117.301C405.767 116.198 417.927 114.377 430.206 113.955C428.718 115.237 423.523 115.288 421.405 115.776C408.078 118.85 391.85 125.658 378.914 130.586L299.245 160.078C292.596 162.499 285.912 164.774 279.503 167.797C270.391 169.167 243.197 168.191 237.738 171.656L238.758 168.303C219.264 172.673 195.294 168.529 172.378 173.968C169.122 195.583 168.839 217.613 168.451 239.426L166.564 411.266C166.476 433.998 165.451 456.892 170.555 479.223C171.216 482.117 174.948 489.451 174.865 491.206C171.967 489.257 169.392 486.06 167 483.495L152.985 468.315C149.065 464.036 144.112 457.864 139.209 454.811L138.458 455.048ZM213.955 112.942C195.758 114.555 190.309 117.735 182.593 133.616C219.873 133 257.179 133.22 294.045 139.332C313.57 142.569 314.624 143.671 333.98 136.634C346.143 132.239 358.577 127.878 370.06 121.881C349.889 124.238 315.953 121.345 294.691 119.625C272.966 117.868 234.101 110.719 213.955 112.942ZM178.946 140.945C175.832 150.732 172.979 163.805 172.378 173.968C195.294 168.529 219.264 172.673 238.758 168.303C245.571 164.513 254.84 164.412 262.344 162.392C272.113 159.763 281.423 154.558 291.463 153.014C288.902 152.699 286.308 152.934 283.734 152.958C263.312 153.155 243.026 149.061 222.815 146.606C208.283 144.841 193.268 143.958 178.946 140.945ZM85.4316 341.889C84.9754 351.111 87.9405 359.534 93.1826 367.089C99.6801 368.116 153.784 375.79 156.068 375.246C156.56 367.598 156.36 359.898 156.569 352.236C132.563 348.31 110.579 347.498 85.4316 341.889ZM96.3938 307.05C92.2571 313.756 88.9625 321.729 87.269 329.399C107.979 331.077 128.551 334.746 149.296 336.492L156.353 337.469C156.345 330.83 156.223 324.168 156.521 317.535C137.897 313.971 115.13 309.746 96.3938 307.05ZM99.6087 380.803C101.646 387.276 113.104 405.808 118.995 408.718C123.872 411.126 153.025 416.394 155.297 413.691C155.321 405.289 155.945 396.884 155.923 388.501C137.952 386.261 117.17 382.22 99.6087 380.803ZM111.596 276.195C107.665 282.066 103.058 291.051 100.533 297.606C116.215 299.713 133.177 302.226 148.773 304.771C151.66 305.195 154.453 305.707 157.257 306.523C157.443 298.625 157.22 290.705 157.535 282.815C145.834 282.372 122.361 279.955 111.596 276.195ZM132.021 238.26C127.755 245.188 120.635 257.957 118.088 265.473C127.976 266.786 137.822 268.364 147.722 269.582C151.224 270.003 154.742 270.364 158.211 271.004C158.754 261.878 158.748 252.654 159.063 243.509C149.865 242.393 140.767 241.542 132.021 238.26ZM124.578 423.361C127.68 430.749 146.706 454.835 154.503 455.946L154.977 455.155C157.843 447.016 156.066 436.353 155.35 427.859C144.249 427.32 134.628 424.171 124.578 423.361ZM162.347 188.355C157.681 196.792 141.965 219.893 141.01 224.794C141.688 225.494 142.719 225.498 143.673 225.629C149.118 226.188 154.539 226.826 159.963 227.563C160.048 218.227 163.254 195.468 162.347 188.355Z"/>
	<path fill="#15BBAB" transform="scale(1.6 1.6)" d="M430.206 113.955C439.39 112.563 458.752 110.237 467.521 110.188C470.498 111.955 472.659 114.982 472.662 118.508C476.945 117.406 479.455 118.801 481.522 122.592C481.572 135.112 478.103 146.551 477.696 158.361L477.826 159.684C479.586 160.969 491.249 160.224 494.157 160.182C498.872 159.548 503.844 159.802 508.61 159.502C514.693 159.12 524.714 155.608 526.816 161.578C527.395 162.685 527.767 163.825 527.851 165.08C527.631 168.843 528.563 172.648 528.631 176.419C528.989 196.259 528.279 215.965 527.811 235.778L527.014 280.127C526.678 294.674 526.104 309.269 525.945 323.814C524.306 370.343 516.855 418.779 516.828 464.503C516.82 477.068 518.929 492.126 508.65 501.602C494.441 514.702 454.916 514.047 436.735 515.575C395.531 519.037 354.121 522.393 312.768 523.494C306.347 523.665 299.912 523.451 293.495 523.727C269.162 522.718 237.673 525.64 215.237 517.564C226.058 501.924 225.753 471.103 226.412 452.365L227.788 416.823C228.694 388.87 228.854 362.307 228.868 334.274C228.884 304.779 228.306 278.708 226.116 249.171C224.469 226.974 219.544 201.264 231.87 181.202C233.353 178.789 235.137 176.499 236.113 173.815C236.478 173.055 237.203 172.319 237.738 171.656C243.197 168.191 270.391 169.167 279.503 167.797C285.912 164.774 292.596 162.499 299.245 160.078L378.914 130.586C391.85 125.658 408.078 118.85 421.405 115.776C423.523 115.288 428.718 115.237 430.206 113.955Z"/>
	<path transform="scale(1.6 1.6)" d="M256.348 450.18C262.85 450.09 269.511 451.104 276.041 451.352C293.038 451.998 309.768 452.416 326.781 452.576C331.2 452.618 335.744 453.602 340.145 453.357C346.639 454.239 346.869 463.12 340.162 463.783C336.54 464.14 332.681 463.807 329.043 463.729L276.44 462.437C271.52 462.353 260.351 462.25 256.104 461.066C251.05 459.658 253.541 452.515 256.348 450.18Z"/>
	<path fill="#5661EE" transform="scale(1.6 1.6)" d="M258.107 426.486C265.864 427.654 273.881 427.465 281.708 427.928C301.117 429.075 323.291 430.235 342.676 430.008C342.595 438.29 340.304 446.15 340.145 453.357C335.744 453.602 331.2 452.618 326.781 452.576C309.768 452.416 293.038 451.998 276.041 451.352C269.511 451.104 262.85 450.09 256.348 450.18C258.146 442.648 258.349 434.226 258.107 426.486Z"/>
	<path fill="#FED45E" transform="scale(1.6 1.6)" d="M297.689 263.837C300.587 261.498 305.322 261.97 308.726 262.829C315.079 270.704 348.982 315.221 347.837 324.049C347.186 329.07 339.616 331.021 335.53 331.117C327.584 330.11 308.836 296.541 304.183 288.694C300.258 295.742 296.321 302.776 292.679 309.976C286.872 321.457 284.755 337.262 270.557 328.474C263.46 321.765 270.429 311.802 274.012 305.006C280.323 293.036 290.051 274.971 297.689 263.837Z"/>
	<path fill="#5661EE" transform="scale(1.6 1.6)" d="M304.183 288.694C308.836 296.541 327.584 330.11 335.53 331.117C340.021 339.164 344.007 333.455 344.799 349.696C349.028 351.697 348.315 358.464 344.27 360.207C342.064 360.344 339.756 360.138 337.541 360.111L324.621 360.086C303.45 360.077 282.235 359.524 261.131 357.712L260.942 357.661C253.672 355.751 255.013 347.109 261.01 346.107C264.684 340.605 266.777 330.377 270.557 328.474C284.755 337.262 286.872 321.457 292.679 309.976C296.321 302.776 300.258 295.742 304.183 288.694Z"/>
	<path transform="scale(1.6 1.6)" d="M261.01 346.107C286.761 349.189 319.012 349.769 344.799 349.696C349.028 351.697 348.315 358.464 344.27 360.207C342.064 360.344 339.756 360.138 337.541 360.111L324.621 360.086C303.45 360.077 282.235 359.524 261.131 357.712L260.942 357.661C253.672 355.751 255.013 347.109 261.01 346.107Z"/>
	<path fill="#FC615C" transform="scale(1.6 1.6)" d="M300.959 235.191C312.804 219.85 322.004 197.876 341.237 190.313C354.108 185.251 366.315 193.48 359.228 204.313C355.342 210.252 348.327 213.144 343.439 218.112C334.406 227.294 327.101 238.961 319.228 249.164C315.811 253.594 311.12 257.732 308.726 262.829C305.322 261.97 300.587 261.498 297.689 263.837C295.236 260.6 292.136 257.765 289.58 254.571C282.396 245.59 243.794 198.464 265.467 188.941C277.724 183.556 297.54 227.462 300.959 235.191Z"/>
	<path fill="#5661EE" transform="scale(1.6 1.6)" d="M261.131 357.712C282.235 359.524 303.45 360.077 324.621 360.086L337.541 360.111C339.756 360.138 342.064 360.344 344.27 360.207C345.036 368.427 344.225 376.744 345.414 384.966C348.153 388.316 347.829 394.203 343.262 395.593C342.917 404.373 342.922 410.689 343.076 419.503C347.988 421.296 347.502 428.303 342.676 430.008C323.291 430.235 301.117 429.075 281.708 427.928C273.881 427.465 265.864 427.654 258.107 426.486C251.084 424.998 250.729 416.156 258.162 414.728C259.807 407.219 259.144 399.142 258.803 391.563L258.786 391.105C253.481 388.699 252.502 381.351 259.102 379.845C261.84 371.986 262.328 365.997 261.131 357.712Z"/>
	<path transform="scale(1.6 1.6)" d="M258.162 414.728C276.114 417.745 299.9 418.52 317.965 418.904C326.363 419.082 334.694 418.702 343.076 419.503C347.988 421.296 347.502 428.303 342.676 430.008C323.291 430.235 301.117 429.075 281.708 427.928C273.881 427.465 265.864 427.654 258.107 426.486C251.084 424.998 250.729 416.156 258.162 414.728Z"/>
	<path fill="#5661EE" transform="scale(1.6 1.6)" d="M261.131 357.712C282.235 359.524 303.45 360.077 324.621 360.086L337.541 360.111C339.756 360.138 342.064 360.344 344.27 360.207C345.036 368.427 344.225 376.744 345.414 384.966C348.153 388.316 347.829 394.203 343.262 395.593C339.514 396.128 335.424 395.694 331.645 395.558C307.395 394.683 282.951 393.163 258.786 391.105C253.481 388.699 252.502 381.351 259.102 379.845C261.84 371.986 262.328 365.997 261.131 357.712Z"/>
	<path transform="scale(1.6 1.6)" d="M259.102 379.845C282.888 381.938 306.839 384.269 330.735 384.608C335.558 384.677 340.633 384.35 345.414 384.966C348.153 388.316 347.829 394.203 343.262 395.593C339.514 396.128 335.424 395.694 331.645 395.558C307.395 394.683 282.951 393.163 258.786 391.105C253.481 388.699 252.502 381.351 259.102 379.845Z"/>
	<path fill="#FED45E" transform="scale(1.6 1.6)" d="M430.206 113.955C439.39 112.563 458.752 110.237 467.521 110.188C470.498 111.955 472.659 114.982 472.662 118.508C476.945 117.406 479.455 118.801 481.522 122.592C481.572 135.112 478.103 146.551 477.696 158.361L477.826 159.684C479.586 160.969 491.249 160.224 494.157 160.182C498.872 159.548 503.844 159.802 508.61 159.502C514.693 159.12 524.714 155.608 526.816 161.578C523.048 158.495 519.052 160.766 514.566 160.92C504.771 161.257 494.455 161.601 484.676 161.01C480.255 160.968 475.87 160.949 471.457 161.261L279.503 167.797C285.912 164.774 292.596 162.499 299.245 160.078L378.914 130.586C391.85 125.658 408.078 118.85 421.405 115.776C423.523 115.288 428.718 115.237 430.206 113.955Z"/>
	<path transform="scale(1.6 1.6)" d="M472.662 118.508C476.945 117.406 479.455 118.801 481.522 122.592C481.572 135.112 478.103 146.551 477.696 158.361L477.402 159.321C475.688 159.707 473.342 159.033 471.608 158.73C471.087 153.752 471.204 121.012 472.662 118.508Z"/>
	<path fill="#5661EE" transform="scale(1.6 1.6)" d="M293.495 523.727C292.27 522.876 290.72 523.202 290.688 521.35C290.483 509.319 295.223 512.047 302.325 505.588C305.252 502.926 310.748 504.681 314.424 504.804C324.408 505.137 347.101 502.899 356.656 500.093C377.444 493.99 375.038 478.557 377.434 460.301C388.095 379.064 383.978 299.644 385.267 218.489C385.414 209.274 389.335 203.885 398.93 203.42C414.14 202.682 429.471 206.22 444.683 206.557C467.849 207.069 491.008 204.715 513.575 205.375C514 211.042 513.497 216.732 514.051 222.421C515.452 236.794 516.887 247.577 517.651 262.235C518.546 279.417 519.889 299.985 522.05 316.84C522.283 318.662 522.617 326.497 525.945 323.814C524.306 370.343 516.855 418.779 516.828 464.503C516.82 477.068 518.929 492.126 508.65 501.602C494.441 514.702 454.916 514.047 436.735 515.575C395.531 519.037 354.121 522.393 312.768 523.494C306.347 523.665 299.912 523.451 293.495 523.727Z"/>
	<path fill="#FEFEFE" transform="scale(1.6 1.6)" d="M437.358 475.448C443.193 475.282 492.035 473.954 495.298 477.286L495.272 477.784C492.261 480.144 457.894 480.882 448.927 480.353C439.873 481.087 392.195 481.745 391.028 479.258L391.194 478.965C395.132 476.131 402.84 477.143 407.406 476.909L437.358 475.448Z"/>
	<path transform="scale(1.6 1.6)" d="M413.537 367.815C416.48 367.612 419.745 368.276 422.711 368.508L441.862 369.862C450.118 370.394 458.387 370.849 466.652 371.198C471.124 371.387 490.268 369.217 487.048 378.415C486.373 380.342 485.265 381.318 483.444 382.127C477.359 383.092 470.245 381.918 464.064 381.607L425.776 379.639C419.656 379.287 400.45 377.431 413.537 367.815Z"/>
	<path transform="scale(1.6 1.6)" d="M414.255 228.029C409.438 227.089 407.755 220.117 412.15 217.59C415.061 215.916 482.365 218.635 484.424 219.503C489.12 221.483 488.041 228.273 482.965 228.97C461.532 228.258 434.839 230.549 414.255 228.029Z"/>
	<path transform="scale(1.6 1.6)" d="M412.752 291.305C435.085 291.09 461.858 291.377 484.259 292.445C491.494 296.58 486.63 303.25 479.878 303.287C460.949 303.39 438.755 303.516 420.24 302.59C412.106 302.183 406.603 299.587 412.752 291.305Z"/>
	<path transform="scale(1.6 1.6)" d="M413.736 329.451C417.4 328.897 421.403 329.662 425.084 329.869L469.261 332.017C472.642 332.155 484.114 331.459 486.487 334.267C488.913 337.138 486.066 341.549 483.698 343.434C480.234 343.539 476.635 343.009 473.157 342.857L428.257 341.144C423.216 341.03 407.206 342.42 410.401 332.965C411.032 331.095 411.98 330.254 413.736 329.451Z"/>
	<path transform="scale(1.6 1.6)" d="M412.649 408.962C426.777 410.149 467.104 413.434 480.891 411.47C487.991 411.748 488.398 418.193 483.8 422.069C475.919 423.268 413.887 420.623 412.032 419.867C406.755 417.715 407.422 411.038 412.649 408.962Z"/>
	<path transform="scale(1.6 1.6)" d="M475.887 449.197C478.598 449.036 482.407 448.389 484.71 450.228C486.8 451.897 487.184 456.819 485.216 458.68C481.802 461.907 432.732 460.562 419.453 461.231C403.861 461.768 406.619 450.965 413.419 450.088C430.202 447.926 457.433 450.064 475.887 449.197Z"/>
	<path fill="#15BBAB" transform="scale(1.6 1.6)" d="M414.978 264.94C420.991 264.528 429.603 265.318 436.036 265.309L463.273 265.271C470.178 265.27 477.059 265.166 483.947 265.753C481.502 274.445 484.587 283.685 484.259 292.445C461.858 291.377 435.085 291.09 412.752 291.305C414.59 282.495 413.982 273.786 414.978 264.94Z"/>
	<path fill="#15BBAB" transform="scale(1.6 1.6)" d="M414.255 228.029C434.839 230.549 461.532 228.258 482.965 228.97C482.371 236.514 481.926 247.666 483.548 254.914C488.802 256.718 489.329 263.507 483.947 265.753C477.059 265.166 470.178 265.27 463.273 265.271L436.036 265.309C429.603 265.318 420.991 264.528 414.978 264.94C409.359 263.474 408.267 257.751 412.683 253.785C414.257 244.864 413.56 236.846 414.255 228.029Z"/>
	<path transform="scale(1.6 1.6)" d="M412.683 253.785L454.617 254.618C464.268 254.754 473.896 254.661 483.548 254.914C488.802 256.718 489.329 263.507 483.947 265.753C477.059 265.166 470.178 265.27 463.273 265.271L436.036 265.309C429.603 265.318 420.991 264.528 414.978 264.94C409.359 263.474 408.267 257.751 412.683 253.785Z"/>
</svg>
