<?xml version="1.0" encoding="utf-8" ?>
<svg width="30" height="30" viewBox="0 0 900 900">
	<path transform="scale(1.6 1.6)" d="M143.928 456.735C114.738 431.544 94.9952 388.875 85.4703 352.421C82.6983 341.811 83.5968 341.806 82.5062 332.821C77.4031 290.78 82.8083 256.293 100.219 217.333C130.831 148.831 195.715 97.1262 269.386 82.6725C344.505 67.9349 391.479 97.8151 449.321 136.712C454.297 132.91 458.406 127.894 463.36 123.955C473.648 115.774 503.537 96.5261 516.134 93.6059C512.065 95.8012 508.623 99.0108 504.694 101.446C482.873 114.972 471.493 122.909 451.781 138.656C456.729 142.312 461.447 146.256 466.462 149.827C471.763 144.736 477.344 140.019 482.997 135.329C486.29 132.806 503.497 119.383 506.3 119.637L506.489 120.106C505.169 123.602 474.899 146.413 468.786 151.564C475.416 157.22 481.876 163.017 488.37 168.824C502.413 158.806 522.417 139.593 531.798 126.122C532.679 124.855 533.705 122.5 535.014 121.761L535.37 122.219C536.045 134.085 503.872 163.762 491.89 171.926C502.162 183.515 507.733 191.679 516.489 204.46C538.273 236.262 550.179 261.336 554.911 300.027C559.44 337.064 553.795 382.163 538.034 416.201C520.019 455.107 484.626 494.607 447.735 517.404C387.88 554.39 301.567 561.018 240.207 525.312C223.662 515.684 209.395 502.495 192.825 493.068C188.904 490.838 184.77 489.485 180.713 487.598C164.954 503.036 137.728 537.52 114.323 532.301C111.615 531.697 110.159 530.364 108.762 528.051C109.019 526.159 109.564 522.471 111.091 521.243C115.162 509.891 140.482 492.478 150.322 483.746C154.157 480.343 157.358 475.706 161.542 472.815C157.256 467.834 152 462.963 146.661 459.128C142.298 461.286 127.818 473.748 124.613 473.289L124.559 472.783C126.841 468.212 139.212 459.936 143.928 456.735ZM262.763 348.98C240.654 372.896 219.091 397.354 196.526 420.839L186.417 429.541C184.294 431.336 181.861 433.136 179.998 435.198C179.044 436.006 178.032 436.786 177.205 437.727C169.553 443.632 162.694 450.866 155.798 457.624C157.055 458.751 158.299 459.883 159.63 460.923C171.639 473.685 177.439 480.597 194.359 487.117C194.721 486.523 195 485.885 195.301 485.258C194.387 472.474 215.568 457.201 223.591 449.616C233.247 440.486 246.536 425.949 255.204 415.419C258.056 413.438 264.639 405.308 267.414 402.234C274.674 395.452 286.046 383.841 292.261 375.896C292.715 374.479 293.327 373.86 294.371 372.805C292.956 371.332 291.683 370.294 289.797 369.494C291.287 365.484 291.065 361.254 291.39 357.03C280.587 346.742 273.01 353.075 263.646 351.775C263.47 350.992 263.3 350.229 262.985 349.488L262.763 348.98ZM111.091 521.243C110.929 522.221 110.332 523.344 109.969 524.281C111.138 525.361 112.393 526.332 113.639 527.319C134.735 531.35 162.308 501.478 177.38 486.233C174.016 482.99 170.214 483.225 166.945 478.287C162.507 482.291 156.86 485.435 151.918 488.806C142.034 495.546 117.626 512.743 111.091 521.243Z"/>
	<path fill="#3FE1EB" transform="scale(1.6 1.6)" d="M291.035 204.313C297.731 203.201 304.25 202.474 311.052 202.53C309.995 203.954 299.918 207.509 297.736 208.573C298.104 207.795 298.756 207.475 299.453 207.022L299.798 206.8C297.574 205.886 294.839 205.288 292.506 206.08L291.035 204.313Z"/>
	<path fill="#A8F5FB" transform="scale(1.6 1.6)" d="M338.232 202.448L363.396 205.118C364.015 206.823 362.817 206.816 361.408 207.162C355.85 207.124 350.245 206.938 344.696 207.29C344.993 203.012 338.945 204.33 336.179 204.425C337.595 203.953 337.834 203.894 338.232 202.448Z"/>
	<path fill="#FEFEFE" transform="scale(1.6 1.6)" d="M273.301 207.731C278.773 205.749 285.306 205.429 291.035 204.313L292.506 206.08C281.042 208.083 265.007 215.862 255.738 216.785C240.274 222.256 224.218 227.054 209.515 234.399C208.51 234.901 207.095 235.981 206.008 235.511C217.347 225.607 256.451 209.632 273.301 207.731Z"/>
	<path fill="#15BBAB" transform="scale(1.6 1.6)" d="M197.649 370.18C201.111 372.279 214.612 385.246 220.319 389.421C217.105 393.177 213.596 396.728 210.218 400.339C207.017 403.916 203.461 407.224 200.111 410.668C198.502 397.147 196.998 383.807 197.649 370.18Z"/>
	<defs>
		<linearGradient id="gradient_0" gradientUnits="userSpaceOnUse" x1="444.22134" y1="224.6644" x2="457.50653" y2="165.05811">
			<stop offset="0" stop-color="#FFD2C0"/>
			<stop offset="1" stop-color="#FFF8FF"/>
		</linearGradient>
	</defs>
	<path fill="url(#gradient_0)" transform="scale(1.6 1.6)" d="M476.195 167.859C478.101 169.405 480.093 170.91 481.813 172.664C458.267 192.987 434.842 213.872 413.592 236.612C411.971 238.348 410.267 240.58 408.39 242L408.087 241.675C408.998 239.752 424.575 224.285 427.363 221.509L427.36 221.099C425.362 220.71 423.648 219.591 422.023 218.428C419.221 221.695 402.646 238.387 400.348 238.944C418.097 220.412 441.054 198.458 460.481 182.049C465.779 177.574 471.748 173.205 476.195 167.859Z"/>
	<path fill="#FED45E" transform="scale(1.6 1.6)" d="M422.023 218.428C423.648 219.591 425.362 220.71 427.36 221.099L427.363 221.509C424.575 224.285 408.998 239.752 408.087 241.675L408.39 242C379.198 274.746 351.515 309.179 322.306 342.298L301.493 365.659C298.491 368.995 295.577 372.902 292.261 375.896C292.715 374.479 293.327 373.86 294.371 372.805C292.956 371.332 291.683 370.294 289.797 369.494C291.287 365.484 291.065 361.254 291.39 357.03C280.587 346.742 273.01 353.075 263.646 351.775C263.47 350.992 263.3 350.229 262.985 349.488L262.763 348.98C268.285 343.01 274.152 337.345 280.295 332.018C284.387 332.402 289.386 329.394 293.188 328.067C307.867 322.942 311.839 324.938 321.787 313.428C336.235 296.713 353.251 282.845 369.385 267.821L386.836 251.46C391.173 247.318 395.372 242.934 400.052 239.178L400.348 238.944C402.646 238.387 419.221 221.695 422.023 218.428Z"/>
	<path fill="#15BBAB" transform="scale(1.6 1.6)" d="M426.596 231.825C449.368 248.972 465.933 268.775 435.951 289.186C417.191 301.957 394.964 309.797 372.881 314.456C365.333 315.867 357.743 317.026 350.187 318.397L394.464 266.908C404.945 254.915 415.269 243.049 426.596 231.825Z"/>
	<path fill="#15BBAB" transform="scale(1.6 1.6)" d="M191.588 287.822C215.728 305.017 243.615 325.774 274.619 326.483C267.77 331.978 262.123 339.297 256.582 346.051L245.056 359.939C238.273 368.102 229.157 378.846 223.034 387.21C219.715 381.319 208.566 373.403 203.122 367.08C195.987 358.794 196.238 347.097 193.99 336.826C189.886 318.08 185.601 307.325 191.588 287.822Z"/>
	<path fill="#FC615C" transform="scale(1.6 1.6)" d="M455.429 151.088C462.002 157.081 469.534 161.957 476.195 167.859C471.748 173.205 465.779 177.574 460.481 182.049C441.054 198.458 418.097 220.412 400.348 238.944L400.052 239.178C395.372 242.934 391.173 247.318 386.836 251.46L369.385 267.821C353.251 282.845 336.235 296.713 321.787 313.428C311.839 324.938 307.867 322.942 293.188 328.067C289.386 329.394 284.387 332.402 280.295 332.018C292.15 320.869 302.485 308.432 313.913 296.875C340.94 269.541 368.246 243.457 394.835 215.461C398.951 211.128 402.664 206.427 406.809 202.112C420.24 188.131 445.472 166.872 455.429 151.088Z"/>
	<path fill="#FC615C" transform="scale(1.6 1.6)" d="M262.763 348.98L262.985 349.488C263.3 350.229 263.47 350.992 263.646 351.775C273.01 353.075 280.587 346.742 291.39 357.03C291.065 361.254 291.287 365.484 289.797 369.494C291.683 370.294 292.956 371.332 294.371 372.805C293.327 373.86 292.715 374.479 292.261 375.896C286.046 383.841 274.674 395.452 267.414 402.234C264.639 405.308 258.056 413.438 255.204 415.419C246.536 425.949 233.247 440.486 223.591 449.616C215.568 457.201 194.387 472.474 195.301 485.258C195 485.885 194.721 486.523 194.359 487.117C177.439 480.597 171.639 473.685 159.63 460.923C158.299 459.883 157.055 458.751 155.798 457.624C162.694 450.866 169.553 443.632 177.205 437.727C178.032 436.786 179.044 436.006 179.998 435.198C181.861 433.136 184.294 431.336 186.417 429.541L196.526 420.839C219.091 397.354 240.654 372.896 262.763 348.98ZM177.205 437.727C169.553 443.632 162.694 450.866 155.798 457.624C157.055 458.751 158.299 459.883 159.63 460.923C165.569 456.673 178.642 445.064 183.786 439.904C184.206 438.863 187.186 436.483 186.698 435.82C185.81 434.613 185.395 434.566 185.443 432.987L185.111 432.732C181.889 435.972 181.415 436.112 177.205 437.727Z"/>
	<defs>
		<linearGradient id="gradient_1" gradientUnits="userSpaceOnUse" x1="197.65724" y1="423.2998" x2="189.17117" y2="431.98123">
			<stop offset="0" stop-color="#FFC7BE"/>
			<stop offset="1" stop-color="#FFDDCD"/>
		</linearGradient>
	</defs>
	<path fill="url(#gradient_1)" transform="scale(1.6 1.6)" d="M196.526 420.839C198.279 420.744 200.066 419.964 201.797 420.2L202.074 420.487C201.708 421.502 200.856 422.841 200.029 423.539C195.534 429.616 190.082 435.619 183.786 439.904C184.206 438.863 187.186 436.483 186.698 435.82C185.81 434.613 185.395 434.566 185.443 432.987L185.111 432.732C181.889 435.972 181.415 436.112 177.205 437.727C178.032 436.786 179.044 436.006 179.998 435.198C181.861 433.136 184.294 431.336 186.417 429.541L196.526 420.839Z"/>
	<path fill="#FFAD98" transform="scale(1.6 1.6)" d="M196.526 420.839C198.279 420.744 200.066 419.964 201.797 420.2L202.074 420.487C201.708 421.502 200.856 422.841 200.029 423.539C190.844 423.595 187.434 433.827 179.998 435.198C181.861 433.136 184.294 431.336 186.417 429.541L196.526 420.839Z"/>
	<defs>
		<linearGradient id="gradient_2" gradientUnits="userSpaceOnUse" x1="252.38194" y1="397.64264" x2="260.71954" y2="408.95541">
			<stop offset="0" stop-color="#FFFFB5"/>
			<stop offset="1" stop-color="#FFDBEC"/>
		</linearGradient>
	</defs>
	<path fill="url(#gradient_2)" transform="scale(1.6 1.6)" d="M289.797 369.494C291.683 370.294 292.956 371.332 294.371 372.805C293.327 373.86 292.715 374.479 292.261 375.896C286.046 383.841 274.674 395.452 267.414 402.234C264.639 405.308 258.056 413.438 255.204 415.419L254.718 415.233C255.318 414.486 259.444 411.16 256.583 411.522C254.732 413.351 252.723 415.499 250.298 416.495C237.84 426.845 231.453 431.968 216.897 439.064C238.893 416.804 273.457 397.101 289.797 369.494Z"/>
	<path fill="#FFAD98" transform="scale(1.6 1.6)" d="M250.298 416.495C253.007 413.169 263.521 403.728 267.414 402.234C264.639 405.308 258.056 413.438 255.204 415.419L254.718 415.233C255.318 414.486 259.444 411.16 256.583 411.522C254.732 413.351 252.723 415.499 250.298 416.495Z"/>
	<path fill="#15BBAB" transform="scale(1.6 1.6)" d="M453.602 284.603C454.382 288.678 454.148 293.108 454.686 297.252C457.279 317.216 463.512 335.746 448.89 353.051C420.772 386.328 352.914 399.285 309.45 399.794C300.572 399.898 291.606 399.455 282.755 400.195L277.545 400.208C291.414 385.923 304.636 370.959 317.339 355.628C324.786 346.64 333.23 334.12 341.792 326.413C350.064 324.808 358.595 324.376 366.932 323.001C397.41 317.974 433.221 309.271 453.602 284.603Z"/>
	<path fill="#15BBAB" transform="scale(1.6 1.6)" d="M324.022 201.804C328.567 200.96 333.669 201.896 338.232 202.448C337.834 203.894 337.595 203.953 336.179 204.425C338.945 204.33 344.993 203.012 344.696 207.29C350.245 206.938 355.85 207.124 361.408 207.162C362.817 206.816 364.015 206.823 363.396 205.118L371.842 206.054C378.32 206.715 384.678 207.915 391.081 209.076C377.695 223.511 360.225 241.581 345.752 254.905C340.204 260.013 333.921 264.293 328.278 269.299C313.727 282.208 287.979 307.831 277.555 322.721C273.261 321.432 268.862 320.616 264.522 319.508C241.874 313.728 203.834 297.173 193.162 277.243C185.823 263.536 193.217 242.685 206.008 235.511C207.095 235.981 208.51 234.901 209.515 234.399C224.218 227.054 240.274 222.256 255.738 216.785C265.007 215.862 281.042 208.083 292.506 206.08C294.839 205.288 297.574 205.886 299.798 206.8L299.453 207.022C298.756 207.475 298.104 207.795 297.736 208.573C299.918 207.509 309.995 203.954 311.052 202.53C315.365 202.195 319.702 202.032 324.022 201.804Z"/>
	<path fill="#3FE1EB" transform="scale(1.6 1.6)" d="M363.396 205.118L371.842 206.054L371.542 206.932C369.01 207.899 364.242 207.228 361.408 207.162C362.817 206.816 364.015 206.823 363.396 205.118Z"/>
	<path fill="#FEFEFE" transform="scale(1.6 1.6)" d="M272.651 268.468L273.12 268.475L273.027 268.89C266.559 273.85 251.737 281.576 244.516 285.031C243.769 284.99 243.648 284.639 244.012 284.02C246.969 278.975 267.039 269.963 272.651 268.468Z"/>
	<path fill="#FEFEFE" transform="scale(1.6 1.6)" d="M355.245 222.198L355.495 222.615C351.866 228.708 322.893 243.848 315.739 246.594L315.52 246.405L315.62 245.956C324.64 236.478 343.227 227.622 355.245 222.198Z"/>
	<path fill="#FEFEFE" transform="scale(1.6 1.6)" d="M264.366 228.747L264.616 229.024C261.896 235.693 210.33 267.639 203.7 270.949L203.44 270.661C204.445 263.398 255.224 234.462 264.366 228.747Z"/>
	<path fill="#FEFEFE" transform="scale(1.6 1.6)" d="M311.052 202.53C315.365 202.195 319.702 202.032 324.022 201.804C323.122 202.979 311.103 207.78 308.741 208.962C294.891 215.898 279.939 226.589 265.664 231.783C275.745 223.209 286.33 215.312 297.736 208.573C299.918 207.509 309.995 203.954 311.052 202.53Z"/>
	<path fill="#FEFEFE" transform="scale(1.6 1.6)" d="M336.179 204.425C338.945 204.33 344.993 203.012 344.696 207.29C337.523 208.853 318.139 222.23 310.171 226.638C295.545 234.73 279.834 240.432 264.95 247.972C254.283 253.376 244.459 261.216 233.214 265.304C245.284 249.152 282.509 236.89 300.229 227.024C307.791 222.813 330.849 205.69 336.179 204.425Z"/>
	<path fill="#15BBAB" transform="scale(1.6 1.6)" d="M460.778 348.351C461.452 352.129 460.82 356.628 460.992 360.519C461.801 378.875 465.825 403.128 454.938 419.381C452.069 423.664 444.669 429.477 452.855 429.409C418.792 468.94 324.692 480.914 277.284 476.082C262.111 474.535 247.127 471.083 232.576 466.597C228.016 465.152 223.575 463.229 218.943 462.04C237.374 445.457 255.856 422.983 273.239 404.689C281.963 407.809 312.238 406.892 322.557 406.279C360.697 404.015 443.458 387.24 460.778 348.351Z"/>
	<path fill="#FC615C" transform="scale(1.6 1.6)" d="M485.79 176.48C495.859 188.971 503.104 203.428 512.999 216.119L514.096 217.806C517.154 221.388 520.482 225.853 522.14 230.296C523.145 232.091 524.11 233.927 525.172 235.688C527.375 238.9 528.931 242.338 530.517 245.877L531.132 247.456C537.865 260.538 541.271 276.212 544.174 290.557C544.536 292.124 544.793 293.946 545.365 295.433C546.752 301.587 547.473 308.1 547.803 314.396L547.272 313.459C545.565 313.556 543.658 316.415 542.427 317.57C545.161 321.031 540.229 324.131 538.61 326.723C539.046 330.449 537.988 334.993 537.059 338.62L532.375 343.904C534.882 343.828 537.004 343.519 538.452 345.851L538.416 346.234C538.363 346.839 538.379 346.611 538.382 347.298C539.827 350.927 537.908 355.135 536.338 358.446L536.881 359.053C536.105 360.164 534.956 360.885 534.236 362.027L534.395 362.568L533.551 363.918C535.705 365.339 543.136 362.184 537.617 367.433C535.124 369.804 529.943 372.927 528.081 375.429L528.607 375.828C528.699 379.052 520.797 388.281 518.728 391.352L519.171 391.91C518.068 396.296 508.853 405.21 505.257 408.296C504.57 411.117 502.28 413.687 500.961 416.255C490.455 431.473 471.273 442.979 455.697 452.394C452.488 454.145 449.306 455.953 445.956 457.422C442.553 458.542 432.655 462.662 429.273 461.881C428.904 460.24 428.377 458.71 427.807 457.132C429.271 456.359 430.704 455.498 432.145 454.683L432.09 454.229C433.967 452.432 437.187 450.973 439.416 449.528C476.326 425.615 469.522 397.225 466.632 356.603C465.971 347.309 466.372 337.962 465.542 328.659C464.54 317.426 462.265 306.385 461.196 295.183C459.884 281.454 463.178 264.82 456.091 252.298C451.161 243.588 439.029 232.971 430.751 227.192C449.957 211.147 466.997 192.072 485.79 176.48Z"/>
	<path fill="#FEFEFE" transform="scale(1.6 1.6)" d="M491.157 324.419L491.773 324.467L491.701 325.03C488.652 329.42 472.527 339.669 467.295 341.915C467.123 341.954 466.942 341.897 466.767 341.875C468.062 339.244 487.913 325.746 491.157 324.419Z"/>
	<path fill="#FEFEFE" transform="scale(1.6 1.6)" d="M542.427 317.57C545.161 321.031 540.229 324.131 538.61 326.723C533.521 329.265 528.783 332.606 523.439 334.58C529.174 328.523 536.218 323.177 542.427 317.57Z"/>
	<defs>
		<linearGradient id="gradient_3" gradientUnits="userSpaceOnUse" x1="489.44955" y1="229.15448" x2="513.98792" y2="220.53302">
			<stop offset="0" stop-color="#FFBFC0"/>
			<stop offset="1" stop-color="#FFE4E4"/>
		</linearGradient>
	</defs>
	<path fill="url(#gradient_3)" transform="scale(1.6 1.6)" d="M512.999 216.119L514.096 217.806L513.884 219.157C510.946 222.547 490.527 233.831 485.942 235.603C493.429 229.123 504.762 222.168 512.999 216.119Z"/>
	<path fill="#FEEB9D" transform="scale(1.6 1.6)" d="M532.375 343.904C534.882 343.828 537.004 343.519 538.452 345.851L538.416 346.234C538.363 346.839 538.379 346.611 538.382 347.298C534.539 350.263 511.74 360.674 506.622 362.165C515.512 355.212 522.231 353.482 532.375 343.904Z"/>
	<path fill="#FEFEFE" transform="scale(1.6 1.6)" d="M517.524 311.731C523.406 307.07 529.715 302.975 535.572 298.231C538.533 295.832 541.007 292.658 544.174 290.557C544.536 292.124 544.793 293.946 545.365 295.433C538.56 302.528 526.76 308.864 517.524 311.731Z"/>
	<path fill="#FEFEFE" transform="scale(1.6 1.6)" d="M518.728 391.352L519.171 391.91C518.068 396.296 508.853 405.21 505.257 408.296C497.642 411.578 489.947 416.469 481.73 417.992L482.154 417.609C485.957 414.108 490.931 412.828 495.207 410.055C502.636 405.238 512.079 397.424 518.728 391.352Z"/>
	<defs>
		<linearGradient id="gradient_4" gradientUnits="userSpaceOnUse" x1="526.534" y1="362.33783" x2="521.9035" y2="386.41217">
			<stop offset="0" stop-color="#FFE292"/>
			<stop offset="1" stop-color="#FFFFD1"/>
		</linearGradient>
	</defs>
	<path fill="url(#gradient_4)" transform="scale(1.6 1.6)" d="M534.236 362.027L534.395 362.568L533.551 363.918C535.705 365.339 543.136 362.184 537.617 367.433C535.124 369.804 529.943 372.927 528.081 375.429C521.359 379.686 514.097 383.515 506.533 385.996C516.901 377.245 524.474 373.687 534.236 362.027Z"/>
	<path fill="#FEFEFE" transform="scale(1.6 1.6)" d="M497.252 273.238C502.878 265.012 520.897 251.454 530.517 245.877L531.132 247.456C530.984 248.807 531.332 250.129 531.58 251.453C523.324 256.651 504.308 269.98 497.252 273.238Z"/>
	<path fill="#FEFEFE" transform="scale(1.6 1.6)" d="M522.14 230.296C523.145 232.091 524.11 233.927 525.172 235.688C520.666 240.647 493.295 261.673 491.117 261.132L491.389 261.014L491.115 260.855C496.248 251.619 514.541 240.905 522.14 230.296Z"/>
	<path fill="#FED45E" transform="scale(1.6 1.6)" d="M542.427 317.57C543.658 316.415 545.565 313.556 547.272 313.459L547.803 314.396C551.024 392.584 529.069 445.229 465.943 495.977C397.123 551.303 303.03 558.79 228.631 509.933C218.4 503.215 204.862 492.245 194.359 487.117C194.721 486.523 195 485.885 195.301 485.258C202.673 480.913 208.329 473.313 214.417 467.377C218.443 469.695 222.86 471.24 227.252 472.704C291.805 494.23 371.412 484.473 432.09 454.229L432.145 454.683C430.704 455.498 429.271 456.359 427.807 457.132C428.377 458.71 428.904 460.24 429.273 461.881C432.655 462.662 442.553 458.542 445.956 457.422C449.306 455.953 452.488 454.145 455.697 452.394C471.273 442.979 490.455 431.473 500.961 416.255C502.28 413.687 504.57 411.117 505.257 408.296C508.853 405.21 518.068 396.296 519.171 391.91L518.728 391.352C520.797 388.281 528.699 379.052 528.607 375.828L528.081 375.429C529.943 372.927 535.124 369.804 537.617 367.433C543.136 362.184 535.705 365.339 533.551 363.918L534.395 362.568L534.236 362.027C534.956 360.885 536.105 360.164 536.881 359.053L536.338 358.446C537.908 355.135 539.827 350.927 538.382 347.298C538.379 346.611 538.363 346.839 538.416 346.234L538.452 345.851C537.004 343.519 534.882 343.828 532.375 343.904L537.059 338.62C537.988 334.993 539.046 330.449 538.61 326.723C540.229 324.131 545.161 321.031 542.427 317.57Z"/>
	<path fill="#FEEB9D" transform="scale(1.6 1.6)" d="M445.956 457.422C449.306 455.953 452.488 454.145 455.697 452.394C456.273 453.246 456.777 454.462 457.756 454.765L458.295 454.466C459.162 453.991 460.054 453.652 460.995 453.349C457.108 456.114 453.007 458.23 448.69 460.224L448.754 460.979L447.895 460.506C449.292 457.599 454.746 460.226 451.975 455.112C450.256 456.027 447.965 457.687 445.956 457.422Z"/>
	<path fill="#FEFEFE" transform="scale(1.6 1.6)" d="M468.998 460.022C471.473 464.84 436.422 484.877 429.801 487.788C428.698 486.632 434.983 483.259 435.924 482.603L455.088 469.407C458.841 466.83 464.867 461.207 468.998 460.022Z"/>
	<defs>
		<linearGradient id="gradient_5" gradientUnits="userSpaceOnUse" x1="474.77963" y1="433.99359" x2="481.00809" y2="440.22986">
			<stop offset="0" stop-color="#FFEBBA"/>
			<stop offset="1" stop-color="white"/>
		</linearGradient>
	</defs>
	<path fill="url(#gradient_5)" transform="scale(1.6 1.6)" d="M500.961 416.255C508.579 422.373 467.608 448.68 460.995 453.349C460.054 453.652 459.162 453.991 458.295 454.466L457.756 454.765C456.777 454.462 456.273 453.246 455.697 452.394C471.273 442.979 490.455 431.473 500.961 416.255Z"/>
	<path fill="#5661EE" transform="scale(1.6 1.6)" d="M105.56 219.981C108.555 213.042 112.329 206.363 116.024 199.771C154.355 131.389 224.451 84.7836 303.6 84.9668C362.854 85.1039 404.791 112.486 450.279 147.313C444.51 154.018 439.018 161.832 431.863 167.146C425.904 167.566 415.415 170.983 426.83 174.121C419.41 182.738 404.415 196.3 395.107 204.227C385.544 201.733 375.158 200.994 365.33 199.865C319.65 194.619 282.785 196.678 238.587 213.384C214.015 222.673 176.377 239.457 183.993 272.57C185.684 279.919 184.553 280.404 183.785 287.636C182.371 300.951 181.062 315.158 183.586 328.432C185.275 337.315 188.123 345.875 189.09 354.906C189.938 362.817 188.423 370.241 188.405 378.087C188.385 386.809 191.495 405.262 193.663 414.446C179.26 427.581 164.731 438.707 150.571 452.9C143.708 447.122 127.411 431.093 123.982 423.178C122.717 421.489 121.591 419.706 120.444 417.935C119.01 415.991 117.791 413.808 116.79 411.612C115.045 409.136 113.761 406.385 112.45 403.666C104.471 391.622 94.1835 359.148 91.0479 343.653C84.8605 313.077 89.4329 264.902 99.8469 235.024C101.499 229.861 103.309 224.917 105.56 219.981Z"/>
	<path fill="#FEFEFE" transform="scale(1.6 1.6)" d="M133.416 238.762C134.923 242.072 116.16 257.365 112.597 259.026L112.479 258.967C112.534 258.736 131.434 240.559 133.416 238.762Z"/>
	<path fill="#FEFEFE" transform="scale(1.6 1.6)" d="M146.353 401.933C138.199 410.307 130.729 412.682 123.982 423.178C122.717 421.489 121.591 419.706 120.444 417.935C124.705 419.533 140.817 404.808 146.353 401.933Z"/>
	<path fill="#C8BEFE" transform="scale(1.6 1.6)" d="M105.56 219.981C109.121 223.083 104.484 225.367 111.935 227.004C110.052 229.474 102.802 234.068 99.8469 235.024C101.499 229.861 103.309 224.917 105.56 219.981Z"/>
	<path fill="#FEFEFE" transform="scale(1.6 1.6)" d="M132.05 278.707L132.524 278.816L132.543 279.309C128.487 284.716 113.637 297.568 107.526 300.372L107.07 300.048C108.075 296.097 127.704 281.083 132.05 278.707Z"/>
	<path fill="#FEFEFE" transform="scale(1.6 1.6)" d="M415.672 145.578L416.052 145.747C413.739 150.846 385.983 165.788 378.919 170.027L378.515 169.819C380.132 166.695 410.782 147.981 415.672 145.578Z"/>
	<path fill="#FEFEFE" transform="scale(1.6 1.6)" d="M112.45 403.666C121.146 401.857 131.744 391.877 140.668 388.169C134.806 397.621 122.103 401.575 116.79 411.612C115.045 409.136 113.761 406.385 112.45 403.666Z"/>
	<path fill="#FEFEFE" transform="scale(1.6 1.6)" d="M408.449 129.723L408.364 130.228C403.835 134.891 372.114 159.222 367.359 160.728L367.352 160.12C372.64 151.685 398.995 134.213 408.449 129.723Z"/>
	<path fill="#FEFEFE" transform="scale(1.6 1.6)" d="M264.264 106.26L264.514 106.693C262.586 110.041 246.028 117.446 241.555 120.113C210.201 138.81 168.139 176.314 140.913 201.093C137.576 204.13 134.462 207.405 130.975 210.275L130.876 210.208C132.258 205.227 155.642 183.732 159.983 179.747C180.504 160.911 206.832 138.737 230.543 123.539C241.174 116.724 252.948 111.809 264.264 106.26Z"/>
</svg>
