<?xml version="1.0" encoding="utf-8" ?>
<svg width="50" height="50" viewBox="0 0 900 900">
	<path transform="scale(1.6 1.6)" d="M201.393 140.664L200.548 139.82C204.752 138.176 209.919 137.824 214.388 137.126C228.055 134.99 260.306 126.517 266.718 144.774C268.496 149.834 268.223 156.013 268.999 161.33C270.584 172.174 273.021 182.947 274.715 193.792C275.508 198.872 275.329 204.128 276.308 209.164C268.421 198.964 262.36 174.343 260.531 160.462C259.9 155.675 261.228 145.454 256.656 142.366C245.775 135.018 211.653 148.548 201.393 140.664Z"/>
	<path fill="#5661EE" transform="scale(1.6 1.6)" d="M171.556 138.344C172.586 140.711 173.28 140.454 175.713 140.235C182.92 138.919 189.951 138.64 197.248 139.534C174.607 144.201 131.009 174.556 117.639 191.058C116.315 189.918 116.041 189.588 116.176 187.764L115.454 187.575C116.133 183.493 116.847 179.483 117.764 175.447C120.028 174.121 123.642 167.923 125.847 165.609C132.651 158.465 154.104 144.344 163.361 141.672C165.963 140.216 168.875 139.612 171.556 138.344Z"/>
	<path fill="#FEFEFE" transform="scale(1.6 1.6)" d="M171.556 138.344C172.586 140.711 173.28 140.454 175.713 140.235L166.643 143.958L166.154 144.242C162.512 146.334 158.512 147.816 154.919 150.005C143.097 157.207 120.981 173.809 116.176 187.764L115.454 187.575C116.133 183.493 116.847 179.483 117.764 175.447C120.028 174.121 123.642 167.923 125.847 165.609C132.651 158.465 154.104 144.344 163.361 141.672C165.963 140.216 168.875 139.612 171.556 138.344Z"/>
	<path transform="scale(1.6 1.6)" d="M496.485 259.862C509.552 253.43 523.624 250.755 537.675 255.533C572.619 267.414 558.686 315.216 549.532 340.63C543.734 356.728 535.839 381.104 519.296 388.9C505.702 395.306 486.756 393.03 471.805 394.75C490.761 415.599 494.226 437.454 472.246 456.835C461.726 466.112 448.743 478.831 436.518 463.407C428.194 452.904 434.418 430.336 416.532 427.839C404.035 426.095 392.979 437.288 391.689 449.114C389.23 471.66 419.293 489.152 399.263 505.524C382.628 519.121 355.683 510.892 343.416 495.294C330.885 479.361 337.122 459.118 338.712 440.938C340.263 423.215 340.482 406.603 354.528 393.533L354.373 393.828C350.575 400.93 347.515 404.064 345.257 412.48C342.265 423.629 337.514 478.409 346.048 488.044L346.59 488.817C349.703 492.807 353.008 496.514 357.018 499.628C357.89 500.33 358.75 501.041 359.674 501.674C371.95 508.726 394.283 508.985 399.569 492.962C395.643 476.954 382.101 467.77 386.224 446.98C391.72 419.265 430.13 411.482 437.031 441.897C442.869 467.628 447.987 467.906 467.036 452.2C481.286 440.451 484.736 428.88 476.523 412.307C461.792 382.582 440.863 404.135 420.257 379.947L419.901 379.263C408.782 357.748 408.638 333.627 407.047 310.019L405.945 293.314C405.581 287.93 404.787 282.744 406.451 277.495C406.341 282.069 407.668 286.338 408.561 290.779C413.92 317.412 410.839 349.14 422.009 373.501C433.132 397.759 452.556 393.018 475.077 392.107C490.686 391.475 513.357 390.046 524.524 377.779C542.177 358.387 554.689 309.833 553.22 283.81C551.813 258.876 525.761 255.918 505.619 258.376C502.554 258.75 499.582 259.723 496.485 259.862Z"/>
	<path transform="scale(1.6 1.6)" d="M144.928 275.244C108.763 275.214 107.07 258.624 106.3 228.203C105.595 200.382 103.591 161.033 130.569 143.724C140.215 137.535 154.656 133.899 166.011 136.433C167.685 136.373 168.767 137.558 170.521 137.622L171.556 138.344C168.875 139.612 165.963 140.216 163.361 141.672C154.104 144.344 132.651 158.465 125.847 165.609C123.642 167.923 120.028 174.121 117.764 175.447C116.847 179.483 116.133 183.493 115.454 187.575L116.176 187.764C116.041 189.588 116.315 189.918 117.639 191.058C116.734 193.215 116.03 195.409 116.928 197.724C116.417 198.595 115.917 199.723 115.073 200.291L114.933 200.248C114.524 204.508 114.631 216.533 115.25 220.659L115.337 227.566C115.267 229.628 115.212 231.675 115.274 233.738C115.306 240.788 115.188 248.065 116.872 254.953C125.613 283.028 169.95 256.695 197.288 267.244C203.074 266.842 210.652 268.13 215.922 267.297C217.46 267.691 218.709 268.211 220.111 268.93C213.831 283.675 215.27 303.623 212.699 319.335C212.24 318.955 212.385 318.341 212.18 317.779C212.935 325.913 212.446 334.381 213.494 342.423C212.515 353.681 209.625 365.302 205.041 375.606C200.384 379.312 172.741 369.901 165.368 391.186C162.048 400.771 162.603 411.925 161.964 421.943C160.84 439.579 158.219 453.835 153.657 470.924C148.343 490.83 148.336 502.706 171.367 510.185C188.697 515.813 203.357 504.731 219.352 500.413C247.01 492.945 270.173 504.475 295.908 502.16C324.27 499.607 325.289 464.816 327.544 443.179C327.715 441.537 327.646 432.733 328.188 431.972L328.297 431.951C333.421 451.829 332.657 482.421 318.804 497.999C297.4 522.066 252.422 496.524 216.913 508.852C205.803 512.709 195.936 517.841 183.899 518.407C166.715 519.214 144.465 507.323 143.928 488.144C143.513 473.311 153.456 444.971 154.835 425.915C155.896 411.251 154.89 392.269 165.765 380.771C150.576 388.565 118.329 387.542 122.904 363.605C125.819 348.353 145.786 348.483 148.439 333.142C150.012 324.047 144.263 314.824 134.838 313.441C118.453 311.035 118.279 338.439 102.016 335.411C76.2658 330.616 74.6963 271.092 113.51 279.529C107.342 280.827 102.312 277.992 96.1322 283.254C86.4437 291.503 87.9393 316.448 95.6845 325.09C110.644 341.781 114.792 305.735 133.747 306.349C155.431 307.05 163.862 339.967 141.151 352.923C133.863 357.08 121.701 364.007 132.327 374.418C144.892 386.729 165.667 372.651 178.459 370.213C186.129 368.75 194.147 369.738 201.909 369.765C208.179 351.315 203.895 330.064 203.892 310.907C203.89 298.791 208.228 283.984 197.131 274.91C186.842 266.495 159.594 273.662 144.928 275.244ZM197.288 267.244C209.553 275.295 212.296 304.122 212.18 317.779C212.385 318.341 212.24 318.955 212.699 319.335C215.27 303.623 213.831 283.675 220.111 268.93C218.709 268.211 217.46 267.691 215.922 267.297C210.652 268.13 203.074 266.842 197.288 267.244Z"/>
	<path fill="#8EA7F9" transform="scale(1.6 1.6)" d="M114.933 200.248C114.909 195.996 114.989 191.807 115.454 187.575L116.176 187.764C116.041 189.588 116.315 189.918 117.639 191.058C116.734 193.215 116.03 195.409 116.928 197.724C116.417 198.595 115.917 199.723 115.073 200.291L114.933 200.248Z"/>
	<path fill="#5661EE" transform="scale(1.6 1.6)" d="M166.011 136.433C167.685 136.373 168.767 137.558 170.521 137.622L171.556 138.344C168.875 139.612 165.963 140.216 163.361 141.672C154.104 144.344 132.651 158.465 125.847 165.609C123.642 167.923 120.028 174.121 117.764 175.447C120.872 158.183 132.036 146.485 147.848 139.324C153.713 137.181 159.822 136.683 166.011 136.433Z"/>
	<path fill="#FEFEFE" transform="scale(1.6 1.6)" d="M166.011 136.433C167.685 136.373 168.767 137.558 170.521 137.622C167.162 138.394 148.338 143.401 147.848 139.324C153.713 137.181 159.822 136.683 166.011 136.433Z"/>
	<path fill="#15BBAB" transform="scale(1.6 1.6)" d="M144.928 275.244C159.594 273.662 186.842 266.495 197.131 274.91C208.228 283.984 203.89 298.791 203.892 310.907C203.895 330.064 208.179 351.315 201.909 369.765C194.147 369.738 186.129 368.75 178.459 370.213C165.667 372.651 144.892 386.729 132.327 374.418C121.701 364.007 133.863 357.08 141.151 352.923C163.862 339.967 155.431 307.05 133.747 306.349C114.792 305.735 110.644 341.781 95.6845 325.09C87.9393 316.448 86.4437 291.503 96.1322 283.254C102.312 277.992 107.342 280.827 113.51 279.529C120.965 280.79 127.228 284.815 134.903 281.858C137.224 280.963 144.042 277.273 144.928 275.244Z"/>
	<path fill="#FED45E" transform="scale(1.6 1.6)" d="M388.481 375.614C391.642 376.915 407.804 373.534 418.451 379.973C419.056 380.076 419.679 380.142 420.257 380.351L420.257 379.947C440.863 404.135 461.792 382.582 476.523 412.307C484.736 428.88 481.286 440.451 467.036 452.2C447.987 467.906 442.869 467.628 437.031 441.897C430.13 411.482 391.72 419.265 386.224 446.98C382.101 467.77 395.643 476.954 399.569 492.962C394.283 508.985 371.95 508.726 359.674 501.674C358.75 501.041 357.89 500.33 357.018 499.628C353.008 496.514 349.703 492.807 346.59 488.817L346.048 488.044C337.514 478.409 342.265 423.629 345.257 412.48C347.515 404.064 350.575 400.93 354.373 393.828L354.528 393.533C356.964 390.505 360.938 388.209 362.882 384.892L364.589 383.881C373.326 381.127 380.379 380.668 388.481 375.614Z"/>
	<path fill="#8786AC" transform="scale(1.6 1.6)" d="M362.936 410.83L362.413 412.21C362.985 412.356 363.241 412.368 363.81 412.329C357.898 416.403 352.201 420.751 346.472 425.077C349.342 418.257 357.387 415.204 362.936 410.83Z"/>
	<path fill="#694266" transform="scale(1.6 1.6)" d="M469.744 428.077C470.152 428.07 470.639 428.14 470.339 428.623C467.685 432.904 454.567 437.697 449.801 439.044L449.223 438.958C452.445 436.419 465.711 430.052 469.744 428.077Z"/>
	<path fill="#B37191" transform="scale(1.6 1.6)" d="M370.796 388.424C371.02 391.609 354.747 409.509 351.652 413.163C351.709 408.207 367.069 392.603 370.796 388.424Z"/>
	<path fill="#694266" transform="scale(1.6 1.6)" d="M458.308 413.691C461.995 419.229 440.02 425.38 435.118 425.349L434.891 425.179C435.195 424.787 454.447 416.306 458.308 413.691Z"/>
	<path fill="#5661EE" transform="scale(1.6 1.6)" d="M347.597 442.658C353.105 436.344 369.274 426.201 377.168 422.657L376.998 423.189C374.682 424.625 372.343 425.981 369.951 427.287L370.604 427.624L371.295 427.334L371.035 427.844C370.765 428.378 370.551 428.915 370.347 429.479L370.622 429.813C372.614 429.505 378.766 424.883 379.721 425.431L379.742 425.651C371.342 430.439 356.264 439.365 347.597 442.658Z"/>
	<defs>
		<linearGradient id="gradient_0" gradientUnits="userSpaceOnUse" x1="353.85495" y1="475.33316" x2="367.08255" y2="481.54184">
			<stop offset="0" stop-color="#6A5482"/>
			<stop offset="1" stop-color="#9B5E90"/>
		</linearGradient>
	</defs>
	<path fill="url(#gradient_0)" transform="scale(1.6 1.6)" d="M346.048 488.044C351.933 483.941 368.22 470.756 373.852 468.866C370.092 477.896 355.296 484.903 346.59 488.817L346.048 488.044Z"/>
	<path fill="#987D7B" transform="scale(1.6 1.6)" d="M357.018 499.628L357.515 499.369C362.15 496.934 366.774 493.934 370.989 490.828C371.543 490.42 381.538 481.327 379.881 487.236C378.031 493.833 365.491 498.257 359.674 501.674C358.75 501.041 357.89 500.33 357.018 499.628Z"/>
	<path fill="#9867B1" transform="scale(1.6 1.6)" d="M382.133 442.507C383.848 444.904 371.253 452.666 369.558 453.87C361.42 459.651 353.742 465.934 344.383 469.645L344.192 469.343C352.585 461.057 371.788 448.474 382.133 442.507Z"/>
	<path fill="#5661EE" transform="scale(1.6 1.6)" d="M418.451 379.973C419.056 380.076 419.679 380.142 420.257 380.351C419.035 382.236 408.208 386.276 405.396 387.766C394.053 393.777 373.689 405.354 363.81 412.329C363.241 412.368 362.985 412.356 362.413 412.21L362.936 410.83C375.241 400.975 403.411 382.571 418.451 379.973Z"/>
	<path fill="#9867B1" transform="scale(1.6 1.6)" d="M426.343 399.43C421.525 408.398 411.689 409.836 403.184 413.874C395.327 417.606 387.689 422.201 379.742 425.651L379.721 425.431C378.766 424.883 372.614 429.505 370.622 429.813L370.347 429.479C370.551 428.915 370.765 428.378 371.035 427.844L371.295 427.334L370.604 427.624L369.951 427.287C372.343 425.981 374.682 424.625 376.998 423.189L377.168 422.657C383.61 417.666 415.788 402.816 426.343 399.43Z"/>
	<path fill="#FED45E" transform="scale(1.6 1.6)" d="M496.485 259.862C499.582 259.723 502.554 258.75 505.619 258.376C525.761 255.918 551.813 258.876 553.22 283.81C554.689 309.833 542.177 358.387 524.524 377.779C513.357 390.046 490.686 391.475 475.077 392.107C452.556 393.018 433.132 397.759 422.009 373.501C410.839 349.14 413.92 317.412 408.561 290.779C407.668 286.338 406.341 282.069 406.451 277.495C408.482 270.585 421.839 272.541 427.042 272.166C429.66 271.977 432.27 271.259 434.888 270.967C436.547 270.464 439.419 269.94 440.402 268.493L446.829 268.44C454.682 268.455 476.074 267.806 481.818 263.677L481.511 263.361C487.536 261.625 488.754 263.074 496.485 259.862Z"/>
	<path fill="#F9D8A5" transform="scale(1.6 1.6)" d="M535.129 271.049C539.72 273.238 526.096 286.42 520.76 288.731L520.274 288.693L519.971 288.214C521.367 286.127 525.649 284.519 527.673 282.413C530.86 279.096 532.291 274.614 535.129 271.049Z"/>
	<path fill="#3E38A9" transform="scale(1.6 1.6)" d="M531.816 312.666C535.181 309.499 538.385 305.352 542.306 302.922C540.547 307.231 537.229 310.673 534.215 314.149C528.931 321.538 527.75 312.68 531.816 312.666Z"/>
	<path fill="#5661EE" transform="scale(1.6 1.6)" d="M548.374 318.352C548.872 318.414 549.009 318.568 548.884 319.051C547.827 323.119 537.987 332.076 534.214 334.114C530.937 331.839 545.966 320.087 548.374 318.352Z"/>
	<path fill="#5661EE" transform="scale(1.6 1.6)" d="M201.393 140.664C211.653 148.548 245.775 135.018 256.656 142.366C261.228 145.454 259.9 155.675 260.531 160.462C262.36 174.343 268.421 198.964 276.308 209.164C277.647 212.509 281.65 231.896 280.453 234.899C279.964 240.317 277.879 245.51 276.015 250.586C266.214 266.032 236.379 276.638 220.111 268.93C218.709 268.211 217.46 267.691 215.922 267.297C210.652 268.13 203.074 266.842 197.288 267.244C169.95 256.695 125.613 283.028 116.872 254.953C115.188 248.065 115.306 240.788 115.274 233.738C115.212 231.675 115.267 229.628 115.337 227.566L115.25 220.659C114.631 216.533 114.524 204.508 114.933 200.248L115.073 200.291C115.917 199.723 116.417 198.595 116.928 197.724C127.975 189.222 137.456 178.951 148.318 170.178C166.25 155.696 181.788 150.075 201.393 140.664ZM183.111 184.263C180.966 185.258 178.804 186.183 176.616 187.078C171.706 189.861 167.681 193.575 164.522 198.257C163.791 199.736 163.039 201.173 162.566 202.76C161.788 213.256 165.732 223.572 175.151 229.162C201.363 244.718 237.678 205.173 207.948 189.298C201.174 185.681 190.772 181.905 183.111 184.263Z"/>
	<path fill="#C4C9FF" transform="scale(1.6 1.6)" d="M141.996 259.554C147.599 253.671 157.925 244.15 165.554 241.689C159.401 247.415 150.345 254.175 143.582 259.917C142.008 262.159 138.318 266.263 135.537 266.687L135.283 266.399C136.315 263.976 139.927 261.267 141.996 259.554Z"/>
	<path fill="#8EA7F9" transform="scale(1.6 1.6)" d="M128.792 222.174C127.563 222.778 115.666 234.152 115.657 236.059C115.617 244.171 114.645 247.223 119.218 240.371C121.864 236.405 143.087 216.625 147.457 215.729C139.932 221.733 121.981 236.305 117.465 243.894C117.48 246.937 117.284 250.145 117.641 253.162C117.493 253.895 117.28 254.329 116.872 254.953C115.188 248.065 115.306 240.788 115.274 233.738C120.619 230.98 125.304 223.944 130.323 220.133C129.86 220.901 129.455 221.553 128.792 222.174Z"/>
	<path fill="#8EA7F9" transform="scale(1.6 1.6)" d="M158.308 202.166C158.684 202.999 159.021 203.818 159.313 204.685C146.812 213.679 142.927 213.053 130.958 226.722L130.685 226.622C132.393 223.459 129.241 224.941 128.792 222.174C129.455 221.553 129.86 220.901 130.323 220.133C138.631 212.646 148.814 207.844 158.308 202.166Z"/>
	<path fill="#FEFEFE" transform="scale(1.6 1.6)" d="M157.104 209.675L156.853 209.941C144.976 222.344 124.186 237.853 117.641 253.162C117.284 250.145 117.48 246.937 117.465 243.894C121.981 236.305 139.932 221.733 147.457 215.729C150.756 213.838 153.845 211.627 157.104 209.675Z"/>
	<path fill="#FEFEFE" transform="scale(1.6 1.6)" d="M115.191 216.516C120.331 213.3 124.677 209.168 129.483 205.511C137.375 199.507 172.92 178.535 183.111 184.263C180.966 185.258 178.804 186.183 176.616 187.078C173.395 186.573 169.582 188.588 166.665 189.84C147.97 197.867 127.116 210.527 115.337 227.566L115.25 220.659C115.296 219.281 115.224 217.895 115.191 216.516Z"/>
	<path transform="scale(1.6 1.6)" d="M215.922 267.297C220.616 264.782 231.503 265.259 237.104 264.529C251.319 262.677 271.723 256.237 277.813 242.204C278.908 239.679 279.011 236.82 280.15 234.352L280.453 234.899C279.964 240.317 277.879 245.51 276.015 250.586C266.214 266.032 236.379 276.638 220.111 268.93C218.709 268.211 217.46 267.691 215.922 267.297Z"/>
	<path transform="scale(1.6 1.6)" d="M183.111 184.263C190.772 181.905 201.174 185.681 207.948 189.298C237.678 205.173 201.363 244.718 175.151 229.162C165.732 223.572 161.788 213.256 162.566 202.76C163.039 201.173 163.791 199.736 164.522 198.257C167.681 193.575 171.706 189.861 176.616 187.078C178.804 186.183 180.966 185.258 183.111 184.263ZM183.999 191.003C157.616 198.736 176.839 231.298 195.087 221.734C218.747 211.642 212.034 188.763 183.999 191.003Z"/>
	<path fill="#FC615C" transform="scale(1.6 1.6)" d="M205.041 375.606C208.123 376.796 220.096 377.115 223.228 376.256L223.401 376.287C231.605 385.645 295.342 374.53 312.073 382.409L312.502 382.876C325.359 396.727 321.227 400.563 324.733 418.941C325.584 423.403 327.168 427.577 328.297 431.951L328.188 431.972C327.646 432.733 327.715 441.537 327.544 443.179C325.289 464.816 324.27 499.607 295.908 502.16C270.173 504.475 247.01 492.945 219.352 500.413C203.357 504.731 188.697 515.813 171.367 510.185C148.336 502.706 148.343 490.83 153.657 470.924C158.219 453.835 160.84 439.579 161.964 421.943C162.603 411.925 162.048 400.771 165.368 391.186C172.741 369.901 200.384 379.312 205.041 375.606Z"/>
	<path fill="#FE9C9F" transform="scale(1.6 1.6)" d="M167.794 442.45C171.58 442.671 165.427 445.736 164.521 446.265C160.736 445.898 166.901 442.917 167.794 442.45Z"/>
	<path fill="#FE9C9F" transform="scale(1.6 1.6)" d="M198.383 467.513L198.581 467.732L198.463 468.271C191.05 474.047 179.884 481.311 171.189 484.977L171.066 484.848L171.145 484.475C178.301 479.401 191.011 471.271 198.383 467.513Z"/>
	<path fill="#FE9C9F" transform="scale(1.6 1.6)" d="M190.922 431.173L191.428 431.456C190.497 434.154 185.014 437.433 182.836 439.471C179.433 442.655 161.195 463.25 160.845 463.353L161.056 463.636C160.637 463.137 160.115 462.967 159.536 462.692C153.891 457.865 185.601 434.545 190.922 431.173Z"/>
	<defs>
		<linearGradient id="gradient_1" gradientUnits="userSpaceOnUse" x1="191.30798" y1="451.93558" x2="161.58336" y2="480.39008">
			<stop offset="0" stop-color="#FF817E"/>
			<stop offset="1" stop-color="#FFA59E"/>
		</linearGradient>
	</defs>
	<path fill="url(#gradient_1)" transform="scale(1.6 1.6)" d="M191.542 450.676C192.116 451.221 192.668 452.713 193.065 453.454C187.084 460.676 164.373 478.123 155.128 483.676L154.471 483.88L154.47 483.504C160.86 476.305 184.323 456.178 191.542 450.676Z"/>
	<path transform="scale(1.6 1.6)" d="M226.794 423.866C246.039 422.599 277.657 447.251 261.45 465.686C255.519 472.433 246.791 474.337 238.203 474.871C183.542 477.317 191.559 428.103 226.794 423.866Z"/>
	<path fill="#FEFEFE" transform="scale(1.6 1.6)" d="M228.456 430.1C247.256 428.804 277.719 462.184 237.705 466.337C202.523 469.909 200.134 433.649 228.456 430.1Z"/>
	<path fill="#5661EE" transform="scale(1.6 1.6)" d="M281.674 248.051C282.263 248.276 282.899 248.458 283.419 248.817C293.896 264.415 311.275 260.797 327.272 260.273C341.344 259.811 364.28 259.851 378.392 262.438C398.454 263.924 420.869 267.848 440.402 268.493C439.419 269.94 436.547 270.464 434.888 270.967C432.27 271.259 429.66 271.977 427.042 272.166C421.839 272.541 408.482 270.585 406.451 277.495C404.787 282.744 405.581 287.93 405.945 293.314L407.047 310.019C408.638 333.627 408.782 357.748 419.901 379.263L420.257 379.947L420.257 380.351C419.679 380.142 419.056 380.076 418.451 379.973C407.804 373.534 391.642 376.915 388.481 375.614C380.379 380.668 373.326 381.127 364.589 383.881L362.882 384.892C351.917 389.353 330.23 390.236 320.432 384.445C317.908 383.358 314.764 382.983 312.073 382.409C295.342 374.53 231.605 385.645 223.401 376.287L223.228 376.256C220.096 377.115 208.123 376.796 205.041 375.606C209.625 365.302 212.515 353.681 213.494 342.423C212.446 334.381 212.935 325.913 212.18 317.779C212.385 318.341 212.24 318.955 212.699 319.335C215.27 303.623 213.831 283.675 220.111 268.93C236.379 276.638 266.214 266.032 276.015 250.586C277.649 250.465 279.92 248.609 281.674 248.051ZM378.392 262.438C382.902 268.562 384.785 284.464 388.266 293.667C390.914 304.014 391.975 315.018 393.347 325.603C395.275 340.469 401.696 364.122 388.481 375.614C391.642 376.915 407.804 373.534 418.451 379.973C419.056 380.076 419.679 380.142 420.257 380.351L420.257 379.947L419.901 379.263C408.782 357.748 408.638 333.627 407.047 310.019L405.945 293.314C405.581 287.93 404.787 282.744 406.451 277.495C408.482 270.585 421.839 272.541 427.042 272.166C429.66 271.977 432.27 271.259 434.888 270.967C436.547 270.464 439.419 269.94 440.402 268.493C420.869 267.848 398.454 263.924 378.392 262.438ZM306.961 294.175C291.45 296.308 268.924 301.448 272.568 321.812C274.436 332.255 283.411 339.189 293.006 342.246C343.048 350.969 328.061 291.053 306.961 294.175ZM213.494 342.423C212.515 353.681 209.625 365.302 205.041 375.606C208.123 376.796 220.096 377.115 223.228 376.256C215.909 364.071 217.876 353.251 213.494 342.423Z"/>
	<path transform="scale(1.6 1.6)" d="M375.028 351.831C379.758 352.751 358.397 362.335 350.824 365.957L350.368 365.679C354.524 362.115 370.005 354.326 375.028 351.831Z"/>
	<path transform="scale(1.6 1.6)" d="M364.589 383.881C362.58 383.211 357.152 380.012 361.111 378.25C364.125 376.909 370.989 377.03 375.031 375.682C399.028 367.679 390.539 346.211 388.801 326.219C387.954 316.487 387.486 303.901 388.235 294.026L388.266 293.667C390.914 304.014 391.975 315.018 393.347 325.603C395.275 340.469 401.696 364.122 388.481 375.614C380.379 380.668 373.326 381.127 364.589 383.881Z"/>
	<path transform="scale(1.6 1.6)" d="M223.401 376.287C228.077 374.919 250.159 373.269 256.356 372.753C267.881 371.794 314.971 370.827 320.535 382.691L320.432 384.445C317.908 383.358 314.764 382.983 312.073 382.409C295.342 374.53 231.605 385.645 223.401 376.287Z"/>
	<path transform="scale(1.6 1.6)" d="M306.961 294.175C328.061 291.053 343.048 350.969 293.006 342.246C283.411 339.189 274.436 332.255 272.568 321.812C268.924 301.448 291.45 296.308 306.961 294.175ZM306.204 301.737C296.734 303.157 279.096 305.515 281.183 318.867C282.257 325.742 287.715 331.286 294.209 333.392C326.627 341.461 321.908 299.757 306.204 301.737Z"/>
	<path fill="#15BBAB" transform="scale(1.6 1.6)" d="M336.681 165.705C341.49 181.807 358.779 200.609 377.363 194.927C390.73 190.841 401.955 170.562 402.568 156.921C403.042 146.371 394.89 130.016 409.603 125.291C419.407 122.143 436.102 127.169 445.862 129.244C493.705 139.414 489.106 156.694 489.945 197.541L490.203 217.785C490.282 229.312 487.576 253.72 481.155 263.028L481.511 263.361L481.818 263.677C476.074 267.806 454.682 268.455 446.829 268.44L440.402 268.493C420.869 267.848 398.454 263.924 378.392 262.438C364.28 259.851 341.344 259.811 327.272 260.273C311.275 260.797 293.896 264.415 283.419 248.817C282.899 248.458 282.263 248.276 281.674 248.051C280.924 241.763 280.664 235.082 281.553 228.81C283.342 209.077 284.141 187.474 282.39 167.768C281.331 155.848 278.586 145.522 288.923 136.817C297.672 129.449 334.063 121.723 342.065 131.463C348.293 139.042 338.708 154.937 336.681 165.705Z"/>
	<path fill="#047A70" transform="scale(1.6 1.6)" d="M479.416 168.387C479.852 171.182 479.656 174.086 479.633 176.908C472.774 189.714 470.613 196.406 456.61 205.281C465.048 196.001 472.939 186.803 479.377 175.984C479.354 173.45 479.363 170.921 479.416 168.387Z"/>
	<path fill="#047A70" transform="scale(1.6 1.6)" d="M480.644 227.513C479.054 229.482 477.875 231.768 476.249 233.722C473.304 237.26 459.243 248.622 454.81 247.019L455.315 247.445L454.984 247.438L454.786 247.028C468.551 237.725 469.341 237.289 480.069 222.626L480.644 227.513Z"/>
	<path transform="scale(1.6 1.6)" d="M336.681 165.705C341.49 181.807 358.779 200.609 377.363 194.927C390.73 190.841 401.955 170.562 402.568 156.921C403.042 146.371 394.89 130.016 409.603 125.291C419.407 122.143 436.102 127.169 445.862 129.244C493.705 139.414 489.106 156.694 489.945 197.541L490.203 217.785C490.282 229.312 487.576 253.72 481.155 263.028L481.511 263.361L481.818 263.677C476.074 267.806 454.682 268.455 446.829 268.44L440.402 268.493C420.869 267.848 398.454 263.924 378.392 262.438C364.28 259.851 341.344 259.811 327.272 260.273C311.275 260.797 293.896 264.415 283.419 248.817C302.411 256.107 330.235 252.058 351.248 253.269C389.144 255.454 426.663 264.759 464.727 262.939C478.646 262.274 477.323 258.618 483.234 246.476C484.253 244.383 485.652 242.531 486.258 240.26C482.974 236.344 481.596 232.492 480.644 227.513L480.069 222.626C479.7 216.71 479.802 210.756 479.792 204.831C479.923 202.027 479.787 199.193 479.737 196.388C479.923 189.9 479.864 183.393 479.633 176.908C479.656 174.086 479.852 171.182 479.416 168.387C478.982 154.262 476.196 146.108 462.738 140.409C455.916 137.52 413.531 126.456 408.509 131.082C406.089 133.312 408.431 151.156 408.396 154.763C408.211 173.813 394.074 202.904 372.069 203.758C354.971 204.422 329.669 186.646 328.92 168.282C328.501 157.997 335.144 148.376 337.201 138.469C334.393 128.365 306.84 134.961 300.302 137.3C282.081 143.822 288.649 162.783 288.76 177.73C288.817 185.444 285.146 221.419 281.553 228.81C283.342 209.077 284.141 187.474 282.39 167.768C281.331 155.848 278.586 145.522 288.923 136.817C297.672 129.449 334.063 121.723 342.065 131.463C348.293 139.042 338.708 154.937 336.681 165.705Z"/>
</svg>
