<?xml version="1.0" encoding="utf-8" ?>
<svg width="150" height="150" viewBox="-20 70 1000 1000">
	<path fill="#01B6A7" d="M334.115 872.954C329.022 874.469 320.176 874.076 315.116 872.464L315.189 871.885C320.416 870.095 327.868 870.325 333.32 871.111L334.115 872.954Z"/>
	<path fill="#01B6A7" d="M306.324 909.283C310.37 909.082 314.355 908.956 318.401 909.241C319.892 909.346 322.625 909.286 323.583 910.4C322.311 911.403 321.421 911.511 319.877 911.678C315.378 912.121 310.629 912.582 306.15 911.738C304.887 911.499 303.846 911.455 303.126 910.362C304.257 909.44 304.902 909.493 306.324 909.283Z"/>
	<path fill="#01B6A7" d="M323.437 958.225C326.349 958.197 331.774 957.746 334.045 959.857L333.469 960.59C330.656 961.528 327.679 961.413 324.739 961.5C321.229 961.472 315.597 961.914 312.453 960.222L312.117 959.021C314.321 957.782 320.731 958.342 323.437 958.225Z"/>
	<path fill="#01B6A7" d="M270.986 827.587L274.461 827.575C280.025 833.921 286.912 839.068 290.679 846.752C282.966 843.364 276.4 833.936 270.986 827.587Z"/>
	<path fill="#01B6A7" d="M469.267 957.725C472.802 957.629 479.68 957.24 482.338 959.74C480.042 961.694 474.506 960.985 471.625 960.956C467.254 961.019 459.928 961.689 456.06 959.574C456.184 959.436 456.291 959.281 456.431 959.159C458.759 957.111 466.249 957.796 469.267 957.725Z"/>
	<path fill="#01B6A7" d="M264.715 915.785C265.232 915.937 265.712 916.13 266.187 916.387C271.141 919.068 284.478 933.782 285.943 938.787C285.237 938.678 284.541 938.572 283.907 938.212C279.182 935.526 266.763 921.13 264.715 915.785Z"/>
	<path fill="#01B6A7" d="M234.212 833.382C239.983 836.826 255.564 853.087 257.143 859.132C256.441 858.882 255.836 858.587 255.232 858.143C250.167 854.421 235.207 839.23 234.212 833.382Z"/>
	<path fill="#01B6A7" d="M88.1112 706.229C88.991 706.482 89.5157 706.757 90.2465 707.334C94.7316 710.877 109.458 729.787 110.182 734.993C109.508 734.79 109.01 734.52 108.426 734.111C104.612 731.444 89.0568 710.863 88.1112 706.229Z"/>
	<path fill="#01B6A7" d="M408.713 958.283C415.912 957.914 433.238 956.689 439.443 959.434L439.642 960.104C438.195 960.998 436.629 960.858 434.985 960.9C429.301 960.888 407.988 962.727 404.282 959.844L404.511 959.323C405.923 958.226 407.017 958.305 408.713 958.283Z"/>
	<path fill="#01B6A7" d="M358.065 958.206C362.893 957.911 384.943 956.862 388.34 959.262L387.811 960.103C385.972 961.04 383.941 961.013 381.916 961.17C376.789 961.322 355.158 962.021 351.911 960.298L352.236 959.557C354.199 958.428 355.858 958.356 358.065 958.206Z"/>
	<path fill="#01B6A7" d="M362.205 908.746C367.718 908.617 381.691 907.389 386.194 909.84L386.399 910.674C386.13 910.92 385.942 911.308 385.592 911.411C383.139 912.134 366.74 911.852 362.671 911.938C356.988 911.953 351.2 912.14 345.526 911.857C343.462 911.754 340.043 911.787 338.645 910.231C340.825 908.14 358.056 908.802 362.205 908.746Z"/>
	<path d="M814.066 318.294C815.194 328.738 816.528 379.145 813.493 388.598C812.575 387.397 812.42 387.124 812.191 385.637C813.481 365.296 812.879 344.972 812.174 324.618L812.928 324.732L813.246 325.433L813.038 325.117L813.437 324.644C813.534 322.531 813.844 320.399 814.066 318.294Z"/>
	<path d="M802.54 164.907C804.658 166.622 806.507 168.653 808.407 170.602Q810.248 195.143 810.967 219.742C811.217 227.58 810.367 236.871 811.831 244.51L810.24 244.99C810.193 243.851 810.129 243.625 809.544 242.648C808.017 227.278 808.344 211.433 807.674 195.974C807.45 190.808 805.645 177.256 806.607 173.115L807.186 171.998C806.511 170.186 804.872 169.112 803.668 167.654C802.706 166.49 802.41 166.408 802.54 164.907Z"/>
	<path d="M809.544 242.648C810.129 243.625 810.193 243.851 810.24 244.99L811.831 244.51L813.461 295.78C813.683 303.092 814.733 311.02 814.066 318.294C813.844 320.399 813.534 322.531 813.437 324.644L813.038 325.117L813.246 325.433L812.928 324.732L812.174 324.618C811.277 309.041 811.066 293.365 810.506 277.768C810.089 266.161 809.13 254.249 809.544 242.648Z"/>
	<path d="M852.45 442.674C854.034 432.216 855.863 421.51 855.985 410.914C856.164 395.422 853.42 379.679 851.756 364.291Q847.306 321.97 842.356 279.705C840.826 266.419 837.298 244.358 838.026 231.745L838.163 232.174C840.619 239.713 840.754 247.8 841.584 255.64L845.039 286.743C848.045 313.262 851.321 339.771 854.005 366.325C855.243 378.564 856.758 390.882 857.273 403.169C859.948 392.788 860.624 374.221 864.584 365.828C864.508 379.652 860.819 394.137 858.724 407.79C857.049 418.704 856.311 429.746 854.343 440.622L852.45 442.674Z"/>
	<path fill="#E6B795" d="M134.53 741.71C124.949 732.097 117.195 719.336 109.438 708.2C85.5846 673.956 60.1019 638.786 48.4307 598.186C36.9979 558.415 41.5914 512.101 61.8548 475.803Q63.0328 473.674 64.2975 471.595Q65.5622 469.517 66.9114 467.492Q68.2606 465.467 69.6921 463.499Q71.1235 461.531 72.6347 459.624Q74.146 457.717 75.7345 455.874Q77.3229 454.031 78.9859 452.255Q80.649 450.479 82.3837 448.772Q84.1185 447.066 85.922 445.433Q87.7255 443.799 89.5948 442.242Q91.464 440.684 93.3958 439.204Q95.3276 437.725 97.3187 436.326Q99.3098 434.928 101.357 433.612Q103.404 432.297 105.503 431.067Q107.603 429.837 109.751 428.694Q111.899 427.551 114.093 426.498Q116.286 425.445 118.521 424.483C124.651 421.904 131.077 420.124 137.466 418.313C137.527 443.798 136.881 469.258 136.67 494.741L134.53 741.71Z"/>
	<path fill="#01B6A7" d="M96.1891 631.804C97.3954 632.221 98.215 632.618 99.1429 633.509C101.766 636.029 104.572 639.654 104.572 643.425C102.809 642.589 101.588 641.563 100.255 640.138C98.1514 637.889 96.1356 634.981 96.1891 631.804Z"/>
	<path fill="#01B6A7" d="M92.1675 671.198C92.8172 671.335 93.4188 671.482 93.9778 671.868C98.2611 674.823 114.16 697.146 117.07 702.497C117.74 703.729 117.965 704.796 118.131 706.176C117.873 706.091 117.603 706.036 117.358 705.92C112.977 703.845 94.6479 676.556 92.1675 671.198Z"/>
	<path fill="#FED565" d="M237.172 238.343C239.631 226.951 240.975 215.415 242.963 203.943Q246.649 182.672 253.231 162.112C267.422 118.605 291.054 88.4121 332.103 67.6758C398.628 34.07 495.635 36.6838 565.002 59.6269C602.012 71.8677 638.149 91.4473 661.78 123.353C668.469 132.384 673.721 142.135 678.755 152.149C670.431 157.722 662.782 164.409 654.633 170.26C654.401 197.986 655.243 225.566 656.102 253.272C620.874 250.821 596.208 256.905 564.684 271.76L515.494 231.505C492.271 231.603 469.136 232.525 445.926 233.172L344.298 235.728L275.523 237.318C262.89 237.583 249.714 237.141 237.172 238.343Z"/>
	<path fill="#E6B795" d="M789.599 475.395C799.681 476.406 809.724 477.33 819.855 477.651C820.125 477.811 820.392 477.976 820.665 478.131C825.914 481.114 836.038 483.024 842.072 484.937C849.039 487.145 855.978 490.028 862.616 493.08C914.305 516.853 951.141 562.24 967.514 616.335C987.669 682.922 986.093 779.578 952.681 841.9C919.831 903.175 855.748 944.793 790.44 964.379C708.122 989.066 592.291 976.335 510.265 953.382Q496.075 949.36 482.061 944.762Q468.047 940.164 454.233 934.999Q440.418 929.833 426.825 924.108Q413.233 918.383 399.885 912.109C397.874 911.729 397.094 911.002 395.819 909.488C392.293 905.718 368.878 893.798 362.148 889.787Q349.286 882.112 337.078 873.436L334.674 872.835L334.115 872.954L333.32 871.111C327.493 865.581 321.028 860.737 315.046 855.369C305.541 846.839 297.285 837.493 289.416 827.459C313.563 827.656 337.653 826.441 361.778 825.718L475.827 822.708Q530.907 821.594 585.963 819.648C604.453 819.074 623.413 819.382 641.81 817.685C647.754 817.136 652.826 814.805 656.59 810.025C665.918 798.182 657.895 773.041 655.997 759.22C680.811 785.9 715.541 801.619 751.49 805.902C791.233 810.637 834.454 798.926 865.852 773.975C898.279 748.206 920.501 710.292 925.148 668.941Q925.373 666.998 925.551 665.05Q925.728 663.102 925.857 661.15Q925.986 659.198 926.067 657.244Q926.148 655.29 926.181 653.334Q926.214 651.378 926.198 649.422Q926.182 647.466 926.118 645.511Q926.055 643.556 925.942 641.603Q925.83 639.651 925.67 637.701Q925.51 635.752 925.301 633.807Q925.093 631.862 924.836 629.923Q924.58 627.984 924.276 626.051Q923.972 624.119 923.62 622.195Q923.268 620.271 922.869 618.356Q922.47 616.441 922.023 614.537Q921.577 612.632 921.084 610.739Q920.591 608.846 920.051 606.966Q919.511 605.086 918.925 603.22Q918.339 601.354 917.707 599.503Q917.075 597.652 916.397 595.817Q915.72 593.982 914.997 592.164Q914.275 590.346 913.507 588.547Q912.74 586.748 911.929 584.968Q911.117 583.188 910.262 581.429Q909.407 579.67 908.509 577.932Q907.61 576.195 906.669 574.48Q905.729 572.765 904.746 571.074Q903.763 569.383 902.738 567.716Q901.714 566.05 900.648 564.41Q899.583 562.769 898.478 561.155Q897.372 559.542 896.227 557.956Q895.082 556.37 893.899 554.813Q892.715 553.255 891.493 551.728C863.513 517.051 823.009 498.931 779.403 494.316Q784.66 484.941 789.599 475.395Z"/>
	<path fill="#097B85" d="M395.819 909.488C402.54 908.948 409.252 908.493 415.867 910.072L415.702 910.562C410.258 912.4 405.453 911.722 399.885 912.109C397.874 911.729 397.094 911.002 395.819 909.488Z"/>
	<path fill="#097B85" d="M517.945 909.167C522.928 908.914 531.66 907.486 536.251 909.161C537.804 909.727 537.789 910.143 538.394 911.577C533.482 912.409 526.745 912.728 521.883 911.874C519.689 911.489 519.117 910.919 517.945 909.167Z"/>
	<path fill="#097B85" d="M443.449 870.771Q451.993 870.389 460.546 870.443C463.014 870.47 468.476 870.451 470.218 872.236L469.649 872.856C467.179 873.819 464.847 873.587 462.25 873.5C457.2 873.505 438.114 874.562 434.946 871.8C437.184 870.393 440.856 870.793 443.449 870.771Z"/>
	<path fill="#097B85" d="M399.467 870.763C405.847 870.437 415.206 869.547 421.209 871.733C418.707 873.825 411.598 873.408 408.328 873.484C404.444 873.498 389.911 874.537 387.351 873.257C386.489 872.827 386.292 872.73 386.026 871.793C388.711 869.918 396.065 870.749 399.467 870.763Z"/>
	<path fill="#097B85" d="M471.539 909.136C479.19 908.745 497.439 907.58 504.535 909.359C505.702 909.652 505.849 909.736 506.4 910.728L505.878 911.655C500.735 912.083 476.488 913.076 472.496 910.979C471.782 910.603 471.775 909.851 471.539 909.136Z"/>
	<path fill="#097B85" d="M424.66 909.273C435.248 908.858 446.505 908.263 457.011 909.73L457.663 910.802L458.265 910.429L457.081 909.755L458.006 910.656C455.874 911.606 454.03 911.744 451.738 911.845C445.604 912.021 424.656 913.895 420.039 910.7L420.195 910.264C421.699 909.301 422.906 909.324 424.66 909.273Z"/>
	<path fill="#097B85" d="M334.674 872.835C336.04 871.989 337.322 871.287 338.919 870.988C344.017 870.031 366.311 869.796 371.054 871.085C372.052 871.356 372.286 871.551 372.965 872.349C372.049 873.449 370.872 873.471 369.493 873.607C359.04 874.645 347.582 873.773 337.078 873.436L334.674 872.835Z"/>
	<path fill="#316BA1" d="M490.113 859.212C492.252 859.066 494.519 858.834 496.653 859.065C498.978 859.317 502.802 860.165 504.197 862.113C504.668 862.771 504.418 863.195 504.324 863.942C503.219 865.255 502.305 865.975 500.811 866.811C496.885 867.01 493.305 867.27 489.48 866.097C487.784 865.576 487.043 864.999 486.221 863.449C486.779 861.344 488.335 860.348 490.113 859.212Z"/>
	<path d="M678.755 152.149C695.6 139.564 709.052 132.117 730.142 128.831C736.978 127.766 744.121 127.008 751.01 128.018C768.453 130.573 781.699 142.28 793.344 154.612C796.342 157.787 799.707 161.034 802.289 164.544C802.376 164.662 802.456 164.786 802.54 164.907C802.41 166.408 802.706 166.49 803.668 167.654C804.872 169.112 806.511 170.186 807.186 171.998L806.607 173.115C805.645 177.256 807.45 190.808 807.674 195.974C808.344 211.433 808.017 227.278 809.544 242.648C809.13 254.249 810.089 266.161 810.506 277.768C811.066 293.365 811.277 309.041 812.174 324.618C812.879 344.972 813.481 365.296 812.191 385.637C812.42 387.124 812.575 387.397 813.493 388.598C817.642 392.744 824.83 406.98 828.33 412.72C835.882 425.106 844.113 437.182 851.173 449.847C851.479 447.412 851.72 445.027 852.45 442.674L854.343 440.622C853.793 443.885 853.275 447.136 852.435 450.34C858.5 456.078 875.764 468.862 878.864 475.463C878.623 476.391 878.855 476.334 878.095 476.732C874.999 478.356 827.068 477.614 819.855 477.651C809.724 477.33 799.681 476.406 789.599 475.395Q784.66 484.941 779.403 494.316C823.009 498.931 863.513 517.051 891.493 551.728Q892.715 553.255 893.899 554.813Q895.082 556.37 896.227 557.956Q897.372 559.542 898.478 561.155Q899.583 562.769 900.648 564.41Q901.714 566.05 902.738 567.716Q903.763 569.383 904.746 571.074Q905.729 572.765 906.669 574.48Q907.61 576.195 908.509 577.932Q909.407 579.67 910.262 581.429Q911.117 583.188 911.929 584.968Q912.74 586.748 913.507 588.547Q914.275 590.346 914.997 592.164Q915.72 593.982 916.397 595.817Q917.075 597.652 917.707 599.503Q918.339 601.354 918.925 603.22Q919.511 605.086 920.051 606.966Q920.591 608.846 921.084 610.739Q921.577 612.632 922.023 614.537Q922.47 616.441 922.869 618.356Q923.268 620.271 923.62 622.195Q923.972 624.119 924.276 626.051Q924.58 627.984 924.836 629.923Q925.093 631.862 925.301 633.807Q925.51 635.752 925.67 637.701Q925.83 639.651 925.942 641.603Q926.055 643.556 926.118 645.511Q926.182 647.466 926.198 649.422Q926.214 651.378 926.181 653.334Q926.148 655.29 926.067 657.244Q925.986 659.198 925.857 661.15Q925.728 663.102 925.551 665.05Q925.373 666.998 925.148 668.941C920.501 710.292 898.279 748.206 865.852 773.975C834.454 798.926 791.233 810.637 751.49 805.902C715.541 801.619 680.811 785.9 655.997 759.22C657.895 773.041 665.918 798.182 656.59 810.025C652.826 814.805 647.754 817.136 641.81 817.685C623.413 819.382 604.453 819.074 585.963 819.648Q530.907 821.595 475.827 822.708L361.778 825.718C337.653 826.441 313.563 827.656 289.416 827.459L274.461 827.575L270.986 827.587C263.303 829.221 254.078 828.476 246.166 828.566C228.183 828.771 209.946 828.396 192.018 829.878C192.483 830.995 192.803 831.983 193.025 833.173L192.574 833.752C190.891 833.005 189.785 831.578 188.563 830.249C179.236 828.936 170.109 830.369 160.766 830.365C153.387 830.362 145.883 828.471 140.643 822.946C129.785 811.495 133.613 784.468 134.249 769.542C129.894 765.129 125.836 760.36 123.022 754.807C127.763 758.382 130.569 761.697 133.98 766.603C135.074 758.518 134.533 749.874 134.53 741.71L136.67 494.741C136.881 469.258 137.527 443.798 137.466 418.313L138.294 320.469C138.428 302.245 136.386 281.562 140 263.735C141.102 258.297 144.092 252.889 147.962 248.918C151.966 244.809 156.417 243.106 161.871 241.835C173.535 239.118 186.563 239.743 198.499 239.463L237.172 238.343C249.714 237.141 262.89 237.583 275.523 237.318L344.298 235.728L445.926 233.172C469.136 232.525 492.271 231.603 515.494 231.505L564.684 271.76C596.208 256.905 620.874 250.821 656.102 253.272C655.243 225.566 654.401 197.986 654.633 170.26C662.782 164.409 670.431 157.722 678.755 152.149ZM682.974 172.648C683.138 175.537 682.771 181.345 684.167 183.747C685.931 185.244 686.169 186.078 686.345 188.339C688.198 212.11 687.029 236.65 689.531 260.318C694.195 262.102 698.993 263.744 703.504 265.885C703.439 258.086 702.392 250.335 702.491 242.542C702.781 241.95 702.926 241.474 703.043 240.822C703.322 239.268 703.442 238.281 704.41 237.012L706.566 267.198C712.467 270.267 718.687 273.291 724.009 277.304Q723.022 249.499 721.702 221.707C721.22 211.914 719.951 201.514 720.325 191.753C720.405 189.664 720.831 187.647 721.677 185.736C723.175 187.111 723.867 214.18 724.002 217.373C724.866 237.696 726.13 258.256 725.985 278.595C731.17 282.917 736.834 286.719 742.333 290.633L742.519 284.848C743.152 285.773 743.753 286.741 744.469 287.602L744.756 292.793L759.738 308.419C759.988 307.466 760.222 306.526 760.403 305.557C760.673 304.229 760.938 302.907 761.292 301.598C762.04 304.454 760.354 309.98 762.063 312.2C768.315 318.194 773.425 326.223 778.902 332.991C778.573 315.416 778.155 297.745 778.462 280.171L779.217 280.226C780.319 279.517 780.217 278.638 780.523 277.41C780.762 286.433 780.399 332.243 782.498 337.593C785.399 344.984 792.783 354.161 797.149 361.156C795.507 346.982 795.299 332.352 794.473 318.096C793.723 305.141 792.234 291.778 792.444 278.812C792.847 279.775 793.108 280.719 793.387 281.722C793.409 279.798 793.001 278.374 794.399 276.939Q796.428 304.281 797.944 331.657C798.599 342.664 799.754 353.963 799.458 364.979C803.922 371.581 808.403 378.622 812.191 385.637C813.481 365.296 812.879 344.972 812.174 324.618C811.277 309.041 811.066 293.365 810.506 277.768C810.089 266.161 809.13 254.249 809.544 242.648C808.017 227.278 808.344 211.433 807.674 195.974C807.45 190.808 805.645 177.256 806.607 173.115Q744.792 172.431 682.974 172.648ZM680.087 155.171C681.225 159.898 682.242 164.586 683.065 169.381C699.078 170.149 715.285 169.765 731.318 169.763L803.316 169.938C786.374 155.052 773.875 134.355 749.442 131.433C742.615 130.617 735.751 131.221 728.986 132.282C709.509 135.337 695.371 143.064 680.087 155.171ZM814.68 459.75L796.207 459.932C794.58 463.697 792.811 467.453 791.353 471.285C811.567 473.592 831.43 473.778 851.75 474.009C859.266 474.023 866.88 473.798 874.374 474.374C869.067 469.637 863.669 464.709 858.703 459.613Q836.691 459.471 814.68 459.75ZM813.707 395.811C811.777 407.153 810.402 418.672 806.7 429.627C818.08 433.407 829.208 437.486 840.361 441.891C841.763 442.596 843.176 443.283 844.546 444.049C838.972 435.892 833.705 427.386 828.62 418.917C824.213 411.578 819.923 401.681 813.707 395.811ZM808.238 444.271L802.069 444.464Q799.856 450.977 797.469 457.429C813.139 457.554 828.79 456.908 844.447 457.004C848.179 456.944 851.965 456.743 855.692 456.859C842.804 444.673 836.006 443.478 818.692 443.96L808.238 444.271ZM805.92 432.455C805.09 435.69 804.274 438.886 803.126 442.027C809.166 441.983 822.235 442.644 827.623 441.72C828.799 441.875 829.896 442.077 831.077 441.847C827.361 437.32 811.751 434.838 805.92 432.455Z"/>
	<path fill="#FED565" d="M680.087 155.171C681.225 159.898 682.242 164.586 683.065 169.381C676.157 168.567 668.82 168.951 661.856 168.93C667.994 164.499 674.368 160.134 680.087 155.171Z"/>
	<path fill="#FE0500" d="M801.036 376.209C804.778 378.161 808.475 386.867 810.564 390.706C809.972 402.167 807.478 413.155 804.97 424.309C804.262 426.421 803.642 428.564 802.993 430.694C802.088 424.237 802.134 417.53 801.928 411.015L801.036 376.209Z"/>
	<path fill="#FE0500" d="M764.832 428.711C775.871 427.407 791.836 429.095 802.477 431.815C801.447 434.828 800.637 437.957 799.733 441.013L762.75 440.66L723.295 440.437C738.499 433.035 747.798 429.975 764.832 428.711Z"/>
	<path fill="#E6B795" d="M673.67 186.951C677.094 187.029 680.412 187.073 683.696 188.184C683.533 195.138 684.194 202.312 684.478 209.283Q685.701 234.379 686.499 259.493C682.388 258.151 678.334 256.958 674.107 256.039C674.068 243.085 674.118 230.119 673.89 217.167C673.714 207.123 673.113 196.988 673.67 186.951Z"/>
	<path fill="#FE0500" d="M782.007 347.715C782.212 347.856 782.429 347.979 782.621 348.137C786.514 351.32 795.37 364.657 796.551 369.554C798.059 375.8 797.529 383.257 797.739 389.708L798.984 427.156C794.502 426.407 790.069 425.647 785.526 425.363C783.916 399.423 782.636 373.698 782.007 347.715Z"/>
	<path fill="#E6B795" d="M511.865 243.851C525.791 255.617 539.565 267.503 553.753 278.959C543.385 283.899 528.976 284.835 520.064 290.979C517.331 291.674 514.689 292.539 512.018 293.439C512.181 276.92 511.921 260.373 511.865 243.851Z"/>
	<path fill="#FE0500" d="M717.877 444.027C722.816 443.369 728.595 444.595 733.672 444.53Q766.125 444.219 798.579 444.479C796.823 448.428 795.285 452.507 793.65 456.51L773.25 456.504C746.162 456.512 719.035 456.827 691.952 456.435C700.21 451.736 708.893 447.137 717.877 444.027Z"/>
	<path fill="#FE0500" d="M689.211 460.227C702.325 459.649 715.459 459.977 728.579 459.99L792.134 460.014L787.481 471.018Q777.909 470.62 768.329 470.49L662.958 469.9C671.696 466.056 679.516 461.243 689.211 460.227Z"/>
	<path fill="#FED565" d="M682.974 172.648C683.138 175.537 682.771 181.345 684.167 183.747C684.019 185.204 683.953 186.747 683.696 188.184C680.412 187.073 677.094 187.029 673.67 186.951C673.087 185.631 673.125 185.054 671.767 184.465C670.619 185.631 670.616 187.076 670.53 188.662C670.148 195.675 670.949 202.874 671.055 209.915Q671.34 232.726 671.359 255.539C667.461 254.713 663.482 254.286 659.532 253.781C659.302 241.771 658.579 229.752 658.23 217.741Q657.722 195.274 657.582 172.801Q670.279 172.831 682.974 172.648Z"/>
	<path fill="#FE0500" d="M763.121 320.881C769.379 326.909 773.826 334.242 778.466 341.512Q779.339 383.423 782.03 425.256C775.862 425.018 769.663 425.058 763.49 424.993Q763.623 372.936 763.121 320.881Z"/>
	<path fill="#FE0500" d="M745.139 301.789C750.492 305.819 755.327 311.96 759.973 316.834L759.943 389.566C759.951 401.17 761.326 413.804 759.775 425.282C755.132 425.493 750.607 426.094 746.012 426.747L745.566 355.317C745.493 337.483 745.687 319.612 745.139 301.789Z"/>
	<path fill="#FE0500" d="M727.031 286.317C732.8 289.467 737.215 293.784 742.004 298.21L742.497 386.4C742.571 394.417 743.789 420.417 742.288 426.489C741.972 427.769 740.866 428.01 739.811 428.566L729.021 433.063Q729.282 359.673 727.031 286.317Z"/>
	<path fill="#FE0500" d="M659.509 259.322Q665.512 260.227 671.503 261.211Q670.409 361.692 671.509 462.174L666.75 464.494L658.817 468.256C660.112 440.935 659.967 413.504 660.027 386.157Q660.474 322.737 659.509 259.322Z"/>
	<path fill="#FE0500" d="M674.452 261.975C678.383 263.33 682.519 264.339 686.516 265.506L688.318 411.911C688.372 417.916 689.457 449.726 688.321 453.461C687.928 454.753 686.401 455.322 685.332 455.994C681.941 457.553 678.466 458.852 674.975 460.165C674.093 451.798 674.48 443.19 674.478 434.779L674.48 394.757L674.452 261.975Z"/>
	<path fill="#FE0500" d="M690.001 266.776L703.781 272.804Q706.781 358.994 707.007 445.235L702.078 447.582L692.048 452.716C690.566 427.441 691.555 401.718 691.46 376.389Q691.006 321.579 690.001 266.776Z"/>
	<path fill="#FE0500" d="M707.26 273.992C712.967 276.885 718.445 279.881 723.85 283.299C723.913 305.1 725.217 326.982 725.577 348.8C726.051 377.423 725.588 406.06 725.866 434.687L720.751 437.431L710.142 443.125C710.054 386.773 708.093 330.346 707.26 273.992Z"/>
	<path fill="#3B3B3B" d="M771.018 498.236C771.027 498.414 771.083 498.597 771.046 498.772C769.813 504.54 754.035 521.906 749.207 526.873C721.817 555.051 682.886 568.031 644.259 568.455C644.25 568.376 644.226 568.297 644.231 568.218C644.421 565.102 649.653 559.478 651.678 557.12C685.739 517.442 719.486 502.133 771.018 498.236Z"/>
	<path d="M793.503 262.1C793.843 266.906 794.603 272.148 794.399 276.939C793.001 278.374 793.409 279.798 793.387 281.722C793.108 280.719 792.847 279.775 792.444 278.812C791.516 277.089 791.941 273.485 791.945 271.529C792.321 268.12 792.182 265.345 793.503 262.1Z"/>
	<path d="M701.421 223.348C701.963 225.524 702.281 226.855 703.855 228.484C703.919 228.55 703.978 228.621 704.039 228.69C704.176 231.428 704.474 234.278 704.41 237.012C703.442 238.281 703.322 239.268 703.043 240.822C702.926 241.474 702.781 241.95 702.491 242.542C701.203 236.562 701.53 229.474 701.421 223.348Z"/>
	<path d="M757.475 204.38C756.636 200.846 755.529 190.281 757.302 187.108C759.436 190.673 759.186 197.897 759.49 202.087L758.546 201.636L758.368 199.802L757.917 199.59C757.944 199.751 757.975 199.911 757.999 200.072C758.271 201.854 758.109 202.728 757.475 204.38Z"/>
	<path d="M742.098 259.262C742.787 260.489 743.317 261.956 744.052 263.117C744.444 271.213 744.613 279.495 744.469 287.602C743.753 286.741 743.152 285.773 742.519 284.848C742.505 276.317 742.08 267.794 742.098 259.262Z"/>
	<path d="M792.242 239.523L793.503 262.1C792.182 265.345 792.321 268.12 791.945 271.529C790.359 262.746 790.626 249.102 790.031 239.686L792.242 239.523Z"/>
	<path d="M777.06 248.018L779.064 247.578Q780.025 262.483 780.523 277.41C780.217 278.638 780.319 279.517 779.217 280.226L778.462 280.171C777.476 269.528 777.716 258.703 777.06 248.018Z"/>
	<path d="M701.421 223.348C700.254 219.152 699.523 189.975 700.846 186.847L701.3 186.83C702.079 188.1 702.349 189.222 702.549 190.697C703.305 196.279 702.952 202.32 703.008 207.957C703.078 214.91 703.442 221.764 704.039 228.69C703.978 228.621 703.919 228.55 703.855 228.484C702.281 226.855 701.963 225.524 701.421 223.348Z"/>
	<path d="M757.475 204.38C758.109 202.728 758.271 201.854 757.999 200.072C757.975 199.911 757.944 199.751 757.917 199.59L758.368 199.802L758.546 201.636L759.49 202.087C760.718 213.224 762.562 232.367 761.561 243.27C760.906 245.617 761.59 249.919 760.485 251.667L760.048 251.478C759.509 235.792 757.704 220.036 757.475 204.38Z"/>
	<path d="M761.561 243.27C762.58 249.79 763.279 307.681 762.063 312.2C760.354 309.98 762.04 304.454 761.292 301.598C760.938 302.907 760.673 304.229 760.403 305.557C759.949 297.257 760.358 288.702 760.35 280.372C760.342 270.74 759.966 261.105 760.048 251.478L760.485 251.667C761.59 249.919 760.906 245.617 761.561 243.27Z"/>
	<path d="M777.06 248.018Q776.436 228.804 774.884 209.643C774.342 203.295 773.279 196.939 772.905 190.591C772.814 189.03 772.744 187.79 773.272 186.31L773.964 186.007C776.712 189.822 779.088 239.317 779.064 247.578L777.06 248.018Z"/>
	<path d="M790.031 239.686C789.674 230.973 786.879 191.161 789.031 185.989L789.734 185.742C791.715 188.385 792.071 232.036 792.242 239.523L790.031 239.686Z"/>
	<path d="M742.067 257.667C741.856 249.231 739.431 189.235 740.445 186.15L741.162 185.447C744.386 189.337 744.434 248.95 744.016 258.814C744.07 260.251 744.147 261.68 744.052 263.117C743.317 261.956 742.787 260.489 742.098 259.262L742.067 257.667ZM742.067 257.667L742.098 259.262C742.787 260.489 743.317 261.956 744.052 263.117C744.147 261.68 744.07 260.251 744.016 258.814C743.346 256.585 743.252 254.383 743.137 252.078Q742.672 254.886 742.067 257.667Z"/>
	<path d="M742.067 257.667Q742.672 254.886 743.137 252.078C743.252 254.383 743.346 256.585 744.016 258.814C744.07 260.251 744.147 261.68 744.052 263.117C743.317 261.956 742.787 260.489 742.098 259.262L742.067 257.667Z"/>
	<path fill="#FE0500" d="M634.764 258.209C641.653 257.465 649.181 258.235 656.051 259.049Q657.742 335.785 656.479 412.53Q656.196 432.583 655.605 452.63C655.376 459.479 654.577 466.354 654.777 473.204C668.005 474.666 681.648 473.782 694.941 473.76C724.898 473.71 755.224 472.969 785.117 475.072C782.257 481.57 778.397 487.684 774.788 493.789Q767.841 493.651 760.91 494.138Q753.978 494.626 747.119 495.736Q745.505 495.989 743.897 496.276Q742.289 496.563 740.687 496.884Q739.086 497.206 737.491 497.56Q735.897 497.915 734.31 498.304Q732.723 498.692 731.145 499.114Q729.567 499.536 727.998 499.991Q726.429 500.446 724.87 500.934Q723.312 501.422 721.763 501.943Q720.215 502.464 718.678 503.017Q717.141 503.571 715.616 504.157Q714.092 504.743 712.58 505.361Q711.067 505.978 709.569 506.628Q708.07 507.278 706.585 507.959Q705.101 508.64 703.631 509.353Q702.161 510.065 700.706 510.809Q699.251 511.552 697.813 512.326Q696.374 513.1 694.952 513.904Q693.53 514.708 692.126 515.542Q690.721 516.376 689.334 517.239Q687.948 518.103 686.58 518.995Q685.211 519.888 683.862 520.809Q682.514 521.73 681.184 522.679Q679.855 523.629 678.546 524.606Q677.237 525.584 675.949 526.588Q674.661 527.593 673.395 528.625Q672.129 529.657 670.884 530.715Q669.64 531.773 668.418 532.858Q667.196 533.942 665.998 535.052Q664.799 536.162 663.624 537.297Q662.45 538.432 661.299 539.591Q660.148 540.751 659.023 541.934Q657.897 543.118 656.796 544.325C650.987 550.704 645.982 557.643 640.927 564.616L638.398 568.061C604.062 563.868 572.782 554.294 545.832 531.702C515.129 505.965 495.097 470.273 491.735 430.029C487.929 384.47 501.331 341.569 531.041 306.716C557.323 275.884 595.269 261.348 634.764 258.209Z"/>
	<path fill="#01B6A7" d="M777.232 497.68C815.393 503.065 848.901 514.915 876.678 542.803Q877.991 544.101 879.271 545.431Q880.552 546.761 881.799 548.123Q883.046 549.484 884.259 550.876Q885.472 552.268 886.65 553.69Q887.828 555.111 888.971 556.561Q890.114 558.011 891.221 559.489Q892.327 560.967 893.397 562.472Q894.466 563.977 895.499 565.508Q896.531 567.038 897.525 568.594Q898.519 570.15 899.474 571.73Q900.429 573.31 901.345 574.913Q902.261 576.516 903.137 578.142Q904.013 579.767 904.848 581.413Q905.684 583.06 906.478 584.727Q907.273 586.393 908.026 588.079Q908.779 589.765 909.49 591.468Q910.201 593.172 910.87 594.893Q911.539 596.614 912.165 598.351Q912.791 600.088 913.374 601.84Q913.957 603.591 914.497 605.357Q915.036 607.123 915.532 608.901Q916.027 610.68 916.479 612.47Q916.93 614.26 917.337 616.061Q917.745 617.862 918.107 619.672Q918.469 621.483 918.787 623.302Q919.105 625.12 919.377 626.946Q919.65 628.772 919.877 630.605Q920.104 632.437 920.286 634.274Q920.468 636.112 920.605 637.953Q920.741 639.794 920.832 641.638Q920.923 643.482 920.968 645.328Q921.013 647.174 921.013 649.02Q921.023 650.934 920.985 652.848Q920.947 654.762 920.861 656.674Q920.775 658.587 920.642 660.496Q920.508 662.406 920.327 664.312Q920.146 666.217 919.917 668.118Q919.689 670.018 919.412 671.913Q919.136 673.807 918.813 675.694Q918.49 677.58 918.119 679.458Q917.749 681.336 917.332 683.205Q916.915 685.073 916.451 686.93Q915.988 688.787 915.478 690.633Q914.968 692.478 914.412 694.309Q913.856 696.141 913.255 697.958Q912.653 699.776 912.007 701.578Q911.36 703.379 910.669 705.164Q909.977 706.949 909.241 708.717Q908.506 710.484 907.726 712.232Q906.946 713.98 906.123 715.709Q905.3 717.437 904.434 719.144Q903.568 720.851 902.66 722.536Q901.751 724.221 900.801 725.883Q899.851 727.545 898.859 729.182Q897.868 730.82 896.836 732.432Q895.804 734.044 894.732 735.63Q893.66 737.216 892.549 738.775Q891.438 740.333 890.288 741.864Q889.138 743.394 887.951 744.896Q886.763 746.397 885.538 747.868Q884.313 749.339 883.052 750.779Q881.791 752.219 880.494 753.628Q879.197 755.036 877.866 756.411Q876.534 757.786 875.169 759.128C845.08 789.003 805.008 801.687 763.329 801.475C740.904 801.675 717.076 794.533 697.378 784.119Q695.805 783.282 694.253 782.407Q692.701 781.532 691.17 780.619Q689.64 779.706 688.132 778.756Q686.625 777.806 685.141 776.82Q683.657 775.833 682.198 774.811Q680.738 773.789 679.304 772.731Q677.87 771.673 676.463 770.581Q675.055 769.488 673.674 768.362Q672.294 767.236 670.941 766.076Q669.588 764.916 668.264 763.723Q666.94 762.531 665.646 761.306Q664.351 760.082 663.087 758.826Q661.823 757.57 660.59 756.284Q659.357 754.998 658.156 753.682Q656.954 752.366 655.785 751.021Q654.617 749.676 653.481 748.303Q652.345 746.93 651.243 745.53Q650.142 744.129 649.074 742.702Q648.007 741.276 646.975 739.823Q645.943 738.37 644.947 736.893Q643.95 735.416 642.99 733.915Q642.03 732.414 641.107 730.889Q640.184 729.365 639.299 727.819Q638.413 726.273 637.566 724.705Q636.718 723.138 635.909 721.55Q635.1 719.963 634.33 718.356Q633.56 716.749 632.83 715.124Q632.1 713.498 631.409 711.856Q630.719 710.213 630.068 708.554Q629.418 706.895 628.808 705.221Q628.199 703.547 627.63 701.858Q627.062 700.169 626.535 698.467Q625.593 695.457 624.773 692.41Q623.954 689.364 623.26 686.287Q622.566 683.21 621.997 680.107Q621.429 677.004 620.987 673.881Q620.546 670.758 620.232 667.619Q619.917 664.48 619.732 661.331Q619.546 658.182 619.488 655.028Q619.431 651.874 619.502 648.72Q619.573 645.567 619.772 642.419Q619.972 639.271 620.299 636.133Q620.626 632.996 621.081 629.874Q621.536 626.753 622.118 623.652Q622.7 620.552 623.407 617.478Q624.115 614.404 624.947 611.361Q625.779 608.319 626.735 605.312Q627.69 602.306 628.767 599.341C632.063 590.329 636.333 581.964 640.824 573.502Q650.801 573.626 660.731 572.665Q670.662 571.704 680.43 569.669Q683.365 569.037 686.272 568.284Q689.179 567.531 692.051 566.658Q694.924 565.785 697.759 564.794Q700.593 563.802 703.384 562.695Q706.175 561.587 708.917 560.365Q711.66 559.142 714.349 557.807Q717.039 556.473 719.671 555.028Q722.303 553.582 724.873 552.03Q727.443 550.477 729.946 548.819Q732.449 547.161 734.882 545.401Q737.314 543.64 739.672 541.781Q742.029 539.921 744.308 537.966Q746.586 536.01 748.782 533.962Q750.978 531.914 753.086 529.777Q755.195 527.639 757.214 525.417Q759.232 523.194 761.157 520.889C767.141 513.623 772.131 505.572 777.232 497.68Z"/>
	<path d="M779.877 550.75L793.456 550.674L793.407 656.214Q821.956 656.398 850.502 655.989C838.665 669.067 827.819 683.588 816.826 697.394Q793.911 726.261 770.569 754.784L766.794 750.328C755.089 736.472 744.133 721.997 732.756 707.872C719.031 690.832 705.007 674.18 692.083 656.495L750.985 656.494L750.999 551.001L779.877 550.75Z"/>
	<path fill="#FDF4E4" d="M234.814 248.463L422.171 244.324C434.376 244.043 500.535 240.424 506.593 242.723C509.35 253.096 507.006 283.459 507.541 295.96C507.582 299.416 507.262 303.175 508.466 306.471C508.846 307.511 509.083 308.096 510.138 308.534C510.264 308.449 510.403 308.379 510.516 308.277C513.126 305.924 512.089 296.886 512.018 293.439C514.689 292.539 517.331 291.674 520.064 290.979C528.291 291.107 537.128 287.708 544.967 285.346C514.99 311.543 495.005 345.491 487.967 384.763C485.212 411.521 484.876 436.329 492.658 462.441C494.176 467.537 496.025 472.451 498.036 477.367C499.275 480.396 501.067 483.709 501.804 486.883C505.173 493.203 508.812 499.437 513.059 505.212C544.895 548.511 582.734 565.541 634.566 573.62C612.344 618.917 606.77 661.694 624.942 709.921C629.004 720.703 636.402 730.042 639.993 740.907C642.37 748.1 643.192 755.818 644.501 763.256C645.923 771.338 647.601 779.402 648.817 787.517C649.556 792.449 650.895 799.988 647.511 804.169C645.386 806.794 641.733 807.028 638.6 807.392C627.979 808.627 617.1 808.343 606.425 808.504C594.643 808.682 582.857 809.173 571.074 809.434L448.549 812.466L257.134 817.425C226.528 818.212 195.849 819.815 165.237 819.671C161.34 819.653 153.133 819.661 150.046 817.121C146.189 813.946 144.594 810.206 144.205 805.285C143.619 797.871 144.322 790.105 144.401 782.66L145.099 732.649L146.725 593L148.474 397.953L149.334 318.533C149.402 304.179 148.454 289.535 149.203 275.227C149.546 268.668 150.305 261.206 154.915 256.12C157.874 252.856 162.028 251.091 166.266 250.195C174.003 248.558 182.108 249.279 189.965 249.223C204.905 249.116 219.893 249.279 234.814 248.463Z"/>
	<path d="M335.511 485.244C341.491 490.062 347.074 495.7 352.718 500.909C367.076 514.161 381.069 527.786 395.359 541.106C417.348 563.383 440.654 584.581 463.108 606.424Q474.099 617.049 484.955 627.813C491.125 633.982 497.573 641.048 504.647 646.189L580.994 719.172C598.003 735.431 615.387 751.255 631.761 768.163C630.897 761.233 628.681 751.332 631.455 744.724C632.227 744.998 633.149 745.038 633.51 745.805C636.003 751.109 638.13 767.042 636.134 772.617C635.669 773.917 635.259 774.275 634.031 774.813C628.406 773.477 622.301 766.756 617.961 762.87C605.365 751.59 593.78 738.995 581.544 727.293C556.063 702.925 530.139 678.831 505.145 653.972C501.295 649.117 496.092 644.963 491.568 640.72Q481.578 631.276 471.725 621.69Q446.123 596.712 420.266 571.998C412.076 564.17 404.004 556.134 395.566 548.574Q377.429 531.194 359.07 514.05C351.638 507.046 344.336 499.683 336.455 493.186C324.338 506.505 313.203 520.712 301.454 534.353C295.214 541.598 283.858 552.769 279.232 560.483C257.659 583.903 237.342 608.72 216.563 632.861C211.587 638.641 199.513 655.403 193.804 658.666C192.769 659.258 192.033 659.709 190.834 659.418C190.786 659.087 190.703 658.76 190.691 658.426C190.599 655.867 193.734 651.704 195.272 649.662C197.762 646.358 200.945 643.413 203.689 640.291C208.914 634.344 213.98 628.24 219.105 622.206Q249.654 586.148 280.576 550.41C286.183 544.555 291.233 537.994 296.452 531.782C309.468 516.29 322.126 500.41 335.511 485.244Z"/>
	<path d="M176.581 795.733C175.378 784.964 175.681 774.053 175.672 763.237L175.395 723.784L173.204 570.713L170.075 356.948L169.186 303.476C169.004 295.483 168.107 287.083 168.557 279.122C168.693 276.711 169.002 274.948 170.511 273.032C171.862 272.466 171.976 272.492 173.417 272.798C173.921 274.004 174.015 274.973 174.053 276.275C174.177 280.613 173.818 284.99 173.842 289.336L174.317 336.171Q176.216 424.101 177.035 512.047L180.321 791.682Q206.919 791.59 233.5 790.633C250.772 790.021 268.072 788.997 285.354 788.887C310.838 788.592 336.335 787.408 361.815 786.891C372.049 786.683 389.57 788.053 398.842 785.987L401.513 785.945L472.922 783.922C484.365 783.639 496.246 784.597 507.594 783.106C514.268 782.221 521.127 782.44 527.853 782.337Q541.389 782.103 554.92 781.663L596.5 780.391C604.94 780.071 613.415 779.257 621.862 779.351C623.913 779.374 627.381 779.297 629.092 780.546C630.283 781.415 630.264 781.714 630.441 783.078C630.339 783.187 630.251 783.312 630.135 783.405C628.437 784.766 624.266 784.548 622.163 784.679C592.3 786.539 562.174 785.947 532.252 786.754L329.659 792.255L225.601 795.025Q214.773 795.27 203.951 795.689C194.877 796.122 185.618 796.973 176.581 795.733Z"/>
	<path fill="#4754D3" d="M395.566 548.574C404.004 556.134 412.076 564.17 420.266 571.998Q446.123 596.712 471.725 621.69Q481.578 631.276 491.568 640.72C496.092 644.963 501.295 649.117 505.145 653.972C504.243 677.986 505.978 702.414 506.569 726.454L507.375 763.569C507.471 770.029 507.153 776.675 507.594 783.106C496.246 784.597 484.365 783.639 472.922 783.922L401.513 785.945C401.955 778.249 401.354 770.345 401.094 762.639C400.626 748.73 400.071 734.792 399.799 720.88L395.566 548.574Z"/>
	<path fill="#4754D3" d="M395.359 541.106C396.54 528.003 395.107 510.876 394.694 497.408L393.069 433.673C392.702 423.114 391.166 412.166 392.159 401.631C392.505 397.953 393.259 394.625 395.802 391.8C397.945 389.419 400.414 388.546 403.474 387.953C413.794 385.955 425.314 386.626 435.841 386.353L487.967 384.763C485.212 411.521 484.876 436.329 492.658 462.441C494.176 467.537 496.025 472.451 498.036 477.367C499.275 480.396 501.067 483.709 501.804 486.883C500.694 499.834 502.362 513.141 502.563 526.133L503.721 590.851C504.17 609.296 504.949 627.735 504.647 646.189C497.573 641.048 491.125 633.982 484.955 627.813Q474.099 617.049 463.108 606.424C440.654 584.581 417.348 563.383 395.359 541.106Z"/>
	<path fill="#FED565" d="M177.035 512.047C181.206 510.089 184.948 508.609 189.509 507.9C199.227 506.389 209.49 506.811 219.314 506.366C234.15 505.694 249.354 504.234 264.18 504.768C266.431 504.849 268.757 505.047 270.878 505.849C273.891 506.989 276.09 509.31 277.376 512.232C280.847 520.117 276.464 547.063 280.576 550.41Q249.654 586.148 219.105 622.206C213.98 628.24 208.914 634.344 203.689 640.291C200.945 643.413 197.762 646.358 195.272 649.662C193.734 651.704 190.599 655.867 190.691 658.426C190.703 658.76 190.786 659.087 190.834 659.418C192.033 659.709 192.769 659.258 193.804 658.666C199.513 655.403 211.587 638.641 216.563 632.861C237.342 608.72 257.659 583.903 279.232 560.483Q282.385 652.228 283.149 744.025C283.23 749.953 282.575 786.06 284.023 788.432L285.415 788.715L285.354 788.887C268.072 788.997 250.772 790.021 233.5 790.633Q206.919 791.59 180.321 791.682L177.035 512.047Z"/>
	<path fill="#E6B795" d="M234.814 248.463L422.171 244.324C434.376 244.043 500.535 240.424 506.593 242.723C509.35 253.096 507.006 283.459 507.541 295.96C488.102 301.073 460.985 319.971 442.555 330.2C428.972 337.74 415.32 345.74 401.238 352.279C354.86 373.817 307.694 379.417 257.487 369.207C238.457 365.336 220.166 358.847 201.221 354.738Q204.33 348.472 207.194 342.091Q210.059 335.71 212.675 329.223Q215.291 322.735 217.655 316.152Q220.019 309.569 222.127 302.9Q224.236 296.23 226.085 289.484Q227.934 282.738 229.522 275.926Q231.109 269.114 232.433 262.246Q233.756 255.377 234.814 248.463Z"/>
	<path fill="#01B6A7" d="M336.455 493.186C344.336 499.683 351.638 507.046 359.07 514.05Q377.429 531.194 395.566 548.574L399.799 720.88C400.071 734.792 400.626 748.73 401.094 762.639C401.354 770.345 401.955 778.249 401.513 785.945L398.842 785.987C389.57 788.053 372.049 786.683 361.815 786.891C336.335 787.408 310.838 788.592 285.354 788.887L285.415 788.715L284.023 788.432C282.575 786.06 283.23 749.953 283.149 744.025Q282.385 652.228 279.232 560.483C283.858 552.769 295.214 541.598 301.454 534.353C313.203 520.712 324.338 506.505 336.455 493.186Z"/>
	<path fill="#FDF4E4" d="M336.455 493.186C344.336 499.683 351.638 507.046 359.07 514.05Q377.429 531.194 395.566 548.574L399.799 720.88C400.071 734.792 400.626 748.73 401.094 762.639C401.354 770.345 401.955 778.249 401.513 785.945L398.842 785.987C397.579 785.092 397.253 784.799 396.984 783.253C396.055 777.915 396.417 771.825 396.421 766.405Q396.484 753.452 396.384 740.5L394.631 658C394.507 649.329 395.752 634.55 394.054 626.663C393.35 623.392 391.774 620.525 389.031 618.538C386.224 616.505 382.372 615.938 378.981 615.654C368.939 614.812 358.631 616.127 348.561 616.346Q331.061 616.572 313.567 617.054C307.549 617.228 301.072 617.011 295.168 618.25C292.672 618.774 289.151 619.964 287.492 622.057C285.66 624.369 285.266 630.072 285.118 633.006C284.238 650.349 289.7 785.203 287.503 788.468L285.415 788.715L284.023 788.432C282.575 786.06 283.23 749.953 283.149 744.025Q282.385 652.228 279.232 560.483C283.858 552.769 295.214 541.598 301.454 534.353C313.203 520.712 324.338 506.505 336.455 493.186Z"/>
</svg>
