<?xml version="1.0" encoding="utf-8" ?>
<svg width="100" height="100" viewBox="0 0 900 900">
	<path transform="scale(2 2)" d="M286.907 78.0142C288.858 77.7001 290.8 77.4807 292.774 77.4119C297.253 83.5129 303.103 89.0178 308.262 94.5701L332.394 120.974C351.953 142.458 358.33 156.165 349.976 187.198C355.725 186.147 361.34 184.235 367.106 183.336C387.464 180.162 387.716 201.951 391.15 216.039L397.498 242.641C398.635 247.432 400.142 252.386 400.832 257.255L414.712 257.233C438.427 257.206 446.807 265.053 446.763 289.347L446.746 360.656C446.834 376.868 449.382 393.464 447.449 409.884C444.501 434.925 420.926 431.965 403.006 432.276L308.513 434.052C285.041 434.525 267.41 435.327 265.174 406.229C261.901 404.189 259.433 402.182 256.931 399.227C253.184 393.724 252.194 389.417 250.826 382.977C245.218 385.451 238.752 386.514 232.796 387.871C173.761 401.313 99.5628 394.947 73.544 331.097C62.2371 303.35 58.0135 270.296 75.4163 244.044C79.1364 238.433 83.8247 233.773 88.0443 228.576C97.7055 216.678 103.314 201.427 107.912 187.011C110.816 177.909 114.346 160.345 124.292 156.365C125.095 149.361 124.819 142.585 124.89 135.568L125.412 101.615C125.5 97.9174 125.289 94.1038 125.621 90.4288C126.205 83.9493 134.032 85.4297 138.828 85.1552L261.532 78.8051C269.573 78.3923 278.988 77.3098 286.907 78.0142Z"/>
	<path fill="#FEFEFE" transform="scale(2 2)" d="M292.774 82.4821L314.312 105.939C317.917 109.84 321.414 113.881 325.167 117.639C314.473 117.891 303.47 115.869 292.774 115.277L292.774 82.4821Z"/>
	<path fill="#FED45E" transform="scale(2 2)" d="M387.896 274.057C396.173 273.977 404.508 273.88 412.782 274.072C424.592 274.347 428.663 280.103 428.241 291.49L411.625 291.49C398.978 291.471 385.655 289.633 373.916 295.265C373.784 284.052 374.607 275.039 387.896 274.057Z"/>
	<path fill="#FED45E" transform="scale(2 2)" d="M298.235 309.302C304.37 308.941 310.749 309.289 316.91 309.291L354.943 309.302C348.289 317.324 337.982 324.656 328.816 329.485C318.274 335.064 306.459 338.065 294.506 337.176C289.087 336.772 284.415 335.598 279.039 337.238C281.891 325.328 283.539 311.081 298.235 309.302Z"/>
	<path fill="#5661EE" transform="scale(2 2)" d="M300.251 119.39C309.653 119.381 319.456 120.571 328.816 121.445C348.096 142.637 355.787 158.427 345.675 188.332C342.897 188.764 340.159 189.474 337.424 190.114C324.263 193.448 310.973 196.767 297.719 199.699C297.582 172.935 300.312 146.183 300.251 119.39Z"/>
	<path fill="#77F4D8" transform="scale(2 2)" d="M300.251 260.274L409.523 260.264C433.572 260.261 443.774 262.686 443.772 289.661L443.751 302.377C440.624 298.2 436.44 294.165 431.361 292.543C432.252 276.248 425.149 271.037 409.758 271.034L399.5 271.05C377.076 270.994 370.591 272.605 370.771 296.729C366.404 299.421 362.656 303.136 358.583 306.251L318.266 306.249C298.739 306.23 285.493 302.342 279.039 325.943C279.199 322.252 279.055 318.502 279.05 314.805L279.03 293.449C279.023 276.529 280.05 262.761 300.251 260.274Z"/>
	<path fill="#15BBAB" transform="scale(2 2)" d="M368.656 188.332C379.781 186.381 381.722 198.873 383.543 206.642L387.309 222.85C389.922 234.153 393.117 246.002 395.43 257.255L309.899 257.249C295.862 257.25 280.244 258.703 276.828 276.305C275.804 281.584 276.228 287.331 276.229 292.701L276.233 316.191C276.232 322.72 275.565 331.804 276.229 338.018C264.254 343.695 263.653 352.921 263.701 365.245C263.745 376.519 265.231 390.603 264.562 401.378C262.288 399.18 260.626 396.873 259.253 394.029C254.927 384.274 251.565 361.47 248.94 349.749L234.535 283.101C231.134 267.716 227.098 252.392 224.291 236.887C220.811 217.665 238.88 218.898 253.572 215.401L305.6 203.323C325.676 198.696 348.778 191.468 368.656 188.332Z"/>
	<path fill="#FEFEFE" transform="scale(2 2)" d="M364.381 196.101C366.631 195.993 366.072 198.01 366.023 199.699C361.646 200.092 357.362 201.273 353.098 202.296L337.004 206.177C324.106 209.299 311.072 212.014 298.235 215.349L297.16 215.246C292.071 211.401 308.78 209.109 309.934 208.833L350.563 199.001C355.107 197.871 359.706 196.538 364.381 196.101Z"/>
	<path fill="#5661EE" transform="scale(2 2)" d="M124.292 160.232C125.333 161.579 124.042 181.458 124.012 184.674L122.69 287.732C122.596 293.017 122.371 298.324 122.492 303.609C122.699 312.668 131.619 309.932 137.808 309.554L233.606 304.677C234.956 308.844 235.817 313.236 236.752 317.516L250.001 379.66C233.399 384.386 217.167 387.385 200.06 389.435C158.383 393.12 117.623 385.605 89.4478 351.548C74.2145 333.134 65.1553 300.151 67.5279 276.419C70.2731 248.96 82.1947 243.922 95.0319 224.701C103.085 212.643 107.989 198.247 112.29 184.447C114.936 175.956 117.086 166.11 124.292 160.232Z"/>
	<path fill="#FC615C" transform="scale(2 2)" d="M389.682 294.572L422.855 294.545C441.148 294.563 443.675 307.634 443.732 322.582L443.86 339.376C444.128 360.836 444.683 382.368 444.552 403.826C444.411 427.087 430.124 429.073 410.932 429.429L380.192 429.763C360.267 429.921 340.34 430.942 320.411 430.692C312.838 431.08 293.377 432.005 286.803 430.456C269.171 426.302 269.63 410.71 268.641 396.673C267.83 385.167 266.804 373.629 266.752 362.088C266.658 341.395 275.324 338.139 294.339 340.041C342.701 344.879 356.842 296.233 389.682 294.572Z"/>
	<path fill="#FEFEFE" transform="scale(2 2)" d="M385.629 302.377L416.117 302.403C418.834 302.427 427.147 301.079 429.103 303.302C432.253 306.88 425.627 306.337 424.334 306.251C420.568 306.25 381.603 306.526 381.098 306.304C376.182 304.138 382.101 302.352 385.629 302.377Z"/>
	<path fill="#FEFEFE" transform="scale(2 2)" d="M432.8 310.824C434.061 310.671 436.069 310.197 436.918 311.401C437.396 317.59 437.248 323.843 437.249 330.046L437.246 357.271C437.249 360.104 437.909 367.973 437.245 370.071C431.777 370.893 432.989 367.147 432.84 362.16C432.71 357.847 432.281 312.12 432.8 310.824Z"/>
	<path fill="#FAE5B3" transform="scale(2 2)" d="M286.907 81.2313C287.678 80.9397 288.651 80.8749 289.469 80.7326L289.458 104.675C289.46 118.283 286.202 117.026 296.778 119.39C297.346 126.532 296.452 134.755 296.238 141.981C295.662 161.447 294.525 180.913 294.688 200.39C289.3 201.442 283.966 202.98 278.613 204.217L234.08 214.672C222.581 217.349 216.165 224.934 219.062 236.961C199.825 238.176 178.246 235.659 158.619 235.781C155.98 235.797 152.52 234.983 150.027 235.61C147.503 236.245 148.333 238.854 150.607 239.045C153.402 239.28 156.371 239.165 159.186 239.24L205.816 240.272C210.422 240.394 214.975 240.714 219.593 240.718C223.234 258.495 227.927 284.766 233.606 301.815C228.756 301.533 223.886 301.855 219.062 302.377C211.77 302.3 204.418 302.847 197.131 303.18L147.137 305.592C122.328 306.676 125.654 312.15 126.025 289.229L128.691 88.7262C134.143 88.7243 139.564 88.2875 145.006 87.9861L268.865 81.7505C274.878 81.4614 280.885 81.0305 286.907 81.2313Z"/>
	<path transform="scale(2 2)" d="M150.339 111.406C155.094 111.047 159.949 111.3 164.718 111.363L202.25 111.885C206.145 111.899 212.431 110.196 211.611 114.963L211.153 115.277C205.525 115.617 152.449 114.871 150.778 114.271C149.426 113.786 149.854 112.389 150.339 111.406Z"/>
	<path transform="scale(2 2)" d="M150.339 165.251C155.455 164.879 208.855 166.225 210.079 166.637C211.634 167.16 211.677 168.446 211.153 169.757C208.658 170.192 205.783 169.871 203.249 169.823L159.813 168.827C155.629 168.709 148.574 170.58 150.339 165.251Z"/>
	<path transform="scale(2 2)" d="M150.339 219.949C162.535 219.917 174.76 220.371 186.951 220.741L198.511 221.14C199.364 221.163 215.266 220.905 208.747 224.769C202.945 225.142 197.086 224.373 191.283 224.312C179.288 224.186 163.886 224.486 152.178 223.467C149.702 223.252 147.319 221.508 150.339 219.949Z"/>
	<path transform="scale(2 2)" d="M148.594 276.997C158.284 276.085 171.784 277.164 181.6 277.524L199.592 278.115C201.49 278.168 214.52 277.009 211.153 281.724C207.18 282.157 149.949 280.347 148.666 279.891C147.569 279.501 148.216 277.682 148.594 276.997Z"/>
	<path transform="scale(2 2)" d="M151.643 126.898C156.646 126.891 161.675 126.788 166.675 126.94L210.842 128.213C220.625 128.527 255.272 127.016 247.94 132.492C238.503 133.018 222.867 132.219 213.126 131.904L168.847 130.4C166.641 130.321 146.502 132.257 151.643 126.898Z"/>
	<path transform="scale(2 2)" d="M150.339 180.73C156.434 179.606 180.379 180.565 187.018 180.795L216.141 181.52C219.791 181.587 223.423 182.103 227.08 182.147C229.201 182.173 253.635 180.201 247.94 185.676C243.028 186.315 237.573 185.785 232.607 185.689C206.199 185.179 179.423 184.731 153.07 183.794C150.764 183.712 148.973 183.589 150.339 180.73Z"/>
</svg>
