<?xml version="1.0" encoding="utf-8" ?>
<svg width="100" height="100" viewBox="0 0 900 900">
	<path transform="scale(1.6 1.6)" d="M374.737 301.818L376.145 299.099C378.252 297.56 381.189 298.163 382.684 300.224C381.657 328.418 354.2 347.116 327.884 347.805C300.545 348.121 265.462 332.984 262.171 302.499L266.673 301.262C274.455 316.505 285.861 330.318 302.768 335.796L305.438 336.494C318.871 334.562 340.354 323.103 353.235 317.558C362.635 313.511 372.194 313.178 374.737 301.818Z"/>
	<path fill="#5661EE" transform="scale(1.6 1.6)" d="M305.438 336.494C318.871 334.562 340.354 323.103 353.235 317.558C362.635 313.511 372.194 313.178 374.737 301.818C376.444 303.851 374.311 307.268 373.458 309.338C363.662 333.131 340.418 343.957 315.348 339.771C312.022 339.216 308.316 338.323 305.438 336.494Z"/>
	<path transform="scale(1.6 1.6)" d="M225.938 236.884C219.794 233.943 204.568 213.355 200.682 206.893C192.399 193.12 187.87 178.254 195.289 162.88C202.758 147.404 217.141 134.733 233.407 129.196C237.314 127.866 247.201 127.075 249.81 125.429C253.65 123.006 257.356 116.025 260.146 112.331C276.116 91.1829 299.655 78.9451 326.541 80.0288C350.647 81.0004 361.14 91.0833 374.019 110.634C383.17 124.524 389.508 127.394 404.39 134.799C418.478 141.809 431.927 152.014 436.985 167.526C447.764 200.58 428.376 237.813 398.712 253.889L397.443 248.132C407.743 236.257 417.361 234.959 425.423 216.51C429.411 207.347 431.43 197.824 431.594 187.837C432.388 184.061 431.761 179.549 431.561 175.712L430.798 169.692C425.759 142.805 399.956 142.447 383.804 127.067C376.727 120.328 372.487 111.87 366.817 104.088C340.336 67.7437 287.277 80.9437 264.339 114.974C261.206 119.622 257.978 128.917 254.734 132.2L254.372 132.32C249.558 133.855 244.181 133.634 239.226 134.846C223.333 138.731 209.39 150.998 201.838 165.323C191.857 184.255 205.861 204.806 218.22 218.865C221.788 222.924 230.273 229.295 227.144 235.56L225.938 236.884Z"/>
	<path transform="scale(1.6 1.6)" d="M255.423 294.542L259.55 294.081C260.72 295.317 260.662 298.11 260.756 299.732C252.3 303.469 243.237 305.43 234.769 309.292C176.32 335.95 134.58 385.568 133.971 451.163C133.001 468.244 140.64 484.703 157.116 490.988C178.391 499.103 244.621 499.649 270.612 499.656C281.068 499.658 291.522 499.878 301.957 499.103L325.039 499.11C343.561 498.779 362.189 499.453 380.68 498.173C384.855 497.884 389.256 497.916 393.373 497.216C399.89 494.425 428.866 494.154 438.9 492.258L439.95 492.238C446.829 492.731 470.963 487.432 478.396 484.759C482.158 483.406 489.904 479.364 493.42 479.139L496.363 477.147C520.922 461.59 504.355 424.51 495.93 404.609C478.699 363.905 460.879 322.577 417.978 304.205C413.502 302.288 405.417 300.506 401.967 297.653L401.928 297.16C403.333 296.371 405.713 296.785 407.283 296.991C433.712 300.457 459.867 319.753 475.821 340.393C488.379 356.637 494.282 372.937 502.959 390.787C513.59 412.659 520.458 423.148 517.072 448.761C512.773 481.289 491.09 490.647 461.716 496.235C437.319 500.876 412.28 501.364 387.567 502.857C342.012 505.609 300.17 506.458 254.485 506.22C227.654 506.081 194.4 505.93 168.215 502.193C104.948 493.163 125.573 414.02 148.418 375.618C168.322 342.159 201.504 315.767 237.667 301.657C242.242 299.872 251.702 297.365 255.184 294.73L255.423 294.542Z"/>
	<path fill="#FEFEFE" transform="scale(1.6 1.6)" d="M439.95 492.238C446.829 492.731 470.963 487.432 478.396 484.759C482.158 483.406 489.904 479.364 493.42 479.139C465.855 494.706 424.419 495.985 393.373 497.216C399.89 494.425 428.866 494.154 438.9 492.258L439.95 492.238Z"/>
	<path fill="#15BBAB" transform="scale(1.6 1.6)" d="M382.684 300.224C382.922 305.504 386.169 303.771 391.007 305.05C427.743 314.765 449.382 336.783 468.434 369.2C484.047 395.767 499.848 426.426 500.11 457.767C500.153 462.939 500.092 468.329 498.328 473.254L496.363 477.147L493.42 479.139C489.904 479.364 482.158 483.406 478.396 484.759C470.963 487.432 446.829 492.731 439.95 492.238L438.9 492.258C428.866 494.154 399.89 494.425 393.373 497.216C389.256 497.916 384.855 497.884 380.68 498.173C362.189 499.453 343.561 498.779 325.039 499.11L325.481 496.054L327.248 495.432C330.093 492.451 328.092 484.19 328.004 480.457C327.125 443.065 328.112 404.498 328.192 367C328.206 360.594 327.785 354.234 327.884 347.805C354.2 347.116 381.657 328.418 382.684 300.224Z"/>
	<path transform="scale(1.6 1.6)" d="M438.9 492.258L435.352 491.731C432.592 488.524 428.849 420.686 429.816 408.337L430.724 405.86L433.901 404.828L435.961 405.967C437.944 408.581 436.981 415.721 437.079 418.853C437.822 442.601 440.533 468.775 439.95 492.238L438.9 492.258Z"/>
	<path fill="#5661EE" transform="scale(1.6 1.6)" d="M133.971 451.163L134.387 453.356C144.707 390.197 191.621 326.839 252.522 305.36C255.552 304.292 259.063 303.994 261.928 302.622L262.171 302.499C265.462 332.984 300.545 348.121 327.884 347.805C327.785 354.234 328.206 360.594 328.192 367C328.112 404.498 327.125 443.065 328.004 480.457C328.092 484.19 330.093 492.451 327.248 495.432L325.481 496.054L325.039 499.11L301.957 499.103C291.522 499.878 281.068 499.658 270.612 499.656C244.621 499.649 178.391 499.103 157.116 490.988C140.64 484.703 133.001 468.244 133.971 451.163Z"/>
	<path fill="#49A6CF" transform="scale(1.6 1.6)" d="M301.957 499.103L302.325 498.342C304.255 497.278 321.536 496.414 325.481 496.054L325.039 499.11L301.957 499.103Z"/>
	<path transform="scale(1.6 1.6)" d="M206.141 398.521L210.659 399.299C212.341 404.36 211.471 420.403 211.62 426.6C211.783 433.365 213.872 480.572 212.054 484.995L209.608 486.232L208.133 485.87C202.966 484.168 205.096 475.593 205.058 471.444C204.985 463.482 203.974 400.04 204.007 399.975L206.141 398.521Z"/>
	<path fill="#FC615C" transform="scale(1.6 1.6)" d="M254.734 132.2C257.978 128.917 261.206 119.622 264.339 114.974C287.277 80.9437 340.336 67.7437 366.817 104.088C372.487 111.87 376.727 120.328 383.804 127.067C399.956 142.447 425.759 142.805 430.798 169.692L431.561 175.712C431.761 179.549 432.388 184.061 431.594 187.837C431.43 197.824 429.411 207.347 425.423 216.51C417.361 234.959 407.743 236.257 397.443 248.132L398.712 253.889C398.719 265.072 396.337 274.989 388.084 283.141C381.966 289.185 374.837 288.709 366.906 290.134C337.828 295.36 314.444 296.07 285.012 297.746C276.84 298.212 268.994 299.747 260.756 299.732C260.662 298.11 260.72 295.317 259.55 294.081L255.423 294.542C253.851 293.731 252.036 293.233 250.396 292.542C230.531 284.17 224.771 256.61 225.938 236.884L227.144 235.56C230.273 229.295 221.788 222.924 218.22 218.865C205.861 204.806 191.857 184.255 201.838 165.323C209.39 150.998 223.333 138.731 239.226 134.846C244.181 133.634 249.558 133.855 254.372 132.32L254.734 132.2ZM266.185 288.145C275.891 291.321 314.458 267.38 318.017 259.113C313.762 260.536 309.523 264.199 305.816 266.699C294.191 274.539 279.965 284.82 266.185 288.145ZM427.86 183.704C427.494 188.064 424.373 213.851 425.423 216.51C429.411 207.347 431.43 197.824 431.594 187.837L430.037 183.998L428.328 185.903L427.86 183.704Z"/>
	<path fill="#FF8D95" transform="scale(1.6 1.6)" d="M428.449 174.506L428.579 170.85L430.798 169.692L431.561 175.712L428.449 174.506Z"/>
	<path fill="#FECDD3" transform="scale(1.6 1.6)" d="M428.449 174.506L431.561 175.712C431.761 179.549 432.388 184.061 431.594 187.837L430.037 183.998L428.328 185.903L427.86 183.704L428.449 174.506Z"/>
	<path transform="scale(1.6 1.6)" d="M266.185 288.145L264.986 288.214C247.803 287.786 255.218 262.852 257.226 253.567C263.423 224.923 260.613 220.247 240.389 198.37C234.292 191.773 223.073 179.062 223.646 169.837C224.158 161.569 234.388 162.711 240.148 162.751C251.641 162.83 264.464 162.882 274.953 157.545C295.269 147.208 289.617 118.128 305.826 104.011C325.514 86.8634 338.128 120.653 344.083 134.754C346.355 140.134 348.386 146.221 352.094 150.812L352.373 151.15C367.947 152.845 416.604 152.978 418.374 170.273C418.833 174.757 414.767 178.176 412.121 181.27L412.655 181.767C410.936 186.866 386.296 203.344 380.703 208.688C378.352 210.934 376.969 213.604 375.154 216.24C373.384 221.026 374.45 228.509 372.911 231.249L372.947 231.621C374.016 241.611 390.621 284.46 373.047 285.67C358.66 286.66 341.199 273.628 329.641 265.945C326.235 263.681 322.504 260.594 318.616 259.327L318.017 259.113C313.762 260.536 309.523 264.199 305.816 266.699C294.191 274.539 279.965 284.82 266.185 288.145Z"/>
	<path fill="#C0B864" transform="scale(1.6 1.6)" d="M296.705 140.442C299.146 146.197 289.684 156.769 286.258 160.503L285.924 160.969L280.048 163.81L279.164 163.092C288.604 156.148 291.904 151.043 296.705 140.442Z"/>
	<path fill="#FEFEFE" transform="scale(1.6 1.6)" d="M412.121 181.27L412.655 181.767C410.936 186.866 386.296 203.344 380.703 208.688C378.352 210.934 376.969 213.604 375.154 216.24C373.384 221.026 374.45 228.509 372.911 231.249C372.011 227.116 371.348 222.491 371.854 218.277C373.807 207.766 385.51 202.348 393.329 196.506C399.777 191.688 406.13 186.649 412.121 181.27Z"/>
	<path fill="#FED45E" transform="scale(1.6 1.6)" d="M296.705 140.442C300.884 130.056 303.253 112.899 314.551 107.873L317.809 106.75C326.39 113.041 334.342 131.69 338.727 141.498C342.115 149.075 344.332 157.131 353.43 158.689L375.154 159.713C381.131 160.309 387.572 161.225 393.255 163.196C398.82 164.328 404.796 166.449 409.388 169.845L410.105 170.519C410.167 174.666 391.127 189.587 387.756 192.255C377.109 200.686 364.766 207.116 364.984 222.513C365.206 238.257 375.861 264.423 373.184 277.876C358.963 278.062 342.553 265.641 331.467 257.785C327.031 254.642 322.653 250.861 317.641 248.705L317.315 248.894C314.003 250.891 311.208 253.805 308.105 256.124C300.209 262.022 273.197 282.048 264.088 279.946C262.87 279.665 261.95 278.36 261.2 277.417C258.039 259.487 277.529 239.131 263.256 212.912C257.967 203.198 231.057 178.314 231.793 171.368L235.013 170.11C249.91 169.093 265.635 171.042 279.164 163.092L280.048 163.81L285.924 160.969L286.258 160.503C289.684 156.769 299.146 146.197 296.705 140.442Z"/>
	<path fill="#FEFEFE" transform="scale(1.6 1.6)" d="M353.43 158.689L375.154 159.713C381.131 160.309 387.572 161.225 393.255 163.196C398.82 164.328 404.796 166.449 409.388 169.845L408.705 170.348C408.473 170.389 377.109 163.589 371.678 162.931C366.364 162.286 358.903 162.094 353.99 160.422L353.43 158.689Z"/>
	<path fill="#FEFEFE" transform="scale(1.6 1.6)" d="M285.924 160.969L286.372 161.556C284.623 169.04 252.948 174.968 246.035 175.425C242.609 175.651 235.045 176.18 232.975 172.556L234.837 171.456L235.013 170.11C249.91 169.093 265.635 171.042 279.164 163.092L280.048 163.81L285.924 160.969Z"/>
</svg>
