<?xml version="1.0" encoding="utf-8" ?>
<svg width="80" height="80" viewBox="0 0 1000 1000">
	<path fill="#599473" transform="scale(1.6 1.6)" d="M178.068 493.727L178.699 494.062L181.066 497.548C177.262 497.23 173.569 496.941 169.878 495.898L178.068 493.727Z"/>
	<path transform="scale(1.6 1.6)" d="M240.667 195.89C231.273 178.278 228.929 166.12 235.084 145.803C254.727 80.9612 360.863 50.1264 396.737 117.523C409.948 142.344 410.091 170.773 401.814 197.187L400.683 200.344C414.633 208.526 403.531 239.33 385.631 245.53L384.031 245.522C376.196 245.223 388.144 236.139 389.472 234.976C395.057 230.086 402.315 215.045 397.771 207.744L397.097 207.612C394.486 209.059 392.345 213.449 390.711 215.931C390.614 213.052 394.853 199.391 395.795 195.288C406.597 148.225 391.968 89.223 335.394 88.7823L335.556 89.3028C334.237 90.4158 318.781 92.828 316.577 93.0056C308.478 94.8075 300.626 97.3111 292.839 100.17C287.278 102.211 270.939 110.069 266.567 110.203C253.658 119.157 242.988 139.834 240.29 155.002C237.117 172.842 241.908 191.16 248.951 207.466L251.051 212.896L251.755 218.795L242.91 203.158C237.526 212.851 244.127 227.151 251.73 233.776C259.868 240.868 258.612 241.084 262.326 251.477C266.916 264.321 275.817 274.081 287.711 280.627L298.391 285.706C309.327 290.401 322.464 297.333 334.488 295.204C349.515 292.543 364.976 278.371 373.508 266.193L372.404 275.18C373.611 279.243 376.2 283.243 379.959 285.351L385.254 287.069C372.424 303.107 363.777 310.824 347.781 323.526L354.777 324.551C348.386 327.956 343.032 328.737 335.863 329.202C316.197 328.685 289.773 308.771 275.453 296.736C273.811 295.355 270.126 292.93 269.162 291.059L268.439 287.118L270.069 283.644C265.817 276.335 260.708 268.433 258.358 260.271C257.147 256.064 257.345 247.848 255.851 245.042C237.948 241.773 225.071 211.863 240.667 195.89Z"/>
	<defs>
		<linearGradient id="gradient_0" gradientUnits="userSpaceOnUse" x1="333.41019" y1="90.143471" x2="324.99442" y2="89.844246">
			<stop offset="0" stop-color="#FF858B"/>
			<stop offset="1" stop-color="#FFABAA"/>
		</linearGradient>
	</defs>
	<path fill="url(#gradient_0)" transform="scale(1.6 1.6)" d="M314.921 90.614C321.525 89.0798 328.635 88.8009 335.394 88.7823L335.556 89.3028C334.237 90.4158 318.781 92.828 316.577 93.0056C317.048 91.5084 322.912 91.8862 324.443 90.8734L324.867 89.8843L314.921 90.614Z"/>
	<path fill="#FEFEFE" transform="scale(1.6 1.6)" d="M314.921 90.614L324.867 89.8843L324.443 90.8734C322.912 91.8862 317.048 91.5084 316.577 93.0056C308.478 94.8075 300.626 97.3111 292.839 100.17C287.278 102.211 270.939 110.069 266.567 110.203C276.625 101.311 302.357 92.9913 314.921 90.614Z"/>
	<path fill="#FED45E" transform="scale(1.6 1.6)" d="M255.851 245.042L256.71 245.043C261.589 250.39 261.055 267.591 276.165 280.844C287.603 290.876 314.092 300.174 329.211 300.777C344.941 301.405 364.492 288.995 372.404 275.18C373.611 279.243 376.2 283.243 379.959 285.351L385.254 287.069C372.424 303.107 363.777 310.824 347.781 323.526L354.777 324.551C348.386 327.956 343.032 328.737 335.863 329.202C316.197 328.685 289.773 308.771 275.453 296.736C273.811 295.355 270.126 292.93 269.162 291.059L268.439 287.118L270.069 283.644C265.817 276.335 260.708 268.433 258.358 260.271C257.147 256.064 257.345 247.848 255.851 245.042Z"/>
	<path fill="#FC615C" transform="scale(1.6 1.6)" d="M335.394 88.7823C391.968 89.223 406.597 148.225 395.795 195.288C394.853 199.391 390.614 213.052 390.711 215.931L386.464 222.933C389.482 210.776 379.437 202.28 374.585 192.261C361.184 164.588 364.714 159.332 330.155 151.135C323.919 149.655 318.265 148.101 313.144 144.092L311.569 145.118C297.598 159.848 277.46 158.358 266.624 172.822C261.927 179.092 259.128 186.744 257.437 194.331C257.09 195.888 256.278 204.22 254.912 204.306L253.225 204.309L251.051 212.896L248.951 207.466C241.908 191.16 237.117 172.842 240.29 155.002C242.988 139.834 253.658 119.157 266.567 110.203C270.939 110.069 287.278 102.211 292.839 100.17C300.626 97.3111 308.478 94.8075 316.577 93.0056C318.781 92.828 334.237 90.4158 335.556 89.3028L335.394 88.7823Z"/>
	<path fill="#FF9886" transform="scale(1.6 1.6)" d="M249.889 201.75C250.842 202.821 251.706 204.12 253.225 204.309L251.051 212.896L248.951 207.466L249.889 201.75Z"/>
	<path transform="scale(1.6 1.6)" d="M313.278 129.657C318.318 129.705 322.282 135.086 326.844 137.085C336.27 141.216 347.332 141.464 356.223 146.756C368.505 154.064 375.741 170.241 379.031 183.564C379.599 185.865 381.995 196.859 380.842 198.768L380.518 198.033C379.028 193.322 376.933 188.725 375.209 184.082C358.519 139.152 347.422 157.956 316.637 139.288C312.018 136.487 308.397 134.53 313.278 129.657Z"/>
	<path fill="#FED45E" transform="scale(1.6 1.6)" d="M311.569 145.118L313.144 144.092C318.265 148.101 323.919 149.655 330.155 151.135C364.714 159.332 361.184 164.588 374.585 192.261C379.437 202.28 389.482 210.776 386.464 222.933L390.711 215.931C392.345 213.449 394.486 209.059 397.097 207.612L397.771 207.744C402.315 215.045 395.057 230.086 389.472 234.976C388.144 236.139 376.196 245.223 384.031 245.522L385.631 245.53C380.69 251.292 376.973 258.327 374.021 265.307L373.508 266.193C364.976 278.371 349.515 292.543 334.488 295.204C322.464 297.333 309.327 290.401 298.391 285.706L287.711 280.627C275.817 274.081 266.916 264.321 262.326 251.477C258.612 241.084 259.868 240.868 251.73 233.776C244.127 227.151 237.526 212.851 242.91 203.158L251.755 218.795L251.051 212.896L253.225 204.309L254.912 204.306C256.278 204.22 257.09 195.888 257.437 194.331C259.128 186.744 261.927 179.092 266.624 172.822C277.46 158.358 297.598 159.848 311.569 145.118Z"/>
	<path fill="#FEE8B5" transform="scale(1.6 1.6)" d="M254.108 204.337C256.495 207.115 259.813 209.195 262.331 211.988C270.885 221.478 289.211 255.677 282.461 268.704L281.738 268.951C268.107 262.443 264.871 226.52 256.213 212.127C255.187 210.42 253.746 208.602 253.039 206.757L254.108 204.337Z"/>
	<path fill="#FEC217" transform="scale(1.6 1.6)" d="M298.391 285.706C302.841 284.273 307.982 285.409 312.613 285.383C333.819 285.264 340.748 281.26 358.85 271.474C362.033 269.754 366.589 268.599 368.495 265.35C372.414 258.669 373.464 250.489 377.25 243.835L377.429 243.531C376.36 247.173 369.192 264.393 374.021 265.307L373.508 266.193C364.976 278.371 349.515 292.543 334.488 295.204C322.464 297.333 309.327 290.401 298.391 285.706Z"/>
	<path fill="#15BBAB" transform="scale(1.6 1.6)" d="M385.254 287.069C395.82 285.55 407.323 292.081 416.788 295.841C468.625 316.435 497.641 326.421 514.685 383.989C521.766 407.904 531.128 447.868 515.252 468.981C512.035 473.258 508.542 476.591 502.995 477.399L501.475 477.573C488.054 479.037 470.09 476.354 457.978 480.408L456.849 479.56C462.602 417.532 418.996 367.973 359.32 355.781L351.428 354.75C341.33 352.883 330.701 353.317 320.47 352.796L315.457 352.049L317.663 351.457L314.319 351.225C305.89 351.35 297.205 351.882 289.036 354.082C279.94 356.056 271.043 358.581 262.459 362.205L261.929 363.807C259.222 366.143 255.725 366.729 253.079 369.534L242.371 375.214L241.657 372.658L238.142 374.774C229.101 380.187 220.006 386.207 212.78 393.983C195.648 412.418 172.469 466.399 178.699 494.062L178.068 493.727L169.878 495.898C149.723 493.26 130.935 480.199 124.986 460.164C118.084 436.915 127.675 405.998 138.901 385.31C163.116 340.684 198.843 315.654 244.999 296.636C252.665 293.478 260.519 289.461 268.439 287.118L269.162 291.059C270.126 292.93 273.811 295.355 275.453 296.736C289.773 308.771 316.197 328.685 335.863 329.202C343.032 328.737 348.386 327.956 354.777 324.551L347.781 323.526C363.777 310.824 372.424 303.107 385.254 287.069Z"/>
	<defs>
		<linearGradient id="gradient_1" gradientUnits="userSpaceOnUse" x1="242.24034" y1="369.72693" x2="255.86862" y2="369.9603">
			<stop offset="0" stop-color="#100046"/>
			<stop offset="1" stop-color="#460D8D"/>
		</linearGradient>
	</defs>
	<path fill="url(#gradient_1)" transform="scale(1.6 1.6)" d="M241.657 372.658C248.392 368.711 255.266 365.241 262.459 362.205L261.929 363.807C259.222 366.143 255.725 366.729 253.079 369.534L242.371 375.214L241.657 372.658Z"/>
	<path fill="#78C1CA" transform="scale(1.6 1.6)" d="M314.319 351.225C321.741 350.346 348.878 350.061 355.226 351.824L346.295 351.465L346.544 353.543L359.32 355.781L351.428 354.75C341.33 352.883 330.701 353.317 320.47 352.796L315.457 352.049L317.663 351.457L314.319 351.225Z"/>
	<path fill="#ACFAFC" transform="scale(1.6 1.6)" d="M178.392 395.976L178.525 396.069C177.65 398.188 174.091 401.417 172.545 403.422C158.127 422.12 153.192 440.951 141.298 459.965L141.139 459.345C153.156 438.718 155.693 411.442 178.392 395.976Z"/>
	<path transform="scale(1.6 1.6)" d="M385.254 287.069C395.82 285.55 407.323 292.081 416.788 295.841C468.625 316.435 497.641 326.421 514.685 383.989C521.766 407.904 531.128 447.868 515.252 468.981C512.035 473.258 508.542 476.591 502.995 477.399L501.475 477.573C501.613 469.925 509.073 461.29 511.699 453.609C521.697 424.363 503.792 363.276 480.465 340.032C461.072 320.706 418.6 305.145 391.151 295.91C386.126 305.873 365.317 324.899 354.777 324.551L347.781 323.526C363.777 310.824 372.424 303.107 385.254 287.069Z"/>
	<path transform="scale(1.6 1.6)" d="M169.878 495.898C149.723 493.26 130.935 480.199 124.986 460.164C118.084 436.915 127.675 405.998 138.901 385.31C163.116 340.684 198.843 315.654 244.999 296.636C252.665 293.478 260.519 289.461 268.439 287.118L269.162 291.059C270.126 292.93 273.811 295.355 275.453 296.736C289.773 308.771 316.197 328.685 335.863 329.202L335.432 329.386C328.527 332.126 307.834 329.291 301.368 326.18C291.09 321.234 272.123 306.984 267.864 295.657L267.567 293.754C264.65 294.552 261.542 296.755 258.871 298.213C244.488 306.064 229.083 311.776 214.81 319.851C187.314 335.406 164.001 358.605 148.354 386.035C138.993 402.445 127.082 432.37 132.265 450.873C135.797 463.482 147.454 475.835 158.577 481.908C163.98 484.858 175.542 488.317 178.068 493.727L169.878 495.898Z"/>
	<path fill="#5661EE" transform="scale(1.6 1.6)" d="M289.036 354.082C297.205 351.882 305.89 351.35 314.319 351.225L317.663 351.457L315.457 352.049L320.47 352.796C330.701 353.317 341.33 352.883 351.428 354.75L359.32 355.781C418.996 367.973 462.602 417.532 456.849 479.56L457.978 480.408C453.942 513.223 418.027 510.394 393.653 511.573C369.318 512.749 344.953 513.402 320.583 512.726C292.356 511.942 264.154 509.424 235.919 508.804C220.206 508.458 191.684 512.081 181.423 498.076L181.066 497.548L178.699 494.062C172.469 466.399 195.648 412.418 212.78 393.983C220.006 386.207 229.101 380.187 238.142 374.774L241.657 372.658L242.371 375.214L253.079 369.534C255.725 366.729 259.222 366.143 261.929 363.807L262.459 362.205C271.043 358.581 279.94 356.056 289.036 354.082Z"/>
	<path transform="scale(1.6 1.6)" d="M297.726 374.201L298.197 374.17C286.207 378.821 273.971 382.445 262.128 387.564C253.082 391.474 228.8 407.216 219.118 401.884L217.029 400.147C230.93 404.611 251.165 390.319 264.136 385.083C275.069 380.67 286.261 376.972 297.726 374.201Z"/>
	<path fill="#FEFEFE" transform="scale(1.6 1.6)" d="M255.653 403.565L255.78 403.871C233.593 414.3 225.067 430.24 214.493 451.612L214.301 451.405C213.623 447.318 218.138 438.694 220.173 435.22C228.4 421.174 239.319 407.811 255.653 403.565Z"/>
	<defs>
		<linearGradient id="gradient_2" gradientUnits="userSpaceOnUse" x1="296.32043" y1="366.82092" x2="291.22995" y2="352.24393">
			<stop offset="0" stop-color="#2F25D7"/>
			<stop offset="1" stop-color="#494CE9"/>
		</linearGradient>
	</defs>
	<path fill="url(#gradient_2)" transform="scale(1.6 1.6)" d="M289.036 354.082C297.205 351.882 305.89 351.35 314.319 351.225L317.663 351.457L315.457 352.049L320.47 352.796C330.701 353.317 341.33 352.883 351.428 354.75L347.008 354.901L351.607 356.025C332.462 353.379 306.758 354.337 287.885 358.544C281.472 359.973 255.563 369.808 253.079 369.534C255.725 366.729 259.222 366.143 261.929 363.807L262.459 362.205C271.043 358.581 279.94 356.056 289.036 354.082Z"/>
	<path fill="#A8C6E8" transform="scale(1.6 1.6)" d="M289.036 354.082C297.205 351.882 305.89 351.35 314.319 351.225L317.663 351.457L315.457 352.049L320.47 352.796L289.036 354.082Z"/>
	<path transform="scale(1.6 1.6)" d="M238.142 374.774L241.657 372.658L242.371 375.214L239.361 376.974C225.622 385.805 223.336 387.282 215.197 400.553C205.365 416.586 176.392 473.274 188.773 492.354C194.059 500.501 208.61 498.98 216.946 499.299C229.829 499.793 242.713 499.936 255.597 500.378C290.112 501.562 324.443 504.104 359.029 503.206C376.945 502.741 395.376 502.818 413.112 501.846C434.928 500.651 444.71 498.666 455.287 478.642L456.849 479.56L457.978 480.408C453.942 513.223 418.027 510.394 393.653 511.573C369.318 512.749 344.953 513.402 320.583 512.726C292.356 511.942 264.154 509.424 235.919 508.804C220.206 508.458 191.684 512.081 181.423 498.076L181.066 497.548L178.699 494.062C172.469 466.399 195.648 412.418 212.78 393.983C220.006 386.207 229.101 380.187 238.142 374.774Z"/>
</svg>
