<?xml version="1.0" encoding="utf-8" ?>
<svg width="100" height="100" viewBox="0 0 900 900">

	<path transform="scale(1.6 1.6)" d="M474.271 309.36C469.884 322.434 456.177 329.569 453.477 343.643C467.572 338.801 483.483 345.187 496.176 351.384C523.74 364.842 545.929 387.892 556.028 417.131C562.362 435.467 564.014 466.473 541.169 474.238C528.297 478.614 513.716 477.151 500.341 477.895C454.869 480.422 415.31 483.277 369.045 477.014C363.751 476.297 358.275 475.186 352.923 475.214C346.38 483.168 332.656 482.247 323.492 483.287C299.488 486.012 274.19 489.645 250.223 491.398C225.484 493.207 200.687 493.335 175.892 493.348C161.496 493.356 146.299 494.019 132.124 491.28C34.0154 472.32 97.7213 358.748 169.883 352.747L170.804 352.687L171.698 352.563C181.318 352.332 187.592 350.127 194.669 343.646C209.596 347.831 221.738 346.854 235.866 340.355C237.318 341.612 239.228 341.477 240.281 343.092C251.249 339.123 277.079 347.819 288.008 352.926C299.893 358.479 310.398 365.823 319.947 374.787C336.856 360.928 366.324 347.091 387.48 345.284C391.317 344.956 395.085 345.226 398.914 345.181L401.126 344.828L400.235 343.419C398.112 339.925 401.587 338.237 402.294 335.305L400.755 333.6C423.795 343.307 447.484 335.027 465.492 318.611C468.64 315.741 471.284 312.389 474.271 309.36Z"/>
	<path fill="#4DE7DA" transform="scale(1.6 1.6)" d="M106.594 397.613C119.073 382.92 133.04 371.465 151.266 364.489C186.383 351.049 185.209 369.397 208.383 389.242C201.881 394.436 185.374 371.531 173.776 370.689C162.158 369.846 133.259 383.061 123.864 388.663C120.482 390.68 110.387 400.042 106.594 397.613Z"/>
	<path fill="#4DE7DA" transform="scale(1.6 1.6)" d="M324.54 380.752C334.568 372.85 350.254 362.914 362.111 358.483C370.212 355.456 391.428 349.733 399.959 353.877C408.401 357.977 417.753 374.07 426.628 382.031C422.006 383.691 417.391 379.068 414.128 376.382C398.487 363.509 399.497 356.937 377.244 364.92C366.486 368.779 355.623 374.501 346.373 381.211C342.308 384.158 337.322 389.048 332.923 391.143L324.54 380.752Z"/>
	<path fill="#FED45E" transform="scale(1.6 1.6)" d="M194.669 343.646C209.596 347.831 221.738 346.854 235.866 340.355C237.318 341.612 239.228 341.477 240.281 343.092L237.112 346.924L238.696 349.086C237.028 352.618 234.185 354.964 232.384 358.284C230.919 360.985 230.526 364.126 229.34 366.943C226.314 374.126 220.653 380.345 215.218 385.803C201.969 374.233 190.371 352.926 170.804 352.687L171.698 352.563C181.318 352.332 187.592 350.127 194.669 343.646Z"/>
	<path fill="#FED45E" transform="scale(1.6 1.6)" d="M474.271 309.36C469.884 322.434 456.177 329.569 453.477 343.643C445.79 346.895 441.831 366.743 431.622 376.217C421.167 367.127 412.955 349.039 398.914 345.181L401.126 344.828L400.235 343.419C398.112 339.925 401.587 338.237 402.294 335.305L400.755 333.6C423.795 343.307 447.484 335.027 465.492 318.611C468.64 315.741 471.284 312.389 474.271 309.36Z"/>
	<path fill="#15BBAB" transform="scale(1.6 1.6)" d="M426.628 382.031L427.015 382.304C437.69 389.732 447.934 367.481 451.177 360.33C454.918 352.079 454.11 349.559 464.258 349.647C501.803 349.976 543.633 391.636 551.441 426.732C555.625 445.54 553.946 468.722 531.744 473.395C520.8 475.698 507.43 475.399 496.062 476.238C488.298 476.16 480.259 477.193 472.423 477.38C444.15 478.055 412.97 478.17 384.644 476.078C374.312 475.315 364.038 474.195 353.683 473.666L354.991 470.94L356.769 462.816C360.307 436.992 348.282 411.223 332.923 391.143C337.322 389.048 342.308 384.158 346.373 381.211C355.623 374.501 366.486 368.779 377.244 364.92C399.497 356.937 398.487 363.509 414.128 376.382C417.391 379.068 422.006 383.691 426.628 382.031Z"/>
	<path transform="scale(1.6 1.6)" d="M386.488 471.986C382.662 465.439 379.579 443.844 381.572 435.912L382.762 433.95C390.536 432.287 388.418 441.674 388.645 446.491C389.044 454.941 389.357 463.492 390.015 471.918L388.97 473.22L386.488 471.986Z"/>
	<path transform="scale(1.6 1.6)" d="M495.165 471.093C493.039 461.203 495.406 450.673 493.692 440.759C493.069 437.16 490.154 430.132 495.989 428.898L497.679 429.339C503.36 433.777 501.091 466.771 497.027 471.106L496.256 471.448L495.165 471.093Z"/>
	<path fill="#4DE7DA" transform="scale(1.6 1.6)" d="M390.015 471.918C422.086 471.696 454.3 471.655 486.333 471.29C489.263 471.256 492.248 470.912 495.165 471.093L496.256 471.448C496.541 471.858 496.975 474.316 497.706 475.672L496.062 476.238C488.298 476.16 480.259 477.193 472.423 477.38C444.15 478.055 412.97 478.17 384.644 476.078C374.312 475.315 364.038 474.195 353.683 473.666L354.991 470.94L386.488 471.986L388.97 473.22L390.015 471.918Z"/>
	<path fill="#15BBAB" transform="scale(1.6 1.6)" d="M245.509 350.261C278.529 352.653 302.18 365.691 323.303 390.057C339.575 408.827 352.773 433.375 350.847 458.879C349.228 480.318 336.547 479.052 319.533 480.986C310.673 481.992 301.71 483.126 292.809 483.673C288.097 483.805 283.268 484.57 278.579 485.104C246.709 488.732 215.054 488.521 183.01 488.539C160.964 488.551 134.815 491.695 114.271 481.779C110.748 481.164 102.961 475.062 100.029 472.456C77.8389 452.73 89.5513 416.712 106.594 397.613C110.387 400.042 120.482 390.68 123.864 388.663C133.259 383.061 162.158 369.846 173.776 370.689C185.374 371.531 201.881 394.436 208.383 389.242C211.034 391.029 213.024 392.52 216.387 391.94C230.55 389.495 241.331 362.183 245.509 350.261Z"/>
	<path transform="scale(1.6 1.6)" d="M272.58 432.748L274.678 433.076C284.918 437.129 280.899 467.193 276.706 477.62L276.048 478.283C276.042 468.905 273.124 457.236 272.74 446.962C272.664 444.91 272.865 442.553 272.505 440.547L270.698 440.283L272.58 432.748Z"/>
	<path transform="scale(1.6 1.6)" d="M150.892 483.424L147.029 475.708C144.612 468.776 143.482 446.586 144.164 437.922C144.53 433.274 150.974 432.144 151.86 436.742C152.268 438.858 151.675 441.574 151.594 443.745C151.294 451.692 151.482 459.684 152.336 467.59C152.895 472.77 153.979 478.046 154.067 483.248L152.521 484.549L150.892 483.424Z"/>
	<path fill="#4DE7DA" transform="scale(1.6 1.6)" d="M154.067 483.248C159.499 482.886 164.884 481.685 170.252 480.823C198.146 476.343 240.727 475.816 268.6 479.582C271.93 480.032 275.236 480.716 278.575 481.091C280.932 481.355 291.374 481.166 292.593 482.023L292.809 483.673C288.097 483.805 283.268 484.57 278.579 485.104C246.709 488.732 215.054 488.521 183.01 488.539C160.964 488.551 134.815 491.695 114.271 481.779C117.933 479.982 129.572 483.128 133.85 483.409C139.528 483.782 145.221 483.236 150.892 483.424L152.521 484.549L154.067 483.248Z"/>
	<path transform="scale(1.6 1.6)" d="M246.075 177.807C247.266 159.758 263.417 139.27 279.72 132.781C294.103 127.056 331.014 126.669 337.907 144.091C341.894 145.848 346.531 146.611 350.743 147.694C363.131 150.878 375.766 155.829 384.151 165.923C403.901 151.243 436.089 143.35 457.139 159.552C461.014 162.534 464.215 166.282 468.108 169.233C473.09 173.008 479.067 175.689 484.278 179.247C529.851 210.355 498.389 274.353 474.271 309.36C471.284 312.389 468.64 315.741 465.492 318.611C447.484 335.027 423.795 343.307 400.755 333.6L402.294 335.305C401.587 338.237 398.112 339.925 400.235 343.419L401.126 344.828L398.914 345.181C395.085 345.226 391.317 344.956 387.48 345.284C366.324 347.091 336.856 360.928 319.947 374.787C310.398 365.823 299.893 358.479 288.008 352.926C277.079 347.819 251.249 339.123 240.281 343.092C239.228 341.477 237.318 341.612 235.866 340.355C221.738 346.854 209.596 347.831 194.669 343.646C166.453 333.66 150.461 307.099 137.279 282.04C129.667 267.569 130.609 268.967 131.582 252.926C132.863 231.812 135.84 211.638 149.635 194.557C163.077 177.913 187.365 166.137 208.508 163.946C222.77 162.468 235.296 169.026 246.075 177.807Z"/>
	<path fill="#FC615C" transform="scale(1.6 1.6)" d="M361.315 292.173C370.806 305.661 375.341 315.335 389.7 326.427C393.101 329.055 396.946 330.887 400.404 333.347L400.755 333.6L402.294 335.305C401.587 338.237 398.112 339.925 400.235 343.419L401.126 344.828L398.914 345.181C395.085 345.226 391.317 344.956 387.48 345.284C366.324 347.091 336.856 360.928 319.947 374.787C310.398 365.823 299.893 358.479 288.008 352.926C277.079 347.819 251.249 339.123 240.281 343.092C239.228 341.477 237.318 341.612 235.866 340.355L242.649 336.71C258.576 328.04 264.371 313.67 269.261 297.085L270.028 298.074C293.71 327.28 336.893 312.514 361.315 292.173Z"/>
	<path fill="#FC615C" transform="scale(1.6 1.6)" d="M334.295 200.244C340.466 207.36 347.705 212.653 355.434 217.909C352.277 248 345.839 252.216 357.534 285.56C338.584 300.987 313.279 314.234 288.806 303.177C282.017 299.533 276.482 294.297 272.299 287.845C273.428 281.512 276.347 275.972 278.116 269.855C283.846 250.031 283.735 234.931 281.07 214.728C283.325 212.351 285.558 210.372 288.315 208.588L288.531 209.036C290.192 212.393 291.553 219.62 293.892 222.002L296.558 222.959C305.175 222.912 328.019 206.518 334.295 200.244Z"/>
	<path transform="scale(1.6 1.6)" d="M327.517 272.18C329.335 272.137 331.152 272.292 332.666 273.425L333.585 274.967L332.273 278.172C321.948 291.589 303.341 296.19 289.482 285.578C287.15 283.383 286.04 281.366 285.128 278.341L286.688 275.126C292.379 277.588 296.273 282.149 302.696 283.405C315.591 285.926 319.157 277.748 327.204 272.382L327.517 272.18Z"/>
	<path fill="#5661EE" transform="scale(1.6 1.6)" d="M297.078 135.132C303.976 134.578 330.591 136.865 332.85 145.258L333.081 146.423C333.575 148.934 340.015 150.376 342.062 151.072C359.395 156.96 366.112 156.021 380.423 169.438C367.691 181.126 363.699 194.659 357.905 210.212C354.508 208.316 351.396 206.186 348.43 203.661C336.469 193.477 339.557 186.942 327.32 197.28C318.702 204.832 309.629 210.893 298.972 215.221C297.189 195.065 287.15 198.35 276.94 210.753C269.499 198.616 261.051 192.18 251.125 182.616C256.678 157.036 268.45 137.134 297.078 135.132Z"/>
	<path fill="#5661EE" transform="scale(1.6 1.6)" d="M209.734 168.878L211.251 168.812C226.366 168.609 237.42 177.946 247.99 187.543C269.484 207.058 276.258 211.524 276.21 243.274C272.484 242.221 268.62 241.665 264.904 240.549C261.648 239.571 258.403 237.902 255.052 237.355C245.245 235.752 230.326 241.449 220.356 243.703L217.784 234.385L215.819 232.717C211.683 231.38 207.549 239.774 204.603 241.946C201.398 244.309 197.611 245.877 194.004 247.516L184.935 251.304L184.081 241.399C183.318 238.237 178.992 237.585 176.48 238.934C173.599 240.481 171.376 243.814 169.027 246.086C160.172 254.655 150.833 260.108 139.01 263.427C137.863 240.892 139.954 215.134 155.375 197.331C168.081 182.662 190.453 170.344 209.734 168.878Z"/>
	<path fill="#5661EE" transform="scale(1.6 1.6)" d="M425.522 156.384L433.96 156.371C446.14 157.257 452.711 164.786 462.137 171.395C471.466 177.936 482.517 182.573 490.07 191.394C500.112 203.124 501.956 216.864 500.73 231.706C495.296 230.38 489.93 229.125 484.328 228.756C477.678 228.317 466.815 229.484 460.863 227.341C456.04 225.605 454.131 217.133 449.781 215.529C446.568 214.344 443.227 220.719 441.267 222.363C435.816 226.938 428.322 229.509 421.829 232.197C416.67 234.333 410.716 237.315 405.176 237.994L403.692 227.251L401.879 226.139C395.643 222.617 392.978 226.599 388.12 230.192C378.824 237.069 369.32 244.439 358.057 247.624C361.355 204.615 375.043 159.348 425.522 156.384Z"/>
	<path fill="#FED45E" transform="scale(1.6 1.6)" d="M246.49 244.818C254.58 244.33 265.972 249.03 274.862 249.819C273.442 261.608 269.206 272.063 265.815 283.299C261.365 298.043 258.012 313.419 246.603 324.649C237.191 333.914 223.642 338.915 210.514 338.795C193.612 338.64 180.028 328.421 168.681 316.895C159.857 307.215 153.011 297.183 147.702 285.181C145.65 280.541 144.015 274.898 141.262 270.661C157.307 265.451 165.666 260.393 176.972 247.814C178.439 256.724 183.151 257.993 184.476 265.143C187.936 264.354 186.679 259.597 189.213 257.586C195.725 252.42 205.194 250.529 211.562 245.285L214.247 248.962C219.319 253.482 237.508 245.456 246.49 244.818Z"/>
	<path transform="scale(1.6 1.6)" d="M228.643 301.529L232.158 303.815C233.524 311.965 212.069 319.594 205.702 320.348C197.333 321.34 190.2 319.841 183.542 314.603L180.247 310.403C181.793 308.103 183.452 307.271 186.003 306.413C189.823 308.55 192.196 311.47 196.699 312.563C210.462 315.903 218.104 307.738 228.273 301.745L228.643 301.529Z"/>
	<path fill="#FED45E" transform="scale(1.6 1.6)" d="M447.19 226.852C460.69 238.469 467.677 234.283 483.81 235.071C489.16 235.333 494.398 236.804 499.588 238.03C494.317 261.009 484.42 286.15 469.154 304.547C451.816 325.44 427.378 339.031 401.37 324.866C376.667 311.331 359.989 281.828 358.109 254.287C372.269 252.034 386.245 240.021 397.162 231.114C397.861 252.299 407.277 245.674 420.308 240.248C429.092 236.591 439.966 233.33 447.19 226.852Z"/>
	<path transform="scale(1.6 1.6)" d="M442.617 291.204L444.976 291.428C446.229 291.748 447.861 292.047 448.437 293.369L448.462 295.412C446.946 300.014 439.244 303.885 435.143 305.792C425.444 310.303 414.552 312.451 404.253 308.682L400.335 306.183C399.654 305.373 399.055 304.237 399.292 303.147L400.853 301.162C407.683 296.655 417.01 310.535 434.535 297.385C437.143 295.428 439.525 293.127 442.296 291.399L442.617 291.204Z"/>

</svg>
