<?xml version="1.0" encoding="utf-8" ?>
<svg  width="1024" height="1024" viewBox="0 0 700 700>
	<path fill="#BEBBCB" transform="scale(1.6 1.6)" d="M147.283 469.597L147.806 470C147.08 472.058 135.66 480.069 133.078 482.284L132.747 481.865C137.005 477.19 141.681 472.644 147.283 469.597Z"/>
	<path fill="#F4F1DE" transform="scale(1.6 1.6)" d="M115.175 439.617L116.094 439.682C120.888 440.744 108.666 447.152 105.601 450.195L103.636 451.562C106.61 447.537 111.151 442.411 115.175 439.617Z"/>
	<path fill="#BEBBCB" transform="scale(1.6 1.6)" d="M317.863 531.866L318.906 531.965C316.463 534.439 312.692 536.258 309.899 538.395C304.619 542.435 299.556 547.277 294.846 551.965L294.021 552.031C299.646 546.29 310.364 534.362 317.863 531.866Z"/>
	<path fill="#BEBBCB" transform="scale(1.6 1.6)" d="M168.958 483.174L168.932 483.552C165.118 488.497 158.837 492.85 153.629 496.218L153.542 495.417C158.27 490.559 163.12 486.652 168.958 483.174Z"/>
	<path fill="#F4F1DE" transform="scale(1.6 1.6)" d="M226.368 523.143L227.031 523.215C220.71 526.905 216.552 532.731 210.809 537.023L210.238 536.913C210.687 532.154 222.027 524.217 226.368 523.143Z"/>
	<path fill="#BEBBCB" transform="scale(1.6 1.6)" d="M158.1 472.47L158.455 472.596C158.395 473.488 142.3 485.359 138.874 488.484L138.44 488.281C143.534 481.354 150.319 476.026 158.1 472.47Z"/>
	<path fill="#BEBBCB" transform="scale(1.6 1.6)" d="M184.467 491.847C182.427 494.964 170.984 504.039 168.104 505.496L167.506 504.062C170.802 499.434 179.436 494.137 184.278 491.64L184.467 491.847Z"/>
	<path fill="#F4F1DE" transform="scale(1.6 1.6)" d="M202.739 505.285L203.594 505.581L184.797 519.756L184.067 519.531C188.037 512.728 195.77 508.435 202.739 505.285Z"/>
	<path fill="#F4F1DE" transform="scale(1.6 1.6)" d="M127.897 450.975L129.858 451.719C126.388 455.949 117.678 461.043 112.665 466.357L111.412 467.031C114.588 460.981 122.008 454.174 127.897 450.975Z"/>
	<path fill="#F4F1DE" transform="scale(1.6 1.6)" d="M135.093 459.883L135.758 460.646C134.829 464.936 124.72 474.16 120.804 476.669L120.293 476.25C124.384 470.677 129.794 464.43 135.093 459.883Z"/>
	<path fill="#3D405B" transform="scale(1.6 1.6)" d="M352.354 102.76C356.849 103.045 360.421 103.87 365.077 102.731C366.675 102.34 368.542 101.077 370.179 101.406C370.75 103.119 369.366 105.443 367.637 105.86L367.285 105.902L354.296 105.185L348.562 105.309C348.825 104.172 349.246 103.304 349.827 102.305L352.354 102.76Z"/>
	<path fill="#7D747A" transform="scale(1.6 1.6)" d="M349.827 102.305L352.354 102.76L350.289 104.889C351.28 104.902 353.558 104.638 354.296 105.185L348.562 105.309C348.825 104.172 349.246 103.304 349.827 102.305Z"/>
	<path fill="#F4F1DE" transform="scale(1.6 1.6)" d="M217.492 512.489L218.302 512.636C216.02 515.415 200.001 529.129 197.381 531.034L196.527 530.625C196.921 526.757 213.446 513.796 217.492 512.489Z"/>
	<path fill="#8E96AA" transform="scale(1.6 1.6)" d="M367.736 526.471C369.35 526.038 371.571 525.388 373.105 526.164C365.278 529.766 358.674 536.055 351.775 541.15C346.242 545.236 340.486 548.976 335 553.135L334.844 552.841C343.141 545.618 351.962 538.83 360.535 531.922C362.828 530.075 365.682 528.552 367.736 526.471Z"/>
	<path fill="#F4F1DE" transform="scale(1.6 1.6)" d="M338.012 102.455C341.687 101.955 346.131 101.957 349.827 102.305C349.246 103.304 348.825 104.172 348.562 105.309L354.296 105.185L367.285 105.902L367.519 107.043C400.987 101.87 458.02 130.926 483.28 149.468C554.265 201.577 580.47 289.836 547.295 371.201C540.477 387.92 531.51 403.206 522.508 418.75C512.08 436.757 508.412 454.043 511.418 474.844C511.655 476.484 514.748 486.444 510.575 484.419C505.68 477.109 504.845 468.059 504.731 459.515C504.62 458.109 504.541 456.875 504.773 455.469L504.375 455.469C504.351 460.355 503.875 465.658 505 470.469L505.312 472.031C505.455 472.613 505.408 472.991 505.625 473.594L506.699 477.471C507.043 478.502 507.517 479.406 507.812 480.469L508.251 481.905C507.455 482.724 506.841 483.405 505.859 483.984L505 484.688C502.437 486.648 499.82 486.541 497.031 487.5L495.91 487.744C493.684 488.189 491.229 488.007 488.984 487.734L488.53 487.622C486.874 487.24 478.837 486.998 478.058 485.848C477.489 485.006 478.311 484.282 477.711 483.227L476.094 482.5C475.269 481.686 474.825 481.115 474.404 480.029L474.543 479.509C474.761 478.633 474.731 477.738 474.73 476.843C477.122 473.906 479.916 471.381 482.448 468.542C486.378 464.135 490.857 456.86 497.939 458.366L498.298 457.931C497.722 457.456 496.974 457.626 496.25 457.347L495.908 457.493C494.433 458.083 492.055 458.161 491.014 459.517C486.203 461.522 483.616 466.419 480.221 470.144C465.413 486.39 439.317 503.361 418.311 511.738C406.022 516.639 385.775 523.47 373.105 526.164C371.571 525.388 369.35 526.038 367.736 526.471C361.221 526.969 354.452 527.977 347.969 528.898C324.844 532.184 300.964 530.749 277.903 527.411C276.542 527.214 274.567 526.695 273.228 526.957L272.72 526.692C240.873 519.063 216.261 510.383 188.479 493.033C187.492 492.416 186.441 491.48 185.312 491.212L184.467 491.847L184.278 491.64L184.718 490.938C184.647 490.124 183.598 489.712 182.935 489.252C151.922 467.731 127.825 445.203 108.146 412.29C70.745 349.74 67.4746 295.28 106.945 231.628C138.35 180.984 185.908 142.422 240.682 119.739C255.082 113.775 264.093 111.231 278.921 107.248C281.954 106.434 289.348 101.763 286.466 108.656L286.359 108.902C291.558 108.222 296.544 106.391 301.661 105.362C313.228 103.038 326.149 101.912 338.012 102.455ZM184.278 491.64L184.467 491.847L185.312 491.212C186.441 491.48 187.492 492.416 188.479 493.033C216.261 510.383 240.873 519.063 272.72 526.692L273.228 526.957C274.567 526.695 276.542 527.214 277.903 527.411C300.964 530.749 324.844 532.184 347.969 528.898C354.452 527.977 361.221 526.969 367.736 526.471C369.35 526.038 371.571 525.388 373.105 526.164C385.775 523.47 406.022 516.639 418.311 511.738C439.317 503.361 465.413 486.39 480.221 470.144C483.616 466.419 486.203 461.522 491.014 459.517C485.874 455.311 481.699 449.941 475.537 447.17C466.336 443.033 439.92 443.304 428.438 442.525C412.561 441.447 395.631 440.187 383.841 428.162C374.408 418.542 378.292 400.211 378.444 387.943C381.066 385.318 384.213 383.178 387.073 380.816C397.119 372.521 402.149 362.189 406.407 350.055C412.299 333.261 409.263 338.677 421.487 327.088C426.984 321.877 440.198 302.723 432.81 295.259L432.537 294.993C431.682 287.44 427.826 280.154 419.401 279.665L418.906 279.641C417.728 279.571 417.093 280.05 416.124 280.647C414.388 283.674 412.258 286.615 411.123 289.937L410.42 294.446L409.908 301.034C409.731 303.401 407.358 327.413 406.305 328.48C407.039 329.407 408.453 329.828 409.484 330.408C408.088 333.347 406.302 336.056 404.989 339.035C401.839 346.179 399.691 353.719 396.372 360.825C387.718 379.351 366.301 392.043 348.497 401.245C346.149 402.459 343.125 403.505 340.993 405.009C324.479 417.914 289.307 403.92 275.339 393.015C275.735 392.707 275.561 392.914 275.792 392.344L232.285 348.845C230.827 347.032 230.162 345.501 229.19 343.49L230.469 342.715C232.569 337.011 227.589 336.106 223.56 333.925L223.262 333.761C223.457 332.824 223.582 330.909 223.262 329.996C220.698 322.689 220.354 313.256 220.431 305.469C220.488 299.66 220.689 298.037 220.144 292.28C218.618 286.996 218.585 282.91 218.382 277.457C218.008 267.442 216.957 257.556 216.205 247.574C217.356 246.127 216.963 244.546 217.875 243.041C217.366 241.887 216.121 240.526 215.242 239.618C213.566 235.865 214.605 220.006 215.309 216.25C218.862 197.302 234.091 185.407 249.19 175.175L249.485 175.427C257.759 173.076 269.764 160.3 275.819 158.454L276.207 158.03C279.578 158.133 282.867 156.686 286.126 155.927C286.478 159.087 286.751 159.564 290.027 159.087C291.718 157.24 293.547 151.056 293.622 148.75L293.125 148.229C289.732 149.583 290.409 147.772 286.701 151.255L285.958 150.469C284.624 149.048 284.31 146.602 283.716 144.76C275.48 129.653 267.059 145.255 261.303 152.422C248.837 167.94 233.696 181.456 215.683 189.975C193.571 200.433 195.232 229.052 199.182 249.674C201.21 260.259 204.636 270.546 206.796 281.108C189.44 288.951 184.729 305.398 194.948 322.222C200.234 330.925 209.19 337.985 216.406 345.056C224.878 353.358 232.957 362.061 241.234 370.556C245.867 375.31 250.974 379.766 255.295 384.798L255.686 385.258L255.781 386.597C256.296 395.371 257.391 420.627 251.217 427.436C232.399 448.187 179.8 453.814 150.727 455.345C128.648 437.292 112.172 410.296 100.223 384.748C88.2669 359.185 81.0036 333.217 84.7583 304.59C93.9318 234.648 156.243 168.07 216.416 136.354C230.16 129.11 264.108 112.47 279.688 110.374L280.057 110.781C279.567 112.545 263.494 128.285 260.976 131.25L261.094 131.518C268.551 124.217 275.85 117.819 284.768 112.338C285.228 111.196 285.434 109.684 286.359 108.902L286.466 108.656C289.348 101.763 281.954 106.434 278.921 107.248C264.093 111.231 255.082 113.775 240.682 119.739C185.908 142.422 138.35 180.984 106.945 231.628C67.4746 295.28 70.745 349.74 108.146 412.29C127.825 445.203 151.922 467.731 182.935 489.252C183.598 489.712 184.647 490.124 184.718 490.938L184.278 491.64Z"/>
	<path fill="#7D747A" transform="scale(1.6 1.6)" d="M387.187 111.303C388.602 111.711 390.028 112.051 391.33 112.757C385.033 114.796 380.258 116.739 374.338 119.718C378.389 115.754 381.958 113.383 387.187 111.303Z"/>
	<path fill="#3D405B" transform="scale(1.6 1.6)" d="M487.566 386.035C488.434 386 489.396 385.747 490.116 386.25C488.544 388.652 480.504 393.962 478.092 395.276C473.394 397.979 483.78 387.228 487.566 386.035Z"/>
	<path fill="#3D405B" transform="scale(1.6 1.6)" d="M518.19 235.856C524.27 235.881 508.704 246.688 507.811 247.418C507.137 247.642 507.076 247.691 506.406 247.486L506.319 246.875C508.782 242.654 514.385 238.959 518.19 235.856Z"/>
	<path fill="#3D405B" transform="scale(1.6 1.6)" d="M516.161 223.71C518.021 226.189 505.036 235.296 502.965 236.432L502.636 235.288C503.694 231.803 512.85 225.362 516.161 223.71Z"/>
	<path fill="#3D405B" transform="scale(1.6 1.6)" d="M528.991 269.557C529.735 269.603 529.713 269.509 530.347 270L530.347 271.007C530.141 273.812 524.623 279.862 521.392 279.519C520.445 278.904 519.617 278.164 518.763 277.428C520.239 275.992 526.993 271.04 528.991 269.557Z"/>
	<path fill="#3D405B" transform="scale(1.6 1.6)" d="M484.754 175.833L485.87 176.875C482.774 181.246 478.207 185.771 473.851 188.914C473.223 188.65 472.746 188.383 472.203 187.969L472.284 187.586C473.424 183.858 481.696 177.726 484.754 175.833Z"/>
	<path fill="#3D405B" transform="scale(1.6 1.6)" d="M538.042 318.693L538.696 319.062C536.812 322.515 519.832 336.409 516.326 339.163L515.817 339.219C522.43 331.379 529.121 323.971 538.042 318.693Z"/>
	<path fill="#3D405B" transform="scale(1.6 1.6)" d="M236.146 158.741L236.367 159.219C228.738 166.831 220.703 173.365 211.969 179.653L211.746 179.536C216.306 171.883 228.796 163.125 236.146 158.741Z"/>
	<path fill="#3D405B" transform="scale(1.6 1.6)" d="M338.012 102.455C341.687 101.955 346.131 101.957 349.827 102.305C349.246 103.304 348.825 104.172 348.562 105.309C339.36 107.33 330.562 110.629 321.227 111.993C324.79 110.032 341.611 105.076 342.333 104.389L343.281 104.062C343.286 103.359 343.509 103.369 343.984 102.891C342.075 102.492 339.976 102.653 338.012 102.455Z"/>
	<path fill="#3D405B" transform="scale(1.6 1.6)" d="M429.972 418.187L430.146 418.309C429.034 420.424 413.255 434.1 410.885 435.155C407.83 430.647 426.298 419.477 429.972 418.187Z"/>
	<path fill="#3D405B" transform="scale(1.6 1.6)" d="M461.419 142.242L461.442 142.463C461.243 143.855 459.441 144.733 458.446 145.521C449.28 152.772 440.852 160.664 433.013 169.355C432.806 167.506 436.647 164.087 437.788 162.729C444.161 155.143 451.776 145.622 461.419 142.242Z"/>
	<path fill="#3D405B" transform="scale(1.6 1.6)" d="M205.486 413.709L206.031 413.962C206.416 414.648 206.863 415.319 207.037 416.094L206.406 415.753C203.78 416.789 187.072 431.364 183.351 434.185L181.831 434.688C189.425 427.348 195.992 418.75 205.486 413.709Z"/>
	<path fill="#3D405B" transform="scale(1.6 1.6)" d="M499.715 396.523C500.675 396.532 500.814 396.434 501.544 397.031L501.478 397.412C500.379 400.814 485.677 410.848 482.615 412.783L481.148 413.125C483.929 407.11 494.302 399.611 499.715 396.523Z"/>
	<path fill="#3D405B" transform="scale(1.6 1.6)" d="M539.627 322.478L539.922 322.969C535.326 330.771 522.386 341.239 515.096 347.633C512.978 343.96 519.64 339.942 522.131 337.855C527.876 333.042 534.898 328.259 539.627 322.478Z"/>
	<path fill="#3D405B" transform="scale(1.6 1.6)" d="M499.352 414.897C500.237 414.928 500.253 414.876 500.897 415.469L500.859 415.908C500.349 419.716 487.921 428.36 484.591 430.984C482.912 431.342 483.369 429.128 483.595 428.037C484.11 425.551 496.742 416.629 499.352 414.897Z"/>
	<path fill="#3D405B" transform="scale(1.6 1.6)" d="M501.743 190.591L502.385 190.73C503.88 194.731 488.18 204.895 484.91 206.686C484.176 205.895 483.938 205.461 483.792 204.375C486.513 199.851 496.724 193.226 501.743 190.591Z"/>
	<path fill="#3D405B" transform="scale(1.6 1.6)" d="M532.287 291.178L532.886 291.236C533.798 291.366 534.151 291.476 534.714 292.188L534.647 292.557C533.061 297.888 520.924 306.193 516.334 308.354C515.743 308.666 515.411 308.711 514.745 308.699L514.779 308.448C515.495 305.708 529.559 292.946 532.287 291.178Z"/>
	<path fill="#3D405B" transform="scale(1.6 1.6)" d="M523.568 246.149L524.007 246.503C524.67 248.345 524.062 250.474 524.007 252.431C522.588 254.29 512.963 262.666 510.694 263.928C507.239 259.032 519.813 249.664 523.568 246.149Z"/>
	<path fill="#3D405B" transform="scale(1.6 1.6)" d="M537.022 305.583C537.52 305.865 537.947 306.334 538.373 306.719L538.419 307.969C534.724 312.092 521.557 322.994 516.052 325.781C515.554 325.964 515.851 325.925 515.156 325.714L515.262 325C516.992 319.87 532.677 307.949 537.022 305.583Z"/>
	<path fill="#3D405B" transform="scale(1.6 1.6)" d="M534.251 354.103L534.45 354.692C531.779 360.592 505.832 374.408 499.839 376.754L499.596 376.394C499.261 370.741 529.489 355.807 534.251 354.103Z"/>
	<defs>
		<linearGradient id="gradient_0" gradientUnits="userSpaceOnUse" x1="314.92697" y1="102.27303" x2="314.7547" y2="111.47686">
			<stop offset="0" stop-color="#5B5367"/>
			<stop offset="1" stop-color="#747273"/>
		</linearGradient>
	</defs>
	<path fill="url(#gradient_0)" transform="scale(1.6 1.6)" d="M286.359 108.902C291.558 108.222 296.544 106.391 301.661 105.362C313.228 103.038 326.149 101.912 338.012 102.455C339.976 102.653 342.075 102.492 343.984 102.891C343.509 103.369 343.286 103.359 343.281 104.062L342.333 104.389C332.831 104.362 322.769 104.66 313.422 106.129C306.247 107.257 304.371 108.832 298.678 112.969C296.496 114.555 286.257 122.504 285.472 121.719C291.222 117.46 299.043 110.597 305.378 107.779C297.077 108.987 292.901 109.211 284.768 112.338C285.228 111.196 285.434 109.684 286.359 108.902Z"/>
	<path fill="#3D405B" transform="scale(1.6 1.6)" d="M367.519 107.043C400.987 101.87 458.02 130.926 483.28 149.468C554.265 201.577 580.47 289.836 547.295 371.201C540.477 387.92 531.51 403.206 522.508 418.75C512.08 436.757 508.412 454.043 511.418 474.844C511.655 476.484 514.748 486.444 510.575 484.419C505.68 477.109 504.845 468.059 504.731 459.515C505.091 456.632 505.033 453.678 505.321 450.781C507.051 433.383 516.728 419.233 525.158 404.392C538.032 381.728 548.818 358.365 553.832 332.617C562.716 287.006 551.761 239.597 525.896 201.25C510.398 178.272 489.797 157.228 465.496 143.541C463.132 142.21 462.57 141.848 460.413 140.464C448.742 132.976 418.466 118.676 404.058 115.88C398.453 117.926 393.43 121.723 388.125 124.439L387.796 124.219C392.32 120.92 397.805 117.122 403.128 115.284L391.33 112.757C390.028 112.051 388.602 111.711 387.187 111.303C369.385 107.17 357.479 116.658 355.156 116.141C356.17 112.05 364.183 109.058 367.519 107.043Z"/>
	<path fill="#3D405B" transform="scale(1.6 1.6)" d="M184.278 491.64L184.718 490.938C184.647 490.124 183.598 489.712 182.935 489.252C151.922 467.731 127.825 445.203 108.146 412.29C70.745 349.74 67.4746 295.28 106.945 231.628C138.35 180.984 185.908 142.422 240.682 119.739C255.082 113.775 264.093 111.231 278.921 107.248C281.954 106.434 289.348 101.763 286.466 108.656L286.359 108.902C285.434 109.684 285.228 111.196 284.768 112.338C275.85 117.819 268.551 124.217 261.094 131.518L260.976 131.25C263.494 128.285 279.567 112.545 280.057 110.781L279.688 110.374C264.108 112.47 230.16 129.11 216.416 136.354C156.243 168.07 93.9318 234.648 84.7583 304.59C81.0036 333.217 88.2669 359.185 100.223 384.748C112.172 410.296 128.648 437.292 150.727 455.345C179.8 453.814 232.399 448.187 251.217 427.436C257.391 420.627 256.296 395.371 255.781 386.597L255.686 385.258L255.295 384.798C250.974 379.766 245.867 375.31 241.234 370.556C232.957 362.061 224.878 353.358 216.406 345.056C209.19 337.985 200.234 330.925 194.948 322.222C184.729 305.398 189.44 288.951 206.796 281.108C204.636 270.546 201.21 260.259 199.182 249.674C195.232 229.052 193.571 200.433 215.683 189.975C233.696 181.456 248.837 167.94 261.303 152.422C267.059 145.255 275.48 129.653 283.716 144.76C284.31 146.602 284.624 149.048 285.958 150.469L286.701 151.255C290.409 147.772 289.732 149.583 293.125 148.229L293.622 148.75C293.547 151.056 291.718 157.24 290.027 159.087C286.751 159.564 286.478 159.087 286.126 155.927C282.867 156.686 279.578 158.133 276.207 158.03L275.819 158.454C269.764 160.3 257.759 173.076 249.485 175.427L249.19 175.175C234.091 185.407 218.862 197.302 215.309 216.25C214.605 220.006 213.566 235.865 215.242 239.618C216.121 240.526 217.366 241.887 217.875 243.041C216.963 244.546 217.356 246.127 216.205 247.574C216.957 257.556 218.008 267.442 218.382 277.457C218.585 282.91 218.618 286.996 220.144 292.28C220.689 298.037 220.488 299.66 220.431 305.469C220.354 313.256 220.698 322.689 223.262 329.996C223.582 330.909 223.457 332.824 223.262 333.761L223.56 333.925C227.589 336.106 232.569 337.011 230.469 342.715L229.19 343.49C230.162 345.501 230.827 347.032 232.285 348.845L275.792 392.344C275.561 392.914 275.735 392.707 275.339 393.015C289.307 403.92 324.479 417.914 340.993 405.009C343.125 403.505 346.149 402.459 348.497 401.245C366.301 392.043 387.718 379.351 396.372 360.825C399.691 353.719 401.839 346.179 404.989 339.035C406.302 336.056 408.088 333.347 409.484 330.408C408.453 329.828 407.039 329.407 406.305 328.48C407.358 327.413 409.731 303.401 409.908 301.034L410.42 294.446L411.123 289.937C412.258 286.615 414.388 283.674 416.124 280.647C417.093 280.05 417.728 279.571 418.906 279.641L419.401 279.665C427.826 280.154 431.682 287.44 432.537 294.993L432.81 295.259C440.198 302.723 426.984 321.877 421.487 327.088C409.263 338.677 412.299 333.261 406.407 350.055C402.149 362.189 397.119 372.521 387.073 380.816C384.213 383.178 381.066 385.318 378.444 387.943C378.292 400.211 374.408 418.542 383.841 428.162C395.631 440.187 412.561 441.447 428.438 442.525C439.92 443.304 466.336 443.033 475.537 447.17C481.699 449.941 485.874 455.311 491.014 459.517C486.203 461.522 483.616 466.419 480.221 470.144C465.413 486.39 439.317 503.361 418.311 511.738C406.022 516.639 385.775 523.47 373.105 526.164C371.571 525.388 369.35 526.038 367.736 526.471C361.221 526.969 354.452 527.977 347.969 528.898C324.844 532.184 300.964 530.749 277.903 527.411C276.542 527.214 274.567 526.695 273.228 526.957L272.72 526.692C240.873 519.063 216.261 510.383 188.479 493.033C187.492 492.416 186.441 491.48 185.312 491.212L184.467 491.847L184.278 491.64ZM163.751 464.456C164.333 463.216 164.87 463.039 166.001 462.307L161.407 460.762L159.151 461.043C160.385 462.411 162.22 463.424 163.751 464.456Z"/>
	<path fill="#F4F1DE" transform="scale(1.6 1.6)" d="M215.242 239.618C216.121 240.526 217.366 241.887 217.875 243.041C216.963 244.546 217.356 246.127 216.205 247.574L215.242 239.618Z"/>
	<path fill="#F4F1DE" transform="scale(1.6 1.6)" d="M166.001 462.307C167.075 463.13 168.386 463.943 169.295 464.936C168.349 465.169 167.699 465.092 167.169 465.938L167.988 467.374L163.751 464.456C164.333 463.216 164.87 463.039 166.001 462.307Z"/>
	<path fill="#F4F1DE" transform="scale(1.6 1.6)" d="M195.381 305.558C195.329 303.767 195.271 302.112 195.775 300.373L195.937 299.844C197.513 294.413 203.69 287.794 209.751 288.197C206.798 292.808 201.095 291.605 196.675 302.614C196.414 303.263 195.941 305.435 195.381 305.558Z"/>
	<path fill="white" transform="scale(1.6 1.6)" d="M424.834 291.582C425.315 293.037 425.733 294.419 425.981 295.938L426.067 296.442C428.061 308.95 420.244 322.514 410.438 329.909L412.784 321.138C417.651 313.401 422.325 305.862 423.936 296.751C424.23 295.088 423.941 293.011 424.834 291.582Z"/>
	<path fill="white" transform="scale(1.6 1.6)" d="M249.19 175.175C255.511 170.336 262.147 164.212 266.436 157.504C269.071 153.382 270.725 147.176 274.375 144.001C276.238 144.708 275.741 152.999 274.927 155L275.795 155.443L276.207 158.03L275.819 158.454C269.764 160.3 257.759 173.076 249.485 175.427L249.19 175.175Z"/>
	<path fill="#E07A5F" transform="scale(1.6 1.6)" d="M412.784 321.138C413.032 315.096 414.566 305.382 415.557 299.453C416.273 295.173 419.41 279.414 424.834 291.582C423.941 293.011 424.23 295.088 423.936 296.751C422.325 305.862 417.651 313.401 412.784 321.138Z"/>
	<path fill="#E07A5F" transform="scale(1.6 1.6)" d="M209.751 288.197C209.485 290.518 211.558 293.302 212.021 295.712C206.165 304.57 204.641 308.267 200.04 317.682C197.301 313.847 195.832 310.27 195.381 305.558C195.941 305.435 196.414 303.263 196.675 302.614C201.095 291.605 206.798 292.808 209.751 288.197Z"/>
	<path fill="#F4F1DE" transform="scale(1.6 1.6)" d="M223.262 333.761L223.56 333.925C227.589 336.106 232.569 337.011 230.469 342.715L229.19 343.49C230.162 345.501 230.827 347.032 232.285 348.845L275.792 392.344C275.561 392.914 275.735 392.707 275.339 393.015C262.067 383.987 240.604 362.684 231.435 350.229L217.423 336.061C218.608 335.962 219.41 336.166 220.245 335.282C222.045 335.171 222.043 335.031 223.262 333.761Z"/>
	<path fill="white" transform="scale(1.6 1.6)" d="M212.021 295.712C214.544 305.656 212.347 328.677 220.245 335.282C219.41 336.166 218.608 335.962 217.423 336.061C210.813 330.583 204.678 324.964 200.04 317.682C204.641 308.267 206.165 304.57 212.021 295.712Z"/>
	<path fill="white" transform="scale(1.6 1.6)" d="M217.687 195.621L217.99 195.861C211.088 210.394 208.927 215.355 209.627 231.787C210.272 246.945 213.133 262.18 212.713 277.344L212.369 277.344C211.567 275.961 211.362 274.439 211.055 272.891C209.472 267.174 207.501 261.545 206.094 255.784C201.708 237.836 197.962 205.959 217.687 195.621Z"/>
	<path fill="white" transform="scale(1.6 1.6)" d="M357.505 403.662L371.362 394.677C371.463 403.207 370.4 414.648 372.736 422.739C361.92 437.303 340.174 455.538 322.695 458.338C317.882 459.109 314.27 458.331 309.674 456.913L310.23 455.436C316.349 452.286 324.214 448.604 329.789 445.365C336.835 441.269 354.961 428.195 360.14 422.394C360.089 417.675 359.177 412.866 358.592 408.18C358.53 406.554 358.023 405.185 357.505 403.662Z"/>
	<path fill="white" transform="scale(1.6 1.6)" d="M167.988 467.374L167.169 465.938C167.699 465.092 168.349 465.169 169.295 464.936L169.717 465.069C177.428 471.185 186.003 475.875 194.686 480.428C223.401 495.485 241.575 503.248 273.75 502.077C277.086 501.956 280.304 501.75 283.573 502.635C290.917 504.622 309.695 515.925 314.69 521.953C311.472 521.075 307.642 521.2 304.284 520.758C255.818 514.39 207.299 496.715 167.988 467.374Z"/>
	<path fill="white" transform="scale(1.6 1.6)" d="M376.828 429.818L388.092 439.594C366.99 445.191 333.448 469.441 316.25 469.251C304.932 469.125 293.523 465.128 282.577 462.484C267.781 458.91 256.028 459.395 243.701 449.219C241.791 447.642 240.166 445.58 237.931 444.499L237.464 444.261C243.299 441.54 248.614 436.241 254.067 432.737C262.757 445.732 278.023 452.808 292.196 457.607C300.737 460.499 311.281 465.403 320.362 464.631C337.98 463.134 364.672 443.68 376.828 429.818Z"/>
	<path fill="white" transform="scale(1.6 1.6)" d="M473.141 452.55C477.055 454.317 479.704 456.152 482.619 459.332C471.739 478.181 450.93 489.801 432.154 499.602C417.786 507.102 401.079 511.902 385.4 516.102L358.469 520.706L358.438 520.317C366.603 514.895 376.721 512.469 385.625 508.461C398.664 502.593 412.854 492.664 428.006 496.269C427.8 493.892 428.026 491.556 428.632 489.254C432.907 485.781 438.081 483.464 442.803 480.659C453.442 474.34 464.852 465.518 472.17 455.299L473.141 452.55Z"/>
	<path fill="#E07A5F" transform="scale(1.6 1.6)" d="M260.284 387.865C278.568 407.298 315.389 423.443 341.058 413.028C346.256 410.92 351.179 407.796 355.855 404.73L357.505 403.662C358.023 405.185 358.53 406.554 358.592 408.18C359.177 412.866 360.089 417.675 360.14 422.394C354.961 428.195 336.835 441.269 329.789 445.365C324.214 448.604 316.349 452.286 310.23 455.436L309.674 456.913C297.232 453.326 270.749 442.371 262.218 433.513C259.213 430.251 260.03 425.462 260.137 421.419C260.433 410.19 260.453 399.099 260.284 387.865Z"/>
	<path fill="#F4F1DE" transform="scale(1.6 1.6)" d="M262.218 433.513C265.767 432.076 278.733 440.017 282.5 441.616C289.095 444.417 296.241 446.618 302.525 450.048C305.257 451.54 307.578 453.785 310.23 455.436L309.674 456.913C297.232 453.326 270.749 442.371 262.218 433.513Z"/>
	<path fill="#E07A5F" transform="scale(1.6 1.6)" d="M388.092 439.594C406.704 448.877 428.359 449.132 448.748 449.63C455.843 449.804 463.765 449.389 470.59 451.623L473.141 452.55L472.17 455.299C464.852 465.518 453.442 474.34 442.803 480.659C438.081 483.464 432.907 485.781 428.632 489.254C428.026 491.556 427.8 493.892 428.006 496.269C412.854 492.664 398.664 502.593 385.625 508.461C376.721 512.469 366.603 514.895 358.438 520.317L358.469 520.706C353.766 521.78 319.047 524.082 314.69 521.953C309.695 515.925 290.917 504.622 283.573 502.635C280.304 501.75 277.086 501.956 273.75 502.077C241.575 503.248 223.401 495.485 194.686 480.428C186.003 475.875 177.428 471.185 169.717 465.069L169.295 464.936C168.386 463.943 167.075 463.13 166.001 462.307L161.407 460.762C163.461 460.068 165.916 459.988 168.07 459.621C185.791 456.785 209.867 453.051 227.024 448.064C230.589 447.028 233.957 445.462 237.464 444.261L237.931 444.499C240.166 445.58 241.791 447.642 243.701 449.219C256.028 459.395 267.781 458.91 282.577 462.484C293.523 465.128 304.932 469.125 316.25 469.251C333.448 469.441 366.99 445.191 388.092 439.594Z"/>
	<path fill="#ECBAAE" transform="scale(1.6 1.6)" d="M472.17 455.299C471.207 454.306 470.59 453.534 470.152 452.188L470.59 451.623L473.141 452.55L472.17 455.299Z"/>
	<path fill="#E07A5F" transform="scale(1.6 1.6)" d="M305.19 144.808L304.164 144.312C303.985 138.51 303.577 128.846 307.976 124.342C315.12 117.028 323.003 130.655 327.199 135.34C338.036 147.44 360.201 148.254 369.898 134.288C370.632 133.23 374.422 125.603 375.323 130.312L375.584 132.477C390.073 136.248 384.036 141.94 387.23 153.874L387.403 154.576C390.575 154.824 397.993 154.959 399.906 157.857C401.697 160.571 399.084 177.797 396.608 180.938C397.776 182.257 399.363 183.177 400.777 184.221C416.872 196.107 424.199 214.367 423.06 233.875C422.703 239.992 422.422 246.151 420.236 251.947C419.225 254.626 417.266 257.289 416.794 260.068C416.174 263.726 415.747 277.725 414.994 279.677L413.618 280.121C414.641 280.093 415.133 280.06 416.031 280.617L416.124 280.647C414.388 283.674 412.258 286.615 411.123 289.937L410.42 294.446L409.908 301.034C409.731 303.401 407.358 327.413 406.305 328.48C407.039 329.407 408.453 329.828 409.484 330.408C408.088 333.347 406.302 336.056 404.989 339.035C401.839 346.179 399.691 353.719 396.372 360.825C387.718 379.351 366.301 392.043 348.497 401.245C346.149 402.459 343.125 403.505 340.993 405.009C324.479 417.914 289.307 403.92 275.339 393.015C275.735 392.707 275.561 392.914 275.792 392.344L232.285 348.845C230.827 347.032 230.162 345.501 229.19 343.49L230.469 342.715C232.569 337.011 227.589 336.106 223.56 333.925L223.262 333.761C223.457 332.824 223.582 330.909 223.262 329.996C220.698 322.689 220.354 313.256 220.431 305.469C220.488 299.66 220.689 298.037 220.144 292.28C218.618 286.996 218.585 282.91 218.382 277.457C218.008 267.442 216.957 257.556 216.205 247.574C217.356 246.127 216.963 244.546 217.875 243.041C217.366 241.887 216.121 240.526 215.242 239.618C213.566 235.865 214.605 220.006 215.309 216.25C218.862 197.302 234.091 185.407 249.19 175.175L249.485 175.427C257.759 173.076 269.764 160.3 275.819 158.454L276.207 158.03C279.578 158.133 282.867 156.686 286.126 155.927C286.478 159.087 286.751 159.564 290.027 159.087C290.907 161.538 292.149 161.508 294.274 160.336C299.964 157.199 303.559 150.941 305.19 144.808Z"/>
	<path fill="#F4F1DE" transform="scale(1.6 1.6)" d="M333.902 173.136L335.094 172.828C334.774 175.523 334.147 177.661 332.471 179.838C332.042 179.995 331.712 180.156 331.25 180.156L331.434 178.877C332.483 176.971 333.308 175.234 333.902 173.136Z"/>
	<path fill="#F4F1DE" transform="scale(1.6 1.6)" d="M406.718 293.462C408.1 293.104 408.769 292.776 409.677 291.656L411.123 289.937L410.42 294.446C409.267 294.775 408.42 295.203 407.425 295.871L406.718 293.462Z"/>
	<path fill="white" transform="scale(1.6 1.6)" d="M331.434 178.877L331.25 180.156C331.712 180.156 332.042 179.995 332.471 179.838C328.571 185.523 322.249 188.792 315.827 190.781L315.451 190.466C321.736 187.811 327.12 184.211 331.434 178.877Z"/>
	<path fill="#ECBAAE" transform="scale(1.6 1.6)" d="M330.209 154.208C331.685 153.352 332.377 152.928 334.093 153.289C333.948 158.249 335.81 170.81 335.094 172.828L333.902 173.136L333.556 167.059C332.905 162.592 331.699 158.464 330.209 154.208Z"/>
	<path fill="#ECBAAE" transform="scale(1.6 1.6)" d="M377.942 141.141C381.449 145.263 379.478 168.448 378.783 174.188C377.512 175.136 376.749 175.686 376.118 177.188L375.435 178.653L374.588 178.722L373.991 176.562C372.281 170.874 373.605 158.078 374.765 152.524L374.598 152.17C374.079 151.046 373.741 150.229 372.775 149.425C375.633 145.827 377.64 146.794 377.942 141.141Z"/>
	<path fill="white" transform="scale(1.6 1.6)" d="M217.875 243.041C224.926 246.71 227.124 264.98 226.455 271.846C225.857 277.976 223.706 287.323 220.144 292.28C218.618 286.996 218.585 282.91 218.382 277.457C218.008 267.442 216.957 257.556 216.205 247.574C217.356 246.127 216.963 244.546 217.875 243.041Z"/>
	<path fill="white" transform="scale(1.6 1.6)" d="M312.938 129.547C318.673 133.63 320.046 138.001 321.173 144.667C324.16 162.332 320.961 183.857 304.96 194.623L283.896 203.548C312.863 183.359 317.034 171.779 311.339 135.521C311.453 133.302 312.144 131.593 312.938 129.547Z"/>
	<path fill="white" transform="scale(1.6 1.6)" d="M398.577 329.386C400.374 329.089 404.606 328.01 406.305 328.48C407.039 329.407 408.453 329.828 409.484 330.408C408.088 333.347 406.302 336.056 404.989 339.035C401.839 346.179 399.691 353.719 396.372 360.825C387.718 379.351 366.301 392.043 348.497 401.245C346.149 402.459 343.125 403.505 340.993 405.009L340.158 404.971C335.157 404.748 333.444 400.434 331.131 396.613L331.367 395.869C331.768 394.971 332.012 394.671 332.063 393.628C332.181 391.701 334.62 390.83 336.124 390.143L340.518 394.035C365.642 387.488 389.778 363.538 397.158 338.556C398.014 335.66 397.914 332.385 398.577 329.386Z"/>
	<path fill="white" transform="scale(1.6 1.6)" d="M390.006 193.629C405.598 211.016 412.058 233.725 410.841 256.795C410.522 262.838 407.475 277.673 413.618 280.121C414.641 280.093 415.133 280.06 416.031 280.617L416.124 280.647C414.388 283.674 412.258 286.615 411.123 289.937L409.677 291.656C408.769 292.776 408.1 293.104 406.718 293.462C403.4 280.715 401.172 278.815 402.19 265.469C403.892 243.155 407.646 223.598 384.568 210.884C379.193 214.999 374.502 219.326 368.508 222.652C347.64 234.231 318.607 236.573 295.272 232C289.79 230.926 279.371 227.589 273.979 228.942L273.594 229.048C264.005 231.604 261.181 242.019 258.125 242.831L257.512 242.344C255.535 237.13 264.286 228.595 268.171 226.37L268.702 226.281C278.354 224.708 292.806 229.431 302.969 230.946C330.17 235.003 365.412 229.16 382.642 205.636L390.006 193.629Z"/>
	<path fill="#3D405B" transform="scale(1.6 1.6)" d="M305.19 144.808L304.164 144.312C303.985 138.51 303.577 128.846 307.976 124.342C315.12 117.028 323.003 130.655 327.199 135.34C338.036 147.44 360.201 148.254 369.898 134.288C370.632 133.23 374.422 125.603 375.323 130.312L375.584 132.477C390.073 136.248 384.036 141.94 387.23 153.874L387.403 154.576C390.575 154.824 397.993 154.959 399.906 157.857C401.697 160.571 399.084 177.797 396.608 180.938C397.776 182.257 399.363 183.177 400.777 184.221C416.872 196.107 424.199 214.367 423.06 233.875C422.703 239.992 422.422 246.151 420.236 251.947C419.225 254.626 417.266 257.289 416.794 260.068C416.174 263.726 415.747 277.725 414.994 279.677L413.618 280.121C407.475 277.673 410.522 262.838 410.841 256.795C412.058 233.725 405.598 211.016 390.006 193.629L382.642 205.636C365.412 229.16 330.17 235.003 302.969 230.946C292.806 229.431 278.354 224.708 268.702 226.281L268.171 226.37C268.906 224.415 272.967 222.783 274.789 221.871C275.057 217.913 302.934 218.675 306.719 218.425C320.194 217.536 333.479 214.898 346.581 211.712C364.695 207.307 361.497 203.625 373.206 192.469C373.055 189.999 374.779 187.897 376.019 185.888L377.378 182.512L378.175 179.202L378.45 178.966L378.783 174.188C379.478 168.448 381.449 145.263 377.942 141.141C377.64 146.794 375.633 145.827 372.775 149.425C361.426 155.211 346.307 154.454 334.093 153.289C332.377 152.928 331.685 153.352 330.209 154.208C331.699 158.464 332.905 162.592 333.556 167.059L333.902 173.136C333.308 175.234 332.483 176.971 331.434 178.877C327.12 184.211 321.736 187.811 315.451 190.466C312.58 191.555 307.995 194.619 304.96 194.623C320.961 183.857 324.16 162.332 321.173 144.667C320.046 138.001 318.673 133.63 312.938 129.547C312.144 131.593 311.453 133.302 311.339 135.521C309.989 138.287 307.474 142.65 305.19 144.808Z"/>
	<path fill="white" transform="scale(1.6 1.6)" d="M394.086 187.322C407.369 191.984 416.227 212.271 417.564 224.934C418.551 234.28 417.951 244.746 416.694 254.014C416.159 252.976 416.17 251.473 416.107 250.309C415.047 230.837 412.651 204.596 396.399 191.153C395.356 190.29 394.189 189.629 393.249 188.647L394.086 187.322Z"/>
	<path fill="white" transform="scale(1.6 1.6)" d="M326.86 142.456C339.002 152.768 356.268 154.409 369.612 144.965C372.349 143.029 374.618 138.525 377.942 141.141C377.64 146.794 375.633 145.827 372.775 149.425C361.426 155.211 346.307 154.454 334.093 153.289C332.377 152.928 331.685 153.352 330.209 154.208C328.604 150.302 327.638 146.594 326.86 142.456Z"/>
	<path fill="white" transform="scale(1.6 1.6)" d="M383.016 178.985C384.534 175.837 385.965 164.025 387.969 162.45C391.749 159.478 394.225 162.453 394.007 167.08C393.206 184.099 379.924 204.116 366.576 213.534C348.006 226.637 319.348 228.586 297.7 224.291C290.622 222.887 281.945 219.971 274.789 221.871C275.057 217.913 302.934 218.675 306.719 218.425C320.194 217.536 333.479 214.898 346.581 211.712C364.695 207.307 361.497 203.625 373.206 192.469C373.055 189.999 374.779 187.897 376.019 185.888L378.943 187.128C380.882 184.712 382.15 181.94 383.016 178.985Z"/>
	<path fill="#7D747A" transform="scale(1.6 1.6)" d="M373.206 192.469C373.055 189.999 374.779 187.897 376.019 185.888L378.943 187.128C377.315 189.212 375.377 190.959 373.206 192.469Z"/>
</svg>
